{
  "header": {
    "PPQ": 480,
    "timeSignature": [
      4,
      4
    ],
    "bpm": 120.99994353335968,
    "name": "Piano"
  },
  "tempo": [
    {
      "absoluteTime": 0,
      "seconds": 0,
      "bpm": 120.99994353335968
    }
  ],
  "timeSignature": [
    {
      "absoluteTime": 0,
      "seconds": 0,
      "numerator": 1,
      "denominator": 2,
      "click": 24,
      "notesQ": 8
    },
    {
      "absoluteTime": 480,
      "seconds": 0.49586800000000003,
      "numerator": 4,
      "denominator": 2,
      "click": 24,
      "notesQ": 8
    }
  ],
  "startTime": 0,
  "duration": 159.17259494166575,
  "tracks": [
    {
      "startTime": 0.49586800000000003,
      "duration": 159.17259494166575,
      "length": 456,
      "notes": [
        {
          "name": "C4",
          "midi": 60,
          "time": 0.49586800000000003,
          "velocity": 0.6299212598425197,
          "duration": 0.2469009416666667
        },
        {
          "name": "E4",
          "midi": 64,
          "time": 0.7438020000000001,
          "velocity": 0.6299212598425197,
          "duration": 0.24690094166666665
        },
        {
          "name": "F4",
          "midi": 65,
          "time": 0.9917360000000001,
          "velocity": 0.6299212598425197,
          "duration": 0.24690094166666665
        },
        {
          "name": "A#4",
          "midi": 70,
          "time": 1.23967,
          "velocity": 0.6299212598425197,
          "duration": 0.24690094166666676
        },
        {
          "name": "A4",
          "midi": 69,
          "time": 1.9834720000000003,
          "velocity": 0.6299212598425197,
          "duration": 0.49483494166666686
        },
        {
          "name": "C4",
          "midi": 60,
          "time": 2.4793400000000005,
          "velocity": 0.6299212598425197,
          "duration": 0.24690094166666654
        },
        {
          "name": "E4",
          "midi": 64,
          "time": 2.7272740000000004,
          "velocity": 0.6299212598425197,
          "duration": 0.24690094166666654
        },
        {
          "name": "C4",
          "midi": 60,
          "time": 2.9752080000000003,
          "velocity": 0.6299212598425197,
          "duration": 0.24690094166666654
        },
        {
          "name": "E4",
          "midi": 64,
          "time": 3.223142,
          "velocity": 0.6299212598425197,
          "duration": 0.24690094166666654
        },
        {
          "name": "F4",
          "midi": 65,
          "time": 3.471076,
          "velocity": 0.6299212598425197,
          "duration": 0.24690094166666654
        },
        {
          "name": "F4",
          "midi": 65,
          "time": 3.71901,
          "velocity": 0.6299212598425197,
          "duration": 0.24690094166666654
        },
        {
          "name": "A4",
          "midi": 69,
          "time": 3.966944,
          "velocity": 0.6299212598425197,
          "duration": 0.4948349416666664
        },
        {
          "name": "C4",
          "midi": 60,
          "time": 4.462812,
          "velocity": 0.6299212598425197,
          "duration": 0.24690094166666654
        },
        {
          "name": "E4",
          "midi": 64,
          "time": 4.710745999999999,
          "velocity": 0.6299212598425197,
          "duration": 0.24690094166666654
        },
        {
          "name": "F4",
          "midi": 65,
          "time": 4.958679999999999,
          "velocity": 0.6299212598425197,
          "duration": 0.24690094166666654
        },
        {
          "name": "A#4",
          "midi": 70,
          "time": 5.206613999999999,
          "velocity": 0.6299212598425197,
          "duration": 0.24690094166666654
        },
        {
          "name": "A4",
          "midi": 69,
          "time": 5.950415999999999,
          "velocity": 0.6299212598425197,
          "duration": 0.4948349416666664
        },
        {
          "name": "C4",
          "midi": 60,
          "time": 6.446283999999999,
          "velocity": 0.6299212598425197,
          "duration": 0.4948349416666664
        },
        {
          "name": "F4",
          "midi": 65,
          "time": 7.438019999999998,
          "velocity": 0.6299212598425197,
          "duration": 0.24690094166666654
        },
        {
          "name": "F4",
          "midi": 65,
          "time": 7.685953999999998,
          "velocity": 0.6299212598425197,
          "duration": 0.24690094166666654
        },
        {
          "name": "A4",
          "midi": 69,
          "time": 7.933887999999998,
          "velocity": 0.6299212598425197,
          "duration": 0.4948349416666673
        },
        {
          "name": "C4",
          "midi": 60,
          "time": 8.429755999999998,
          "velocity": 0.6299212598425197,
          "duration": 0.24690094166666654
        },
        {
          "name": "E4",
          "midi": 64,
          "time": 8.677689999999997,
          "velocity": 0.6299212598425197,
          "duration": 0.24690094166666654
        },
        {
          "name": "F4",
          "midi": 65,
          "time": 8.925623999999996,
          "velocity": 0.6299212598425197,
          "duration": 0.24690094166666654
        },
        {
          "name": "A#4",
          "midi": 70,
          "time": 9.173557999999995,
          "velocity": 0.6299212598425197,
          "duration": 0.24690094166666654
        },
        {
          "name": "A4",
          "midi": 69,
          "time": 9.917359999999995,
          "velocity": 0.6299212598425197,
          "duration": 0.4948349416666673
        },
        {
          "name": "C4",
          "midi": 60,
          "time": 10.413227999999995,
          "velocity": 0.6299212598425197,
          "duration": 0.24690094166666654
        },
        {
          "name": "E4",
          "midi": 64,
          "time": 10.661161999999994,
          "velocity": 0.6299212598425197,
          "duration": 0.24690094166666654
        },
        {
          "name": "C4",
          "midi": 60,
          "time": 10.909095999999993,
          "velocity": 0.6299212598425197,
          "duration": 0.24690094166666654
        },
        {
          "name": "E4",
          "midi": 64,
          "time": 11.157029999999992,
          "velocity": 0.6299212598425197,
          "duration": 0.24690094166666654
        },
        {
          "name": "F4",
          "midi": 65,
          "time": 11.40496399999999,
          "velocity": 0.6299212598425197,
          "duration": 0.24690094166666654
        },
        {
          "name": "F4",
          "midi": 65,
          "time": 11.65289799999999,
          "velocity": 0.6299212598425197,
          "duration": 0.24690094166666654
        },
        {
          "name": "A4",
          "midi": 69,
          "time": 11.900831999999989,
          "velocity": 0.6299212598425197,
          "duration": 0.4948349416666673
        },
        {
          "name": "C4",
          "midi": 60,
          "time": 12.396699999999989,
          "velocity": 0.6299212598425197,
          "duration": 0.24690094166666654
        },
        {
          "name": "E4",
          "midi": 64,
          "time": 12.644633999999987,
          "velocity": 0.6299212598425197,
          "duration": 0.24690094166666654
        },
        {
          "name": "F4",
          "midi": 65,
          "time": 12.892567999999986,
          "velocity": 0.6299212598425197,
          "duration": 0.24690094166666654
        },
        {
          "name": "A#4",
          "midi": 70,
          "time": 13.140501999999985,
          "velocity": 0.6299212598425197,
          "duration": 0.24690094166666654
        },
        {
          "name": "A#4",
          "midi": 70,
          "time": 13.884303999999986,
          "velocity": 0.6299212598425197,
          "duration": 0.24690094166666654
        },
        {
          "name": "F4",
          "midi": 65,
          "time": 14.132237999999985,
          "velocity": 0.6299212598425197,
          "duration": 0.24690094166666654
        },
        {
          "name": "E4",
          "midi": 64,
          "time": 14.380171999999984,
          "velocity": 0.6299212598425197,
          "duration": 0.4948349416666673
        },
        {
          "name": "F4",
          "midi": 65,
          "time": 15.371907999999985,
          "velocity": 0.6299212598425197,
          "duration": 0.24690094166666654
        },
        {
          "name": "F4",
          "midi": 65,
          "time": 15.619841999999984,
          "velocity": 0.6299212598425197,
          "duration": 0.24690094166666654
        },
        {
          "name": "A4",
          "midi": 69,
          "time": 15.867775999999983,
          "velocity": 0.6299212598425197,
          "duration": 0.49483494166666553
        },
        {
          "name": "C4",
          "midi": 60,
          "time": 16.363643999999983,
          "velocity": 0.6299212598425197,
          "duration": 0.4948349416666673
        },
        {
          "name": "A4",
          "midi": 69,
          "time": 16.363643999999983,
          "velocity": 0.6299212598425197,
          "duration": 0.4948349416666673
        },
        {
          "name": "C4",
          "midi": 60,
          "time": 16.859511999999985,
          "velocity": 0.6299212598425197,
          "duration": 0.4948349416666673
        },
        {
          "name": "A4",
          "midi": 69,
          "time": 16.859511999999985,
          "velocity": 0.6299212598425197,
          "duration": 0.4948349416666673
        },
        {
          "name": "A4",
          "midi": 69,
          "time": 17.727280999999984,
          "velocity": 0.6299212598425197,
          "duration": 0.12293394166666616
        },
        {
          "name": "C4",
          "midi": 60,
          "time": 17.851247999999984,
          "velocity": 0.6299212598425197,
          "duration": 0.24690094166666654
        },
        {
          "name": "F4",
          "midi": 65,
          "time": 18.099181999999985,
          "velocity": 0.6299212598425197,
          "duration": 0.24690094166666654
        },
        {
          "name": "C4",
          "midi": 60,
          "time": 18.842983999999984,
          "velocity": 0.6299212598425197,
          "duration": 0.24690094166666654
        },
        {
          "name": "E4",
          "midi": 64,
          "time": 19.090917999999984,
          "velocity": 0.6299212598425197,
          "duration": 0.24690094166666654
        },
        {
          "name": "C4",
          "midi": 60,
          "time": 20.330587999999985,
          "velocity": 0.6299212598425197,
          "duration": 0.4948349416666673
        },
        {
          "name": "A4",
          "midi": 69,
          "time": 20.330587999999985,
          "velocity": 0.6299212598425197,
          "duration": 0.4948349416666673
        },
        {
          "name": "C4",
          "midi": 60,
          "time": 20.826455999999986,
          "velocity": 0.6299212598425197,
          "duration": 0.4948349416666673
        },
        {
          "name": "A4",
          "midi": 69,
          "time": 20.826455999999986,
          "velocity": 0.6299212598425197,
          "duration": 0.4948349416666673
        },
        {
          "name": "A4",
          "midi": 69,
          "time": 21.694224999999985,
          "velocity": 0.6299212598425197,
          "duration": 0.12293394166666616
        },
        {
          "name": "C4",
          "midi": 60,
          "time": 21.818191999999986,
          "velocity": 0.6299212598425197,
          "duration": 0.24690094166666654
        },
        {
          "name": "F4",
          "midi": 65,
          "time": 22.066125999999986,
          "velocity": 0.6299212598425197,
          "duration": 0.24690094166666654
        },
        {
          "name": "C4",
          "midi": 60,
          "time": 22.809927999999985,
          "velocity": 0.6299212598425197,
          "duration": 0.24690094166666654
        },
        {
          "name": "E4",
          "midi": 64,
          "time": 23.057861999999986,
          "velocity": 0.6299212598425197,
          "duration": 0.24690094166666654
        },
        {
          "name": "C4",
          "midi": 60,
          "time": 24.297531999999986,
          "velocity": 0.6299212598425197,
          "duration": 0.4948349416666673
        },
        {
          "name": "A4",
          "midi": 69,
          "time": 24.297531999999986,
          "velocity": 0.6299212598425197,
          "duration": 0.4948349416666673
        },
        {
          "name": "C4",
          "midi": 60,
          "time": 24.793399999999988,
          "velocity": 0.6299212598425197,
          "duration": 0.4948349416666673
        },
        {
          "name": "A4",
          "midi": 69,
          "time": 24.793399999999988,
          "velocity": 0.6299212598425197,
          "duration": 0.4948349416666673
        },
        {
          "name": "E4",
          "midi": 64,
          "time": 25.661168999999987,
          "velocity": 0.6299212598425197,
          "duration": 0.12293394166666616
        },
        {
          "name": "F4",
          "midi": 65,
          "time": 25.785135999999987,
          "velocity": 0.6299212598425197,
          "duration": 0.24690094166666654
        },
        {
          "name": "A#4",
          "midi": 70,
          "time": 26.033069999999988,
          "velocity": 0.6299212598425197,
          "duration": 0.24690094166666654
        },
        {
          "name": "C4",
          "midi": 60,
          "time": 26.28100399999999,
          "velocity": 0.6299212598425197,
          "duration": 0.4948349416666673
        },
        {
          "name": "F4",
          "midi": 65,
          "time": 26.77687199999999,
          "velocity": 0.6299212598425197,
          "duration": 0.4948349416666673
        },
        {
          "name": "C#4",
          "midi": 61,
          "time": 27.27273999999999,
          "velocity": 0.6299212598425197,
          "duration": 0.4948349416666673
        },
        {
          "name": "F4",
          "midi": 65,
          "time": 27.768607999999993,
          "velocity": 0.6299212598425197,
          "duration": 0.24690094166666654
        },
        {
          "name": "A4",
          "midi": 69,
          "time": 28.016541999999994,
          "velocity": 0.6299212598425197,
          "duration": 0.24690094166666654
        },
        {
          "name": "E4",
          "midi": 64,
          "time": 28.264475999999995,
          "velocity": 0.6299212598425197,
          "duration": 0.4948349416666673
        },
        {
          "name": "E4",
          "midi": 64,
          "time": 28.760343999999996,
          "velocity": 0.6299212598425197,
          "duration": 0.4948349416666673
        },
        {
          "name": "E4",
          "midi": 64,
          "time": 29.256211999999998,
          "velocity": 0.6299212598425197,
          "duration": 0.4948349416666673
        },
        {
          "name": "E4",
          "midi": 64,
          "time": 29.75208,
          "velocity": 0.6299212598425197,
          "duration": 0.24690094166666654
        },
        {
          "name": "F4",
          "midi": 65,
          "time": 30.000014,
          "velocity": 0.6299212598425197,
          "duration": 0.24690094166666654
        },
        {
          "name": "E4",
          "midi": 64,
          "time": 30.247948,
          "velocity": 0.6299212598425197,
          "duration": 0.24690094166666654
        },
        {
          "name": "F4",
          "midi": 65,
          "time": 30.495882,
          "velocity": 0.6299212598425197,
          "duration": 0.24690094166666654
        },
        {
          "name": "C4",
          "midi": 60,
          "time": 30.743816000000002,
          "velocity": 0.6299212598425197,
          "duration": 0.24690094166666654
        },
        {
          "name": "A#4",
          "midi": 70,
          "time": 30.991750000000003,
          "velocity": 0.6299212598425197,
          "duration": 0.24690094166666654
        },
        {
          "name": "A4",
          "midi": 69,
          "time": 31.735552000000002,
          "velocity": 0.6299212598425197,
          "duration": 0.49483494166666375
        },
        {
          "name": "E4",
          "midi": 64,
          "time": 32.727288,
          "velocity": 0.6299212598425197,
          "duration": 0.4948349416666673
        },
        {
          "name": "F4",
          "midi": 65,
          "time": 32.727288,
          "velocity": 0.6299212598425197,
          "duration": 0.4948349416666673
        },
        {
          "name": "E4",
          "midi": 64,
          "time": 33.223156,
          "velocity": 0.6299212598425197,
          "duration": 0.4948349416666673
        },
        {
          "name": "F4",
          "midi": 65,
          "time": 33.223156,
          "velocity": 0.6299212598425197,
          "duration": 0.4948349416666673
        },
        {
          "name": "A4",
          "midi": 69,
          "time": 33.719024000000005,
          "velocity": 0.6299212598425197,
          "duration": 0.24690094166666654
        },
        {
          "name": "F4",
          "midi": 65,
          "time": 33.966958000000005,
          "velocity": 0.6299212598425197,
          "duration": 0.24690094166666654
        },
        {
          "name": "F4",
          "midi": 65,
          "time": 34.214892000000006,
          "velocity": 0.6299212598425197,
          "duration": 0.24690094166666654
        },
        {
          "name": "E4",
          "midi": 64,
          "time": 34.46282600000001,
          "velocity": 0.6299212598425197,
          "duration": 0.24690094166666654
        },
        {
          "name": "A4",
          "midi": 69,
          "time": 34.71076000000001,
          "velocity": 0.6299212598425197,
          "duration": 0.24690094166666654
        },
        {
          "name": "C4",
          "midi": 60,
          "time": 34.95869400000001,
          "velocity": 0.6299212598425197,
          "duration": 0.24690094166666654
        },
        {
          "name": "A4",
          "midi": 69,
          "time": 36.198364000000005,
          "velocity": 0.6299212598425197,
          "duration": 0.4948349416666673
        },
        {
          "name": "A4",
          "midi": 69,
          "time": 36.69423200000001,
          "velocity": 0.6299212598425197,
          "duration": 0.4948349416666673
        },
        {
          "name": "A4",
          "midi": 69,
          "time": 37.19010000000001,
          "velocity": 0.6299212598425197,
          "duration": 0.4948349416666673
        },
        {
          "name": "C4",
          "midi": 60,
          "time": 37.68596800000001,
          "velocity": 0.6299212598425197,
          "duration": 0.24690094166666654
        },
        {
          "name": "E4",
          "midi": 64,
          "time": 37.93390200000001,
          "velocity": 0.6299212598425197,
          "duration": 0.24690094166666654
        },
        {
          "name": "F4",
          "midi": 65,
          "time": 38.18183600000001,
          "velocity": 0.6299212598425197,
          "duration": 0.24690094166666654
        },
        {
          "name": "A4",
          "midi": 69,
          "time": 38.42977000000001,
          "velocity": 0.6299212598425197,
          "duration": 0.24690094166666654
        },
        {
          "name": "E4",
          "midi": 64,
          "time": 38.67770400000001,
          "velocity": 0.6299212598425197,
          "duration": 0.4948349416666673
        },
        {
          "name": "F4",
          "midi": 65,
          "time": 39.173572000000014,
          "velocity": 0.6299212598425197,
          "duration": 0.24690094166666654
        },
        {
          "name": "A4",
          "midi": 69,
          "time": 39.421506000000015,
          "velocity": 0.6299212598425197,
          "duration": 0.24690094166666654
        },
        {
          "name": "E4",
          "midi": 64,
          "time": 40.16530800000002,
          "velocity": 0.6299212598425197,
          "duration": 0.4948349416666673
        },
        {
          "name": "F4",
          "midi": 65,
          "time": 40.16530800000002,
          "velocity": 0.6299212598425197,
          "duration": 0.4948349416666673
        },
        {
          "name": "E4",
          "midi": 64,
          "time": 40.66117600000002,
          "velocity": 0.6299212598425197,
          "duration": 0.4948349416666673
        },
        {
          "name": "F4",
          "midi": 65,
          "time": 40.66117600000002,
          "velocity": 0.6299212598425197,
          "duration": 0.4948349416666673
        },
        {
          "name": "C4",
          "midi": 60,
          "time": 41.15704400000002,
          "velocity": 0.6299212598425197,
          "duration": 0.24690094166666654
        },
        {
          "name": "A4",
          "midi": 69,
          "time": 41.15704400000002,
          "velocity": 0.6299212598425197,
          "duration": 0.24690094166666654
        },
        {
          "name": "C4",
          "midi": 60,
          "time": 41.40497800000002,
          "velocity": 0.6299212598425197,
          "duration": 0.24690094166666654
        },
        {
          "name": "A4",
          "midi": 69,
          "time": 41.40497800000002,
          "velocity": 0.6299212598425197,
          "duration": 0.24690094166666654
        },
        {
          "name": "E4",
          "midi": 64,
          "time": 41.65291200000002,
          "velocity": 0.6299212598425197,
          "duration": 0.4948349416666673
        },
        {
          "name": "F4",
          "midi": 65,
          "time": 41.65291200000002,
          "velocity": 0.6299212598425197,
          "duration": 0.4948349416666673
        },
        {
          "name": "F4",
          "midi": 65,
          "time": 42.14878000000002,
          "velocity": 0.6299212598425197,
          "duration": 0.24690094166666654
        },
        {
          "name": "F4",
          "midi": 65,
          "time": 42.396714000000024,
          "velocity": 0.6299212598425197,
          "duration": 0.24690094166666654
        },
        {
          "name": "A4",
          "midi": 69,
          "time": 42.644648000000025,
          "velocity": 0.6299212598425197,
          "duration": 0.4948349416666673
        },
        {
          "name": "F4",
          "midi": 65,
          "time": 43.14051600000003,
          "velocity": 0.6299212598425197,
          "duration": 0.24690094166666654
        },
        {
          "name": "F4",
          "midi": 65,
          "time": 43.38845000000003,
          "velocity": 0.6299212598425197,
          "duration": 0.24690094166666654
        },
        {
          "name": "A4",
          "midi": 69,
          "time": 43.63638400000003,
          "velocity": 0.6299212598425197,
          "duration": 0.4948349416666673
        },
        {
          "name": "F4",
          "midi": 65,
          "time": 44.13225200000003,
          "velocity": 0.6299212598425197,
          "duration": 0.24690094166666654
        },
        {
          "name": "F4",
          "midi": 65,
          "time": 44.38018600000003,
          "velocity": 0.6299212598425197,
          "duration": 0.24690094166666654
        },
        {
          "name": "A4",
          "midi": 69,
          "time": 44.62812000000003,
          "velocity": 0.6299212598425197,
          "duration": 0.24690094166666654
        },
        {
          "name": "A#4",
          "midi": 70,
          "time": 44.87605400000003,
          "velocity": 0.6299212598425197,
          "duration": 0.24690094166666654
        },
        {
          "name": "A4",
          "midi": 69,
          "time": 45.619856000000034,
          "velocity": 0.6299212598425197,
          "duration": 0.4948349416666673
        },
        {
          "name": "F4",
          "midi": 65,
          "time": 46.115724000000036,
          "velocity": 0.6299212598425197,
          "duration": 0.24690094166666654
        },
        {
          "name": "F4",
          "midi": 65,
          "time": 46.36365800000004,
          "velocity": 0.6299212598425197,
          "duration": 0.24690094166666654
        },
        {
          "name": "A#4",
          "midi": 70,
          "time": 46.61159200000004,
          "velocity": 0.6299212598425197,
          "duration": 0.4948349416666673
        },
        {
          "name": "A#4",
          "midi": 70,
          "time": 47.60332800000004,
          "velocity": 0.6299212598425197,
          "duration": 0.4948349416666673
        },
        {
          "name": "F4",
          "midi": 65,
          "time": 48.09919600000004,
          "velocity": 0.6299212598425197,
          "duration": 0.24690094166666654
        },
        {
          "name": "F4",
          "midi": 65,
          "time": 48.34713000000004,
          "velocity": 0.6299212598425197,
          "duration": 0.24690094166666654
        },
        {
          "name": "A4",
          "midi": 69,
          "time": 48.59506400000004,
          "velocity": 0.6299212598425197,
          "duration": 0.24690094166666654
        },
        {
          "name": "A#4",
          "midi": 70,
          "time": 48.842998000000044,
          "velocity": 0.6299212598425197,
          "duration": 0.24690094166666654
        },
        {
          "name": "A4",
          "midi": 69,
          "time": 49.586800000000046,
          "velocity": 0.6299212598425197,
          "duration": 0.4948349416666673
        },
        {
          "name": "F#4",
          "midi": 66,
          "time": 50.08266800000005,
          "velocity": 0.6299212598425197,
          "duration": 0.4948349416666673
        },
        {
          "name": "F4",
          "midi": 65,
          "time": 51.570272000000045,
          "velocity": 0.6299212598425197,
          "duration": 0.4948349416666673
        },
        {
          "name": "C4",
          "midi": 60,
          "time": 52.06614000000005,
          "velocity": 0.6299212598425197,
          "duration": 0.24690094166666654
        },
        {
          "name": "E4",
          "midi": 64,
          "time": 52.31407400000005,
          "velocity": 0.6299212598425197,
          "duration": 0.24690094166666654
        },
        {
          "name": "F#4",
          "midi": 66,
          "time": 52.56200800000005,
          "velocity": 0.6299212598425197,
          "duration": 0.4948349416666673
        },
        {
          "name": "F4",
          "midi": 65,
          "time": 53.55374400000005,
          "velocity": 0.6299212598425197,
          "duration": 0.4948349416666673
        },
        {
          "name": "A4",
          "midi": 69,
          "time": 54.04961200000005,
          "velocity": 0.6299212598425197,
          "duration": 0.24690094166666654
        },
        {
          "name": "F4",
          "midi": 65,
          "time": 54.297546000000054,
          "velocity": 0.6299212598425197,
          "duration": 0.24690094166666654
        },
        {
          "name": "F4",
          "midi": 65,
          "time": 54.545480000000055,
          "velocity": 0.6299212598425197,
          "duration": 0.4948349416666673
        },
        {
          "name": "E4",
          "midi": 64,
          "time": 55.53721600000006,
          "velocity": 0.6299212598425197,
          "duration": 0.4948349416666673
        },
        {
          "name": "C4",
          "midi": 60,
          "time": 56.03308400000006,
          "velocity": 0.6299212598425197,
          "duration": 0.24690094166666654
        },
        {
          "name": "E4",
          "midi": 64,
          "time": 56.28101800000006,
          "velocity": 0.6299212598425197,
          "duration": 0.24690094166666654
        },
        {
          "name": "F#4",
          "midi": 66,
          "time": 56.52895200000006,
          "velocity": 0.6299212598425197,
          "duration": 0.4948349416666673
        },
        {
          "name": "F4",
          "midi": 65,
          "time": 57.520688000000064,
          "velocity": 0.6299212598425197,
          "duration": 0.4948349416666673
        },
        {
          "name": "A4",
          "midi": 69,
          "time": 58.016556000000065,
          "velocity": 0.6299212598425197,
          "duration": 0.4948349416666673
        },
        {
          "name": "C4",
          "midi": 60,
          "time": 60.000028000000064,
          "velocity": 0.6299212598425197,
          "duration": 0.24690094166666654
        },
        {
          "name": "E4",
          "midi": 64,
          "time": 60.247962000000065,
          "velocity": 0.6299212598425197,
          "duration": 0.24690094166666654
        },
        {
          "name": "A#4",
          "midi": 70,
          "time": 60.495896000000066,
          "velocity": 0.6299212598425197,
          "duration": 0.4948349416666673
        },
        {
          "name": "C#4",
          "midi": 61,
          "time": 60.99176400000007,
          "velocity": 0.6299212598425197,
          "duration": 0.4948349416666673
        },
        {
          "name": "A4",
          "midi": 69,
          "time": 61.48763200000007,
          "velocity": 0.6299212598425197,
          "duration": 0.4948349416666673
        },
        {
          "name": "A4",
          "midi": 69,
          "time": 61.98350000000007,
          "velocity": 0.6299212598425197,
          "duration": 0.24690094166666654
        },
        {
          "name": "F4",
          "midi": 65,
          "time": 62.23143400000007,
          "velocity": 0.6299212598425197,
          "duration": 0.24690094166666654
        },
        {
          "name": "F4",
          "midi": 65,
          "time": 62.47936800000007,
          "velocity": 0.6299212598425197,
          "duration": 0.4948349416666673
        },
        {
          "name": "C4",
          "midi": 60,
          "time": 63.96697200000007,
          "velocity": 0.6299212598425197,
          "duration": 0.24690094166666654
        },
        {
          "name": "F4",
          "midi": 65,
          "time": 64.21490600000007,
          "velocity": 0.6299212598425197,
          "duration": 0.24690094166666654
        },
        {
          "name": "C4",
          "midi": 60,
          "time": 64.46284000000007,
          "velocity": 0.6299212598425197,
          "duration": 0.24690094166666654
        },
        {
          "name": "F4",
          "midi": 65,
          "time": 64.71077400000007,
          "velocity": 0.6299212598425197,
          "duration": 0.24690094166666654
        },
        {
          "name": "A4",
          "midi": 69,
          "time": 65.45457600000007,
          "velocity": 0.6299212598425197,
          "duration": 0.24690094166666654
        },
        {
          "name": "A4",
          "midi": 69,
          "time": 65.70251000000007,
          "velocity": 0.6299212598425197,
          "duration": 0.24690094166666654
        },
        {
          "name": "C4",
          "midi": 60,
          "time": 67.93391600000008,
          "velocity": 0.6299212598425197,
          "duration": 0.4948349416666673
        },
        {
          "name": "A4",
          "midi": 69,
          "time": 67.93391600000008,
          "velocity": 0.6299212598425197,
          "duration": 0.4948349416666673
        },
        {
          "name": "C4",
          "midi": 60,
          "time": 68.42978400000008,
          "velocity": 0.6299212598425197,
          "duration": 0.4948349416666673
        },
        {
          "name": "A4",
          "midi": 69,
          "time": 68.42978400000008,
          "velocity": 0.6299212598425197,
          "duration": 0.4948349416666673
        },
        {
          "name": "A4",
          "midi": 69,
          "time": 69.29755300000008,
          "velocity": 0.6299212598425197,
          "duration": 0.12293394166667326
        },
        {
          "name": "C4",
          "midi": 60,
          "time": 69.42152000000009,
          "velocity": 0.6299212598425197,
          "duration": 0.24690094166666654
        },
        {
          "name": "F4",
          "midi": 65,
          "time": 69.66945400000009,
          "velocity": 0.6299212598425197,
          "duration": 0.24690094166666654
        },
        {
          "name": "C4",
          "midi": 60,
          "time": 70.41325600000009,
          "velocity": 0.6299212598425197,
          "duration": 0.24690094166666654
        },
        {
          "name": "E4",
          "midi": 64,
          "time": 70.66119000000009,
          "velocity": 0.6299212598425197,
          "duration": 0.24690094166666654
        },
        {
          "name": "C4",
          "midi": 60,
          "time": 71.9008600000001,
          "velocity": 0.6299212598425197,
          "duration": 0.4948349416666673
        },
        {
          "name": "A4",
          "midi": 69,
          "time": 71.9008600000001,
          "velocity": 0.6299212598425197,
          "duration": 0.4948349416666673
        },
        {
          "name": "C4",
          "midi": 60,
          "time": 72.3967280000001,
          "velocity": 0.6299212598425197,
          "duration": 0.4948349416666673
        },
        {
          "name": "A4",
          "midi": 69,
          "time": 72.3967280000001,
          "velocity": 0.6299212598425197,
          "duration": 0.4948349416666673
        },
        {
          "name": "A4",
          "midi": 69,
          "time": 73.26449700000009,
          "velocity": 0.6299212598425197,
          "duration": 0.12293394166667326
        },
        {
          "name": "C4",
          "midi": 60,
          "time": 73.3884640000001,
          "velocity": 0.6299212598425197,
          "duration": 0.24690094166666654
        },
        {
          "name": "F4",
          "midi": 65,
          "time": 73.6363980000001,
          "velocity": 0.6299212598425197,
          "duration": 0.24690094166666654
        },
        {
          "name": "C4",
          "midi": 60,
          "time": 74.3802000000001,
          "velocity": 0.6299212598425197,
          "duration": 0.24690094166666654
        },
        {
          "name": "F4",
          "midi": 65,
          "time": 74.6281340000001,
          "velocity": 0.6299212598425197,
          "duration": 0.24690094166666654
        },
        {
          "name": "E4",
          "midi": 64,
          "time": 75.3719360000001,
          "velocity": 0.6299212598425197,
          "duration": 0.4948349416666673
        },
        {
          "name": "C4",
          "midi": 60,
          "time": 75.8678040000001,
          "velocity": 0.6299212598425197,
          "duration": 0.4948349416666673
        },
        {
          "name": "A4",
          "midi": 69,
          "time": 75.8678040000001,
          "velocity": 0.6299212598425197,
          "duration": 0.4948349416666673
        },
        {
          "name": "C4",
          "midi": 60,
          "time": 76.36367200000011,
          "velocity": 0.6299212598425197,
          "duration": 0.4948349416666673
        },
        {
          "name": "A4",
          "midi": 69,
          "time": 76.36367200000011,
          "velocity": 0.6299212598425197,
          "duration": 0.4948349416666673
        },
        {
          "name": "A4",
          "midi": 69,
          "time": 77.2314410000001,
          "velocity": 0.6299212598425197,
          "duration": 0.12293394166667326
        },
        {
          "name": "C4",
          "midi": 60,
          "time": 77.35540800000011,
          "velocity": 0.6299212598425197,
          "duration": 0.24690094166666654
        },
        {
          "name": "F4",
          "midi": 65,
          "time": 77.60334200000011,
          "velocity": 0.6299212598425197,
          "duration": 0.24690094166666654
        },
        {
          "name": "C4",
          "midi": 60,
          "time": 77.85127600000011,
          "velocity": 0.6299212598425197,
          "duration": 0.4948349416666673
        },
        {
          "name": "F4",
          "midi": 65,
          "time": 78.34714400000011,
          "velocity": 0.6299212598425197,
          "duration": 0.4948349416666673
        },
        {
          "name": "C#4",
          "midi": 61,
          "time": 78.84301200000012,
          "velocity": 0.6299212598425197,
          "duration": 0.4948349416666673
        },
        {
          "name": "F4",
          "midi": 65,
          "time": 79.33888000000012,
          "velocity": 0.6299212598425197,
          "duration": 0.24690094166666654
        },
        {
          "name": "A4",
          "midi": 69,
          "time": 79.58681400000012,
          "velocity": 0.6299212598425197,
          "duration": 0.24690094166666654
        },
        {
          "name": "E4",
          "midi": 64,
          "time": 79.83474800000012,
          "velocity": 0.6299212598425197,
          "duration": 0.4948349416666673
        },
        {
          "name": "E4",
          "midi": 64,
          "time": 80.33061600000012,
          "velocity": 0.6299212598425197,
          "duration": 0.4948349416666673
        },
        {
          "name": "E4",
          "midi": 64,
          "time": 80.82648400000012,
          "velocity": 0.6299212598425197,
          "duration": 0.4948349416666673
        },
        {
          "name": "E4",
          "midi": 64,
          "time": 81.32235200000012,
          "velocity": 0.6299212598425197,
          "duration": 0.24690094166666654
        },
        {
          "name": "F4",
          "midi": 65,
          "time": 81.57028600000012,
          "velocity": 0.6299212598425197,
          "duration": 0.24690094166666654
        },
        {
          "name": "E4",
          "midi": 64,
          "time": 81.81822000000012,
          "velocity": 0.6299212598425197,
          "duration": 0.24690094166666654
        },
        {
          "name": "F4",
          "midi": 65,
          "time": 82.06615400000013,
          "velocity": 0.6299212598425197,
          "duration": 0.24690094166666654
        },
        {
          "name": "C4",
          "midi": 60,
          "time": 82.31408800000013,
          "velocity": 0.6299212598425197,
          "duration": 0.24690094166666654
        },
        {
          "name": "A#4",
          "midi": 70,
          "time": 82.56202200000013,
          "velocity": 0.6299212598425197,
          "duration": 0.24690094166666654
        },
        {
          "name": "A4",
          "midi": 69,
          "time": 83.30582400000013,
          "velocity": 0.6299212598425197,
          "duration": 0.4948349416666673
        },
        {
          "name": "E4",
          "midi": 64,
          "time": 84.29756000000013,
          "velocity": 0.6299212598425197,
          "duration": 0.4948349416666673
        },
        {
          "name": "F4",
          "midi": 65,
          "time": 84.29756000000013,
          "velocity": 0.6299212598425197,
          "duration": 0.4948349416666673
        },
        {
          "name": "E4",
          "midi": 64,
          "time": 84.79342800000013,
          "velocity": 0.6299212598425197,
          "duration": 0.4948349416666673
        },
        {
          "name": "F4",
          "midi": 65,
          "time": 84.79342800000013,
          "velocity": 0.6299212598425197,
          "duration": 0.4948349416666673
        },
        {
          "name": "A4",
          "midi": 69,
          "time": 85.28929600000014,
          "velocity": 0.6299212598425197,
          "duration": 0.24690094166666654
        },
        {
          "name": "F4",
          "midi": 65,
          "time": 85.53723000000014,
          "velocity": 0.6299212598425197,
          "duration": 0.24690094166666654
        },
        {
          "name": "F4",
          "midi": 65,
          "time": 85.78516400000014,
          "velocity": 0.6299212598425197,
          "duration": 0.24690094166666654
        },
        {
          "name": "E4",
          "midi": 64,
          "time": 86.03309800000014,
          "velocity": 0.6299212598425197,
          "duration": 0.24690094166666654
        },
        {
          "name": "A4",
          "midi": 69,
          "time": 86.28103200000014,
          "velocity": 0.6299212598425197,
          "duration": 0.24690094166666654
        },
        {
          "name": "C4",
          "midi": 60,
          "time": 86.52896600000014,
          "velocity": 0.6299212598425197,
          "duration": 0.24690094166666654
        },
        {
          "name": "A4",
          "midi": 69,
          "time": 87.76863600000014,
          "velocity": 0.6299212598425197,
          "duration": 0.4948349416666673
        },
        {
          "name": "A4",
          "midi": 69,
          "time": 88.26450400000014,
          "velocity": 0.6299212598425197,
          "duration": 0.4948349416666673
        },
        {
          "name": "A4",
          "midi": 69,
          "time": 88.76037200000015,
          "velocity": 0.6299212598425197,
          "duration": 0.4948349416666673
        },
        {
          "name": "C4",
          "midi": 60,
          "time": 89.25624000000015,
          "velocity": 0.6299212598425197,
          "duration": 0.24690094166666654
        },
        {
          "name": "E4",
          "midi": 64,
          "time": 89.50417400000015,
          "velocity": 0.6299212598425197,
          "duration": 0.24690094166666654
        },
        {
          "name": "F4",
          "midi": 65,
          "time": 89.75210800000015,
          "velocity": 0.6299212598425197,
          "duration": 0.24690094166666654
        },
        {
          "name": "A4",
          "midi": 69,
          "time": 90.00004200000015,
          "velocity": 0.6299212598425197,
          "duration": 0.24690094166666654
        },
        {
          "name": "E4",
          "midi": 64,
          "time": 90.24797600000015,
          "velocity": 0.6299212598425197,
          "duration": 0.4948349416666673
        },
        {
          "name": "F4",
          "midi": 65,
          "time": 90.74384400000015,
          "velocity": 0.6299212598425197,
          "duration": 0.24690094166666654
        },
        {
          "name": "A4",
          "midi": 69,
          "time": 90.99177800000015,
          "velocity": 0.6299212598425197,
          "duration": 0.24690094166666654
        },
        {
          "name": "E4",
          "midi": 64,
          "time": 91.73558000000016,
          "velocity": 0.6299212598425197,
          "duration": 0.4948349416666673
        },
        {
          "name": "F4",
          "midi": 65,
          "time": 91.73558000000016,
          "velocity": 0.6299212598425197,
          "duration": 0.4948349416666673
        },
        {
          "name": "E4",
          "midi": 64,
          "time": 92.23144800000016,
          "velocity": 0.6299212598425197,
          "duration": 0.4948349416666673
        },
        {
          "name": "F4",
          "midi": 65,
          "time": 92.23144800000016,
          "velocity": 0.6299212598425197,
          "duration": 0.4948349416666673
        },
        {
          "name": "C4",
          "midi": 60,
          "time": 92.72731600000016,
          "velocity": 0.6299212598425197,
          "duration": 0.24690094166666654
        },
        {
          "name": "A4",
          "midi": 69,
          "time": 92.72731600000016,
          "velocity": 0.6299212598425197,
          "duration": 0.24690094166666654
        },
        {
          "name": "C4",
          "midi": 60,
          "time": 92.97525000000016,
          "velocity": 0.6299212598425197,
          "duration": 0.24690094166666654
        },
        {
          "name": "A4",
          "midi": 69,
          "time": 92.97525000000016,
          "velocity": 0.6299212598425197,
          "duration": 0.24690094166666654
        },
        {
          "name": "E4",
          "midi": 64,
          "time": 93.22318400000016,
          "velocity": 0.6299212598425197,
          "duration": 0.4948349416666673
        },
        {
          "name": "F4",
          "midi": 65,
          "time": 93.22318400000016,
          "velocity": 0.6299212598425197,
          "duration": 0.4948349416666673
        },
        {
          "name": "A4",
          "midi": 69,
          "time": 93.71905200000016,
          "velocity": 0.6299212598425197,
          "duration": 0.4948349416666673
        },
        {
          "name": "E4",
          "midi": 64,
          "time": 95.70252400000017,
          "velocity": 0.6299212598425197,
          "duration": 0.4948349416666673
        },
        {
          "name": "F4",
          "midi": 65,
          "time": 95.70252400000017,
          "velocity": 0.6299212598425197,
          "duration": 0.4948349416666673
        },
        {
          "name": "E4",
          "midi": 64,
          "time": 96.19839200000017,
          "velocity": 0.6299212598425197,
          "duration": 0.4948349416666673
        },
        {
          "name": "F4",
          "midi": 65,
          "time": 96.19839200000017,
          "velocity": 0.6299212598425197,
          "duration": 0.4948349416666673
        },
        {
          "name": "C4",
          "midi": 60,
          "time": 96.69426000000017,
          "velocity": 0.6299212598425197,
          "duration": 0.24690094166666654
        },
        {
          "name": "A4",
          "midi": 69,
          "time": 96.69426000000017,
          "velocity": 0.6299212598425197,
          "duration": 0.24690094166666654
        },
        {
          "name": "C4",
          "midi": 60,
          "time": 96.94219400000017,
          "velocity": 0.6299212598425197,
          "duration": 0.24690094166666654
        },
        {
          "name": "A4",
          "midi": 69,
          "time": 96.94219400000017,
          "velocity": 0.6299212598425197,
          "duration": 0.24690094166666654
        },
        {
          "name": "E4",
          "midi": 64,
          "time": 97.19012800000017,
          "velocity": 0.6299212598425197,
          "duration": 0.4948349416666673
        },
        {
          "name": "F4",
          "midi": 65,
          "time": 97.19012800000017,
          "velocity": 0.6299212598425197,
          "duration": 0.4948349416666673
        },
        {
          "name": "E4",
          "midi": 64,
          "time": 99.66946800000018,
          "velocity": 0.6299212598425197,
          "duration": 0.4948349416666673
        },
        {
          "name": "F4",
          "midi": 65,
          "time": 99.66946800000018,
          "velocity": 0.6299212598425197,
          "duration": 0.4948349416666673
        },
        {
          "name": "E4",
          "midi": 64,
          "time": 100.16533600000018,
          "velocity": 0.6299212598425197,
          "duration": 0.4948349416666673
        },
        {
          "name": "F4",
          "midi": 65,
          "time": 100.16533600000018,
          "velocity": 0.6299212598425197,
          "duration": 0.4948349416666673
        },
        {
          "name": "C4",
          "midi": 60,
          "time": 100.66120400000018,
          "velocity": 0.6299212598425197,
          "duration": 0.24690094166666654
        },
        {
          "name": "E4",
          "midi": 64,
          "time": 100.66120400000018,
          "velocity": 0.6299212598425197,
          "duration": 0.24690094166666654
        },
        {
          "name": "F4",
          "midi": 65,
          "time": 100.90913800000018,
          "velocity": 0.6299212598425197,
          "duration": 0.24690094166666654
        },
        {
          "name": "A4",
          "midi": 69,
          "time": 100.90913800000018,
          "velocity": 0.6299212598425197,
          "duration": 0.24690094166666654
        },
        {
          "name": "E4",
          "midi": 64,
          "time": 101.15707200000018,
          "velocity": 0.6299212598425197,
          "duration": 0.4948349416666673
        },
        {
          "name": "F4",
          "midi": 65,
          "time": 101.15707200000018,
          "velocity": 0.6299212598425197,
          "duration": 0.4948349416666673
        },
        {
          "name": "C4",
          "midi": 60,
          "time": 101.65294000000019,
          "velocity": 0.6299212598425197,
          "duration": 0.24690094166666654
        },
        {
          "name": "F4",
          "midi": 65,
          "time": 101.65294000000019,
          "velocity": 0.6299212598425197,
          "duration": 0.24690094166666654
        },
        {
          "name": "E4",
          "midi": 64,
          "time": 101.90087400000019,
          "velocity": 0.6299212598425197,
          "duration": 0.24690094166666654
        },
        {
          "name": "A4",
          "midi": 69,
          "time": 101.90087400000019,
          "velocity": 0.6299212598425197,
          "duration": 0.24690094166666654
        },
        {
          "name": "C4",
          "midi": 60,
          "time": 102.14880800000019,
          "velocity": 0.6299212598425197,
          "duration": 0.4948349416666673
        },
        {
          "name": "A4",
          "midi": 69,
          "time": 102.14880800000019,
          "velocity": 0.6299212598425197,
          "duration": 0.4948349416666673
        },
        {
          "name": "C4",
          "midi": 60,
          "time": 102.64467600000019,
          "velocity": 0.6299212598425197,
          "duration": 0.24690094166666654
        },
        {
          "name": "F4",
          "midi": 65,
          "time": 102.64467600000019,
          "velocity": 0.6299212598425197,
          "duration": 0.24690094166666654
        },
        {
          "name": "E4",
          "midi": 64,
          "time": 102.89261000000019,
          "velocity": 0.6299212598425197,
          "duration": 0.24690094166666654
        },
        {
          "name": "A4",
          "midi": 69,
          "time": 102.89261000000019,
          "velocity": 0.6299212598425197,
          "duration": 0.24690094166666654
        },
        {
          "name": "C4",
          "midi": 60,
          "time": 103.14054400000019,
          "velocity": 0.6299212598425197,
          "duration": 0.4948349416666673
        },
        {
          "name": "A4",
          "midi": 69,
          "time": 103.14054400000019,
          "velocity": 0.6299212598425197,
          "duration": 0.4948349416666673
        },
        {
          "name": "E4",
          "midi": 64,
          "time": 103.63641200000019,
          "velocity": 0.6299212598425197,
          "duration": 0.4948349416666673
        },
        {
          "name": "F4",
          "midi": 65,
          "time": 103.63641200000019,
          "velocity": 0.6299212598425197,
          "duration": 0.4948349416666673
        },
        {
          "name": "E4",
          "midi": 64,
          "time": 104.1322800000002,
          "velocity": 0.6299212598425197,
          "duration": 0.4948349416666673
        },
        {
          "name": "F4",
          "midi": 65,
          "time": 104.1322800000002,
          "velocity": 0.6299212598425197,
          "duration": 0.4948349416666673
        },
        {
          "name": "F4",
          "midi": 65,
          "time": 104.6281480000002,
          "velocity": 0.6299212598425197,
          "duration": 0.24690094166666654
        },
        {
          "name": "A4",
          "midi": 69,
          "time": 104.6281480000002,
          "velocity": 0.6299212598425197,
          "duration": 0.24690094166666654
        },
        {
          "name": "D4",
          "midi": 62,
          "time": 104.8760820000002,
          "velocity": 0.6299212598425197,
          "duration": 0.24690094166666654
        },
        {
          "name": "E4",
          "midi": 64,
          "time": 104.8760820000002,
          "velocity": 0.6299212598425197,
          "duration": 0.24690094166666654
        },
        {
          "name": "E4",
          "midi": 64,
          "time": 105.1240160000002,
          "velocity": 0.6299212598425197,
          "duration": 0.4948349416666673
        },
        {
          "name": "F4",
          "midi": 65,
          "time": 105.1240160000002,
          "velocity": 0.6299212598425197,
          "duration": 0.4948349416666673
        },
        {
          "name": "C4",
          "midi": 60,
          "time": 105.6198840000002,
          "velocity": 0.6299212598425197,
          "duration": 0.24690094166666654
        },
        {
          "name": "F4",
          "midi": 65,
          "time": 105.6198840000002,
          "velocity": 0.6299212598425197,
          "duration": 0.24690094166666654
        },
        {
          "name": "E4",
          "midi": 64,
          "time": 105.8678180000002,
          "velocity": 0.6299212598425197,
          "duration": 0.24690094166666654
        },
        {
          "name": "A4",
          "midi": 69,
          "time": 105.8678180000002,
          "velocity": 0.6299212598425197,
          "duration": 0.24690094166666654
        },
        {
          "name": "C4",
          "midi": 60,
          "time": 106.1157520000002,
          "velocity": 0.6299212598425197,
          "duration": 0.4948349416666673
        },
        {
          "name": "A4",
          "midi": 69,
          "time": 106.1157520000002,
          "velocity": 0.6299212598425197,
          "duration": 0.4948349416666673
        },
        {
          "name": "C4",
          "midi": 60,
          "time": 106.6116200000002,
          "velocity": 0.6299212598425197,
          "duration": 0.24690094166666654
        },
        {
          "name": "F4",
          "midi": 65,
          "time": 106.6116200000002,
          "velocity": 0.6299212598425197,
          "duration": 0.24690094166666654
        },
        {
          "name": "E4",
          "midi": 64,
          "time": 106.8595540000002,
          "velocity": 0.6299212598425197,
          "duration": 0.24690094166666654
        },
        {
          "name": "A4",
          "midi": 69,
          "time": 106.8595540000002,
          "velocity": 0.6299212598425197,
          "duration": 0.24690094166666654
        },
        {
          "name": "C4",
          "midi": 60,
          "time": 107.1074880000002,
          "velocity": 0.6299212598425197,
          "duration": 0.4948349416666673
        },
        {
          "name": "A4",
          "midi": 69,
          "time": 107.1074880000002,
          "velocity": 0.6299212598425197,
          "duration": 0.4948349416666673
        },
        {
          "name": "E4",
          "midi": 64,
          "time": 107.6033560000002,
          "velocity": 0.6299212598425197,
          "duration": 0.24690094166666654
        },
        {
          "name": "A4",
          "midi": 69,
          "time": 107.6033560000002,
          "velocity": 0.6299212598425197,
          "duration": 0.24690094166666654
        },
        {
          "name": "C4",
          "midi": 60,
          "time": 107.8512900000002,
          "velocity": 0.6299212598425197,
          "duration": 0.24690094166666654
        },
        {
          "name": "F4",
          "midi": 65,
          "time": 107.8512900000002,
          "velocity": 0.6299212598425197,
          "duration": 0.24690094166666654
        },
        {
          "name": "E4",
          "midi": 64,
          "time": 108.0992240000002,
          "velocity": 0.6299212598425197,
          "duration": 0.4948349416666673
        },
        {
          "name": "F4",
          "midi": 65,
          "time": 108.0992240000002,
          "velocity": 0.6299212598425197,
          "duration": 0.4948349416666673
        },
        {
          "name": "E4",
          "midi": 64,
          "time": 108.59509200000021,
          "velocity": 0.6299212598425197,
          "duration": 0.24690094166666654
        },
        {
          "name": "A4",
          "midi": 69,
          "time": 108.59509200000021,
          "velocity": 0.6299212598425197,
          "duration": 0.24690094166666654
        },
        {
          "name": "C4",
          "midi": 60,
          "time": 108.84302600000021,
          "velocity": 0.6299212598425197,
          "duration": 0.24690094166666654
        },
        {
          "name": "F4",
          "midi": 65,
          "time": 108.84302600000021,
          "velocity": 0.6299212598425197,
          "duration": 0.24690094166666654
        },
        {
          "name": "E4",
          "midi": 64,
          "time": 109.09096000000021,
          "velocity": 0.6299212598425197,
          "duration": 0.4948349416666673
        },
        {
          "name": "F4",
          "midi": 65,
          "time": 109.09096000000021,
          "velocity": 0.6299212598425197,
          "duration": 0.4948349416666673
        },
        {
          "name": "C4",
          "midi": 60,
          "time": 109.58682800000021,
          "velocity": 0.6299212598425197,
          "duration": 0.24690094166666654
        },
        {
          "name": "C4",
          "midi": 60,
          "time": 109.83476200000021,
          "velocity": 0.6299212598425197,
          "duration": 0.24690094166666654
        },
        {
          "name": "F4",
          "midi": 65,
          "time": 110.08269600000021,
          "velocity": 0.6299212598425197,
          "duration": 0.4948349416666673
        },
        {
          "name": "A4",
          "midi": 69,
          "time": 110.08269600000021,
          "velocity": 0.6299212598425197,
          "duration": 0.4948349416666673
        },
        {
          "name": "C4",
          "midi": 60,
          "time": 110.57856400000021,
          "velocity": 0.6299212598425197,
          "duration": 0.24690094166666654
        },
        {
          "name": "F4",
          "midi": 65,
          "time": 110.57856400000021,
          "velocity": 0.6299212598425197,
          "duration": 0.24690094166666654
        },
        {
          "name": "E4",
          "midi": 64,
          "time": 110.82649800000021,
          "velocity": 0.6299212598425197,
          "duration": 0.24690094166666654
        },
        {
          "name": "A4",
          "midi": 69,
          "time": 110.82649800000021,
          "velocity": 0.6299212598425197,
          "duration": 0.24690094166666654
        },
        {
          "name": "C4",
          "midi": 60,
          "time": 111.07443200000021,
          "velocity": 0.6299212598425197,
          "duration": 0.4948349416666673
        },
        {
          "name": "E4",
          "midi": 64,
          "time": 111.07443200000021,
          "velocity": 0.6299212598425197,
          "duration": 0.4948349416666673
        },
        {
          "name": "C4",
          "midi": 60,
          "time": 111.57030000000022,
          "velocity": 0.6299212598425197,
          "duration": 0.24690094166666654
        },
        {
          "name": "C4",
          "midi": 60,
          "time": 111.81823400000022,
          "velocity": 0.6299212598425197,
          "duration": 0.24690094166666654
        },
        {
          "name": "C4",
          "midi": 60,
          "time": 112.06616800000022,
          "velocity": 0.6299212598425197,
          "duration": 0.24690094166666654
        },
        {
          "name": "C4",
          "midi": 60,
          "time": 112.31410200000022,
          "velocity": 0.6299212598425197,
          "duration": 0.24690094166666654
        },
        {
          "name": "C4",
          "midi": 60,
          "time": 112.56203600000022,
          "velocity": 0.6299212598425197,
          "duration": 0.24690094166666654
        },
        {
          "name": "C4",
          "midi": 60,
          "time": 112.80997000000022,
          "velocity": 0.6299212598425197,
          "duration": 0.24690094166666654
        },
        {
          "name": "F4",
          "midi": 65,
          "time": 113.05790400000022,
          "velocity": 0.6299212598425197,
          "duration": 0.4948349416666673
        },
        {
          "name": "A4",
          "midi": 69,
          "time": 113.05790400000022,
          "velocity": 0.6299212598425197,
          "duration": 0.4948349416666673
        },
        {
          "name": "C4",
          "midi": 60,
          "time": 113.55377200000022,
          "velocity": 0.6299212598425197,
          "duration": 0.24690094166666654
        },
        {
          "name": "C4",
          "midi": 60,
          "time": 113.80170600000022,
          "velocity": 0.6299212598425197,
          "duration": 0.24690094166666654
        },
        {
          "name": "F4",
          "midi": 65,
          "time": 114.04964000000022,
          "velocity": 0.6299212598425197,
          "duration": 0.4948349416666673
        },
        {
          "name": "A4",
          "midi": 69,
          "time": 114.04964000000022,
          "velocity": 0.6299212598425197,
          "duration": 0.4948349416666673
        },
        {
          "name": "C4",
          "midi": 60,
          "time": 114.54550800000023,
          "velocity": 0.6299212598425197,
          "duration": 0.24690094166666654
        },
        {
          "name": "F4",
          "midi": 65,
          "time": 114.54550800000023,
          "velocity": 0.6299212598425197,
          "duration": 0.24690094166666654
        },
        {
          "name": "E4",
          "midi": 64,
          "time": 114.79344200000023,
          "velocity": 0.6299212598425197,
          "duration": 0.24690094166666654
        },
        {
          "name": "A4",
          "midi": 69,
          "time": 114.79344200000023,
          "velocity": 0.6299212598425197,
          "duration": 0.24690094166666654
        },
        {
          "name": "C4",
          "midi": 60,
          "time": 115.04137600000023,
          "velocity": 0.6299212598425197,
          "duration": 0.4948349416666673
        },
        {
          "name": "E4",
          "midi": 64,
          "time": 115.04137600000023,
          "velocity": 0.6299212598425197,
          "duration": 0.4948349416666673
        },
        {
          "name": "C#4",
          "midi": 61,
          "time": 115.53724400000023,
          "velocity": 0.6299212598425197,
          "duration": 0.4948349416666673
        },
        {
          "name": "C4",
          "midi": 60,
          "time": 116.52898000000023,
          "velocity": 0.6299212598425197,
          "duration": 0.4948349416666673
        },
        {
          "name": "F4",
          "midi": 65,
          "time": 117.52071600000023,
          "velocity": 0.6299212598425197,
          "duration": 0.4948349416666673
        },
        {
          "name": "F4",
          "midi": 65,
          "time": 118.51245200000024,
          "velocity": 0.6299212598425197,
          "duration": 0.4948349416666673
        },
        {
          "name": "C4",
          "midi": 60,
          "time": 119.50418800000024,
          "velocity": 0.6299212598425197,
          "duration": 0.4948349416666673
        },
        {
          "name": "E4",
          "midi": 64,
          "time": 120.00005600000024,
          "velocity": 0.6299212598425197,
          "duration": 0.4948349416666673
        },
        {
          "name": "F4",
          "midi": 65,
          "time": 120.49592400000024,
          "velocity": 0.6299212598425197,
          "duration": 0.4948349416666673
        },
        {
          "name": "A#4",
          "midi": 70,
          "time": 120.99179200000025,
          "velocity": 0.6299212598425197,
          "duration": 0.4948349416666673
        },
        {
          "name": "E4",
          "midi": 64,
          "time": 121.48766000000025,
          "velocity": 0.6299212598425197,
          "duration": 0.4948349416666673
        },
        {
          "name": "C4",
          "midi": 60,
          "time": 121.98352800000025,
          "velocity": 0.6299212598425197,
          "duration": 0.4948349416666673
        },
        {
          "name": "F4",
          "midi": 65,
          "time": 122.47939600000025,
          "velocity": 0.6299212598425197,
          "duration": 0.24690094166666654
        },
        {
          "name": "F4",
          "midi": 65,
          "time": 122.72733000000025,
          "velocity": 0.6299212598425197,
          "duration": 0.24690094166666654
        },
        {
          "name": "A4",
          "midi": 69,
          "time": 122.97526400000025,
          "velocity": 0.6299212598425197,
          "duration": 0.4948349416666673
        },
        {
          "name": "A4",
          "midi": 69,
          "time": 123.47113200000025,
          "velocity": 0.6299212598425197,
          "duration": 0.4948349416666673
        },
        {
          "name": "F4",
          "midi": 65,
          "time": 123.96700000000025,
          "velocity": 0.6299212598425197,
          "duration": 0.24690094166666654
        },
        {
          "name": "F4",
          "midi": 65,
          "time": 124.21493400000026,
          "velocity": 0.6299212598425197,
          "duration": 0.24690094166666654
        },
        {
          "name": "A4",
          "midi": 69,
          "time": 124.46286800000026,
          "velocity": 0.6299212598425197,
          "duration": 0.4948349416666673
        },
        {
          "name": "F4",
          "midi": 65,
          "time": 124.95873600000026,
          "velocity": 0.6299212598425197,
          "duration": 0.24690094166666654
        },
        {
          "name": "F4",
          "midi": 65,
          "time": 125.20667000000026,
          "velocity": 0.6299212598425197,
          "duration": 0.24690094166666654
        },
        {
          "name": "C4",
          "midi": 60,
          "time": 125.45460400000026,
          "velocity": 0.6299212598425197,
          "duration": 0.4948349416666673
        },
        {
          "name": "E4",
          "midi": 64,
          "time": 125.95047200000026,
          "velocity": 0.6299212598425197,
          "duration": 0.4948349416666673
        },
        {
          "name": "F#4",
          "midi": 66,
          "time": 126.44634000000026,
          "velocity": 0.6299212598425197,
          "duration": 0.4948349416666673
        },
        {
          "name": "A#4",
          "midi": 70,
          "time": 126.94220800000026,
          "velocity": 0.6299212598425197,
          "duration": 0.24690094166666654
        },
        {
          "name": "A4",
          "midi": 69,
          "time": 127.19014200000026,
          "velocity": 0.6299212598425197,
          "duration": 0.24690094166666654
        },
        {
          "name": "C4",
          "midi": 60,
          "time": 127.43807600000027,
          "velocity": 0.6299212598425197,
          "duration": 0.4948349416666673
        },
        {
          "name": "E4",
          "midi": 64,
          "time": 127.93394400000027,
          "velocity": 0.6299212598425197,
          "duration": 0.4948349416666673
        },
        {
          "name": "F#4",
          "midi": 66,
          "time": 128.42981200000025,
          "velocity": 0.6299212598425197,
          "duration": 0.4948349416666531
        },
        {
          "name": "A#4",
          "midi": 70,
          "time": 128.92568000000023,
          "velocity": 0.6299212598425197,
          "duration": 0.24690094166666654
        },
        {
          "name": "A4",
          "midi": 69,
          "time": 129.1736140000002,
          "velocity": 0.6299212598425197,
          "duration": 0.24690094166666654
        },
        {
          "name": "E4",
          "midi": 64,
          "time": 129.4215480000002,
          "velocity": 0.6299212598425197,
          "duration": 0.24690094166666654
        },
        {
          "name": "C4",
          "midi": 60,
          "time": 129.6694820000002,
          "velocity": 0.6299212598425197,
          "duration": 0.24690094166666654
        },
        {
          "name": "A4",
          "midi": 69,
          "time": 129.91741600000017,
          "velocity": 0.6299212598425197,
          "duration": 0.24690094166666654
        },
        {
          "name": "F4",
          "midi": 65,
          "time": 130.16535000000016,
          "velocity": 0.6299212598425197,
          "duration": 0.24690094166666654
        },
        {
          "name": "E4",
          "midi": 64,
          "time": 130.41328400000015,
          "velocity": 0.6299212598425197,
          "duration": 0.4948349416666531
        },
        {
          "name": "F4",
          "midi": 65,
          "time": 130.90915200000012,
          "velocity": 0.6299212598425197,
          "duration": 0.24690094166666654
        },
        {
          "name": "A4",
          "midi": 69,
          "time": 131.1570860000001,
          "velocity": 0.6299212598425197,
          "duration": 0.24690094166666654
        },
        {
          "name": "E4",
          "midi": 64,
          "time": 131.4050200000001,
          "velocity": 0.6299212598425197,
          "duration": 0.4948349416666531
        },
        {
          "name": "E4",
          "midi": 64,
          "time": 131.90088800000007,
          "velocity": 0.6299212598425197,
          "duration": 0.4948349416666531
        },
        {
          "name": "E4",
          "midi": 64,
          "time": 132.39675600000004,
          "velocity": 0.6299212598425197,
          "duration": 0.4948349416666531
        },
        {
          "name": "E4",
          "midi": 64,
          "time": 132.892624,
          "velocity": 0.6299212598425197,
          "duration": 0.24690094166666654
        },
        {
          "name": "F4",
          "midi": 65,
          "time": 133.140558,
          "velocity": 0.6299212598425197,
          "duration": 0.24690094166666654
        },
        {
          "name": "E4",
          "midi": 64,
          "time": 133.38849199999999,
          "velocity": 0.6299212598425197,
          "duration": 0.24690094166666654
        },
        {
          "name": "F4",
          "midi": 65,
          "time": 133.63642599999997,
          "velocity": 0.6299212598425197,
          "duration": 0.24690094166666654
        },
        {
          "name": "C4",
          "midi": 60,
          "time": 133.88435999999996,
          "velocity": 0.6299212598425197,
          "duration": 0.24690094166666654
        },
        {
          "name": "A#4",
          "midi": 70,
          "time": 134.13229399999994,
          "velocity": 0.6299212598425197,
          "duration": 0.24690094166666654
        },
        {
          "name": "A4",
          "midi": 69,
          "time": 134.87609599999993,
          "velocity": 0.6299212598425197,
          "duration": 0.4948349416666531
        },
        {
          "name": "E4",
          "midi": 64,
          "time": 135.8678319999999,
          "velocity": 0.6299212598425197,
          "duration": 0.4948349416666531
        },
        {
          "name": "F4",
          "midi": 65,
          "time": 135.8678319999999,
          "velocity": 0.6299212598425197,
          "duration": 0.4948349416666531
        },
        {
          "name": "E4",
          "midi": 64,
          "time": 136.36369999999988,
          "velocity": 0.6299212598425197,
          "duration": 0.4948349416666531
        },
        {
          "name": "F4",
          "midi": 65,
          "time": 136.36369999999988,
          "velocity": 0.6299212598425197,
          "duration": 0.4948349416666531
        },
        {
          "name": "A4",
          "midi": 69,
          "time": 136.85956799999985,
          "velocity": 0.6299212598425197,
          "duration": 0.24690094166666654
        },
        {
          "name": "F4",
          "midi": 65,
          "time": 137.10750199999984,
          "velocity": 0.6299212598425197,
          "duration": 0.24690094166666654
        },
        {
          "name": "F4",
          "midi": 65,
          "time": 137.35543599999983,
          "velocity": 0.6299212598425197,
          "duration": 0.24690094166666654
        },
        {
          "name": "E4",
          "midi": 64,
          "time": 137.6033699999998,
          "velocity": 0.6299212598425197,
          "duration": 0.24690094166666654
        },
        {
          "name": "A4",
          "midi": 69,
          "time": 137.8513039999998,
          "velocity": 0.6299212598425197,
          "duration": 0.24690094166666654
        },
        {
          "name": "C4",
          "midi": 60,
          "time": 138.0992379999998,
          "velocity": 0.6299212598425197,
          "duration": 0.24690094166666654
        },
        {
          "name": "A4",
          "midi": 69,
          "time": 139.33890799999978,
          "velocity": 0.6299212598425197,
          "duration": 0.4948349416666531
        },
        {
          "name": "A4",
          "midi": 69,
          "time": 139.83477599999975,
          "velocity": 0.6299212598425197,
          "duration": 0.4948349416666531
        },
        {
          "name": "A4",
          "midi": 69,
          "time": 140.33064399999972,
          "velocity": 0.6299212598425197,
          "duration": 0.4948349416666531
        },
        {
          "name": "C4",
          "midi": 60,
          "time": 140.8265119999997,
          "velocity": 0.6299212598425197,
          "duration": 0.24690094166666654
        },
        {
          "name": "E4",
          "midi": 64,
          "time": 141.07444599999968,
          "velocity": 0.6299212598425197,
          "duration": 0.24690094166666654
        },
        {
          "name": "C4",
          "midi": 60,
          "time": 141.32237999999967,
          "velocity": 0.6299212598425197,
          "duration": 0.24690094166666654
        },
        {
          "name": "F4",
          "midi": 65,
          "time": 141.32237999999967,
          "velocity": 0.6299212598425197,
          "duration": 0.24690094166666654
        },
        {
          "name": "E4",
          "midi": 64,
          "time": 141.57031399999966,
          "velocity": 0.6299212598425197,
          "duration": 0.24690094166666654
        },
        {
          "name": "A4",
          "midi": 69,
          "time": 141.57031399999966,
          "velocity": 0.6299212598425197,
          "duration": 0.24690094166666654
        },
        {
          "name": "C4",
          "midi": 60,
          "time": 141.81824799999964,
          "velocity": 0.6299212598425197,
          "duration": 0.4948349416666531
        },
        {
          "name": "E4",
          "midi": 64,
          "time": 141.81824799999964,
          "velocity": 0.6299212598425197,
          "duration": 0.4948349416666531
        },
        {
          "name": "C4",
          "midi": 60,
          "time": 142.31411599999961,
          "velocity": 0.6299212598425197,
          "duration": 0.24690094166666654
        },
        {
          "name": "F4",
          "midi": 65,
          "time": 142.31411599999961,
          "velocity": 0.6299212598425197,
          "duration": 0.24690094166666654
        },
        {
          "name": "A4",
          "midi": 69,
          "time": 142.5620499999996,
          "velocity": 0.6299212598425197,
          "duration": 0.24690094166666654
        },
        {
          "name": "E4",
          "midi": 64,
          "time": 143.3058519999996,
          "velocity": 0.6299212598425197,
          "duration": 0.4948349416666531
        },
        {
          "name": "F4",
          "midi": 65,
          "time": 143.3058519999996,
          "velocity": 0.6299212598425197,
          "duration": 0.4948349416666531
        },
        {
          "name": "E4",
          "midi": 64,
          "time": 143.80171999999956,
          "velocity": 0.6299212598425197,
          "duration": 0.4948349416666531
        },
        {
          "name": "F4",
          "midi": 65,
          "time": 143.80171999999956,
          "velocity": 0.6299212598425197,
          "duration": 0.4948349416666531
        },
        {
          "name": "C4",
          "midi": 60,
          "time": 144.29758799999954,
          "velocity": 0.6299212598425197,
          "duration": 0.24690094166666654
        },
        {
          "name": "A4",
          "midi": 69,
          "time": 144.29758799999954,
          "velocity": 0.6299212598425197,
          "duration": 0.24690094166666654
        },
        {
          "name": "C4",
          "midi": 60,
          "time": 144.54552199999952,
          "velocity": 0.6299212598425197,
          "duration": 0.24690094166666654
        },
        {
          "name": "A4",
          "midi": 69,
          "time": 144.54552199999952,
          "velocity": 0.6299212598425197,
          "duration": 0.24690094166666654
        },
        {
          "name": "E4",
          "midi": 64,
          "time": 144.7934559999995,
          "velocity": 0.6299212598425197,
          "duration": 0.4948349416666531
        },
        {
          "name": "F4",
          "midi": 65,
          "time": 144.7934559999995,
          "velocity": 0.6299212598425197,
          "duration": 0.4948349416666531
        },
        {
          "name": "E4",
          "midi": 64,
          "time": 147.2727959999995,
          "velocity": 0.6299212598425197,
          "duration": 0.4948349416666531
        },
        {
          "name": "F4",
          "midi": 65,
          "time": 147.2727959999995,
          "velocity": 0.6299212598425197,
          "duration": 0.4948349416666531
        },
        {
          "name": "E4",
          "midi": 64,
          "time": 147.76866399999946,
          "velocity": 0.6299212598425197,
          "duration": 0.4948349416666531
        },
        {
          "name": "F4",
          "midi": 65,
          "time": 147.76866399999946,
          "velocity": 0.6299212598425197,
          "duration": 0.4948349416666531
        },
        {
          "name": "C4",
          "midi": 60,
          "time": 148.26453199999943,
          "velocity": 0.6299212598425197,
          "duration": 0.24690094166666654
        },
        {
          "name": "A4",
          "midi": 69,
          "time": 148.26453199999943,
          "velocity": 0.6299212598425197,
          "duration": 0.24690094166666654
        },
        {
          "name": "C4",
          "midi": 60,
          "time": 148.51246599999942,
          "velocity": 0.6299212598425197,
          "duration": 0.24690094166666654
        },
        {
          "name": "A4",
          "midi": 69,
          "time": 148.51246599999942,
          "velocity": 0.6299212598425197,
          "duration": 0.24690094166666654
        },
        {
          "name": "E4",
          "midi": 64,
          "time": 148.7603999999994,
          "velocity": 0.6299212598425197,
          "duration": 0.4948349416666531
        },
        {
          "name": "F4",
          "midi": 65,
          "time": 148.7603999999994,
          "velocity": 0.6299212598425197,
          "duration": 0.4948349416666531
        },
        {
          "name": "E4",
          "midi": 64,
          "time": 151.2397399999994,
          "velocity": 0.6299212598425197,
          "duration": 0.4948349416666531
        },
        {
          "name": "F4",
          "midi": 65,
          "time": 151.2397399999994,
          "velocity": 0.6299212598425197,
          "duration": 0.4948349416666531
        },
        {
          "name": "E4",
          "midi": 64,
          "time": 151.73560799999936,
          "velocity": 0.6299212598425197,
          "duration": 0.4948349416666531
        },
        {
          "name": "F4",
          "midi": 65,
          "time": 151.73560799999936,
          "velocity": 0.6299212598425197,
          "duration": 0.4948349416666531
        },
        {
          "name": "C4",
          "midi": 60,
          "time": 152.23147599999933,
          "velocity": 0.6299212598425197,
          "duration": 0.24690094166666654
        },
        {
          "name": "A4",
          "midi": 69,
          "time": 152.23147599999933,
          "velocity": 0.6299212598425197,
          "duration": 0.24690094166666654
        },
        {
          "name": "C4",
          "midi": 60,
          "time": 152.47940999999932,
          "velocity": 0.6299212598425197,
          "duration": 0.24690094166666654
        },
        {
          "name": "A4",
          "midi": 69,
          "time": 152.47940999999932,
          "velocity": 0.6299212598425197,
          "duration": 0.24690094166666654
        },
        {
          "name": "E4",
          "midi": 64,
          "time": 152.7273439999993,
          "velocity": 0.6299212598425197,
          "duration": 0.4948349416666531
        },
        {
          "name": "F4",
          "midi": 65,
          "time": 152.7273439999993,
          "velocity": 0.6299212598425197,
          "duration": 0.4948349416666531
        },
        {
          "name": "E4",
          "midi": 64,
          "time": 155.20668399999929,
          "velocity": 0.6299212598425197,
          "duration": 0.4948349416666531
        },
        {
          "name": "F4",
          "midi": 65,
          "time": 155.20668399999929,
          "velocity": 0.6299212598425197,
          "duration": 0.4948349416666531
        },
        {
          "name": "E4",
          "midi": 64,
          "time": 155.70255199999926,
          "velocity": 0.6299212598425197,
          "duration": 0.4948349416666531
        },
        {
          "name": "F4",
          "midi": 65,
          "time": 155.70255199999926,
          "velocity": 0.6299212598425197,
          "duration": 0.4948349416666531
        },
        {
          "name": "C4",
          "midi": 60,
          "time": 156.19841999999923,
          "velocity": 0.6299212598425197,
          "duration": 0.24690094166666654
        },
        {
          "name": "A4",
          "midi": 69,
          "time": 156.19841999999923,
          "velocity": 0.6299212598425197,
          "duration": 0.24690094166666654
        },
        {
          "name": "C4",
          "midi": 60,
          "time": 156.44635399999922,
          "velocity": 0.6299212598425197,
          "duration": 0.24690094166666654
        },
        {
          "name": "A4",
          "midi": 69,
          "time": 156.44635399999922,
          "velocity": 0.6299212598425197,
          "duration": 0.24690094166666654
        },
        {
          "name": "E4",
          "midi": 64,
          "time": 156.6942879999992,
          "velocity": 0.6299212598425197,
          "duration": 0.4948349416666531
        },
        {
          "name": "F4",
          "midi": 65,
          "time": 156.6942879999992,
          "velocity": 0.6299212598425197,
          "duration": 0.4948349416666531
        },
        {
          "name": "C4",
          "midi": 60,
          "time": 157.19015599999918,
          "velocity": 0.6299212598425197,
          "duration": 0.24690094166666654
        },
        {
          "name": "E4",
          "midi": 64,
          "time": 157.19015599999918,
          "velocity": 0.6299212598425197,
          "duration": 0.24690094166666654
        },
        {
          "name": "C4",
          "midi": 60,
          "time": 157.43808999999916,
          "velocity": 0.6299212598425197,
          "duration": 0.24690094166666654
        },
        {
          "name": "E4",
          "midi": 64,
          "time": 157.43808999999916,
          "velocity": 0.6299212598425197,
          "duration": 0.24690094166666654
        },
        {
          "name": "F4",
          "midi": 65,
          "time": 157.68602399999915,
          "velocity": 0.6299212598425197,
          "duration": 0.24690094166666654
        },
        {
          "name": "A4",
          "midi": 69,
          "time": 157.68602399999915,
          "velocity": 0.6299212598425197,
          "duration": 0.24690094166666654
        },
        {
          "name": "F4",
          "midi": 65,
          "time": 157.93395799999914,
          "velocity": 0.6299212598425197,
          "duration": 0.24690094166666654
        },
        {
          "name": "A4",
          "midi": 69,
          "time": 157.93395799999914,
          "velocity": 0.6299212598425197,
          "duration": 0.24690094166666654
        },
        {
          "name": "E4",
          "midi": 64,
          "time": 158.18189199999912,
          "velocity": 0.6299212598425197,
          "duration": 0.4948349416666531
        },
        {
          "name": "F4",
          "midi": 65,
          "time": 158.18189199999912,
          "velocity": 0.6299212598425197,
          "duration": 0.4948349416666531
        },
        {
          "name": "C4",
          "midi": 60,
          "time": 158.6777599999991,
          "velocity": 0.6299212598425197,
          "duration": 0.24690094166666654
        },
        {
          "name": "E4",
          "midi": 64,
          "time": 158.6777599999991,
          "velocity": 0.6299212598425197,
          "duration": 0.24690094166666654
        },
        {
          "name": "F4",
          "midi": 65,
          "time": 158.6777599999991,
          "velocity": 0.6299212598425197,
          "duration": 0.24690094166666654
        },
        {
          "name": "A4",
          "midi": 69,
          "time": 158.6777599999991,
          "velocity": 0.6299212598425197,
          "duration": 0.24690094166666654
        },
        {
          "name": "C4",
          "midi": 60,
          "time": 158.92569399999908,
          "velocity": 0.6299212598425197,
          "duration": 0.24690094166666654
        },
        {
          "name": "E4",
          "midi": 64,
          "time": 158.92569399999908,
          "velocity": 0.6299212598425197,
          "duration": 0.24690094166666654
        },
        {
          "name": "F4",
          "midi": 65,
          "time": 158.92569399999908,
          "velocity": 0.6299212598425197,
          "duration": 0.24690094166666654
        },
        {
          "name": "A4",
          "midi": 69,
          "time": 158.92569399999908,
          "velocity": 0.6299212598425197,
          "duration": 0.24690094166666654
        }
      ],
      "controlChanges": {
        "6": [
          {
            "number": 6,
            "time": 0,
            "value": 0.09448818897637795
          }
        ],
        "7": [
          {
            "number": 7,
            "time": 0,
            "value": 0.7874015748031497
          }
        ],
        "10": [
          {
            "number": 10,
            "time": 0,
            "value": 0.5039370078740157
          }
        ],
        "91": [
          {
            "number": 91,
            "time": 0,
            "value": 0
          }
        ],
        "93": [
          {
            "number": 93,
            "time": 0,
            "value": 0
          }
        ],
        "100": [
          {
            "number": 100,
            "time": 0,
            "value": 0
          },
          {
            "number": 100,
            "time": 0,
            "value": 1
          }
        ],
        "101": [
          {
            "number": 101,
            "time": 0,
            "value": 0
          },
          {
            "number": 101,
            "time": 0,
            "value": 1
          }
        ],
        "121": [
          {
            "number": 121,
            "time": 0,
            "value": 0
          }
        ]
      },
      "id": 0,
      "name": "Piano",
      "instrumentNumber": 0,
      "instrument": "acoustic grand piano",
      "instrumentFamily": "piano",
      "channelNumber": 0,
      "isPercussion": false
    },
    {
      "startTime": 0,
      "duration": 0,
      "length": 0,
      "notes": [],
      "controlChanges": {},
      "id": 1,
      "name": "Piano"
    }
  ]
}