{
  "header": {
    "PPQ": 480,
    "timeSignature": [
      4,
      4
    ],
    "bpm": 160,
    "name": "Grand Piano"
  },
  "tempo": [
    {
      "absoluteTime": 0,
      "seconds": 0,
      "bpm": 160
    }
  ],
  "timeSignature": [
    {
      "absoluteTime": 0,
      "seconds": 0,
      "numerator": 4,
      "denominator": 2,
      "click": 24,
      "notesQ": 8
    }
  ],
  "startTime": 0,
  "duration": 227.99921875,
  "tracks": [
    {
      "startTime": 0,
      "duration": 227.99921875,
      "length": 711,
      "notes": [
        {
          "name": "F4",
          "midi": 65,
          "time": 0,
          "velocity": 0.6299212598425197,
          "duration": 0.18671875
        },
        {
          "name": "A4",
          "midi": 69,
          "time": 0.1875,
          "velocity": 0.6299212598425197,
          "duration": 0.18671875
        },
        {
          "name": "F4",
          "midi": 65,
          "time": 0.375,
          "velocity": 0.6299212598425197,
          "duration": 0.18671875000000004
        },
        {
          "name": "A4",
          "midi": 69,
          "time": 0.5625,
          "velocity": 0.6299212598425197,
          "duration": 0.18671875000000004
        },
        {
          "name": "F4",
          "midi": 65,
          "time": 0.75,
          "velocity": 0.6299212598425197,
          "duration": 0.18671875000000004
        },
        {
          "name": "A4",
          "midi": 69,
          "time": 0.9375,
          "velocity": 0.6299212598425197,
          "duration": 0.18671875000000004
        },
        {
          "name": "F4",
          "midi": 65,
          "time": 1.125,
          "velocity": 0.6299212598425197,
          "duration": 0.18671875000000004
        },
        {
          "name": "A4",
          "midi": 69,
          "time": 1.3125,
          "velocity": 0.6299212598425197,
          "duration": 0.18671875000000004
        },
        {
          "name": "C4",
          "midi": 60,
          "time": 1.5,
          "velocity": 0.6299212598425197,
          "duration": 0.28046875000000004
        },
        {
          "name": "E4",
          "midi": 64,
          "time": 1.78125,
          "velocity": 0.6299212598425197,
          "duration": 0.2804687499999998
        },
        {
          "name": "C4",
          "midi": 60,
          "time": 2.0625,
          "velocity": 0.6299212598425197,
          "duration": 0.3742187499999998
        },
        {
          "name": "F4",
          "midi": 65,
          "time": 2.4375,
          "velocity": 0.6299212598425197,
          "duration": 0.18671874999999982
        },
        {
          "name": "F4",
          "midi": 65,
          "time": 2.625,
          "velocity": 0.6299212598425197,
          "duration": 0.18671874999999982
        },
        {
          "name": "F4",
          "midi": 65,
          "time": 2.8125,
          "velocity": 0.6299212598425197,
          "duration": 0.18671874999999982
        },
        {
          "name": "C4",
          "midi": 60,
          "time": 3,
          "velocity": 0.6299212598425197,
          "duration": 0.2804687499999998
        },
        {
          "name": "E4",
          "midi": 64,
          "time": 3.28125,
          "velocity": 0.6299212598425197,
          "duration": 0.2804687499999998
        },
        {
          "name": "C4",
          "midi": 60,
          "time": 3.5625,
          "velocity": 0.6299212598425197,
          "duration": 0.3742187499999998
        },
        {
          "name": "F4",
          "midi": 65,
          "time": 3.9375,
          "velocity": 0.6299212598425197,
          "duration": 0.18671874999999982
        },
        {
          "name": "F4",
          "midi": 65,
          "time": 4.125,
          "velocity": 0.6299212598425197,
          "duration": 0.18671874999999982
        },
        {
          "name": "F4",
          "midi": 65,
          "time": 4.3125,
          "velocity": 0.6299212598425197,
          "duration": 0.18671874999999982
        },
        {
          "name": "E4",
          "midi": 64,
          "time": 4.5,
          "velocity": 0.6299212598425197,
          "duration": 0.2804687499999998
        },
        {
          "name": "C4",
          "midi": 60,
          "time": 4.78125,
          "velocity": 0.6299212598425197,
          "duration": 0.2804687499999998
        },
        {
          "name": "E4",
          "midi": 64,
          "time": 5.0625,
          "velocity": 0.6299212598425197,
          "duration": 0.3742187499999998
        },
        {
          "name": "A4",
          "midi": 69,
          "time": 5.4375,
          "velocity": 0.6299212598425197,
          "duration": 0.18671874999999982
        },
        {
          "name": "A4",
          "midi": 69,
          "time": 5.625,
          "velocity": 0.6299212598425197,
          "duration": 0.18671874999999982
        },
        {
          "name": "A4",
          "midi": 69,
          "time": 5.8125,
          "velocity": 0.6299212598425197,
          "duration": 0.18671874999999982
        },
        {
          "name": "E4",
          "midi": 64,
          "time": 6,
          "velocity": 0.6299212598425197,
          "duration": 0.2804687499999998
        },
        {
          "name": "C4",
          "midi": 60,
          "time": 6.28125,
          "velocity": 0.6299212598425197,
          "duration": 0.2804687499999998
        },
        {
          "name": "E4",
          "midi": 64,
          "time": 6.5625,
          "velocity": 0.6299212598425197,
          "duration": 0.3742187499999998
        },
        {
          "name": "A4",
          "midi": 69,
          "time": 6.9375,
          "velocity": 0.6299212598425197,
          "duration": 0.18671874999999982
        },
        {
          "name": "A4",
          "midi": 69,
          "time": 7.125,
          "velocity": 0.6299212598425197,
          "duration": 0.18671874999999982
        },
        {
          "name": "A4",
          "midi": 69,
          "time": 7.3125,
          "velocity": 0.6299212598425197,
          "duration": 0.18671874999999982
        },
        {
          "name": "C4",
          "midi": 60,
          "time": 7.5,
          "velocity": 0.6299212598425197,
          "duration": 0.2804687499999998
        },
        {
          "name": "E4",
          "midi": 64,
          "time": 7.78125,
          "velocity": 0.6299212598425197,
          "duration": 0.2804687500000007
        },
        {
          "name": "C4",
          "midi": 60,
          "time": 8.0625,
          "velocity": 0.6299212598425197,
          "duration": 0.3742187500000007
        },
        {
          "name": "F4",
          "midi": 65,
          "time": 8.4375,
          "velocity": 0.6299212598425197,
          "duration": 0.1867187500000007
        },
        {
          "name": "F4",
          "midi": 65,
          "time": 8.625,
          "velocity": 0.6299212598425197,
          "duration": 0.1867187500000007
        },
        {
          "name": "F4",
          "midi": 65,
          "time": 8.8125,
          "velocity": 0.6299212598425197,
          "duration": 0.1867187500000007
        },
        {
          "name": "C4",
          "midi": 60,
          "time": 9,
          "velocity": 0.6299212598425197,
          "duration": 0.2804687500000007
        },
        {
          "name": "E4",
          "midi": 64,
          "time": 9.28125,
          "velocity": 0.6299212598425197,
          "duration": 0.2804687500000007
        },
        {
          "name": "C4",
          "midi": 60,
          "time": 9.5625,
          "velocity": 0.6299212598425197,
          "duration": 0.3742187500000007
        },
        {
          "name": "F4",
          "midi": 65,
          "time": 9.9375,
          "velocity": 0.6299212598425197,
          "duration": 0.1867187500000007
        },
        {
          "name": "F4",
          "midi": 65,
          "time": 10.125,
          "velocity": 0.6299212598425197,
          "duration": 0.1867187500000007
        },
        {
          "name": "F4",
          "midi": 65,
          "time": 10.3125,
          "velocity": 0.6299212598425197,
          "duration": 0.1867187500000007
        },
        {
          "name": "C4",
          "midi": 60,
          "time": 10.5,
          "velocity": 0.6299212598425197,
          "duration": 0.3742187500000007
        },
        {
          "name": "C4",
          "midi": 60,
          "time": 10.875,
          "velocity": 0.6299212598425197,
          "duration": 0.3742187500000007
        },
        {
          "name": "C4",
          "midi": 60,
          "time": 11.25,
          "velocity": 0.6299212598425197,
          "duration": 0.3742187500000007
        },
        {
          "name": "C4",
          "midi": 60,
          "time": 11.625,
          "velocity": 0.6299212598425197,
          "duration": 0.3742187500000007
        },
        {
          "name": "E4",
          "midi": 64,
          "time": 12,
          "velocity": 0.6299212598425197,
          "duration": 0.3742187500000007
        },
        {
          "name": "F4",
          "midi": 65,
          "time": 12.375,
          "velocity": 0.6299212598425197,
          "duration": 0.3742187500000007
        },
        {
          "name": "F4",
          "midi": 65,
          "time": 12.75,
          "velocity": 0.6299212598425197,
          "duration": 0.3742187500000007
        },
        {
          "name": "F4",
          "midi": 65,
          "time": 13.5,
          "velocity": 0.6299212598425197,
          "duration": 0.3742187500000007
        },
        {
          "name": "A4",
          "midi": 69,
          "time": 13.5,
          "velocity": 0.6299212598425197,
          "duration": 0.3742187500000007
        },
        {
          "name": "C4",
          "midi": 60,
          "time": 14.625,
          "velocity": 0.6299212598425197,
          "duration": 0.3742187500000007
        },
        {
          "name": "A4",
          "midi": 69,
          "time": 15,
          "velocity": 0.6299212598425197,
          "duration": 0.1867187500000007
        },
        {
          "name": "E4",
          "midi": 64,
          "time": 15.1875,
          "velocity": 0.6299212598425197,
          "duration": 0.1867187500000007
        },
        {
          "name": "A4",
          "midi": 69,
          "time": 15.375,
          "velocity": 0.6299212598425197,
          "duration": 0.1867187500000007
        },
        {
          "name": "E4",
          "midi": 64,
          "time": 15.5625,
          "velocity": 0.6299212598425197,
          "duration": 0.1867187500000007
        },
        {
          "name": "F4",
          "midi": 65,
          "time": 15.75,
          "velocity": 0.6299212598425197,
          "duration": 0.1867187500000007
        },
        {
          "name": "C4",
          "midi": 60,
          "time": 15.9375,
          "velocity": 0.6299212598425197,
          "duration": 0.1867187500000007
        },
        {
          "name": "F4",
          "midi": 65,
          "time": 16.125,
          "velocity": 0.6299212598425197,
          "duration": 0.3742187500000007
        },
        {
          "name": "C4",
          "midi": 60,
          "time": 16.5,
          "velocity": 0.6299212598425197,
          "duration": 0.3742187500000007
        },
        {
          "name": "C4",
          "midi": 60,
          "time": 17.625,
          "velocity": 0.6299212598425197,
          "duration": 0.3742187500000007
        },
        {
          "name": "E4",
          "midi": 64,
          "time": 18,
          "velocity": 0.6299212598425197,
          "duration": 0.3742187500000007
        },
        {
          "name": "A4",
          "midi": 69,
          "time": 18,
          "velocity": 0.6299212598425197,
          "duration": 0.3742187500000007
        },
        {
          "name": "E4",
          "midi": 64,
          "time": 18.375,
          "velocity": 0.6299212598425197,
          "duration": 0.3742187500000007
        },
        {
          "name": "F4",
          "midi": 65,
          "time": 18.375,
          "velocity": 0.6299212598425197,
          "duration": 0.3742187500000007
        },
        {
          "name": "E4",
          "midi": 64,
          "time": 18.75,
          "velocity": 0.6299212598425197,
          "duration": 0.3742187500000007
        },
        {
          "name": "A4",
          "midi": 69,
          "time": 18.75,
          "velocity": 0.6299212598425197,
          "duration": 0.3742187500000007
        },
        {
          "name": "E4",
          "midi": 64,
          "time": 19.125,
          "velocity": 0.6299212598425197,
          "duration": 0.3742187500000007
        },
        {
          "name": "F4",
          "midi": 65,
          "time": 19.125,
          "velocity": 0.6299212598425197,
          "duration": 0.3742187500000007
        },
        {
          "name": "E4",
          "midi": 64,
          "time": 19.5,
          "velocity": 0.6299212598425197,
          "duration": 0.3742187500000007
        },
        {
          "name": "A4",
          "midi": 69,
          "time": 19.5,
          "velocity": 0.6299212598425197,
          "duration": 0.3742187500000007
        },
        {
          "name": "F4",
          "midi": 65,
          "time": 19.875,
          "velocity": 0.6299212598425197,
          "duration": 0.3742187500000007
        },
        {
          "name": "F4",
          "midi": 65,
          "time": 20.25,
          "velocity": 0.6299212598425197,
          "duration": 0.3742187500000007
        },
        {
          "name": "A4",
          "midi": 69,
          "time": 20.25,
          "velocity": 0.6299212598425197,
          "duration": 0.3742187500000007
        },
        {
          "name": "C4",
          "midi": 60,
          "time": 20.625,
          "velocity": 0.6299212598425197,
          "duration": 0.3742187500000007
        },
        {
          "name": "A4",
          "midi": 69,
          "time": 20.625,
          "velocity": 0.6299212598425197,
          "duration": 0.3742187500000007
        },
        {
          "name": "C4",
          "midi": 60,
          "time": 21,
          "velocity": 0.6299212598425197,
          "duration": 0.3742187500000007
        },
        {
          "name": "F4",
          "midi": 65,
          "time": 21,
          "velocity": 0.6299212598425197,
          "duration": 0.3742187500000007
        },
        {
          "name": "C4",
          "midi": 60,
          "time": 21.375,
          "velocity": 0.6299212598425197,
          "duration": 0.3742187500000007
        },
        {
          "name": "A4",
          "midi": 69,
          "time": 21.375,
          "velocity": 0.6299212598425197,
          "duration": 0.3742187500000007
        },
        {
          "name": "C4",
          "midi": 60,
          "time": 21.75,
          "velocity": 0.6299212598425197,
          "duration": 0.3742187500000007
        },
        {
          "name": "F4",
          "midi": 65,
          "time": 21.75,
          "velocity": 0.6299212598425197,
          "duration": 0.3742187500000007
        },
        {
          "name": "C4",
          "midi": 60,
          "time": 22.125,
          "velocity": 0.6299212598425197,
          "duration": 0.3742187500000007
        },
        {
          "name": "A4",
          "midi": 69,
          "time": 22.125,
          "velocity": 0.6299212598425197,
          "duration": 0.3742187500000007
        },
        {
          "name": "C4",
          "midi": 60,
          "time": 22.5,
          "velocity": 0.6299212598425197,
          "duration": 0.3742187500000007
        },
        {
          "name": "F4",
          "midi": 65,
          "time": 22.5,
          "velocity": 0.6299212598425197,
          "duration": 0.3742187500000007
        },
        {
          "name": "C4",
          "midi": 60,
          "time": 22.875,
          "velocity": 0.6299212598425197,
          "duration": 0.3742187500000007
        },
        {
          "name": "A4",
          "midi": 69,
          "time": 22.875,
          "velocity": 0.6299212598425197,
          "duration": 0.3742187500000007
        },
        {
          "name": "C4",
          "midi": 60,
          "time": 23.25,
          "velocity": 0.6299212598425197,
          "duration": 0.3742187500000007
        },
        {
          "name": "F4",
          "midi": 65,
          "time": 23.25,
          "velocity": 0.6299212598425197,
          "duration": 0.3742187500000007
        },
        {
          "name": "C4",
          "midi": 60,
          "time": 23.625,
          "velocity": 0.6299212598425197,
          "duration": 0.3742187500000007
        },
        {
          "name": "A4",
          "midi": 69,
          "time": 23.625,
          "velocity": 0.6299212598425197,
          "duration": 0.3742187500000007
        },
        {
          "name": "C4",
          "midi": 60,
          "time": 24,
          "velocity": 0.6299212598425197,
          "duration": 0.3742187500000007
        },
        {
          "name": "F4",
          "midi": 65,
          "time": 24,
          "velocity": 0.6299212598425197,
          "duration": 0.3742187500000007
        },
        {
          "name": "C4",
          "midi": 60,
          "time": 24.375,
          "velocity": 0.6299212598425197,
          "duration": 0.3742187500000007
        },
        {
          "name": "A4",
          "midi": 69,
          "time": 24.375,
          "velocity": 0.6299212598425197,
          "duration": 0.3742187500000007
        },
        {
          "name": "C4",
          "midi": 60,
          "time": 24.75,
          "velocity": 0.6299212598425197,
          "duration": 0.3742187500000007
        },
        {
          "name": "F4",
          "midi": 65,
          "time": 24.75,
          "velocity": 0.6299212598425197,
          "duration": 0.3742187500000007
        },
        {
          "name": "C4",
          "midi": 60,
          "time": 25.125,
          "velocity": 0.6299212598425197,
          "duration": 0.3742187500000007
        },
        {
          "name": "A4",
          "midi": 69,
          "time": 25.125,
          "velocity": 0.6299212598425197,
          "duration": 0.3742187500000007
        },
        {
          "name": "C4",
          "midi": 60,
          "time": 25.5,
          "velocity": 0.6299212598425197,
          "duration": 0.3742187500000007
        },
        {
          "name": "F4",
          "midi": 65,
          "time": 25.5,
          "velocity": 0.6299212598425197,
          "duration": 0.3742187500000007
        },
        {
          "name": "E4",
          "midi": 64,
          "time": 26.625,
          "velocity": 0.6299212598425197,
          "duration": 0.1867187500000007
        },
        {
          "name": "E4",
          "midi": 64,
          "time": 26.8125,
          "velocity": 0.6299212598425197,
          "duration": 0.1867187500000007
        },
        {
          "name": "E4",
          "midi": 64,
          "time": 27,
          "velocity": 0.6299212598425197,
          "duration": 0.3742187500000007
        },
        {
          "name": "C4",
          "midi": 60,
          "time": 27.375,
          "velocity": 0.6299212598425197,
          "duration": 0.1867187500000007
        },
        {
          "name": "C4",
          "midi": 60,
          "time": 27.5625,
          "velocity": 0.6299212598425197,
          "duration": 0.1867187500000007
        },
        {
          "name": "C4",
          "midi": 60,
          "time": 27.75,
          "velocity": 0.6299212598425197,
          "duration": 0.3742187500000007
        },
        {
          "name": "F4",
          "midi": 65,
          "time": 28.125,
          "velocity": 0.6299212598425197,
          "duration": 0.3742187500000007
        },
        {
          "name": "F4",
          "midi": 65,
          "time": 28.5,
          "velocity": 0.6299212598425197,
          "duration": 0.3742187500000007
        },
        {
          "name": "E4",
          "midi": 64,
          "time": 29.625,
          "velocity": 0.6299212598425197,
          "duration": 0.1867187500000007
        },
        {
          "name": "E4",
          "midi": 64,
          "time": 29.8125,
          "velocity": 0.6299212598425197,
          "duration": 0.1867187500000007
        },
        {
          "name": "E4",
          "midi": 64,
          "time": 30,
          "velocity": 0.6299212598425197,
          "duration": 0.3742187500000007
        },
        {
          "name": "C4",
          "midi": 60,
          "time": 30.375,
          "velocity": 0.6299212598425197,
          "duration": 0.1867187500000007
        },
        {
          "name": "C4",
          "midi": 60,
          "time": 30.5625,
          "velocity": 0.6299212598425197,
          "duration": 0.1867187500000007
        },
        {
          "name": "C4",
          "midi": 60,
          "time": 30.75,
          "velocity": 0.6299212598425197,
          "duration": 0.3742187500000007
        },
        {
          "name": "F4",
          "midi": 65,
          "time": 31.125,
          "velocity": 0.6299212598425197,
          "duration": 0.3742187500000007
        },
        {
          "name": "E4",
          "midi": 64,
          "time": 31.875,
          "velocity": 0.6299212598425197,
          "duration": 0.37421874999999716
        },
        {
          "name": "F4",
          "midi": 65,
          "time": 31.875,
          "velocity": 0.6299212598425197,
          "duration": 0.37421874999999716
        },
        {
          "name": "C4",
          "midi": 60,
          "time": 32.25,
          "velocity": 0.6299212598425197,
          "duration": 0.37421874999999716
        },
        {
          "name": "F4",
          "midi": 65,
          "time": 32.25,
          "velocity": 0.6299212598425197,
          "duration": 0.37421874999999716
        },
        {
          "name": "E4",
          "midi": 64,
          "time": 32.625,
          "velocity": 0.6299212598425197,
          "duration": 0.37421874999999716
        },
        {
          "name": "F4",
          "midi": 65,
          "time": 32.625,
          "velocity": 0.6299212598425197,
          "duration": 0.37421874999999716
        },
        {
          "name": "C4",
          "midi": 60,
          "time": 33,
          "velocity": 0.6299212598425197,
          "duration": 0.37421874999999716
        },
        {
          "name": "F4",
          "midi": 65,
          "time": 33,
          "velocity": 0.6299212598425197,
          "duration": 0.37421874999999716
        },
        {
          "name": "E4",
          "midi": 64,
          "time": 33.375,
          "velocity": 0.6299212598425197,
          "duration": 0.37421874999999716
        },
        {
          "name": "F4",
          "midi": 65,
          "time": 33.375,
          "velocity": 0.6299212598425197,
          "duration": 0.37421874999999716
        },
        {
          "name": "C4",
          "midi": 60,
          "time": 33.75,
          "velocity": 0.6299212598425197,
          "duration": 0.37421874999999716
        },
        {
          "name": "F4",
          "midi": 65,
          "time": 33.75,
          "velocity": 0.6299212598425197,
          "duration": 0.37421874999999716
        },
        {
          "name": "D4",
          "midi": 62,
          "time": 34.125,
          "velocity": 0.6299212598425197,
          "duration": 0.37421874999999716
        },
        {
          "name": "F4",
          "midi": 65,
          "time": 34.125,
          "velocity": 0.6299212598425197,
          "duration": 0.37421874999999716
        },
        {
          "name": "C4",
          "midi": 60,
          "time": 34.5,
          "velocity": 0.6299212598425197,
          "duration": 0.37421874999999716
        },
        {
          "name": "F4",
          "midi": 65,
          "time": 34.5,
          "velocity": 0.6299212598425197,
          "duration": 0.37421874999999716
        },
        {
          "name": "F4",
          "midi": 65,
          "time": 34.875,
          "velocity": 0.6299212598425197,
          "duration": 0.37421874999999716
        },
        {
          "name": "F4",
          "midi": 65,
          "time": 35.25,
          "velocity": 0.6299212598425197,
          "duration": 0.37421874999999716
        },
        {
          "name": "F4",
          "midi": 65,
          "time": 35.625,
          "velocity": 0.6299212598425197,
          "duration": 0.37421874999999716
        },
        {
          "name": "F4",
          "midi": 65,
          "time": 36,
          "velocity": 0.6299212598425197,
          "duration": 0.37421874999999716
        },
        {
          "name": "C4",
          "midi": 60,
          "time": 37.5,
          "velocity": 0.6299212598425197,
          "duration": 0.37421874999999716
        },
        {
          "name": "E4",
          "midi": 64,
          "time": 37.875,
          "velocity": 0.6299212598425197,
          "duration": 0.18671874999999716
        },
        {
          "name": "F4",
          "midi": 65,
          "time": 38.0625,
          "velocity": 0.6299212598425197,
          "duration": 0.18671874999999716
        },
        {
          "name": "A4",
          "midi": 69,
          "time": 38.25,
          "velocity": 0.6299212598425197,
          "duration": 0.37421874999999716
        },
        {
          "name": "F4",
          "midi": 65,
          "time": 38.625,
          "velocity": 0.6299212598425197,
          "duration": 0.37421874999999716
        },
        {
          "name": "C4",
          "midi": 60,
          "time": 39,
          "velocity": 0.6299212598425197,
          "duration": 0.37421874999999716
        },
        {
          "name": "A4",
          "midi": 69,
          "time": 39.375,
          "velocity": 0.6299212598425197,
          "duration": 0.37421874999999716
        },
        {
          "name": "E4",
          "midi": 64,
          "time": 39.75,
          "velocity": 0.6299212598425197,
          "duration": 0.37421874999999716
        },
        {
          "name": "F4",
          "midi": 65,
          "time": 40.125,
          "velocity": 0.6299212598425197,
          "duration": 0.37421874999999716
        },
        {
          "name": "C4",
          "midi": 60,
          "time": 40.5,
          "velocity": 0.6299212598425197,
          "duration": 2.999218749999997
        },
        {
          "name": "A4",
          "midi": 69,
          "time": 40.5,
          "velocity": 0.6299212598425197,
          "duration": 2.999218749999997
        },
        {
          "name": "C4",
          "midi": 60,
          "time": 43.5,
          "velocity": 0.6299212598425197,
          "duration": 0.37421874999999716
        },
        {
          "name": "E4",
          "midi": 64,
          "time": 43.875,
          "velocity": 0.6299212598425197,
          "duration": 0.18671874999999716
        },
        {
          "name": "F4",
          "midi": 65,
          "time": 44.0625,
          "velocity": 0.6299212598425197,
          "duration": 0.18671874999999716
        },
        {
          "name": "A4",
          "midi": 69,
          "time": 44.25,
          "velocity": 0.6299212598425197,
          "duration": 0.37421874999999716
        },
        {
          "name": "F4",
          "midi": 65,
          "time": 44.625,
          "velocity": 0.6299212598425197,
          "duration": 0.37421874999999716
        },
        {
          "name": "E4",
          "midi": 64,
          "time": 45,
          "velocity": 0.6299212598425197,
          "duration": 0.18671874999999716
        },
        {
          "name": "C4",
          "midi": 60,
          "time": 45.1875,
          "velocity": 0.6299212598425197,
          "duration": 0.18671874999999716
        },
        {
          "name": "E4",
          "midi": 64,
          "time": 46.125,
          "velocity": 0.6299212598425197,
          "duration": 0.37421874999999716
        },
        {
          "name": "F4",
          "midi": 65,
          "time": 46.125,
          "velocity": 0.6299212598425197,
          "duration": 0.37421874999999716
        },
        {
          "name": "C4",
          "midi": 60,
          "time": 46.875,
          "velocity": 0.6299212598425197,
          "duration": 0.37421874999999716
        },
        {
          "name": "E4",
          "midi": 64,
          "time": 47.25,
          "velocity": 0.6299212598425197,
          "duration": 0.37421874999999716
        },
        {
          "name": "F4",
          "midi": 65,
          "time": 47.625,
          "velocity": 0.6299212598425197,
          "duration": 0.18671874999999716
        },
        {
          "name": "E4",
          "midi": 64,
          "time": 47.8125,
          "velocity": 0.6299212598425197,
          "duration": 0.18671874999999716
        },
        {
          "name": "C4",
          "midi": 60,
          "time": 48,
          "velocity": 0.6299212598425197,
          "duration": 0.37421874999999716
        },
        {
          "name": "F4",
          "midi": 65,
          "time": 48,
          "velocity": 0.6299212598425197,
          "duration": 0.37421874999999716
        },
        {
          "name": "C4",
          "midi": 60,
          "time": 48.375,
          "velocity": 0.6299212598425197,
          "duration": 0.37421874999999716
        },
        {
          "name": "A4",
          "midi": 69,
          "time": 48.375,
          "velocity": 0.6299212598425197,
          "duration": 0.37421874999999716
        },
        {
          "name": "C4",
          "midi": 60,
          "time": 48.75,
          "velocity": 0.6299212598425197,
          "duration": 0.37421874999999716
        },
        {
          "name": "F4",
          "midi": 65,
          "time": 48.75,
          "velocity": 0.6299212598425197,
          "duration": 0.37421874999999716
        },
        {
          "name": "C4",
          "midi": 60,
          "time": 49.125,
          "velocity": 0.6299212598425197,
          "duration": 0.37421874999999716
        },
        {
          "name": "A4",
          "midi": 69,
          "time": 49.125,
          "velocity": 0.6299212598425197,
          "duration": 0.37421874999999716
        },
        {
          "name": "C4",
          "midi": 60,
          "time": 49.5,
          "velocity": 0.6299212598425197,
          "duration": 0.37421874999999716
        },
        {
          "name": "F4",
          "midi": 65,
          "time": 49.5,
          "velocity": 0.6299212598425197,
          "duration": 0.37421874999999716
        },
        {
          "name": "C4",
          "midi": 60,
          "time": 51.375,
          "velocity": 0.6299212598425197,
          "duration": 0.37421874999999716
        },
        {
          "name": "A4",
          "midi": 69,
          "time": 51.375,
          "velocity": 0.6299212598425197,
          "duration": 0.37421874999999716
        },
        {
          "name": "E4",
          "midi": 64,
          "time": 51.75,
          "velocity": 0.6299212598425197,
          "duration": 0.37421874999999716
        },
        {
          "name": "F4",
          "midi": 65,
          "time": 51.75,
          "velocity": 0.6299212598425197,
          "duration": 0.37421874999999716
        },
        {
          "name": "C4",
          "midi": 60,
          "time": 52.125,
          "velocity": 0.6299212598425197,
          "duration": 0.37421874999999716
        },
        {
          "name": "A4",
          "midi": 69,
          "time": 52.125,
          "velocity": 0.6299212598425197,
          "duration": 0.37421874999999716
        },
        {
          "name": "E4",
          "midi": 64,
          "time": 52.5,
          "velocity": 0.6299212598425197,
          "duration": 0.37421874999999716
        },
        {
          "name": "F4",
          "midi": 65,
          "time": 52.5,
          "velocity": 0.6299212598425197,
          "duration": 0.37421874999999716
        },
        {
          "name": "A4",
          "midi": 69,
          "time": 53.625,
          "velocity": 0.6299212598425197,
          "duration": 0.37421874999999716
        },
        {
          "name": "A4",
          "midi": 69,
          "time": 54,
          "velocity": 0.6299212598425197,
          "duration": 0.18671874999999716
        },
        {
          "name": "A4",
          "midi": 69,
          "time": 54.1875,
          "velocity": 0.6299212598425197,
          "duration": 0.18671874999999716
        },
        {
          "name": "C4",
          "midi": 60,
          "time": 54.375,
          "velocity": 0.6299212598425197,
          "duration": 0.37421874999999716
        },
        {
          "name": "A4",
          "midi": 69,
          "time": 54.75,
          "velocity": 0.6299212598425197,
          "duration": 0.18671874999999716
        },
        {
          "name": "A4",
          "midi": 69,
          "time": 54.9375,
          "velocity": 0.6299212598425197,
          "duration": 0.18671874999999716
        },
        {
          "name": "C4",
          "midi": 60,
          "time": 55.125,
          "velocity": 0.6299212598425197,
          "duration": 0.37421874999999716
        },
        {
          "name": "F4",
          "midi": 65,
          "time": 55.5,
          "velocity": 0.6299212598425197,
          "duration": 0.18671874999999716
        },
        {
          "name": "C4",
          "midi": 60,
          "time": 55.6875,
          "velocity": 0.6299212598425197,
          "duration": 0.18671874999999716
        },
        {
          "name": "C4",
          "midi": 60,
          "time": 56.25,
          "velocity": 0.6299212598425197,
          "duration": 0.37421874999999716
        },
        {
          "name": "A4",
          "midi": 69,
          "time": 56.25,
          "velocity": 0.6299212598425197,
          "duration": 0.37421874999999716
        },
        {
          "name": "C4",
          "midi": 60,
          "time": 56.625,
          "velocity": 0.6299212598425197,
          "duration": 1.4992187499999972
        },
        {
          "name": "F4",
          "midi": 65,
          "time": 56.625,
          "velocity": 0.6299212598425197,
          "duration": 1.4992187499999972
        },
        {
          "name": "F4",
          "midi": 65,
          "time": 58.125,
          "velocity": 0.6299212598425197,
          "duration": 0.18671874999999716
        },
        {
          "name": "F4",
          "midi": 65,
          "time": 58.3125,
          "velocity": 0.6299212598425197,
          "duration": 0.37421874999999716
        },
        {
          "name": "A4",
          "midi": 69,
          "time": 58.6875,
          "velocity": 0.6299212598425197,
          "duration": 0.18671874999999716
        },
        {
          "name": "A4",
          "midi": 69,
          "time": 58.875,
          "velocity": 0.6299212598425197,
          "duration": 0.18671874999999716
        },
        {
          "name": "A4",
          "midi": 69,
          "time": 59.0625,
          "velocity": 0.6299212598425197,
          "duration": 0.18671874999999716
        },
        {
          "name": "E4",
          "midi": 64,
          "time": 59.25,
          "velocity": 0.6299212598425197,
          "duration": 0.18671874999999716
        },
        {
          "name": "A4",
          "midi": 69,
          "time": 59.625,
          "velocity": 0.6299212598425197,
          "duration": 0.37421874999999716
        },
        {
          "name": "F4",
          "midi": 65,
          "time": 60,
          "velocity": 0.6299212598425197,
          "duration": 0.18671874999999716
        },
        {
          "name": "F4",
          "midi": 65,
          "time": 60.1875,
          "velocity": 0.6299212598425197,
          "duration": 0.18671874999999716
        },
        {
          "name": "F4",
          "midi": 65,
          "time": 60.375,
          "velocity": 0.6299212598425197,
          "duration": 0.18671874999999716
        },
        {
          "name": "F4",
          "midi": 65,
          "time": 60.5625,
          "velocity": 0.6299212598425197,
          "duration": 0.18671874999999716
        },
        {
          "name": "C4",
          "midi": 60,
          "time": 60.75,
          "velocity": 0.6299212598425197,
          "duration": 0.37421874999999716
        },
        {
          "name": "E4",
          "midi": 64,
          "time": 61.125,
          "velocity": 0.6299212598425197,
          "duration": 0.37421874999999716
        },
        {
          "name": "A4",
          "midi": 69,
          "time": 61.125,
          "velocity": 0.6299212598425197,
          "duration": 0.37421874999999716
        },
        {
          "name": "A4",
          "midi": 69,
          "time": 61.875,
          "velocity": 0.6299212598425197,
          "duration": 0.37421874999999716
        },
        {
          "name": "A4",
          "midi": 69,
          "time": 62.25,
          "velocity": 0.6299212598425197,
          "duration": 0.37421874999999716
        },
        {
          "name": "A4",
          "midi": 69,
          "time": 62.625,
          "velocity": 0.6299212598425197,
          "duration": 0.37421874999999716
        },
        {
          "name": "E4",
          "midi": 64,
          "time": 63,
          "velocity": 0.6299212598425197,
          "duration": 0.37421874999999716
        },
        {
          "name": "E4",
          "midi": 64,
          "time": 63.375,
          "velocity": 0.6299212598425197,
          "duration": 0.37421874999999716
        },
        {
          "name": "E4",
          "midi": 64,
          "time": 63.75,
          "velocity": 0.6299212598425197,
          "duration": 0.37421874999999716
        },
        {
          "name": "C4",
          "midi": 60,
          "time": 64.125,
          "velocity": 0.6299212598425197,
          "duration": 0.37421874999999716
        },
        {
          "name": "F4",
          "midi": 65,
          "time": 64.125,
          "velocity": 0.6299212598425197,
          "duration": 0.37421874999999716
        },
        {
          "name": "E4",
          "midi": 64,
          "time": 64.5,
          "velocity": 0.6299212598425197,
          "duration": 0.5617187499999972
        },
        {
          "name": "A4",
          "midi": 69,
          "time": 64.5,
          "velocity": 0.6299212598425197,
          "duration": 0.5617187499999972
        },
        {
          "name": "C4",
          "midi": 60,
          "time": 65.0625,
          "velocity": 0.6299212598425197,
          "duration": 0.5617187499999972
        },
        {
          "name": "A4",
          "midi": 69,
          "time": 65.0625,
          "velocity": 0.6299212598425197,
          "duration": 0.5617187499999972
        },
        {
          "name": "F4",
          "midi": 65,
          "time": 65.625,
          "velocity": 0.6299212598425197,
          "duration": 0.37421874999999716
        },
        {
          "name": "C4",
          "midi": 60,
          "time": 66,
          "velocity": 0.6299212598425197,
          "duration": 0.5617187499999972
        },
        {
          "name": "F4",
          "midi": 65,
          "time": 66,
          "velocity": 0.6299212598425197,
          "duration": 0.5617187499999972
        },
        {
          "name": "E4",
          "midi": 64,
          "time": 66.5625,
          "velocity": 0.6299212598425197,
          "duration": 0.5617187499999972
        },
        {
          "name": "F4",
          "midi": 65,
          "time": 66.5625,
          "velocity": 0.6299212598425197,
          "duration": 0.5617187499999972
        },
        {
          "name": "C4",
          "midi": 60,
          "time": 67.125,
          "velocity": 0.6299212598425197,
          "duration": 0.37421874999999716
        },
        {
          "name": "A4",
          "midi": 69,
          "time": 67.125,
          "velocity": 0.6299212598425197,
          "duration": 0.37421874999999716
        },
        {
          "name": "C4",
          "midi": 60,
          "time": 67.5,
          "velocity": 0.6299212598425197,
          "duration": 0.5617187499999972
        },
        {
          "name": "F4",
          "midi": 65,
          "time": 67.5,
          "velocity": 0.6299212598425197,
          "duration": 0.5617187499999972
        },
        {
          "name": "E4",
          "midi": 64,
          "time": 68.0625,
          "velocity": 0.6299212598425197,
          "duration": 0.5617187499999972
        },
        {
          "name": "E4",
          "midi": 64,
          "time": 68.625,
          "velocity": 0.6299212598425197,
          "duration": 0.37421874999999716
        },
        {
          "name": "A4",
          "midi": 69,
          "time": 68.625,
          "velocity": 0.6299212598425197,
          "duration": 0.37421874999999716
        },
        {
          "name": "E4",
          "midi": 64,
          "time": 69,
          "velocity": 0.6299212598425197,
          "duration": 0.5617187499999972
        },
        {
          "name": "F4",
          "midi": 65,
          "time": 69,
          "velocity": 0.6299212598425197,
          "duration": 0.5617187499999972
        },
        {
          "name": "C4",
          "midi": 60,
          "time": 69.5625,
          "velocity": 0.6299212598425197,
          "duration": 0.5617187499999972
        },
        {
          "name": "C4",
          "midi": 60,
          "time": 70.125,
          "velocity": 0.6299212598425197,
          "duration": 0.37421874999999716
        },
        {
          "name": "A4",
          "midi": 69,
          "time": 70.125,
          "velocity": 0.6299212598425197,
          "duration": 0.37421874999999716
        },
        {
          "name": "C4",
          "midi": 60,
          "time": 70.5,
          "velocity": 0.6299212598425197,
          "duration": 0.5617187499999972
        },
        {
          "name": "F4",
          "midi": 65,
          "time": 70.5,
          "velocity": 0.6299212598425197,
          "duration": 0.5617187499999972
        },
        {
          "name": "E4",
          "midi": 64,
          "time": 71.0625,
          "velocity": 0.6299212598425197,
          "duration": 0.5617187499999972
        },
        {
          "name": "E4",
          "midi": 64,
          "time": 71.625,
          "velocity": 0.6299212598425197,
          "duration": 0.37421874999999716
        },
        {
          "name": "A4",
          "midi": 69,
          "time": 71.625,
          "velocity": 0.6299212598425197,
          "duration": 0.37421874999999716
        },
        {
          "name": "E4",
          "midi": 64,
          "time": 72,
          "velocity": 0.6299212598425197,
          "duration": 0.5617187499999972
        },
        {
          "name": "F4",
          "midi": 65,
          "time": 72,
          "velocity": 0.6299212598425197,
          "duration": 0.5617187499999972
        },
        {
          "name": "C4",
          "midi": 60,
          "time": 72.5625,
          "velocity": 0.6299212598425197,
          "duration": 0.5617187499999972
        },
        {
          "name": "C4",
          "midi": 60,
          "time": 73.125,
          "velocity": 0.6299212598425197,
          "duration": 0.37421874999999716
        },
        {
          "name": "A4",
          "midi": 69,
          "time": 73.125,
          "velocity": 0.6299212598425197,
          "duration": 0.37421874999999716
        },
        {
          "name": "C4",
          "midi": 60,
          "time": 73.5,
          "velocity": 0.6299212598425197,
          "duration": 0.5617187499999972
        },
        {
          "name": "F4",
          "midi": 65,
          "time": 73.5,
          "velocity": 0.6299212598425197,
          "duration": 0.5617187499999972
        },
        {
          "name": "E4",
          "midi": 64,
          "time": 74.0625,
          "velocity": 0.6299212598425197,
          "duration": 0.5617187499999972
        },
        {
          "name": "C4",
          "midi": 60,
          "time": 74.625,
          "velocity": 0.6299212598425197,
          "duration": 0.37421874999999716
        },
        {
          "name": "E4",
          "midi": 64,
          "time": 75,
          "velocity": 0.6299212598425197,
          "duration": 0.37421874999999716
        },
        {
          "name": "A4",
          "midi": 69,
          "time": 75,
          "velocity": 0.6299212598425197,
          "duration": 0.37421874999999716
        },
        {
          "name": "C4",
          "midi": 60,
          "time": 75.375,
          "velocity": 0.6299212598425197,
          "duration": 0.37421874999999716
        },
        {
          "name": "F4",
          "midi": 65,
          "time": 75.375,
          "velocity": 0.6299212598425197,
          "duration": 0.37421874999999716
        },
        {
          "name": "E4",
          "midi": 64,
          "time": 75.75,
          "velocity": 0.6299212598425197,
          "duration": 0.37421874999999716
        },
        {
          "name": "A4",
          "midi": 69,
          "time": 75.75,
          "velocity": 0.6299212598425197,
          "duration": 0.37421874999999716
        },
        {
          "name": "C4",
          "midi": 60,
          "time": 76.125,
          "velocity": 0.6299212598425197,
          "duration": 0.37421874999999716
        },
        {
          "name": "F4",
          "midi": 65,
          "time": 76.125,
          "velocity": 0.6299212598425197,
          "duration": 0.37421874999999716
        },
        {
          "name": "C4",
          "midi": 60,
          "time": 76.5,
          "velocity": 0.6299212598425197,
          "duration": 0.37421874999999716
        },
        {
          "name": "E4",
          "midi": 64,
          "time": 76.875,
          "velocity": 0.6299212598425197,
          "duration": 0.18671874999999716
        },
        {
          "name": "F4",
          "midi": 65,
          "time": 77.0625,
          "velocity": 0.6299212598425197,
          "duration": 0.18671874999999716
        },
        {
          "name": "A4",
          "midi": 69,
          "time": 77.25,
          "velocity": 0.6299212598425197,
          "duration": 0.37421874999999716
        },
        {
          "name": "F4",
          "midi": 65,
          "time": 77.625,
          "velocity": 0.6299212598425197,
          "duration": 0.37421874999999716
        },
        {
          "name": "C4",
          "midi": 60,
          "time": 78,
          "velocity": 0.6299212598425197,
          "duration": 0.37421874999999716
        },
        {
          "name": "A4",
          "midi": 69,
          "time": 78.375,
          "velocity": 0.6299212598425197,
          "duration": 0.37421874999999716
        },
        {
          "name": "E4",
          "midi": 64,
          "time": 78.75,
          "velocity": 0.6299212598425197,
          "duration": 0.37421874999999716
        },
        {
          "name": "F4",
          "midi": 65,
          "time": 79.125,
          "velocity": 0.6299212598425197,
          "duration": 0.37421874999999716
        },
        {
          "name": "C4",
          "midi": 60,
          "time": 79.5,
          "velocity": 0.6299212598425197,
          "duration": 2.999218749999997
        },
        {
          "name": "A4",
          "midi": 69,
          "time": 79.5,
          "velocity": 0.6299212598425197,
          "duration": 2.999218749999997
        },
        {
          "name": "C4",
          "midi": 60,
          "time": 82.5,
          "velocity": 0.6299212598425197,
          "duration": 0.37421874999999716
        },
        {
          "name": "E4",
          "midi": 64,
          "time": 82.875,
          "velocity": 0.6299212598425197,
          "duration": 0.18671874999999716
        },
        {
          "name": "F4",
          "midi": 65,
          "time": 83.0625,
          "velocity": 0.6299212598425197,
          "duration": 0.18671874999999716
        },
        {
          "name": "A4",
          "midi": 69,
          "time": 83.25,
          "velocity": 0.6299212598425197,
          "duration": 0.37421874999999716
        },
        {
          "name": "F4",
          "midi": 65,
          "time": 83.625,
          "velocity": 0.6299212598425197,
          "duration": 0.37421874999999716
        },
        {
          "name": "E4",
          "midi": 64,
          "time": 84,
          "velocity": 0.6299212598425197,
          "duration": 0.18671874999999716
        },
        {
          "name": "C4",
          "midi": 60,
          "time": 84.1875,
          "velocity": 0.6299212598425197,
          "duration": 0.18671874999999716
        },
        {
          "name": "E4",
          "midi": 64,
          "time": 85.125,
          "velocity": 0.6299212598425197,
          "duration": 0.37421874999999716
        },
        {
          "name": "F4",
          "midi": 65,
          "time": 85.125,
          "velocity": 0.6299212598425197,
          "duration": 0.37421874999999716
        },
        {
          "name": "C4",
          "midi": 60,
          "time": 85.875,
          "velocity": 0.6299212598425197,
          "duration": 0.37421874999999716
        },
        {
          "name": "E4",
          "midi": 64,
          "time": 86.25,
          "velocity": 0.6299212598425197,
          "duration": 0.37421874999999716
        },
        {
          "name": "F4",
          "midi": 65,
          "time": 86.625,
          "velocity": 0.6299212598425197,
          "duration": 0.18671874999999716
        },
        {
          "name": "E4",
          "midi": 64,
          "time": 86.8125,
          "velocity": 0.6299212598425197,
          "duration": 0.18671874999999716
        },
        {
          "name": "C4",
          "midi": 60,
          "time": 87,
          "velocity": 0.6299212598425197,
          "duration": 0.37421874999999716
        },
        {
          "name": "F4",
          "midi": 65,
          "time": 87,
          "velocity": 0.6299212598425197,
          "duration": 0.37421874999999716
        },
        {
          "name": "C4",
          "midi": 60,
          "time": 87.375,
          "velocity": 0.6299212598425197,
          "duration": 0.37421874999999716
        },
        {
          "name": "A4",
          "midi": 69,
          "time": 87.375,
          "velocity": 0.6299212598425197,
          "duration": 0.37421874999999716
        },
        {
          "name": "C4",
          "midi": 60,
          "time": 87.75,
          "velocity": 0.6299212598425197,
          "duration": 0.37421874999999716
        },
        {
          "name": "F4",
          "midi": 65,
          "time": 87.75,
          "velocity": 0.6299212598425197,
          "duration": 0.37421874999999716
        },
        {
          "name": "C4",
          "midi": 60,
          "time": 88.125,
          "velocity": 0.6299212598425197,
          "duration": 0.37421874999999716
        },
        {
          "name": "A4",
          "midi": 69,
          "time": 88.125,
          "velocity": 0.6299212598425197,
          "duration": 0.37421874999999716
        },
        {
          "name": "C4",
          "midi": 60,
          "time": 88.5,
          "velocity": 0.6299212598425197,
          "duration": 0.37421874999999716
        },
        {
          "name": "F4",
          "midi": 65,
          "time": 88.5,
          "velocity": 0.6299212598425197,
          "duration": 0.37421874999999716
        },
        {
          "name": "E4",
          "midi": 64,
          "time": 89.625,
          "velocity": 0.6299212598425197,
          "duration": 0.37421874999999716
        },
        {
          "name": "E4",
          "midi": 64,
          "time": 90,
          "velocity": 0.6299212598425197,
          "duration": 0.37421874999999716
        },
        {
          "name": "F4",
          "midi": 65,
          "time": 90.375,
          "velocity": 0.6299212598425197,
          "duration": 0.37421874999999716
        },
        {
          "name": "A4",
          "midi": 69,
          "time": 90.75,
          "velocity": 0.6299212598425197,
          "duration": 0.37421874999999716
        },
        {
          "name": "C4",
          "midi": 60,
          "time": 91.125,
          "velocity": 0.6299212598425197,
          "duration": 0.37421874999999716
        },
        {
          "name": "C4",
          "midi": 60,
          "time": 91.875,
          "velocity": 0.6299212598425197,
          "duration": 0.37421874999999716
        },
        {
          "name": "E4",
          "midi": 64,
          "time": 92.25,
          "velocity": 0.6299212598425197,
          "duration": 0.37421874999999716
        },
        {
          "name": "F4",
          "midi": 65,
          "time": 92.625,
          "velocity": 0.6299212598425197,
          "duration": 0.37421874999999716
        },
        {
          "name": "C4",
          "midi": 60,
          "time": 93,
          "velocity": 0.6299212598425197,
          "duration": 2.624218749999997
        },
        {
          "name": "A4",
          "midi": 69,
          "time": 93,
          "velocity": 0.6299212598425197,
          "duration": 2.624218749999997
        },
        {
          "name": "A4",
          "midi": 69,
          "time": 95.625,
          "velocity": 0.6299212598425197,
          "duration": 0.37421874999999716
        },
        {
          "name": "E4",
          "midi": 64,
          "time": 96,
          "velocity": 0.6299212598425197,
          "duration": 0.37421874999999716
        },
        {
          "name": "F4",
          "midi": 65,
          "time": 96.375,
          "velocity": 0.6299212598425197,
          "duration": 0.37421874999999716
        },
        {
          "name": "E4",
          "midi": 64,
          "time": 96.75,
          "velocity": 0.6299212598425197,
          "duration": 0.37421874999999716
        },
        {
          "name": "A4",
          "midi": 69,
          "time": 97.125,
          "velocity": 0.6299212598425197,
          "duration": 0.37421874999999716
        },
        {
          "name": "E4",
          "midi": 64,
          "time": 97.5,
          "velocity": 0.6299212598425197,
          "duration": 0.37421874999999716
        },
        {
          "name": "A4",
          "midi": 69,
          "time": 97.5,
          "velocity": 0.6299212598425197,
          "duration": 0.37421874999999716
        },
        {
          "name": "C4",
          "midi": 60,
          "time": 97.875,
          "velocity": 0.6299212598425197,
          "duration": 0.37421874999999716
        },
        {
          "name": "A4",
          "midi": 69,
          "time": 97.875,
          "velocity": 0.6299212598425197,
          "duration": 0.37421874999999716
        },
        {
          "name": "E4",
          "midi": 64,
          "time": 98.25,
          "velocity": 0.6299212598425197,
          "duration": 0.37421874999999716
        },
        {
          "name": "A4",
          "midi": 69,
          "time": 98.25,
          "velocity": 0.6299212598425197,
          "duration": 0.37421874999999716
        },
        {
          "name": "C4",
          "midi": 60,
          "time": 98.625,
          "velocity": 0.6299212598425197,
          "duration": 0.37421874999999716
        },
        {
          "name": "A4",
          "midi": 69,
          "time": 98.625,
          "velocity": 0.6299212598425197,
          "duration": 0.37421874999999716
        },
        {
          "name": "E4",
          "midi": 64,
          "time": 99,
          "velocity": 0.6299212598425197,
          "duration": 0.37421874999999716
        },
        {
          "name": "F4",
          "midi": 65,
          "time": 99,
          "velocity": 0.6299212598425197,
          "duration": 0.37421874999999716
        },
        {
          "name": "C4",
          "midi": 60,
          "time": 99.375,
          "velocity": 0.6299212598425197,
          "duration": 0.37421874999999716
        },
        {
          "name": "F4",
          "midi": 65,
          "time": 99.375,
          "velocity": 0.6299212598425197,
          "duration": 0.37421874999999716
        },
        {
          "name": "E4",
          "midi": 64,
          "time": 99.75,
          "velocity": 0.6299212598425197,
          "duration": 0.37421874999999716
        },
        {
          "name": "F4",
          "midi": 65,
          "time": 99.75,
          "velocity": 0.6299212598425197,
          "duration": 0.37421874999999716
        },
        {
          "name": "C4",
          "midi": 60,
          "time": 100.125,
          "velocity": 0.6299212598425197,
          "duration": 0.37421874999999716
        },
        {
          "name": "F4",
          "midi": 65,
          "time": 100.125,
          "velocity": 0.6299212598425197,
          "duration": 0.37421874999999716
        },
        {
          "name": "C4",
          "midi": 60,
          "time": 100.5,
          "velocity": 0.6299212598425197,
          "duration": 1.4992187499999972
        },
        {
          "name": "F4",
          "midi": 65,
          "time": 100.5,
          "velocity": 0.6299212598425197,
          "duration": 1.4992187499999972
        },
        {
          "name": "A4",
          "midi": 69,
          "time": 100.5,
          "velocity": 0.6299212598425197,
          "duration": 1.4992187499999972
        },
        {
          "name": "A4",
          "midi": 69,
          "time": 106.5,
          "velocity": 0.6299212598425197,
          "duration": 0.28046874999999716
        },
        {
          "name": "E4",
          "midi": 64,
          "time": 106.78125,
          "velocity": 0.6299212598425197,
          "duration": 0.28046874999999716
        },
        {
          "name": "E4",
          "midi": 64,
          "time": 107.0625,
          "velocity": 0.6299212598425197,
          "duration": 0.18671874999999716
        },
        {
          "name": "A4",
          "midi": 69,
          "time": 107.25,
          "velocity": 0.6299212598425197,
          "duration": 0.28046874999999716
        },
        {
          "name": "E4",
          "midi": 64,
          "time": 107.53125,
          "velocity": 0.6299212598425197,
          "duration": 0.28046874999999716
        },
        {
          "name": "E4",
          "midi": 64,
          "time": 107.8125,
          "velocity": 0.6299212598425197,
          "duration": 0.18671874999999716
        },
        {
          "name": "F4",
          "midi": 65,
          "time": 108,
          "velocity": 0.6299212598425197,
          "duration": 0.28046874999999716
        },
        {
          "name": "C4",
          "midi": 60,
          "time": 108.28125,
          "velocity": 0.6299212598425197,
          "duration": 0.28046874999999716
        },
        {
          "name": "C4",
          "midi": 60,
          "time": 108.5625,
          "velocity": 0.6299212598425197,
          "duration": 0.18671874999999716
        },
        {
          "name": "F4",
          "midi": 65,
          "time": 108.75,
          "velocity": 0.6299212598425197,
          "duration": 0.28046874999999716
        },
        {
          "name": "C4",
          "midi": 60,
          "time": 109.03125,
          "velocity": 0.6299212598425197,
          "duration": 0.28046874999999716
        },
        {
          "name": "C4",
          "midi": 60,
          "time": 109.3125,
          "velocity": 0.6299212598425197,
          "duration": 0.18671874999999716
        },
        {
          "name": "A4",
          "midi": 69,
          "time": 109.5,
          "velocity": 0.6299212598425197,
          "duration": 0.28046874999999716
        },
        {
          "name": "E4",
          "midi": 64,
          "time": 109.78125,
          "velocity": 0.6299212598425197,
          "duration": 0.28046874999999716
        },
        {
          "name": "E4",
          "midi": 64,
          "time": 110.0625,
          "velocity": 0.6299212598425197,
          "duration": 0.18671874999999716
        },
        {
          "name": "A4",
          "midi": 69,
          "time": 110.25,
          "velocity": 0.6299212598425197,
          "duration": 0.28046874999999716
        },
        {
          "name": "E4",
          "midi": 64,
          "time": 110.53125,
          "velocity": 0.6299212598425197,
          "duration": 0.28046874999999716
        },
        {
          "name": "E4",
          "midi": 64,
          "time": 110.8125,
          "velocity": 0.6299212598425197,
          "duration": 0.18671874999999716
        },
        {
          "name": "F4",
          "midi": 65,
          "time": 111,
          "velocity": 0.6299212598425197,
          "duration": 0.28046874999999716
        },
        {
          "name": "C4",
          "midi": 60,
          "time": 111.28125,
          "velocity": 0.6299212598425197,
          "duration": 0.28046874999999716
        },
        {
          "name": "C4",
          "midi": 60,
          "time": 111.5625,
          "velocity": 0.6299212598425197,
          "duration": 0.18671874999999716
        },
        {
          "name": "F4",
          "midi": 65,
          "time": 111.75,
          "velocity": 0.6299212598425197,
          "duration": 0.28046874999999716
        },
        {
          "name": "C4",
          "midi": 60,
          "time": 112.03125,
          "velocity": 0.6299212598425197,
          "duration": 0.28046874999999716
        },
        {
          "name": "C4",
          "midi": 60,
          "time": 112.3125,
          "velocity": 0.6299212598425197,
          "duration": 0.18671874999999716
        },
        {
          "name": "A4",
          "midi": 69,
          "time": 112.5,
          "velocity": 0.6299212598425197,
          "duration": 0.28046874999999716
        },
        {
          "name": "E4",
          "midi": 64,
          "time": 112.78125,
          "velocity": 0.6299212598425197,
          "duration": 0.28046874999999716
        },
        {
          "name": "E4",
          "midi": 64,
          "time": 113.0625,
          "velocity": 0.6299212598425197,
          "duration": 0.18671874999999716
        },
        {
          "name": "A4",
          "midi": 69,
          "time": 113.25,
          "velocity": 0.6299212598425197,
          "duration": 0.28046874999999716
        },
        {
          "name": "E4",
          "midi": 64,
          "time": 113.53125,
          "velocity": 0.6299212598425197,
          "duration": 0.28046874999999716
        },
        {
          "name": "E4",
          "midi": 64,
          "time": 113.8125,
          "velocity": 0.6299212598425197,
          "duration": 0.18671874999999716
        },
        {
          "name": "F4",
          "midi": 65,
          "time": 114,
          "velocity": 0.6299212598425197,
          "duration": 0.28046874999999716
        },
        {
          "name": "C4",
          "midi": 60,
          "time": 114.28125,
          "velocity": 0.6299212598425197,
          "duration": 0.28046874999999716
        },
        {
          "name": "C4",
          "midi": 60,
          "time": 114.5625,
          "velocity": 0.6299212598425197,
          "duration": 0.18671874999999716
        },
        {
          "name": "F4",
          "midi": 65,
          "time": 114.75,
          "velocity": 0.6299212598425197,
          "duration": 0.28046874999999716
        },
        {
          "name": "C4",
          "midi": 60,
          "time": 115.03125,
          "velocity": 0.6299212598425197,
          "duration": 0.28046874999999716
        },
        {
          "name": "C4",
          "midi": 60,
          "time": 115.3125,
          "velocity": 0.6299212598425197,
          "duration": 0.18671874999999716
        },
        {
          "name": "A4",
          "midi": 69,
          "time": 115.5,
          "velocity": 0.6299212598425197,
          "duration": 0.28046874999999716
        },
        {
          "name": "E4",
          "midi": 64,
          "time": 115.78125,
          "velocity": 0.6299212598425197,
          "duration": 0.28046874999999716
        },
        {
          "name": "E4",
          "midi": 64,
          "time": 116.0625,
          "velocity": 0.6299212598425197,
          "duration": 0.18671874999999716
        },
        {
          "name": "A4",
          "midi": 69,
          "time": 116.25,
          "velocity": 0.6299212598425197,
          "duration": 0.28046874999999716
        },
        {
          "name": "E4",
          "midi": 64,
          "time": 116.53125,
          "velocity": 0.6299212598425197,
          "duration": 0.28046874999999716
        },
        {
          "name": "E4",
          "midi": 64,
          "time": 116.8125,
          "velocity": 0.6299212598425197,
          "duration": 0.18671874999999716
        },
        {
          "name": "F4",
          "midi": 65,
          "time": 117,
          "velocity": 0.6299212598425197,
          "duration": 0.28046874999999716
        },
        {
          "name": "C4",
          "midi": 60,
          "time": 117.28125,
          "velocity": 0.6299212598425197,
          "duration": 0.28046874999999716
        },
        {
          "name": "C4",
          "midi": 60,
          "time": 117.5625,
          "velocity": 0.6299212598425197,
          "duration": 0.18671874999999716
        },
        {
          "name": "F4",
          "midi": 65,
          "time": 117.75,
          "velocity": 0.6299212598425197,
          "duration": 0.28046874999999716
        },
        {
          "name": "C4",
          "midi": 60,
          "time": 118.03125,
          "velocity": 0.6299212598425197,
          "duration": 0.28046874999999716
        },
        {
          "name": "C4",
          "midi": 60,
          "time": 118.3125,
          "velocity": 0.6299212598425197,
          "duration": 0.18671874999999716
        },
        {
          "name": "C4",
          "midi": 60,
          "time": 118.5,
          "velocity": 0.6299212598425197,
          "duration": 0.28046874999999716
        },
        {
          "name": "E4",
          "midi": 64,
          "time": 118.78125,
          "velocity": 0.6299212598425197,
          "duration": 0.28046874999999716
        },
        {
          "name": "F4",
          "midi": 65,
          "time": 119.0625,
          "velocity": 0.6299212598425197,
          "duration": 0.18671874999999716
        },
        {
          "name": "E4",
          "midi": 64,
          "time": 119.25,
          "velocity": 0.6299212598425197,
          "duration": 0.28046874999999716
        },
        {
          "name": "F4",
          "midi": 65,
          "time": 119.53125,
          "velocity": 0.6299212598425197,
          "duration": 0.28046874999999716
        },
        {
          "name": "A4",
          "midi": 69,
          "time": 119.8125,
          "velocity": 0.6299212598425197,
          "duration": 0.18671874999999716
        },
        {
          "name": "A4",
          "midi": 69,
          "time": 120,
          "velocity": 0.6299212598425197,
          "duration": 0.28046874999999716
        },
        {
          "name": "F4",
          "midi": 65,
          "time": 120.28125,
          "velocity": 0.6299212598425197,
          "duration": 0.28046874999999716
        },
        {
          "name": "E4",
          "midi": 64,
          "time": 120.5625,
          "velocity": 0.6299212598425197,
          "duration": 0.18671874999999716
        },
        {
          "name": "F4",
          "midi": 65,
          "time": 120.75,
          "velocity": 0.6299212598425197,
          "duration": 0.28046874999999716
        },
        {
          "name": "E4",
          "midi": 64,
          "time": 121.03125,
          "velocity": 0.6299212598425197,
          "duration": 0.28046874999999716
        },
        {
          "name": "C4",
          "midi": 60,
          "time": 121.3125,
          "velocity": 0.6299212598425197,
          "duration": 0.18671874999999716
        },
        {
          "name": "C4",
          "midi": 60,
          "time": 121.5,
          "velocity": 0.6299212598425197,
          "duration": 0.28046874999999716
        },
        {
          "name": "E4",
          "midi": 64,
          "time": 121.78125,
          "velocity": 0.6299212598425197,
          "duration": 0.28046874999999716
        },
        {
          "name": "F4",
          "midi": 65,
          "time": 122.0625,
          "velocity": 0.6299212598425197,
          "duration": 0.18671874999999716
        },
        {
          "name": "E4",
          "midi": 64,
          "time": 122.25,
          "velocity": 0.6299212598425197,
          "duration": 0.28046874999999716
        },
        {
          "name": "F4",
          "midi": 65,
          "time": 122.53125,
          "velocity": 0.6299212598425197,
          "duration": 0.28046874999999716
        },
        {
          "name": "A4",
          "midi": 69,
          "time": 122.8125,
          "velocity": 0.6299212598425197,
          "duration": 0.18671874999999716
        },
        {
          "name": "A4",
          "midi": 69,
          "time": 123,
          "velocity": 0.6299212598425197,
          "duration": 0.28046874999999716
        },
        {
          "name": "F4",
          "midi": 65,
          "time": 123.28125,
          "velocity": 0.6299212598425197,
          "duration": 0.28046874999999716
        },
        {
          "name": "E4",
          "midi": 64,
          "time": 123.5625,
          "velocity": 0.6299212598425197,
          "duration": 0.18671874999999716
        },
        {
          "name": "F4",
          "midi": 65,
          "time": 123.75,
          "velocity": 0.6299212598425197,
          "duration": 0.28046874999999716
        },
        {
          "name": "E4",
          "midi": 64,
          "time": 124.03125,
          "velocity": 0.6299212598425197,
          "duration": 0.28046874999999716
        },
        {
          "name": "C4",
          "midi": 60,
          "time": 124.3125,
          "velocity": 0.6299212598425197,
          "duration": 0.18671874999999716
        },
        {
          "name": "E4",
          "midi": 64,
          "time": 124.5,
          "velocity": 0.6299212598425197,
          "duration": 0.37421874999999716
        },
        {
          "name": "F4",
          "midi": 65,
          "time": 124.875,
          "velocity": 0.6299212598425197,
          "duration": 0.37421874999999716
        },
        {
          "name": "A4",
          "midi": 69,
          "time": 125.25,
          "velocity": 0.6299212598425197,
          "duration": 0.37421874999999716
        },
        {
          "name": "F4",
          "midi": 65,
          "time": 125.625,
          "velocity": 0.6299212598425197,
          "duration": 0.37421874999999716
        },
        {
          "name": "A4",
          "midi": 69,
          "time": 126,
          "velocity": 0.6299212598425197,
          "duration": 0.28046874999999716
        },
        {
          "name": "E4",
          "midi": 64,
          "time": 126.28125,
          "velocity": 0.6299212598425197,
          "duration": 0.28046874999999716
        },
        {
          "name": "E4",
          "midi": 64,
          "time": 126.5625,
          "velocity": 0.6299212598425197,
          "duration": 0.18671874999999716
        },
        {
          "name": "A4",
          "midi": 69,
          "time": 126.75,
          "velocity": 0.6299212598425197,
          "duration": 0.28046874999999716
        },
        {
          "name": "E4",
          "midi": 64,
          "time": 127.03125,
          "velocity": 0.6299212598425197,
          "duration": 0.28046874999999716
        },
        {
          "name": "E4",
          "midi": 64,
          "time": 127.3125,
          "velocity": 0.6299212598425197,
          "duration": 0.18671874999999716
        },
        {
          "name": "F4",
          "midi": 65,
          "time": 127.5,
          "velocity": 0.6299212598425197,
          "duration": 0.28046874999999716
        },
        {
          "name": "C4",
          "midi": 60,
          "time": 127.78125,
          "velocity": 0.6299212598425197,
          "duration": 0.28046875000001137
        },
        {
          "name": "C4",
          "midi": 60,
          "time": 128.0625,
          "velocity": 0.6299212598425197,
          "duration": 0.18671875000001137
        },
        {
          "name": "F4",
          "midi": 65,
          "time": 128.25,
          "velocity": 0.6299212598425197,
          "duration": 0.28046875000001137
        },
        {
          "name": "C4",
          "midi": 60,
          "time": 128.53125,
          "velocity": 0.6299212598425197,
          "duration": 0.28046875000001137
        },
        {
          "name": "C4",
          "midi": 60,
          "time": 128.8125,
          "velocity": 0.6299212598425197,
          "duration": 0.18671875000001137
        },
        {
          "name": "C4",
          "midi": 60,
          "time": 129,
          "velocity": 0.6299212598425197,
          "duration": 0.28046875000001137
        },
        {
          "name": "E4",
          "midi": 64,
          "time": 129.28125,
          "velocity": 0.6299212598425197,
          "duration": 0.28046875000001137
        },
        {
          "name": "F4",
          "midi": 65,
          "time": 129.5625,
          "velocity": 0.6299212598425197,
          "duration": 0.18671875000001137
        },
        {
          "name": "A4",
          "midi": 69,
          "time": 129.75,
          "velocity": 0.6299212598425197,
          "duration": 0.7492187500000114
        },
        {
          "name": "C4",
          "midi": 60,
          "time": 130.5,
          "velocity": 0.6299212598425197,
          "duration": 0.37421875000001137
        },
        {
          "name": "E4",
          "midi": 64,
          "time": 130.875,
          "velocity": 0.6299212598425197,
          "duration": 0.37421875000001137
        },
        {
          "name": "C4",
          "midi": 60,
          "time": 131.25,
          "velocity": 0.6299212598425197,
          "duration": 0.37421875000001137
        },
        {
          "name": "E4",
          "midi": 64,
          "time": 131.625,
          "velocity": 0.6299212598425197,
          "duration": 0.18671875000001137
        },
        {
          "name": "E4",
          "midi": 64,
          "time": 131.8125,
          "velocity": 0.6299212598425197,
          "duration": 0.18671875000001137
        },
        {
          "name": "F4",
          "midi": 65,
          "time": 132,
          "velocity": 0.6299212598425197,
          "duration": 0.37421875000001137
        },
        {
          "name": "A4",
          "midi": 69,
          "time": 132.375,
          "velocity": 0.6299212598425197,
          "duration": 0.37421875000001137
        },
        {
          "name": "F4",
          "midi": 65,
          "time": 132.75,
          "velocity": 0.6299212598425197,
          "duration": 0.37421875000001137
        },
        {
          "name": "A4",
          "midi": 69,
          "time": 133.125,
          "velocity": 0.6299212598425197,
          "duration": 0.18671875000001137
        },
        {
          "name": "A4",
          "midi": 69,
          "time": 133.3125,
          "velocity": 0.6299212598425197,
          "duration": 0.18671875000001137
        },
        {
          "name": "E4",
          "midi": 64,
          "time": 133.5,
          "velocity": 0.6299212598425197,
          "duration": 0.37421875000001137
        },
        {
          "name": "C4",
          "midi": 60,
          "time": 133.875,
          "velocity": 0.6299212598425197,
          "duration": 0.37421875000001137
        },
        {
          "name": "E4",
          "midi": 64,
          "time": 134.25,
          "velocity": 0.6299212598425197,
          "duration": 0.37421875000001137
        },
        {
          "name": "C4",
          "midi": 60,
          "time": 134.625,
          "velocity": 0.6299212598425197,
          "duration": 0.18671875000001137
        },
        {
          "name": "C4",
          "midi": 60,
          "time": 134.8125,
          "velocity": 0.6299212598425197,
          "duration": 0.18671875000001137
        },
        {
          "name": "A4",
          "midi": 69,
          "time": 135,
          "velocity": 0.6299212598425197,
          "duration": 0.37421875000001137
        },
        {
          "name": "F4",
          "midi": 65,
          "time": 135.375,
          "velocity": 0.6299212598425197,
          "duration": 0.37421875000001137
        },
        {
          "name": "A4",
          "midi": 69,
          "time": 135.75,
          "velocity": 0.6299212598425197,
          "duration": 0.37421875000001137
        },
        {
          "name": "F4",
          "midi": 65,
          "time": 136.125,
          "velocity": 0.6299212598425197,
          "duration": 0.18671875000001137
        },
        {
          "name": "F4",
          "midi": 65,
          "time": 136.3125,
          "velocity": 0.6299212598425197,
          "duration": 0.18671875000001137
        },
        {
          "name": "C4",
          "midi": 60,
          "time": 136.5,
          "velocity": 0.6299212598425197,
          "duration": 0.37421875000001137
        },
        {
          "name": "A4",
          "midi": 69,
          "time": 136.5,
          "velocity": 0.6299212598425197,
          "duration": 0.37421875000001137
        },
        {
          "name": "F4",
          "midi": 65,
          "time": 136.875,
          "velocity": 0.6299212598425197,
          "duration": 0.37421875000001137
        },
        {
          "name": "E4",
          "midi": 64,
          "time": 137.25,
          "velocity": 0.6299212598425197,
          "duration": 0.37421875000001137
        },
        {
          "name": "C4",
          "midi": 60,
          "time": 137.625,
          "velocity": 0.6299212598425197,
          "duration": 0.37421875000001137
        },
        {
          "name": "C4",
          "midi": 60,
          "time": 138,
          "velocity": 0.6299212598425197,
          "duration": 0.37421875000001137
        },
        {
          "name": "A4",
          "midi": 69,
          "time": 138,
          "velocity": 0.6299212598425197,
          "duration": 0.37421875000001137
        },
        {
          "name": "F4",
          "midi": 65,
          "time": 138.375,
          "velocity": 0.6299212598425197,
          "duration": 0.37421875000001137
        },
        {
          "name": "E4",
          "midi": 64,
          "time": 138.75,
          "velocity": 0.6299212598425197,
          "duration": 0.37421875000001137
        },
        {
          "name": "C4",
          "midi": 60,
          "time": 139.125,
          "velocity": 0.6299212598425197,
          "duration": 0.37421875000001137
        },
        {
          "name": "A4",
          "midi": 69,
          "time": 139.5,
          "velocity": 0.6299212598425197,
          "duration": 0.18671875000001137
        },
        {
          "name": "E4",
          "midi": 64,
          "time": 139.6875,
          "velocity": 0.6299212598425197,
          "duration": 0.18671875000001137
        },
        {
          "name": "A4",
          "midi": 69,
          "time": 139.875,
          "velocity": 0.6299212598425197,
          "duration": 0.18671875000001137
        },
        {
          "name": "E4",
          "midi": 64,
          "time": 140.0625,
          "velocity": 0.6299212598425197,
          "duration": 0.18671875000001137
        },
        {
          "name": "A4",
          "midi": 69,
          "time": 140.25,
          "velocity": 0.6299212598425197,
          "duration": 0.18671875000001137
        },
        {
          "name": "E4",
          "midi": 64,
          "time": 140.4375,
          "velocity": 0.6299212598425197,
          "duration": 0.18671875000001137
        },
        {
          "name": "E4",
          "midi": 64,
          "time": 140.625,
          "velocity": 0.6299212598425197,
          "duration": 0.37421875000001137
        },
        {
          "name": "A4",
          "midi": 69,
          "time": 140.625,
          "velocity": 0.6299212598425197,
          "duration": 0.37421875000001137
        },
        {
          "name": "A4",
          "midi": 69,
          "time": 141,
          "velocity": 0.6299212598425197,
          "duration": 0.37421875000001137
        },
        {
          "name": "F4",
          "midi": 65,
          "time": 141.375,
          "velocity": 0.6299212598425197,
          "duration": 0.37421875000001137
        },
        {
          "name": "E4",
          "midi": 64,
          "time": 141.75,
          "velocity": 0.6299212598425197,
          "duration": 0.37421875000001137
        },
        {
          "name": "C4",
          "midi": 60,
          "time": 142.125,
          "velocity": 0.6299212598425197,
          "duration": 0.37421875000001137
        },
        {
          "name": "A4",
          "midi": 69,
          "time": 142.5,
          "velocity": 0.6299212598425197,
          "duration": 0.37421875000001137
        },
        {
          "name": "E4",
          "midi": 64,
          "time": 142.875,
          "velocity": 0.6299212598425197,
          "duration": 0.37421875000001137
        },
        {
          "name": "A4",
          "midi": 69,
          "time": 143.25,
          "velocity": 0.6299212598425197,
          "duration": 0.37421875000001137
        },
        {
          "name": "E4",
          "midi": 64,
          "time": 143.625,
          "velocity": 0.6299212598425197,
          "duration": 0.37421875000001137
        },
        {
          "name": "A4",
          "midi": 69,
          "time": 144,
          "velocity": 0.6299212598425197,
          "duration": 0.37421875000001137
        },
        {
          "name": "E4",
          "midi": 64,
          "time": 144.375,
          "velocity": 0.6299212598425197,
          "duration": 0.37421875000001137
        },
        {
          "name": "A4",
          "midi": 69,
          "time": 144.75,
          "velocity": 0.6299212598425197,
          "duration": 0.37421875000001137
        },
        {
          "name": "E4",
          "midi": 64,
          "time": 145.125,
          "velocity": 0.6299212598425197,
          "duration": 0.37421875000001137
        },
        {
          "name": "F4",
          "midi": 65,
          "time": 145.5,
          "velocity": 0.6299212598425197,
          "duration": 0.37421875000001137
        },
        {
          "name": "C4",
          "midi": 60,
          "time": 145.875,
          "velocity": 0.6299212598425197,
          "duration": 0.37421875000001137
        },
        {
          "name": "F4",
          "midi": 65,
          "time": 146.25,
          "velocity": 0.6299212598425197,
          "duration": 0.37421875000001137
        },
        {
          "name": "C4",
          "midi": 60,
          "time": 146.625,
          "velocity": 0.6299212598425197,
          "duration": 0.37421875000001137
        },
        {
          "name": "F4",
          "midi": 65,
          "time": 147,
          "velocity": 0.6299212598425197,
          "duration": 0.37421875000001137
        },
        {
          "name": "C4",
          "midi": 60,
          "time": 147.375,
          "velocity": 0.6299212598425197,
          "duration": 0.37421875000001137
        },
        {
          "name": "F4",
          "midi": 65,
          "time": 147.75,
          "velocity": 0.6299212598425197,
          "duration": 0.37421875000001137
        },
        {
          "name": "C4",
          "midi": 60,
          "time": 148.125,
          "velocity": 0.6299212598425197,
          "duration": 0.37421875000001137
        },
        {
          "name": "A4",
          "midi": 69,
          "time": 148.5,
          "velocity": 0.6299212598425197,
          "duration": 0.37421875000001137
        },
        {
          "name": "E4",
          "midi": 64,
          "time": 148.875,
          "velocity": 0.6299212598425197,
          "duration": 0.37421875000001137
        },
        {
          "name": "A4",
          "midi": 69,
          "time": 149.25,
          "velocity": 0.6299212598425197,
          "duration": 0.37421875000001137
        },
        {
          "name": "E4",
          "midi": 64,
          "time": 149.625,
          "velocity": 0.6299212598425197,
          "duration": 0.37421875000001137
        },
        {
          "name": "A4",
          "midi": 69,
          "time": 150,
          "velocity": 0.6299212598425197,
          "duration": 0.37421875000001137
        },
        {
          "name": "E4",
          "midi": 64,
          "time": 150.375,
          "velocity": 0.6299212598425197,
          "duration": 0.37421875000001137
        },
        {
          "name": "A4",
          "midi": 69,
          "time": 150.75,
          "velocity": 0.6299212598425197,
          "duration": 0.37421875000001137
        },
        {
          "name": "E4",
          "midi": 64,
          "time": 151.125,
          "velocity": 0.6299212598425197,
          "duration": 0.37421875000001137
        },
        {
          "name": "F4",
          "midi": 65,
          "time": 151.5,
          "velocity": 0.6299212598425197,
          "duration": 0.37421875000001137
        },
        {
          "name": "C4",
          "midi": 60,
          "time": 151.875,
          "velocity": 0.6299212598425197,
          "duration": 0.37421875000001137
        },
        {
          "name": "F4",
          "midi": 65,
          "time": 152.25,
          "velocity": 0.6299212598425197,
          "duration": 0.37421875000001137
        },
        {
          "name": "C4",
          "midi": 60,
          "time": 152.625,
          "velocity": 0.6299212598425197,
          "duration": 0.37421875000001137
        },
        {
          "name": "F4",
          "midi": 65,
          "time": 153,
          "velocity": 0.6299212598425197,
          "duration": 0.37421875000001137
        },
        {
          "name": "C4",
          "midi": 60,
          "time": 153.375,
          "velocity": 0.6299212598425197,
          "duration": 0.37421875000001137
        },
        {
          "name": "F4",
          "midi": 65,
          "time": 153.75,
          "velocity": 0.6299212598425197,
          "duration": 0.37421875000001137
        },
        {
          "name": "C4",
          "midi": 60,
          "time": 154.125,
          "velocity": 0.6299212598425197,
          "duration": 0.37421875000001137
        },
        {
          "name": "C4",
          "midi": 60,
          "time": 154.5,
          "velocity": 0.6299212598425197,
          "duration": 2.2492187500000114
        },
        {
          "name": "E4",
          "midi": 64,
          "time": 154.5,
          "velocity": 0.6299212598425197,
          "duration": 2.2492187500000114
        },
        {
          "name": "F4",
          "midi": 65,
          "time": 156.75,
          "velocity": 0.6299212598425197,
          "duration": 0.37421875000001137
        },
        {
          "name": "E4",
          "midi": 64,
          "time": 157.125,
          "velocity": 0.6299212598425197,
          "duration": 0.37421875000001137
        },
        {
          "name": "F4",
          "midi": 65,
          "time": 157.5,
          "velocity": 0.6299212598425197,
          "duration": 0.37421875000001137
        },
        {
          "name": "C4",
          "midi": 60,
          "time": 157.875,
          "velocity": 0.6299212598425197,
          "duration": 0.37421875000001137
        },
        {
          "name": "A4",
          "midi": 69,
          "time": 157.875,
          "velocity": 0.6299212598425197,
          "duration": 0.37421875000001137
        },
        {
          "name": "C4",
          "midi": 60,
          "time": 158.25,
          "velocity": 0.6299212598425197,
          "duration": 0.37421875000001137
        },
        {
          "name": "F4",
          "midi": 65,
          "time": 158.25,
          "velocity": 0.6299212598425197,
          "duration": 0.37421875000001137
        },
        {
          "name": "C4",
          "midi": 60,
          "time": 158.625,
          "velocity": 0.6299212598425197,
          "duration": 1.4992187500000114
        },
        {
          "name": "A4",
          "midi": 69,
          "time": 158.625,
          "velocity": 0.6299212598425197,
          "duration": 1.4992187500000114
        },
        {
          "name": "C4",
          "midi": 60,
          "time": 160.125,
          "velocity": 0.6299212598425197,
          "duration": 0.37421875000001137
        },
        {
          "name": "A4",
          "midi": 69,
          "time": 160.125,
          "velocity": 0.6299212598425197,
          "duration": 0.37421875000001137
        },
        {
          "name": "E4",
          "midi": 64,
          "time": 160.5,
          "velocity": 0.6299212598425197,
          "duration": 0.37421875000001137
        },
        {
          "name": "F4",
          "midi": 65,
          "time": 160.875,
          "velocity": 0.6299212598425197,
          "duration": 0.37421875000001137
        },
        {
          "name": "A4",
          "midi": 69,
          "time": 161.25,
          "velocity": 0.6299212598425197,
          "duration": 0.37421875000001137
        },
        {
          "name": "F4",
          "midi": 65,
          "time": 161.625,
          "velocity": 0.6299212598425197,
          "duration": 0.37421875000001137
        },
        {
          "name": "E4",
          "midi": 64,
          "time": 162,
          "velocity": 0.6299212598425197,
          "duration": 0.37421875000001137
        },
        {
          "name": "A4",
          "midi": 69,
          "time": 162.375,
          "velocity": 0.6299212598425197,
          "duration": 0.37421875000001137
        },
        {
          "name": "C4",
          "midi": 60,
          "time": 162.75,
          "velocity": 0.6299212598425197,
          "duration": 0.37421875000001137
        },
        {
          "name": "F4",
          "midi": 65,
          "time": 163.125,
          "velocity": 0.6299212598425197,
          "duration": 0.37421875000001137
        },
        {
          "name": "C4",
          "midi": 60,
          "time": 163.5,
          "velocity": 0.6299212598425197,
          "duration": 2.2492187500000114
        },
        {
          "name": "A4",
          "midi": 69,
          "time": 163.5,
          "velocity": 0.6299212598425197,
          "duration": 2.2492187500000114
        },
        {
          "name": "E4",
          "midi": 64,
          "time": 165.75,
          "velocity": 0.6299212598425197,
          "duration": 0.18671875000001137
        },
        {
          "name": "C4",
          "midi": 60,
          "time": 165.9375,
          "velocity": 0.6299212598425197,
          "duration": 0.18671875000001137
        },
        {
          "name": "C4",
          "midi": 60,
          "time": 166.125,
          "velocity": 0.6299212598425197,
          "duration": 0.37421875000001137
        },
        {
          "name": "F4",
          "midi": 65,
          "time": 166.125,
          "velocity": 0.6299212598425197,
          "duration": 0.37421875000001137
        },
        {
          "name": "A4",
          "midi": 69,
          "time": 166.875,
          "velocity": 0.6299212598425197,
          "duration": 0.37421875000001137
        },
        {
          "name": "E4",
          "midi": 64,
          "time": 167.25,
          "velocity": 0.6299212598425197,
          "duration": 0.37421875000001137
        },
        {
          "name": "F4",
          "midi": 65,
          "time": 167.625,
          "velocity": 0.6299212598425197,
          "duration": 0.18671875000001137
        },
        {
          "name": "E4",
          "midi": 64,
          "time": 167.8125,
          "velocity": 0.6299212598425197,
          "duration": 0.18671875000001137
        },
        {
          "name": "C4",
          "midi": 60,
          "time": 168,
          "velocity": 0.6299212598425197,
          "duration": 0.37421875000001137
        },
        {
          "name": "A4",
          "midi": 69,
          "time": 168,
          "velocity": 0.6299212598425197,
          "duration": 0.37421875000001137
        },
        {
          "name": "E4",
          "midi": 64,
          "time": 168.375,
          "velocity": 0.6299212598425197,
          "duration": 0.37421875000001137
        },
        {
          "name": "F4",
          "midi": 65,
          "time": 168.75,
          "velocity": 0.6299212598425197,
          "duration": 0.18671875000001137
        },
        {
          "name": "E4",
          "midi": 64,
          "time": 168.9375,
          "velocity": 0.6299212598425197,
          "duration": 0.18671875000001137
        },
        {
          "name": "C4",
          "midi": 60,
          "time": 169.125,
          "velocity": 0.6299212598425197,
          "duration": 0.37421875000001137
        },
        {
          "name": "A4",
          "midi": 69,
          "time": 169.125,
          "velocity": 0.6299212598425197,
          "duration": 0.37421875000001137
        },
        {
          "name": "A4",
          "midi": 69,
          "time": 169.875,
          "velocity": 0.6299212598425197,
          "duration": 0.37421875000001137
        },
        {
          "name": "E4",
          "midi": 64,
          "time": 170.25,
          "velocity": 0.6299212598425197,
          "duration": 0.37421875000001137
        },
        {
          "name": "F4",
          "midi": 65,
          "time": 170.625,
          "velocity": 0.6299212598425197,
          "duration": 0.18671875000001137
        },
        {
          "name": "E4",
          "midi": 64,
          "time": 170.8125,
          "velocity": 0.6299212598425197,
          "duration": 0.18671875000001137
        },
        {
          "name": "C4",
          "midi": 60,
          "time": 171,
          "velocity": 0.6299212598425197,
          "duration": 0.37421875000001137
        },
        {
          "name": "A4",
          "midi": 69,
          "time": 171,
          "velocity": 0.6299212598425197,
          "duration": 0.37421875000001137
        },
        {
          "name": "E4",
          "midi": 64,
          "time": 171.375,
          "velocity": 0.6299212598425197,
          "duration": 0.37421875000001137
        },
        {
          "name": "F4",
          "midi": 65,
          "time": 171.75,
          "velocity": 0.6299212598425197,
          "duration": 0.18671875000001137
        },
        {
          "name": "E4",
          "midi": 64,
          "time": 171.9375,
          "velocity": 0.6299212598425197,
          "duration": 0.18671875000001137
        },
        {
          "name": "C4",
          "midi": 60,
          "time": 172.125,
          "velocity": 0.6299212598425197,
          "duration": 0.37421875000001137
        },
        {
          "name": "A4",
          "midi": 69,
          "time": 172.125,
          "velocity": 0.6299212598425197,
          "duration": 0.37421875000001137
        },
        {
          "name": "C4",
          "midi": 60,
          "time": 172.5,
          "velocity": 0.6299212598425197,
          "duration": 0.37421875000001137
        },
        {
          "name": "A4",
          "midi": 69,
          "time": 172.5,
          "velocity": 0.6299212598425197,
          "duration": 0.37421875000001137
        },
        {
          "name": "C4",
          "midi": 60,
          "time": 172.875,
          "velocity": 0.6299212598425197,
          "duration": 0.37421875000001137
        },
        {
          "name": "F4",
          "midi": 65,
          "time": 172.875,
          "velocity": 0.6299212598425197,
          "duration": 0.37421875000001137
        },
        {
          "name": "C4",
          "midi": 60,
          "time": 173.25,
          "velocity": 0.6299212598425197,
          "duration": 0.37421875000001137
        },
        {
          "name": "A4",
          "midi": 69,
          "time": 173.25,
          "velocity": 0.6299212598425197,
          "duration": 0.37421875000001137
        },
        {
          "name": "C4",
          "midi": 60,
          "time": 173.625,
          "velocity": 0.6299212598425197,
          "duration": 0.37421875000001137
        },
        {
          "name": "F4",
          "midi": 65,
          "time": 173.625,
          "velocity": 0.6299212598425197,
          "duration": 0.37421875000001137
        },
        {
          "name": "E4",
          "midi": 64,
          "time": 174,
          "velocity": 0.6299212598425197,
          "duration": 0.37421875000001137
        },
        {
          "name": "A4",
          "midi": 69,
          "time": 174,
          "velocity": 0.6299212598425197,
          "duration": 0.37421875000001137
        },
        {
          "name": "E4",
          "midi": 64,
          "time": 174.375,
          "velocity": 0.6299212598425197,
          "duration": 0.37421875000001137
        },
        {
          "name": "F4",
          "midi": 65,
          "time": 174.375,
          "velocity": 0.6299212598425197,
          "duration": 0.37421875000001137
        },
        {
          "name": "E4",
          "midi": 64,
          "time": 174.75,
          "velocity": 0.6299212598425197,
          "duration": 0.37421875000001137
        },
        {
          "name": "A4",
          "midi": 69,
          "time": 174.75,
          "velocity": 0.6299212598425197,
          "duration": 0.37421875000001137
        },
        {
          "name": "E4",
          "midi": 64,
          "time": 175.125,
          "velocity": 0.6299212598425197,
          "duration": 0.37421875000001137
        },
        {
          "name": "F4",
          "midi": 65,
          "time": 175.125,
          "velocity": 0.6299212598425197,
          "duration": 0.37421875000001137
        },
        {
          "name": "C4",
          "midi": 60,
          "time": 175.5,
          "velocity": 0.6299212598425197,
          "duration": 0.37421875000001137
        },
        {
          "name": "A4",
          "midi": 69,
          "time": 175.5,
          "velocity": 0.6299212598425197,
          "duration": 0.37421875000001137
        },
        {
          "name": "C4",
          "midi": 60,
          "time": 175.875,
          "velocity": 0.6299212598425197,
          "duration": 0.37421875000001137
        },
        {
          "name": "F4",
          "midi": 65,
          "time": 175.875,
          "velocity": 0.6299212598425197,
          "duration": 0.37421875000001137
        },
        {
          "name": "C4",
          "midi": 60,
          "time": 176.25,
          "velocity": 0.6299212598425197,
          "duration": 0.37421875000001137
        },
        {
          "name": "A4",
          "midi": 69,
          "time": 176.25,
          "velocity": 0.6299212598425197,
          "duration": 0.37421875000001137
        },
        {
          "name": "C4",
          "midi": 60,
          "time": 176.625,
          "velocity": 0.6299212598425197,
          "duration": 0.37421875000001137
        },
        {
          "name": "F4",
          "midi": 65,
          "time": 176.625,
          "velocity": 0.6299212598425197,
          "duration": 0.37421875000001137
        },
        {
          "name": "C4",
          "midi": 60,
          "time": 177,
          "velocity": 0.6299212598425197,
          "duration": 0.37421875000001137
        },
        {
          "name": "F4",
          "midi": 65,
          "time": 177,
          "velocity": 0.6299212598425197,
          "duration": 0.37421875000001137
        },
        {
          "name": "E4",
          "midi": 64,
          "time": 177.375,
          "velocity": 0.6299212598425197,
          "duration": 0.37421875000001137
        },
        {
          "name": "F4",
          "midi": 65,
          "time": 177.375,
          "velocity": 0.6299212598425197,
          "duration": 0.37421875000001137
        },
        {
          "name": "C4",
          "midi": 60,
          "time": 177.75,
          "velocity": 0.6299212598425197,
          "duration": 0.37421875000001137
        },
        {
          "name": "F4",
          "midi": 65,
          "time": 177.75,
          "velocity": 0.6299212598425197,
          "duration": 0.37421875000001137
        },
        {
          "name": "E4",
          "midi": 64,
          "time": 178.125,
          "velocity": 0.6299212598425197,
          "duration": 0.37421875000001137
        },
        {
          "name": "F4",
          "midi": 65,
          "time": 178.125,
          "velocity": 0.6299212598425197,
          "duration": 0.37421875000001137
        },
        {
          "name": "G4",
          "midi": 67,
          "time": 178.125,
          "velocity": 0.6299212598425197,
          "duration": 0.37421875000001137
        },
        {
          "name": "C4",
          "midi": 60,
          "time": 178.5,
          "velocity": 0.6299212598425197,
          "duration": 0.37421875000001137
        },
        {
          "name": "E4",
          "midi": 64,
          "time": 178.875,
          "velocity": 0.6299212598425197,
          "duration": 0.18671875000001137
        },
        {
          "name": "F4",
          "midi": 65,
          "time": 179.0625,
          "velocity": 0.6299212598425197,
          "duration": 0.18671875000001137
        },
        {
          "name": "A4",
          "midi": 69,
          "time": 179.25,
          "velocity": 0.6299212598425197,
          "duration": 0.37421875000001137
        },
        {
          "name": "F4",
          "midi": 65,
          "time": 179.625,
          "velocity": 0.6299212598425197,
          "duration": 0.37421875000001137
        },
        {
          "name": "C4",
          "midi": 60,
          "time": 180,
          "velocity": 0.6299212598425197,
          "duration": 0.37421875000001137
        },
        {
          "name": "A4",
          "midi": 69,
          "time": 180.375,
          "velocity": 0.6299212598425197,
          "duration": 0.37421875000001137
        },
        {
          "name": "E4",
          "midi": 64,
          "time": 180.75,
          "velocity": 0.6299212598425197,
          "duration": 0.37421875000001137
        },
        {
          "name": "F4",
          "midi": 65,
          "time": 181.125,
          "velocity": 0.6299212598425197,
          "duration": 0.37421875000001137
        },
        {
          "name": "C4",
          "midi": 60,
          "time": 181.5,
          "velocity": 0.6299212598425197,
          "duration": 2.9992187500000114
        },
        {
          "name": "A4",
          "midi": 69,
          "time": 181.5,
          "velocity": 0.6299212598425197,
          "duration": 2.9992187500000114
        },
        {
          "name": "C4",
          "midi": 60,
          "time": 184.5,
          "velocity": 0.6299212598425197,
          "duration": 0.37421875000001137
        },
        {
          "name": "E4",
          "midi": 64,
          "time": 184.875,
          "velocity": 0.6299212598425197,
          "duration": 0.18671875000001137
        },
        {
          "name": "F4",
          "midi": 65,
          "time": 185.0625,
          "velocity": 0.6299212598425197,
          "duration": 0.18671875000001137
        },
        {
          "name": "A4",
          "midi": 69,
          "time": 185.25,
          "velocity": 0.6299212598425197,
          "duration": 0.37421875000001137
        },
        {
          "name": "F4",
          "midi": 65,
          "time": 185.625,
          "velocity": 0.6299212598425197,
          "duration": 0.37421875000001137
        },
        {
          "name": "E4",
          "midi": 64,
          "time": 186,
          "velocity": 0.6299212598425197,
          "duration": 0.18671875000001137
        },
        {
          "name": "C4",
          "midi": 60,
          "time": 186.1875,
          "velocity": 0.6299212598425197,
          "duration": 0.18671875000001137
        },
        {
          "name": "E4",
          "midi": 64,
          "time": 187.125,
          "velocity": 0.6299212598425197,
          "duration": 0.37421875000001137
        },
        {
          "name": "F4",
          "midi": 65,
          "time": 187.125,
          "velocity": 0.6299212598425197,
          "duration": 0.37421875000001137
        },
        {
          "name": "C4",
          "midi": 60,
          "time": 187.875,
          "velocity": 0.6299212598425197,
          "duration": 0.37421875000001137
        },
        {
          "name": "E4",
          "midi": 64,
          "time": 188.25,
          "velocity": 0.6299212598425197,
          "duration": 0.37421875000001137
        },
        {
          "name": "F4",
          "midi": 65,
          "time": 188.625,
          "velocity": 0.6299212598425197,
          "duration": 0.18671875000001137
        },
        {
          "name": "E4",
          "midi": 64,
          "time": 188.8125,
          "velocity": 0.6299212598425197,
          "duration": 0.18671875000001137
        },
        {
          "name": "C4",
          "midi": 60,
          "time": 189,
          "velocity": 0.6299212598425197,
          "duration": 0.37421875000001137
        },
        {
          "name": "F4",
          "midi": 65,
          "time": 189,
          "velocity": 0.6299212598425197,
          "duration": 0.37421875000001137
        },
        {
          "name": "C4",
          "midi": 60,
          "time": 189.375,
          "velocity": 0.6299212598425197,
          "duration": 0.37421875000001137
        },
        {
          "name": "A4",
          "midi": 69,
          "time": 189.375,
          "velocity": 0.6299212598425197,
          "duration": 0.37421875000001137
        },
        {
          "name": "C4",
          "midi": 60,
          "time": 189.75,
          "velocity": 0.6299212598425197,
          "duration": 0.37421875000001137
        },
        {
          "name": "F4",
          "midi": 65,
          "time": 189.75,
          "velocity": 0.6299212598425197,
          "duration": 0.37421875000001137
        },
        {
          "name": "C4",
          "midi": 60,
          "time": 190.125,
          "velocity": 0.6299212598425197,
          "duration": 0.37421875000001137
        },
        {
          "name": "A4",
          "midi": 69,
          "time": 190.125,
          "velocity": 0.6299212598425197,
          "duration": 0.37421875000001137
        },
        {
          "name": "C4",
          "midi": 60,
          "time": 190.5,
          "velocity": 0.6299212598425197,
          "duration": 0.37421875000001137
        },
        {
          "name": "F4",
          "midi": 65,
          "time": 190.5,
          "velocity": 0.6299212598425197,
          "duration": 0.37421875000001137
        },
        {
          "name": "E4",
          "midi": 64,
          "time": 191.625,
          "velocity": 0.6299212598425197,
          "duration": 0.37421875000001137
        },
        {
          "name": "E4",
          "midi": 64,
          "time": 192,
          "velocity": 0.6299212598425197,
          "duration": 0.37421875000001137
        },
        {
          "name": "F4",
          "midi": 65,
          "time": 192.375,
          "velocity": 0.6299212598425197,
          "duration": 0.37421875000001137
        },
        {
          "name": "A4",
          "midi": 69,
          "time": 192.75,
          "velocity": 0.6299212598425197,
          "duration": 0.37421875000001137
        },
        {
          "name": "C4",
          "midi": 60,
          "time": 193.125,
          "velocity": 0.6299212598425197,
          "duration": 0.37421875000001137
        },
        {
          "name": "C4",
          "midi": 60,
          "time": 193.875,
          "velocity": 0.6299212598425197,
          "duration": 0.37421875000001137
        },
        {
          "name": "E4",
          "midi": 64,
          "time": 194.25,
          "velocity": 0.6299212598425197,
          "duration": 0.37421875000001137
        },
        {
          "name": "F4",
          "midi": 65,
          "time": 194.625,
          "velocity": 0.6299212598425197,
          "duration": 0.37421875000001137
        },
        {
          "name": "C4",
          "midi": 60,
          "time": 195,
          "velocity": 0.6299212598425197,
          "duration": 2.6242187500000114
        },
        {
          "name": "A4",
          "midi": 69,
          "time": 195,
          "velocity": 0.6299212598425197,
          "duration": 2.6242187500000114
        },
        {
          "name": "E4",
          "midi": 64,
          "time": 197.625,
          "velocity": 0.6299212598425197,
          "duration": 0.37421875000001137
        },
        {
          "name": "A4",
          "midi": 69,
          "time": 197.625,
          "velocity": 0.6299212598425197,
          "duration": 0.37421875000001137
        },
        {
          "name": "C4",
          "midi": 60,
          "time": 198,
          "velocity": 0.6299212598425197,
          "duration": 0.37421875000001137
        },
        {
          "name": "F4",
          "midi": 65,
          "time": 198,
          "velocity": 0.6299212598425197,
          "duration": 0.37421875000001137
        },
        {
          "name": "E4",
          "midi": 64,
          "time": 198.375,
          "velocity": 0.6299212598425197,
          "duration": 0.37421875000001137
        },
        {
          "name": "A4",
          "midi": 69,
          "time": 198.375,
          "velocity": 0.6299212598425197,
          "duration": 0.37421875000001137
        },
        {
          "name": "C4",
          "midi": 60,
          "time": 198.75,
          "velocity": 0.6299212598425197,
          "duration": 0.37421875000001137
        },
        {
          "name": "F4",
          "midi": 65,
          "time": 198.75,
          "velocity": 0.6299212598425197,
          "duration": 0.37421875000001137
        },
        {
          "name": "E4",
          "midi": 64,
          "time": 199.125,
          "velocity": 0.6299212598425197,
          "duration": 0.37421875000001137
        },
        {
          "name": "A4",
          "midi": 69,
          "time": 199.125,
          "velocity": 0.6299212598425197,
          "duration": 0.37421875000001137
        },
        {
          "name": "C4",
          "midi": 60,
          "time": 199.5,
          "velocity": 0.6299212598425197,
          "duration": 1.8742187500000114
        },
        {
          "name": "F4",
          "midi": 65,
          "time": 199.5,
          "velocity": 0.6299212598425197,
          "duration": 1.8742187500000114
        },
        {
          "name": "E4",
          "midi": 64,
          "time": 201.375,
          "velocity": 0.6299212598425197,
          "duration": 0.37421875000001137
        },
        {
          "name": "F4",
          "midi": 65,
          "time": 201.75,
          "velocity": 0.6299212598425197,
          "duration": 0.37421875000001137
        },
        {
          "name": "A4",
          "midi": 69,
          "time": 202.125,
          "velocity": 0.6299212598425197,
          "duration": 0.37421875000001137
        },
        {
          "name": "F4",
          "midi": 65,
          "time": 202.5,
          "velocity": 0.6299212598425197,
          "duration": 0.37421875000001137
        },
        {
          "name": "C4",
          "midi": 60,
          "time": 202.875,
          "velocity": 0.6299212598425197,
          "duration": 0.37421875000001137
        },
        {
          "name": "C4",
          "midi": 60,
          "time": 203.25,
          "velocity": 0.6299212598425197,
          "duration": 0.7492187500000114
        },
        {
          "name": "F4",
          "midi": 65,
          "time": 203.25,
          "velocity": 0.6299212598425197,
          "duration": 0.7492187500000114
        },
        {
          "name": "A4",
          "midi": 69,
          "time": 204,
          "velocity": 0.6299212598425197,
          "duration": 0.37421875000001137
        },
        {
          "name": "E4",
          "midi": 64,
          "time": 204.375,
          "velocity": 0.6299212598425197,
          "duration": 0.37421875000001137
        },
        {
          "name": "E4",
          "midi": 64,
          "time": 204.75,
          "velocity": 0.6299212598425197,
          "duration": 0.7492187500000114
        },
        {
          "name": "A4",
          "midi": 69,
          "time": 204.75,
          "velocity": 0.6299212598425197,
          "duration": 0.7492187500000114
        },
        {
          "name": "E4",
          "midi": 64,
          "time": 205.5,
          "velocity": 0.6299212598425197,
          "duration": 0.37421875000001137
        },
        {
          "name": "A4",
          "midi": 69,
          "time": 205.875,
          "velocity": 0.6299212598425197,
          "duration": 0.37421875000001137
        },
        {
          "name": "E4",
          "midi": 64,
          "time": 206.25,
          "velocity": 0.6299212598425197,
          "duration": 0.7492187500000114
        },
        {
          "name": "A4",
          "midi": 69,
          "time": 206.25,
          "velocity": 0.6299212598425197,
          "duration": 0.7492187500000114
        },
        {
          "name": "C4",
          "midi": 60,
          "time": 207,
          "velocity": 0.6299212598425197,
          "duration": 0.37421875000001137
        },
        {
          "name": "F4",
          "midi": 65,
          "time": 207.375,
          "velocity": 0.6299212598425197,
          "duration": 0.37421875000001137
        },
        {
          "name": "C4",
          "midi": 60,
          "time": 207.75,
          "velocity": 0.6299212598425197,
          "duration": 0.7492187500000114
        },
        {
          "name": "F4",
          "midi": 65,
          "time": 207.75,
          "velocity": 0.6299212598425197,
          "duration": 0.7492187500000114
        },
        {
          "name": "F4",
          "midi": 65,
          "time": 208.5,
          "velocity": 0.6299212598425197,
          "duration": 0.37421875000001137
        },
        {
          "name": "C4",
          "midi": 60,
          "time": 208.875,
          "velocity": 0.6299212598425197,
          "duration": 0.37421875000001137
        },
        {
          "name": "C4",
          "midi": 60,
          "time": 209.25,
          "velocity": 0.6299212598425197,
          "duration": 0.7492187500000114
        },
        {
          "name": "F4",
          "midi": 65,
          "time": 209.25,
          "velocity": 0.6299212598425197,
          "duration": 0.7492187500000114
        },
        {
          "name": "A4",
          "midi": 69,
          "time": 210,
          "velocity": 0.6299212598425197,
          "duration": 0.37421875000001137
        },
        {
          "name": "E4",
          "midi": 64,
          "time": 210.375,
          "velocity": 0.6299212598425197,
          "duration": 0.37421875000001137
        },
        {
          "name": "E4",
          "midi": 64,
          "time": 210.75,
          "velocity": 0.6299212598425197,
          "duration": 0.7492187500000114
        },
        {
          "name": "A4",
          "midi": 69,
          "time": 210.75,
          "velocity": 0.6299212598425197,
          "duration": 0.7492187500000114
        },
        {
          "name": "E4",
          "midi": 64,
          "time": 211.5,
          "velocity": 0.6299212598425197,
          "duration": 0.37421875000001137
        },
        {
          "name": "A4",
          "midi": 69,
          "time": 211.875,
          "velocity": 0.6299212598425197,
          "duration": 0.37421875000001137
        },
        {
          "name": "E4",
          "midi": 64,
          "time": 212.25,
          "velocity": 0.6299212598425197,
          "duration": 0.7492187500000114
        },
        {
          "name": "A4",
          "midi": 69,
          "time": 212.25,
          "velocity": 0.6299212598425197,
          "duration": 0.7492187500000114
        },
        {
          "name": "C4",
          "midi": 60,
          "time": 213,
          "velocity": 0.6299212598425197,
          "duration": 0.37421875000001137
        },
        {
          "name": "F4",
          "midi": 65,
          "time": 213.375,
          "velocity": 0.6299212598425197,
          "duration": 0.37421875000001137
        },
        {
          "name": "C4",
          "midi": 60,
          "time": 213.75,
          "velocity": 0.6299212598425197,
          "duration": 0.7492187500000114
        },
        {
          "name": "F4",
          "midi": 65,
          "time": 213.75,
          "velocity": 0.6299212598425197,
          "duration": 0.7492187500000114
        },
        {
          "name": "C4",
          "midi": 60,
          "time": 214.5,
          "velocity": 0.6299212598425197,
          "duration": 0.37421875000001137
        },
        {
          "name": "F4",
          "midi": 65,
          "time": 214.875,
          "velocity": 0.6299212598425197,
          "duration": 0.18671875000001137
        },
        {
          "name": "A4",
          "midi": 69,
          "time": 215.0625,
          "velocity": 0.6299212598425197,
          "duration": 0.37421875000001137
        },
        {
          "name": "F4",
          "midi": 65,
          "time": 215.4375,
          "velocity": 0.6299212598425197,
          "duration": 0.18671875000001137
        },
        {
          "name": "C4",
          "midi": 60,
          "time": 215.625,
          "velocity": 0.6299212598425197,
          "duration": 0.37421875000001137
        },
        {
          "name": "C4",
          "midi": 60,
          "time": 216,
          "velocity": 0.6299212598425197,
          "duration": 0.37421875000001137
        },
        {
          "name": "F4",
          "midi": 65,
          "time": 216.375,
          "velocity": 0.6299212598425197,
          "duration": 0.18671875000001137
        },
        {
          "name": "A4",
          "midi": 69,
          "time": 216.5625,
          "velocity": 0.6299212598425197,
          "duration": 0.37421875000001137
        },
        {
          "name": "F4",
          "midi": 65,
          "time": 216.9375,
          "velocity": 0.6299212598425197,
          "duration": 0.18671875000001137
        },
        {
          "name": "C4",
          "midi": 60,
          "time": 217.125,
          "velocity": 0.6299212598425197,
          "duration": 0.37421875000001137
        },
        {
          "name": "C4",
          "midi": 60,
          "time": 217.5,
          "velocity": 0.6299212598425197,
          "duration": 0.37421875000001137
        },
        {
          "name": "F4",
          "midi": 65,
          "time": 217.875,
          "velocity": 0.6299212598425197,
          "duration": 0.18671875000001137
        },
        {
          "name": "A4",
          "midi": 69,
          "time": 218.0625,
          "velocity": 0.6299212598425197,
          "duration": 0.37421875000001137
        },
        {
          "name": "F4",
          "midi": 65,
          "time": 218.4375,
          "velocity": 0.6299212598425197,
          "duration": 0.18671875000001137
        },
        {
          "name": "C4",
          "midi": 60,
          "time": 218.625,
          "velocity": 0.6299212598425197,
          "duration": 0.37421875000001137
        },
        {
          "name": "C4",
          "midi": 60,
          "time": 219,
          "velocity": 0.6299212598425197,
          "duration": 0.37421875000001137
        },
        {
          "name": "F4",
          "midi": 65,
          "time": 219.375,
          "velocity": 0.6299212598425197,
          "duration": 0.18671875000001137
        },
        {
          "name": "A4",
          "midi": 69,
          "time": 219.5625,
          "velocity": 0.6299212598425197,
          "duration": 0.37421875000001137
        },
        {
          "name": "F4",
          "midi": 65,
          "time": 219.9375,
          "velocity": 0.6299212598425197,
          "duration": 0.18671875000001137
        },
        {
          "name": "C4",
          "midi": 60,
          "time": 220.125,
          "velocity": 0.6299212598425197,
          "duration": 0.37421875000001137
        },
        {
          "name": "C4",
          "midi": 60,
          "time": 220.5,
          "velocity": 0.6299212598425197,
          "duration": 0.37421875000001137
        },
        {
          "name": "F4",
          "midi": 65,
          "time": 220.875,
          "velocity": 0.6299212598425197,
          "duration": 0.18671875000001137
        },
        {
          "name": "A4",
          "midi": 69,
          "time": 221.0625,
          "velocity": 0.6299212598425197,
          "duration": 0.37421875000001137
        },
        {
          "name": "F4",
          "midi": 65,
          "time": 221.4375,
          "velocity": 0.6299212598425197,
          "duration": 0.18671875000001137
        },
        {
          "name": "C4",
          "midi": 60,
          "time": 221.625,
          "velocity": 0.6299212598425197,
          "duration": 0.37421875000001137
        },
        {
          "name": "C4",
          "midi": 60,
          "time": 222,
          "velocity": 0.6299212598425197,
          "duration": 0.37421875000001137
        },
        {
          "name": "F4",
          "midi": 65,
          "time": 222.375,
          "velocity": 0.6299212598425197,
          "duration": 0.18671875000001137
        },
        {
          "name": "A4",
          "midi": 69,
          "time": 222.5625,
          "velocity": 0.6299212598425197,
          "duration": 0.37421875000001137
        },
        {
          "name": "F4",
          "midi": 65,
          "time": 222.9375,
          "velocity": 0.6299212598425197,
          "duration": 0.18671875000001137
        },
        {
          "name": "C4",
          "midi": 60,
          "time": 223.125,
          "velocity": 0.6299212598425197,
          "duration": 0.37421875000001137
        },
        {
          "name": "C4",
          "midi": 60,
          "time": 223.5,
          "velocity": 0.6299212598425197,
          "duration": 0.37421875000001137
        },
        {
          "name": "F4",
          "midi": 65,
          "time": 223.875,
          "velocity": 0.6299212598425197,
          "duration": 0.18671875000001137
        },
        {
          "name": "A4",
          "midi": 69,
          "time": 224.0625,
          "velocity": 0.6299212598425197,
          "duration": 0.37421875000001137
        },
        {
          "name": "F4",
          "midi": 65,
          "time": 224.4375,
          "velocity": 0.6299212598425197,
          "duration": 0.18671875000001137
        },
        {
          "name": "C4",
          "midi": 60,
          "time": 224.625,
          "velocity": 0.6299212598425197,
          "duration": 0.37421875000001137
        },
        {
          "name": "C4",
          "midi": 60,
          "time": 225,
          "velocity": 0.6299212598425197,
          "duration": 0.18671875000001137
        },
        {
          "name": "F4",
          "midi": 65,
          "time": 225.1875,
          "velocity": 0.6299212598425197,
          "duration": 0.28046875000001137
        },
        {
          "name": "F4",
          "midi": 65,
          "time": 225.46875,
          "velocity": 0.6299212598425197,
          "duration": 0.28046875000001137
        },
        {
          "name": "E4",
          "midi": 64,
          "time": 225.75,
          "velocity": 0.6299212598425197,
          "duration": 0.18671875000001137
        },
        {
          "name": "A4",
          "midi": 69,
          "time": 225.9375,
          "velocity": 0.6299212598425197,
          "duration": 0.28046875000001137
        },
        {
          "name": "A4",
          "midi": 69,
          "time": 226.21875,
          "velocity": 0.6299212598425197,
          "duration": 0.28046875000001137
        },
        {
          "name": "C4",
          "midi": 60,
          "time": 226.5,
          "velocity": 0.6299212598425197,
          "duration": 1.4992187500000114
        },
        {
          "name": "E4",
          "midi": 64,
          "time": 226.5,
          "velocity": 0.6299212598425197,
          "duration": 1.4992187500000114
        },
        {
          "name": "F4",
          "midi": 65,
          "time": 226.5,
          "velocity": 0.6299212598425197,
          "duration": 1.4992187500000114
        },
        {
          "name": "A4",
          "midi": 69,
          "time": 226.5,
          "velocity": 0.6299212598425197,
          "duration": 1.4992187500000114
        }
      ],
      "controlChanges": {
        "6": [
          {
            "number": 6,
            "time": 0,
            "value": 0.09448818897637795
          }
        ],
        "7": [
          {
            "number": 7,
            "time": 0,
            "value": 0.7874015748031497
          }
        ],
        "10": [
          {
            "number": 10,
            "time": 0,
            "value": 0.5039370078740157
          }
        ],
        "91": [
          {
            "number": 91,
            "time": 0,
            "value": 0
          }
        ],
        "93": [
          {
            "number": 93,
            "time": 0,
            "value": 0
          }
        ],
        "100": [
          {
            "number": 100,
            "time": 0,
            "value": 0
          },
          {
            "number": 100,
            "time": 0,
            "value": 1
          }
        ],
        "101": [
          {
            "number": 101,
            "time": 0,
            "value": 0
          },
          {
            "number": 101,
            "time": 0,
            "value": 1
          }
        ],
        "121": [
          {
            "number": 121,
            "time": 0,
            "value": 0
          }
        ]
      },
      "id": 0,
      "name": "Grand Piano",
      "instrumentNumber": 0,
      "instrument": "acoustic grand piano",
      "instrumentFamily": "piano",
      "channelNumber": 0,
      "isPercussion": false
    },
    {
      "startTime": 0,
      "duration": 0,
      "length": 0,
      "notes": [],
      "controlChanges": {},
      "id": 1,
      "name": "Grand Piano"
    }
  ]
}