{
  "header": {
    "PPQ": 480,
    "timeSignature": [
      4,
      4
    ],
    "bpm": 160,
    "name": "Grand Piano"
  },
  "tempo": [
    {
      "absoluteTime": 0,
      "seconds": 0,
      "bpm": 160
    }
  ],
  "timeSignature": [
    {
      "absoluteTime": 0,
      "seconds": 0,
      "numerator": 4,
      "denominator": 2,
      "click": 24,
      "notesQ": 8
    }
  ],
  "startTime": 0,
  "duration": 36.37421875,
  "tracks": [
    {
      "startTime": 0,
      "duration": 36.37421875,
      "length": 146,
      "notes": [
        {
          "name": "F4",
          "midi": 65,
          "time": 0,
          "velocity": 0.6299212598425197,
          "duration": 0.18671875
        },
        {
          "name": "A4",
          "midi": 69,
          "time": 0.1875,
          "velocity": 0.6299212598425197,
          "duration": 0.18671875
        },
        {
          "name": "F4",
          "midi": 65,
          "time": 0.375,
          "velocity": 0.6299212598425197,
          "duration": 0.18671875000000004
        },
        {
          "name": "A4",
          "midi": 69,
          "time": 0.5625,
          "velocity": 0.6299212598425197,
          "duration": 0.18671875000000004
        },
        {
          "name": "F4",
          "midi": 65,
          "time": 0.75,
          "velocity": 0.6299212598425197,
          "duration": 0.18671875000000004
        },
        {
          "name": "A4",
          "midi": 69,
          "time": 0.9375,
          "velocity": 0.6299212598425197,
          "duration": 0.18671875000000004
        },
        {
          "name": "F4",
          "midi": 65,
          "time": 1.125,
          "velocity": 0.6299212598425197,
          "duration": 0.18671875000000004
        },
        {
          "name": "A4",
          "midi": 69,
          "time": 1.3125,
          "velocity": 0.6299212598425197,
          "duration": 0.18671875000000004
        },
        {
          "name": "C4",
          "midi": 60,
          "time": 1.5,
          "velocity": 0.6299212598425197,
          "duration": 0.28046875000000004
        },
        {
          "name": "E4",
          "midi": 64,
          "time": 1.78125,
          "velocity": 0.6299212598425197,
          "duration": 0.2804687499999998
        },
        {
          "name": "C4",
          "midi": 60,
          "time": 2.0625,
          "velocity": 0.6299212598425197,
          "duration": 0.3742187499999998
        },
        {
          "name": "F4",
          "midi": 65,
          "time": 2.4375,
          "velocity": 0.6299212598425197,
          "duration": 0.18671874999999982
        },
        {
          "name": "F4",
          "midi": 65,
          "time": 2.625,
          "velocity": 0.6299212598425197,
          "duration": 0.18671874999999982
        },
        {
          "name": "F4",
          "midi": 65,
          "time": 2.8125,
          "velocity": 0.6299212598425197,
          "duration": 0.18671874999999982
        },
        {
          "name": "C4",
          "midi": 60,
          "time": 3,
          "velocity": 0.6299212598425197,
          "duration": 0.2804687499999998
        },
        {
          "name": "E4",
          "midi": 64,
          "time": 3.28125,
          "velocity": 0.6299212598425197,
          "duration": 0.2804687499999998
        },
        {
          "name": "C4",
          "midi": 60,
          "time": 3.5625,
          "velocity": 0.6299212598425197,
          "duration": 0.3742187499999998
        },
        {
          "name": "F4",
          "midi": 65,
          "time": 3.9375,
          "velocity": 0.6299212598425197,
          "duration": 0.18671874999999982
        },
        {
          "name": "F4",
          "midi": 65,
          "time": 4.125,
          "velocity": 0.6299212598425197,
          "duration": 0.18671874999999982
        },
        {
          "name": "F4",
          "midi": 65,
          "time": 4.3125,
          "velocity": 0.6299212598425197,
          "duration": 0.18671874999999982
        },
        {
          "name": "E4",
          "midi": 64,
          "time": 4.5,
          "velocity": 0.6299212598425197,
          "duration": 0.2804687499999998
        },
        {
          "name": "C4",
          "midi": 60,
          "time": 4.78125,
          "velocity": 0.6299212598425197,
          "duration": 0.2804687499999998
        },
        {
          "name": "E4",
          "midi": 64,
          "time": 5.0625,
          "velocity": 0.6299212598425197,
          "duration": 0.3742187499999998
        },
        {
          "name": "A4",
          "midi": 69,
          "time": 5.4375,
          "velocity": 0.6299212598425197,
          "duration": 0.18671874999999982
        },
        {
          "name": "A4",
          "midi": 69,
          "time": 5.625,
          "velocity": 0.6299212598425197,
          "duration": 0.18671874999999982
        },
        {
          "name": "A4",
          "midi": 69,
          "time": 5.8125,
          "velocity": 0.6299212598425197,
          "duration": 0.18671874999999982
        },
        {
          "name": "E4",
          "midi": 64,
          "time": 6,
          "velocity": 0.6299212598425197,
          "duration": 0.2804687499999998
        },
        {
          "name": "C4",
          "midi": 60,
          "time": 6.28125,
          "velocity": 0.6299212598425197,
          "duration": 0.2804687499999998
        },
        {
          "name": "E4",
          "midi": 64,
          "time": 6.5625,
          "velocity": 0.6299212598425197,
          "duration": 0.3742187499999998
        },
        {
          "name": "A4",
          "midi": 69,
          "time": 6.9375,
          "velocity": 0.6299212598425197,
          "duration": 0.18671874999999982
        },
        {
          "name": "A4",
          "midi": 69,
          "time": 7.125,
          "velocity": 0.6299212598425197,
          "duration": 0.18671874999999982
        },
        {
          "name": "A4",
          "midi": 69,
          "time": 7.3125,
          "velocity": 0.6299212598425197,
          "duration": 0.18671874999999982
        },
        {
          "name": "C4",
          "midi": 60,
          "time": 7.5,
          "velocity": 0.6299212598425197,
          "duration": 0.2804687499999998
        },
        {
          "name": "E4",
          "midi": 64,
          "time": 7.78125,
          "velocity": 0.6299212598425197,
          "duration": 0.2804687500000007
        },
        {
          "name": "C4",
          "midi": 60,
          "time": 8.0625,
          "velocity": 0.6299212598425197,
          "duration": 0.3742187500000007
        },
        {
          "name": "F4",
          "midi": 65,
          "time": 8.4375,
          "velocity": 0.6299212598425197,
          "duration": 0.1867187500000007
        },
        {
          "name": "F4",
          "midi": 65,
          "time": 8.625,
          "velocity": 0.6299212598425197,
          "duration": 0.1867187500000007
        },
        {
          "name": "F4",
          "midi": 65,
          "time": 8.8125,
          "velocity": 0.6299212598425197,
          "duration": 0.1867187500000007
        },
        {
          "name": "C4",
          "midi": 60,
          "time": 9,
          "velocity": 0.6299212598425197,
          "duration": 0.2804687500000007
        },
        {
          "name": "E4",
          "midi": 64,
          "time": 9.28125,
          "velocity": 0.6299212598425197,
          "duration": 0.2804687500000007
        },
        {
          "name": "C4",
          "midi": 60,
          "time": 9.5625,
          "velocity": 0.6299212598425197,
          "duration": 0.3742187500000007
        },
        {
          "name": "F4",
          "midi": 65,
          "time": 9.9375,
          "velocity": 0.6299212598425197,
          "duration": 0.1867187500000007
        },
        {
          "name": "F4",
          "midi": 65,
          "time": 10.125,
          "velocity": 0.6299212598425197,
          "duration": 0.1867187500000007
        },
        {
          "name": "F4",
          "midi": 65,
          "time": 10.3125,
          "velocity": 0.6299212598425197,
          "duration": 0.1867187500000007
        },
        {
          "name": "C4",
          "midi": 60,
          "time": 10.5,
          "velocity": 0.6299212598425197,
          "duration": 0.3742187500000007
        },
        {
          "name": "C4",
          "midi": 60,
          "time": 10.875,
          "velocity": 0.6299212598425197,
          "duration": 0.3742187500000007
        },
        {
          "name": "C4",
          "midi": 60,
          "time": 11.25,
          "velocity": 0.6299212598425197,
          "duration": 0.3742187500000007
        },
        {
          "name": "C4",
          "midi": 60,
          "time": 11.625,
          "velocity": 0.6299212598425197,
          "duration": 0.3742187500000007
        },
        {
          "name": "E4",
          "midi": 64,
          "time": 12,
          "velocity": 0.6299212598425197,
          "duration": 0.3742187500000007
        },
        {
          "name": "F4",
          "midi": 65,
          "time": 12.375,
          "velocity": 0.6299212598425197,
          "duration": 0.09296875000000071
        },
        {
          "name": "A4",
          "midi": 69,
          "time": 12.46875,
          "velocity": 0.6299212598425197,
          "duration": 0.09296875000000071
        },
        {
          "name": "F4",
          "midi": 65,
          "time": 12.5625,
          "velocity": 0.6299212598425197,
          "duration": 0.09296875000000071
        },
        {
          "name": "A4",
          "midi": 69,
          "time": 12.65625,
          "velocity": 0.6299212598425197,
          "duration": 0.09296875000000071
        },
        {
          "name": "F4",
          "midi": 65,
          "time": 12.75,
          "velocity": 0.6299212598425197,
          "duration": 0.09296875000000071
        },
        {
          "name": "A4",
          "midi": 69,
          "time": 12.84375,
          "velocity": 0.6299212598425197,
          "duration": 0.09296875000000071
        },
        {
          "name": "F4",
          "midi": 65,
          "time": 12.9375,
          "velocity": 0.6299212598425197,
          "duration": 0.09296875000000071
        },
        {
          "name": "A4",
          "midi": 69,
          "time": 13.03125,
          "velocity": 0.6299212598425197,
          "duration": 0.09296875000000071
        },
        {
          "name": "F4",
          "midi": 65,
          "time": 13.6875,
          "velocity": 0.6299212598425197,
          "duration": 0.1867187500000007
        },
        {
          "name": "A4",
          "midi": 69,
          "time": 13.6875,
          "velocity": 0.6299212598425197,
          "duration": 0.1867187500000007
        },
        {
          "name": "C4",
          "midi": 60,
          "time": 14.625,
          "velocity": 0.6299212598425197,
          "duration": 0.1867187500000007
        },
        {
          "name": "A4",
          "midi": 69,
          "time": 15,
          "velocity": 0.6299212598425197,
          "duration": 0.1867187500000007
        },
        {
          "name": "E4",
          "midi": 64,
          "time": 15.1875,
          "velocity": 0.6299212598425197,
          "duration": 0.1867187500000007
        },
        {
          "name": "A4",
          "midi": 69,
          "time": 15.375,
          "velocity": 0.6299212598425197,
          "duration": 0.1867187500000007
        },
        {
          "name": "E4",
          "midi": 64,
          "time": 15.5625,
          "velocity": 0.6299212598425197,
          "duration": 0.1867187500000007
        },
        {
          "name": "F4",
          "midi": 65,
          "time": 15.75,
          "velocity": 0.6299212598425197,
          "duration": 0.1867187500000007
        },
        {
          "name": "C4",
          "midi": 60,
          "time": 15.9375,
          "velocity": 0.6299212598425197,
          "duration": 0.1867187500000007
        },
        {
          "name": "F4",
          "midi": 65,
          "time": 16.125,
          "velocity": 0.6299212598425197,
          "duration": 0.3742187500000007
        },
        {
          "name": "C4",
          "midi": 60,
          "time": 16.5,
          "velocity": 0.6299212598425197,
          "duration": 0.3742187500000007
        },
        {
          "name": "C4",
          "midi": 60,
          "time": 17.625,
          "velocity": 0.6299212598425197,
          "duration": 0.3742187500000007
        },
        {
          "name": "E4",
          "midi": 64,
          "time": 18,
          "velocity": 0.6299212598425197,
          "duration": 0.3742187500000007
        },
        {
          "name": "A4",
          "midi": 69,
          "time": 18,
          "velocity": 0.6299212598425197,
          "duration": 0.3742187500000007
        },
        {
          "name": "E4",
          "midi": 64,
          "time": 18.375,
          "velocity": 0.6299212598425197,
          "duration": 0.3742187500000007
        },
        {
          "name": "F4",
          "midi": 65,
          "time": 18.375,
          "velocity": 0.6299212598425197,
          "duration": 0.3742187500000007
        },
        {
          "name": "E4",
          "midi": 64,
          "time": 18.75,
          "velocity": 0.6299212598425197,
          "duration": 0.3742187500000007
        },
        {
          "name": "A4",
          "midi": 69,
          "time": 18.75,
          "velocity": 0.6299212598425197,
          "duration": 0.3742187500000007
        },
        {
          "name": "E4",
          "midi": 64,
          "time": 19.125,
          "velocity": 0.6299212598425197,
          "duration": 0.3742187500000007
        },
        {
          "name": "F4",
          "midi": 65,
          "time": 19.125,
          "velocity": 0.6299212598425197,
          "duration": 0.3742187500000007
        },
        {
          "name": "E4",
          "midi": 64,
          "time": 19.5,
          "velocity": 0.6299212598425197,
          "duration": 0.3742187500000007
        },
        {
          "name": "A4",
          "midi": 69,
          "time": 19.5,
          "velocity": 0.6299212598425197,
          "duration": 0.3742187500000007
        },
        {
          "name": "F4",
          "midi": 65,
          "time": 19.875,
          "velocity": 0.6299212598425197,
          "duration": 0.3742187500000007
        },
        {
          "name": "F4",
          "midi": 65,
          "time": 20.25,
          "velocity": 0.6299212598425197,
          "duration": 0.3742187500000007
        },
        {
          "name": "A4",
          "midi": 69,
          "time": 20.25,
          "velocity": 0.6299212598425197,
          "duration": 0.3742187500000007
        },
        {
          "name": "C4",
          "midi": 60,
          "time": 20.625,
          "velocity": 0.6299212598425197,
          "duration": 0.3742187500000007
        },
        {
          "name": "A4",
          "midi": 69,
          "time": 20.625,
          "velocity": 0.6299212598425197,
          "duration": 0.3742187500000007
        },
        {
          "name": "C4",
          "midi": 60,
          "time": 21,
          "velocity": 0.6299212598425197,
          "duration": 0.3742187500000007
        },
        {
          "name": "F4",
          "midi": 65,
          "time": 21,
          "velocity": 0.6299212598425197,
          "duration": 0.3742187500000007
        },
        {
          "name": "C4",
          "midi": 60,
          "time": 21.375,
          "velocity": 0.6299212598425197,
          "duration": 0.3742187500000007
        },
        {
          "name": "A4",
          "midi": 69,
          "time": 21.375,
          "velocity": 0.6299212598425197,
          "duration": 0.3742187500000007
        },
        {
          "name": "C4",
          "midi": 60,
          "time": 21.75,
          "velocity": 0.6299212598425197,
          "duration": 0.3742187500000007
        },
        {
          "name": "F4",
          "midi": 65,
          "time": 21.75,
          "velocity": 0.6299212598425197,
          "duration": 0.3742187500000007
        },
        {
          "name": "E3",
          "midi": 52,
          "time": 22.125,
          "velocity": 0.6299212598425197,
          "duration": 0.3742187500000007
        },
        {
          "name": "C4",
          "midi": 60,
          "time": 22.125,
          "velocity": 0.6299212598425197,
          "duration": 0.3742187500000007
        },
        {
          "name": "A4",
          "midi": 69,
          "time": 22.125,
          "velocity": 0.6299212598425197,
          "duration": 0.3742187500000007
        },
        {
          "name": "C4",
          "midi": 60,
          "time": 22.5,
          "velocity": 0.6299212598425197,
          "duration": 0.3742187500000007
        },
        {
          "name": "F4",
          "midi": 65,
          "time": 22.5,
          "velocity": 0.6299212598425197,
          "duration": 0.3742187500000007
        },
        {
          "name": "C4",
          "midi": 60,
          "time": 22.875,
          "velocity": 0.6299212598425197,
          "duration": 0.3742187500000007
        },
        {
          "name": "A4",
          "midi": 69,
          "time": 22.875,
          "velocity": 0.6299212598425197,
          "duration": 0.3742187500000007
        },
        {
          "name": "C4",
          "midi": 60,
          "time": 23.25,
          "velocity": 0.6299212598425197,
          "duration": 0.3742187500000007
        },
        {
          "name": "F4",
          "midi": 65,
          "time": 23.25,
          "velocity": 0.6299212598425197,
          "duration": 0.3742187500000007
        },
        {
          "name": "C4",
          "midi": 60,
          "time": 23.625,
          "velocity": 0.6299212598425197,
          "duration": 0.3742187500000007
        },
        {
          "name": "A4",
          "midi": 69,
          "time": 23.625,
          "velocity": 0.6299212598425197,
          "duration": 0.3742187500000007
        },
        {
          "name": "C4",
          "midi": 60,
          "time": 24,
          "velocity": 0.6299212598425197,
          "duration": 0.3742187500000007
        },
        {
          "name": "F4",
          "midi": 65,
          "time": 24,
          "velocity": 0.6299212598425197,
          "duration": 0.3742187500000007
        },
        {
          "name": "C4",
          "midi": 60,
          "time": 24.375,
          "velocity": 0.6299212598425197,
          "duration": 0.3742187500000007
        },
        {
          "name": "A4",
          "midi": 69,
          "time": 24.375,
          "velocity": 0.6299212598425197,
          "duration": 0.3742187500000007
        },
        {
          "name": "C4",
          "midi": 60,
          "time": 24.75,
          "velocity": 0.6299212598425197,
          "duration": 0.3742187500000007
        },
        {
          "name": "F4",
          "midi": 65,
          "time": 24.75,
          "velocity": 0.6299212598425197,
          "duration": 0.3742187500000007
        },
        {
          "name": "C4",
          "midi": 60,
          "time": 25.125,
          "velocity": 0.6299212598425197,
          "duration": 0.3742187500000007
        },
        {
          "name": "A4",
          "midi": 69,
          "time": 25.125,
          "velocity": 0.6299212598425197,
          "duration": 0.3742187500000007
        },
        {
          "name": "C4",
          "midi": 60,
          "time": 25.5,
          "velocity": 0.6299212598425197,
          "duration": 0.3742187500000007
        },
        {
          "name": "F4",
          "midi": 65,
          "time": 25.5,
          "velocity": 0.6299212598425197,
          "duration": 0.3742187500000007
        },
        {
          "name": "E4",
          "midi": 64,
          "time": 26.625,
          "velocity": 0.6299212598425197,
          "duration": 0.1867187500000007
        },
        {
          "name": "E4",
          "midi": 64,
          "time": 26.8125,
          "velocity": 0.6299212598425197,
          "duration": 0.1867187500000007
        },
        {
          "name": "E4",
          "midi": 64,
          "time": 27,
          "velocity": 0.6299212598425197,
          "duration": 0.3742187500000007
        },
        {
          "name": "C4",
          "midi": 60,
          "time": 27.375,
          "velocity": 0.6299212598425197,
          "duration": 0.1867187500000007
        },
        {
          "name": "C4",
          "midi": 60,
          "time": 27.5625,
          "velocity": 0.6299212598425197,
          "duration": 0.1867187500000007
        },
        {
          "name": "C4",
          "midi": 60,
          "time": 27.75,
          "velocity": 0.6299212598425197,
          "duration": 0.3742187500000007
        },
        {
          "name": "F4",
          "midi": 65,
          "time": 28.125,
          "velocity": 0.6299212598425197,
          "duration": 0.3742187500000007
        },
        {
          "name": "F4",
          "midi": 65,
          "time": 28.5,
          "velocity": 0.6299212598425197,
          "duration": 0.3742187500000007
        },
        {
          "name": "E4",
          "midi": 64,
          "time": 29.625,
          "velocity": 0.6299212598425197,
          "duration": 0.1867187500000007
        },
        {
          "name": "E4",
          "midi": 64,
          "time": 29.8125,
          "velocity": 0.6299212598425197,
          "duration": 0.1867187500000007
        },
        {
          "name": "E4",
          "midi": 64,
          "time": 30,
          "velocity": 0.6299212598425197,
          "duration": 0.3742187500000007
        },
        {
          "name": "C4",
          "midi": 60,
          "time": 30.375,
          "velocity": 0.6299212598425197,
          "duration": 0.1867187500000007
        },
        {
          "name": "C4",
          "midi": 60,
          "time": 30.5625,
          "velocity": 0.6299212598425197,
          "duration": 0.1867187500000007
        },
        {
          "name": "C4",
          "midi": 60,
          "time": 30.75,
          "velocity": 0.6299212598425197,
          "duration": 0.3742187500000007
        },
        {
          "name": "F4",
          "midi": 65,
          "time": 31.125,
          "velocity": 0.6299212598425197,
          "duration": 0.3742187500000007
        },
        {
          "name": "E4",
          "midi": 64,
          "time": 31.875,
          "velocity": 0.6299212598425197,
          "duration": 0.37421874999999716
        },
        {
          "name": "F4",
          "midi": 65,
          "time": 31.875,
          "velocity": 0.6299212598425197,
          "duration": 0.37421874999999716
        },
        {
          "name": "C4",
          "midi": 60,
          "time": 32.25,
          "velocity": 0.6299212598425197,
          "duration": 0.37421874999999716
        },
        {
          "name": "F4",
          "midi": 65,
          "time": 32.25,
          "velocity": 0.6299212598425197,
          "duration": 0.37421874999999716
        },
        {
          "name": "E4",
          "midi": 64,
          "time": 32.625,
          "velocity": 0.6299212598425197,
          "duration": 0.37421874999999716
        },
        {
          "name": "F4",
          "midi": 65,
          "time": 32.625,
          "velocity": 0.6299212598425197,
          "duration": 0.37421874999999716
        },
        {
          "name": "C4",
          "midi": 60,
          "time": 33,
          "velocity": 0.6299212598425197,
          "duration": 0.37421874999999716
        },
        {
          "name": "F4",
          "midi": 65,
          "time": 33,
          "velocity": 0.6299212598425197,
          "duration": 0.37421874999999716
        },
        {
          "name": "E4",
          "midi": 64,
          "time": 33.375,
          "velocity": 0.6299212598425197,
          "duration": 0.37421874999999716
        },
        {
          "name": "F4",
          "midi": 65,
          "time": 33.375,
          "velocity": 0.6299212598425197,
          "duration": 0.37421874999999716
        },
        {
          "name": "C4",
          "midi": 60,
          "time": 33.75,
          "velocity": 0.6299212598425197,
          "duration": 0.37421874999999716
        },
        {
          "name": "F4",
          "midi": 65,
          "time": 33.75,
          "velocity": 0.6299212598425197,
          "duration": 0.37421874999999716
        },
        {
          "name": "D4",
          "midi": 62,
          "time": 34.125,
          "velocity": 0.6299212598425197,
          "duration": 0.37421874999999716
        },
        {
          "name": "F4",
          "midi": 65,
          "time": 34.125,
          "velocity": 0.6299212598425197,
          "duration": 0.37421874999999716
        },
        {
          "name": "C4",
          "midi": 60,
          "time": 34.5,
          "velocity": 0.6299212598425197,
          "duration": 0.37421874999999716
        },
        {
          "name": "F4",
          "midi": 65,
          "time": 34.5,
          "velocity": 0.6299212598425197,
          "duration": 0.37421874999999716
        },
        {
          "name": "F4",
          "midi": 65,
          "time": 34.875,
          "velocity": 0.6299212598425197,
          "duration": 0.37421874999999716
        },
        {
          "name": "F4",
          "midi": 65,
          "time": 35.25,
          "velocity": 0.6299212598425197,
          "duration": 0.37421874999999716
        },
        {
          "name": "F4",
          "midi": 65,
          "time": 35.625,
          "velocity": 0.6299212598425197,
          "duration": 0.37421874999999716
        },
        {
          "name": "F4",
          "midi": 65,
          "time": 36,
          "velocity": 0.6299212598425197,
          "duration": 0.37421874999999716
        }
      ],
      "controlChanges": {
        "6": [
          {
            "number": 6,
            "time": 0,
            "value": 0.09448818897637795
          }
        ],
        "7": [
          {
            "number": 7,
            "time": 0,
            "value": 0.7874015748031497
          }
        ],
        "10": [
          {
            "number": 10,
            "time": 0,
            "value": 0.5039370078740157
          }
        ],
        "91": [
          {
            "number": 91,
            "time": 0,
            "value": 0
          }
        ],
        "93": [
          {
            "number": 93,
            "time": 0,
            "value": 0
          }
        ],
        "100": [
          {
            "number": 100,
            "time": 0,
            "value": 0
          },
          {
            "number": 100,
            "time": 0,
            "value": 1
          }
        ],
        "101": [
          {
            "number": 101,
            "time": 0,
            "value": 0
          },
          {
            "number": 101,
            "time": 0,
            "value": 1
          }
        ],
        "121": [
          {
            "number": 121,
            "time": 0,
            "value": 0
          }
        ]
      },
      "id": 0,
      "name": "Grand Piano",
      "instrumentNumber": 0,
      "instrument": "acoustic grand piano",
      "instrumentFamily": "piano",
      "channelNumber": 0,
      "isPercussion": false
    },
    {
      "startTime": 0,
      "duration": 0,
      "length": 0,
      "notes": [],
      "controlChanges": {},
      "id": 1,
      "name": "Grand Piano"
    }
  ]
}