{
  "header": {
    "PPQ": 480,
    "timeSignature": [
      4,
      4
    ],
    "bpm": 165.99990040005977,
    "name": "Piano"
  },
  "tempo": [
    {
      "absoluteTime": 0,
      "seconds": 0,
      "bpm": 165.99990040005977
    }
  ],
  "timeSignature": [
    {
      "absoluteTime": 0,
      "seconds": 0,
      "numerator": 4,
      "denominator": 2,
      "click": 24,
      "notesQ": 8
    }
  ],
  "startTime": 0,
  "duration": 192.28851898750034,
  "tracks": [
    {
      "startTime": 0,
      "duration": 192.28851898750034,
      "length": 952,
      "notes": [
        {
          "name": "C4",
          "midi": 60,
          "time": 0,
          "velocity": 0.6299212598425197,
          "duration": 0.7221389874999999
        },
        {
          "name": "E4",
          "midi": 64,
          "time": 0.722892,
          "velocity": 0.6299212598425197,
          "duration": 0.7221389875
        },
        {
          "name": "C4",
          "midi": 60,
          "time": 1.445784,
          "velocity": 0.6299212598425197,
          "duration": 0.7221389874999999
        },
        {
          "name": "A4",
          "midi": 69,
          "time": 2.168676,
          "velocity": 0.6299212598425197,
          "duration": 0.17996998749999982
        },
        {
          "name": "F4",
          "midi": 65,
          "time": 2.349399,
          "velocity": 0.6299212598425197,
          "duration": 0.17996998749999982
        },
        {
          "name": "A4",
          "midi": 69,
          "time": 2.530122,
          "velocity": 0.6299212598425197,
          "duration": 0.17996998749999982
        },
        {
          "name": "F4",
          "midi": 65,
          "time": 2.710845,
          "velocity": 0.6299212598425197,
          "duration": 0.17996998749999982
        },
        {
          "name": "C4",
          "midi": 60,
          "time": 2.891568,
          "velocity": 0.6299212598425197,
          "duration": 0.7221389874999997
        },
        {
          "name": "E4",
          "midi": 64,
          "time": 3.61446,
          "velocity": 0.6299212598425197,
          "duration": 0.7221389874999997
        },
        {
          "name": "C4",
          "midi": 60,
          "time": 4.337351999999999,
          "velocity": 0.6299212598425197,
          "duration": 0.7221389875000002
        },
        {
          "name": "A4",
          "midi": 69,
          "time": 5.060243999999999,
          "velocity": 0.6299212598425197,
          "duration": 0.17996998749999982
        },
        {
          "name": "F4",
          "midi": 65,
          "time": 5.240966999999999,
          "velocity": 0.6299212598425197,
          "duration": 0.17996998749999982
        },
        {
          "name": "A4",
          "midi": 69,
          "time": 5.421689999999998,
          "velocity": 0.6299212598425197,
          "duration": 0.17996998749999982
        },
        {
          "name": "F4",
          "midi": 65,
          "time": 5.602412999999998,
          "velocity": 0.6299212598425197,
          "duration": 0.17996998749999982
        },
        {
          "name": "C4",
          "midi": 60,
          "time": 5.783135999999997,
          "velocity": 0.6299212598425197,
          "duration": 0.7221389875000002
        },
        {
          "name": "C4",
          "midi": 60,
          "time": 6.506027999999997,
          "velocity": 0.6299212598425197,
          "duration": 0.7221389875000002
        },
        {
          "name": "F4",
          "midi": 65,
          "time": 7.228919999999997,
          "velocity": 0.6299212598425197,
          "duration": 0.7221389875000002
        },
        {
          "name": "F4",
          "midi": 65,
          "time": 7.951811999999997,
          "velocity": 0.6299212598425197,
          "duration": 0.7221389874999993
        },
        {
          "name": "C4",
          "midi": 60,
          "time": 8.674703999999997,
          "velocity": 0.6299212598425197,
          "duration": 0.7221389874999993
        },
        {
          "name": "C4",
          "midi": 60,
          "time": 9.397595999999997,
          "velocity": 0.6299212598425197,
          "duration": 0.36069298750000023
        },
        {
          "name": "C4",
          "midi": 60,
          "time": 9.759041999999997,
          "velocity": 0.6299212598425197,
          "duration": 0.36069298750000023
        },
        {
          "name": "F4",
          "midi": 65,
          "time": 9.759041999999997,
          "velocity": 0.6299212598425197,
          "duration": 0.36069298750000023
        },
        {
          "name": "E4",
          "midi": 64,
          "time": 10.120487999999998,
          "velocity": 0.6299212598425197,
          "duration": 0.17996998749999982
        },
        {
          "name": "E4",
          "midi": 64,
          "time": 10.301210999999999,
          "velocity": 0.6299212598425197,
          "duration": 0.17996998749999982
        },
        {
          "name": "E4",
          "midi": 64,
          "time": 10.481933999999999,
          "velocity": 0.6299212598425197,
          "duration": 0.17996998749999982
        },
        {
          "name": "A4",
          "midi": 69,
          "time": 10.481933999999999,
          "velocity": 0.6299212598425197,
          "duration": 0.17996998749999982
        },
        {
          "name": "E4",
          "midi": 64,
          "time": 10.662657,
          "velocity": 0.6299212598425197,
          "duration": 0.17996998749999982
        },
        {
          "name": "A4",
          "midi": 69,
          "time": 10.662657,
          "velocity": 0.6299212598425197,
          "duration": 0.17996998749999982
        },
        {
          "name": "E4",
          "midi": 64,
          "time": 10.84338,
          "velocity": 0.6299212598425197,
          "duration": 0.17996998749999982
        },
        {
          "name": "A4",
          "midi": 69,
          "time": 10.84338,
          "velocity": 0.6299212598425197,
          "duration": 0.17996998749999982
        },
        {
          "name": "E4",
          "midi": 64,
          "time": 11.024103,
          "velocity": 0.6299212598425197,
          "duration": 0.17996998749999982
        },
        {
          "name": "A4",
          "midi": 69,
          "time": 11.024103,
          "velocity": 0.6299212598425197,
          "duration": 0.17996998749999982
        },
        {
          "name": "E4",
          "midi": 64,
          "time": 11.204826,
          "velocity": 0.6299212598425197,
          "duration": 0.17996998749999982
        },
        {
          "name": "A4",
          "midi": 69,
          "time": 11.204826,
          "velocity": 0.6299212598425197,
          "duration": 0.17996998749999982
        },
        {
          "name": "E4",
          "midi": 64,
          "time": 11.385549000000001,
          "velocity": 0.6299212598425197,
          "duration": 0.17996998749999982
        },
        {
          "name": "A4",
          "midi": 69,
          "time": 11.385549000000001,
          "velocity": 0.6299212598425197,
          "duration": 0.17996998749999982
        },
        {
          "name": "C4",
          "midi": 60,
          "time": 11.566272000000001,
          "velocity": 0.6299212598425197,
          "duration": 0.36069298750000023
        },
        {
          "name": "E4",
          "midi": 64,
          "time": 11.927718000000002,
          "velocity": 0.6299212598425197,
          "duration": 0.17996998749999982
        },
        {
          "name": "E4",
          "midi": 64,
          "time": 12.108441000000003,
          "velocity": 0.6299212598425197,
          "duration": 0.17996998749999982
        },
        {
          "name": "C4",
          "midi": 60,
          "time": 12.289164000000003,
          "velocity": 0.6299212598425197,
          "duration": 0.36069298750000023
        },
        {
          "name": "E4",
          "midi": 64,
          "time": 12.650610000000004,
          "velocity": 0.6299212598425197,
          "duration": 0.17996998749999982
        },
        {
          "name": "E4",
          "midi": 64,
          "time": 12.831333000000004,
          "velocity": 0.6299212598425197,
          "duration": 0.17996998749999982
        },
        {
          "name": "C4",
          "midi": 60,
          "time": 13.012056000000005,
          "velocity": 0.6299212598425197,
          "duration": 0.36069298750000023
        },
        {
          "name": "A4",
          "midi": 69,
          "time": 13.373502000000006,
          "velocity": 0.6299212598425197,
          "duration": 0.17996998749999982
        },
        {
          "name": "F4",
          "midi": 65,
          "time": 13.554225000000006,
          "velocity": 0.6299212598425197,
          "duration": 0.17996998749999982
        },
        {
          "name": "A4",
          "midi": 69,
          "time": 13.734948000000006,
          "velocity": 0.6299212598425197,
          "duration": 0.17996998749999982
        },
        {
          "name": "F4",
          "midi": 65,
          "time": 13.915671000000007,
          "velocity": 0.6299212598425197,
          "duration": 0.17996998749999982
        },
        {
          "name": "A4",
          "midi": 69,
          "time": 14.096394000000007,
          "velocity": 0.6299212598425197,
          "duration": 0.17996998749999982
        },
        {
          "name": "F4",
          "midi": 65,
          "time": 14.277117000000008,
          "velocity": 0.6299212598425197,
          "duration": 0.17996998749999982
        },
        {
          "name": "C4",
          "midi": 60,
          "time": 14.457840000000008,
          "velocity": 0.6299212598425197,
          "duration": 0.36069298750000023
        },
        {
          "name": "E4",
          "midi": 64,
          "time": 14.819286000000009,
          "velocity": 0.6299212598425197,
          "duration": 0.17996998749999982
        },
        {
          "name": "E4",
          "midi": 64,
          "time": 15.00000900000001,
          "velocity": 0.6299212598425197,
          "duration": 0.17996998749999982
        },
        {
          "name": "C4",
          "midi": 60,
          "time": 15.18073200000001,
          "velocity": 0.6299212598425197,
          "duration": 0.36069298750000023
        },
        {
          "name": "E4",
          "midi": 64,
          "time": 15.54217800000001,
          "velocity": 0.6299212598425197,
          "duration": 0.17996998749999982
        },
        {
          "name": "E4",
          "midi": 64,
          "time": 15.722901000000011,
          "velocity": 0.6299212598425197,
          "duration": 0.17996998749999982
        },
        {
          "name": "C4",
          "midi": 60,
          "time": 15.903624000000011,
          "velocity": 0.6299212598425197,
          "duration": 0.36069298749999845
        },
        {
          "name": "A4",
          "midi": 69,
          "time": 16.26507000000001,
          "velocity": 0.6299212598425197,
          "duration": 0.1799699875000016
        },
        {
          "name": "F4",
          "midi": 65,
          "time": 16.44579300000001,
          "velocity": 0.6299212598425197,
          "duration": 0.1799699875000016
        },
        {
          "name": "A4",
          "midi": 69,
          "time": 16.62651600000001,
          "velocity": 0.6299212598425197,
          "duration": 0.1799699875000016
        },
        {
          "name": "F4",
          "midi": 65,
          "time": 16.80723900000001,
          "velocity": 0.6299212598425197,
          "duration": 0.1799699875000016
        },
        {
          "name": "A4",
          "midi": 69,
          "time": 16.98796200000001,
          "velocity": 0.6299212598425197,
          "duration": 0.1799699875000016
        },
        {
          "name": "F4",
          "midi": 65,
          "time": 17.16868500000001,
          "velocity": 0.6299212598425197,
          "duration": 0.1799699875000016
        },
        {
          "name": "C4",
          "midi": 60,
          "time": 17.34940800000001,
          "velocity": 0.6299212598425197,
          "duration": 0.36069298749999845
        },
        {
          "name": "E4",
          "midi": 64,
          "time": 17.71085400000001,
          "velocity": 0.6299212598425197,
          "duration": 0.1799699875000016
        },
        {
          "name": "E4",
          "midi": 64,
          "time": 17.89157700000001,
          "velocity": 0.6299212598425197,
          "duration": 0.1799699875000016
        },
        {
          "name": "C4",
          "midi": 60,
          "time": 18.07230000000001,
          "velocity": 0.6299212598425197,
          "duration": 0.36069298749999845
        },
        {
          "name": "A4",
          "midi": 69,
          "time": 18.433746000000006,
          "velocity": 0.6299212598425197,
          "duration": 0.1799699875000016
        },
        {
          "name": "A4",
          "midi": 69,
          "time": 18.614469000000007,
          "velocity": 0.6299212598425197,
          "duration": 0.1799699875000016
        },
        {
          "name": "F4",
          "midi": 65,
          "time": 18.795192000000007,
          "velocity": 0.6299212598425197,
          "duration": 0.36069298749999845
        },
        {
          "name": "A4",
          "midi": 69,
          "time": 19.156638000000004,
          "velocity": 0.6299212598425197,
          "duration": 0.1799699875000016
        },
        {
          "name": "A4",
          "midi": 69,
          "time": 19.337361000000005,
          "velocity": 0.6299212598425197,
          "duration": 0.1799699875000016
        },
        {
          "name": "F4",
          "midi": 65,
          "time": 19.518084000000005,
          "velocity": 0.6299212598425197,
          "duration": 0.36069298749999845
        },
        {
          "name": "E4",
          "midi": 64,
          "time": 19.879530000000003,
          "velocity": 0.6299212598425197,
          "duration": 0.1799699875000016
        },
        {
          "name": "E4",
          "midi": 64,
          "time": 20.060253000000003,
          "velocity": 0.6299212598425197,
          "duration": 0.1799699875000016
        },
        {
          "name": "C4",
          "midi": 60,
          "time": 20.240976000000003,
          "velocity": 0.6299212598425197,
          "duration": 0.36069298749999845
        },
        {
          "name": "E4",
          "midi": 64,
          "time": 20.602422,
          "velocity": 0.6299212598425197,
          "duration": 0.1799699875000016
        },
        {
          "name": "E4",
          "midi": 64,
          "time": 20.783145,
          "velocity": 0.6299212598425197,
          "duration": 0.1799699875000016
        },
        {
          "name": "C4",
          "midi": 60,
          "time": 20.963868,
          "velocity": 0.6299212598425197,
          "duration": 0.36069298749999845
        },
        {
          "name": "C4",
          "midi": 60,
          "time": 21.325314,
          "velocity": 0.6299212598425197,
          "duration": 0.36069298749999845
        },
        {
          "name": "F4",
          "midi": 65,
          "time": 21.325314,
          "velocity": 0.6299212598425197,
          "duration": 0.36069298749999845
        },
        {
          "name": "E4",
          "midi": 64,
          "time": 21.686759999999996,
          "velocity": 0.6299212598425197,
          "duration": 0.1799699875000016
        },
        {
          "name": "E4",
          "midi": 64,
          "time": 21.867482999999996,
          "velocity": 0.6299212598425197,
          "duration": 0.1799699875000016
        },
        {
          "name": "E4",
          "midi": 64,
          "time": 22.048205999999997,
          "velocity": 0.6299212598425197,
          "duration": 0.1799699875000016
        },
        {
          "name": "A4",
          "midi": 69,
          "time": 22.048205999999997,
          "velocity": 0.6299212598425197,
          "duration": 0.1799699875000016
        },
        {
          "name": "E4",
          "midi": 64,
          "time": 22.228928999999997,
          "velocity": 0.6299212598425197,
          "duration": 0.1799699875000016
        },
        {
          "name": "A4",
          "midi": 69,
          "time": 22.228928999999997,
          "velocity": 0.6299212598425197,
          "duration": 0.1799699875000016
        },
        {
          "name": "E4",
          "midi": 64,
          "time": 22.409651999999998,
          "velocity": 0.6299212598425197,
          "duration": 0.1799699875000016
        },
        {
          "name": "A4",
          "midi": 69,
          "time": 22.409651999999998,
          "velocity": 0.6299212598425197,
          "duration": 0.1799699875000016
        },
        {
          "name": "E4",
          "midi": 64,
          "time": 22.590374999999998,
          "velocity": 0.6299212598425197,
          "duration": 0.1799699875000016
        },
        {
          "name": "A4",
          "midi": 69,
          "time": 22.590374999999998,
          "velocity": 0.6299212598425197,
          "duration": 0.1799699875000016
        },
        {
          "name": "E4",
          "midi": 64,
          "time": 22.771098,
          "velocity": 0.6299212598425197,
          "duration": 0.1799699875000016
        },
        {
          "name": "A4",
          "midi": 69,
          "time": 22.771098,
          "velocity": 0.6299212598425197,
          "duration": 0.1799699875000016
        },
        {
          "name": "E4",
          "midi": 64,
          "time": 22.951821,
          "velocity": 0.6299212598425197,
          "duration": 0.1799699875000016
        },
        {
          "name": "A4",
          "midi": 69,
          "time": 22.951821,
          "velocity": 0.6299212598425197,
          "duration": 0.1799699875000016
        },
        {
          "name": "F4",
          "midi": 65,
          "time": 23.132544,
          "velocity": 0.6299212598425197,
          "duration": 0.36069298749999845
        },
        {
          "name": "E4",
          "midi": 64,
          "time": 23.493989999999997,
          "velocity": 0.6299212598425197,
          "duration": 0.1799699875000016
        },
        {
          "name": "E4",
          "midi": 64,
          "time": 23.674712999999997,
          "velocity": 0.6299212598425197,
          "duration": 0.1799699875000016
        },
        {
          "name": "F4",
          "midi": 65,
          "time": 23.855435999999997,
          "velocity": 0.6299212598425197,
          "duration": 0.36069298749999845
        },
        {
          "name": "E4",
          "midi": 64,
          "time": 24.216881999999995,
          "velocity": 0.6299212598425197,
          "duration": 0.1799699875000016
        },
        {
          "name": "E4",
          "midi": 64,
          "time": 24.397604999999995,
          "velocity": 0.6299212598425197,
          "duration": 0.1799699875000016
        },
        {
          "name": "F4",
          "midi": 65,
          "time": 24.578327999999996,
          "velocity": 0.6299212598425197,
          "duration": 0.36069298749999845
        },
        {
          "name": "A4",
          "midi": 69,
          "time": 24.939773999999993,
          "velocity": 0.6299212598425197,
          "duration": 0.1799699875000016
        },
        {
          "name": "F4",
          "midi": 65,
          "time": 25.120496999999993,
          "velocity": 0.6299212598425197,
          "duration": 0.1799699875000016
        },
        {
          "name": "A4",
          "midi": 69,
          "time": 25.301219999999994,
          "velocity": 0.6299212598425197,
          "duration": 0.1799699875000016
        },
        {
          "name": "F4",
          "midi": 65,
          "time": 25.481942999999994,
          "velocity": 0.6299212598425197,
          "duration": 0.1799699875000016
        },
        {
          "name": "A4",
          "midi": 69,
          "time": 25.662665999999994,
          "velocity": 0.6299212598425197,
          "duration": 0.1799699875000016
        },
        {
          "name": "F4",
          "midi": 65,
          "time": 25.843388999999995,
          "velocity": 0.6299212598425197,
          "duration": 0.1799699875000016
        },
        {
          "name": "C4",
          "midi": 60,
          "time": 26.024111999999995,
          "velocity": 0.6299212598425197,
          "duration": 0.36069298749999845
        },
        {
          "name": "F4",
          "midi": 65,
          "time": 26.385557999999993,
          "velocity": 0.6299212598425197,
          "duration": 0.1799699875000016
        },
        {
          "name": "F4",
          "midi": 65,
          "time": 26.566280999999993,
          "velocity": 0.6299212598425197,
          "duration": 0.1799699875000016
        },
        {
          "name": "C4",
          "midi": 60,
          "time": 26.747003999999993,
          "velocity": 0.6299212598425197,
          "duration": 0.36069298749999845
        },
        {
          "name": "F4",
          "midi": 65,
          "time": 27.10844999999999,
          "velocity": 0.6299212598425197,
          "duration": 0.1799699875000016
        },
        {
          "name": "F4",
          "midi": 65,
          "time": 27.28917299999999,
          "velocity": 0.6299212598425197,
          "duration": 0.1799699875000016
        },
        {
          "name": "C4",
          "midi": 60,
          "time": 27.46989599999999,
          "velocity": 0.6299212598425197,
          "duration": 0.36069298749999845
        },
        {
          "name": "C4",
          "midi": 60,
          "time": 27.83134199999999,
          "velocity": 0.6299212598425197,
          "duration": 0.1799699875000016
        },
        {
          "name": "E4",
          "midi": 64,
          "time": 28.01206499999999,
          "velocity": 0.6299212598425197,
          "duration": 0.1799699875000016
        },
        {
          "name": "C4",
          "midi": 60,
          "time": 28.19278799999999,
          "velocity": 0.6299212598425197,
          "duration": 0.1799699875000016
        },
        {
          "name": "E4",
          "midi": 64,
          "time": 28.37351099999999,
          "velocity": 0.6299212598425197,
          "duration": 0.1799699875000016
        },
        {
          "name": "C4",
          "midi": 60,
          "time": 28.55423399999999,
          "velocity": 0.6299212598425197,
          "duration": 0.1799699875000016
        },
        {
          "name": "E4",
          "midi": 64,
          "time": 28.73495699999999,
          "velocity": 0.6299212598425197,
          "duration": 0.1799699875000016
        },
        {
          "name": "A4",
          "midi": 69,
          "time": 28.91567999999999,
          "velocity": 0.6299212598425197,
          "duration": 0.36069298749999845
        },
        {
          "name": "C4",
          "midi": 60,
          "time": 29.27712599999999,
          "velocity": 0.6299212598425197,
          "duration": 0.1799699875000016
        },
        {
          "name": "C4",
          "midi": 60,
          "time": 29.45784899999999,
          "velocity": 0.6299212598425197,
          "duration": 0.1799699875000016
        },
        {
          "name": "A4",
          "midi": 69,
          "time": 29.63857199999999,
          "velocity": 0.6299212598425197,
          "duration": 0.36069298749999845
        },
        {
          "name": "C4",
          "midi": 60,
          "time": 30.000017999999987,
          "velocity": 0.6299212598425197,
          "duration": 0.1799699875000016
        },
        {
          "name": "C4",
          "midi": 60,
          "time": 30.180740999999987,
          "velocity": 0.6299212598425197,
          "duration": 0.1799699875000016
        },
        {
          "name": "A4",
          "midi": 69,
          "time": 30.361463999999987,
          "velocity": 0.6299212598425197,
          "duration": 0.36069298749999845
        },
        {
          "name": "E4",
          "midi": 64,
          "time": 30.722909999999985,
          "velocity": 0.6299212598425197,
          "duration": 0.1799699875000016
        },
        {
          "name": "E4",
          "midi": 64,
          "time": 30.903632999999985,
          "velocity": 0.6299212598425197,
          "duration": 0.1799699875000016
        },
        {
          "name": "F4",
          "midi": 65,
          "time": 31.084355999999985,
          "velocity": 0.6299212598425197,
          "duration": 0.36069298749999845
        },
        {
          "name": "E4",
          "midi": 64,
          "time": 31.445801999999983,
          "velocity": 0.6299212598425197,
          "duration": 0.1799699875000016
        },
        {
          "name": "E4",
          "midi": 64,
          "time": 31.626524999999983,
          "velocity": 0.6299212598425197,
          "duration": 0.1799699875000016
        },
        {
          "name": "F4",
          "midi": 65,
          "time": 31.807247999999984,
          "velocity": 0.6299212598425197,
          "duration": 0.36069298749999845
        },
        {
          "name": "E4",
          "midi": 64,
          "time": 32.16869399999998,
          "velocity": 0.6299212598425197,
          "duration": 0.1799699875000016
        },
        {
          "name": "E4",
          "midi": 64,
          "time": 32.34941699999998,
          "velocity": 0.6299212598425197,
          "duration": 0.1799699875000016
        },
        {
          "name": "F4",
          "midi": 65,
          "time": 32.53013999999998,
          "velocity": 0.6299212598425197,
          "duration": 0.360692987500002
        },
        {
          "name": "C4",
          "midi": 60,
          "time": 32.89158599999998,
          "velocity": 0.6299212598425197,
          "duration": 0.360692987500002
        },
        {
          "name": "F4",
          "midi": 65,
          "time": 32.89158599999998,
          "velocity": 0.6299212598425197,
          "duration": 0.360692987500002
        },
        {
          "name": "E4",
          "midi": 64,
          "time": 33.25303199999998,
          "velocity": 0.6299212598425197,
          "duration": 0.1799699875000016
        },
        {
          "name": "E4",
          "midi": 64,
          "time": 33.433754999999984,
          "velocity": 0.6299212598425197,
          "duration": 0.1799699875000016
        },
        {
          "name": "A4",
          "midi": 69,
          "time": 33.433754999999984,
          "velocity": 0.6299212598425197,
          "duration": 0.1799699875000016
        },
        {
          "name": "E4",
          "midi": 64,
          "time": 33.614477999999984,
          "velocity": 0.6299212598425197,
          "duration": 0.1799699875000016
        },
        {
          "name": "A4",
          "midi": 69,
          "time": 33.614477999999984,
          "velocity": 0.6299212598425197,
          "duration": 0.1799699875000016
        },
        {
          "name": "E4",
          "midi": 64,
          "time": 33.795200999999985,
          "velocity": 0.6299212598425197,
          "duration": 0.1799699875000016
        },
        {
          "name": "A4",
          "midi": 69,
          "time": 33.795200999999985,
          "velocity": 0.6299212598425197,
          "duration": 0.1799699875000016
        },
        {
          "name": "E4",
          "midi": 64,
          "time": 33.975923999999985,
          "velocity": 0.6299212598425197,
          "duration": 0.1799699875000016
        },
        {
          "name": "A4",
          "midi": 69,
          "time": 33.975923999999985,
          "velocity": 0.6299212598425197,
          "duration": 0.1799699875000016
        },
        {
          "name": "E4",
          "midi": 64,
          "time": 34.156646999999985,
          "velocity": 0.6299212598425197,
          "duration": 0.1799699875000016
        },
        {
          "name": "A4",
          "midi": 69,
          "time": 34.156646999999985,
          "velocity": 0.6299212598425197,
          "duration": 0.1799699875000016
        },
        {
          "name": "E4",
          "midi": 64,
          "time": 34.337369999999986,
          "velocity": 0.6299212598425197,
          "duration": 0.1799699875000016
        },
        {
          "name": "A4",
          "midi": 69,
          "time": 34.337369999999986,
          "velocity": 0.6299212598425197,
          "duration": 0.1799699875000016
        },
        {
          "name": "E4",
          "midi": 64,
          "time": 34.518092999999986,
          "velocity": 0.6299212598425197,
          "duration": 0.1799699875000016
        },
        {
          "name": "A4",
          "midi": 69,
          "time": 34.518092999999986,
          "velocity": 0.6299212598425197,
          "duration": 0.1799699875000016
        },
        {
          "name": "F4",
          "midi": 65,
          "time": 34.69881599999999,
          "velocity": 0.6299212598425197,
          "duration": 0.360692987500002
        },
        {
          "name": "E4",
          "midi": 64,
          "time": 35.06026199999999,
          "velocity": 0.6299212598425197,
          "duration": 0.1799699875000016
        },
        {
          "name": "E4",
          "midi": 64,
          "time": 35.24098499999999,
          "velocity": 0.6299212598425197,
          "duration": 0.1799699875000016
        },
        {
          "name": "F4",
          "midi": 65,
          "time": 35.42170799999999,
          "velocity": 0.6299212598425197,
          "duration": 0.360692987500002
        },
        {
          "name": "E4",
          "midi": 64,
          "time": 35.78315399999999,
          "velocity": 0.6299212598425197,
          "duration": 0.1799699875000016
        },
        {
          "name": "E4",
          "midi": 64,
          "time": 35.96387699999999,
          "velocity": 0.6299212598425197,
          "duration": 0.1799699875000016
        },
        {
          "name": "F4",
          "midi": 65,
          "time": 36.14459999999999,
          "velocity": 0.6299212598425197,
          "duration": 0.360692987500002
        },
        {
          "name": "A4",
          "midi": 69,
          "time": 36.50604599999999,
          "velocity": 0.6299212598425197,
          "duration": 0.1799699875000016
        },
        {
          "name": "F4",
          "midi": 65,
          "time": 36.68676899999999,
          "velocity": 0.6299212598425197,
          "duration": 0.1799699875000016
        },
        {
          "name": "A4",
          "midi": 69,
          "time": 36.86749199999999,
          "velocity": 0.6299212598425197,
          "duration": 0.1799699875000016
        },
        {
          "name": "F4",
          "midi": 65,
          "time": 37.04821499999999,
          "velocity": 0.6299212598425197,
          "duration": 0.1799699875000016
        },
        {
          "name": "A4",
          "midi": 69,
          "time": 37.22893799999999,
          "velocity": 0.6299212598425197,
          "duration": 0.1799699875000016
        },
        {
          "name": "F4",
          "midi": 65,
          "time": 37.40966099999999,
          "velocity": 0.6299212598425197,
          "duration": 0.1799699875000016
        },
        {
          "name": "C4",
          "midi": 60,
          "time": 37.59038399999999,
          "velocity": 0.6299212598425197,
          "duration": 0.360692987500002
        },
        {
          "name": "F4",
          "midi": 65,
          "time": 37.951829999999994,
          "velocity": 0.6299212598425197,
          "duration": 0.1799699875000016
        },
        {
          "name": "F4",
          "midi": 65,
          "time": 38.132552999999994,
          "velocity": 0.6299212598425197,
          "duration": 0.1799699875000016
        },
        {
          "name": "C4",
          "midi": 60,
          "time": 38.313275999999995,
          "velocity": 0.6299212598425197,
          "duration": 0.360692987500002
        },
        {
          "name": "F4",
          "midi": 65,
          "time": 38.674721999999996,
          "velocity": 0.6299212598425197,
          "duration": 0.1799699875000016
        },
        {
          "name": "F4",
          "midi": 65,
          "time": 38.855444999999996,
          "velocity": 0.6299212598425197,
          "duration": 0.1799699875000016
        },
        {
          "name": "C4",
          "midi": 60,
          "time": 39.036167999999996,
          "velocity": 0.6299212598425197,
          "duration": 0.360692987500002
        },
        {
          "name": "C4",
          "midi": 60,
          "time": 39.397614,
          "velocity": 0.6299212598425197,
          "duration": 0.1799699875000016
        },
        {
          "name": "E4",
          "midi": 64,
          "time": 39.578337,
          "velocity": 0.6299212598425197,
          "duration": 0.1799699875000016
        },
        {
          "name": "C4",
          "midi": 60,
          "time": 39.75906,
          "velocity": 0.6299212598425197,
          "duration": 0.1799699875000016
        },
        {
          "name": "E4",
          "midi": 64,
          "time": 39.939783,
          "velocity": 0.6299212598425197,
          "duration": 0.1799699875000016
        },
        {
          "name": "C4",
          "midi": 60,
          "time": 40.120506,
          "velocity": 0.6299212598425197,
          "duration": 0.1799699875000016
        },
        {
          "name": "E4",
          "midi": 64,
          "time": 40.301229,
          "velocity": 0.6299212598425197,
          "duration": 0.1799699875000016
        },
        {
          "name": "A4",
          "midi": 69,
          "time": 40.481952,
          "velocity": 0.6299212598425197,
          "duration": 0.360692987500002
        },
        {
          "name": "C4",
          "midi": 60,
          "time": 40.843398,
          "velocity": 0.6299212598425197,
          "duration": 0.1799699875000016
        },
        {
          "name": "C4",
          "midi": 60,
          "time": 41.024121,
          "velocity": 0.6299212598425197,
          "duration": 0.1799699875000016
        },
        {
          "name": "A4",
          "midi": 69,
          "time": 41.204844,
          "velocity": 0.6299212598425197,
          "duration": 0.360692987500002
        },
        {
          "name": "C4",
          "midi": 60,
          "time": 41.56629,
          "velocity": 0.6299212598425197,
          "duration": 0.1799699875000016
        },
        {
          "name": "C4",
          "midi": 60,
          "time": 41.747013,
          "velocity": 0.6299212598425197,
          "duration": 0.1799699875000016
        },
        {
          "name": "A4",
          "midi": 69,
          "time": 41.927736,
          "velocity": 0.6299212598425197,
          "duration": 0.360692987500002
        },
        {
          "name": "E4",
          "midi": 64,
          "time": 42.289182000000004,
          "velocity": 0.6299212598425197,
          "duration": 0.1799699875000016
        },
        {
          "name": "E4",
          "midi": 64,
          "time": 42.469905000000004,
          "velocity": 0.6299212598425197,
          "duration": 0.1799699875000016
        },
        {
          "name": "F4",
          "midi": 65,
          "time": 42.650628000000005,
          "velocity": 0.6299212598425197,
          "duration": 0.360692987500002
        },
        {
          "name": "E4",
          "midi": 64,
          "time": 43.012074000000005,
          "velocity": 0.6299212598425197,
          "duration": 0.1799699875000016
        },
        {
          "name": "E4",
          "midi": 64,
          "time": 43.192797000000006,
          "velocity": 0.6299212598425197,
          "duration": 0.1799699875000016
        },
        {
          "name": "F4",
          "midi": 65,
          "time": 43.373520000000006,
          "velocity": 0.6299212598425197,
          "duration": 0.360692987500002
        },
        {
          "name": "E4",
          "midi": 64,
          "time": 43.73496600000001,
          "velocity": 0.6299212598425197,
          "duration": 0.1799699875000016
        },
        {
          "name": "E4",
          "midi": 64,
          "time": 43.91568900000001,
          "velocity": 0.6299212598425197,
          "duration": 0.1799699875000016
        },
        {
          "name": "F4",
          "midi": 65,
          "time": 44.09641200000001,
          "velocity": 0.6299212598425197,
          "duration": 0.360692987500002
        },
        {
          "name": "C4",
          "midi": 60,
          "time": 44.45785800000001,
          "velocity": 0.6299212598425197,
          "duration": 0.360692987500002
        },
        {
          "name": "F4",
          "midi": 65,
          "time": 44.45785800000001,
          "velocity": 0.6299212598425197,
          "duration": 0.360692987500002
        },
        {
          "name": "E4",
          "midi": 64,
          "time": 44.81930400000001,
          "velocity": 0.6299212598425197,
          "duration": 0.1799699875000016
        },
        {
          "name": "E4",
          "midi": 64,
          "time": 45.00002700000001,
          "velocity": 0.6299212598425197,
          "duration": 0.1799699875000016
        },
        {
          "name": "A4",
          "midi": 69,
          "time": 45.00002700000001,
          "velocity": 0.6299212598425197,
          "duration": 0.1799699875000016
        },
        {
          "name": "E4",
          "midi": 64,
          "time": 45.18075000000001,
          "velocity": 0.6299212598425197,
          "duration": 0.1799699875000016
        },
        {
          "name": "A4",
          "midi": 69,
          "time": 45.18075000000001,
          "velocity": 0.6299212598425197,
          "duration": 0.1799699875000016
        },
        {
          "name": "E4",
          "midi": 64,
          "time": 45.36147300000001,
          "velocity": 0.6299212598425197,
          "duration": 0.1799699875000016
        },
        {
          "name": "A4",
          "midi": 69,
          "time": 45.36147300000001,
          "velocity": 0.6299212598425197,
          "duration": 0.1799699875000016
        },
        {
          "name": "E4",
          "midi": 64,
          "time": 45.54219600000001,
          "velocity": 0.6299212598425197,
          "duration": 0.1799699875000016
        },
        {
          "name": "A4",
          "midi": 69,
          "time": 45.54219600000001,
          "velocity": 0.6299212598425197,
          "duration": 0.1799699875000016
        },
        {
          "name": "E4",
          "midi": 64,
          "time": 45.72291900000001,
          "velocity": 0.6299212598425197,
          "duration": 0.1799699875000016
        },
        {
          "name": "A4",
          "midi": 69,
          "time": 45.72291900000001,
          "velocity": 0.6299212598425197,
          "duration": 0.1799699875000016
        },
        {
          "name": "E4",
          "midi": 64,
          "time": 45.90364200000001,
          "velocity": 0.6299212598425197,
          "duration": 0.1799699875000016
        },
        {
          "name": "A4",
          "midi": 69,
          "time": 45.90364200000001,
          "velocity": 0.6299212598425197,
          "duration": 0.1799699875000016
        },
        {
          "name": "E4",
          "midi": 64,
          "time": 46.08436500000001,
          "velocity": 0.6299212598425197,
          "duration": 0.1799699875000016
        },
        {
          "name": "A4",
          "midi": 69,
          "time": 46.08436500000001,
          "velocity": 0.6299212598425197,
          "duration": 0.1799699875000016
        },
        {
          "name": "A4",
          "midi": 69,
          "time": 46.26508800000001,
          "velocity": 0.6299212598425197,
          "duration": 0.360692987500002
        },
        {
          "name": "F4",
          "midi": 65,
          "time": 46.626534000000014,
          "velocity": 0.6299212598425197,
          "duration": 0.1799699875000016
        },
        {
          "name": "F4",
          "midi": 65,
          "time": 46.807257000000014,
          "velocity": 0.6299212598425197,
          "duration": 0.1799699875000016
        },
        {
          "name": "A4",
          "midi": 69,
          "time": 46.987980000000015,
          "velocity": 0.6299212598425197,
          "duration": 0.360692987500002
        },
        {
          "name": "F4",
          "midi": 65,
          "time": 47.349426000000015,
          "velocity": 0.6299212598425197,
          "duration": 0.1799699875000016
        },
        {
          "name": "F4",
          "midi": 65,
          "time": 47.530149000000016,
          "velocity": 0.6299212598425197,
          "duration": 0.1799699875000016
        },
        {
          "name": "A4",
          "midi": 69,
          "time": 47.710872000000016,
          "velocity": 0.6299212598425197,
          "duration": 0.360692987500002
        },
        {
          "name": "F4",
          "midi": 65,
          "time": 48.07231800000002,
          "velocity": 0.6299212598425197,
          "duration": 0.1799699875000016
        },
        {
          "name": "A4",
          "midi": 69,
          "time": 48.07231800000002,
          "velocity": 0.6299212598425197,
          "duration": 0.1799699875000016
        },
        {
          "name": "F4",
          "midi": 65,
          "time": 48.25304100000002,
          "velocity": 0.6299212598425197,
          "duration": 0.1799699875000016
        },
        {
          "name": "A4",
          "midi": 69,
          "time": 48.25304100000002,
          "velocity": 0.6299212598425197,
          "duration": 0.1799699875000016
        },
        {
          "name": "F4",
          "midi": 65,
          "time": 48.43376400000002,
          "velocity": 0.6299212598425197,
          "duration": 0.1799699875000016
        },
        {
          "name": "A4",
          "midi": 69,
          "time": 48.43376400000002,
          "velocity": 0.6299212598425197,
          "duration": 0.1799699875000016
        },
        {
          "name": "F4",
          "midi": 65,
          "time": 48.61448700000002,
          "velocity": 0.6299212598425197,
          "duration": 0.1799699875000016
        },
        {
          "name": "A4",
          "midi": 69,
          "time": 48.61448700000002,
          "velocity": 0.6299212598425197,
          "duration": 0.1799699875000016
        },
        {
          "name": "F4",
          "midi": 65,
          "time": 48.79521000000002,
          "velocity": 0.6299212598425197,
          "duration": 0.1799699875000016
        },
        {
          "name": "A4",
          "midi": 69,
          "time": 48.79521000000002,
          "velocity": 0.6299212598425197,
          "duration": 0.1799699875000016
        },
        {
          "name": "F4",
          "midi": 65,
          "time": 48.97593300000002,
          "velocity": 0.6299212598425197,
          "duration": 0.1799699875000016
        },
        {
          "name": "A4",
          "midi": 69,
          "time": 48.97593300000002,
          "velocity": 0.6299212598425197,
          "duration": 0.1799699875000016
        },
        {
          "name": "C4",
          "midi": 60,
          "time": 49.15665600000002,
          "velocity": 0.6299212598425197,
          "duration": 0.360692987500002
        },
        {
          "name": "E4",
          "midi": 64,
          "time": 49.51810200000002,
          "velocity": 0.6299212598425197,
          "duration": 0.1799699875000016
        },
        {
          "name": "E4",
          "midi": 64,
          "time": 49.69882500000002,
          "velocity": 0.6299212598425197,
          "duration": 0.1799699875000016
        },
        {
          "name": "C4",
          "midi": 60,
          "time": 49.87954800000002,
          "velocity": 0.6299212598425197,
          "duration": 0.360692987500002
        },
        {
          "name": "E4",
          "midi": 64,
          "time": 50.24099400000002,
          "velocity": 0.6299212598425197,
          "duration": 0.1799699875000016
        },
        {
          "name": "E4",
          "midi": 64,
          "time": 50.42171700000002,
          "velocity": 0.6299212598425197,
          "duration": 0.1799699875000016
        },
        {
          "name": "C4",
          "midi": 60,
          "time": 50.60244000000002,
          "velocity": 0.6299212598425197,
          "duration": 0.360692987500002
        },
        {
          "name": "C4",
          "midi": 60,
          "time": 50.963886000000024,
          "velocity": 0.6299212598425197,
          "duration": 0.1799699875000016
        },
        {
          "name": "E4",
          "midi": 64,
          "time": 50.963886000000024,
          "velocity": 0.6299212598425197,
          "duration": 0.1799699875000016
        },
        {
          "name": "C4",
          "midi": 60,
          "time": 51.144609000000024,
          "velocity": 0.6299212598425197,
          "duration": 0.1799699875000016
        },
        {
          "name": "E4",
          "midi": 64,
          "time": 51.144609000000024,
          "velocity": 0.6299212598425197,
          "duration": 0.1799699875000016
        },
        {
          "name": "C4",
          "midi": 60,
          "time": 51.325332000000024,
          "velocity": 0.6299212598425197,
          "duration": 0.1799699875000016
        },
        {
          "name": "E4",
          "midi": 64,
          "time": 51.325332000000024,
          "velocity": 0.6299212598425197,
          "duration": 0.1799699875000016
        },
        {
          "name": "C4",
          "midi": 60,
          "time": 51.506055000000025,
          "velocity": 0.6299212598425197,
          "duration": 0.1799699875000016
        },
        {
          "name": "E4",
          "midi": 64,
          "time": 51.506055000000025,
          "velocity": 0.6299212598425197,
          "duration": 0.1799699875000016
        },
        {
          "name": "C4",
          "midi": 60,
          "time": 51.686778000000025,
          "velocity": 0.6299212598425197,
          "duration": 0.1799699875000016
        },
        {
          "name": "E4",
          "midi": 64,
          "time": 51.686778000000025,
          "velocity": 0.6299212598425197,
          "duration": 0.1799699875000016
        },
        {
          "name": "C4",
          "midi": 60,
          "time": 51.867501000000026,
          "velocity": 0.6299212598425197,
          "duration": 0.1799699875000016
        },
        {
          "name": "E4",
          "midi": 64,
          "time": 51.867501000000026,
          "velocity": 0.6299212598425197,
          "duration": 0.1799699875000016
        },
        {
          "name": "F4",
          "midi": 65,
          "time": 52.048224000000026,
          "velocity": 0.6299212598425197,
          "duration": 0.360692987500002
        },
        {
          "name": "E4",
          "midi": 64,
          "time": 52.40967000000003,
          "velocity": 0.6299212598425197,
          "duration": 0.1799699875000016
        },
        {
          "name": "E4",
          "midi": 64,
          "time": 52.59039300000003,
          "velocity": 0.6299212598425197,
          "duration": 0.1799699875000016
        },
        {
          "name": "F4",
          "midi": 65,
          "time": 52.77111600000003,
          "velocity": 0.6299212598425197,
          "duration": 0.360692987500002
        },
        {
          "name": "E4",
          "midi": 64,
          "time": 53.13256200000003,
          "velocity": 0.6299212598425197,
          "duration": 0.1799699875000016
        },
        {
          "name": "E4",
          "midi": 64,
          "time": 53.31328500000003,
          "velocity": 0.6299212598425197,
          "duration": 0.1799699875000016
        },
        {
          "name": "F4",
          "midi": 65,
          "time": 53.49400800000003,
          "velocity": 0.6299212598425197,
          "duration": 0.360692987500002
        },
        {
          "name": "E4",
          "midi": 64,
          "time": 53.85545400000003,
          "velocity": 0.6299212598425197,
          "duration": 0.1799699875000016
        },
        {
          "name": "F4",
          "midi": 65,
          "time": 53.85545400000003,
          "velocity": 0.6299212598425197,
          "duration": 0.1799699875000016
        },
        {
          "name": "E4",
          "midi": 64,
          "time": 54.03617700000003,
          "velocity": 0.6299212598425197,
          "duration": 0.1799699875000016
        },
        {
          "name": "F4",
          "midi": 65,
          "time": 54.03617700000003,
          "velocity": 0.6299212598425197,
          "duration": 0.1799699875000016
        },
        {
          "name": "E4",
          "midi": 64,
          "time": 54.21690000000003,
          "velocity": 0.6299212598425197,
          "duration": 0.1799699875000016
        },
        {
          "name": "F4",
          "midi": 65,
          "time": 54.21690000000003,
          "velocity": 0.6299212598425197,
          "duration": 0.1799699875000016
        },
        {
          "name": "E4",
          "midi": 64,
          "time": 54.39762300000003,
          "velocity": 0.6299212598425197,
          "duration": 0.1799699875000016
        },
        {
          "name": "F4",
          "midi": 65,
          "time": 54.39762300000003,
          "velocity": 0.6299212598425197,
          "duration": 0.1799699875000016
        },
        {
          "name": "E4",
          "midi": 64,
          "time": 54.57834600000003,
          "velocity": 0.6299212598425197,
          "duration": 0.1799699875000016
        },
        {
          "name": "F4",
          "midi": 65,
          "time": 54.57834600000003,
          "velocity": 0.6299212598425197,
          "duration": 0.1799699875000016
        },
        {
          "name": "E4",
          "midi": 64,
          "time": 54.75906900000003,
          "velocity": 0.6299212598425197,
          "duration": 0.1799699875000016
        },
        {
          "name": "F4",
          "midi": 65,
          "time": 54.75906900000003,
          "velocity": 0.6299212598425197,
          "duration": 0.1799699875000016
        },
        {
          "name": "C4",
          "midi": 60,
          "time": 54.93979200000003,
          "velocity": 0.6299212598425197,
          "duration": 0.360692987500002
        },
        {
          "name": "A4",
          "midi": 69,
          "time": 54.93979200000003,
          "velocity": 0.6299212598425197,
          "duration": 0.360692987500002
        },
        {
          "name": "C4",
          "midi": 60,
          "time": 55.30123800000003,
          "velocity": 0.6299212598425197,
          "duration": 0.360692987500002
        },
        {
          "name": "A4",
          "midi": 69,
          "time": 55.30123800000003,
          "velocity": 0.6299212598425197,
          "duration": 0.360692987500002
        },
        {
          "name": "C4",
          "midi": 60,
          "time": 55.662684000000034,
          "velocity": 0.6299212598425197,
          "duration": 0.360692987500002
        },
        {
          "name": "A4",
          "midi": 69,
          "time": 55.662684000000034,
          "velocity": 0.6299212598425197,
          "duration": 0.360692987500002
        },
        {
          "name": "A4",
          "midi": 69,
          "time": 56.024130000000035,
          "velocity": 0.6299212598425197,
          "duration": 0.360692987500002
        },
        {
          "name": "C4",
          "midi": 60,
          "time": 56.385576000000036,
          "velocity": 0.6299212598425197,
          "duration": 0.360692987500002
        },
        {
          "name": "A4",
          "midi": 69,
          "time": 56.385576000000036,
          "velocity": 0.6299212598425197,
          "duration": 0.360692987500002
        },
        {
          "name": "C4",
          "midi": 60,
          "time": 56.74702200000004,
          "velocity": 0.6299212598425197,
          "duration": 0.360692987500002
        },
        {
          "name": "A4",
          "midi": 69,
          "time": 56.74702200000004,
          "velocity": 0.6299212598425197,
          "duration": 0.360692987500002
        },
        {
          "name": "C4",
          "midi": 60,
          "time": 57.10846800000004,
          "velocity": 0.6299212598425197,
          "duration": 0.360692987500002
        },
        {
          "name": "A4",
          "midi": 69,
          "time": 57.10846800000004,
          "velocity": 0.6299212598425197,
          "duration": 0.360692987500002
        },
        {
          "name": "C4",
          "midi": 60,
          "time": 57.46991400000004,
          "velocity": 0.6299212598425197,
          "duration": 0.360692987500002
        },
        {
          "name": "A4",
          "midi": 69,
          "time": 57.46991400000004,
          "velocity": 0.6299212598425197,
          "duration": 0.360692987500002
        },
        {
          "name": "A4",
          "midi": 69,
          "time": 57.83136000000004,
          "velocity": 0.6299212598425197,
          "duration": 0.360692987500002
        },
        {
          "name": "F4",
          "midi": 65,
          "time": 58.19280600000004,
          "velocity": 0.6299212598425197,
          "duration": 0.1799699875000016
        },
        {
          "name": "F4",
          "midi": 65,
          "time": 58.37352900000004,
          "velocity": 0.6299212598425197,
          "duration": 0.1799699875000016
        },
        {
          "name": "A4",
          "midi": 69,
          "time": 58.55425200000004,
          "velocity": 0.6299212598425197,
          "duration": 0.360692987500002
        },
        {
          "name": "F4",
          "midi": 65,
          "time": 58.91569800000004,
          "velocity": 0.6299212598425197,
          "duration": 0.1799699875000016
        },
        {
          "name": "F4",
          "midi": 65,
          "time": 59.09642100000004,
          "velocity": 0.6299212598425197,
          "duration": 0.1799699875000016
        },
        {
          "name": "A4",
          "midi": 69,
          "time": 59.27714400000004,
          "velocity": 0.6299212598425197,
          "duration": 0.360692987500002
        },
        {
          "name": "F4",
          "midi": 65,
          "time": 59.63859000000004,
          "velocity": 0.6299212598425197,
          "duration": 0.1799699875000016
        },
        {
          "name": "A4",
          "midi": 69,
          "time": 59.63859000000004,
          "velocity": 0.6299212598425197,
          "duration": 0.1799699875000016
        },
        {
          "name": "F4",
          "midi": 65,
          "time": 59.819313000000044,
          "velocity": 0.6299212598425197,
          "duration": 0.1799699875000016
        },
        {
          "name": "A4",
          "midi": 69,
          "time": 59.819313000000044,
          "velocity": 0.6299212598425197,
          "duration": 0.1799699875000016
        },
        {
          "name": "F4",
          "midi": 65,
          "time": 60.000036000000044,
          "velocity": 0.6299212598425197,
          "duration": 0.1799699875000016
        },
        {
          "name": "A4",
          "midi": 69,
          "time": 60.000036000000044,
          "velocity": 0.6299212598425197,
          "duration": 0.1799699875000016
        },
        {
          "name": "F4",
          "midi": 65,
          "time": 60.180759000000045,
          "velocity": 0.6299212598425197,
          "duration": 0.1799699875000016
        },
        {
          "name": "A4",
          "midi": 69,
          "time": 60.180759000000045,
          "velocity": 0.6299212598425197,
          "duration": 0.1799699875000016
        },
        {
          "name": "F4",
          "midi": 65,
          "time": 60.361482000000045,
          "velocity": 0.6299212598425197,
          "duration": 0.1799699875000016
        },
        {
          "name": "A4",
          "midi": 69,
          "time": 60.361482000000045,
          "velocity": 0.6299212598425197,
          "duration": 0.1799699875000016
        },
        {
          "name": "F4",
          "midi": 65,
          "time": 60.542205000000045,
          "velocity": 0.6299212598425197,
          "duration": 0.1799699875000016
        },
        {
          "name": "A4",
          "midi": 69,
          "time": 60.542205000000045,
          "velocity": 0.6299212598425197,
          "duration": 0.1799699875000016
        },
        {
          "name": "C4",
          "midi": 60,
          "time": 60.722928000000046,
          "velocity": 0.6299212598425197,
          "duration": 0.360692987500002
        },
        {
          "name": "E4",
          "midi": 64,
          "time": 61.08437400000005,
          "velocity": 0.6299212598425197,
          "duration": 0.1799699875000016
        },
        {
          "name": "E4",
          "midi": 64,
          "time": 61.26509700000005,
          "velocity": 0.6299212598425197,
          "duration": 0.1799699875000016
        },
        {
          "name": "C4",
          "midi": 60,
          "time": 61.44582000000005,
          "velocity": 0.6299212598425197,
          "duration": 0.360692987500002
        },
        {
          "name": "E4",
          "midi": 64,
          "time": 61.80726600000005,
          "velocity": 0.6299212598425197,
          "duration": 0.1799699875000016
        },
        {
          "name": "E4",
          "midi": 64,
          "time": 61.98798900000005,
          "velocity": 0.6299212598425197,
          "duration": 0.1799699875000016
        },
        {
          "name": "C4",
          "midi": 60,
          "time": 62.16871200000005,
          "velocity": 0.6299212598425197,
          "duration": 0.360692987500002
        },
        {
          "name": "C4",
          "midi": 60,
          "time": 62.53015800000005,
          "velocity": 0.6299212598425197,
          "duration": 0.1799699875000016
        },
        {
          "name": "E4",
          "midi": 64,
          "time": 62.53015800000005,
          "velocity": 0.6299212598425197,
          "duration": 0.1799699875000016
        },
        {
          "name": "C4",
          "midi": 60,
          "time": 62.71088100000005,
          "velocity": 0.6299212598425197,
          "duration": 0.1799699875000016
        },
        {
          "name": "E4",
          "midi": 64,
          "time": 62.71088100000005,
          "velocity": 0.6299212598425197,
          "duration": 0.1799699875000016
        },
        {
          "name": "C4",
          "midi": 60,
          "time": 62.89160400000005,
          "velocity": 0.6299212598425197,
          "duration": 0.1799699875000016
        },
        {
          "name": "E4",
          "midi": 64,
          "time": 62.89160400000005,
          "velocity": 0.6299212598425197,
          "duration": 0.1799699875000016
        },
        {
          "name": "C4",
          "midi": 60,
          "time": 63.07232700000005,
          "velocity": 0.6299212598425197,
          "duration": 0.1799699875000016
        },
        {
          "name": "E4",
          "midi": 64,
          "time": 63.07232700000005,
          "velocity": 0.6299212598425197,
          "duration": 0.1799699875000016
        },
        {
          "name": "C4",
          "midi": 60,
          "time": 63.25305000000005,
          "velocity": 0.6299212598425197,
          "duration": 0.1799699875000016
        },
        {
          "name": "E4",
          "midi": 64,
          "time": 63.25305000000005,
          "velocity": 0.6299212598425197,
          "duration": 0.1799699875000016
        },
        {
          "name": "C4",
          "midi": 60,
          "time": 63.43377300000005,
          "velocity": 0.6299212598425197,
          "duration": 0.1799699875000016
        },
        {
          "name": "E4",
          "midi": 64,
          "time": 63.43377300000005,
          "velocity": 0.6299212598425197,
          "duration": 0.1799699875000016
        },
        {
          "name": "F4",
          "midi": 65,
          "time": 63.61449600000005,
          "velocity": 0.6299212598425197,
          "duration": 0.360692987500002
        },
        {
          "name": "E4",
          "midi": 64,
          "time": 63.97594200000005,
          "velocity": 0.6299212598425197,
          "duration": 0.1799699874999945
        },
        {
          "name": "E4",
          "midi": 64,
          "time": 64.15666500000005,
          "velocity": 0.6299212598425197,
          "duration": 0.1799699875000016
        },
        {
          "name": "F4",
          "midi": 65,
          "time": 64.33738800000005,
          "velocity": 0.6299212598425197,
          "duration": 0.360692987500002
        },
        {
          "name": "E4",
          "midi": 64,
          "time": 64.69883400000005,
          "velocity": 0.6299212598425197,
          "duration": 0.1799699875000016
        },
        {
          "name": "E4",
          "midi": 64,
          "time": 64.87955700000005,
          "velocity": 0.6299212598425197,
          "duration": 0.1799699875000016
        },
        {
          "name": "F4",
          "midi": 65,
          "time": 65.06028000000005,
          "velocity": 0.6299212598425197,
          "duration": 0.360692987500002
        },
        {
          "name": "E4",
          "midi": 64,
          "time": 65.42172600000005,
          "velocity": 0.6299212598425197,
          "duration": 0.1799699875000016
        },
        {
          "name": "F4",
          "midi": 65,
          "time": 65.42172600000005,
          "velocity": 0.6299212598425197,
          "duration": 0.1799699875000016
        },
        {
          "name": "E4",
          "midi": 64,
          "time": 65.60244900000005,
          "velocity": 0.6299212598425197,
          "duration": 0.1799699875000016
        },
        {
          "name": "F4",
          "midi": 65,
          "time": 65.60244900000005,
          "velocity": 0.6299212598425197,
          "duration": 0.1799699875000016
        },
        {
          "name": "E4",
          "midi": 64,
          "time": 65.78317200000005,
          "velocity": 0.6299212598425197,
          "duration": 0.1799699875000016
        },
        {
          "name": "F4",
          "midi": 65,
          "time": 65.78317200000005,
          "velocity": 0.6299212598425197,
          "duration": 0.1799699875000016
        },
        {
          "name": "E4",
          "midi": 64,
          "time": 65.96389500000005,
          "velocity": 0.6299212598425197,
          "duration": 0.1799699875000016
        },
        {
          "name": "F4",
          "midi": 65,
          "time": 65.96389500000005,
          "velocity": 0.6299212598425197,
          "duration": 0.1799699875000016
        },
        {
          "name": "E4",
          "midi": 64,
          "time": 66.14461800000005,
          "velocity": 0.6299212598425197,
          "duration": 0.1799699875000016
        },
        {
          "name": "F4",
          "midi": 65,
          "time": 66.14461800000005,
          "velocity": 0.6299212598425197,
          "duration": 0.1799699875000016
        },
        {
          "name": "E4",
          "midi": 64,
          "time": 66.32534100000005,
          "velocity": 0.6299212598425197,
          "duration": 0.1799699875000016
        },
        {
          "name": "F4",
          "midi": 65,
          "time": 66.32534100000005,
          "velocity": 0.6299212598425197,
          "duration": 0.1799699875000016
        },
        {
          "name": "C4",
          "midi": 60,
          "time": 66.50606400000005,
          "velocity": 0.6299212598425197,
          "duration": 0.360692987500002
        },
        {
          "name": "A4",
          "midi": 69,
          "time": 66.50606400000005,
          "velocity": 0.6299212598425197,
          "duration": 0.360692987500002
        },
        {
          "name": "C4",
          "midi": 60,
          "time": 66.86751000000005,
          "velocity": 0.6299212598425197,
          "duration": 0.360692987500002
        },
        {
          "name": "A4",
          "midi": 69,
          "time": 66.86751000000005,
          "velocity": 0.6299212598425197,
          "duration": 0.360692987500002
        },
        {
          "name": "C4",
          "midi": 60,
          "time": 67.22895600000005,
          "velocity": 0.6299212598425197,
          "duration": 0.360692987500002
        },
        {
          "name": "A4",
          "midi": 69,
          "time": 67.22895600000005,
          "velocity": 0.6299212598425197,
          "duration": 0.360692987500002
        },
        {
          "name": "A4",
          "midi": 69,
          "time": 67.59040200000005,
          "velocity": 0.6299212598425197,
          "duration": 0.360692987500002
        },
        {
          "name": "C4",
          "midi": 60,
          "time": 67.95184800000006,
          "velocity": 0.6299212598425197,
          "duration": 0.360692987500002
        },
        {
          "name": "A4",
          "midi": 69,
          "time": 67.95184800000006,
          "velocity": 0.6299212598425197,
          "duration": 0.360692987500002
        },
        {
          "name": "C4",
          "midi": 60,
          "time": 68.31329400000006,
          "velocity": 0.6299212598425197,
          "duration": 0.360692987500002
        },
        {
          "name": "A4",
          "midi": 69,
          "time": 68.31329400000006,
          "velocity": 0.6299212598425197,
          "duration": 0.360692987500002
        },
        {
          "name": "C4",
          "midi": 60,
          "time": 68.67474000000006,
          "velocity": 0.6299212598425197,
          "duration": 0.360692987500002
        },
        {
          "name": "A4",
          "midi": 69,
          "time": 68.67474000000006,
          "velocity": 0.6299212598425197,
          "duration": 0.360692987500002
        },
        {
          "name": "C4",
          "midi": 60,
          "time": 69.03618600000006,
          "velocity": 0.6299212598425197,
          "duration": 0.360692987500002
        },
        {
          "name": "A4",
          "midi": 69,
          "time": 69.03618600000006,
          "velocity": 0.6299212598425197,
          "duration": 0.360692987500002
        },
        {
          "name": "E4",
          "midi": 64,
          "time": 69.39763200000006,
          "velocity": 0.6299212598425197,
          "duration": 0.360692987500002
        },
        {
          "name": "E4",
          "midi": 64,
          "time": 69.75907800000006,
          "velocity": 0.6299212598425197,
          "duration": 0.360692987500002
        },
        {
          "name": "E4",
          "midi": 64,
          "time": 70.12052400000006,
          "velocity": 0.6299212598425197,
          "duration": 0.360692987500002
        },
        {
          "name": "E4",
          "midi": 64,
          "time": 70.48197000000006,
          "velocity": 0.6299212598425197,
          "duration": 0.360692987500002
        },
        {
          "name": "E4",
          "midi": 64,
          "time": 70.84341600000006,
          "velocity": 0.6299212598425197,
          "duration": 0.360692987500002
        },
        {
          "name": "E4",
          "midi": 64,
          "time": 71.20486200000006,
          "velocity": 0.6299212598425197,
          "duration": 0.360692987500002
        },
        {
          "name": "E4",
          "midi": 64,
          "time": 71.56630800000006,
          "velocity": 0.6299212598425197,
          "duration": 0.360692987500002
        },
        {
          "name": "E4",
          "midi": 64,
          "time": 71.92775400000006,
          "velocity": 0.6299212598425197,
          "duration": 0.360692987500002
        },
        {
          "name": "F4",
          "midi": 65,
          "time": 72.28920000000006,
          "velocity": 0.6299212598425197,
          "duration": 0.360692987500002
        },
        {
          "name": "E4",
          "midi": 64,
          "time": 72.65064600000007,
          "velocity": 0.6299212598425197,
          "duration": 0.1799699875000016
        },
        {
          "name": "E4",
          "midi": 64,
          "time": 72.83136900000007,
          "velocity": 0.6299212598425197,
          "duration": 0.1799699875000016
        },
        {
          "name": "F4",
          "midi": 65,
          "time": 73.01209200000007,
          "velocity": 0.6299212598425197,
          "duration": 0.360692987500002
        },
        {
          "name": "E4",
          "midi": 64,
          "time": 73.37353800000007,
          "velocity": 0.6299212598425197,
          "duration": 0.1799699875000016
        },
        {
          "name": "E4",
          "midi": 64,
          "time": 73.55426100000007,
          "velocity": 0.6299212598425197,
          "duration": 0.1799699875000016
        },
        {
          "name": "F4",
          "midi": 65,
          "time": 73.73498400000007,
          "velocity": 0.6299212598425197,
          "duration": 0.360692987500002
        },
        {
          "name": "A4",
          "midi": 69,
          "time": 74.09643000000007,
          "velocity": 0.6299212598425197,
          "duration": 0.360692987500002
        },
        {
          "name": "A4",
          "midi": 69,
          "time": 74.45787600000007,
          "velocity": 0.6299212598425197,
          "duration": 0.360692987500002
        },
        {
          "name": "A4",
          "midi": 69,
          "time": 74.81932200000007,
          "velocity": 0.6299212598425197,
          "duration": 0.360692987500002
        },
        {
          "name": "C4",
          "midi": 60,
          "time": 75.18076800000007,
          "velocity": 0.6299212598425197,
          "duration": 0.360692987500002
        },
        {
          "name": "A4",
          "midi": 69,
          "time": 75.18076800000007,
          "velocity": 0.6299212598425197,
          "duration": 0.360692987500002
        },
        {
          "name": "E4",
          "midi": 64,
          "time": 75.54221400000007,
          "velocity": 0.6299212598425197,
          "duration": 0.360692987500002
        },
        {
          "name": "F4",
          "midi": 65,
          "time": 75.54221400000007,
          "velocity": 0.6299212598425197,
          "duration": 0.360692987500002
        },
        {
          "name": "C4",
          "midi": 60,
          "time": 75.90366000000007,
          "velocity": 0.6299212598425197,
          "duration": 0.360692987500002
        },
        {
          "name": "E4",
          "midi": 64,
          "time": 76.26510600000007,
          "velocity": 0.6299212598425197,
          "duration": 0.360692987500002
        },
        {
          "name": "C4",
          "midi": 60,
          "time": 76.62655200000007,
          "velocity": 0.6299212598425197,
          "duration": 0.360692987500002
        },
        {
          "name": "A4",
          "midi": 69,
          "time": 76.62655200000007,
          "velocity": 0.6299212598425197,
          "duration": 0.360692987500002
        },
        {
          "name": "E4",
          "midi": 64,
          "time": 76.98799800000008,
          "velocity": 0.6299212598425197,
          "duration": 0.360692987500002
        },
        {
          "name": "A4",
          "midi": 69,
          "time": 76.98799800000008,
          "velocity": 0.6299212598425197,
          "duration": 0.360692987500002
        },
        {
          "name": "C4",
          "midi": 60,
          "time": 77.34944400000008,
          "velocity": 0.6299212598425197,
          "duration": 0.360692987500002
        },
        {
          "name": "A4",
          "midi": 69,
          "time": 77.34944400000008,
          "velocity": 0.6299212598425197,
          "duration": 0.360692987500002
        },
        {
          "name": "E4",
          "midi": 64,
          "time": 77.71089000000008,
          "velocity": 0.6299212598425197,
          "duration": 0.360692987500002
        },
        {
          "name": "A4",
          "midi": 69,
          "time": 77.71089000000008,
          "velocity": 0.6299212598425197,
          "duration": 0.360692987500002
        },
        {
          "name": "C4",
          "midi": 60,
          "time": 78.07233600000008,
          "velocity": 0.6299212598425197,
          "duration": 0.360692987500002
        },
        {
          "name": "A4",
          "midi": 69,
          "time": 78.07233600000008,
          "velocity": 0.6299212598425197,
          "duration": 0.360692987500002
        },
        {
          "name": "E4",
          "midi": 64,
          "time": 78.43378200000008,
          "velocity": 0.6299212598425197,
          "duration": 0.360692987500002
        },
        {
          "name": "F4",
          "midi": 65,
          "time": 78.43378200000008,
          "velocity": 0.6299212598425197,
          "duration": 0.360692987500002
        },
        {
          "name": "C4",
          "midi": 60,
          "time": 78.79522800000008,
          "velocity": 0.6299212598425197,
          "duration": 0.360692987500002
        },
        {
          "name": "E4",
          "midi": 64,
          "time": 79.15667400000008,
          "velocity": 0.6299212598425197,
          "duration": 0.360692987500002
        },
        {
          "name": "C4",
          "midi": 60,
          "time": 79.51812000000008,
          "velocity": 0.6299212598425197,
          "duration": 0.360692987500002
        },
        {
          "name": "A4",
          "midi": 69,
          "time": 79.51812000000008,
          "velocity": 0.6299212598425197,
          "duration": 0.360692987500002
        },
        {
          "name": "E4",
          "midi": 64,
          "time": 79.87956600000008,
          "velocity": 0.6299212598425197,
          "duration": 0.360692987500002
        },
        {
          "name": "A4",
          "midi": 69,
          "time": 79.87956600000008,
          "velocity": 0.6299212598425197,
          "duration": 0.360692987500002
        },
        {
          "name": "C4",
          "midi": 60,
          "time": 80.24101200000008,
          "velocity": 0.6299212598425197,
          "duration": 0.360692987500002
        },
        {
          "name": "A4",
          "midi": 69,
          "time": 80.24101200000008,
          "velocity": 0.6299212598425197,
          "duration": 0.360692987500002
        },
        {
          "name": "E4",
          "midi": 64,
          "time": 80.60245800000008,
          "velocity": 0.6299212598425197,
          "duration": 0.360692987500002
        },
        {
          "name": "A4",
          "midi": 69,
          "time": 80.60245800000008,
          "velocity": 0.6299212598425197,
          "duration": 0.360692987500002
        },
        {
          "name": "C4",
          "midi": 60,
          "time": 80.96390400000008,
          "velocity": 0.6299212598425197,
          "duration": 0.360692987500002
        },
        {
          "name": "A4",
          "midi": 69,
          "time": 80.96390400000008,
          "velocity": 0.6299212598425197,
          "duration": 0.360692987500002
        },
        {
          "name": "C4",
          "midi": 60,
          "time": 81.32535000000009,
          "velocity": 0.6299212598425197,
          "duration": 0.360692987500002
        },
        {
          "name": "F4",
          "midi": 65,
          "time": 81.32535000000009,
          "velocity": 0.6299212598425197,
          "duration": 0.360692987500002
        },
        {
          "name": "C4",
          "midi": 60,
          "time": 81.68679600000009,
          "velocity": 0.6299212598425197,
          "duration": 0.360692987500002
        },
        {
          "name": "C4",
          "midi": 60,
          "time": 82.04824200000009,
          "velocity": 0.6299212598425197,
          "duration": 0.360692987500002
        },
        {
          "name": "A4",
          "midi": 69,
          "time": 82.04824200000009,
          "velocity": 0.6299212598425197,
          "duration": 0.360692987500002
        },
        {
          "name": "C4",
          "midi": 60,
          "time": 82.40968800000009,
          "velocity": 0.6299212598425197,
          "duration": 0.360692987500002
        },
        {
          "name": "A4",
          "midi": 69,
          "time": 82.40968800000009,
          "velocity": 0.6299212598425197,
          "duration": 0.360692987500002
        },
        {
          "name": "C4",
          "midi": 60,
          "time": 82.77113400000009,
          "velocity": 0.6299212598425197,
          "duration": 0.360692987500002
        },
        {
          "name": "F4",
          "midi": 65,
          "time": 82.77113400000009,
          "velocity": 0.6299212598425197,
          "duration": 0.360692987500002
        },
        {
          "name": "C4",
          "midi": 60,
          "time": 83.13258000000009,
          "velocity": 0.6299212598425197,
          "duration": 0.360692987500002
        },
        {
          "name": "C4",
          "midi": 60,
          "time": 83.49402600000009,
          "velocity": 0.6299212598425197,
          "duration": 0.360692987500002
        },
        {
          "name": "A4",
          "midi": 69,
          "time": 83.49402600000009,
          "velocity": 0.6299212598425197,
          "duration": 0.360692987500002
        },
        {
          "name": "C4",
          "midi": 60,
          "time": 83.85547200000009,
          "velocity": 0.6299212598425197,
          "duration": 0.360692987500002
        },
        {
          "name": "A4",
          "midi": 69,
          "time": 83.85547200000009,
          "velocity": 0.6299212598425197,
          "duration": 0.360692987500002
        },
        {
          "name": "C4",
          "midi": 60,
          "time": 84.21691800000009,
          "velocity": 0.6299212598425197,
          "duration": 0.360692987500002
        },
        {
          "name": "A4",
          "midi": 69,
          "time": 84.21691800000009,
          "velocity": 0.6299212598425197,
          "duration": 0.360692987500002
        },
        {
          "name": "C4",
          "midi": 60,
          "time": 84.5783640000001,
          "velocity": 0.6299212598425197,
          "duration": 0.360692987500002
        },
        {
          "name": "A4",
          "midi": 69,
          "time": 84.5783640000001,
          "velocity": 0.6299212598425197,
          "duration": 0.360692987500002
        },
        {
          "name": "C4",
          "midi": 60,
          "time": 84.9398100000001,
          "velocity": 0.6299212598425197,
          "duration": 0.360692987500002
        },
        {
          "name": "F4",
          "midi": 65,
          "time": 84.9398100000001,
          "velocity": 0.6299212598425197,
          "duration": 0.360692987500002
        },
        {
          "name": "A4",
          "midi": 69,
          "time": 85.3012560000001,
          "velocity": 0.6299212598425197,
          "duration": 0.360692987500002
        },
        {
          "name": "E4",
          "midi": 64,
          "time": 85.6627020000001,
          "velocity": 0.6299212598425197,
          "duration": 0.1799699875000016
        },
        {
          "name": "A4",
          "midi": 69,
          "time": 85.6627020000001,
          "velocity": 0.6299212598425197,
          "duration": 0.1799699875000016
        },
        {
          "name": "E4",
          "midi": 64,
          "time": 85.8434250000001,
          "velocity": 0.6299212598425197,
          "duration": 0.1799699875000016
        },
        {
          "name": "A4",
          "midi": 69,
          "time": 85.8434250000001,
          "velocity": 0.6299212598425197,
          "duration": 0.1799699875000016
        },
        {
          "name": "E4",
          "midi": 64,
          "time": 86.0241480000001,
          "velocity": 0.6299212598425197,
          "duration": 0.1799699875000016
        },
        {
          "name": "A4",
          "midi": 69,
          "time": 86.0241480000001,
          "velocity": 0.6299212598425197,
          "duration": 0.1799699875000016
        },
        {
          "name": "E4",
          "midi": 64,
          "time": 86.2048710000001,
          "velocity": 0.6299212598425197,
          "duration": 0.1799699875000016
        },
        {
          "name": "A4",
          "midi": 69,
          "time": 86.2048710000001,
          "velocity": 0.6299212598425197,
          "duration": 0.1799699875000016
        },
        {
          "name": "E4",
          "midi": 64,
          "time": 86.3855940000001,
          "velocity": 0.6299212598425197,
          "duration": 0.1799699875000016
        },
        {
          "name": "A4",
          "midi": 69,
          "time": 86.3855940000001,
          "velocity": 0.6299212598425197,
          "duration": 0.1799699875000016
        },
        {
          "name": "E4",
          "midi": 64,
          "time": 86.5663170000001,
          "velocity": 0.6299212598425197,
          "duration": 0.1799699875000016
        },
        {
          "name": "A4",
          "midi": 69,
          "time": 86.5663170000001,
          "velocity": 0.6299212598425197,
          "duration": 0.1799699875000016
        },
        {
          "name": "A4",
          "midi": 69,
          "time": 86.7470400000001,
          "velocity": 0.6299212598425197,
          "duration": 0.360692987500002
        },
        {
          "name": "F4",
          "midi": 65,
          "time": 87.1084860000001,
          "velocity": 0.6299212598425197,
          "duration": 0.1799699875000016
        },
        {
          "name": "F4",
          "midi": 65,
          "time": 87.2892090000001,
          "velocity": 0.6299212598425197,
          "duration": 0.1799699875000016
        },
        {
          "name": "A4",
          "midi": 69,
          "time": 87.4699320000001,
          "velocity": 0.6299212598425197,
          "duration": 0.360692987500002
        },
        {
          "name": "F4",
          "midi": 65,
          "time": 87.8313780000001,
          "velocity": 0.6299212598425197,
          "duration": 0.1799699875000016
        },
        {
          "name": "F4",
          "midi": 65,
          "time": 88.0121010000001,
          "velocity": 0.6299212598425197,
          "duration": 0.1799699875000016
        },
        {
          "name": "A4",
          "midi": 69,
          "time": 88.1928240000001,
          "velocity": 0.6299212598425197,
          "duration": 0.360692987500002
        },
        {
          "name": "F4",
          "midi": 65,
          "time": 88.5542700000001,
          "velocity": 0.6299212598425197,
          "duration": 0.1799699875000016
        },
        {
          "name": "A4",
          "midi": 69,
          "time": 88.5542700000001,
          "velocity": 0.6299212598425197,
          "duration": 0.1799699875000016
        },
        {
          "name": "F4",
          "midi": 65,
          "time": 88.7349930000001,
          "velocity": 0.6299212598425197,
          "duration": 0.1799699875000016
        },
        {
          "name": "A4",
          "midi": 69,
          "time": 88.7349930000001,
          "velocity": 0.6299212598425197,
          "duration": 0.1799699875000016
        },
        {
          "name": "F4",
          "midi": 65,
          "time": 88.9157160000001,
          "velocity": 0.6299212598425197,
          "duration": 0.1799699875000016
        },
        {
          "name": "A4",
          "midi": 69,
          "time": 88.9157160000001,
          "velocity": 0.6299212598425197,
          "duration": 0.1799699875000016
        },
        {
          "name": "F4",
          "midi": 65,
          "time": 89.0964390000001,
          "velocity": 0.6299212598425197,
          "duration": 0.1799699875000016
        },
        {
          "name": "A4",
          "midi": 69,
          "time": 89.0964390000001,
          "velocity": 0.6299212598425197,
          "duration": 0.1799699875000016
        },
        {
          "name": "F4",
          "midi": 65,
          "time": 89.2771620000001,
          "velocity": 0.6299212598425197,
          "duration": 0.1799699875000016
        },
        {
          "name": "A4",
          "midi": 69,
          "time": 89.2771620000001,
          "velocity": 0.6299212598425197,
          "duration": 0.1799699875000016
        },
        {
          "name": "F4",
          "midi": 65,
          "time": 89.4578850000001,
          "velocity": 0.6299212598425197,
          "duration": 0.1799699875000016
        },
        {
          "name": "A4",
          "midi": 69,
          "time": 89.4578850000001,
          "velocity": 0.6299212598425197,
          "duration": 0.1799699875000016
        },
        {
          "name": "C4",
          "midi": 60,
          "time": 89.6386080000001,
          "velocity": 0.6299212598425197,
          "duration": 0.360692987500002
        },
        {
          "name": "E4",
          "midi": 64,
          "time": 90.0000540000001,
          "velocity": 0.6299212598425197,
          "duration": 0.1799699875000016
        },
        {
          "name": "E4",
          "midi": 64,
          "time": 90.1807770000001,
          "velocity": 0.6299212598425197,
          "duration": 0.1799699875000016
        },
        {
          "name": "C4",
          "midi": 60,
          "time": 90.3615000000001,
          "velocity": 0.6299212598425197,
          "duration": 0.360692987500002
        },
        {
          "name": "E4",
          "midi": 64,
          "time": 90.7229460000001,
          "velocity": 0.6299212598425197,
          "duration": 0.1799699875000016
        },
        {
          "name": "E4",
          "midi": 64,
          "time": 90.90366900000011,
          "velocity": 0.6299212598425197,
          "duration": 0.1799699875000016
        },
        {
          "name": "C4",
          "midi": 60,
          "time": 91.08439200000011,
          "velocity": 0.6299212598425197,
          "duration": 0.360692987500002
        },
        {
          "name": "C4",
          "midi": 60,
          "time": 91.44583800000011,
          "velocity": 0.6299212598425197,
          "duration": 0.1799699875000016
        },
        {
          "name": "E4",
          "midi": 64,
          "time": 91.44583800000011,
          "velocity": 0.6299212598425197,
          "duration": 0.1799699875000016
        },
        {
          "name": "C4",
          "midi": 60,
          "time": 91.62656100000011,
          "velocity": 0.6299212598425197,
          "duration": 0.1799699875000016
        },
        {
          "name": "E4",
          "midi": 64,
          "time": 91.62656100000011,
          "velocity": 0.6299212598425197,
          "duration": 0.1799699875000016
        },
        {
          "name": "C4",
          "midi": 60,
          "time": 91.80728400000011,
          "velocity": 0.6299212598425197,
          "duration": 0.1799699875000016
        },
        {
          "name": "E4",
          "midi": 64,
          "time": 91.80728400000011,
          "velocity": 0.6299212598425197,
          "duration": 0.1799699875000016
        },
        {
          "name": "C4",
          "midi": 60,
          "time": 91.98800700000011,
          "velocity": 0.6299212598425197,
          "duration": 0.1799699875000016
        },
        {
          "name": "E4",
          "midi": 64,
          "time": 91.98800700000011,
          "velocity": 0.6299212598425197,
          "duration": 0.1799699875000016
        },
        {
          "name": "C4",
          "midi": 60,
          "time": 92.16873000000011,
          "velocity": 0.6299212598425197,
          "duration": 0.1799699875000016
        },
        {
          "name": "E4",
          "midi": 64,
          "time": 92.16873000000011,
          "velocity": 0.6299212598425197,
          "duration": 0.1799699875000016
        },
        {
          "name": "C4",
          "midi": 60,
          "time": 92.34945300000011,
          "velocity": 0.6299212598425197,
          "duration": 0.1799699875000016
        },
        {
          "name": "E4",
          "midi": 64,
          "time": 92.34945300000011,
          "velocity": 0.6299212598425197,
          "duration": 0.1799699875000016
        },
        {
          "name": "F4",
          "midi": 65,
          "time": 92.53017600000011,
          "velocity": 0.6299212598425197,
          "duration": 0.360692987500002
        },
        {
          "name": "E4",
          "midi": 64,
          "time": 92.89162200000011,
          "velocity": 0.6299212598425197,
          "duration": 0.1799699875000016
        },
        {
          "name": "E4",
          "midi": 64,
          "time": 93.07234500000011,
          "velocity": 0.6299212598425197,
          "duration": 0.1799699875000016
        },
        {
          "name": "F4",
          "midi": 65,
          "time": 93.25306800000011,
          "velocity": 0.6299212598425197,
          "duration": 0.360692987500002
        },
        {
          "name": "E4",
          "midi": 64,
          "time": 93.61451400000011,
          "velocity": 0.6299212598425197,
          "duration": 0.1799699875000016
        },
        {
          "name": "E4",
          "midi": 64,
          "time": 93.79523700000011,
          "velocity": 0.6299212598425197,
          "duration": 0.1799699875000016
        },
        {
          "name": "F4",
          "midi": 65,
          "time": 93.97596000000011,
          "velocity": 0.6299212598425197,
          "duration": 0.360692987500002
        },
        {
          "name": "E4",
          "midi": 64,
          "time": 94.33740600000012,
          "velocity": 0.6299212598425197,
          "duration": 0.1799699875000016
        },
        {
          "name": "F4",
          "midi": 65,
          "time": 94.33740600000012,
          "velocity": 0.6299212598425197,
          "duration": 0.1799699875000016
        },
        {
          "name": "E4",
          "midi": 64,
          "time": 94.51812900000012,
          "velocity": 0.6299212598425197,
          "duration": 0.1799699875000016
        },
        {
          "name": "F4",
          "midi": 65,
          "time": 94.51812900000012,
          "velocity": 0.6299212598425197,
          "duration": 0.1799699875000016
        },
        {
          "name": "E4",
          "midi": 64,
          "time": 94.69885200000012,
          "velocity": 0.6299212598425197,
          "duration": 0.1799699875000016
        },
        {
          "name": "F4",
          "midi": 65,
          "time": 94.69885200000012,
          "velocity": 0.6299212598425197,
          "duration": 0.1799699875000016
        },
        {
          "name": "E4",
          "midi": 64,
          "time": 94.87957500000012,
          "velocity": 0.6299212598425197,
          "duration": 0.1799699875000016
        },
        {
          "name": "F4",
          "midi": 65,
          "time": 94.87957500000012,
          "velocity": 0.6299212598425197,
          "duration": 0.1799699875000016
        },
        {
          "name": "E4",
          "midi": 64,
          "time": 95.06029800000012,
          "velocity": 0.6299212598425197,
          "duration": 0.1799699875000016
        },
        {
          "name": "F4",
          "midi": 65,
          "time": 95.06029800000012,
          "velocity": 0.6299212598425197,
          "duration": 0.1799699875000016
        },
        {
          "name": "E4",
          "midi": 64,
          "time": 95.24102100000012,
          "velocity": 0.6299212598425197,
          "duration": 0.1799699875000016
        },
        {
          "name": "F4",
          "midi": 65,
          "time": 95.24102100000012,
          "velocity": 0.6299212598425197,
          "duration": 0.1799699875000016
        },
        {
          "name": "C4",
          "midi": 60,
          "time": 95.42174400000012,
          "velocity": 0.6299212598425197,
          "duration": 0.360692987500002
        },
        {
          "name": "A4",
          "midi": 69,
          "time": 95.42174400000012,
          "velocity": 0.6299212598425197,
          "duration": 0.360692987500002
        },
        {
          "name": "C4",
          "midi": 60,
          "time": 95.78319000000012,
          "velocity": 0.6299212598425197,
          "duration": 0.360692987500002
        },
        {
          "name": "A4",
          "midi": 69,
          "time": 95.78319000000012,
          "velocity": 0.6299212598425197,
          "duration": 0.360692987500002
        },
        {
          "name": "C4",
          "midi": 60,
          "time": 96.14463600000012,
          "velocity": 0.6299212598425197,
          "duration": 0.360692987500002
        },
        {
          "name": "A4",
          "midi": 69,
          "time": 96.14463600000012,
          "velocity": 0.6299212598425197,
          "duration": 0.360692987500002
        },
        {
          "name": "A4",
          "midi": 69,
          "time": 96.50608200000012,
          "velocity": 0.6299212598425197,
          "duration": 0.360692987500002
        },
        {
          "name": "C4",
          "midi": 60,
          "time": 96.86752800000012,
          "velocity": 0.6299212598425197,
          "duration": 0.360692987500002
        },
        {
          "name": "A4",
          "midi": 69,
          "time": 96.86752800000012,
          "velocity": 0.6299212598425197,
          "duration": 0.360692987500002
        },
        {
          "name": "C4",
          "midi": 60,
          "time": 97.22897400000012,
          "velocity": 0.6299212598425197,
          "duration": 0.360692987500002
        },
        {
          "name": "A4",
          "midi": 69,
          "time": 97.22897400000012,
          "velocity": 0.6299212598425197,
          "duration": 0.360692987500002
        },
        {
          "name": "C4",
          "midi": 60,
          "time": 97.59042000000012,
          "velocity": 0.6299212598425197,
          "duration": 0.360692987500002
        },
        {
          "name": "A4",
          "midi": 69,
          "time": 97.59042000000012,
          "velocity": 0.6299212598425197,
          "duration": 0.360692987500002
        },
        {
          "name": "C4",
          "midi": 60,
          "time": 97.95186600000012,
          "velocity": 0.6299212598425197,
          "duration": 0.360692987500002
        },
        {
          "name": "A4",
          "midi": 69,
          "time": 97.95186600000012,
          "velocity": 0.6299212598425197,
          "duration": 0.360692987500002
        },
        {
          "name": "A4",
          "midi": 69,
          "time": 98.31331200000012,
          "velocity": 0.6299212598425197,
          "duration": 0.360692987500002
        },
        {
          "name": "F4",
          "midi": 65,
          "time": 98.67475800000012,
          "velocity": 0.6299212598425197,
          "duration": 0.1799699875000016
        },
        {
          "name": "F4",
          "midi": 65,
          "time": 98.85548100000013,
          "velocity": 0.6299212598425197,
          "duration": 0.1799699875000016
        },
        {
          "name": "A4",
          "midi": 69,
          "time": 99.03620400000013,
          "velocity": 0.6299212598425197,
          "duration": 0.360692987500002
        },
        {
          "name": "F4",
          "midi": 65,
          "time": 99.39765000000013,
          "velocity": 0.6299212598425197,
          "duration": 0.1799699875000016
        },
        {
          "name": "F4",
          "midi": 65,
          "time": 99.57837300000013,
          "velocity": 0.6299212598425197,
          "duration": 0.1799699875000016
        },
        {
          "name": "A4",
          "midi": 69,
          "time": 99.75909600000013,
          "velocity": 0.6299212598425197,
          "duration": 0.360692987500002
        },
        {
          "name": "F4",
          "midi": 65,
          "time": 100.12054200000013,
          "velocity": 0.6299212598425197,
          "duration": 0.1799699875000016
        },
        {
          "name": "A4",
          "midi": 69,
          "time": 100.12054200000013,
          "velocity": 0.6299212598425197,
          "duration": 0.1799699875000016
        },
        {
          "name": "F4",
          "midi": 65,
          "time": 100.30126500000013,
          "velocity": 0.6299212598425197,
          "duration": 0.1799699875000016
        },
        {
          "name": "A4",
          "midi": 69,
          "time": 100.30126500000013,
          "velocity": 0.6299212598425197,
          "duration": 0.1799699875000016
        },
        {
          "name": "F4",
          "midi": 65,
          "time": 100.48198800000013,
          "velocity": 0.6299212598425197,
          "duration": 0.1799699875000016
        },
        {
          "name": "A4",
          "midi": 69,
          "time": 100.48198800000013,
          "velocity": 0.6299212598425197,
          "duration": 0.1799699875000016
        },
        {
          "name": "F4",
          "midi": 65,
          "time": 100.66271100000013,
          "velocity": 0.6299212598425197,
          "duration": 0.1799699875000016
        },
        {
          "name": "A4",
          "midi": 69,
          "time": 100.66271100000013,
          "velocity": 0.6299212598425197,
          "duration": 0.1799699875000016
        },
        {
          "name": "F4",
          "midi": 65,
          "time": 100.84343400000013,
          "velocity": 0.6299212598425197,
          "duration": 0.1799699875000016
        },
        {
          "name": "A4",
          "midi": 69,
          "time": 100.84343400000013,
          "velocity": 0.6299212598425197,
          "duration": 0.1799699875000016
        },
        {
          "name": "F4",
          "midi": 65,
          "time": 101.02415700000013,
          "velocity": 0.6299212598425197,
          "duration": 0.1799699875000016
        },
        {
          "name": "A4",
          "midi": 69,
          "time": 101.02415700000013,
          "velocity": 0.6299212598425197,
          "duration": 0.1799699875000016
        },
        {
          "name": "C4",
          "midi": 60,
          "time": 101.20488000000013,
          "velocity": 0.6299212598425197,
          "duration": 0.360692987500002
        },
        {
          "name": "E4",
          "midi": 64,
          "time": 101.56632600000013,
          "velocity": 0.6299212598425197,
          "duration": 0.1799699875000016
        },
        {
          "name": "E4",
          "midi": 64,
          "time": 101.74704900000013,
          "velocity": 0.6299212598425197,
          "duration": 0.1799699875000016
        },
        {
          "name": "C4",
          "midi": 60,
          "time": 101.92777200000013,
          "velocity": 0.6299212598425197,
          "duration": 0.360692987500002
        },
        {
          "name": "E4",
          "midi": 64,
          "time": 102.28921800000013,
          "velocity": 0.6299212598425197,
          "duration": 0.1799699875000016
        },
        {
          "name": "E4",
          "midi": 64,
          "time": 102.46994100000013,
          "velocity": 0.6299212598425197,
          "duration": 0.1799699875000016
        },
        {
          "name": "C4",
          "midi": 60,
          "time": 102.65066400000013,
          "velocity": 0.6299212598425197,
          "duration": 0.360692987500002
        },
        {
          "name": "C4",
          "midi": 60,
          "time": 103.01211000000013,
          "velocity": 0.6299212598425197,
          "duration": 0.1799699875000016
        },
        {
          "name": "E4",
          "midi": 64,
          "time": 103.01211000000013,
          "velocity": 0.6299212598425197,
          "duration": 0.1799699875000016
        },
        {
          "name": "C4",
          "midi": 60,
          "time": 103.19283300000014,
          "velocity": 0.6299212598425197,
          "duration": 0.1799699875000016
        },
        {
          "name": "E4",
          "midi": 64,
          "time": 103.19283300000014,
          "velocity": 0.6299212598425197,
          "duration": 0.1799699875000016
        },
        {
          "name": "C4",
          "midi": 60,
          "time": 103.37355600000014,
          "velocity": 0.6299212598425197,
          "duration": 0.1799699875000016
        },
        {
          "name": "E4",
          "midi": 64,
          "time": 103.37355600000014,
          "velocity": 0.6299212598425197,
          "duration": 0.1799699875000016
        },
        {
          "name": "C4",
          "midi": 60,
          "time": 103.55427900000014,
          "velocity": 0.6299212598425197,
          "duration": 0.1799699875000016
        },
        {
          "name": "E4",
          "midi": 64,
          "time": 103.55427900000014,
          "velocity": 0.6299212598425197,
          "duration": 0.1799699875000016
        },
        {
          "name": "C4",
          "midi": 60,
          "time": 103.73500200000014,
          "velocity": 0.6299212598425197,
          "duration": 0.1799699875000016
        },
        {
          "name": "E4",
          "midi": 64,
          "time": 103.73500200000014,
          "velocity": 0.6299212598425197,
          "duration": 0.1799699875000016
        },
        {
          "name": "C4",
          "midi": 60,
          "time": 103.91572500000014,
          "velocity": 0.6299212598425197,
          "duration": 0.1799699875000016
        },
        {
          "name": "E4",
          "midi": 64,
          "time": 103.91572500000014,
          "velocity": 0.6299212598425197,
          "duration": 0.1799699875000016
        },
        {
          "name": "F4",
          "midi": 65,
          "time": 104.09644800000014,
          "velocity": 0.6299212598425197,
          "duration": 0.360692987500002
        },
        {
          "name": "E4",
          "midi": 64,
          "time": 104.45789400000014,
          "velocity": 0.6299212598425197,
          "duration": 0.1799699875000016
        },
        {
          "name": "E4",
          "midi": 64,
          "time": 104.63861700000014,
          "velocity": 0.6299212598425197,
          "duration": 0.1799699875000016
        },
        {
          "name": "F4",
          "midi": 65,
          "time": 104.81934000000014,
          "velocity": 0.6299212598425197,
          "duration": 0.360692987500002
        },
        {
          "name": "E4",
          "midi": 64,
          "time": 105.18078600000014,
          "velocity": 0.6299212598425197,
          "duration": 0.1799699875000016
        },
        {
          "name": "E4",
          "midi": 64,
          "time": 105.36150900000014,
          "velocity": 0.6299212598425197,
          "duration": 0.1799699875000016
        },
        {
          "name": "F4",
          "midi": 65,
          "time": 105.54223200000014,
          "velocity": 0.6299212598425197,
          "duration": 0.360692987500002
        },
        {
          "name": "E4",
          "midi": 64,
          "time": 105.90367800000014,
          "velocity": 0.6299212598425197,
          "duration": 0.1799699875000016
        },
        {
          "name": "F4",
          "midi": 65,
          "time": 105.90367800000014,
          "velocity": 0.6299212598425197,
          "duration": 0.1799699875000016
        },
        {
          "name": "E4",
          "midi": 64,
          "time": 106.08440100000014,
          "velocity": 0.6299212598425197,
          "duration": 0.1799699875000016
        },
        {
          "name": "F4",
          "midi": 65,
          "time": 106.08440100000014,
          "velocity": 0.6299212598425197,
          "duration": 0.1799699875000016
        },
        {
          "name": "E4",
          "midi": 64,
          "time": 106.26512400000014,
          "velocity": 0.6299212598425197,
          "duration": 0.1799699875000016
        },
        {
          "name": "F4",
          "midi": 65,
          "time": 106.26512400000014,
          "velocity": 0.6299212598425197,
          "duration": 0.1799699875000016
        },
        {
          "name": "E4",
          "midi": 64,
          "time": 106.44584700000014,
          "velocity": 0.6299212598425197,
          "duration": 0.1799699875000016
        },
        {
          "name": "F4",
          "midi": 65,
          "time": 106.44584700000014,
          "velocity": 0.6299212598425197,
          "duration": 0.1799699875000016
        },
        {
          "name": "E4",
          "midi": 64,
          "time": 106.62657000000014,
          "velocity": 0.6299212598425197,
          "duration": 0.1799699875000016
        },
        {
          "name": "F4",
          "midi": 65,
          "time": 106.62657000000014,
          "velocity": 0.6299212598425197,
          "duration": 0.1799699875000016
        },
        {
          "name": "E4",
          "midi": 64,
          "time": 106.80729300000014,
          "velocity": 0.6299212598425197,
          "duration": 0.1799699875000016
        },
        {
          "name": "F4",
          "midi": 65,
          "time": 106.80729300000014,
          "velocity": 0.6299212598425197,
          "duration": 0.1799699875000016
        },
        {
          "name": "C4",
          "midi": 60,
          "time": 106.98801600000014,
          "velocity": 0.6299212598425197,
          "duration": 0.360692987500002
        },
        {
          "name": "A4",
          "midi": 69,
          "time": 106.98801600000014,
          "velocity": 0.6299212598425197,
          "duration": 0.360692987500002
        },
        {
          "name": "C4",
          "midi": 60,
          "time": 107.34946200000014,
          "velocity": 0.6299212598425197,
          "duration": 0.360692987500002
        },
        {
          "name": "A4",
          "midi": 69,
          "time": 107.34946200000014,
          "velocity": 0.6299212598425197,
          "duration": 0.360692987500002
        },
        {
          "name": "C4",
          "midi": 60,
          "time": 107.71090800000015,
          "velocity": 0.6299212598425197,
          "duration": 0.360692987500002
        },
        {
          "name": "A4",
          "midi": 69,
          "time": 107.71090800000015,
          "velocity": 0.6299212598425197,
          "duration": 0.360692987500002
        },
        {
          "name": "A4",
          "midi": 69,
          "time": 108.07235400000015,
          "velocity": 0.6299212598425197,
          "duration": 0.360692987500002
        },
        {
          "name": "C4",
          "midi": 60,
          "time": 108.43380000000015,
          "velocity": 0.6299212598425197,
          "duration": 0.360692987500002
        },
        {
          "name": "A4",
          "midi": 69,
          "time": 108.43380000000015,
          "velocity": 0.6299212598425197,
          "duration": 0.360692987500002
        },
        {
          "name": "C4",
          "midi": 60,
          "time": 108.79524600000015,
          "velocity": 0.6299212598425197,
          "duration": 0.360692987500002
        },
        {
          "name": "A4",
          "midi": 69,
          "time": 108.79524600000015,
          "velocity": 0.6299212598425197,
          "duration": 0.360692987500002
        },
        {
          "name": "C4",
          "midi": 60,
          "time": 109.15669200000015,
          "velocity": 0.6299212598425197,
          "duration": 0.360692987500002
        },
        {
          "name": "A4",
          "midi": 69,
          "time": 109.15669200000015,
          "velocity": 0.6299212598425197,
          "duration": 0.360692987500002
        },
        {
          "name": "C4",
          "midi": 60,
          "time": 109.51813800000015,
          "velocity": 0.6299212598425197,
          "duration": 0.360692987500002
        },
        {
          "name": "A4",
          "midi": 69,
          "time": 109.51813800000015,
          "velocity": 0.6299212598425197,
          "duration": 0.360692987500002
        },
        {
          "name": "C4",
          "midi": 60,
          "time": 109.87958400000015,
          "velocity": 0.6299212598425197,
          "duration": 0.360692987500002
        },
        {
          "name": "E4",
          "midi": 64,
          "time": 110.24103000000015,
          "velocity": 0.6299212598425197,
          "duration": 0.360692987500002
        },
        {
          "name": "C4",
          "midi": 60,
          "time": 110.60247600000015,
          "velocity": 0.6299212598425197,
          "duration": 0.7221389875000028
        },
        {
          "name": "F4",
          "midi": 65,
          "time": 110.60247600000015,
          "velocity": 0.6299212598425197,
          "duration": 0.7221389875000028
        },
        {
          "name": "E4",
          "midi": 64,
          "time": 111.32536800000015,
          "velocity": 0.6299212598425197,
          "duration": 0.360692987500002
        },
        {
          "name": "F4",
          "midi": 65,
          "time": 111.68681400000015,
          "velocity": 0.6299212598425197,
          "duration": 0.360692987500002
        },
        {
          "name": "E4",
          "midi": 64,
          "time": 112.04826000000016,
          "velocity": 0.6299212598425197,
          "duration": 0.7221389875000028
        },
        {
          "name": "A4",
          "midi": 69,
          "time": 112.04826000000016,
          "velocity": 0.6299212598425197,
          "duration": 0.7221389875000028
        },
        {
          "name": "A4",
          "midi": 69,
          "time": 112.77115200000016,
          "velocity": 0.6299212598425197,
          "duration": 0.360692987500002
        },
        {
          "name": "F4",
          "midi": 65,
          "time": 113.13259800000016,
          "velocity": 0.6299212598425197,
          "duration": 0.360692987500002
        },
        {
          "name": "E4",
          "midi": 64,
          "time": 113.49404400000016,
          "velocity": 0.6299212598425197,
          "duration": 0.7221389875000028
        },
        {
          "name": "A4",
          "midi": 69,
          "time": 113.49404400000016,
          "velocity": 0.6299212598425197,
          "duration": 0.7221389875000028
        },
        {
          "name": "F4",
          "midi": 65,
          "time": 114.21693600000016,
          "velocity": 0.6299212598425197,
          "duration": 0.360692987500002
        },
        {
          "name": "E4",
          "midi": 64,
          "time": 114.57838200000016,
          "velocity": 0.6299212598425197,
          "duration": 0.360692987500002
        },
        {
          "name": "C4",
          "midi": 60,
          "time": 114.93982800000016,
          "velocity": 0.6299212598425197,
          "duration": 0.7221389875000028
        },
        {
          "name": "F4",
          "midi": 65,
          "time": 114.93982800000016,
          "velocity": 0.6299212598425197,
          "duration": 0.7221389875000028
        },
        {
          "name": "E4",
          "midi": 64,
          "time": 115.66272000000016,
          "velocity": 0.6299212598425197,
          "duration": 0.360692987500002
        },
        {
          "name": "F4",
          "midi": 65,
          "time": 116.02416600000016,
          "velocity": 0.6299212598425197,
          "duration": 0.360692987500002
        },
        {
          "name": "C4",
          "midi": 60,
          "time": 116.38561200000017,
          "velocity": 0.6299212598425197,
          "duration": 0.7221389875000028
        },
        {
          "name": "A4",
          "midi": 69,
          "time": 116.38561200000017,
          "velocity": 0.6299212598425197,
          "duration": 0.7221389875000028
        },
        {
          "name": "A4",
          "midi": 69,
          "time": 117.10850400000017,
          "velocity": 0.6299212598425197,
          "duration": 0.360692987500002
        },
        {
          "name": "C4",
          "midi": 60,
          "time": 117.46995000000017,
          "velocity": 0.6299212598425197,
          "duration": 0.360692987500002
        },
        {
          "name": "E4",
          "midi": 64,
          "time": 117.83139600000017,
          "velocity": 0.6299212598425197,
          "duration": 0.7221389875000028
        },
        {
          "name": "F4",
          "midi": 65,
          "time": 117.83139600000017,
          "velocity": 0.6299212598425197,
          "duration": 0.7221389875000028
        },
        {
          "name": "F4",
          "midi": 65,
          "time": 118.55428800000017,
          "velocity": 0.6299212598425197,
          "duration": 0.360692987500002
        },
        {
          "name": "A4",
          "midi": 69,
          "time": 118.91573400000017,
          "velocity": 0.6299212598425197,
          "duration": 0.360692987500002
        },
        {
          "name": "C4",
          "midi": 60,
          "time": 119.27718000000017,
          "velocity": 0.6299212598425197,
          "duration": 0.7221389875000028
        },
        {
          "name": "E4",
          "midi": 64,
          "time": 119.27718000000017,
          "velocity": 0.6299212598425197,
          "duration": 0.7221389875000028
        },
        {
          "name": "E4",
          "midi": 64,
          "time": 120.00007200000017,
          "velocity": 0.6299212598425197,
          "duration": 0.360692987500002
        },
        {
          "name": "C4",
          "midi": 60,
          "time": 120.36151800000017,
          "velocity": 0.6299212598425197,
          "duration": 0.360692987500002
        },
        {
          "name": "F4",
          "midi": 65,
          "time": 120.72296400000018,
          "velocity": 0.6299212598425197,
          "duration": 0.7221389875000028
        },
        {
          "name": "A4",
          "midi": 69,
          "time": 120.72296400000018,
          "velocity": 0.6299212598425197,
          "duration": 0.7221389875000028
        },
        {
          "name": "C4",
          "midi": 60,
          "time": 121.44585600000018,
          "velocity": 0.6299212598425197,
          "duration": 0.360692987500002
        },
        {
          "name": "E4",
          "midi": 64,
          "time": 121.80730200000018,
          "velocity": 0.6299212598425197,
          "duration": 0.360692987500002
        },
        {
          "name": "F4",
          "midi": 65,
          "time": 122.16874800000018,
          "velocity": 0.6299212598425197,
          "duration": 0.360692987500002
        },
        {
          "name": "A4",
          "midi": 69,
          "time": 122.53019400000018,
          "velocity": 0.6299212598425197,
          "duration": 0.360692987500002
        },
        {
          "name": "C4",
          "midi": 60,
          "time": 122.89164000000018,
          "velocity": 0.6299212598425197,
          "duration": 0.360692987500002
        },
        {
          "name": "E4",
          "midi": 64,
          "time": 123.25308600000018,
          "velocity": 0.6299212598425197,
          "duration": 0.360692987500002
        },
        {
          "name": "F4",
          "midi": 65,
          "time": 123.61453200000018,
          "velocity": 0.6299212598425197,
          "duration": 0.360692987500002
        },
        {
          "name": "A4",
          "midi": 69,
          "time": 123.97597800000018,
          "velocity": 0.6299212598425197,
          "duration": 0.360692987500002
        },
        {
          "name": "A4",
          "midi": 69,
          "time": 124.33742400000018,
          "velocity": 0.6299212598425197,
          "duration": 0.360692987500002
        },
        {
          "name": "F4",
          "midi": 65,
          "time": 124.69887000000018,
          "velocity": 0.6299212598425197,
          "duration": 0.360692987500002
        },
        {
          "name": "E4",
          "midi": 64,
          "time": 125.06031600000018,
          "velocity": 0.6299212598425197,
          "duration": 0.360692987500002
        },
        {
          "name": "C4",
          "midi": 60,
          "time": 125.42176200000019,
          "velocity": 0.6299212598425197,
          "duration": 0.360692987500002
        },
        {
          "name": "A4",
          "midi": 69,
          "time": 125.78320800000019,
          "velocity": 0.6299212598425197,
          "duration": 0.360692987500002
        },
        {
          "name": "F4",
          "midi": 65,
          "time": 126.14465400000019,
          "velocity": 0.6299212598425197,
          "duration": 0.360692987500002
        },
        {
          "name": "E4",
          "midi": 64,
          "time": 126.50610000000019,
          "velocity": 0.6299212598425197,
          "duration": 0.360692987500002
        },
        {
          "name": "C4",
          "midi": 60,
          "time": 126.86754600000019,
          "velocity": 0.6299212598425197,
          "duration": 0.360692987500002
        },
        {
          "name": "C4",
          "midi": 60,
          "time": 127.22899200000019,
          "velocity": 0.6299212598425197,
          "duration": 0.360692987500002
        },
        {
          "name": "E4",
          "midi": 64,
          "time": 127.59043800000019,
          "velocity": 0.6299212598425197,
          "duration": 0.360692987500002
        },
        {
          "name": "F4",
          "midi": 65,
          "time": 127.95188400000019,
          "velocity": 0.6299212598425197,
          "duration": 0.360692987500002
        },
        {
          "name": "A4",
          "midi": 69,
          "time": 128.3133300000002,
          "velocity": 0.6299212598425197,
          "duration": 0.3606929874999878
        },
        {
          "name": "C4",
          "midi": 60,
          "time": 128.6747760000002,
          "velocity": 0.6299212598425197,
          "duration": 0.3606929874999878
        },
        {
          "name": "E4",
          "midi": 64,
          "time": 129.0362220000002,
          "velocity": 0.6299212598425197,
          "duration": 0.3606929874999878
        },
        {
          "name": "F4",
          "midi": 65,
          "time": 129.3976680000002,
          "velocity": 0.6299212598425197,
          "duration": 0.3606929874999878
        },
        {
          "name": "A4",
          "midi": 69,
          "time": 129.7591140000002,
          "velocity": 0.6299212598425197,
          "duration": 0.3606929874999878
        },
        {
          "name": "A4",
          "midi": 69,
          "time": 130.1205600000002,
          "velocity": 0.6299212598425197,
          "duration": 0.3606929874999878
        },
        {
          "name": "F4",
          "midi": 65,
          "time": 130.4820060000002,
          "velocity": 0.6299212598425197,
          "duration": 0.3606929874999878
        },
        {
          "name": "E4",
          "midi": 64,
          "time": 130.8434520000002,
          "velocity": 0.6299212598425197,
          "duration": 0.3606929874999878
        },
        {
          "name": "C4",
          "midi": 60,
          "time": 131.2048980000002,
          "velocity": 0.6299212598425197,
          "duration": 0.3606929874999878
        },
        {
          "name": "A4",
          "midi": 69,
          "time": 131.5663440000002,
          "velocity": 0.6299212598425197,
          "duration": 0.3606929874999878
        },
        {
          "name": "F4",
          "midi": 65,
          "time": 131.92779000000021,
          "velocity": 0.6299212598425197,
          "duration": 0.3606929874999878
        },
        {
          "name": "E4",
          "midi": 64,
          "time": 132.28923600000022,
          "velocity": 0.6299212598425197,
          "duration": 0.3606929874999878
        },
        {
          "name": "C4",
          "midi": 60,
          "time": 132.65068200000022,
          "velocity": 0.6299212598425197,
          "duration": 0.3606929874999878
        },
        {
          "name": "A4",
          "midi": 69,
          "time": 133.01212800000022,
          "velocity": 0.6299212598425197,
          "duration": 0.3606929874999878
        },
        {
          "name": "C4",
          "midi": 60,
          "time": 133.37357400000022,
          "velocity": 0.6299212598425197,
          "duration": 0.17996998749998738
        },
        {
          "name": "E4",
          "midi": 64,
          "time": 133.55429700000022,
          "velocity": 0.6299212598425197,
          "duration": 0.17996998749998738
        },
        {
          "name": "C4",
          "midi": 60,
          "time": 133.73502000000022,
          "velocity": 0.6299212598425197,
          "duration": 0.17996998749998738
        },
        {
          "name": "E4",
          "midi": 64,
          "time": 133.91574300000022,
          "velocity": 0.6299212598425197,
          "duration": 0.17996998749998738
        },
        {
          "name": "C4",
          "midi": 60,
          "time": 134.09646600000022,
          "velocity": 0.6299212598425197,
          "duration": 0.17996998749998738
        },
        {
          "name": "E4",
          "midi": 64,
          "time": 134.27718900000022,
          "velocity": 0.6299212598425197,
          "duration": 0.17996998749998738
        },
        {
          "name": "A4",
          "midi": 69,
          "time": 134.45791200000022,
          "velocity": 0.6299212598425197,
          "duration": 0.3606929874999878
        },
        {
          "name": "C4",
          "midi": 60,
          "time": 134.81935800000022,
          "velocity": 0.6299212598425197,
          "duration": 0.17996998749998738
        },
        {
          "name": "E4",
          "midi": 64,
          "time": 135.00008100000022,
          "velocity": 0.6299212598425197,
          "duration": 0.17996998749998738
        },
        {
          "name": "C4",
          "midi": 60,
          "time": 135.18080400000022,
          "velocity": 0.6299212598425197,
          "duration": 0.17996998749998738
        },
        {
          "name": "E4",
          "midi": 64,
          "time": 135.36152700000022,
          "velocity": 0.6299212598425197,
          "duration": 0.17996998749998738
        },
        {
          "name": "C4",
          "midi": 60,
          "time": 135.54225000000022,
          "velocity": 0.6299212598425197,
          "duration": 0.17996998749998738
        },
        {
          "name": "E4",
          "midi": 64,
          "time": 135.72297300000022,
          "velocity": 0.6299212598425197,
          "duration": 0.17996998749998738
        },
        {
          "name": "C4",
          "midi": 60,
          "time": 135.90369600000022,
          "velocity": 0.6299212598425197,
          "duration": 0.3606929874999878
        },
        {
          "name": "A4",
          "midi": 69,
          "time": 136.26514200000022,
          "velocity": 0.6299212598425197,
          "duration": 0.17996998749998738
        },
        {
          "name": "F4",
          "midi": 65,
          "time": 136.44586500000023,
          "velocity": 0.6299212598425197,
          "duration": 0.17996998749998738
        },
        {
          "name": "A4",
          "midi": 69,
          "time": 136.62658800000023,
          "velocity": 0.6299212598425197,
          "duration": 0.17996998749998738
        },
        {
          "name": "F4",
          "midi": 65,
          "time": 136.80731100000023,
          "velocity": 0.6299212598425197,
          "duration": 0.17996998749998738
        },
        {
          "name": "A4",
          "midi": 69,
          "time": 136.98803400000023,
          "velocity": 0.6299212598425197,
          "duration": 0.17996998749998738
        },
        {
          "name": "F4",
          "midi": 65,
          "time": 137.16875700000023,
          "velocity": 0.6299212598425197,
          "duration": 0.17996998749998738
        },
        {
          "name": "C4",
          "midi": 60,
          "time": 137.34948000000023,
          "velocity": 0.6299212598425197,
          "duration": 0.3606929874999878
        },
        {
          "name": "A4",
          "midi": 69,
          "time": 137.71092600000023,
          "velocity": 0.6299212598425197,
          "duration": 0.17996998749998738
        },
        {
          "name": "F4",
          "midi": 65,
          "time": 137.89164900000023,
          "velocity": 0.6299212598425197,
          "duration": 0.17996998749998738
        },
        {
          "name": "A4",
          "midi": 69,
          "time": 138.07237200000023,
          "velocity": 0.6299212598425197,
          "duration": 0.17996998749998738
        },
        {
          "name": "F4",
          "midi": 65,
          "time": 138.25309500000023,
          "velocity": 0.6299212598425197,
          "duration": 0.17996998749998738
        },
        {
          "name": "A4",
          "midi": 69,
          "time": 138.43381800000023,
          "velocity": 0.6299212598425197,
          "duration": 0.17996998749998738
        },
        {
          "name": "F4",
          "midi": 65,
          "time": 138.61454100000023,
          "velocity": 0.6299212598425197,
          "duration": 0.17996998749998738
        },
        {
          "name": "A4",
          "midi": 69,
          "time": 138.79526400000023,
          "velocity": 0.6299212598425197,
          "duration": 0.3606929874999878
        },
        {
          "name": "C4",
          "midi": 60,
          "time": 139.15671000000023,
          "velocity": 0.6299212598425197,
          "duration": 0.17996998749998738
        },
        {
          "name": "E4",
          "midi": 64,
          "time": 139.33743300000023,
          "velocity": 0.6299212598425197,
          "duration": 0.17996998749998738
        },
        {
          "name": "C4",
          "midi": 60,
          "time": 139.51815600000023,
          "velocity": 0.6299212598425197,
          "duration": 0.17996998749998738
        },
        {
          "name": "E4",
          "midi": 64,
          "time": 139.69887900000023,
          "velocity": 0.6299212598425197,
          "duration": 0.17996998749998738
        },
        {
          "name": "C4",
          "midi": 60,
          "time": 139.87960200000023,
          "velocity": 0.6299212598425197,
          "duration": 0.17996998749998738
        },
        {
          "name": "E4",
          "midi": 64,
          "time": 140.06032500000023,
          "velocity": 0.6299212598425197,
          "duration": 0.17996998749998738
        },
        {
          "name": "A4",
          "midi": 69,
          "time": 140.24104800000023,
          "velocity": 0.6299212598425197,
          "duration": 0.3606929874999878
        },
        {
          "name": "C4",
          "midi": 60,
          "time": 140.60249400000023,
          "velocity": 0.6299212598425197,
          "duration": 0.17996998749998738
        },
        {
          "name": "E4",
          "midi": 64,
          "time": 140.78321700000023,
          "velocity": 0.6299212598425197,
          "duration": 0.17996998749998738
        },
        {
          "name": "C4",
          "midi": 60,
          "time": 140.96394000000024,
          "velocity": 0.6299212598425197,
          "duration": 0.17996998749998738
        },
        {
          "name": "E4",
          "midi": 64,
          "time": 141.14466300000024,
          "velocity": 0.6299212598425197,
          "duration": 0.17996998749998738
        },
        {
          "name": "C4",
          "midi": 60,
          "time": 141.32538600000024,
          "velocity": 0.6299212598425197,
          "duration": 0.17996998749998738
        },
        {
          "name": "E4",
          "midi": 64,
          "time": 141.50610900000024,
          "velocity": 0.6299212598425197,
          "duration": 0.17996998749998738
        },
        {
          "name": "E4",
          "midi": 64,
          "time": 141.68683200000024,
          "velocity": 0.6299212598425197,
          "duration": 0.3606929874999878
        },
        {
          "name": "F4",
          "midi": 65,
          "time": 142.04827800000024,
          "velocity": 0.6299212598425197,
          "duration": 0.17996998749998738
        },
        {
          "name": "F4",
          "midi": 65,
          "time": 142.22900100000024,
          "velocity": 0.6299212598425197,
          "duration": 0.17996998749998738
        },
        {
          "name": "E4",
          "midi": 64,
          "time": 142.40972400000024,
          "velocity": 0.6299212598425197,
          "duration": 0.3606929874999878
        },
        {
          "name": "F4",
          "midi": 65,
          "time": 142.77117000000024,
          "velocity": 0.6299212598425197,
          "duration": 0.17996998749998738
        },
        {
          "name": "F4",
          "midi": 65,
          "time": 142.95189300000024,
          "velocity": 0.6299212598425197,
          "duration": 0.17996998749998738
        },
        {
          "name": "E4",
          "midi": 64,
          "time": 143.13261600000024,
          "velocity": 0.6299212598425197,
          "duration": 0.3606929874999878
        },
        {
          "name": "F4",
          "midi": 65,
          "time": 143.49406200000024,
          "velocity": 0.6299212598425197,
          "duration": 0.17996998749998738
        },
        {
          "name": "F4",
          "midi": 65,
          "time": 143.67478500000024,
          "velocity": 0.6299212598425197,
          "duration": 0.17996998749998738
        },
        {
          "name": "E4",
          "midi": 64,
          "time": 143.85550800000024,
          "velocity": 0.6299212598425197,
          "duration": 0.3606929874999878
        },
        {
          "name": "F4",
          "midi": 65,
          "time": 144.21695400000024,
          "velocity": 0.6299212598425197,
          "duration": 0.17996998749998738
        },
        {
          "name": "F4",
          "midi": 65,
          "time": 144.39767700000024,
          "velocity": 0.6299212598425197,
          "duration": 0.17996998749998738
        },
        {
          "name": "E4",
          "midi": 64,
          "time": 144.57840000000024,
          "velocity": 0.6299212598425197,
          "duration": 0.3606929874999878
        },
        {
          "name": "F4",
          "midi": 65,
          "time": 144.93984600000024,
          "velocity": 0.6299212598425197,
          "duration": 0.17996998749998738
        },
        {
          "name": "F4",
          "midi": 65,
          "time": 145.12056900000024,
          "velocity": 0.6299212598425197,
          "duration": 0.17996998749998738
        },
        {
          "name": "E4",
          "midi": 64,
          "time": 145.30129200000025,
          "velocity": 0.6299212598425197,
          "duration": 0.3606929874999878
        },
        {
          "name": "F4",
          "midi": 65,
          "time": 145.66273800000025,
          "velocity": 0.6299212598425197,
          "duration": 0.17996998749998738
        },
        {
          "name": "F4",
          "midi": 65,
          "time": 145.84346100000025,
          "velocity": 0.6299212598425197,
          "duration": 0.17996998749998738
        },
        {
          "name": "E4",
          "midi": 64,
          "time": 146.02418400000025,
          "velocity": 0.6299212598425197,
          "duration": 0.3606929874999878
        },
        {
          "name": "A4",
          "midi": 69,
          "time": 146.38563000000025,
          "velocity": 0.6299212598425197,
          "duration": 0.17996998749998738
        },
        {
          "name": "A4",
          "midi": 69,
          "time": 146.56635300000025,
          "velocity": 0.6299212598425197,
          "duration": 0.17996998749998738
        },
        {
          "name": "A4",
          "midi": 69,
          "time": 146.74707600000025,
          "velocity": 0.6299212598425197,
          "duration": 0.17996998749998738
        },
        {
          "name": "A4",
          "midi": 69,
          "time": 146.92779900000025,
          "velocity": 0.6299212598425197,
          "duration": 0.17996998749998738
        },
        {
          "name": "A4",
          "midi": 69,
          "time": 147.10852200000025,
          "velocity": 0.6299212598425197,
          "duration": 0.17996998749998738
        },
        {
          "name": "A4",
          "midi": 69,
          "time": 147.28924500000025,
          "velocity": 0.6299212598425197,
          "duration": 0.17996998749998738
        },
        {
          "name": "A4",
          "midi": 69,
          "time": 147.46996800000025,
          "velocity": 0.6299212598425197,
          "duration": 0.3606929874999878
        },
        {
          "name": "F4",
          "midi": 65,
          "time": 147.83141400000025,
          "velocity": 0.6299212598425197,
          "duration": 0.17996998749998738
        },
        {
          "name": "F4",
          "midi": 65,
          "time": 148.01213700000025,
          "velocity": 0.6299212598425197,
          "duration": 0.17996998749998738
        },
        {
          "name": "A4",
          "midi": 69,
          "time": 148.19286000000025,
          "velocity": 0.6299212598425197,
          "duration": 0.3606929874999878
        },
        {
          "name": "F4",
          "midi": 65,
          "time": 148.55430600000025,
          "velocity": 0.6299212598425197,
          "duration": 0.17996998749998738
        },
        {
          "name": "F4",
          "midi": 65,
          "time": 148.73502900000025,
          "velocity": 0.6299212598425197,
          "duration": 0.17996998749998738
        },
        {
          "name": "A4",
          "midi": 69,
          "time": 148.91575200000025,
          "velocity": 0.6299212598425197,
          "duration": 0.3606929874999878
        },
        {
          "name": "F4",
          "midi": 65,
          "time": 149.27719800000025,
          "velocity": 0.6299212598425197,
          "duration": 0.17996998749998738
        },
        {
          "name": "F4",
          "midi": 65,
          "time": 149.45792100000025,
          "velocity": 0.6299212598425197,
          "duration": 0.17996998749998738
        },
        {
          "name": "E4",
          "midi": 64,
          "time": 149.63864400000026,
          "velocity": 0.6299212598425197,
          "duration": 0.3606929874999878
        },
        {
          "name": "C4",
          "midi": 60,
          "time": 150.00009000000026,
          "velocity": 0.6299212598425197,
          "duration": 0.3606929874999878
        },
        {
          "name": "C4",
          "midi": 60,
          "time": 150.36153600000026,
          "velocity": 0.6299212598425197,
          "duration": 0.3606929874999878
        },
        {
          "name": "E4",
          "midi": 64,
          "time": 150.72298200000026,
          "velocity": 0.6299212598425197,
          "duration": 0.17996998749998738
        },
        {
          "name": "E4",
          "midi": 64,
          "time": 150.90370500000026,
          "velocity": 0.6299212598425197,
          "duration": 0.17996998749998738
        },
        {
          "name": "C4",
          "midi": 60,
          "time": 151.08442800000026,
          "velocity": 0.6299212598425197,
          "duration": 0.3606929874999878
        },
        {
          "name": "E4",
          "midi": 64,
          "time": 151.44587400000026,
          "velocity": 0.6299212598425197,
          "duration": 0.17996998749998738
        },
        {
          "name": "E4",
          "midi": 64,
          "time": 151.62659700000026,
          "velocity": 0.6299212598425197,
          "duration": 0.17996998749998738
        },
        {
          "name": "C4",
          "midi": 60,
          "time": 151.80732000000026,
          "velocity": 0.6299212598425197,
          "duration": 0.3606929874999878
        },
        {
          "name": "E4",
          "midi": 64,
          "time": 152.16876600000026,
          "velocity": 0.6299212598425197,
          "duration": 0.17996998749998738
        },
        {
          "name": "E4",
          "midi": 64,
          "time": 152.34948900000026,
          "velocity": 0.6299212598425197,
          "duration": 0.17996998749998738
        },
        {
          "name": "F4",
          "midi": 65,
          "time": 152.53021200000026,
          "velocity": 0.6299212598425197,
          "duration": 0.3606929874999878
        },
        {
          "name": "A4",
          "midi": 69,
          "time": 152.89165800000026,
          "velocity": 0.6299212598425197,
          "duration": 0.3606929874999878
        },
        {
          "name": "A4",
          "midi": 69,
          "time": 153.25310400000026,
          "velocity": 0.6299212598425197,
          "duration": 0.3606929874999878
        },
        {
          "name": "F4",
          "midi": 65,
          "time": 153.61455000000026,
          "velocity": 0.6299212598425197,
          "duration": 0.17996998749998738
        },
        {
          "name": "F4",
          "midi": 65,
          "time": 153.79527300000026,
          "velocity": 0.6299212598425197,
          "duration": 0.17996998749998738
        },
        {
          "name": "A4",
          "midi": 69,
          "time": 153.97599600000026,
          "velocity": 0.6299212598425197,
          "duration": 0.3606929874999878
        },
        {
          "name": "E4",
          "midi": 64,
          "time": 154.33744200000027,
          "velocity": 0.6299212598425197,
          "duration": 0.3606929874999878
        },
        {
          "name": "C4",
          "midi": 60,
          "time": 154.69888800000027,
          "velocity": 0.6299212598425197,
          "duration": 0.17996998749998738
        },
        {
          "name": "E4",
          "midi": 64,
          "time": 154.87961100000027,
          "velocity": 0.6299212598425197,
          "duration": 0.17996998749998738
        },
        {
          "name": "C4",
          "midi": 60,
          "time": 155.06033400000027,
          "velocity": 0.6299212598425197,
          "duration": 0.17996998749998738
        },
        {
          "name": "E4",
          "midi": 64,
          "time": 155.24105700000027,
          "velocity": 0.6299212598425197,
          "duration": 0.17996998749998738
        },
        {
          "name": "C4",
          "midi": 60,
          "time": 155.42178000000027,
          "velocity": 0.6299212598425197,
          "duration": 0.17996998749998738
        },
        {
          "name": "E4",
          "midi": 64,
          "time": 155.60250300000027,
          "velocity": 0.6299212598425197,
          "duration": 0.17996998749998738
        },
        {
          "name": "C4",
          "midi": 60,
          "time": 155.78322600000027,
          "velocity": 0.6299212598425197,
          "duration": 0.3606929874999878
        },
        {
          "name": "A4",
          "midi": 69,
          "time": 156.14467200000027,
          "velocity": 0.6299212598425197,
          "duration": 0.5414159874999882
        },
        {
          "name": "F4",
          "midi": 65,
          "time": 156.68684100000027,
          "velocity": 0.6299212598425197,
          "duration": 0.5414159874999882
        },
        {
          "name": "E4",
          "midi": 64,
          "time": 157.22901000000027,
          "velocity": 0.6299212598425197,
          "duration": 0.5414159874999882
        },
        {
          "name": "C4",
          "midi": 60,
          "time": 157.77117900000027,
          "velocity": 0.6299212598425197,
          "duration": 0.5414159874999882
        },
        {
          "name": "C4",
          "midi": 60,
          "time": 158.31334800000027,
          "velocity": 0.6299212598425197,
          "duration": 0.7221389874999886
        },
        {
          "name": "A4",
          "midi": 69,
          "time": 158.31334800000027,
          "velocity": 0.6299212598425197,
          "duration": 0.7221389874999886
        },
        {
          "name": "C4",
          "midi": 60,
          "time": 159.03624000000028,
          "velocity": 0.6299212598425197,
          "duration": 0.3606929874999878
        },
        {
          "name": "E4",
          "midi": 64,
          "time": 159.39768600000028,
          "velocity": 0.6299212598425197,
          "duration": 0.17996998749998738
        },
        {
          "name": "E4",
          "midi": 64,
          "time": 159.57840900000028,
          "velocity": 0.6299212598425197,
          "duration": 0.17996998749998738
        },
        {
          "name": "C4",
          "midi": 60,
          "time": 159.75913200000028,
          "velocity": 0.6299212598425197,
          "duration": 0.3606929874999878
        },
        {
          "name": "E4",
          "midi": 64,
          "time": 160.12057800000028,
          "velocity": 0.6299212598425197,
          "duration": 0.17996998749998738
        },
        {
          "name": "E4",
          "midi": 64,
          "time": 160.30130100000028,
          "velocity": 0.6299212598425197,
          "duration": 0.17996998749998738
        },
        {
          "name": "C4",
          "midi": 60,
          "time": 160.48202400000028,
          "velocity": 0.6299212598425197,
          "duration": 0.3606929874999878
        },
        {
          "name": "E4",
          "midi": 64,
          "time": 160.84347000000028,
          "velocity": 0.6299212598425197,
          "duration": 0.17996998749998738
        },
        {
          "name": "E4",
          "midi": 64,
          "time": 161.02419300000028,
          "velocity": 0.6299212598425197,
          "duration": 0.17996998749998738
        },
        {
          "name": "C4",
          "midi": 60,
          "time": 161.20491600000028,
          "velocity": 0.6299212598425197,
          "duration": 0.3606929874999878
        },
        {
          "name": "F4",
          "midi": 65,
          "time": 161.56636200000028,
          "velocity": 0.6299212598425197,
          "duration": 0.3606929874999878
        },
        {
          "name": "A4",
          "midi": 69,
          "time": 161.92780800000028,
          "velocity": 0.6299212598425197,
          "duration": 0.3606929874999878
        },
        {
          "name": "F4",
          "midi": 65,
          "time": 162.28925400000028,
          "velocity": 0.6299212598425197,
          "duration": 0.17996998749998738
        },
        {
          "name": "F4",
          "midi": 65,
          "time": 162.46997700000028,
          "velocity": 0.6299212598425197,
          "duration": 0.17996998749998738
        },
        {
          "name": "A4",
          "midi": 69,
          "time": 162.65070000000028,
          "velocity": 0.6299212598425197,
          "duration": 0.3606929874999878
        },
        {
          "name": "F4",
          "midi": 65,
          "time": 163.01214600000029,
          "velocity": 0.6299212598425197,
          "duration": 0.17996998749998738
        },
        {
          "name": "F4",
          "midi": 65,
          "time": 163.1928690000003,
          "velocity": 0.6299212598425197,
          "duration": 0.17996998749998738
        },
        {
          "name": "A4",
          "midi": 69,
          "time": 163.3735920000003,
          "velocity": 0.6299212598425197,
          "duration": 0.3606929874999878
        },
        {
          "name": "F4",
          "midi": 65,
          "time": 163.7350380000003,
          "velocity": 0.6299212598425197,
          "duration": 0.17996998749998738
        },
        {
          "name": "A4",
          "midi": 69,
          "time": 163.7350380000003,
          "velocity": 0.6299212598425197,
          "duration": 0.17996998749998738
        },
        {
          "name": "F4",
          "midi": 65,
          "time": 163.9157610000003,
          "velocity": 0.6299212598425197,
          "duration": 0.17996998749998738
        },
        {
          "name": "A4",
          "midi": 69,
          "time": 163.9157610000003,
          "velocity": 0.6299212598425197,
          "duration": 0.17996998749998738
        },
        {
          "name": "F4",
          "midi": 65,
          "time": 164.0964840000003,
          "velocity": 0.6299212598425197,
          "duration": 0.17996998749998738
        },
        {
          "name": "A4",
          "midi": 69,
          "time": 164.0964840000003,
          "velocity": 0.6299212598425197,
          "duration": 0.17996998749998738
        },
        {
          "name": "F4",
          "midi": 65,
          "time": 164.2772070000003,
          "velocity": 0.6299212598425197,
          "duration": 0.17996998749998738
        },
        {
          "name": "A4",
          "midi": 69,
          "time": 164.2772070000003,
          "velocity": 0.6299212598425197,
          "duration": 0.17996998749998738
        },
        {
          "name": "F4",
          "midi": 65,
          "time": 164.4579300000003,
          "velocity": 0.6299212598425197,
          "duration": 0.17996998749998738
        },
        {
          "name": "A4",
          "midi": 69,
          "time": 164.4579300000003,
          "velocity": 0.6299212598425197,
          "duration": 0.17996998749998738
        },
        {
          "name": "F4",
          "midi": 65,
          "time": 164.6386530000003,
          "velocity": 0.6299212598425197,
          "duration": 0.17996998749998738
        },
        {
          "name": "A4",
          "midi": 69,
          "time": 164.6386530000003,
          "velocity": 0.6299212598425197,
          "duration": 0.17996998749998738
        },
        {
          "name": "C4",
          "midi": 60,
          "time": 164.8193760000003,
          "velocity": 0.6299212598425197,
          "duration": 0.3606929874999878
        },
        {
          "name": "E4",
          "midi": 64,
          "time": 165.1808220000003,
          "velocity": 0.6299212598425197,
          "duration": 0.17996998749998738
        },
        {
          "name": "E4",
          "midi": 64,
          "time": 165.3615450000003,
          "velocity": 0.6299212598425197,
          "duration": 0.17996998749998738
        },
        {
          "name": "C4",
          "midi": 60,
          "time": 165.5422680000003,
          "velocity": 0.6299212598425197,
          "duration": 0.3606929874999878
        },
        {
          "name": "E4",
          "midi": 64,
          "time": 165.9037140000003,
          "velocity": 0.6299212598425197,
          "duration": 0.17996998749998738
        },
        {
          "name": "E4",
          "midi": 64,
          "time": 166.0844370000003,
          "velocity": 0.6299212598425197,
          "duration": 0.17996998749998738
        },
        {
          "name": "C4",
          "midi": 60,
          "time": 166.2651600000003,
          "velocity": 0.6299212598425197,
          "duration": 0.3606929874999878
        },
        {
          "name": "C4",
          "midi": 60,
          "time": 166.6266060000003,
          "velocity": 0.6299212598425197,
          "duration": 0.17996998749998738
        },
        {
          "name": "E4",
          "midi": 64,
          "time": 166.6266060000003,
          "velocity": 0.6299212598425197,
          "duration": 0.17996998749998738
        },
        {
          "name": "C4",
          "midi": 60,
          "time": 166.8073290000003,
          "velocity": 0.6299212598425197,
          "duration": 0.17996998749998738
        },
        {
          "name": "E4",
          "midi": 64,
          "time": 166.8073290000003,
          "velocity": 0.6299212598425197,
          "duration": 0.17996998749998738
        },
        {
          "name": "C4",
          "midi": 60,
          "time": 166.9880520000003,
          "velocity": 0.6299212598425197,
          "duration": 0.17996998749998738
        },
        {
          "name": "E4",
          "midi": 64,
          "time": 166.9880520000003,
          "velocity": 0.6299212598425197,
          "duration": 0.17996998749998738
        },
        {
          "name": "C4",
          "midi": 60,
          "time": 167.1687750000003,
          "velocity": 0.6299212598425197,
          "duration": 0.17996998749998738
        },
        {
          "name": "E4",
          "midi": 64,
          "time": 167.1687750000003,
          "velocity": 0.6299212598425197,
          "duration": 0.17996998749998738
        },
        {
          "name": "C4",
          "midi": 60,
          "time": 167.3494980000003,
          "velocity": 0.6299212598425197,
          "duration": 0.17996998749998738
        },
        {
          "name": "E4",
          "midi": 64,
          "time": 167.3494980000003,
          "velocity": 0.6299212598425197,
          "duration": 0.17996998749998738
        },
        {
          "name": "C4",
          "midi": 60,
          "time": 167.5302210000003,
          "velocity": 0.6299212598425197,
          "duration": 0.17996998749998738
        },
        {
          "name": "E4",
          "midi": 64,
          "time": 167.5302210000003,
          "velocity": 0.6299212598425197,
          "duration": 0.17996998749998738
        },
        {
          "name": "F4",
          "midi": 65,
          "time": 167.7109440000003,
          "velocity": 0.6299212598425197,
          "duration": 0.3606929874999878
        },
        {
          "name": "E4",
          "midi": 64,
          "time": 168.0723900000003,
          "velocity": 0.6299212598425197,
          "duration": 0.17996998749998738
        },
        {
          "name": "E4",
          "midi": 64,
          "time": 168.2531130000003,
          "velocity": 0.6299212598425197,
          "duration": 0.17996998749998738
        },
        {
          "name": "F4",
          "midi": 65,
          "time": 168.4338360000003,
          "velocity": 0.6299212598425197,
          "duration": 0.3606929874999878
        },
        {
          "name": "E4",
          "midi": 64,
          "time": 168.7952820000003,
          "velocity": 0.6299212598425197,
          "duration": 0.17996998749998738
        },
        {
          "name": "E4",
          "midi": 64,
          "time": 168.9760050000003,
          "velocity": 0.6299212598425197,
          "duration": 0.17996998749998738
        },
        {
          "name": "F4",
          "midi": 65,
          "time": 169.1567280000003,
          "velocity": 0.6299212598425197,
          "duration": 0.3606929874999878
        },
        {
          "name": "E4",
          "midi": 64,
          "time": 169.5181740000003,
          "velocity": 0.6299212598425197,
          "duration": 0.17996998749998738
        },
        {
          "name": "F4",
          "midi": 65,
          "time": 169.5181740000003,
          "velocity": 0.6299212598425197,
          "duration": 0.17996998749998738
        },
        {
          "name": "E4",
          "midi": 64,
          "time": 169.6988970000003,
          "velocity": 0.6299212598425197,
          "duration": 0.17996998749998738
        },
        {
          "name": "F4",
          "midi": 65,
          "time": 169.6988970000003,
          "velocity": 0.6299212598425197,
          "duration": 0.17996998749998738
        },
        {
          "name": "E4",
          "midi": 64,
          "time": 169.8796200000003,
          "velocity": 0.6299212598425197,
          "duration": 0.17996998749998738
        },
        {
          "name": "F4",
          "midi": 65,
          "time": 169.8796200000003,
          "velocity": 0.6299212598425197,
          "duration": 0.17996998749998738
        },
        {
          "name": "E4",
          "midi": 64,
          "time": 170.0603430000003,
          "velocity": 0.6299212598425197,
          "duration": 0.17996998749998738
        },
        {
          "name": "F4",
          "midi": 65,
          "time": 170.0603430000003,
          "velocity": 0.6299212598425197,
          "duration": 0.17996998749998738
        },
        {
          "name": "E4",
          "midi": 64,
          "time": 170.2410660000003,
          "velocity": 0.6299212598425197,
          "duration": 0.17996998749998738
        },
        {
          "name": "F4",
          "midi": 65,
          "time": 170.2410660000003,
          "velocity": 0.6299212598425197,
          "duration": 0.17996998749998738
        },
        {
          "name": "E4",
          "midi": 64,
          "time": 170.4217890000003,
          "velocity": 0.6299212598425197,
          "duration": 0.17996998749998738
        },
        {
          "name": "F4",
          "midi": 65,
          "time": 170.4217890000003,
          "velocity": 0.6299212598425197,
          "duration": 0.17996998749998738
        },
        {
          "name": "C4",
          "midi": 60,
          "time": 170.6025120000003,
          "velocity": 0.6299212598425197,
          "duration": 0.3606929874999878
        },
        {
          "name": "A4",
          "midi": 69,
          "time": 170.6025120000003,
          "velocity": 0.6299212598425197,
          "duration": 0.3606929874999878
        },
        {
          "name": "C4",
          "midi": 60,
          "time": 170.9639580000003,
          "velocity": 0.6299212598425197,
          "duration": 0.3606929874999878
        },
        {
          "name": "A4",
          "midi": 69,
          "time": 170.9639580000003,
          "velocity": 0.6299212598425197,
          "duration": 0.3606929874999878
        },
        {
          "name": "C4",
          "midi": 60,
          "time": 171.3254040000003,
          "velocity": 0.6299212598425197,
          "duration": 0.3606929874999878
        },
        {
          "name": "A4",
          "midi": 69,
          "time": 171.3254040000003,
          "velocity": 0.6299212598425197,
          "duration": 0.3606929874999878
        },
        {
          "name": "A4",
          "midi": 69,
          "time": 171.6868500000003,
          "velocity": 0.6299212598425197,
          "duration": 0.3606929874999878
        },
        {
          "name": "C4",
          "midi": 60,
          "time": 172.0482960000003,
          "velocity": 0.6299212598425197,
          "duration": 0.3606929874999878
        },
        {
          "name": "A4",
          "midi": 69,
          "time": 172.0482960000003,
          "velocity": 0.6299212598425197,
          "duration": 0.3606929874999878
        },
        {
          "name": "C4",
          "midi": 60,
          "time": 172.4097420000003,
          "velocity": 0.6299212598425197,
          "duration": 0.3606929874999878
        },
        {
          "name": "A4",
          "midi": 69,
          "time": 172.4097420000003,
          "velocity": 0.6299212598425197,
          "duration": 0.3606929874999878
        },
        {
          "name": "C4",
          "midi": 60,
          "time": 172.7711880000003,
          "velocity": 0.6299212598425197,
          "duration": 0.3606929874999878
        },
        {
          "name": "A4",
          "midi": 69,
          "time": 172.7711880000003,
          "velocity": 0.6299212598425197,
          "duration": 0.3606929874999878
        },
        {
          "name": "C4",
          "midi": 60,
          "time": 173.1326340000003,
          "velocity": 0.6299212598425197,
          "duration": 0.3606929874999878
        },
        {
          "name": "A4",
          "midi": 69,
          "time": 173.1326340000003,
          "velocity": 0.6299212598425197,
          "duration": 0.3606929874999878
        },
        {
          "name": "C4",
          "midi": 60,
          "time": 173.4940800000003,
          "velocity": 0.6299212598425197,
          "duration": 0.3606929874999878
        },
        {
          "name": "A4",
          "midi": 69,
          "time": 173.4940800000003,
          "velocity": 0.6299212598425197,
          "duration": 0.3606929874999878
        },
        {
          "name": "F4",
          "midi": 65,
          "time": 173.8555260000003,
          "velocity": 0.6299212598425197,
          "duration": 0.17996998749998738
        },
        {
          "name": "F4",
          "midi": 65,
          "time": 174.0362490000003,
          "velocity": 0.6299212598425197,
          "duration": 0.17996998749998738
        },
        {
          "name": "C4",
          "midi": 60,
          "time": 174.2169720000003,
          "velocity": 0.6299212598425197,
          "duration": 0.3606929874999878
        },
        {
          "name": "A4",
          "midi": 69,
          "time": 174.2169720000003,
          "velocity": 0.6299212598425197,
          "duration": 0.3606929874999878
        },
        {
          "name": "F4",
          "midi": 65,
          "time": 174.5784180000003,
          "velocity": 0.6299212598425197,
          "duration": 0.17996998749998738
        },
        {
          "name": "F4",
          "midi": 65,
          "time": 174.7591410000003,
          "velocity": 0.6299212598425197,
          "duration": 0.17996998749998738
        },
        {
          "name": "C4",
          "midi": 60,
          "time": 174.9398640000003,
          "velocity": 0.6299212598425197,
          "duration": 0.3606929874999878
        },
        {
          "name": "A4",
          "midi": 69,
          "time": 174.9398640000003,
          "velocity": 0.6299212598425197,
          "duration": 0.3606929874999878
        },
        {
          "name": "F4",
          "midi": 65,
          "time": 175.3013100000003,
          "velocity": 0.6299212598425197,
          "duration": 0.17996998749998738
        },
        {
          "name": "A4",
          "midi": 69,
          "time": 175.3013100000003,
          "velocity": 0.6299212598425197,
          "duration": 0.17996998749998738
        },
        {
          "name": "F4",
          "midi": 65,
          "time": 175.4820330000003,
          "velocity": 0.6299212598425197,
          "duration": 0.17996998749998738
        },
        {
          "name": "A4",
          "midi": 69,
          "time": 175.4820330000003,
          "velocity": 0.6299212598425197,
          "duration": 0.17996998749998738
        },
        {
          "name": "F4",
          "midi": 65,
          "time": 175.66275600000031,
          "velocity": 0.6299212598425197,
          "duration": 0.17996998749998738
        },
        {
          "name": "A4",
          "midi": 69,
          "time": 175.66275600000031,
          "velocity": 0.6299212598425197,
          "duration": 0.17996998749998738
        },
        {
          "name": "F4",
          "midi": 65,
          "time": 175.84347900000031,
          "velocity": 0.6299212598425197,
          "duration": 0.17996998749998738
        },
        {
          "name": "A4",
          "midi": 69,
          "time": 175.84347900000031,
          "velocity": 0.6299212598425197,
          "duration": 0.17996998749998738
        },
        {
          "name": "F4",
          "midi": 65,
          "time": 176.02420200000032,
          "velocity": 0.6299212598425197,
          "duration": 0.17996998749998738
        },
        {
          "name": "A4",
          "midi": 69,
          "time": 176.02420200000032,
          "velocity": 0.6299212598425197,
          "duration": 0.17996998749998738
        },
        {
          "name": "F4",
          "midi": 65,
          "time": 176.20492500000032,
          "velocity": 0.6299212598425197,
          "duration": 0.17996998749998738
        },
        {
          "name": "A4",
          "midi": 69,
          "time": 176.20492500000032,
          "velocity": 0.6299212598425197,
          "duration": 0.17996998749998738
        },
        {
          "name": "C4",
          "midi": 60,
          "time": 176.38564800000032,
          "velocity": 0.6299212598425197,
          "duration": 0.3606929874999878
        },
        {
          "name": "A4",
          "midi": 69,
          "time": 176.38564800000032,
          "velocity": 0.6299212598425197,
          "duration": 0.3606929874999878
        },
        {
          "name": "E4",
          "midi": 64,
          "time": 176.74709400000032,
          "velocity": 0.6299212598425197,
          "duration": 0.17996998749998738
        },
        {
          "name": "E4",
          "midi": 64,
          "time": 176.92781700000032,
          "velocity": 0.6299212598425197,
          "duration": 0.17996998749998738
        },
        {
          "name": "C4",
          "midi": 60,
          "time": 177.10854000000032,
          "velocity": 0.6299212598425197,
          "duration": 0.3606929874999878
        },
        {
          "name": "A4",
          "midi": 69,
          "time": 177.10854000000032,
          "velocity": 0.6299212598425197,
          "duration": 0.3606929874999878
        },
        {
          "name": "E4",
          "midi": 64,
          "time": 177.46998600000032,
          "velocity": 0.6299212598425197,
          "duration": 0.17996998749998738
        },
        {
          "name": "E4",
          "midi": 64,
          "time": 177.65070900000032,
          "velocity": 0.6299212598425197,
          "duration": 0.17996998749998738
        },
        {
          "name": "C4",
          "midi": 60,
          "time": 177.83143200000032,
          "velocity": 0.6299212598425197,
          "duration": 0.3606929874999878
        },
        {
          "name": "A4",
          "midi": 69,
          "time": 177.83143200000032,
          "velocity": 0.6299212598425197,
          "duration": 0.3606929874999878
        },
        {
          "name": "C4",
          "midi": 60,
          "time": 178.19287800000032,
          "velocity": 0.6299212598425197,
          "duration": 0.17996998749998738
        },
        {
          "name": "E4",
          "midi": 64,
          "time": 178.19287800000032,
          "velocity": 0.6299212598425197,
          "duration": 0.17996998749998738
        },
        {
          "name": "C4",
          "midi": 60,
          "time": 178.37360100000032,
          "velocity": 0.6299212598425197,
          "duration": 0.17996998749998738
        },
        {
          "name": "E4",
          "midi": 64,
          "time": 178.37360100000032,
          "velocity": 0.6299212598425197,
          "duration": 0.17996998749998738
        },
        {
          "name": "C4",
          "midi": 60,
          "time": 178.55432400000032,
          "velocity": 0.6299212598425197,
          "duration": 0.17996998749998738
        },
        {
          "name": "E4",
          "midi": 64,
          "time": 178.55432400000032,
          "velocity": 0.6299212598425197,
          "duration": 0.17996998749998738
        },
        {
          "name": "C4",
          "midi": 60,
          "time": 178.73504700000032,
          "velocity": 0.6299212598425197,
          "duration": 0.17996998749998738
        },
        {
          "name": "E4",
          "midi": 64,
          "time": 178.73504700000032,
          "velocity": 0.6299212598425197,
          "duration": 0.17996998749998738
        },
        {
          "name": "C4",
          "midi": 60,
          "time": 178.91577000000032,
          "velocity": 0.6299212598425197,
          "duration": 0.17996998749998738
        },
        {
          "name": "E4",
          "midi": 64,
          "time": 178.91577000000032,
          "velocity": 0.6299212598425197,
          "duration": 0.17996998749998738
        },
        {
          "name": "C4",
          "midi": 60,
          "time": 179.09649300000032,
          "velocity": 0.6299212598425197,
          "duration": 0.17996998749998738
        },
        {
          "name": "E4",
          "midi": 64,
          "time": 179.09649300000032,
          "velocity": 0.6299212598425197,
          "duration": 0.17996998749998738
        },
        {
          "name": "C4",
          "midi": 60,
          "time": 179.27721600000032,
          "velocity": 0.6299212598425197,
          "duration": 0.3606929874999878
        },
        {
          "name": "F4",
          "midi": 65,
          "time": 179.27721600000032,
          "velocity": 0.6299212598425197,
          "duration": 0.3606929874999878
        },
        {
          "name": "E4",
          "midi": 64,
          "time": 179.63866200000032,
          "velocity": 0.6299212598425197,
          "duration": 0.17996998749998738
        },
        {
          "name": "E4",
          "midi": 64,
          "time": 179.81938500000032,
          "velocity": 0.6299212598425197,
          "duration": 0.17996998749998738
        },
        {
          "name": "C4",
          "midi": 60,
          "time": 180.00010800000032,
          "velocity": 0.6299212598425197,
          "duration": 0.3606929874999878
        },
        {
          "name": "F4",
          "midi": 65,
          "time": 180.00010800000032,
          "velocity": 0.6299212598425197,
          "duration": 0.3606929874999878
        },
        {
          "name": "E4",
          "midi": 64,
          "time": 180.36155400000033,
          "velocity": 0.6299212598425197,
          "duration": 0.17996998749998738
        },
        {
          "name": "E4",
          "midi": 64,
          "time": 180.54227700000033,
          "velocity": 0.6299212598425197,
          "duration": 0.17996998749998738
        },
        {
          "name": "C4",
          "midi": 60,
          "time": 180.72300000000033,
          "velocity": 0.6299212598425197,
          "duration": 0.3606929874999878
        },
        {
          "name": "F4",
          "midi": 65,
          "time": 180.72300000000033,
          "velocity": 0.6299212598425197,
          "duration": 0.3606929874999878
        },
        {
          "name": "E4",
          "midi": 64,
          "time": 181.08444600000033,
          "velocity": 0.6299212598425197,
          "duration": 0.17996998749998738
        },
        {
          "name": "F4",
          "midi": 65,
          "time": 181.08444600000033,
          "velocity": 0.6299212598425197,
          "duration": 0.17996998749998738
        },
        {
          "name": "E4",
          "midi": 64,
          "time": 181.26516900000033,
          "velocity": 0.6299212598425197,
          "duration": 0.17996998749998738
        },
        {
          "name": "F4",
          "midi": 65,
          "time": 181.26516900000033,
          "velocity": 0.6299212598425197,
          "duration": 0.17996998749998738
        },
        {
          "name": "E4",
          "midi": 64,
          "time": 181.44589200000033,
          "velocity": 0.6299212598425197,
          "duration": 0.17996998749998738
        },
        {
          "name": "F4",
          "midi": 65,
          "time": 181.44589200000033,
          "velocity": 0.6299212598425197,
          "duration": 0.17996998749998738
        },
        {
          "name": "E4",
          "midi": 64,
          "time": 181.62661500000033,
          "velocity": 0.6299212598425197,
          "duration": 0.17996998749998738
        },
        {
          "name": "F4",
          "midi": 65,
          "time": 181.62661500000033,
          "velocity": 0.6299212598425197,
          "duration": 0.17996998749998738
        },
        {
          "name": "E4",
          "midi": 64,
          "time": 181.80733800000033,
          "velocity": 0.6299212598425197,
          "duration": 0.17996998749998738
        },
        {
          "name": "F4",
          "midi": 65,
          "time": 181.80733800000033,
          "velocity": 0.6299212598425197,
          "duration": 0.17996998749998738
        },
        {
          "name": "E4",
          "midi": 64,
          "time": 181.98806100000033,
          "velocity": 0.6299212598425197,
          "duration": 0.17996998749998738
        },
        {
          "name": "F4",
          "midi": 65,
          "time": 181.98806100000033,
          "velocity": 0.6299212598425197,
          "duration": 0.17996998749998738
        },
        {
          "name": "C4",
          "midi": 60,
          "time": 182.16878400000033,
          "velocity": 0.6299212598425197,
          "duration": 0.3606929874999878
        },
        {
          "name": "A4",
          "midi": 69,
          "time": 182.16878400000033,
          "velocity": 0.6299212598425197,
          "duration": 0.3606929874999878
        },
        {
          "name": "C4",
          "midi": 60,
          "time": 182.53023000000033,
          "velocity": 0.6299212598425197,
          "duration": 0.3606929874999878
        },
        {
          "name": "A4",
          "midi": 69,
          "time": 182.53023000000033,
          "velocity": 0.6299212598425197,
          "duration": 0.3606929874999878
        },
        {
          "name": "C4",
          "midi": 60,
          "time": 182.89167600000033,
          "velocity": 0.6299212598425197,
          "duration": 0.3606929874999878
        },
        {
          "name": "A4",
          "midi": 69,
          "time": 182.89167600000033,
          "velocity": 0.6299212598425197,
          "duration": 0.3606929874999878
        },
        {
          "name": "A4",
          "midi": 69,
          "time": 183.25312200000033,
          "velocity": 0.6299212598425197,
          "duration": 0.3606929874999878
        },
        {
          "name": "C4",
          "midi": 60,
          "time": 183.61456800000033,
          "velocity": 0.6299212598425197,
          "duration": 0.3606929874999878
        },
        {
          "name": "A4",
          "midi": 69,
          "time": 183.61456800000033,
          "velocity": 0.6299212598425197,
          "duration": 0.3606929874999878
        },
        {
          "name": "C4",
          "midi": 60,
          "time": 183.97601400000033,
          "velocity": 0.6299212598425197,
          "duration": 0.3606929874999878
        },
        {
          "name": "A4",
          "midi": 69,
          "time": 183.97601400000033,
          "velocity": 0.6299212598425197,
          "duration": 0.3606929874999878
        },
        {
          "name": "C4",
          "midi": 60,
          "time": 184.33746000000033,
          "velocity": 0.6299212598425197,
          "duration": 0.3606929874999878
        },
        {
          "name": "A4",
          "midi": 69,
          "time": 184.33746000000033,
          "velocity": 0.6299212598425197,
          "duration": 0.3606929874999878
        },
        {
          "name": "C4",
          "midi": 60,
          "time": 184.69890600000033,
          "velocity": 0.6299212598425197,
          "duration": 0.3606929874999878
        },
        {
          "name": "A4",
          "midi": 69,
          "time": 184.69890600000033,
          "velocity": 0.6299212598425197,
          "duration": 0.3606929874999878
        },
        {
          "name": "C4",
          "midi": 60,
          "time": 185.06035200000034,
          "velocity": 0.6299212598425197,
          "duration": 0.3606929874999878
        },
        {
          "name": "F4",
          "midi": 65,
          "time": 185.06035200000034,
          "velocity": 0.6299212598425197,
          "duration": 0.3606929874999878
        },
        {
          "name": "C4",
          "midi": 60,
          "time": 185.42179800000034,
          "velocity": 0.6299212598425197,
          "duration": 0.3606929874999878
        },
        {
          "name": "F4",
          "midi": 65,
          "time": 185.42179800000034,
          "velocity": 0.6299212598425197,
          "duration": 0.3606929874999878
        },
        {
          "name": "C4",
          "midi": 60,
          "time": 185.78324400000034,
          "velocity": 0.6299212598425197,
          "duration": 0.3606929874999878
        },
        {
          "name": "F4",
          "midi": 65,
          "time": 185.78324400000034,
          "velocity": 0.6299212598425197,
          "duration": 0.3606929874999878
        },
        {
          "name": "C4",
          "midi": 60,
          "time": 186.14469000000034,
          "velocity": 0.6299212598425197,
          "duration": 0.3606929874999878
        },
        {
          "name": "C4",
          "midi": 60,
          "time": 186.50613600000034,
          "velocity": 0.6299212598425197,
          "duration": 0.3606929874999878
        },
        {
          "name": "F4",
          "midi": 65,
          "time": 186.50613600000034,
          "velocity": 0.6299212598425197,
          "duration": 0.3606929874999878
        },
        {
          "name": "C4",
          "midi": 60,
          "time": 186.86758200000034,
          "velocity": 0.6299212598425197,
          "duration": 0.3606929874999878
        },
        {
          "name": "F4",
          "midi": 65,
          "time": 186.86758200000034,
          "velocity": 0.6299212598425197,
          "duration": 0.3606929874999878
        },
        {
          "name": "C4",
          "midi": 60,
          "time": 187.22902800000034,
          "velocity": 0.6299212598425197,
          "duration": 0.3606929874999878
        },
        {
          "name": "F4",
          "midi": 65,
          "time": 187.22902800000034,
          "velocity": 0.6299212598425197,
          "duration": 0.3606929874999878
        },
        {
          "name": "C4",
          "midi": 60,
          "time": 187.59047400000034,
          "velocity": 0.6299212598425197,
          "duration": 0.3606929874999878
        },
        {
          "name": "E4",
          "midi": 64,
          "time": 187.59047400000034,
          "velocity": 0.6299212598425197,
          "duration": 0.3606929874999878
        },
        {
          "name": "E4",
          "midi": 64,
          "time": 187.95192000000034,
          "velocity": 0.6299212598425197,
          "duration": 0.3606929874999878
        },
        {
          "name": "A4",
          "midi": 69,
          "time": 187.95192000000034,
          "velocity": 0.6299212598425197,
          "duration": 0.3606929874999878
        },
        {
          "name": "E4",
          "midi": 64,
          "time": 188.31336600000034,
          "velocity": 0.6299212598425197,
          "duration": 0.3606929874999878
        },
        {
          "name": "A4",
          "midi": 69,
          "time": 188.31336600000034,
          "velocity": 0.6299212598425197,
          "duration": 0.3606929874999878
        },
        {
          "name": "E4",
          "midi": 64,
          "time": 188.67481200000034,
          "velocity": 0.6299212598425197,
          "duration": 0.3606929874999878
        },
        {
          "name": "A4",
          "midi": 69,
          "time": 188.67481200000034,
          "velocity": 0.6299212598425197,
          "duration": 0.3606929874999878
        },
        {
          "name": "E4",
          "midi": 64,
          "time": 189.03625800000034,
          "velocity": 0.6299212598425197,
          "duration": 0.3606929874999878
        },
        {
          "name": "E4",
          "midi": 64,
          "time": 189.39770400000035,
          "velocity": 0.6299212598425197,
          "duration": 0.3606929874999878
        },
        {
          "name": "A4",
          "midi": 69,
          "time": 189.39770400000035,
          "velocity": 0.6299212598425197,
          "duration": 0.3606929874999878
        },
        {
          "name": "E4",
          "midi": 64,
          "time": 189.75915000000035,
          "velocity": 0.6299212598425197,
          "duration": 0.3606929874999878
        },
        {
          "name": "A4",
          "midi": 69,
          "time": 189.75915000000035,
          "velocity": 0.6299212598425197,
          "duration": 0.3606929874999878
        },
        {
          "name": "E4",
          "midi": 64,
          "time": 190.12059600000035,
          "velocity": 0.6299212598425197,
          "duration": 0.3606929874999878
        },
        {
          "name": "A4",
          "midi": 69,
          "time": 190.12059600000035,
          "velocity": 0.6299212598425197,
          "duration": 0.3606929874999878
        },
        {
          "name": "E4",
          "midi": 64,
          "time": 190.48204200000035,
          "velocity": 0.6299212598425197,
          "duration": 0.3606929874999878
        },
        {
          "name": "A4",
          "midi": 69,
          "time": 190.48204200000035,
          "velocity": 0.6299212598425197,
          "duration": 0.3606929874999878
        },
        {
          "name": "E4",
          "midi": 64,
          "time": 190.84348800000035,
          "velocity": 0.6299212598425197,
          "duration": 0.3606929874999878
        },
        {
          "name": "A4",
          "midi": 69,
          "time": 190.84348800000035,
          "velocity": 0.6299212598425197,
          "duration": 0.3606929874999878
        },
        {
          "name": "C4",
          "midi": 60,
          "time": 191.20493400000035,
          "velocity": 0.6299212598425197,
          "duration": 1.0835849874999894
        },
        {
          "name": "E4",
          "midi": 64,
          "time": 191.20493400000035,
          "velocity": 0.6299212598425197,
          "duration": 1.0835849874999894
        },
        {
          "name": "F4",
          "midi": 65,
          "time": 191.20493400000035,
          "velocity": 0.6299212598425197,
          "duration": 1.0835849874999894
        },
        {
          "name": "A4",
          "midi": 69,
          "time": 191.20493400000035,
          "velocity": 0.6299212598425197,
          "duration": 1.0835849874999894
        }
      ],
      "controlChanges": {
        "6": [
          {
            "number": 6,
            "time": 0,
            "value": 0.09448818897637795
          }
        ],
        "7": [
          {
            "number": 7,
            "time": 0,
            "value": 0.7874015748031497
          }
        ],
        "10": [
          {
            "number": 10,
            "time": 0,
            "value": 0.5039370078740157
          }
        ],
        "91": [
          {
            "number": 91,
            "time": 0,
            "value": 0
          }
        ],
        "93": [
          {
            "number": 93,
            "time": 0,
            "value": 0
          }
        ],
        "100": [
          {
            "number": 100,
            "time": 0,
            "value": 0
          },
          {
            "number": 100,
            "time": 0,
            "value": 1
          }
        ],
        "101": [
          {
            "number": 101,
            "time": 0,
            "value": 0
          },
          {
            "number": 101,
            "time": 0,
            "value": 1
          }
        ],
        "121": [
          {
            "number": 121,
            "time": 0,
            "value": 0
          }
        ]
      },
      "id": 0,
      "name": "Piano",
      "instrumentNumber": 0,
      "instrument": "acoustic grand piano",
      "instrumentFamily": "piano",
      "channelNumber": 0,
      "isPercussion": false
    },
    {
      "startTime": 0,
      "duration": 0,
      "length": 0,
      "notes": [],
      "controlChanges": {},
      "id": 1,
      "name": "Piano"
    }
  ]
}