{
  "header": {
    "PPQ": 480,
    "timeSignature": [
      4,
      4
    ],
    "bpm": 180.00018000018,
    "name": "Piano"
  },
  "tempo": [
    {
      "absoluteTime": 0,
      "seconds": 0,
      "bpm": 180.00018000018
    }
  ],
  "timeSignature": [
    {
      "absoluteTime": 0,
      "seconds": 0,
      "numerator": 4,
      "denominator": 2,
      "click": 24,
      "notesQ": 8
    }
  ],
  "startTime": 0,
  "duration": 231.99907355625464,
  "tracks": [
    {
      "startTime": 0.999999,
      "duration": 231.99907355625464,
      "length": 771,
      "notes": [
        {
          "name": "C4",
          "midi": 60,
          "time": 0.999999,
          "velocity": 0.6299212598425197,
          "duration": 0.33263855624999994
        },
        {
          "name": "E4",
          "midi": 64,
          "time": 0.999999,
          "velocity": 0.6299212598425197,
          "duration": 0.33263855624999994
        },
        {
          "name": "C4",
          "midi": 60,
          "time": 1.333332,
          "velocity": 0.6299212598425197,
          "duration": 0.33263855625000005
        },
        {
          "name": "E4",
          "midi": 64,
          "time": 1.333332,
          "velocity": 0.6299212598425197,
          "duration": 0.33263855625000005
        },
        {
          "name": "F4",
          "midi": 65,
          "time": 1.9999980000000002,
          "velocity": 0.6299212598425197,
          "duration": 0.33263855625000005
        },
        {
          "name": "A4",
          "midi": 69,
          "time": 1.9999980000000002,
          "velocity": 0.6299212598425197,
          "duration": 0.33263855625000005
        },
        {
          "name": "F4",
          "midi": 65,
          "time": 2.3333310000000003,
          "velocity": 0.6299212598425197,
          "duration": 0.33263855625000005
        },
        {
          "name": "A4",
          "midi": 69,
          "time": 2.3333310000000003,
          "velocity": 0.6299212598425197,
          "duration": 0.33263855625000005
        },
        {
          "name": "C4",
          "midi": 60,
          "time": 3.6666630000000002,
          "velocity": 0.6299212598425197,
          "duration": 0.33263855625000005
        },
        {
          "name": "E4",
          "midi": 64,
          "time": 3.6666630000000002,
          "velocity": 0.6299212598425197,
          "duration": 0.33263855625000005
        },
        {
          "name": "C4",
          "midi": 60,
          "time": 3.9999960000000003,
          "velocity": 0.6299212598425197,
          "duration": 0.33263855625000005
        },
        {
          "name": "E4",
          "midi": 64,
          "time": 3.9999960000000003,
          "velocity": 0.6299212598425197,
          "duration": 0.33263855625000005
        },
        {
          "name": "F4",
          "midi": 65,
          "time": 4.6666620000000005,
          "velocity": 0.6299212598425197,
          "duration": 0.33263855625000005
        },
        {
          "name": "A4",
          "midi": 69,
          "time": 4.6666620000000005,
          "velocity": 0.6299212598425197,
          "duration": 0.33263855625000005
        },
        {
          "name": "F4",
          "midi": 65,
          "time": 4.999995,
          "velocity": 0.6299212598425197,
          "duration": 0.33263855625000005
        },
        {
          "name": "A4",
          "midi": 69,
          "time": 4.999995,
          "velocity": 0.6299212598425197,
          "duration": 0.33263855625000005
        },
        {
          "name": "F4",
          "midi": 65,
          "time": 6.333327000000001,
          "velocity": 0.6299212598425197,
          "duration": 0.33263855625000005
        },
        {
          "name": "A4",
          "midi": 69,
          "time": 6.333327000000001,
          "velocity": 0.6299212598425197,
          "duration": 0.33263855625000005
        },
        {
          "name": "F4",
          "midi": 65,
          "time": 6.66666,
          "velocity": 0.6299212598425197,
          "duration": 0.33263855625000005
        },
        {
          "name": "A4",
          "midi": 69,
          "time": 6.66666,
          "velocity": 0.6299212598425197,
          "duration": 0.33263855625000005
        },
        {
          "name": "C4",
          "midi": 60,
          "time": 7.3333260000000005,
          "velocity": 0.6299212598425197,
          "duration": 0.33263855625000005
        },
        {
          "name": "E4",
          "midi": 64,
          "time": 7.3333260000000005,
          "velocity": 0.6299212598425197,
          "duration": 0.33263855625000005
        },
        {
          "name": "C4",
          "midi": 60,
          "time": 7.666659,
          "velocity": 0.6299212598425197,
          "duration": 0.33263855625000005
        },
        {
          "name": "E4",
          "midi": 64,
          "time": 7.666659,
          "velocity": 0.6299212598425197,
          "duration": 0.33263855625000005
        },
        {
          "name": "F4",
          "midi": 65,
          "time": 8.999991,
          "velocity": 0.6299212598425197,
          "duration": 0.33263855625000005
        },
        {
          "name": "A4",
          "midi": 69,
          "time": 8.999991,
          "velocity": 0.6299212598425197,
          "duration": 0.33263855625000005
        },
        {
          "name": "F4",
          "midi": 65,
          "time": 9.333324,
          "velocity": 0.6299212598425197,
          "duration": 0.33263855625000005
        },
        {
          "name": "A4",
          "midi": 69,
          "time": 9.333324,
          "velocity": 0.6299212598425197,
          "duration": 0.33263855625000005
        },
        {
          "name": "C4",
          "midi": 60,
          "time": 9.999989999999999,
          "velocity": 0.6299212598425197,
          "duration": 0.33263855625000005
        },
        {
          "name": "E4",
          "midi": 64,
          "time": 9.999989999999999,
          "velocity": 0.6299212598425197,
          "duration": 0.33263855625000005
        },
        {
          "name": "C4",
          "midi": 60,
          "time": 10.333322999999998,
          "velocity": 0.6299212598425197,
          "duration": 0.33263855625000005
        },
        {
          "name": "E4",
          "midi": 64,
          "time": 10.333322999999998,
          "velocity": 0.6299212598425197,
          "duration": 0.33263855625000005
        },
        {
          "name": "A4",
          "midi": 69,
          "time": 11.333321999999999,
          "velocity": 0.6299212598425197,
          "duration": 0.16597205625000022
        },
        {
          "name": "A4",
          "midi": 69,
          "time": 11.499988499999999,
          "velocity": 0.6299212598425197,
          "duration": 0.16597205625000022
        },
        {
          "name": "F4",
          "midi": 65,
          "time": 11.666654999999999,
          "velocity": 0.6299212598425197,
          "duration": 0.33263855625000005
        },
        {
          "name": "A4",
          "midi": 69,
          "time": 11.999987999999998,
          "velocity": 0.6299212598425197,
          "duration": 0.16597205625000022
        },
        {
          "name": "F4",
          "midi": 65,
          "time": 12.166654499999998,
          "velocity": 0.6299212598425197,
          "duration": 0.33263855625000005
        },
        {
          "name": "A4",
          "midi": 69,
          "time": 12.499987499999998,
          "velocity": 0.6299212598425197,
          "duration": 0.16597205625000022
        },
        {
          "name": "F4",
          "midi": 65,
          "time": 12.666653999999998,
          "velocity": 0.6299212598425197,
          "duration": 0.33263855625000005
        },
        {
          "name": "F4",
          "midi": 65,
          "time": 12.999986999999997,
          "velocity": 0.6299212598425197,
          "duration": 0.33263855625000005
        },
        {
          "name": "C4",
          "midi": 60,
          "time": 13.333319999999997,
          "velocity": 0.6299212598425197,
          "duration": 0.33263855625000005
        },
        {
          "name": "A4",
          "midi": 69,
          "time": 13.333319999999997,
          "velocity": 0.6299212598425197,
          "duration": 0.33263855625000005
        },
        {
          "name": "E4",
          "midi": 64,
          "time": 13.666652999999997,
          "velocity": 0.6299212598425197,
          "duration": 0.16597205625000022
        },
        {
          "name": "E4",
          "midi": 64,
          "time": 13.833319499999996,
          "velocity": 0.6299212598425197,
          "duration": 0.16597205625000022
        },
        {
          "name": "C4",
          "midi": 60,
          "time": 13.999985999999996,
          "velocity": 0.6299212598425197,
          "duration": 0.16597205625000022
        },
        {
          "name": "F4",
          "midi": 65,
          "time": 13.999985999999996,
          "velocity": 0.6299212598425197,
          "duration": 0.16597205625000022
        },
        {
          "name": "C4",
          "midi": 60,
          "time": 14.166652499999996,
          "velocity": 0.6299212598425197,
          "duration": 0.16597205625000022
        },
        {
          "name": "E4",
          "midi": 64,
          "time": 14.333318999999996,
          "velocity": 0.6299212598425197,
          "duration": 0.33263855625000005
        },
        {
          "name": "C4",
          "midi": 60,
          "time": 14.666651999999996,
          "velocity": 0.6299212598425197,
          "duration": 0.16597205625000022
        },
        {
          "name": "E4",
          "midi": 64,
          "time": 14.833318499999995,
          "velocity": 0.6299212598425197,
          "duration": 0.33263855625000005
        },
        {
          "name": "C4",
          "midi": 60,
          "time": 15.166651499999995,
          "velocity": 0.6299212598425197,
          "duration": 0.16597205625000022
        },
        {
          "name": "A4",
          "midi": 69,
          "time": 15.333317999999995,
          "velocity": 0.6299212598425197,
          "duration": 0.33263855625000005
        },
        {
          "name": "A4",
          "midi": 69,
          "time": 15.666650999999995,
          "velocity": 0.6299212598425197,
          "duration": 0.33263855625000005
        },
        {
          "name": "F4",
          "midi": 65,
          "time": 15.999983999999994,
          "velocity": 0.6299212598425197,
          "duration": 0.33263855625000005
        },
        {
          "name": "F4",
          "midi": 65,
          "time": 16.333316999999994,
          "velocity": 0.6299212598425197,
          "duration": 0.16597205624999845
        },
        {
          "name": "F4",
          "midi": 65,
          "time": 16.499983499999992,
          "velocity": 0.6299212598425197,
          "duration": 0.16597205624999845
        },
        {
          "name": "E4",
          "midi": 64,
          "time": 16.66664999999999,
          "velocity": 0.6299212598425197,
          "duration": 0.16597205624999845
        },
        {
          "name": "A4",
          "midi": 69,
          "time": 16.66664999999999,
          "velocity": 0.6299212598425197,
          "duration": 0.16597205624999845
        },
        {
          "name": "A4",
          "midi": 69,
          "time": 16.833316499999988,
          "velocity": 0.6299212598425197,
          "duration": 0.16597205624999845
        },
        {
          "name": "F4",
          "midi": 65,
          "time": 16.999982999999986,
          "velocity": 0.6299212598425197,
          "duration": 0.33263855625000005
        },
        {
          "name": "A4",
          "midi": 69,
          "time": 17.333315999999986,
          "velocity": 0.6299212598425197,
          "duration": 0.16597205624999845
        },
        {
          "name": "F4",
          "midi": 65,
          "time": 17.499982499999984,
          "velocity": 0.6299212598425197,
          "duration": 0.33263855625000005
        },
        {
          "name": "A4",
          "midi": 69,
          "time": 17.833315499999983,
          "velocity": 0.6299212598425197,
          "duration": 0.16597205624999845
        },
        {
          "name": "F4",
          "midi": 65,
          "time": 17.99998199999998,
          "velocity": 0.6299212598425197,
          "duration": 0.33263855625000005
        },
        {
          "name": "A4",
          "midi": 69,
          "time": 18.33331499999998,
          "velocity": 0.6299212598425197,
          "duration": 0.16597205624999845
        },
        {
          "name": "F4",
          "midi": 65,
          "time": 18.49998149999998,
          "velocity": 0.6299212598425197,
          "duration": 0.33263855625000005
        },
        {
          "name": "A4",
          "midi": 69,
          "time": 18.49998149999998,
          "velocity": 0.6299212598425197,
          "duration": 0.33263855625000005
        },
        {
          "name": "E4",
          "midi": 64,
          "time": 18.83331449999998,
          "velocity": 0.6299212598425197,
          "duration": 0.33263855625000005
        },
        {
          "name": "F4",
          "midi": 65,
          "time": 19.16664749999998,
          "velocity": 0.6299212598425197,
          "duration": 0.16597205624999845
        },
        {
          "name": "C4",
          "midi": 60,
          "time": 19.333313999999977,
          "velocity": 0.6299212598425197,
          "duration": 0.16597205624999845
        },
        {
          "name": "F4",
          "midi": 65,
          "time": 19.333313999999977,
          "velocity": 0.6299212598425197,
          "duration": 0.16597205624999845
        },
        {
          "name": "A4",
          "midi": 69,
          "time": 19.499980499999975,
          "velocity": 0.6299212598425197,
          "duration": 0.33263855625000005
        },
        {
          "name": "F4",
          "midi": 65,
          "time": 19.833313499999974,
          "velocity": 0.6299212598425197,
          "duration": 0.49930505625000166
        },
        {
          "name": "E4",
          "midi": 64,
          "time": 20.333312999999976,
          "velocity": 0.6299212598425197,
          "duration": 0.49930505625000166
        },
        {
          "name": "A4",
          "midi": 69,
          "time": 20.833312499999977,
          "velocity": 0.6299212598425197,
          "duration": 0.49930505625000166
        },
        {
          "name": "C4",
          "midi": 60,
          "time": 21.333311999999978,
          "velocity": 0.6299212598425197,
          "duration": 0.33263855625000005
        },
        {
          "name": "F4",
          "midi": 65,
          "time": 21.333311999999978,
          "velocity": 0.6299212598425197,
          "duration": 0.33263855625000005
        },
        {
          "name": "E4",
          "midi": 64,
          "time": 21.666644999999978,
          "velocity": 0.6299212598425197,
          "duration": 0.33263855625000005
        },
        {
          "name": "A4",
          "midi": 69,
          "time": 21.666644999999978,
          "velocity": 0.6299212598425197,
          "duration": 0.33263855625000005
        },
        {
          "name": "C4",
          "midi": 60,
          "time": 21.999977999999977,
          "velocity": 0.6299212598425197,
          "duration": 0.16597205624999845
        },
        {
          "name": "C4",
          "midi": 60,
          "time": 22.166644499999975,
          "velocity": 0.6299212598425197,
          "duration": 0.16597205624999845
        },
        {
          "name": "A4",
          "midi": 69,
          "time": 22.333310999999973,
          "velocity": 0.6299212598425197,
          "duration": 0.33263855625000005
        },
        {
          "name": "E4",
          "midi": 64,
          "time": 22.666643999999973,
          "velocity": 0.6299212598425197,
          "duration": 0.16597205624999845
        },
        {
          "name": "F4",
          "midi": 65,
          "time": 22.83331049999997,
          "velocity": 0.6299212598425197,
          "duration": 0.33263855625000005
        },
        {
          "name": "C4",
          "midi": 60,
          "time": 23.16664349999997,
          "velocity": 0.6299212598425197,
          "duration": 0.16597205624999845
        },
        {
          "name": "E4",
          "midi": 64,
          "time": 23.33330999999997,
          "velocity": 0.6299212598425197,
          "duration": 0.33263855625000005
        },
        {
          "name": "C4",
          "midi": 60,
          "time": 23.66664299999997,
          "velocity": 0.6299212598425197,
          "duration": 0.49930505625000166
        },
        {
          "name": "E4",
          "midi": 64,
          "time": 23.66664299999997,
          "velocity": 0.6299212598425197,
          "duration": 0.49930505625000166
        },
        {
          "name": "F4",
          "midi": 65,
          "time": 24.16664249999997,
          "velocity": 0.6299212598425197,
          "duration": 0.49930505625000166
        },
        {
          "name": "A4",
          "midi": 69,
          "time": 24.16664249999997,
          "velocity": 0.6299212598425197,
          "duration": 0.49930505625000166
        },
        {
          "name": "C4",
          "midi": 60,
          "time": 24.66664199999997,
          "velocity": 0.6299212598425197,
          "duration": 0.16597205624999845
        },
        {
          "name": "C4",
          "midi": 60,
          "time": 24.83330849999997,
          "velocity": 0.6299212598425197,
          "duration": 0.16597205624999845
        },
        {
          "name": "A4",
          "midi": 69,
          "time": 24.999974999999967,
          "velocity": 0.6299212598425197,
          "duration": 0.33263855625000005
        },
        {
          "name": "E4",
          "midi": 64,
          "time": 25.333307999999967,
          "velocity": 0.6299212598425197,
          "duration": 0.16597205624999845
        },
        {
          "name": "F4",
          "midi": 65,
          "time": 25.499974499999965,
          "velocity": 0.6299212598425197,
          "duration": 0.33263855625000005
        },
        {
          "name": "C4",
          "midi": 60,
          "time": 25.833307499999965,
          "velocity": 0.6299212598425197,
          "duration": 0.16597205624999845
        },
        {
          "name": "E4",
          "midi": 64,
          "time": 25.999973999999963,
          "velocity": 0.6299212598425197,
          "duration": 0.33263855625000005
        },
        {
          "name": "A4",
          "midi": 69,
          "time": 27.33330599999996,
          "velocity": 0.6299212598425197,
          "duration": 0.16597205624999845
        },
        {
          "name": "A4",
          "midi": 69,
          "time": 27.49997249999996,
          "velocity": 0.6299212598425197,
          "duration": 0.16597205624999845
        },
        {
          "name": "F4",
          "midi": 65,
          "time": 27.666638999999957,
          "velocity": 0.6299212598425197,
          "duration": 0.33263855625000005
        },
        {
          "name": "A4",
          "midi": 69,
          "time": 27.999971999999957,
          "velocity": 0.6299212598425197,
          "duration": 0.16597205624999845
        },
        {
          "name": "A4",
          "midi": 69,
          "time": 28.166638499999955,
          "velocity": 0.6299212598425197,
          "duration": 0.16597205624999845
        },
        {
          "name": "F4",
          "midi": 65,
          "time": 28.333304999999953,
          "velocity": 0.6299212598425197,
          "duration": 0.33263855625000005
        },
        {
          "name": "E4",
          "midi": 64,
          "time": 28.666637999999953,
          "velocity": 0.6299212598425197,
          "duration": 0.33263855625000005
        },
        {
          "name": "C4",
          "midi": 60,
          "time": 28.999970999999952,
          "velocity": 0.6299212598425197,
          "duration": 0.33263855625000005
        },
        {
          "name": "C4",
          "midi": 60,
          "time": 29.333303999999952,
          "velocity": 0.6299212598425197,
          "duration": 0.33263855625000005
        },
        {
          "name": "F4",
          "midi": 65,
          "time": 29.66663699999995,
          "velocity": 0.6299212598425197,
          "duration": 0.9993045562499994
        },
        {
          "name": "A#4",
          "midi": 70,
          "time": 29.66663699999995,
          "velocity": 0.6299212598425197,
          "duration": 0.9993045562499994
        },
        {
          "name": "A4",
          "midi": 69,
          "time": 30.66663599999995,
          "velocity": 0.6299212598425197,
          "duration": 0.33263855625000005
        },
        {
          "name": "C#4",
          "midi": 61,
          "time": 30.99996899999995,
          "velocity": 0.6299212598425197,
          "duration": 0.9993045562499994
        },
        {
          "name": "F#4",
          "midi": 66,
          "time": 30.99996899999995,
          "velocity": 0.6299212598425197,
          "duration": 0.9993045562499994
        },
        {
          "name": "F4",
          "midi": 65,
          "time": 31.99996799999995,
          "velocity": 0.6299212598425197,
          "duration": 0.33263855625000005
        },
        {
          "name": "A4",
          "midi": 69,
          "time": 32.33330099999995,
          "velocity": 0.6299212598425197,
          "duration": 0.3326385562499965
        },
        {
          "name": "C4",
          "midi": 60,
          "time": 33.66663299999995,
          "velocity": 0.6299212598425197,
          "duration": 0.16597205624999845
        },
        {
          "name": "E4",
          "midi": 64,
          "time": 33.833299499999946,
          "velocity": 0.6299212598425197,
          "duration": 0.3326385562499965
        },
        {
          "name": "F4",
          "midi": 65,
          "time": 34.16663249999994,
          "velocity": 0.6299212598425197,
          "duration": 0.16597205624999845
        },
        {
          "name": "D4",
          "midi": 62,
          "time": 34.33329899999994,
          "velocity": 0.6299212598425197,
          "duration": 0.3326385562499965
        },
        {
          "name": "A4",
          "midi": 69,
          "time": 34.666631999999936,
          "velocity": 0.6299212598425197,
          "duration": 0.16597205624999845
        },
        {
          "name": "F4",
          "midi": 65,
          "time": 34.833298499999934,
          "velocity": 0.6299212598425197,
          "duration": 0.6659715562499997
        },
        {
          "name": "C4",
          "midi": 60,
          "time": 36.33329699999993,
          "velocity": 0.6299212598425197,
          "duration": 0.16597205624999845
        },
        {
          "name": "E4",
          "midi": 64,
          "time": 36.49996349999993,
          "velocity": 0.6299212598425197,
          "duration": 0.3326385562499965
        },
        {
          "name": "F4",
          "midi": 65,
          "time": 36.833296499999925,
          "velocity": 0.6299212598425197,
          "duration": 0.16597205624999845
        },
        {
          "name": "D4",
          "midi": 62,
          "time": 36.99996299999992,
          "velocity": 0.6299212598425197,
          "duration": 0.3326385562499965
        },
        {
          "name": "A4",
          "midi": 69,
          "time": 37.33329599999992,
          "velocity": 0.6299212598425197,
          "duration": 0.16597205624999845
        },
        {
          "name": "F4",
          "midi": 65,
          "time": 37.49996249999992,
          "velocity": 0.6299212598425197,
          "duration": 0.16597205624999845
        },
        {
          "name": "E4",
          "midi": 64,
          "time": 37.666628999999915,
          "velocity": 0.6299212598425197,
          "duration": 0.49930505625000166
        },
        {
          "name": "F4",
          "midi": 65,
          "time": 37.666628999999915,
          "velocity": 0.6299212598425197,
          "duration": 0.49930505625000166
        },
        {
          "name": "A4",
          "midi": 69,
          "time": 38.166628499999916,
          "velocity": 0.6299212598425197,
          "duration": 0.16597205624999845
        },
        {
          "name": "C4",
          "midi": 60,
          "time": 38.333294999999914,
          "velocity": 0.6299212598425197,
          "duration": 0.3326385562499965
        },
        {
          "name": "A4",
          "midi": 69,
          "time": 38.333294999999914,
          "velocity": 0.6299212598425197,
          "duration": 0.3326385562499965
        },
        {
          "name": "E4",
          "midi": 64,
          "time": 38.66662799999991,
          "velocity": 0.6299212598425197,
          "duration": 0.16597205624999845
        },
        {
          "name": "F4",
          "midi": 65,
          "time": 38.83329449999991,
          "velocity": 0.6299212598425197,
          "duration": 0.3326385562499965
        },
        {
          "name": "A4",
          "midi": 69,
          "time": 39.166627499999905,
          "velocity": 0.6299212598425197,
          "duration": 0.3326385562499965
        },
        {
          "name": "A4",
          "midi": 69,
          "time": 39.4999604999999,
          "velocity": 0.6299212598425197,
          "duration": 0.49930505625000166
        },
        {
          "name": "C4",
          "midi": 60,
          "time": 39.9999599999999,
          "velocity": 0.6299212598425197,
          "duration": 0.16597205624999845
        },
        {
          "name": "C4",
          "midi": 60,
          "time": 40.1666264999999,
          "velocity": 0.6299212598425197,
          "duration": 0.16597205624999845
        },
        {
          "name": "C4",
          "midi": 60,
          "time": 40.3332929999999,
          "velocity": 0.6299212598425197,
          "duration": 0.3326385562499965
        },
        {
          "name": "E4",
          "midi": 64,
          "time": 40.666625999999894,
          "velocity": 0.6299212598425197,
          "duration": 0.16597205624999845
        },
        {
          "name": "E4",
          "midi": 64,
          "time": 40.83329249999989,
          "velocity": 0.6299212598425197,
          "duration": 0.16597205624999845
        },
        {
          "name": "E4",
          "midi": 64,
          "time": 40.99995899999989,
          "velocity": 0.6299212598425197,
          "duration": 0.3326385562499965
        },
        {
          "name": "C4",
          "midi": 60,
          "time": 41.33329199999989,
          "velocity": 0.6299212598425197,
          "duration": 0.16597205624999845
        },
        {
          "name": "C4",
          "midi": 60,
          "time": 41.499958499999885,
          "velocity": 0.6299212598425197,
          "duration": 0.16597205624999845
        },
        {
          "name": "C4",
          "midi": 60,
          "time": 41.66662499999988,
          "velocity": 0.6299212598425197,
          "duration": 0.3326385562499965
        },
        {
          "name": "E4",
          "midi": 64,
          "time": 41.99995799999988,
          "velocity": 0.6299212598425197,
          "duration": 0.3326385562499965
        },
        {
          "name": "C4",
          "midi": 60,
          "time": 42.333290999999875,
          "velocity": 0.6299212598425197,
          "duration": 0.3326385562499965
        },
        {
          "name": "E4",
          "midi": 64,
          "time": 42.66662399999987,
          "velocity": 0.6299212598425197,
          "duration": 0.6659715562499997
        },
        {
          "name": "F4",
          "midi": 65,
          "time": 44.33328899999987,
          "velocity": 0.6299212598425197,
          "duration": 0.3326385562499965
        },
        {
          "name": "A4",
          "midi": 69,
          "time": 44.66662199999987,
          "velocity": 0.6299212598425197,
          "duration": 0.3326385562499965
        },
        {
          "name": "F4",
          "midi": 65,
          "time": 44.999954999999865,
          "velocity": 0.6299212598425197,
          "duration": 0.3326385562499965
        },
        {
          "name": "A4",
          "midi": 69,
          "time": 45.33328799999986,
          "velocity": 0.6299212598425197,
          "duration": 0.3326385562499965
        },
        {
          "name": "F4",
          "midi": 65,
          "time": 45.66662099999986,
          "velocity": 0.6299212598425197,
          "duration": 0.3326385562499965
        },
        {
          "name": "A4",
          "midi": 69,
          "time": 45.99995399999985,
          "velocity": 0.6299212598425197,
          "duration": 0.3326385562499965
        },
        {
          "name": "F#4",
          "midi": 66,
          "time": 46.33328699999985,
          "velocity": 0.6299212598425197,
          "duration": 0.9993045562500029
        },
        {
          "name": "A#4",
          "midi": 70,
          "time": 46.33328699999985,
          "velocity": 0.6299212598425197,
          "duration": 0.9993045562500029
        },
        {
          "name": "C4",
          "midi": 60,
          "time": 47.666618999999855,
          "velocity": 0.6299212598425197,
          "duration": 0.16597205624999845
        },
        {
          "name": "C4",
          "midi": 60,
          "time": 47.83328549999985,
          "velocity": 0.6299212598425197,
          "duration": 0.16597205624999845
        },
        {
          "name": "C4",
          "midi": 60,
          "time": 47.99995199999985,
          "velocity": 0.6299212598425197,
          "duration": 0.3326385562499965
        },
        {
          "name": "C#4",
          "midi": 61,
          "time": 48.33328499999985,
          "velocity": 0.6299212598425197,
          "duration": 0.6659715562499997
        },
        {
          "name": "F4",
          "midi": 65,
          "time": 48.33328499999985,
          "velocity": 0.6299212598425197,
          "duration": 0.6659715562499997
        },
        {
          "name": "E4",
          "midi": 64,
          "time": 48.99995099999985,
          "velocity": 0.6299212598425197,
          "duration": 0.16597205624999845
        },
        {
          "name": "E4",
          "midi": 64,
          "time": 49.166617499999845,
          "velocity": 0.6299212598425197,
          "duration": 0.16597205624999845
        },
        {
          "name": "E4",
          "midi": 64,
          "time": 49.33328399999984,
          "velocity": 0.6299212598425197,
          "duration": 0.3326385562499965
        },
        {
          "name": "C#4",
          "midi": 61,
          "time": 49.66661699999984,
          "velocity": 0.6299212598425197,
          "duration": 0.6659715562499997
        },
        {
          "name": "F4",
          "midi": 65,
          "time": 49.66661699999984,
          "velocity": 0.6299212598425197,
          "duration": 0.6659715562499997
        },
        {
          "name": "F4",
          "midi": 65,
          "time": 50.33328299999984,
          "velocity": 0.6299212598425197,
          "duration": 0.16597205624999845
        },
        {
          "name": "F4",
          "midi": 65,
          "time": 50.499949499999836,
          "velocity": 0.6299212598425197,
          "duration": 0.16597205624999845
        },
        {
          "name": "F4",
          "midi": 65,
          "time": 50.666615999999834,
          "velocity": 0.6299212598425197,
          "duration": 0.3326385562499965
        },
        {
          "name": "F#4",
          "midi": 66,
          "time": 50.99994899999983,
          "velocity": 0.6299212598425197,
          "duration": 0.6659715562499997
        },
        {
          "name": "A#4",
          "midi": 70,
          "time": 50.99994899999983,
          "velocity": 0.6299212598425197,
          "duration": 0.6659715562499997
        },
        {
          "name": "A4",
          "midi": 69,
          "time": 51.66661499999983,
          "velocity": 0.6299212598425197,
          "duration": 0.16597205624999845
        },
        {
          "name": "A4",
          "midi": 69,
          "time": 51.83328149999983,
          "velocity": 0.6299212598425197,
          "duration": 0.16597205624999845
        },
        {
          "name": "A4",
          "midi": 69,
          "time": 51.999947999999826,
          "velocity": 0.6299212598425197,
          "duration": 0.3326385562499965
        },
        {
          "name": "F#4",
          "midi": 66,
          "time": 52.33328099999982,
          "velocity": 0.6299212598425197,
          "duration": 0.6659715562499997
        },
        {
          "name": "A#4",
          "midi": 70,
          "time": 52.33328099999982,
          "velocity": 0.6299212598425197,
          "duration": 0.6659715562499997
        },
        {
          "name": "C4",
          "midi": 60,
          "time": 52.99994699999982,
          "velocity": 0.6299212598425197,
          "duration": 0.16597205624999845
        },
        {
          "name": "C4",
          "midi": 60,
          "time": 53.16661349999982,
          "velocity": 0.6299212598425197,
          "duration": 0.16597205624999845
        },
        {
          "name": "F4",
          "midi": 65,
          "time": 53.33327999999982,
          "velocity": 0.6299212598425197,
          "duration": 0.3326385562499965
        },
        {
          "name": "A4",
          "midi": 69,
          "time": 53.66661299999981,
          "velocity": 0.6299212598425197,
          "duration": 0.3326385562499965
        },
        {
          "name": "C4",
          "midi": 60,
          "time": 53.99994599999981,
          "velocity": 0.6299212598425197,
          "duration": 0.3326385562499965
        },
        {
          "name": "C4",
          "midi": 60,
          "time": 54.333278999999806,
          "velocity": 0.6299212598425197,
          "duration": 0.3326385562499965
        },
        {
          "name": "C4",
          "midi": 60,
          "time": 54.6666119999998,
          "velocity": 0.6299212598425197,
          "duration": 0.3326385562499965
        },
        {
          "name": "C4",
          "midi": 60,
          "time": 54.9999449999998,
          "velocity": 0.6299212598425197,
          "duration": 0.3326385562499965
        },
        {
          "name": "E4",
          "midi": 64,
          "time": 55.333277999999794,
          "velocity": 0.6299212598425197,
          "duration": 0.3326385562499965
        },
        {
          "name": "E4",
          "midi": 64,
          "time": 55.66661099999979,
          "velocity": 0.6299212598425197,
          "duration": 0.3326385562499965
        },
        {
          "name": "E4",
          "midi": 64,
          "time": 55.999943999999786,
          "velocity": 0.6299212598425197,
          "duration": 0.3326385562499965
        },
        {
          "name": "E4",
          "midi": 64,
          "time": 56.33327699999978,
          "velocity": 0.6299212598425197,
          "duration": 0.3326385562499965
        },
        {
          "name": "F4",
          "midi": 65,
          "time": 56.66660999999978,
          "velocity": 0.6299212598425197,
          "duration": 0.3326385562499965
        },
        {
          "name": "F4",
          "midi": 65,
          "time": 56.999942999999774,
          "velocity": 0.6299212598425197,
          "duration": 0.3326385562499965
        },
        {
          "name": "A4",
          "midi": 69,
          "time": 57.33327599999977,
          "velocity": 0.6299212598425197,
          "duration": 0.16597205624999845
        },
        {
          "name": "A4",
          "midi": 69,
          "time": 57.49994249999977,
          "velocity": 0.6299212598425197,
          "duration": 0.16597205624999845
        },
        {
          "name": "A4",
          "midi": 69,
          "time": 57.66660899999977,
          "velocity": 0.6299212598425197,
          "duration": 0.16597205624999845
        },
        {
          "name": "A4",
          "midi": 69,
          "time": 57.833275499999765,
          "velocity": 0.6299212598425197,
          "duration": 0.16597205624999845
        },
        {
          "name": "C4",
          "midi": 60,
          "time": 58.333274999999766,
          "velocity": 0.6299212598425197,
          "duration": 0.16597205624999845
        },
        {
          "name": "C4",
          "midi": 60,
          "time": 58.499941499999764,
          "velocity": 0.6299212598425197,
          "duration": 0.16597205624999845
        },
        {
          "name": "C4",
          "midi": 60,
          "time": 58.66660799999976,
          "velocity": 0.6299212598425197,
          "duration": 0.3326385562499965
        },
        {
          "name": "C#4",
          "midi": 61,
          "time": 58.99994099999976,
          "velocity": 0.6299212598425197,
          "duration": 0.6659715562499997
        },
        {
          "name": "F4",
          "midi": 65,
          "time": 58.99994099999976,
          "velocity": 0.6299212598425197,
          "duration": 0.6659715562499997
        },
        {
          "name": "E4",
          "midi": 64,
          "time": 59.66660699999976,
          "velocity": 0.6299212598425197,
          "duration": 0.16597205624999845
        },
        {
          "name": "E4",
          "midi": 64,
          "time": 59.833273499999756,
          "velocity": 0.6299212598425197,
          "duration": 0.16597205624999845
        },
        {
          "name": "E4",
          "midi": 64,
          "time": 59.999939999999754,
          "velocity": 0.6299212598425197,
          "duration": 0.3326385562499965
        },
        {
          "name": "C#4",
          "midi": 61,
          "time": 60.33327299999975,
          "velocity": 0.6299212598425197,
          "duration": 0.6659715562499997
        },
        {
          "name": "F4",
          "midi": 65,
          "time": 60.33327299999975,
          "velocity": 0.6299212598425197,
          "duration": 0.6659715562499997
        },
        {
          "name": "F4",
          "midi": 65,
          "time": 60.99993899999975,
          "velocity": 0.6299212598425197,
          "duration": 0.16597205624999845
        },
        {
          "name": "F4",
          "midi": 65,
          "time": 61.16660549999975,
          "velocity": 0.6299212598425197,
          "duration": 0.16597205624999845
        },
        {
          "name": "F4",
          "midi": 65,
          "time": 61.333271999999745,
          "velocity": 0.6299212598425197,
          "duration": 0.3326385562499965
        },
        {
          "name": "F#4",
          "midi": 66,
          "time": 61.66660499999974,
          "velocity": 0.6299212598425197,
          "duration": 0.6659715562499997
        },
        {
          "name": "A#4",
          "midi": 70,
          "time": 61.66660499999974,
          "velocity": 0.6299212598425197,
          "duration": 0.6659715562499997
        },
        {
          "name": "A4",
          "midi": 69,
          "time": 62.33327099999974,
          "velocity": 0.6299212598425197,
          "duration": 0.16597205624999845
        },
        {
          "name": "A4",
          "midi": 69,
          "time": 62.49993749999974,
          "velocity": 0.6299212598425197,
          "duration": 0.16597205624999845
        },
        {
          "name": "A4",
          "midi": 69,
          "time": 62.66660399999974,
          "velocity": 0.6299212598425197,
          "duration": 0.3326385562499965
        },
        {
          "name": "F#4",
          "midi": 66,
          "time": 62.99993699999973,
          "velocity": 0.6299212598425197,
          "duration": 0.6659715562499997
        },
        {
          "name": "A#4",
          "midi": 70,
          "time": 62.99993699999973,
          "velocity": 0.6299212598425197,
          "duration": 0.6659715562499997
        },
        {
          "name": "C4",
          "midi": 60,
          "time": 63.66660299999973,
          "velocity": 0.6299212598425197,
          "duration": 0.16597205624999845
        },
        {
          "name": "C4",
          "midi": 60,
          "time": 63.83326949999973,
          "velocity": 0.6299212598425197,
          "duration": 0.16597205624999845
        },
        {
          "name": "F4",
          "midi": 65,
          "time": 63.99993599999973,
          "velocity": 0.6299212598425197,
          "duration": 0.3326385562499965
        },
        {
          "name": "A4",
          "midi": 69,
          "time": 64.33326899999973,
          "velocity": 0.6299212598425197,
          "duration": 0.3326385562500036
        },
        {
          "name": "C4",
          "midi": 60,
          "time": 64.66660199999974,
          "velocity": 0.6299212598425197,
          "duration": 0.3326385562500036
        },
        {
          "name": "C4",
          "midi": 60,
          "time": 64.99993499999975,
          "velocity": 0.6299212598425197,
          "duration": 0.3326385562500036
        },
        {
          "name": "C4",
          "midi": 60,
          "time": 65.33326799999976,
          "velocity": 0.6299212598425197,
          "duration": 0.3326385562500036
        },
        {
          "name": "C4",
          "midi": 60,
          "time": 65.66660099999977,
          "velocity": 0.6299212598425197,
          "duration": 0.3326385562500036
        },
        {
          "name": "E4",
          "midi": 64,
          "time": 65.99993399999978,
          "velocity": 0.6299212598425197,
          "duration": 0.3326385562500036
        },
        {
          "name": "E4",
          "midi": 64,
          "time": 66.3332669999998,
          "velocity": 0.6299212598425197,
          "duration": 0.3326385562500036
        },
        {
          "name": "E4",
          "midi": 64,
          "time": 66.6665999999998,
          "velocity": 0.6299212598425197,
          "duration": 0.3326385562500036
        },
        {
          "name": "E4",
          "midi": 64,
          "time": 66.99993299999981,
          "velocity": 0.6299212598425197,
          "duration": 0.3326385562500036
        },
        {
          "name": "F4",
          "midi": 65,
          "time": 67.33326599999982,
          "velocity": 0.6299212598425197,
          "duration": 0.3326385562500036
        },
        {
          "name": "F4",
          "midi": 65,
          "time": 67.66659899999983,
          "velocity": 0.6299212598425197,
          "duration": 0.3326385562500036
        },
        {
          "name": "A4",
          "midi": 69,
          "time": 67.99993199999984,
          "velocity": 0.6299212598425197,
          "duration": 0.16597205624999845
        },
        {
          "name": "A4",
          "midi": 69,
          "time": 68.16659849999985,
          "velocity": 0.6299212598425197,
          "duration": 0.16597205624999845
        },
        {
          "name": "A4",
          "midi": 69,
          "time": 68.33326499999986,
          "velocity": 0.6299212598425197,
          "duration": 0.16597205624999845
        },
        {
          "name": "A4",
          "midi": 69,
          "time": 68.49993149999986,
          "velocity": 0.6299212598425197,
          "duration": 0.16597205624999845
        },
        {
          "name": "A4",
          "midi": 69,
          "time": 68.66659799999987,
          "velocity": 0.6299212598425197,
          "duration": 0.16597205624999845
        },
        {
          "name": "A4",
          "midi": 69,
          "time": 68.83326449999987,
          "velocity": 0.6299212598425197,
          "duration": 0.16597205624999845
        },
        {
          "name": "A4",
          "midi": 69,
          "time": 68.99993099999988,
          "velocity": 0.6299212598425197,
          "duration": 0.16597205624999845
        },
        {
          "name": "A4",
          "midi": 69,
          "time": 69.16659749999988,
          "velocity": 0.6299212598425197,
          "duration": 0.16597205624999845
        },
        {
          "name": "F4",
          "midi": 65,
          "time": 69.33326399999989,
          "velocity": 0.6299212598425197,
          "duration": 0.3326385562500036
        },
        {
          "name": "F4",
          "midi": 65,
          "time": 69.6665969999999,
          "velocity": 0.6299212598425197,
          "duration": 0.3326385562500036
        },
        {
          "name": "A4",
          "midi": 69,
          "time": 69.9999299999999,
          "velocity": 0.6299212598425197,
          "duration": 0.16597205624999845
        },
        {
          "name": "F4",
          "midi": 65,
          "time": 70.16659649999991,
          "velocity": 0.6299212598425197,
          "duration": 0.49930505624999455
        },
        {
          "name": "F4",
          "midi": 65,
          "time": 70.66659599999991,
          "velocity": 0.6299212598425197,
          "duration": 0.16597205624999845
        },
        {
          "name": "C4",
          "midi": 60,
          "time": 70.83326249999992,
          "velocity": 0.6299212598425197,
          "duration": 0.49930505624999455
        },
        {
          "name": "A4",
          "midi": 69,
          "time": 71.33326199999992,
          "velocity": 0.6299212598425197,
          "duration": 0.16597205624999845
        },
        {
          "name": "F4",
          "midi": 65,
          "time": 71.49992849999992,
          "velocity": 0.6299212598425197,
          "duration": 0.49930505624999455
        },
        {
          "name": "F4",
          "midi": 65,
          "time": 71.99992799999993,
          "velocity": 0.6299212598425197,
          "duration": 0.16597205624999845
        },
        {
          "name": "C4",
          "midi": 60,
          "time": 72.16659449999993,
          "velocity": 0.6299212598425197,
          "duration": 0.49930505624999455
        },
        {
          "name": "A4",
          "midi": 69,
          "time": 72.66659399999993,
          "velocity": 0.6299212598425197,
          "duration": 0.16597205624999845
        },
        {
          "name": "F4",
          "midi": 65,
          "time": 72.83326049999994,
          "velocity": 0.6299212598425197,
          "duration": 0.49930505624999455
        },
        {
          "name": "F4",
          "midi": 65,
          "time": 73.33325999999994,
          "velocity": 0.6299212598425197,
          "duration": 0.16597205624999845
        },
        {
          "name": "C4",
          "midi": 60,
          "time": 73.49992649999994,
          "velocity": 0.6299212598425197,
          "duration": 0.49930505624999455
        },
        {
          "name": "A4",
          "midi": 69,
          "time": 73.99992599999995,
          "velocity": 0.6299212598425197,
          "duration": 0.16597205624999845
        },
        {
          "name": "F4",
          "midi": 65,
          "time": 74.16659249999995,
          "velocity": 0.6299212598425197,
          "duration": 0.49930505624999455
        },
        {
          "name": "F4",
          "midi": 65,
          "time": 74.66659199999995,
          "velocity": 0.6299212598425197,
          "duration": 0.16597205624999845
        },
        {
          "name": "C4",
          "midi": 60,
          "time": 74.83325849999996,
          "velocity": 0.6299212598425197,
          "duration": 0.49930505624999455
        },
        {
          "name": "A4",
          "midi": 69,
          "time": 75.33325799999996,
          "velocity": 0.6299212598425197,
          "duration": 0.16597205624999845
        },
        {
          "name": "F4",
          "midi": 65,
          "time": 75.49992449999996,
          "velocity": 0.6299212598425197,
          "duration": 0.49930505624999455
        },
        {
          "name": "F4",
          "midi": 65,
          "time": 75.99992399999996,
          "velocity": 0.6299212598425197,
          "duration": 0.16597205624999845
        },
        {
          "name": "C4",
          "midi": 60,
          "time": 76.16659049999997,
          "velocity": 0.6299212598425197,
          "duration": 0.49930505624999455
        },
        {
          "name": "A4",
          "midi": 69,
          "time": 76.66658999999997,
          "velocity": 0.6299212598425197,
          "duration": 0.16597205624999845
        },
        {
          "name": "F4",
          "midi": 65,
          "time": 76.83325649999998,
          "velocity": 0.6299212598425197,
          "duration": 0.49930505624999455
        },
        {
          "name": "F4",
          "midi": 65,
          "time": 77.33325599999998,
          "velocity": 0.6299212598425197,
          "duration": 0.16597205624999845
        },
        {
          "name": "C4",
          "midi": 60,
          "time": 77.49992249999998,
          "velocity": 0.6299212598425197,
          "duration": 0.49930505624999455
        },
        {
          "name": "A4",
          "midi": 69,
          "time": 77.99992199999998,
          "velocity": 0.6299212598425197,
          "duration": 0.16597205624999845
        },
        {
          "name": "F4",
          "midi": 65,
          "time": 78.16658849999999,
          "velocity": 0.6299212598425197,
          "duration": 0.49930505624999455
        },
        {
          "name": "F4",
          "midi": 65,
          "time": 78.66658799999999,
          "velocity": 0.6299212598425197,
          "duration": 0.16597205624999845
        },
        {
          "name": "C4",
          "midi": 60,
          "time": 78.8332545,
          "velocity": 0.6299212598425197,
          "duration": 0.49930505624999455
        },
        {
          "name": "A4",
          "midi": 69,
          "time": 79.333254,
          "velocity": 0.6299212598425197,
          "duration": 0.16597205624999845
        },
        {
          "name": "F4",
          "midi": 65,
          "time": 79.4999205,
          "velocity": 0.6299212598425197,
          "duration": 0.49930505624999455
        },
        {
          "name": "F4",
          "midi": 65,
          "time": 79.99992,
          "velocity": 0.6299212598425197,
          "duration": 0.16597205624999845
        },
        {
          "name": "C#4",
          "midi": 61,
          "time": 80.16658650000001,
          "velocity": 0.6299212598425197,
          "duration": 0.49930505624999455
        },
        {
          "name": "F4",
          "midi": 65,
          "time": 80.66658600000001,
          "velocity": 0.6299212598425197,
          "duration": 0.16597205624999845
        },
        {
          "name": "F4",
          "midi": 65,
          "time": 80.83325250000001,
          "velocity": 0.6299212598425197,
          "duration": 0.16597205624999845
        },
        {
          "name": "F4",
          "midi": 65,
          "time": 80.99991900000002,
          "velocity": 0.6299212598425197,
          "duration": 0.3326385562500036
        },
        {
          "name": "E4",
          "midi": 64,
          "time": 81.33325200000003,
          "velocity": 0.6299212598425197,
          "duration": 0.16597205624999845
        },
        {
          "name": "E4",
          "midi": 64,
          "time": 81.49991850000004,
          "velocity": 0.6299212598425197,
          "duration": 0.3326385562500036
        },
        {
          "name": "C4",
          "midi": 60,
          "time": 81.83325150000005,
          "velocity": 0.6299212598425197,
          "duration": 0.16597205624999845
        },
        {
          "name": "C4",
          "midi": 60,
          "time": 81.99991800000005,
          "velocity": 0.6299212598425197,
          "duration": 0.3326385562500036
        },
        {
          "name": "C4",
          "midi": 60,
          "time": 82.33325100000006,
          "velocity": 0.6299212598425197,
          "duration": 0.3326385562500036
        },
        {
          "name": "E4",
          "midi": 64,
          "time": 82.33325100000006,
          "velocity": 0.6299212598425197,
          "duration": 0.3326385562500036
        },
        {
          "name": "F4",
          "midi": 65,
          "time": 82.66658400000007,
          "velocity": 0.6299212598425197,
          "duration": 0.6659715562499997
        },
        {
          "name": "A4",
          "midi": 69,
          "time": 82.66658400000007,
          "velocity": 0.6299212598425197,
          "duration": 0.6659715562499997
        },
        {
          "name": "A4",
          "midi": 69,
          "time": 83.33325000000008,
          "velocity": 0.6299212598425197,
          "duration": 0.16597205624999845
        },
        {
          "name": "A4",
          "midi": 69,
          "time": 83.49991650000008,
          "velocity": 0.6299212598425197,
          "duration": 0.16597205624999845
        },
        {
          "name": "A4",
          "midi": 69,
          "time": 83.66658300000009,
          "velocity": 0.6299212598425197,
          "duration": 0.3326385562500036
        },
        {
          "name": "F4",
          "midi": 65,
          "time": 83.9999160000001,
          "velocity": 0.6299212598425197,
          "duration": 0.16597205624999845
        },
        {
          "name": "F4",
          "midi": 65,
          "time": 84.1665825000001,
          "velocity": 0.6299212598425197,
          "duration": 0.3326385562500036
        },
        {
          "name": "E4",
          "midi": 64,
          "time": 84.49991550000011,
          "velocity": 0.6299212598425197,
          "duration": 0.16597205624999845
        },
        {
          "name": "E4",
          "midi": 64,
          "time": 84.66658200000012,
          "velocity": 0.6299212598425197,
          "duration": 0.3326385562500036
        },
        {
          "name": "A4",
          "midi": 69,
          "time": 85.33324800000013,
          "velocity": 0.6299212598425197,
          "duration": 0.3326385562500036
        },
        {
          "name": "C4",
          "midi": 60,
          "time": 85.66658100000014,
          "velocity": 0.6299212598425197,
          "duration": 0.3326385562500036
        },
        {
          "name": "E4",
          "midi": 64,
          "time": 85.99991400000015,
          "velocity": 0.6299212598425197,
          "duration": 0.16597205624999845
        },
        {
          "name": "E4",
          "midi": 64,
          "time": 86.16658050000015,
          "velocity": 0.6299212598425197,
          "duration": 0.16597205624999845
        },
        {
          "name": "E4",
          "midi": 64,
          "time": 86.33324700000016,
          "velocity": 0.6299212598425197,
          "duration": 0.3326385562500036
        },
        {
          "name": "F4",
          "midi": 65,
          "time": 86.66658000000017,
          "velocity": 0.6299212598425197,
          "duration": 0.16597205624999845
        },
        {
          "name": "F4",
          "midi": 65,
          "time": 86.83324650000017,
          "velocity": 0.6299212598425197,
          "duration": 0.3326385562500036
        },
        {
          "name": "A4",
          "midi": 69,
          "time": 87.16657950000018,
          "velocity": 0.6299212598425197,
          "duration": 0.16597205624999845
        },
        {
          "name": "A4",
          "midi": 69,
          "time": 87.33324600000019,
          "velocity": 0.6299212598425197,
          "duration": 0.3326385562500036
        },
        {
          "name": "F4",
          "midi": 65,
          "time": 87.6665790000002,
          "velocity": 0.6299212598425197,
          "duration": 0.16597205624999845
        },
        {
          "name": "C4",
          "midi": 60,
          "time": 87.8332455000002,
          "velocity": 0.6299212598425197,
          "duration": 0.49930505624999455
        },
        {
          "name": "F#4",
          "midi": 66,
          "time": 88.3332450000002,
          "velocity": 0.6299212598425197,
          "duration": 0.3326385562500036
        },
        {
          "name": "A#4",
          "midi": 70,
          "time": 88.8332445000002,
          "velocity": 0.6299212598425197,
          "duration": 0.3326385562500036
        },
        {
          "name": "F#4",
          "midi": 66,
          "time": 89.3332440000002,
          "velocity": 0.6299212598425197,
          "duration": 0.3326385562500036
        },
        {
          "name": "A#4",
          "midi": 70,
          "time": 89.83324350000021,
          "velocity": 0.6299212598425197,
          "duration": 0.3326385562500036
        },
        {
          "name": "C4",
          "midi": 60,
          "time": 90.33324300000021,
          "velocity": 0.6299212598425197,
          "duration": 0.9993045562499958
        },
        {
          "name": "E4",
          "midi": 64,
          "time": 90.33324300000021,
          "velocity": 0.6299212598425197,
          "duration": 0.9993045562499958
        },
        {
          "name": "F4",
          "midi": 65,
          "time": 91.33324200000021,
          "velocity": 0.6299212598425197,
          "duration": 0.16597205624999845
        },
        {
          "name": "F4",
          "midi": 65,
          "time": 91.49990850000022,
          "velocity": 0.6299212598425197,
          "duration": 0.16597205624999845
        },
        {
          "name": "F4",
          "midi": 65,
          "time": 91.66657500000022,
          "velocity": 0.6299212598425197,
          "duration": 0.3326385562500036
        },
        {
          "name": "E4",
          "midi": 64,
          "time": 91.99990800000023,
          "velocity": 0.6299212598425197,
          "duration": 0.16597205624999845
        },
        {
          "name": "E4",
          "midi": 64,
          "time": 92.16657450000024,
          "velocity": 0.6299212598425197,
          "duration": 0.3326385562500036
        },
        {
          "name": "C4",
          "midi": 60,
          "time": 92.49990750000025,
          "velocity": 0.6299212598425197,
          "duration": 0.16597205624999845
        },
        {
          "name": "C4",
          "midi": 60,
          "time": 92.66657400000025,
          "velocity": 0.6299212598425197,
          "duration": 0.3326385562500036
        },
        {
          "name": "C4",
          "midi": 60,
          "time": 92.99990700000026,
          "velocity": 0.6299212598425197,
          "duration": 0.3326385562500036
        },
        {
          "name": "E4",
          "midi": 64,
          "time": 92.99990700000026,
          "velocity": 0.6299212598425197,
          "duration": 0.3326385562500036
        },
        {
          "name": "F4",
          "midi": 65,
          "time": 93.33324000000027,
          "velocity": 0.6299212598425197,
          "duration": 0.6659715562499997
        },
        {
          "name": "A4",
          "midi": 69,
          "time": 93.33324000000027,
          "velocity": 0.6299212598425197,
          "duration": 0.6659715562499997
        },
        {
          "name": "A4",
          "midi": 69,
          "time": 93.99990600000028,
          "velocity": 0.6299212598425197,
          "duration": 0.16597205624999845
        },
        {
          "name": "A4",
          "midi": 69,
          "time": 94.16657250000029,
          "velocity": 0.6299212598425197,
          "duration": 0.16597205624999845
        },
        {
          "name": "A4",
          "midi": 69,
          "time": 94.33323900000029,
          "velocity": 0.6299212598425197,
          "duration": 0.3326385562500036
        },
        {
          "name": "F4",
          "midi": 65,
          "time": 94.6665720000003,
          "velocity": 0.6299212598425197,
          "duration": 0.16597205624999845
        },
        {
          "name": "F4",
          "midi": 65,
          "time": 94.8332385000003,
          "velocity": 0.6299212598425197,
          "duration": 0.3326385562500036
        },
        {
          "name": "E4",
          "midi": 64,
          "time": 95.16657150000032,
          "velocity": 0.6299212598425197,
          "duration": 0.16597205624999845
        },
        {
          "name": "E4",
          "midi": 64,
          "time": 95.33323800000032,
          "velocity": 0.6299212598425197,
          "duration": 0.3326385562500036
        },
        {
          "name": "F4",
          "midi": 65,
          "time": 95.66657100000033,
          "velocity": 0.6299212598425197,
          "duration": 0.16597205624999845
        },
        {
          "name": "F4",
          "midi": 65,
          "time": 95.83323750000034,
          "velocity": 0.6299212598425197,
          "duration": 0.16597205624999845
        },
        {
          "name": "C4",
          "midi": 60,
          "time": 95.99990400000034,
          "velocity": 0.6299212598425197,
          "duration": 0.6659715562499997
        },
        {
          "name": "A4",
          "midi": 69,
          "time": 95.99990400000034,
          "velocity": 0.6299212598425197,
          "duration": 0.6659715562499997
        },
        {
          "name": "F4",
          "midi": 65,
          "time": 96.66657000000035,
          "velocity": 0.6299212598425197,
          "duration": 0.16597205624999845
        },
        {
          "name": "F4",
          "midi": 65,
          "time": 96.83323650000035,
          "velocity": 0.6299212598425197,
          "duration": 0.16597205624999845
        },
        {
          "name": "F4",
          "midi": 65,
          "time": 96.99990300000036,
          "velocity": 0.6299212598425197,
          "duration": 0.3326385562500036
        },
        {
          "name": "F4",
          "midi": 65,
          "time": 97.33323600000037,
          "velocity": 0.6299212598425197,
          "duration": 0.16597205624999845
        },
        {
          "name": "F4",
          "midi": 65,
          "time": 97.49990250000037,
          "velocity": 0.6299212598425197,
          "duration": 0.3326385562500036
        },
        {
          "name": "E4",
          "midi": 64,
          "time": 97.83323550000038,
          "velocity": 0.6299212598425197,
          "duration": 0.16597205624999845
        },
        {
          "name": "E4",
          "midi": 64,
          "time": 97.99990200000039,
          "velocity": 0.6299212598425197,
          "duration": 0.3326385562500036
        },
        {
          "name": "A4",
          "midi": 69,
          "time": 98.3332350000004,
          "velocity": 0.6299212598425197,
          "duration": 0.3326385562500036
        },
        {
          "name": "C4",
          "midi": 60,
          "time": 98.66656800000041,
          "velocity": 0.6299212598425197,
          "duration": 0.9993045562499958
        },
        {
          "name": "F4",
          "midi": 65,
          "time": 98.66656800000041,
          "velocity": 0.6299212598425197,
          "duration": 0.9993045562499958
        },
        {
          "name": "C4",
          "midi": 60,
          "time": 99.66656700000041,
          "velocity": 0.6299212598425197,
          "duration": 0.3326385562500036
        },
        {
          "name": "E4",
          "midi": 64,
          "time": 99.99990000000042,
          "velocity": 0.6299212598425197,
          "duration": 0.3326385562500036
        },
        {
          "name": "C4",
          "midi": 60,
          "time": 100.33323300000043,
          "velocity": 0.6299212598425197,
          "duration": 0.6659715562499997
        },
        {
          "name": "A4",
          "midi": 69,
          "time": 100.33323300000043,
          "velocity": 0.6299212598425197,
          "duration": 0.6659715562499997
        },
        {
          "name": "F4",
          "midi": 65,
          "time": 100.99989900000044,
          "velocity": 0.6299212598425197,
          "duration": 0.3326385562500036
        },
        {
          "name": "F4",
          "midi": 65,
          "time": 101.33323200000045,
          "velocity": 0.6299212598425197,
          "duration": 0.9993045562499958
        },
        {
          "name": "A#4",
          "midi": 70,
          "time": 101.33323200000045,
          "velocity": 0.6299212598425197,
          "duration": 0.9993045562499958
        },
        {
          "name": "C4",
          "midi": 60,
          "time": 102.66656400000045,
          "velocity": 0.6299212598425197,
          "duration": 0.16597205624999845
        },
        {
          "name": "E4",
          "midi": 64,
          "time": 102.83323050000045,
          "velocity": 0.6299212598425197,
          "duration": 0.49930505624999455
        },
        {
          "name": "C4",
          "midi": 60,
          "time": 103.33323000000046,
          "velocity": 0.6299212598425197,
          "duration": 0.16597205624999845
        },
        {
          "name": "E4",
          "midi": 64,
          "time": 103.49989650000046,
          "velocity": 0.6299212598425197,
          "duration": 0.49930505624999455
        },
        {
          "name": "C4",
          "midi": 60,
          "time": 103.99989600000046,
          "velocity": 0.6299212598425197,
          "duration": 0.16597205624999845
        },
        {
          "name": "F4",
          "midi": 65,
          "time": 104.16656250000047,
          "velocity": 0.6299212598425197,
          "duration": 1.3326375562500061
        },
        {
          "name": "F4",
          "midi": 65,
          "time": 105.49989450000048,
          "velocity": 0.6299212598425197,
          "duration": 0.16597205624999845
        },
        {
          "name": "A4",
          "midi": 69,
          "time": 105.66656100000048,
          "velocity": 0.6299212598425197,
          "duration": 0.49930505624999455
        },
        {
          "name": "F4",
          "midi": 65,
          "time": 106.16656050000049,
          "velocity": 0.6299212598425197,
          "duration": 0.16597205624999845
        },
        {
          "name": "A4",
          "midi": 69,
          "time": 106.33322700000049,
          "velocity": 0.6299212598425197,
          "duration": 0.49930505624999455
        },
        {
          "name": "F4",
          "midi": 65,
          "time": 106.83322650000049,
          "velocity": 0.6299212598425197,
          "duration": 0.16597205624999845
        },
        {
          "name": "A#4",
          "midi": 70,
          "time": 106.9998930000005,
          "velocity": 0.6299212598425197,
          "duration": 1.3326375562500061
        },
        {
          "name": "C4",
          "midi": 60,
          "time": 109.3332240000005,
          "velocity": 0.6299212598425197,
          "duration": 0.16597205624999845
        },
        {
          "name": "C4",
          "midi": 60,
          "time": 109.4998905000005,
          "velocity": 0.6299212598425197,
          "duration": 0.16597205624999845
        },
        {
          "name": "C4",
          "midi": 60,
          "time": 109.66655700000051,
          "velocity": 0.6299212598425197,
          "duration": 0.3326385562500036
        },
        {
          "name": "F4",
          "midi": 65,
          "time": 109.99989000000052,
          "velocity": 0.6299212598425197,
          "duration": 0.16597205624999845
        },
        {
          "name": "F4",
          "midi": 65,
          "time": 110.16655650000052,
          "velocity": 0.6299212598425197,
          "duration": 0.16597205624999845
        },
        {
          "name": "F4",
          "midi": 65,
          "time": 110.33322300000053,
          "velocity": 0.6299212598425197,
          "duration": 0.3326385562500036
        },
        {
          "name": "E4",
          "midi": 64,
          "time": 110.66655600000054,
          "velocity": 0.6299212598425197,
          "duration": 0.16597205624999845
        },
        {
          "name": "E4",
          "midi": 64,
          "time": 110.83322250000055,
          "velocity": 0.6299212598425197,
          "duration": 0.16597205624999845
        },
        {
          "name": "E4",
          "midi": 64,
          "time": 110.99988900000055,
          "velocity": 0.6299212598425197,
          "duration": 0.3326385562500036
        },
        {
          "name": "A4",
          "midi": 69,
          "time": 111.33322200000056,
          "velocity": 0.6299212598425197,
          "duration": 0.3326385562500036
        },
        {
          "name": "F4",
          "midi": 65,
          "time": 111.66655500000057,
          "velocity": 0.6299212598425197,
          "duration": 0.3326385562500036
        },
        {
          "name": "E4",
          "midi": 64,
          "time": 111.99988800000058,
          "velocity": 0.6299212598425197,
          "duration": 0.16597205624999845
        },
        {
          "name": "C4",
          "midi": 60,
          "time": 112.16655450000059,
          "velocity": 0.6299212598425197,
          "duration": 0.16597205624999845
        },
        {
          "name": "F4",
          "midi": 65,
          "time": 113.66655300000059,
          "velocity": 0.6299212598425197,
          "duration": 0.3326385562500036
        },
        {
          "name": "F4",
          "midi": 65,
          "time": 113.9998860000006,
          "velocity": 0.6299212598425197,
          "duration": 0.3326385562500036
        },
        {
          "name": "F4",
          "midi": 65,
          "time": 114.33321900000061,
          "velocity": 0.6299212598425197,
          "duration": 0.3326385562500036
        },
        {
          "name": "F4",
          "midi": 65,
          "time": 114.66655200000062,
          "velocity": 0.6299212598425197,
          "duration": 0.3326385562500036
        },
        {
          "name": "F4",
          "midi": 65,
          "time": 114.99988500000063,
          "velocity": 0.6299212598425197,
          "duration": 0.3326385562500036
        },
        {
          "name": "F4",
          "midi": 65,
          "time": 115.33321800000064,
          "velocity": 0.6299212598425197,
          "duration": 0.3326385562500036
        },
        {
          "name": "F4",
          "midi": 65,
          "time": 115.66655100000065,
          "velocity": 0.6299212598425197,
          "duration": 0.3326385562500036
        },
        {
          "name": "F4",
          "midi": 65,
          "time": 115.99988400000066,
          "velocity": 0.6299212598425197,
          "duration": 0.3326385562500036
        },
        {
          "name": "F4",
          "midi": 65,
          "time": 116.33321700000067,
          "velocity": 0.6299212598425197,
          "duration": 0.3326385562500036
        },
        {
          "name": "F4",
          "midi": 65,
          "time": 116.66655000000068,
          "velocity": 0.6299212598425197,
          "duration": 0.3326385562500036
        },
        {
          "name": "C4",
          "midi": 60,
          "time": 116.9998830000007,
          "velocity": 0.6299212598425197,
          "duration": 0.16597205624999845
        },
        {
          "name": "C4",
          "midi": 60,
          "time": 117.1665495000007,
          "velocity": 0.6299212598425197,
          "duration": 0.16597205624999845
        },
        {
          "name": "C4",
          "midi": 60,
          "time": 117.3332160000007,
          "velocity": 0.6299212598425197,
          "duration": 0.3326385562500036
        },
        {
          "name": "C#4",
          "midi": 61,
          "time": 117.66654900000071,
          "velocity": 0.6299212598425197,
          "duration": 0.6659715562499997
        },
        {
          "name": "F4",
          "midi": 65,
          "time": 117.66654900000071,
          "velocity": 0.6299212598425197,
          "duration": 0.6659715562499997
        },
        {
          "name": "E4",
          "midi": 64,
          "time": 118.33321500000072,
          "velocity": 0.6299212598425197,
          "duration": 0.16597205624999845
        },
        {
          "name": "E4",
          "midi": 64,
          "time": 118.49988150000073,
          "velocity": 0.6299212598425197,
          "duration": 0.16597205624999845
        },
        {
          "name": "E4",
          "midi": 64,
          "time": 118.66654800000073,
          "velocity": 0.6299212598425197,
          "duration": 0.3326385562500036
        },
        {
          "name": "C#4",
          "midi": 61,
          "time": 118.99988100000074,
          "velocity": 0.6299212598425197,
          "duration": 0.6659715562499997
        },
        {
          "name": "F4",
          "midi": 65,
          "time": 118.99988100000074,
          "velocity": 0.6299212598425197,
          "duration": 0.6659715562499997
        },
        {
          "name": "F4",
          "midi": 65,
          "time": 119.66654700000075,
          "velocity": 0.6299212598425197,
          "duration": 0.16597205624999845
        },
        {
          "name": "F4",
          "midi": 65,
          "time": 119.83321350000075,
          "velocity": 0.6299212598425197,
          "duration": 0.16597205624999845
        },
        {
          "name": "F4",
          "midi": 65,
          "time": 119.99988000000076,
          "velocity": 0.6299212598425197,
          "duration": 0.3326385562500036
        },
        {
          "name": "F#4",
          "midi": 66,
          "time": 120.33321300000077,
          "velocity": 0.6299212598425197,
          "duration": 0.6659715562499997
        },
        {
          "name": "A#4",
          "midi": 70,
          "time": 120.33321300000077,
          "velocity": 0.6299212598425197,
          "duration": 0.6659715562499997
        },
        {
          "name": "A4",
          "midi": 69,
          "time": 120.99987900000077,
          "velocity": 0.6299212598425197,
          "duration": 0.16597205624999845
        },
        {
          "name": "A4",
          "midi": 69,
          "time": 121.16654550000078,
          "velocity": 0.6299212598425197,
          "duration": 0.16597205624999845
        },
        {
          "name": "A4",
          "midi": 69,
          "time": 121.33321200000078,
          "velocity": 0.6299212598425197,
          "duration": 0.3326385562500036
        },
        {
          "name": "F#4",
          "midi": 66,
          "time": 121.6665450000008,
          "velocity": 0.6299212598425197,
          "duration": 0.6659715562499997
        },
        {
          "name": "A#4",
          "midi": 70,
          "time": 121.6665450000008,
          "velocity": 0.6299212598425197,
          "duration": 0.6659715562499997
        },
        {
          "name": "C4",
          "midi": 60,
          "time": 122.3332110000008,
          "velocity": 0.6299212598425197,
          "duration": 0.16597205624999845
        },
        {
          "name": "C4",
          "midi": 60,
          "time": 122.4998775000008,
          "velocity": 0.6299212598425197,
          "duration": 0.16597205624999845
        },
        {
          "name": "F4",
          "midi": 65,
          "time": 122.66654400000081,
          "velocity": 0.6299212598425197,
          "duration": 0.3326385562500036
        },
        {
          "name": "A4",
          "midi": 69,
          "time": 122.99987700000082,
          "velocity": 0.6299212598425197,
          "duration": 0.3326385562500036
        },
        {
          "name": "C4",
          "midi": 60,
          "time": 123.33321000000083,
          "velocity": 0.6299212598425197,
          "duration": 0.3326385562500036
        },
        {
          "name": "C4",
          "midi": 60,
          "time": 123.66654300000084,
          "velocity": 0.6299212598425197,
          "duration": 0.3326385562500036
        },
        {
          "name": "C4",
          "midi": 60,
          "time": 123.99987600000085,
          "velocity": 0.6299212598425197,
          "duration": 0.3326385562500036
        },
        {
          "name": "C4",
          "midi": 60,
          "time": 124.33320900000086,
          "velocity": 0.6299212598425197,
          "duration": 0.3326385562500036
        },
        {
          "name": "E4",
          "midi": 64,
          "time": 124.66654200000087,
          "velocity": 0.6299212598425197,
          "duration": 0.3326385562500036
        },
        {
          "name": "E4",
          "midi": 64,
          "time": 124.99987500000088,
          "velocity": 0.6299212598425197,
          "duration": 0.3326385562500036
        },
        {
          "name": "E4",
          "midi": 64,
          "time": 125.3332080000009,
          "velocity": 0.6299212598425197,
          "duration": 0.3326385562500036
        },
        {
          "name": "E4",
          "midi": 64,
          "time": 125.6665410000009,
          "velocity": 0.6299212598425197,
          "duration": 0.3326385562500036
        },
        {
          "name": "F4",
          "midi": 65,
          "time": 125.99987400000091,
          "velocity": 0.6299212598425197,
          "duration": 0.3326385562500036
        },
        {
          "name": "F4",
          "midi": 65,
          "time": 126.33320700000093,
          "velocity": 0.6299212598425197,
          "duration": 0.3326385562500036
        },
        {
          "name": "A4",
          "midi": 69,
          "time": 126.66654000000094,
          "velocity": 0.6299212598425197,
          "duration": 0.16597205624999845
        },
        {
          "name": "A4",
          "midi": 69,
          "time": 126.83320650000094,
          "velocity": 0.6299212598425197,
          "duration": 0.16597205624999845
        },
        {
          "name": "A4",
          "midi": 69,
          "time": 126.99987300000095,
          "velocity": 0.6299212598425197,
          "duration": 0.16597205624999845
        },
        {
          "name": "A4",
          "midi": 69,
          "time": 127.16653950000095,
          "velocity": 0.6299212598425197,
          "duration": 0.16597205624999845
        },
        {
          "name": "C4",
          "midi": 60,
          "time": 127.66653900000095,
          "velocity": 0.6299212598425197,
          "duration": 0.16597205624999845
        },
        {
          "name": "C4",
          "midi": 60,
          "time": 127.83320550000096,
          "velocity": 0.6299212598425197,
          "duration": 0.16597205624999845
        },
        {
          "name": "C4",
          "midi": 60,
          "time": 127.99987200000096,
          "velocity": 0.6299212598425197,
          "duration": 0.3326385562499894
        },
        {
          "name": "C#4",
          "midi": 61,
          "time": 128.33320500000096,
          "velocity": 0.6299212598425197,
          "duration": 0.6659715562500139
        },
        {
          "name": "F4",
          "midi": 65,
          "time": 128.33320500000096,
          "velocity": 0.6299212598425197,
          "duration": 0.6659715562500139
        },
        {
          "name": "E4",
          "midi": 64,
          "time": 128.99987100000098,
          "velocity": 0.6299212598425197,
          "duration": 0.16597205625001266
        },
        {
          "name": "E4",
          "midi": 64,
          "time": 129.166537500001,
          "velocity": 0.6299212598425197,
          "duration": 0.16597205625001266
        },
        {
          "name": "E4",
          "midi": 64,
          "time": 129.33320400000102,
          "velocity": 0.6299212598425197,
          "duration": 0.3326385562500036
        },
        {
          "name": "C#4",
          "midi": 61,
          "time": 129.66653700000103,
          "velocity": 0.6299212598425197,
          "duration": 0.6659715562500139
        },
        {
          "name": "F4",
          "midi": 65,
          "time": 129.66653700000103,
          "velocity": 0.6299212598425197,
          "duration": 0.6659715562500139
        },
        {
          "name": "F4",
          "midi": 65,
          "time": 130.33320300000105,
          "velocity": 0.6299212598425197,
          "duration": 0.16597205625001266
        },
        {
          "name": "F4",
          "midi": 65,
          "time": 130.49986950000107,
          "velocity": 0.6299212598425197,
          "duration": 0.16597205625001266
        },
        {
          "name": "F4",
          "midi": 65,
          "time": 130.6665360000011,
          "velocity": 0.6299212598425197,
          "duration": 0.3326385562500036
        },
        {
          "name": "F#4",
          "midi": 66,
          "time": 130.9998690000011,
          "velocity": 0.6299212598425197,
          "duration": 0.6659715562500139
        },
        {
          "name": "A#4",
          "midi": 70,
          "time": 130.9998690000011,
          "velocity": 0.6299212598425197,
          "duration": 0.6659715562500139
        },
        {
          "name": "A4",
          "midi": 69,
          "time": 131.66653500000112,
          "velocity": 0.6299212598425197,
          "duration": 0.16597205625001266
        },
        {
          "name": "A4",
          "midi": 69,
          "time": 131.83320150000114,
          "velocity": 0.6299212598425197,
          "duration": 0.16597205625001266
        },
        {
          "name": "A4",
          "midi": 69,
          "time": 131.99986800000116,
          "velocity": 0.6299212598425197,
          "duration": 0.3326385562500036
        },
        {
          "name": "F#4",
          "midi": 66,
          "time": 132.33320100000117,
          "velocity": 0.6299212598425197,
          "duration": 0.6659715562500139
        },
        {
          "name": "A#4",
          "midi": 70,
          "time": 132.33320100000117,
          "velocity": 0.6299212598425197,
          "duration": 0.6659715562500139
        },
        {
          "name": "C4",
          "midi": 60,
          "time": 132.9998670000012,
          "velocity": 0.6299212598425197,
          "duration": 0.16597205625001266
        },
        {
          "name": "C4",
          "midi": 60,
          "time": 133.1665335000012,
          "velocity": 0.6299212598425197,
          "duration": 0.16597205625001266
        },
        {
          "name": "F4",
          "midi": 65,
          "time": 133.33320000000123,
          "velocity": 0.6299212598425197,
          "duration": 0.3326385562500036
        },
        {
          "name": "A4",
          "midi": 69,
          "time": 133.66653300000124,
          "velocity": 0.6299212598425197,
          "duration": 0.3326385562500036
        },
        {
          "name": "C4",
          "midi": 60,
          "time": 133.99986600000125,
          "velocity": 0.6299212598425197,
          "duration": 0.3326385562500036
        },
        {
          "name": "C4",
          "midi": 60,
          "time": 134.33319900000126,
          "velocity": 0.6299212598425197,
          "duration": 0.3326385562500036
        },
        {
          "name": "C4",
          "midi": 60,
          "time": 134.66653200000127,
          "velocity": 0.6299212598425197,
          "duration": 0.3326385562500036
        },
        {
          "name": "C4",
          "midi": 60,
          "time": 134.99986500000128,
          "velocity": 0.6299212598425197,
          "duration": 0.3326385562500036
        },
        {
          "name": "E4",
          "midi": 64,
          "time": 135.3331980000013,
          "velocity": 0.6299212598425197,
          "duration": 0.3326385562500036
        },
        {
          "name": "E4",
          "midi": 64,
          "time": 135.6665310000013,
          "velocity": 0.6299212598425197,
          "duration": 0.3326385562500036
        },
        {
          "name": "E4",
          "midi": 64,
          "time": 135.9998640000013,
          "velocity": 0.6299212598425197,
          "duration": 0.3326385562500036
        },
        {
          "name": "E4",
          "midi": 64,
          "time": 136.33319700000132,
          "velocity": 0.6299212598425197,
          "duration": 0.3326385562500036
        },
        {
          "name": "F4",
          "midi": 65,
          "time": 136.66653000000133,
          "velocity": 0.6299212598425197,
          "duration": 0.3326385562500036
        },
        {
          "name": "F4",
          "midi": 65,
          "time": 136.99986300000134,
          "velocity": 0.6299212598425197,
          "duration": 0.3326385562500036
        },
        {
          "name": "A4",
          "midi": 69,
          "time": 137.33319600000135,
          "velocity": 0.6299212598425197,
          "duration": 0.16597205625001266
        },
        {
          "name": "A4",
          "midi": 69,
          "time": 137.49986250000137,
          "velocity": 0.6299212598425197,
          "duration": 0.16597205625001266
        },
        {
          "name": "A4",
          "midi": 69,
          "time": 137.6665290000014,
          "velocity": 0.6299212598425197,
          "duration": 0.16597205625001266
        },
        {
          "name": "A4",
          "midi": 69,
          "time": 137.8331955000014,
          "velocity": 0.6299212598425197,
          "duration": 0.16597205625001266
        },
        {
          "name": "A4",
          "midi": 69,
          "time": 137.99986200000143,
          "velocity": 0.6299212598425197,
          "duration": 0.16597205625001266
        },
        {
          "name": "A4",
          "midi": 69,
          "time": 138.16652850000145,
          "velocity": 0.6299212598425197,
          "duration": 0.16597205625001266
        },
        {
          "name": "A4",
          "midi": 69,
          "time": 138.33319500000147,
          "velocity": 0.6299212598425197,
          "duration": 0.16597205625001266
        },
        {
          "name": "A4",
          "midi": 69,
          "time": 138.4998615000015,
          "velocity": 0.6299212598425197,
          "duration": 0.16597205625001266
        },
        {
          "name": "F4",
          "midi": 65,
          "time": 138.6665280000015,
          "velocity": 0.6299212598425197,
          "duration": 0.3326385562500036
        },
        {
          "name": "A#4",
          "midi": 70,
          "time": 138.99986100000152,
          "velocity": 0.6299212598425197,
          "duration": 0.6659715562500139
        },
        {
          "name": "C#4",
          "midi": 61,
          "time": 149.66651700000153,
          "velocity": 0.6299212598425197,
          "duration": 0.9993045562499958
        },
        {
          "name": "F#4",
          "midi": 66,
          "time": 149.66651700000153,
          "velocity": 0.6299212598425197,
          "duration": 0.9993045562499958
        },
        {
          "name": "F#4",
          "midi": 66,
          "time": 150.99984900000152,
          "velocity": 0.6299212598425197,
          "duration": 0.9993045562499958
        },
        {
          "name": "A#4",
          "midi": 70,
          "time": 150.99984900000152,
          "velocity": 0.6299212598425197,
          "duration": 0.9993045562499958
        },
        {
          "name": "C#4",
          "midi": 61,
          "time": 152.3331810000015,
          "velocity": 0.6299212598425197,
          "duration": 0.9993045562499958
        },
        {
          "name": "F#4",
          "midi": 66,
          "time": 152.3331810000015,
          "velocity": 0.6299212598425197,
          "duration": 0.9993045562499958
        },
        {
          "name": "F#4",
          "midi": 66,
          "time": 153.6665130000015,
          "velocity": 0.6299212598425197,
          "duration": 0.9993045562499958
        },
        {
          "name": "A#4",
          "midi": 70,
          "time": 153.6665130000015,
          "velocity": 0.6299212598425197,
          "duration": 0.9993045562499958
        },
        {
          "name": "F4",
          "midi": 65,
          "time": 154.99984500000147,
          "velocity": 0.6299212598425197,
          "duration": 0.9993045562499958
        },
        {
          "name": "A#4",
          "midi": 70,
          "time": 154.99984500000147,
          "velocity": 0.6299212598425197,
          "duration": 0.9993045562499958
        },
        {
          "name": "C#4",
          "midi": 61,
          "time": 156.33317700000146,
          "velocity": 0.6299212598425197,
          "duration": 0.9993045562499958
        },
        {
          "name": "F4",
          "midi": 65,
          "time": 156.33317700000146,
          "velocity": 0.6299212598425197,
          "duration": 0.9993045562499958
        },
        {
          "name": "F4",
          "midi": 65,
          "time": 157.66650900000144,
          "velocity": 0.6299212598425197,
          "duration": 0.9993045562499958
        },
        {
          "name": "A#4",
          "midi": 70,
          "time": 157.66650900000144,
          "velocity": 0.6299212598425197,
          "duration": 0.9993045562499958
        },
        {
          "name": "C#4",
          "midi": 61,
          "time": 158.99984100000142,
          "velocity": 0.6299212598425197,
          "duration": 0.9993045562499958
        },
        {
          "name": "F4",
          "midi": 65,
          "time": 158.99984100000142,
          "velocity": 0.6299212598425197,
          "duration": 0.9993045562499958
        },
        {
          "name": "C4",
          "midi": 60,
          "time": 160.3331730000014,
          "velocity": 0.6299212598425197,
          "duration": 0.16597205625001266
        },
        {
          "name": "A4",
          "midi": 69,
          "time": 160.3331730000014,
          "velocity": 0.6299212598425197,
          "duration": 0.16597205625001266
        },
        {
          "name": "A4",
          "midi": 69,
          "time": 160.49983950000143,
          "velocity": 0.6299212598425197,
          "duration": 0.16597205625001266
        },
        {
          "name": "F4",
          "midi": 65,
          "time": 160.66650600000145,
          "velocity": 0.6299212598425197,
          "duration": 0.3326385562500036
        },
        {
          "name": "C4",
          "midi": 60,
          "time": 160.99983900000146,
          "velocity": 0.6299212598425197,
          "duration": 0.16597205625001266
        },
        {
          "name": "A4",
          "midi": 69,
          "time": 160.99983900000146,
          "velocity": 0.6299212598425197,
          "duration": 0.16597205625001266
        },
        {
          "name": "A4",
          "midi": 69,
          "time": 161.16650550000148,
          "velocity": 0.6299212598425197,
          "duration": 0.16597205625001266
        },
        {
          "name": "F4",
          "midi": 65,
          "time": 161.3331720000015,
          "velocity": 0.6299212598425197,
          "duration": 0.3326385562500036
        },
        {
          "name": "C4",
          "midi": 60,
          "time": 161.6665050000015,
          "velocity": 0.6299212598425197,
          "duration": 0.3326385562500036
        },
        {
          "name": "A4",
          "midi": 69,
          "time": 161.6665050000015,
          "velocity": 0.6299212598425197,
          "duration": 0.3326385562500036
        },
        {
          "name": "F4",
          "midi": 65,
          "time": 161.99983800000152,
          "velocity": 0.6299212598425197,
          "duration": 0.16597205625001266
        },
        {
          "name": "F4",
          "midi": 65,
          "time": 162.16650450000154,
          "velocity": 0.6299212598425197,
          "duration": 0.16597205625001266
        },
        {
          "name": "C4",
          "midi": 60,
          "time": 162.33317100000156,
          "velocity": 0.6299212598425197,
          "duration": 0.16597205625001266
        },
        {
          "name": "F4",
          "midi": 65,
          "time": 162.33317100000156,
          "velocity": 0.6299212598425197,
          "duration": 0.16597205625001266
        },
        {
          "name": "F4",
          "midi": 65,
          "time": 162.49983750000158,
          "velocity": 0.6299212598425197,
          "duration": 0.16597205625001266
        },
        {
          "name": "A4",
          "midi": 69,
          "time": 162.6665040000016,
          "velocity": 0.6299212598425197,
          "duration": 0.3326385562500036
        },
        {
          "name": "C4",
          "midi": 60,
          "time": 162.9998370000016,
          "velocity": 0.6299212598425197,
          "duration": 0.3326385562500036
        },
        {
          "name": "A4",
          "midi": 69,
          "time": 163.33317000000162,
          "velocity": 0.6299212598425197,
          "duration": 0.16597205625001266
        },
        {
          "name": "A4",
          "midi": 69,
          "time": 163.49983650000163,
          "velocity": 0.6299212598425197,
          "duration": 0.16597205625001266
        },
        {
          "name": "C4",
          "midi": 60,
          "time": 163.66650300000165,
          "velocity": 0.6299212598425197,
          "duration": 0.3326385562500036
        },
        {
          "name": "F4",
          "midi": 65,
          "time": 163.66650300000165,
          "velocity": 0.6299212598425197,
          "duration": 0.3326385562500036
        },
        {
          "name": "A4",
          "midi": 69,
          "time": 163.99983600000166,
          "velocity": 0.6299212598425197,
          "duration": 0.16597205625001266
        },
        {
          "name": "A4",
          "midi": 69,
          "time": 164.16650250000168,
          "velocity": 0.6299212598425197,
          "duration": 0.16597205625001266
        },
        {
          "name": "C4",
          "midi": 60,
          "time": 164.3331690000017,
          "velocity": 0.6299212598425197,
          "duration": 0.16597205625001266
        },
        {
          "name": "A4",
          "midi": 69,
          "time": 164.49983550000172,
          "velocity": 0.6299212598425197,
          "duration": 0.16597205625001266
        },
        {
          "name": "A4",
          "midi": 69,
          "time": 164.66650200000174,
          "velocity": 0.6299212598425197,
          "duration": 0.3326385562500036
        },
        {
          "name": "C4",
          "midi": 60,
          "time": 164.99983500000175,
          "velocity": 0.6299212598425197,
          "duration": 0.49930505624999455
        },
        {
          "name": "F4",
          "midi": 65,
          "time": 164.99983500000175,
          "velocity": 0.6299212598425197,
          "duration": 0.49930505624999455
        },
        {
          "name": "A4",
          "midi": 69,
          "time": 165.49983450000175,
          "velocity": 0.6299212598425197,
          "duration": 0.16597205625001266
        },
        {
          "name": "C4",
          "midi": 60,
          "time": 165.66650100000177,
          "velocity": 0.6299212598425197,
          "duration": 0.6659715562500139
        },
        {
          "name": "F4",
          "midi": 65,
          "time": 165.66650100000177,
          "velocity": 0.6299212598425197,
          "duration": 0.6659715562500139
        },
        {
          "name": "C4",
          "midi": 60,
          "time": 166.3331670000018,
          "velocity": 0.6299212598425197,
          "duration": 0.6659715562500139
        },
        {
          "name": "E4",
          "midi": 64,
          "time": 166.3331670000018,
          "velocity": 0.6299212598425197,
          "duration": 0.6659715562500139
        },
        {
          "name": "C4",
          "midi": 60,
          "time": 166.99983300000181,
          "velocity": 0.6299212598425197,
          "duration": 0.6659715562500139
        },
        {
          "name": "F4",
          "midi": 65,
          "time": 166.99983300000181,
          "velocity": 0.6299212598425197,
          "duration": 0.6659715562500139
        },
        {
          "name": "C4",
          "midi": 60,
          "time": 167.66649900000183,
          "velocity": 0.6299212598425197,
          "duration": 0.6659715562500139
        },
        {
          "name": "A4",
          "midi": 69,
          "time": 167.66649900000183,
          "velocity": 0.6299212598425197,
          "duration": 0.6659715562500139
        },
        {
          "name": "C4",
          "midi": 60,
          "time": 168.33316500000186,
          "velocity": 0.6299212598425197,
          "duration": 0.3326385562500036
        },
        {
          "name": "A4",
          "midi": 69,
          "time": 168.66649800000187,
          "velocity": 0.6299212598425197,
          "duration": 0.16597205625001266
        },
        {
          "name": "A4",
          "midi": 69,
          "time": 168.83316450000189,
          "velocity": 0.6299212598425197,
          "duration": 0.16597205625001266
        },
        {
          "name": "C4",
          "midi": 60,
          "time": 168.9998310000019,
          "velocity": 0.6299212598425197,
          "duration": 0.3326385562500036
        },
        {
          "name": "F4",
          "midi": 65,
          "time": 168.9998310000019,
          "velocity": 0.6299212598425197,
          "duration": 0.3326385562500036
        },
        {
          "name": "A4",
          "midi": 69,
          "time": 169.33316400000191,
          "velocity": 0.6299212598425197,
          "duration": 0.16597205625001266
        },
        {
          "name": "A4",
          "midi": 69,
          "time": 169.49983050000193,
          "velocity": 0.6299212598425197,
          "duration": 0.16597205625001266
        },
        {
          "name": "C4",
          "midi": 60,
          "time": 169.66649700000195,
          "velocity": 0.6299212598425197,
          "duration": 0.16597205625001266
        },
        {
          "name": "A4",
          "midi": 69,
          "time": 169.83316350000197,
          "velocity": 0.6299212598425197,
          "duration": 0.16597205625001266
        },
        {
          "name": "A4",
          "midi": 69,
          "time": 169.999830000002,
          "velocity": 0.6299212598425197,
          "duration": 0.3326385562500036
        },
        {
          "name": "C4",
          "midi": 60,
          "time": 170.333163000002,
          "velocity": 0.6299212598425197,
          "duration": 0.6659715562500139
        },
        {
          "name": "F4",
          "midi": 65,
          "time": 170.333163000002,
          "velocity": 0.6299212598425197,
          "duration": 0.6659715562500139
        },
        {
          "name": "C4",
          "midi": 60,
          "time": 170.99982900000202,
          "velocity": 0.6299212598425197,
          "duration": 0.16597205625001266
        },
        {
          "name": "A4",
          "midi": 69,
          "time": 170.99982900000202,
          "velocity": 0.6299212598425197,
          "duration": 0.16597205625001266
        },
        {
          "name": "A4",
          "midi": 69,
          "time": 171.16649550000204,
          "velocity": 0.6299212598425197,
          "duration": 0.16597205625001266
        },
        {
          "name": "F4",
          "midi": 65,
          "time": 171.33316200000206,
          "velocity": 0.6299212598425197,
          "duration": 0.3326385562500036
        },
        {
          "name": "C4",
          "midi": 60,
          "time": 171.66649500000207,
          "velocity": 0.6299212598425197,
          "duration": 0.16597205625001266
        },
        {
          "name": "A4",
          "midi": 69,
          "time": 171.66649500000207,
          "velocity": 0.6299212598425197,
          "duration": 0.16597205625001266
        },
        {
          "name": "A4",
          "midi": 69,
          "time": 171.8331615000021,
          "velocity": 0.6299212598425197,
          "duration": 0.16597205625001266
        },
        {
          "name": "F4",
          "midi": 65,
          "time": 171.9998280000021,
          "velocity": 0.6299212598425197,
          "duration": 0.3326385562500036
        },
        {
          "name": "C4",
          "midi": 60,
          "time": 172.33316100000212,
          "velocity": 0.6299212598425197,
          "duration": 0.3326385562500036
        },
        {
          "name": "E4",
          "midi": 64,
          "time": 172.33316100000212,
          "velocity": 0.6299212598425197,
          "duration": 0.3326385562500036
        },
        {
          "name": "F4",
          "midi": 65,
          "time": 172.66649400000213,
          "velocity": 0.6299212598425197,
          "duration": 0.16597205625001266
        },
        {
          "name": "F4",
          "midi": 65,
          "time": 172.83316050000215,
          "velocity": 0.6299212598425197,
          "duration": 0.16597205625001266
        },
        {
          "name": "C4",
          "midi": 60,
          "time": 172.99982700000217,
          "velocity": 0.6299212598425197,
          "duration": 0.16597205625001266
        },
        {
          "name": "F4",
          "midi": 65,
          "time": 172.99982700000217,
          "velocity": 0.6299212598425197,
          "duration": 0.16597205625001266
        },
        {
          "name": "F4",
          "midi": 65,
          "time": 173.1664935000022,
          "velocity": 0.6299212598425197,
          "duration": 0.16597205625001266
        },
        {
          "name": "A4",
          "midi": 69,
          "time": 173.3331600000022,
          "velocity": 0.6299212598425197,
          "duration": 0.3326385562500036
        },
        {
          "name": "C4",
          "midi": 60,
          "time": 173.66649300000222,
          "velocity": 0.6299212598425197,
          "duration": 0.3326385562500036
        },
        {
          "name": "A4",
          "midi": 69,
          "time": 173.99982600000223,
          "velocity": 0.6299212598425197,
          "duration": 0.16597205625001266
        },
        {
          "name": "A4",
          "midi": 69,
          "time": 174.16649250000225,
          "velocity": 0.6299212598425197,
          "duration": 0.16597205625001266
        },
        {
          "name": "C4",
          "midi": 60,
          "time": 174.33315900000227,
          "velocity": 0.6299212598425197,
          "duration": 0.3326385562500036
        },
        {
          "name": "F4",
          "midi": 65,
          "time": 174.33315900000227,
          "velocity": 0.6299212598425197,
          "duration": 0.3326385562500036
        },
        {
          "name": "F4",
          "midi": 65,
          "time": 174.66649200000228,
          "velocity": 0.6299212598425197,
          "duration": 0.16597205625001266
        },
        {
          "name": "A4",
          "midi": 69,
          "time": 174.8331585000023,
          "velocity": 0.6299212598425197,
          "duration": 0.16597205625001266
        },
        {
          "name": "C4",
          "midi": 60,
          "time": 174.99982500000232,
          "velocity": 0.6299212598425197,
          "duration": 0.16597205625001266
        },
        {
          "name": "F4",
          "midi": 65,
          "time": 175.16649150000234,
          "velocity": 0.6299212598425197,
          "duration": 0.16597205625001266
        },
        {
          "name": "A4",
          "midi": 69,
          "time": 175.33315800000236,
          "velocity": 0.6299212598425197,
          "duration": 0.3326385562500036
        },
        {
          "name": "C4",
          "midi": 60,
          "time": 175.66649100000237,
          "velocity": 0.6299212598425197,
          "duration": 0.6659715562500139
        },
        {
          "name": "F4",
          "midi": 65,
          "time": 175.66649100000237,
          "velocity": 0.6299212598425197,
          "duration": 0.6659715562500139
        },
        {
          "name": "C4",
          "midi": 60,
          "time": 176.3331570000024,
          "velocity": 0.6299212598425197,
          "duration": 0.3326385562500036
        },
        {
          "name": "E4",
          "midi": 64,
          "time": 176.3331570000024,
          "velocity": 0.6299212598425197,
          "duration": 0.3326385562500036
        },
        {
          "name": "C4",
          "midi": 60,
          "time": 176.6664900000024,
          "velocity": 0.6299212598425197,
          "duration": 0.3326385562500036
        },
        {
          "name": "C4",
          "midi": 60,
          "time": 176.9998230000024,
          "velocity": 0.6299212598425197,
          "duration": 0.3326385562500036
        },
        {
          "name": "F4",
          "midi": 65,
          "time": 176.9998230000024,
          "velocity": 0.6299212598425197,
          "duration": 0.3326385562500036
        },
        {
          "name": "C4",
          "midi": 60,
          "time": 177.33315600000242,
          "velocity": 0.6299212598425197,
          "duration": 0.3326385562500036
        },
        {
          "name": "C4",
          "midi": 60,
          "time": 177.66648900000243,
          "velocity": 0.6299212598425197,
          "duration": 0.3326385562500036
        },
        {
          "name": "A4",
          "midi": 69,
          "time": 177.66648900000243,
          "velocity": 0.6299212598425197,
          "duration": 0.3326385562500036
        },
        {
          "name": "C4",
          "midi": 60,
          "time": 177.99982200000244,
          "velocity": 0.6299212598425197,
          "duration": 0.3326385562500036
        },
        {
          "name": "C4",
          "midi": 60,
          "time": 178.33315500000245,
          "velocity": 0.6299212598425197,
          "duration": 0.3326385562500036
        },
        {
          "name": "F4",
          "midi": 65,
          "time": 178.33315500000245,
          "velocity": 0.6299212598425197,
          "duration": 0.3326385562500036
        },
        {
          "name": "C4",
          "midi": 60,
          "time": 178.66648800000246,
          "velocity": 0.6299212598425197,
          "duration": 0.3326385562500036
        },
        {
          "name": "C4",
          "midi": 60,
          "time": 178.99982100000247,
          "velocity": 0.6299212598425197,
          "duration": 0.16597205625001266
        },
        {
          "name": "E4",
          "midi": 64,
          "time": 178.99982100000247,
          "velocity": 0.6299212598425197,
          "duration": 0.16597205625001266
        },
        {
          "name": "C4",
          "midi": 60,
          "time": 179.1664875000025,
          "velocity": 0.6299212598425197,
          "duration": 0.16597205625001266
        },
        {
          "name": "C4",
          "midi": 60,
          "time": 179.3331540000025,
          "velocity": 0.6299212598425197,
          "duration": 0.16597205625001266
        },
        {
          "name": "C4",
          "midi": 60,
          "time": 179.49982050000253,
          "velocity": 0.6299212598425197,
          "duration": 0.16597205625001266
        },
        {
          "name": "C4",
          "midi": 60,
          "time": 179.66648700000255,
          "velocity": 0.6299212598425197,
          "duration": 0.16597205625001266
        },
        {
          "name": "E4",
          "midi": 64,
          "time": 179.66648700000255,
          "velocity": 0.6299212598425197,
          "duration": 0.16597205625001266
        },
        {
          "name": "C4",
          "midi": 60,
          "time": 179.83315350000257,
          "velocity": 0.6299212598425197,
          "duration": 0.16597205625001266
        },
        {
          "name": "C4",
          "midi": 60,
          "time": 179.9998200000026,
          "velocity": 0.6299212598425197,
          "duration": 0.16597205625001266
        },
        {
          "name": "C4",
          "midi": 60,
          "time": 180.1664865000026,
          "velocity": 0.6299212598425197,
          "duration": 0.16597205625001266
        },
        {
          "name": "C4",
          "midi": 60,
          "time": 180.33315300000262,
          "velocity": 0.6299212598425197,
          "duration": 0.16597205625001266
        },
        {
          "name": "F4",
          "midi": 65,
          "time": 180.33315300000262,
          "velocity": 0.6299212598425197,
          "duration": 0.16597205625001266
        },
        {
          "name": "C4",
          "midi": 60,
          "time": 180.49981950000264,
          "velocity": 0.6299212598425197,
          "duration": 0.16597205625001266
        },
        {
          "name": "C4",
          "midi": 60,
          "time": 180.66648600000266,
          "velocity": 0.6299212598425197,
          "duration": 0.16597205625001266
        },
        {
          "name": "C4",
          "midi": 60,
          "time": 180.83315250000268,
          "velocity": 0.6299212598425197,
          "duration": 0.16597205625001266
        },
        {
          "name": "C4",
          "midi": 60,
          "time": 180.9998190000027,
          "velocity": 0.6299212598425197,
          "duration": 0.16597205625001266
        },
        {
          "name": "F4",
          "midi": 65,
          "time": 180.9998190000027,
          "velocity": 0.6299212598425197,
          "duration": 0.16597205625001266
        },
        {
          "name": "A4",
          "midi": 69,
          "time": 180.9998190000027,
          "velocity": 0.6299212598425197,
          "duration": 0.16597205625001266
        },
        {
          "name": "C4",
          "midi": 60,
          "time": 181.16648550000272,
          "velocity": 0.6299212598425197,
          "duration": 0.16597205625001266
        },
        {
          "name": "C4",
          "midi": 60,
          "time": 181.33315200000274,
          "velocity": 0.6299212598425197,
          "duration": 0.16597205625001266
        },
        {
          "name": "C4",
          "midi": 60,
          "time": 181.49981850000276,
          "velocity": 0.6299212598425197,
          "duration": 0.16597205625001266
        },
        {
          "name": "C4",
          "midi": 60,
          "time": 182.33315100000277,
          "velocity": 0.6299212598425197,
          "duration": 0.16597205625001266
        },
        {
          "name": "C4",
          "midi": 60,
          "time": 182.4998175000028,
          "velocity": 0.6299212598425197,
          "duration": 0.16597205625001266
        },
        {
          "name": "C#4",
          "midi": 61,
          "time": 182.9998170000028,
          "velocity": 0.6299212598425197,
          "duration": 0.6659715562500139
        },
        {
          "name": "F4",
          "midi": 65,
          "time": 182.9998170000028,
          "velocity": 0.6299212598425197,
          "duration": 0.6659715562500139
        },
        {
          "name": "E4",
          "midi": 64,
          "time": 183.6664830000028,
          "velocity": 0.6299212598425197,
          "duration": 0.16597205625001266
        },
        {
          "name": "E4",
          "midi": 64,
          "time": 183.83314950000283,
          "velocity": 0.6299212598425197,
          "duration": 0.16597205625001266
        },
        {
          "name": "C#4",
          "midi": 61,
          "time": 184.33314900000283,
          "velocity": 0.6299212598425197,
          "duration": 0.6659715562500139
        },
        {
          "name": "F4",
          "midi": 65,
          "time": 184.33314900000283,
          "velocity": 0.6299212598425197,
          "duration": 0.6659715562500139
        },
        {
          "name": "F4",
          "midi": 65,
          "time": 184.99981500000285,
          "velocity": 0.6299212598425197,
          "duration": 0.16597205625001266
        },
        {
          "name": "F4",
          "midi": 65,
          "time": 185.16648150000287,
          "velocity": 0.6299212598425197,
          "duration": 0.16597205625001266
        },
        {
          "name": "F#4",
          "midi": 66,
          "time": 185.66648100000288,
          "velocity": 0.6299212598425197,
          "duration": 0.6659715562500139
        },
        {
          "name": "A#4",
          "midi": 70,
          "time": 185.66648100000288,
          "velocity": 0.6299212598425197,
          "duration": 0.6659715562500139
        },
        {
          "name": "A4",
          "midi": 69,
          "time": 186.3331470000029,
          "velocity": 0.6299212598425197,
          "duration": 0.16597205625001266
        },
        {
          "name": "A4",
          "midi": 69,
          "time": 186.49981350000292,
          "velocity": 0.6299212598425197,
          "duration": 0.16597205625001266
        },
        {
          "name": "F#4",
          "midi": 66,
          "time": 186.99981300000292,
          "velocity": 0.6299212598425197,
          "duration": 0.6659715562500139
        },
        {
          "name": "A#4",
          "midi": 70,
          "time": 186.99981300000292,
          "velocity": 0.6299212598425197,
          "duration": 0.6659715562500139
        },
        {
          "name": "C4",
          "midi": 60,
          "time": 187.66647900000294,
          "velocity": 0.6299212598425197,
          "duration": 0.16597205625001266
        },
        {
          "name": "C4",
          "midi": 60,
          "time": 187.83314550000296,
          "velocity": 0.6299212598425197,
          "duration": 0.16597205625001266
        },
        {
          "name": "F4",
          "midi": 65,
          "time": 187.99981200000298,
          "velocity": 0.6299212598425197,
          "duration": 0.3326385562500036
        },
        {
          "name": "A4",
          "midi": 69,
          "time": 188.333145000003,
          "velocity": 0.6299212598425197,
          "duration": 0.3326385562500036
        },
        {
          "name": "C4",
          "midi": 60,
          "time": 188.666478000003,
          "velocity": 0.6299212598425197,
          "duration": 0.6659715562500139
        },
        {
          "name": "C4",
          "midi": 60,
          "time": 189.33314400000302,
          "velocity": 0.6299212598425197,
          "duration": 0.6659715562500139
        },
        {
          "name": "E4",
          "midi": 64,
          "time": 189.99981000000304,
          "velocity": 0.6299212598425197,
          "duration": 0.6659715562500139
        },
        {
          "name": "E4",
          "midi": 64,
          "time": 190.66647600000306,
          "velocity": 0.6299212598425197,
          "duration": 0.6659715562500139
        },
        {
          "name": "F4",
          "midi": 65,
          "time": 191.33314200000308,
          "velocity": 0.6299212598425197,
          "duration": 0.6659715562500139
        },
        {
          "name": "A#4",
          "midi": 70,
          "time": 191.9998080000031,
          "velocity": 0.6299212598425197,
          "duration": 0.9993045562499958
        },
        {
          "name": "C4",
          "midi": 60,
          "time": 192.9998070000031,
          "velocity": 0.6299212598425197,
          "duration": 0.16597205625001266
        },
        {
          "name": "A#4",
          "midi": 70,
          "time": 192.9998070000031,
          "velocity": 0.6299212598425197,
          "duration": 0.16597205625001266
        },
        {
          "name": "C4",
          "midi": 60,
          "time": 193.16647350000312,
          "velocity": 0.6299212598425197,
          "duration": 0.16597205625001266
        },
        {
          "name": "C4",
          "midi": 60,
          "time": 193.33314000000314,
          "velocity": 0.6299212598425197,
          "duration": 0.3326385562500036
        },
        {
          "name": "A4",
          "midi": 69,
          "time": 193.33314000000314,
          "velocity": 0.6299212598425197,
          "duration": 0.3326385562500036
        },
        {
          "name": "C#4",
          "midi": 61,
          "time": 193.66647300000315,
          "velocity": 0.6299212598425197,
          "duration": 0.6659715562500139
        },
        {
          "name": "F4",
          "midi": 65,
          "time": 193.66647300000315,
          "velocity": 0.6299212598425197,
          "duration": 0.6659715562500139
        },
        {
          "name": "A4",
          "midi": 69,
          "time": 193.66647300000315,
          "velocity": 0.6299212598425197,
          "duration": 0.6659715562500139
        },
        {
          "name": "E4",
          "midi": 64,
          "time": 194.33313900000317,
          "velocity": 0.6299212598425197,
          "duration": 0.16597205625001266
        },
        {
          "name": "A4",
          "midi": 69,
          "time": 194.33313900000317,
          "velocity": 0.6299212598425197,
          "duration": 0.16597205625001266
        },
        {
          "name": "E4",
          "midi": 64,
          "time": 194.4998055000032,
          "velocity": 0.6299212598425197,
          "duration": 0.16597205625001266
        },
        {
          "name": "E4",
          "midi": 64,
          "time": 194.6664720000032,
          "velocity": 0.6299212598425197,
          "duration": 0.3326385562500036
        },
        {
          "name": "A4",
          "midi": 69,
          "time": 194.6664720000032,
          "velocity": 0.6299212598425197,
          "duration": 0.3326385562500036
        },
        {
          "name": "C#4",
          "midi": 61,
          "time": 194.99980500000322,
          "velocity": 0.6299212598425197,
          "duration": 0.6659715562500139
        },
        {
          "name": "F4",
          "midi": 65,
          "time": 194.99980500000322,
          "velocity": 0.6299212598425197,
          "duration": 0.6659715562500139
        },
        {
          "name": "A4",
          "midi": 69,
          "time": 194.99980500000322,
          "velocity": 0.6299212598425197,
          "duration": 0.6659715562500139
        },
        {
          "name": "C4",
          "midi": 60,
          "time": 195.66647100000324,
          "velocity": 0.6299212598425197,
          "duration": 0.16597205625001266
        },
        {
          "name": "A4",
          "midi": 69,
          "time": 195.66647100000324,
          "velocity": 0.6299212598425197,
          "duration": 0.16597205625001266
        },
        {
          "name": "C4",
          "midi": 60,
          "time": 195.83313750000326,
          "velocity": 0.6299212598425197,
          "duration": 0.16597205625001266
        },
        {
          "name": "C4",
          "midi": 60,
          "time": 195.99980400000328,
          "velocity": 0.6299212598425197,
          "duration": 0.3326385562500036
        },
        {
          "name": "A4",
          "midi": 69,
          "time": 195.99980400000328,
          "velocity": 0.6299212598425197,
          "duration": 0.3326385562500036
        },
        {
          "name": "C#4",
          "midi": 61,
          "time": 196.3331370000033,
          "velocity": 0.6299212598425197,
          "duration": 0.6659715562500139
        },
        {
          "name": "F4",
          "midi": 65,
          "time": 196.3331370000033,
          "velocity": 0.6299212598425197,
          "duration": 0.6659715562500139
        },
        {
          "name": "A4",
          "midi": 69,
          "time": 196.3331370000033,
          "velocity": 0.6299212598425197,
          "duration": 0.6659715562500139
        },
        {
          "name": "E4",
          "midi": 64,
          "time": 196.9998030000033,
          "velocity": 0.6299212598425197,
          "duration": 0.16597205625001266
        },
        {
          "name": "A4",
          "midi": 69,
          "time": 196.9998030000033,
          "velocity": 0.6299212598425197,
          "duration": 0.16597205625001266
        },
        {
          "name": "E4",
          "midi": 64,
          "time": 197.16646950000333,
          "velocity": 0.6299212598425197,
          "duration": 0.16597205625001266
        },
        {
          "name": "E4",
          "midi": 64,
          "time": 197.33313600000335,
          "velocity": 0.6299212598425197,
          "duration": 0.3326385562500036
        },
        {
          "name": "A4",
          "midi": 69,
          "time": 197.33313600000335,
          "velocity": 0.6299212598425197,
          "duration": 0.3326385562500036
        },
        {
          "name": "C#4",
          "midi": 61,
          "time": 197.66646900000336,
          "velocity": 0.6299212598425197,
          "duration": 0.6659715562500139
        },
        {
          "name": "F4",
          "midi": 65,
          "time": 197.66646900000336,
          "velocity": 0.6299212598425197,
          "duration": 0.6659715562500139
        },
        {
          "name": "A4",
          "midi": 69,
          "time": 197.66646900000336,
          "velocity": 0.6299212598425197,
          "duration": 0.6659715562500139
        },
        {
          "name": "C4",
          "midi": 60,
          "time": 198.33313500000338,
          "velocity": 0.6299212598425197,
          "duration": 0.16597205625001266
        },
        {
          "name": "A4",
          "midi": 69,
          "time": 198.33313500000338,
          "velocity": 0.6299212598425197,
          "duration": 0.16597205625001266
        },
        {
          "name": "C4",
          "midi": 60,
          "time": 198.4998015000034,
          "velocity": 0.6299212598425197,
          "duration": 0.16597205625001266
        },
        {
          "name": "F4",
          "midi": 65,
          "time": 198.66646800000342,
          "velocity": 0.6299212598425197,
          "duration": 0.3326385562500036
        },
        {
          "name": "A4",
          "midi": 69,
          "time": 198.66646800000342,
          "velocity": 0.6299212598425197,
          "duration": 0.3326385562500036
        },
        {
          "name": "F4",
          "midi": 65,
          "time": 198.99980100000343,
          "velocity": 0.6299212598425197,
          "duration": 0.3326385562500036
        },
        {
          "name": "A4",
          "midi": 69,
          "time": 198.99980100000343,
          "velocity": 0.6299212598425197,
          "duration": 0.3326385562500036
        },
        {
          "name": "C4",
          "midi": 60,
          "time": 199.33313400000344,
          "velocity": 0.6299212598425197,
          "duration": 0.3326385562500036
        },
        {
          "name": "C4",
          "midi": 60,
          "time": 199.66646700000345,
          "velocity": 0.6299212598425197,
          "duration": 0.3326385562500036
        },
        {
          "name": "C4",
          "midi": 60,
          "time": 199.99980000000346,
          "velocity": 0.6299212598425197,
          "duration": 0.3326385562500036
        },
        {
          "name": "C4",
          "midi": 60,
          "time": 200.33313300000347,
          "velocity": 0.6299212598425197,
          "duration": 0.3326385562500036
        },
        {
          "name": "E4",
          "midi": 64,
          "time": 200.66646600000348,
          "velocity": 0.6299212598425197,
          "duration": 0.3326385562500036
        },
        {
          "name": "E4",
          "midi": 64,
          "time": 200.9997990000035,
          "velocity": 0.6299212598425197,
          "duration": 0.3326385562500036
        },
        {
          "name": "E4",
          "midi": 64,
          "time": 201.3331320000035,
          "velocity": 0.6299212598425197,
          "duration": 0.3326385562500036
        },
        {
          "name": "E4",
          "midi": 64,
          "time": 201.6664650000035,
          "velocity": 0.6299212598425197,
          "duration": 0.3326385562500036
        },
        {
          "name": "F4",
          "midi": 65,
          "time": 201.99979800000352,
          "velocity": 0.6299212598425197,
          "duration": 0.3326385562500036
        },
        {
          "name": "F4",
          "midi": 65,
          "time": 202.33313100000353,
          "velocity": 0.6299212598425197,
          "duration": 0.3326385562500036
        },
        {
          "name": "A4",
          "midi": 69,
          "time": 202.66646400000354,
          "velocity": 0.6299212598425197,
          "duration": 0.16597205625001266
        },
        {
          "name": "A4",
          "midi": 69,
          "time": 202.83313050000356,
          "velocity": 0.6299212598425197,
          "duration": 0.16597205625001266
        },
        {
          "name": "A4",
          "midi": 69,
          "time": 202.99979700000358,
          "velocity": 0.6299212598425197,
          "duration": 0.16597205625001266
        },
        {
          "name": "A4",
          "midi": 69,
          "time": 203.1664635000036,
          "velocity": 0.6299212598425197,
          "duration": 0.16597205625001266
        },
        {
          "name": "A4",
          "midi": 69,
          "time": 203.33313000000362,
          "velocity": 0.6299212598425197,
          "duration": 0.16597205625001266
        },
        {
          "name": "A4",
          "midi": 69,
          "time": 203.49979650000364,
          "velocity": 0.6299212598425197,
          "duration": 0.16597205625001266
        },
        {
          "name": "A4",
          "midi": 69,
          "time": 203.66646300000366,
          "velocity": 0.6299212598425197,
          "duration": 0.16597205625001266
        },
        {
          "name": "A4",
          "midi": 69,
          "time": 203.83312950000368,
          "velocity": 0.6299212598425197,
          "duration": 0.16597205625001266
        },
        {
          "name": "F4",
          "midi": 65,
          "time": 203.9997960000037,
          "velocity": 0.6299212598425197,
          "duration": 0.3326385562500036
        },
        {
          "name": "F4",
          "midi": 65,
          "time": 204.3331290000037,
          "velocity": 0.6299212598425197,
          "duration": 0.3326385562500036
        },
        {
          "name": "A4",
          "midi": 69,
          "time": 204.66646200000372,
          "velocity": 0.6299212598425197,
          "duration": 0.16597205625001266
        },
        {
          "name": "F4",
          "midi": 65,
          "time": 204.83312850000374,
          "velocity": 0.6299212598425197,
          "duration": 0.49930505624999455
        },
        {
          "name": "F4",
          "midi": 65,
          "time": 205.33312800000374,
          "velocity": 0.6299212598425197,
          "duration": 0.16597205625001266
        },
        {
          "name": "C4",
          "midi": 60,
          "time": 205.49979450000376,
          "velocity": 0.6299212598425197,
          "duration": 0.49930505624999455
        },
        {
          "name": "A4",
          "midi": 69,
          "time": 205.99979400000376,
          "velocity": 0.6299212598425197,
          "duration": 0.16597205625001266
        },
        {
          "name": "F4",
          "midi": 65,
          "time": 206.16646050000378,
          "velocity": 0.6299212598425197,
          "duration": 0.49930505624999455
        },
        {
          "name": "F4",
          "midi": 65,
          "time": 206.66646000000378,
          "velocity": 0.6299212598425197,
          "duration": 0.16597205625001266
        },
        {
          "name": "C4",
          "midi": 60,
          "time": 206.8331265000038,
          "velocity": 0.6299212598425197,
          "duration": 0.49930505624999455
        },
        {
          "name": "F4",
          "midi": 65,
          "time": 207.3331260000038,
          "velocity": 0.6299212598425197,
          "duration": 0.16597205625001266
        },
        {
          "name": "A4",
          "midi": 69,
          "time": 207.3331260000038,
          "velocity": 0.6299212598425197,
          "duration": 0.16597205625001266
        },
        {
          "name": "C#4",
          "midi": 61,
          "time": 207.49979250000382,
          "velocity": 0.6299212598425197,
          "duration": 0.49930505624999455
        },
        {
          "name": "F4",
          "midi": 65,
          "time": 207.49979250000382,
          "velocity": 0.6299212598425197,
          "duration": 0.49930505624999455
        },
        {
          "name": "F4",
          "midi": 65,
          "time": 207.99979200000382,
          "velocity": 0.6299212598425197,
          "duration": 0.16597205625001266
        },
        {
          "name": "A4",
          "midi": 69,
          "time": 207.99979200000382,
          "velocity": 0.6299212598425197,
          "duration": 0.16597205625001266
        },
        {
          "name": "C4",
          "midi": 60,
          "time": 208.16645850000384,
          "velocity": 0.6299212598425197,
          "duration": 0.49930505624999455
        },
        {
          "name": "E4",
          "midi": 64,
          "time": 208.16645850000384,
          "velocity": 0.6299212598425197,
          "duration": 0.49930505624999455
        },
        {
          "name": "F4",
          "midi": 65,
          "time": 208.66645800000384,
          "velocity": 0.6299212598425197,
          "duration": 0.16597205625001266
        },
        {
          "name": "A4",
          "midi": 69,
          "time": 208.66645800000384,
          "velocity": 0.6299212598425197,
          "duration": 0.16597205625001266
        },
        {
          "name": "C#4",
          "midi": 61,
          "time": 208.83312450000386,
          "velocity": 0.6299212598425197,
          "duration": 0.49930505624999455
        },
        {
          "name": "F4",
          "midi": 65,
          "time": 208.83312450000386,
          "velocity": 0.6299212598425197,
          "duration": 0.49930505624999455
        },
        {
          "name": "F4",
          "midi": 65,
          "time": 209.33312400000386,
          "velocity": 0.6299212598425197,
          "duration": 0.16597205625001266
        },
        {
          "name": "A4",
          "midi": 69,
          "time": 209.33312400000386,
          "velocity": 0.6299212598425197,
          "duration": 0.16597205625001266
        },
        {
          "name": "C4",
          "midi": 60,
          "time": 209.49979050000388,
          "velocity": 0.6299212598425197,
          "duration": 0.49930505624999455
        },
        {
          "name": "E4",
          "midi": 64,
          "time": 209.49979050000388,
          "velocity": 0.6299212598425197,
          "duration": 0.49930505624999455
        },
        {
          "name": "A4",
          "midi": 69,
          "time": 209.99979000000388,
          "velocity": 0.6299212598425197,
          "duration": 0.16597205625001266
        },
        {
          "name": "F4",
          "midi": 65,
          "time": 210.1664565000039,
          "velocity": 0.6299212598425197,
          "duration": 0.49930505624999455
        },
        {
          "name": "F4",
          "midi": 65,
          "time": 210.6664560000039,
          "velocity": 0.6299212598425197,
          "duration": 0.16597205625001266
        },
        {
          "name": "C4",
          "midi": 60,
          "time": 210.83312250000392,
          "velocity": 0.6299212598425197,
          "duration": 0.49930505624999455
        },
        {
          "name": "A4",
          "midi": 69,
          "time": 211.33312200000393,
          "velocity": 0.6299212598425197,
          "duration": 0.16597205625001266
        },
        {
          "name": "F4",
          "midi": 65,
          "time": 211.49978850000394,
          "velocity": 0.6299212598425197,
          "duration": 0.49930505624999455
        },
        {
          "name": "F4",
          "midi": 65,
          "time": 211.99978800000395,
          "velocity": 0.6299212598425197,
          "duration": 0.16597205625001266
        },
        {
          "name": "C4",
          "midi": 60,
          "time": 212.16645450000397,
          "velocity": 0.6299212598425197,
          "duration": 0.49930505624999455
        },
        {
          "name": "A4",
          "midi": 69,
          "time": 212.66645400000397,
          "velocity": 0.6299212598425197,
          "duration": 0.16597205625001266
        },
        {
          "name": "F4",
          "midi": 65,
          "time": 212.833120500004,
          "velocity": 0.6299212598425197,
          "duration": 0.49930505624999455
        },
        {
          "name": "F4",
          "midi": 65,
          "time": 213.333120000004,
          "velocity": 0.6299212598425197,
          "duration": 0.16597205625001266
        },
        {
          "name": "C4",
          "midi": 60,
          "time": 213.499786500004,
          "velocity": 0.6299212598425197,
          "duration": 0.49930505624999455
        },
        {
          "name": "A4",
          "midi": 69,
          "time": 213.999786000004,
          "velocity": 0.6299212598425197,
          "duration": 0.16597205625001266
        },
        {
          "name": "F4",
          "midi": 65,
          "time": 214.16645250000403,
          "velocity": 0.6299212598425197,
          "duration": 0.49930505624999455
        },
        {
          "name": "F4",
          "midi": 65,
          "time": 214.66645200000403,
          "velocity": 0.6299212598425197,
          "duration": 0.16597205625001266
        },
        {
          "name": "C#4",
          "midi": 61,
          "time": 214.83311850000405,
          "velocity": 0.6299212598425197,
          "duration": 0.49930505624999455
        },
        {
          "name": "A4",
          "midi": 69,
          "time": 215.33311800000405,
          "velocity": 0.6299212598425197,
          "duration": 0.16597205625001266
        },
        {
          "name": "F4",
          "midi": 65,
          "time": 215.49978450000407,
          "velocity": 0.6299212598425197,
          "duration": 0.49930505624999455
        },
        {
          "name": "F4",
          "midi": 65,
          "time": 215.99978400000407,
          "velocity": 0.6299212598425197,
          "duration": 0.16597205625001266
        },
        {
          "name": "C4",
          "midi": 60,
          "time": 216.1664505000041,
          "velocity": 0.6299212598425197,
          "duration": 0.49930505624999455
        },
        {
          "name": "A4",
          "midi": 69,
          "time": 216.6664500000041,
          "velocity": 0.6299212598425197,
          "duration": 0.16597205625001266
        },
        {
          "name": "F4",
          "midi": 65,
          "time": 216.8331165000041,
          "velocity": 0.6299212598425197,
          "duration": 0.49930505624999455
        },
        {
          "name": "F4",
          "midi": 65,
          "time": 217.3331160000041,
          "velocity": 0.6299212598425197,
          "duration": 0.16597205625001266
        },
        {
          "name": "C4",
          "midi": 60,
          "time": 217.49978250000413,
          "velocity": 0.6299212598425197,
          "duration": 0.49930505624999455
        },
        {
          "name": "F4",
          "midi": 65,
          "time": 217.99978200000413,
          "velocity": 0.6299212598425197,
          "duration": 0.16597205625001266
        },
        {
          "name": "A4",
          "midi": 69,
          "time": 217.99978200000413,
          "velocity": 0.6299212598425197,
          "duration": 0.16597205625001266
        },
        {
          "name": "C#4",
          "midi": 61,
          "time": 218.16644850000415,
          "velocity": 0.6299212598425197,
          "duration": 0.49930505624999455
        },
        {
          "name": "F4",
          "midi": 65,
          "time": 218.16644850000415,
          "velocity": 0.6299212598425197,
          "duration": 0.49930505624999455
        },
        {
          "name": "F4",
          "midi": 65,
          "time": 218.66644800000415,
          "velocity": 0.6299212598425197,
          "duration": 0.16597205625001266
        },
        {
          "name": "A4",
          "midi": 69,
          "time": 218.66644800000415,
          "velocity": 0.6299212598425197,
          "duration": 0.16597205625001266
        },
        {
          "name": "C4",
          "midi": 60,
          "time": 218.83311450000417,
          "velocity": 0.6299212598425197,
          "duration": 0.49930505624999455
        },
        {
          "name": "E4",
          "midi": 64,
          "time": 218.83311450000417,
          "velocity": 0.6299212598425197,
          "duration": 0.49930505624999455
        },
        {
          "name": "F4",
          "midi": 65,
          "time": 219.33311400000417,
          "velocity": 0.6299212598425197,
          "duration": 0.16597205625001266
        },
        {
          "name": "A4",
          "midi": 69,
          "time": 219.33311400000417,
          "velocity": 0.6299212598425197,
          "duration": 0.16597205625001266
        },
        {
          "name": "C#4",
          "midi": 61,
          "time": 219.4997805000042,
          "velocity": 0.6299212598425197,
          "duration": 0.49930505624999455
        },
        {
          "name": "F4",
          "midi": 65,
          "time": 219.4997805000042,
          "velocity": 0.6299212598425197,
          "duration": 0.49930505624999455
        },
        {
          "name": "F4",
          "midi": 65,
          "time": 219.9997800000042,
          "velocity": 0.6299212598425197,
          "duration": 0.16597205625001266
        },
        {
          "name": "A4",
          "midi": 69,
          "time": 219.9997800000042,
          "velocity": 0.6299212598425197,
          "duration": 0.16597205625001266
        },
        {
          "name": "C4",
          "midi": 60,
          "time": 220.1664465000042,
          "velocity": 0.6299212598425197,
          "duration": 0.49930505624999455
        },
        {
          "name": "E4",
          "midi": 64,
          "time": 220.1664465000042,
          "velocity": 0.6299212598425197,
          "duration": 0.49930505624999455
        },
        {
          "name": "A4",
          "midi": 69,
          "time": 220.6664460000042,
          "velocity": 0.6299212598425197,
          "duration": 0.16597205625001266
        },
        {
          "name": "F4",
          "midi": 65,
          "time": 220.83311250000423,
          "velocity": 0.6299212598425197,
          "duration": 0.49930505624999455
        },
        {
          "name": "F4",
          "midi": 65,
          "time": 221.33311200000423,
          "velocity": 0.6299212598425197,
          "duration": 0.16597205625001266
        },
        {
          "name": "C4",
          "midi": 60,
          "time": 221.49977850000425,
          "velocity": 0.6299212598425197,
          "duration": 0.49930505624999455
        },
        {
          "name": "A4",
          "midi": 69,
          "time": 221.99977800000426,
          "velocity": 0.6299212598425197,
          "duration": 0.16597205625001266
        },
        {
          "name": "F4",
          "midi": 65,
          "time": 222.16644450000427,
          "velocity": 0.6299212598425197,
          "duration": 0.49930505624999455
        },
        {
          "name": "F4",
          "midi": 65,
          "time": 222.66644400000428,
          "velocity": 0.6299212598425197,
          "duration": 0.16597205625001266
        },
        {
          "name": "C4",
          "midi": 60,
          "time": 222.8331105000043,
          "velocity": 0.6299212598425197,
          "duration": 0.49930505624999455
        },
        {
          "name": "A4",
          "midi": 69,
          "time": 223.3331100000043,
          "velocity": 0.6299212598425197,
          "duration": 0.16597205625001266
        },
        {
          "name": "F4",
          "midi": 65,
          "time": 223.49977650000432,
          "velocity": 0.6299212598425197,
          "duration": 0.49930505624999455
        },
        {
          "name": "F4",
          "midi": 65,
          "time": 223.99977600000432,
          "velocity": 0.6299212598425197,
          "duration": 0.16597205625001266
        },
        {
          "name": "C4",
          "midi": 60,
          "time": 224.16644250000434,
          "velocity": 0.6299212598425197,
          "duration": 0.49930505624999455
        },
        {
          "name": "A4",
          "midi": 69,
          "time": 224.66644200000434,
          "velocity": 0.6299212598425197,
          "duration": 0.16597205625001266
        },
        {
          "name": "F4",
          "midi": 65,
          "time": 224.83310850000436,
          "velocity": 0.6299212598425197,
          "duration": 0.49930505624999455
        },
        {
          "name": "F4",
          "midi": 65,
          "time": 225.33310800000436,
          "velocity": 0.6299212598425197,
          "duration": 0.16597205625001266
        },
        {
          "name": "C#4",
          "midi": 61,
          "time": 225.49977450000438,
          "velocity": 0.6299212598425197,
          "duration": 0.49930505624999455
        },
        {
          "name": "C4",
          "midi": 60,
          "time": 225.99977400000438,
          "velocity": 0.6299212598425197,
          "duration": 0.16597205625001266
        },
        {
          "name": "E4",
          "midi": 64,
          "time": 226.1664405000044,
          "velocity": 0.6299212598425197,
          "duration": 0.3326385562500036
        },
        {
          "name": "C4",
          "midi": 60,
          "time": 226.4997735000044,
          "velocity": 0.6299212598425197,
          "duration": 0.16597205625001266
        },
        {
          "name": "E4",
          "midi": 64,
          "time": 226.66644000000443,
          "velocity": 0.6299212598425197,
          "duration": 0.3326385562500036
        },
        {
          "name": "C4",
          "midi": 60,
          "time": 226.99977300000444,
          "velocity": 0.6299212598425197,
          "duration": 0.16597205625001266
        },
        {
          "name": "E4",
          "midi": 64,
          "time": 227.16643950000446,
          "velocity": 0.6299212598425197,
          "duration": 0.3326385562500036
        },
        {
          "name": "C4",
          "midi": 60,
          "time": 227.49977250000447,
          "velocity": 0.6299212598425197,
          "duration": 0.16597205625001266
        },
        {
          "name": "E4",
          "midi": 64,
          "time": 227.6664390000045,
          "velocity": 0.6299212598425197,
          "duration": 0.3326385562500036
        },
        {
          "name": "F4",
          "midi": 65,
          "time": 227.9997720000045,
          "velocity": 0.6299212598425197,
          "duration": 0.3326385562500036
        },
        {
          "name": "A4",
          "midi": 69,
          "time": 228.3331050000045,
          "velocity": 0.6299212598425197,
          "duration": 0.16597205625001266
        },
        {
          "name": "F4",
          "midi": 65,
          "time": 228.49977150000453,
          "velocity": 0.6299212598425197,
          "duration": 0.3326385562500036
        },
        {
          "name": "A4",
          "midi": 69,
          "time": 228.83310450000454,
          "velocity": 0.6299212598425197,
          "duration": 0.16597205625001266
        },
        {
          "name": "F4",
          "midi": 65,
          "time": 228.99977100000456,
          "velocity": 0.6299212598425197,
          "duration": 0.3326385562500036
        },
        {
          "name": "A4",
          "midi": 69,
          "time": 229.33310400000457,
          "velocity": 0.6299212598425197,
          "duration": 0.16597205625001266
        },
        {
          "name": "F4",
          "midi": 65,
          "time": 229.4997705000046,
          "velocity": 0.6299212598425197,
          "duration": 0.3326385562500036
        },
        {
          "name": "A4",
          "midi": 69,
          "time": 229.8331035000046,
          "velocity": 0.6299212598425197,
          "duration": 0.16597205625001266
        },
        {
          "name": "F4",
          "midi": 65,
          "time": 229.99977000000462,
          "velocity": 0.6299212598425197,
          "duration": 0.3326385562500036
        },
        {
          "name": "E4",
          "midi": 64,
          "time": 230.33310300000463,
          "velocity": 0.6299212598425197,
          "duration": 0.3326385562500036
        },
        {
          "name": "C4",
          "midi": 60,
          "time": 230.66643600000464,
          "velocity": 0.6299212598425197,
          "duration": 0.3326385562500036
        },
        {
          "name": "F4",
          "midi": 65,
          "time": 230.99976900000465,
          "velocity": 0.6299212598425197,
          "duration": 0.9993045562499958
        },
        {
          "name": "F#4",
          "midi": 66,
          "time": 230.99976900000465,
          "velocity": 0.6299212598425197,
          "duration": 0.9993045562499958
        }
      ],
      "controlChanges": {
        "6": [
          {
            "number": 6,
            "time": 0,
            "value": 0.09448818897637795
          }
        ],
        "7": [
          {
            "number": 7,
            "time": 0,
            "value": 0.7874015748031497
          }
        ],
        "10": [
          {
            "number": 10,
            "time": 0,
            "value": 0.5039370078740157
          }
        ],
        "91": [
          {
            "number": 91,
            "time": 0,
            "value": 0
          }
        ],
        "93": [
          {
            "number": 93,
            "time": 0,
            "value": 0
          }
        ],
        "100": [
          {
            "number": 100,
            "time": 0,
            "value": 0
          },
          {
            "number": 100,
            "time": 0,
            "value": 1
          }
        ],
        "101": [
          {
            "number": 101,
            "time": 0,
            "value": 0
          },
          {
            "number": 101,
            "time": 0,
            "value": 1
          }
        ],
        "121": [
          {
            "number": 121,
            "time": 0,
            "value": 0
          }
        ]
      },
      "id": 0,
      "name": "Piano",
      "instrumentNumber": 0,
      "instrument": "acoustic grand piano",
      "instrumentFamily": "piano",
      "channelNumber": 0,
      "isPercussion": false
    },
    {
      "startTime": 0,
      "duration": 0,
      "length": 0,
      "notes": [],
      "controlChanges": {},
      "id": 1,
      "name": "Piano"
    }
  ]
}