{
  "header": {
    "PPQ": 480,
    "timeSignature": [
      4,
      4
    ],
    "bpm": 180.00018000018,
    "name": "Piano"
  },
  "tempo": [
    {
      "absoluteTime": 0,
      "seconds": 0,
      "bpm": 180.00018000018
    }
  ],
  "timeSignature": [
    {
      "absoluteTime": 0,
      "seconds": 0,
      "numerator": 4,
      "denominator": 2,
      "click": 24,
      "notesQ": 8
    }
  ],
  "startTime": 0,
  "duration": 80.66589155624999,
  "tracks": [
    {
      "startTime": 0.999999,
      "duration": 80.66589155624999,
      "length": 271,
      "notes": [
        {
          "name": "C4",
          "midi": 60,
          "time": 0.999999,
          "velocity": 0.6299212598425197,
          "duration": 0.33263855624999994
        },
        {
          "name": "E4",
          "midi": 64,
          "time": 0.999999,
          "velocity": 0.6299212598425197,
          "duration": 0.33263855624999994
        },
        {
          "name": "C4",
          "midi": 60,
          "time": 1.333332,
          "velocity": 0.6299212598425197,
          "duration": 0.33263855625000005
        },
        {
          "name": "E4",
          "midi": 64,
          "time": 1.333332,
          "velocity": 0.6299212598425197,
          "duration": 0.33263855625000005
        },
        {
          "name": "F4",
          "midi": 65,
          "time": 1.9999980000000002,
          "velocity": 0.6299212598425197,
          "duration": 0.33263855625000005
        },
        {
          "name": "A4",
          "midi": 69,
          "time": 1.9999980000000002,
          "velocity": 0.6299212598425197,
          "duration": 0.33263855625000005
        },
        {
          "name": "F4",
          "midi": 65,
          "time": 2.3333310000000003,
          "velocity": 0.6299212598425197,
          "duration": 0.33263855625000005
        },
        {
          "name": "A4",
          "midi": 69,
          "time": 2.3333310000000003,
          "velocity": 0.6299212598425197,
          "duration": 0.33263855625000005
        },
        {
          "name": "C4",
          "midi": 60,
          "time": 3.6666630000000002,
          "velocity": 0.6299212598425197,
          "duration": 0.33263855625000005
        },
        {
          "name": "E4",
          "midi": 64,
          "time": 3.6666630000000002,
          "velocity": 0.6299212598425197,
          "duration": 0.33263855625000005
        },
        {
          "name": "C4",
          "midi": 60,
          "time": 3.9999960000000003,
          "velocity": 0.6299212598425197,
          "duration": 0.33263855625000005
        },
        {
          "name": "E4",
          "midi": 64,
          "time": 3.9999960000000003,
          "velocity": 0.6299212598425197,
          "duration": 0.33263855625000005
        },
        {
          "name": "F4",
          "midi": 65,
          "time": 4.6666620000000005,
          "velocity": 0.6299212598425197,
          "duration": 0.33263855625000005
        },
        {
          "name": "A4",
          "midi": 69,
          "time": 4.6666620000000005,
          "velocity": 0.6299212598425197,
          "duration": 0.33263855625000005
        },
        {
          "name": "F4",
          "midi": 65,
          "time": 4.999995,
          "velocity": 0.6299212598425197,
          "duration": 0.33263855625000005
        },
        {
          "name": "A4",
          "midi": 69,
          "time": 4.999995,
          "velocity": 0.6299212598425197,
          "duration": 0.33263855625000005
        },
        {
          "name": "F4",
          "midi": 65,
          "time": 6.333327000000001,
          "velocity": 0.6299212598425197,
          "duration": 0.33263855625000005
        },
        {
          "name": "A4",
          "midi": 69,
          "time": 6.333327000000001,
          "velocity": 0.6299212598425197,
          "duration": 0.33263855625000005
        },
        {
          "name": "F4",
          "midi": 65,
          "time": 6.66666,
          "velocity": 0.6299212598425197,
          "duration": 0.33263855625000005
        },
        {
          "name": "A4",
          "midi": 69,
          "time": 6.66666,
          "velocity": 0.6299212598425197,
          "duration": 0.33263855625000005
        },
        {
          "name": "C4",
          "midi": 60,
          "time": 7.3333260000000005,
          "velocity": 0.6299212598425197,
          "duration": 0.33263855625000005
        },
        {
          "name": "E4",
          "midi": 64,
          "time": 7.3333260000000005,
          "velocity": 0.6299212598425197,
          "duration": 0.33263855625000005
        },
        {
          "name": "C4",
          "midi": 60,
          "time": 7.666659,
          "velocity": 0.6299212598425197,
          "duration": 0.33263855625000005
        },
        {
          "name": "E4",
          "midi": 64,
          "time": 7.666659,
          "velocity": 0.6299212598425197,
          "duration": 0.33263855625000005
        },
        {
          "name": "F4",
          "midi": 65,
          "time": 8.999991,
          "velocity": 0.6299212598425197,
          "duration": 0.33263855625000005
        },
        {
          "name": "A4",
          "midi": 69,
          "time": 8.999991,
          "velocity": 0.6299212598425197,
          "duration": 0.33263855625000005
        },
        {
          "name": "F4",
          "midi": 65,
          "time": 9.333324,
          "velocity": 0.6299212598425197,
          "duration": 0.33263855625000005
        },
        {
          "name": "A4",
          "midi": 69,
          "time": 9.333324,
          "velocity": 0.6299212598425197,
          "duration": 0.33263855625000005
        },
        {
          "name": "C4",
          "midi": 60,
          "time": 9.999989999999999,
          "velocity": 0.6299212598425197,
          "duration": 0.33263855625000005
        },
        {
          "name": "E4",
          "midi": 64,
          "time": 9.999989999999999,
          "velocity": 0.6299212598425197,
          "duration": 0.33263855625000005
        },
        {
          "name": "C4",
          "midi": 60,
          "time": 10.333322999999998,
          "velocity": 0.6299212598425197,
          "duration": 0.33263855625000005
        },
        {
          "name": "E4",
          "midi": 64,
          "time": 10.333322999999998,
          "velocity": 0.6299212598425197,
          "duration": 0.33263855625000005
        },
        {
          "name": "A4",
          "midi": 69,
          "time": 11.333321999999999,
          "velocity": 0.6299212598425197,
          "duration": 0.16597205625000022
        },
        {
          "name": "A4",
          "midi": 69,
          "time": 11.499988499999999,
          "velocity": 0.6299212598425197,
          "duration": 0.16597205625000022
        },
        {
          "name": "F4",
          "midi": 65,
          "time": 11.666654999999999,
          "velocity": 0.6299212598425197,
          "duration": 0.33263855625000005
        },
        {
          "name": "A4",
          "midi": 69,
          "time": 11.999987999999998,
          "velocity": 0.6299212598425197,
          "duration": 0.16597205625000022
        },
        {
          "name": "F4",
          "midi": 65,
          "time": 12.166654499999998,
          "velocity": 0.6299212598425197,
          "duration": 0.33263855625000005
        },
        {
          "name": "A4",
          "midi": 69,
          "time": 12.499987499999998,
          "velocity": 0.6299212598425197,
          "duration": 0.16597205625000022
        },
        {
          "name": "F4",
          "midi": 65,
          "time": 12.666653999999998,
          "velocity": 0.6299212598425197,
          "duration": 0.33263855625000005
        },
        {
          "name": "F4",
          "midi": 65,
          "time": 12.999986999999997,
          "velocity": 0.6299212598425197,
          "duration": 0.33263855625000005
        },
        {
          "name": "C4",
          "midi": 60,
          "time": 13.333319999999997,
          "velocity": 0.6299212598425197,
          "duration": 0.33263855625000005
        },
        {
          "name": "A4",
          "midi": 69,
          "time": 13.333319999999997,
          "velocity": 0.6299212598425197,
          "duration": 0.33263855625000005
        },
        {
          "name": "E4",
          "midi": 64,
          "time": 13.666652999999997,
          "velocity": 0.6299212598425197,
          "duration": 0.16597205625000022
        },
        {
          "name": "E4",
          "midi": 64,
          "time": 13.833319499999996,
          "velocity": 0.6299212598425197,
          "duration": 0.16597205625000022
        },
        {
          "name": "C4",
          "midi": 60,
          "time": 13.999985999999996,
          "velocity": 0.6299212598425197,
          "duration": 0.16597205625000022
        },
        {
          "name": "F4",
          "midi": 65,
          "time": 13.999985999999996,
          "velocity": 0.6299212598425197,
          "duration": 0.16597205625000022
        },
        {
          "name": "C4",
          "midi": 60,
          "time": 14.166652499999996,
          "velocity": 0.6299212598425197,
          "duration": 0.16597205625000022
        },
        {
          "name": "E4",
          "midi": 64,
          "time": 14.333318999999996,
          "velocity": 0.6299212598425197,
          "duration": 0.33263855625000005
        },
        {
          "name": "C4",
          "midi": 60,
          "time": 14.666651999999996,
          "velocity": 0.6299212598425197,
          "duration": 0.16597205625000022
        },
        {
          "name": "E4",
          "midi": 64,
          "time": 14.833318499999995,
          "velocity": 0.6299212598425197,
          "duration": 0.33263855625000005
        },
        {
          "name": "C4",
          "midi": 60,
          "time": 15.166651499999995,
          "velocity": 0.6299212598425197,
          "duration": 0.16597205625000022
        },
        {
          "name": "A4",
          "midi": 69,
          "time": 15.333317999999995,
          "velocity": 0.6299212598425197,
          "duration": 0.33263855625000005
        },
        {
          "name": "A4",
          "midi": 69,
          "time": 15.666650999999995,
          "velocity": 0.6299212598425197,
          "duration": 0.33263855625000005
        },
        {
          "name": "F4",
          "midi": 65,
          "time": 15.999983999999994,
          "velocity": 0.6299212598425197,
          "duration": 0.33263855625000005
        },
        {
          "name": "F4",
          "midi": 65,
          "time": 16.333316999999994,
          "velocity": 0.6299212598425197,
          "duration": 0.16597205624999845
        },
        {
          "name": "F4",
          "midi": 65,
          "time": 16.499983499999992,
          "velocity": 0.6299212598425197,
          "duration": 0.16597205624999845
        },
        {
          "name": "E4",
          "midi": 64,
          "time": 16.66664999999999,
          "velocity": 0.6299212598425197,
          "duration": 0.16597205624999845
        },
        {
          "name": "A4",
          "midi": 69,
          "time": 16.66664999999999,
          "velocity": 0.6299212598425197,
          "duration": 0.16597205624999845
        },
        {
          "name": "A4",
          "midi": 69,
          "time": 16.833316499999988,
          "velocity": 0.6299212598425197,
          "duration": 0.16597205624999845
        },
        {
          "name": "F4",
          "midi": 65,
          "time": 16.999982999999986,
          "velocity": 0.6299212598425197,
          "duration": 0.33263855625000005
        },
        {
          "name": "A4",
          "midi": 69,
          "time": 17.333315999999986,
          "velocity": 0.6299212598425197,
          "duration": 0.16597205624999845
        },
        {
          "name": "F4",
          "midi": 65,
          "time": 17.499982499999984,
          "velocity": 0.6299212598425197,
          "duration": 0.33263855625000005
        },
        {
          "name": "A4",
          "midi": 69,
          "time": 17.833315499999983,
          "velocity": 0.6299212598425197,
          "duration": 0.16597205624999845
        },
        {
          "name": "F4",
          "midi": 65,
          "time": 17.99998199999998,
          "velocity": 0.6299212598425197,
          "duration": 0.33263855625000005
        },
        {
          "name": "A4",
          "midi": 69,
          "time": 18.33331499999998,
          "velocity": 0.6299212598425197,
          "duration": 0.16597205624999845
        },
        {
          "name": "F4",
          "midi": 65,
          "time": 18.49998149999998,
          "velocity": 0.6299212598425197,
          "duration": 0.33263855625000005
        },
        {
          "name": "A4",
          "midi": 69,
          "time": 18.49998149999998,
          "velocity": 0.6299212598425197,
          "duration": 0.33263855625000005
        },
        {
          "name": "E4",
          "midi": 64,
          "time": 18.83331449999998,
          "velocity": 0.6299212598425197,
          "duration": 0.33263855625000005
        },
        {
          "name": "F4",
          "midi": 65,
          "time": 19.16664749999998,
          "velocity": 0.6299212598425197,
          "duration": 0.16597205624999845
        },
        {
          "name": "C4",
          "midi": 60,
          "time": 19.333313999999977,
          "velocity": 0.6299212598425197,
          "duration": 0.16597205624999845
        },
        {
          "name": "F4",
          "midi": 65,
          "time": 19.333313999999977,
          "velocity": 0.6299212598425197,
          "duration": 0.16597205624999845
        },
        {
          "name": "A4",
          "midi": 69,
          "time": 19.499980499999975,
          "velocity": 0.6299212598425197,
          "duration": 0.33263855625000005
        },
        {
          "name": "F4",
          "midi": 65,
          "time": 19.833313499999974,
          "velocity": 0.6299212598425197,
          "duration": 0.49930505625000166
        },
        {
          "name": "E4",
          "midi": 64,
          "time": 20.333312999999976,
          "velocity": 0.6299212598425197,
          "duration": 0.49930505625000166
        },
        {
          "name": "A4",
          "midi": 69,
          "time": 20.833312499999977,
          "velocity": 0.6299212598425197,
          "duration": 0.49930505625000166
        },
        {
          "name": "C4",
          "midi": 60,
          "time": 21.333311999999978,
          "velocity": 0.6299212598425197,
          "duration": 0.33263855625000005
        },
        {
          "name": "F4",
          "midi": 65,
          "time": 21.333311999999978,
          "velocity": 0.6299212598425197,
          "duration": 0.33263855625000005
        },
        {
          "name": "E4",
          "midi": 64,
          "time": 21.666644999999978,
          "velocity": 0.6299212598425197,
          "duration": 0.33263855625000005
        },
        {
          "name": "A4",
          "midi": 69,
          "time": 21.666644999999978,
          "velocity": 0.6299212598425197,
          "duration": 0.33263855625000005
        },
        {
          "name": "C4",
          "midi": 60,
          "time": 21.999977999999977,
          "velocity": 0.6299212598425197,
          "duration": 0.16597205624999845
        },
        {
          "name": "C4",
          "midi": 60,
          "time": 22.166644499999975,
          "velocity": 0.6299212598425197,
          "duration": 0.16597205624999845
        },
        {
          "name": "A4",
          "midi": 69,
          "time": 22.333310999999973,
          "velocity": 0.6299212598425197,
          "duration": 0.33263855625000005
        },
        {
          "name": "E4",
          "midi": 64,
          "time": 22.666643999999973,
          "velocity": 0.6299212598425197,
          "duration": 0.16597205624999845
        },
        {
          "name": "F4",
          "midi": 65,
          "time": 22.83331049999997,
          "velocity": 0.6299212598425197,
          "duration": 0.33263855625000005
        },
        {
          "name": "C4",
          "midi": 60,
          "time": 23.16664349999997,
          "velocity": 0.6299212598425197,
          "duration": 0.16597205624999845
        },
        {
          "name": "E4",
          "midi": 64,
          "time": 23.33330999999997,
          "velocity": 0.6299212598425197,
          "duration": 0.33263855625000005
        },
        {
          "name": "C4",
          "midi": 60,
          "time": 23.66664299999997,
          "velocity": 0.6299212598425197,
          "duration": 0.49930505625000166
        },
        {
          "name": "E4",
          "midi": 64,
          "time": 23.66664299999997,
          "velocity": 0.6299212598425197,
          "duration": 0.49930505625000166
        },
        {
          "name": "F4",
          "midi": 65,
          "time": 24.16664249999997,
          "velocity": 0.6299212598425197,
          "duration": 0.49930505625000166
        },
        {
          "name": "A4",
          "midi": 69,
          "time": 24.16664249999997,
          "velocity": 0.6299212598425197,
          "duration": 0.49930505625000166
        },
        {
          "name": "C4",
          "midi": 60,
          "time": 24.66664199999997,
          "velocity": 0.6299212598425197,
          "duration": 0.16597205624999845
        },
        {
          "name": "C4",
          "midi": 60,
          "time": 24.83330849999997,
          "velocity": 0.6299212598425197,
          "duration": 0.16597205624999845
        },
        {
          "name": "A4",
          "midi": 69,
          "time": 24.999974999999967,
          "velocity": 0.6299212598425197,
          "duration": 0.33263855625000005
        },
        {
          "name": "E4",
          "midi": 64,
          "time": 25.333307999999967,
          "velocity": 0.6299212598425197,
          "duration": 0.16597205624999845
        },
        {
          "name": "F4",
          "midi": 65,
          "time": 25.499974499999965,
          "velocity": 0.6299212598425197,
          "duration": 0.33263855625000005
        },
        {
          "name": "C4",
          "midi": 60,
          "time": 25.833307499999965,
          "velocity": 0.6299212598425197,
          "duration": 0.16597205624999845
        },
        {
          "name": "E4",
          "midi": 64,
          "time": 25.999973999999963,
          "velocity": 0.6299212598425197,
          "duration": 0.33263855625000005
        },
        {
          "name": "F4",
          "midi": 65,
          "time": 26.666639999999962,
          "velocity": 0.6299212598425197,
          "duration": 0.16597205624999845
        },
        {
          "name": "F4",
          "midi": 65,
          "time": 26.83330649999996,
          "velocity": 0.6299212598425197,
          "duration": 0.33263855625000005
        },
        {
          "name": "F4",
          "midi": 65,
          "time": 27.16663949999996,
          "velocity": 0.6299212598425197,
          "duration": 0.16597205624999845
        },
        {
          "name": "C4",
          "midi": 60,
          "time": 27.333305999999958,
          "velocity": 0.6299212598425197,
          "duration": 0.16597205624999845
        },
        {
          "name": "C4",
          "midi": 60,
          "time": 27.499972499999956,
          "velocity": 0.6299212598425197,
          "duration": 0.16597205624999845
        },
        {
          "name": "A4",
          "midi": 69,
          "time": 27.666638999999954,
          "velocity": 0.6299212598425197,
          "duration": 0.33263855625000005
        },
        {
          "name": "E4",
          "midi": 64,
          "time": 27.999971999999953,
          "velocity": 0.6299212598425197,
          "duration": 0.16597205624999845
        },
        {
          "name": "F4",
          "midi": 65,
          "time": 28.16663849999995,
          "velocity": 0.6299212598425197,
          "duration": 0.33263855625000005
        },
        {
          "name": "C4",
          "midi": 60,
          "time": 28.49997149999995,
          "velocity": 0.6299212598425197,
          "duration": 0.16597205624999845
        },
        {
          "name": "E4",
          "midi": 64,
          "time": 28.66663799999995,
          "velocity": 0.6299212598425197,
          "duration": 0.33263855625000005
        },
        {
          "name": "F4",
          "midi": 65,
          "time": 28.99997099999995,
          "velocity": 0.6299212598425197,
          "duration": 0.49930505625000166
        },
        {
          "name": "A4",
          "midi": 69,
          "time": 29.49997049999995,
          "velocity": 0.6299212598425197,
          "duration": 0.49930505625000166
        },
        {
          "name": "A#4",
          "midi": 70,
          "time": 29.99996999999995,
          "velocity": 0.6299212598425197,
          "duration": 0.6659715562499997
        },
        {
          "name": "F4",
          "midi": 65,
          "time": 30.66663599999995,
          "velocity": 0.6299212598425197,
          "duration": 0.33263855625000005
        },
        {
          "name": "E4",
          "midi": 64,
          "time": 30.99996899999995,
          "velocity": 0.6299212598425197,
          "duration": 0.16597205624999845
        },
        {
          "name": "E4",
          "midi": 64,
          "time": 31.16663549999995,
          "velocity": 0.6299212598425197,
          "duration": 0.16597205624999845
        },
        {
          "name": "C#4",
          "midi": 61,
          "time": 31.333301999999946,
          "velocity": 0.6299212598425197,
          "duration": 0.6659715562499997
        },
        {
          "name": "F4",
          "midi": 65,
          "time": 31.999967999999946,
          "velocity": 0.6299212598425197,
          "duration": 0.3326385562499965
        },
        {
          "name": "A4",
          "midi": 69,
          "time": 32.33330099999994,
          "velocity": 0.6299212598425197,
          "duration": 0.3326385562499965
        },
        {
          "name": "C4",
          "midi": 60,
          "time": 33.99996599999994,
          "velocity": 0.6299212598425197,
          "duration": 0.16597205624999845
        },
        {
          "name": "E4",
          "midi": 64,
          "time": 34.166632499999935,
          "velocity": 0.6299212598425197,
          "duration": 0.3326385562499965
        },
        {
          "name": "F4",
          "midi": 65,
          "time": 34.49996549999993,
          "velocity": 0.6299212598425197,
          "duration": 0.16597205624999845
        },
        {
          "name": "D4",
          "midi": 62,
          "time": 34.66663199999993,
          "velocity": 0.6299212598425197,
          "duration": 0.3326385562499965
        },
        {
          "name": "A4",
          "midi": 69,
          "time": 34.999964999999925,
          "velocity": 0.6299212598425197,
          "duration": 0.16597205624999845
        },
        {
          "name": "F4",
          "midi": 65,
          "time": 35.16663149999992,
          "velocity": 0.6299212598425197,
          "duration": 0.6659715562499997
        },
        {
          "name": "C4",
          "midi": 60,
          "time": 36.66662999999992,
          "velocity": 0.6299212598425197,
          "duration": 0.16597205624999845
        },
        {
          "name": "E4",
          "midi": 64,
          "time": 36.83329649999992,
          "velocity": 0.6299212598425197,
          "duration": 0.3326385562499965
        },
        {
          "name": "F4",
          "midi": 65,
          "time": 37.166629499999914,
          "velocity": 0.6299212598425197,
          "duration": 0.16597205624999845
        },
        {
          "name": "D4",
          "midi": 62,
          "time": 37.33329599999991,
          "velocity": 0.6299212598425197,
          "duration": 0.3326385562499965
        },
        {
          "name": "A4",
          "midi": 69,
          "time": 37.66662899999991,
          "velocity": 0.6299212598425197,
          "duration": 0.16597205624999845
        },
        {
          "name": "F4",
          "midi": 65,
          "time": 37.833295499999906,
          "velocity": 0.6299212598425197,
          "duration": 0.16597205624999845
        },
        {
          "name": "E4",
          "midi": 64,
          "time": 37.999961999999904,
          "velocity": 0.6299212598425197,
          "duration": 0.49930505625000166
        },
        {
          "name": "F4",
          "midi": 65,
          "time": 37.999961999999904,
          "velocity": 0.6299212598425197,
          "duration": 0.49930505625000166
        },
        {
          "name": "A4",
          "midi": 69,
          "time": 38.499961499999905,
          "velocity": 0.6299212598425197,
          "duration": 0.16597205624999845
        },
        {
          "name": "C4",
          "midi": 60,
          "time": 38.6666279999999,
          "velocity": 0.6299212598425197,
          "duration": 0.3326385562499965
        },
        {
          "name": "A4",
          "midi": 69,
          "time": 38.6666279999999,
          "velocity": 0.6299212598425197,
          "duration": 0.3326385562499965
        },
        {
          "name": "E4",
          "midi": 64,
          "time": 38.9999609999999,
          "velocity": 0.6299212598425197,
          "duration": 0.16597205624999845
        },
        {
          "name": "F4",
          "midi": 65,
          "time": 39.1666274999999,
          "velocity": 0.6299212598425197,
          "duration": 0.3326385562499965
        },
        {
          "name": "A4",
          "midi": 69,
          "time": 39.499960499999894,
          "velocity": 0.6299212598425197,
          "duration": 0.3326385562499965
        },
        {
          "name": "A4",
          "midi": 69,
          "time": 39.83329349999989,
          "velocity": 0.6299212598425197,
          "duration": 0.16597205624999845
        },
        {
          "name": "C4",
          "midi": 60,
          "time": 39.99995999999989,
          "velocity": 0.6299212598425197,
          "duration": 0.16597205624999845
        },
        {
          "name": "C4",
          "midi": 60,
          "time": 40.166626499999886,
          "velocity": 0.6299212598425197,
          "duration": 0.16597205624999845
        },
        {
          "name": "C4",
          "midi": 60,
          "time": 40.333292999999884,
          "velocity": 0.6299212598425197,
          "duration": 0.3326385562499965
        },
        {
          "name": "E4",
          "midi": 64,
          "time": 40.66662599999988,
          "velocity": 0.6299212598425197,
          "duration": 0.16597205624999845
        },
        {
          "name": "E4",
          "midi": 64,
          "time": 40.83329249999988,
          "velocity": 0.6299212598425197,
          "duration": 0.16597205624999845
        },
        {
          "name": "E4",
          "midi": 64,
          "time": 40.999958999999876,
          "velocity": 0.6299212598425197,
          "duration": 0.3326385562499965
        },
        {
          "name": "C4",
          "midi": 60,
          "time": 41.33329199999987,
          "velocity": 0.6299212598425197,
          "duration": 0.16597205624999845
        },
        {
          "name": "C4",
          "midi": 60,
          "time": 41.49995849999987,
          "velocity": 0.6299212598425197,
          "duration": 0.16597205624999845
        },
        {
          "name": "C4",
          "midi": 60,
          "time": 41.66662499999987,
          "velocity": 0.6299212598425197,
          "duration": 0.3326385562499965
        },
        {
          "name": "E4",
          "midi": 64,
          "time": 41.999957999999864,
          "velocity": 0.6299212598425197,
          "duration": 0.3326385562499965
        },
        {
          "name": "C4",
          "midi": 60,
          "time": 42.33329099999986,
          "velocity": 0.6299212598425197,
          "duration": 0.3326385562499965
        },
        {
          "name": "E4",
          "midi": 64,
          "time": 42.66662399999986,
          "velocity": 0.6299212598425197,
          "duration": 0.6659715562499997
        },
        {
          "name": "F4",
          "midi": 65,
          "time": 44.33328899999986,
          "velocity": 0.6299212598425197,
          "duration": 0.3326385562499965
        },
        {
          "name": "A4",
          "midi": 69,
          "time": 44.666621999999855,
          "velocity": 0.6299212598425197,
          "duration": 0.3326385562499965
        },
        {
          "name": "F4",
          "midi": 65,
          "time": 44.99995499999985,
          "velocity": 0.6299212598425197,
          "duration": 0.3326385562499965
        },
        {
          "name": "A4",
          "midi": 69,
          "time": 45.33328799999985,
          "velocity": 0.6299212598425197,
          "duration": 0.3326385562499965
        },
        {
          "name": "F4",
          "midi": 65,
          "time": 45.66662099999984,
          "velocity": 0.6299212598425197,
          "duration": 0.3326385562499965
        },
        {
          "name": "A4",
          "midi": 69,
          "time": 45.99995399999984,
          "velocity": 0.6299212598425197,
          "duration": 0.3326385562499965
        },
        {
          "name": "F#4",
          "midi": 66,
          "time": 46.333286999999835,
          "velocity": 0.6299212598425197,
          "duration": 0.9993045562500029
        },
        {
          "name": "A#4",
          "midi": 70,
          "time": 46.333286999999835,
          "velocity": 0.6299212598425197,
          "duration": 0.9993045562500029
        },
        {
          "name": "C4",
          "midi": 60,
          "time": 47.66661899999984,
          "velocity": 0.6299212598425197,
          "duration": 0.16597205624999845
        },
        {
          "name": "C4",
          "midi": 60,
          "time": 47.83328549999984,
          "velocity": 0.6299212598425197,
          "duration": 0.16597205624999845
        },
        {
          "name": "C4",
          "midi": 60,
          "time": 47.99995199999984,
          "velocity": 0.6299212598425197,
          "duration": 0.3326385562499965
        },
        {
          "name": "C#4",
          "midi": 61,
          "time": 48.33328499999983,
          "velocity": 0.6299212598425197,
          "duration": 0.6659715562499997
        },
        {
          "name": "F4",
          "midi": 65,
          "time": 48.33328499999983,
          "velocity": 0.6299212598425197,
          "duration": 0.6659715562499997
        },
        {
          "name": "E4",
          "midi": 64,
          "time": 48.99995099999983,
          "velocity": 0.6299212598425197,
          "duration": 0.16597205624999845
        },
        {
          "name": "E4",
          "midi": 64,
          "time": 49.16661749999983,
          "velocity": 0.6299212598425197,
          "duration": 0.16597205624999845
        },
        {
          "name": "E4",
          "midi": 64,
          "time": 49.33328399999983,
          "velocity": 0.6299212598425197,
          "duration": 0.3326385562499965
        },
        {
          "name": "C#4",
          "midi": 61,
          "time": 49.666616999999825,
          "velocity": 0.6299212598425197,
          "duration": 0.6659715562499997
        },
        {
          "name": "F4",
          "midi": 65,
          "time": 49.666616999999825,
          "velocity": 0.6299212598425197,
          "duration": 0.6659715562499997
        },
        {
          "name": "F4",
          "midi": 65,
          "time": 50.333282999999824,
          "velocity": 0.6299212598425197,
          "duration": 0.16597205624999845
        },
        {
          "name": "F4",
          "midi": 65,
          "time": 50.49994949999982,
          "velocity": 0.6299212598425197,
          "duration": 0.16597205624999845
        },
        {
          "name": "F4",
          "midi": 65,
          "time": 50.66661599999982,
          "velocity": 0.6299212598425197,
          "duration": 0.3326385562499965
        },
        {
          "name": "F#4",
          "midi": 66,
          "time": 50.999948999999816,
          "velocity": 0.6299212598425197,
          "duration": 0.6659715562499997
        },
        {
          "name": "A#4",
          "midi": 70,
          "time": 50.999948999999816,
          "velocity": 0.6299212598425197,
          "duration": 0.6659715562499997
        },
        {
          "name": "A4",
          "midi": 69,
          "time": 51.666614999999815,
          "velocity": 0.6299212598425197,
          "duration": 0.16597205624999845
        },
        {
          "name": "A4",
          "midi": 69,
          "time": 51.83328149999981,
          "velocity": 0.6299212598425197,
          "duration": 0.16597205624999845
        },
        {
          "name": "A4",
          "midi": 69,
          "time": 51.99994799999981,
          "velocity": 0.6299212598425197,
          "duration": 0.3326385562499965
        },
        {
          "name": "F#4",
          "midi": 66,
          "time": 52.33328099999981,
          "velocity": 0.6299212598425197,
          "duration": 0.6659715562499997
        },
        {
          "name": "A#4",
          "midi": 70,
          "time": 52.33328099999981,
          "velocity": 0.6299212598425197,
          "duration": 0.6659715562499997
        },
        {
          "name": "C4",
          "midi": 60,
          "time": 52.99994699999981,
          "velocity": 0.6299212598425197,
          "duration": 0.16597205624999845
        },
        {
          "name": "C4",
          "midi": 60,
          "time": 53.166613499999805,
          "velocity": 0.6299212598425197,
          "duration": 0.16597205624999845
        },
        {
          "name": "F4",
          "midi": 65,
          "time": 53.3332799999998,
          "velocity": 0.6299212598425197,
          "duration": 0.3326385562499965
        },
        {
          "name": "A4",
          "midi": 69,
          "time": 53.6666129999998,
          "velocity": 0.6299212598425197,
          "duration": 0.3326385562499965
        },
        {
          "name": "C4",
          "midi": 60,
          "time": 53.999945999999795,
          "velocity": 0.6299212598425197,
          "duration": 0.3326385562499965
        },
        {
          "name": "C4",
          "midi": 60,
          "time": 54.33327899999979,
          "velocity": 0.6299212598425197,
          "duration": 0.3326385562499965
        },
        {
          "name": "C4",
          "midi": 60,
          "time": 54.66661199999979,
          "velocity": 0.6299212598425197,
          "duration": 0.3326385562499965
        },
        {
          "name": "C4",
          "midi": 60,
          "time": 54.999944999999784,
          "velocity": 0.6299212598425197,
          "duration": 0.3326385562499965
        },
        {
          "name": "E4",
          "midi": 64,
          "time": 55.33327799999978,
          "velocity": 0.6299212598425197,
          "duration": 0.3326385562499965
        },
        {
          "name": "E4",
          "midi": 64,
          "time": 55.666610999999776,
          "velocity": 0.6299212598425197,
          "duration": 0.3326385562499965
        },
        {
          "name": "E4",
          "midi": 64,
          "time": 55.99994399999977,
          "velocity": 0.6299212598425197,
          "duration": 0.3326385562499965
        },
        {
          "name": "E4",
          "midi": 64,
          "time": 56.33327699999977,
          "velocity": 0.6299212598425197,
          "duration": 0.3326385562499965
        },
        {
          "name": "F4",
          "midi": 65,
          "time": 56.666609999999764,
          "velocity": 0.6299212598425197,
          "duration": 0.3326385562499965
        },
        {
          "name": "F4",
          "midi": 65,
          "time": 56.99994299999976,
          "velocity": 0.6299212598425197,
          "duration": 0.3326385562499965
        },
        {
          "name": "A4",
          "midi": 69,
          "time": 57.333275999999756,
          "velocity": 0.6299212598425197,
          "duration": 0.16597205624999845
        },
        {
          "name": "A4",
          "midi": 69,
          "time": 57.499942499999754,
          "velocity": 0.6299212598425197,
          "duration": 0.16597205624999845
        },
        {
          "name": "A4",
          "midi": 69,
          "time": 57.66660899999975,
          "velocity": 0.6299212598425197,
          "duration": 0.16597205624999845
        },
        {
          "name": "A4",
          "midi": 69,
          "time": 57.83327549999975,
          "velocity": 0.6299212598425197,
          "duration": 0.16597205624999845
        },
        {
          "name": "C4",
          "midi": 60,
          "time": 58.33327499999975,
          "velocity": 0.6299212598425197,
          "duration": 0.16597205624999845
        },
        {
          "name": "C4",
          "midi": 60,
          "time": 58.49994149999975,
          "velocity": 0.6299212598425197,
          "duration": 0.16597205624999845
        },
        {
          "name": "C4",
          "midi": 60,
          "time": 58.66660799999975,
          "velocity": 0.6299212598425197,
          "duration": 0.3326385562499965
        },
        {
          "name": "C#4",
          "midi": 61,
          "time": 58.999940999999744,
          "velocity": 0.6299212598425197,
          "duration": 0.6659715562499997
        },
        {
          "name": "F4",
          "midi": 65,
          "time": 58.999940999999744,
          "velocity": 0.6299212598425197,
          "duration": 0.6659715562499997
        },
        {
          "name": "E4",
          "midi": 64,
          "time": 59.66660699999974,
          "velocity": 0.6299212598425197,
          "duration": 0.16597205624999845
        },
        {
          "name": "E4",
          "midi": 64,
          "time": 59.83327349999974,
          "velocity": 0.6299212598425197,
          "duration": 0.16597205624999845
        },
        {
          "name": "E4",
          "midi": 64,
          "time": 59.99993999999974,
          "velocity": 0.6299212598425197,
          "duration": 0.3326385562499965
        },
        {
          "name": "C#4",
          "midi": 61,
          "time": 60.333272999999735,
          "velocity": 0.6299212598425197,
          "duration": 0.6659715562499997
        },
        {
          "name": "F4",
          "midi": 65,
          "time": 60.333272999999735,
          "velocity": 0.6299212598425197,
          "duration": 0.6659715562499997
        },
        {
          "name": "F4",
          "midi": 65,
          "time": 60.999938999999735,
          "velocity": 0.6299212598425197,
          "duration": 0.16597205624999845
        },
        {
          "name": "F4",
          "midi": 65,
          "time": 61.16660549999973,
          "velocity": 0.6299212598425197,
          "duration": 0.16597205624999845
        },
        {
          "name": "F4",
          "midi": 65,
          "time": 61.33327199999973,
          "velocity": 0.6299212598425197,
          "duration": 0.3326385562499965
        },
        {
          "name": "F#4",
          "midi": 66,
          "time": 61.66660499999973,
          "velocity": 0.6299212598425197,
          "duration": 0.6659715562499997
        },
        {
          "name": "A#4",
          "midi": 70,
          "time": 61.66660499999973,
          "velocity": 0.6299212598425197,
          "duration": 0.6659715562499997
        },
        {
          "name": "A4",
          "midi": 69,
          "time": 62.333270999999726,
          "velocity": 0.6299212598425197,
          "duration": 0.16597205624999845
        },
        {
          "name": "A4",
          "midi": 69,
          "time": 62.499937499999724,
          "velocity": 0.6299212598425197,
          "duration": 0.16597205624999845
        },
        {
          "name": "A4",
          "midi": 69,
          "time": 62.66660399999972,
          "velocity": 0.6299212598425197,
          "duration": 0.3326385562499965
        },
        {
          "name": "F#4",
          "midi": 66,
          "time": 62.99993699999972,
          "velocity": 0.6299212598425197,
          "duration": 0.6659715562499997
        },
        {
          "name": "A#4",
          "midi": 70,
          "time": 62.99993699999972,
          "velocity": 0.6299212598425197,
          "duration": 0.6659715562499997
        },
        {
          "name": "C4",
          "midi": 60,
          "time": 63.66660299999972,
          "velocity": 0.6299212598425197,
          "duration": 0.16597205624999845
        },
        {
          "name": "C4",
          "midi": 60,
          "time": 63.833269499999716,
          "velocity": 0.6299212598425197,
          "duration": 0.16597205624999845
        },
        {
          "name": "F4",
          "midi": 65,
          "time": 63.999935999999714,
          "velocity": 0.6299212598425197,
          "duration": 0.3326385562499965
        },
        {
          "name": "A4",
          "midi": 69,
          "time": 64.33326899999972,
          "velocity": 0.6299212598425197,
          "duration": 0.3326385562500036
        },
        {
          "name": "C4",
          "midi": 60,
          "time": 64.66660199999973,
          "velocity": 0.6299212598425197,
          "duration": 0.3326385562500036
        },
        {
          "name": "C4",
          "midi": 60,
          "time": 64.99993499999974,
          "velocity": 0.6299212598425197,
          "duration": 0.3326385562500036
        },
        {
          "name": "C4",
          "midi": 60,
          "time": 65.33326799999975,
          "velocity": 0.6299212598425197,
          "duration": 0.3326385562500036
        },
        {
          "name": "C4",
          "midi": 60,
          "time": 65.66660099999976,
          "velocity": 0.6299212598425197,
          "duration": 0.3326385562500036
        },
        {
          "name": "E4",
          "midi": 64,
          "time": 65.99993399999977,
          "velocity": 0.6299212598425197,
          "duration": 0.3326385562500036
        },
        {
          "name": "E4",
          "midi": 64,
          "time": 66.33326699999978,
          "velocity": 0.6299212598425197,
          "duration": 0.3326385562500036
        },
        {
          "name": "E4",
          "midi": 64,
          "time": 66.66659999999979,
          "velocity": 0.6299212598425197,
          "duration": 0.3326385562500036
        },
        {
          "name": "E4",
          "midi": 64,
          "time": 66.9999329999998,
          "velocity": 0.6299212598425197,
          "duration": 0.3326385562500036
        },
        {
          "name": "F4",
          "midi": 65,
          "time": 67.33326599999981,
          "velocity": 0.6299212598425197,
          "duration": 0.3326385562500036
        },
        {
          "name": "F4",
          "midi": 65,
          "time": 67.66659899999982,
          "velocity": 0.6299212598425197,
          "duration": 0.3326385562500036
        },
        {
          "name": "A4",
          "midi": 69,
          "time": 67.99993199999983,
          "velocity": 0.6299212598425197,
          "duration": 0.16597205624999845
        },
        {
          "name": "A4",
          "midi": 69,
          "time": 68.16659849999984,
          "velocity": 0.6299212598425197,
          "duration": 0.16597205624999845
        },
        {
          "name": "A4",
          "midi": 69,
          "time": 68.33326499999984,
          "velocity": 0.6299212598425197,
          "duration": 0.16597205624999845
        },
        {
          "name": "A4",
          "midi": 69,
          "time": 68.49993149999985,
          "velocity": 0.6299212598425197,
          "duration": 0.16597205624999845
        },
        {
          "name": "A4",
          "midi": 69,
          "time": 68.66659799999985,
          "velocity": 0.6299212598425197,
          "duration": 0.16597205624999845
        },
        {
          "name": "A4",
          "midi": 69,
          "time": 68.83326449999986,
          "velocity": 0.6299212598425197,
          "duration": 0.16597205624999845
        },
        {
          "name": "A4",
          "midi": 69,
          "time": 68.99993099999986,
          "velocity": 0.6299212598425197,
          "duration": 0.16597205624999845
        },
        {
          "name": "A4",
          "midi": 69,
          "time": 69.16659749999987,
          "velocity": 0.6299212598425197,
          "duration": 0.16597205624999845
        },
        {
          "name": "F4",
          "midi": 65,
          "time": 69.33326399999987,
          "velocity": 0.6299212598425197,
          "duration": 0.3326385562500036
        },
        {
          "name": "F4",
          "midi": 65,
          "time": 69.66659699999988,
          "velocity": 0.6299212598425197,
          "duration": 0.3326385562500036
        },
        {
          "name": "A4",
          "midi": 69,
          "time": 69.99992999999989,
          "velocity": 0.6299212598425197,
          "duration": 0.16597205624999845
        },
        {
          "name": "F4",
          "midi": 65,
          "time": 70.1665964999999,
          "velocity": 0.6299212598425197,
          "duration": 0.49930505624999455
        },
        {
          "name": "F4",
          "midi": 65,
          "time": 70.6665959999999,
          "velocity": 0.6299212598425197,
          "duration": 0.16597205624999845
        },
        {
          "name": "C4",
          "midi": 60,
          "time": 70.8332624999999,
          "velocity": 0.6299212598425197,
          "duration": 0.49930505624999455
        },
        {
          "name": "A4",
          "midi": 69,
          "time": 71.3332619999999,
          "velocity": 0.6299212598425197,
          "duration": 0.16597205624999845
        },
        {
          "name": "F4",
          "midi": 65,
          "time": 71.49992849999991,
          "velocity": 0.6299212598425197,
          "duration": 0.49930505624999455
        },
        {
          "name": "F4",
          "midi": 65,
          "time": 71.99992799999991,
          "velocity": 0.6299212598425197,
          "duration": 0.16597205624999845
        },
        {
          "name": "C4",
          "midi": 60,
          "time": 72.16659449999992,
          "velocity": 0.6299212598425197,
          "duration": 0.49930505624999455
        },
        {
          "name": "A4",
          "midi": 69,
          "time": 72.66659399999992,
          "velocity": 0.6299212598425197,
          "duration": 0.16597205624999845
        },
        {
          "name": "F4",
          "midi": 65,
          "time": 72.83326049999992,
          "velocity": 0.6299212598425197,
          "duration": 0.49930505624999455
        },
        {
          "name": "F4",
          "midi": 65,
          "time": 73.33325999999992,
          "velocity": 0.6299212598425197,
          "duration": 0.16597205624999845
        },
        {
          "name": "C4",
          "midi": 60,
          "time": 73.49992649999993,
          "velocity": 0.6299212598425197,
          "duration": 0.49930505624999455
        },
        {
          "name": "A4",
          "midi": 69,
          "time": 73.99992599999993,
          "velocity": 0.6299212598425197,
          "duration": 0.16597205624999845
        },
        {
          "name": "F4",
          "midi": 65,
          "time": 74.16659249999994,
          "velocity": 0.6299212598425197,
          "duration": 0.49930505624999455
        },
        {
          "name": "F4",
          "midi": 65,
          "time": 74.66659199999994,
          "velocity": 0.6299212598425197,
          "duration": 0.16597205624999845
        },
        {
          "name": "C4",
          "midi": 60,
          "time": 74.83325849999994,
          "velocity": 0.6299212598425197,
          "duration": 0.49930505624999455
        },
        {
          "name": "A4",
          "midi": 69,
          "time": 75.33325799999994,
          "velocity": 0.6299212598425197,
          "duration": 0.16597205624999845
        },
        {
          "name": "F4",
          "midi": 65,
          "time": 75.49992449999995,
          "velocity": 0.6299212598425197,
          "duration": 0.49930505624999455
        },
        {
          "name": "F4",
          "midi": 65,
          "time": 75.99992399999995,
          "velocity": 0.6299212598425197,
          "duration": 0.16597205624999845
        },
        {
          "name": "C4",
          "midi": 60,
          "time": 76.16659049999996,
          "velocity": 0.6299212598425197,
          "duration": 0.49930505624999455
        },
        {
          "name": "A4",
          "midi": 69,
          "time": 76.66658999999996,
          "velocity": 0.6299212598425197,
          "duration": 0.16597205624999845
        },
        {
          "name": "F4",
          "midi": 65,
          "time": 76.83325649999996,
          "velocity": 0.6299212598425197,
          "duration": 0.49930505624999455
        },
        {
          "name": "F4",
          "midi": 65,
          "time": 77.33325599999996,
          "velocity": 0.6299212598425197,
          "duration": 0.16597205624999845
        },
        {
          "name": "C4",
          "midi": 60,
          "time": 77.49992249999997,
          "velocity": 0.6299212598425197,
          "duration": 0.49930505624999455
        },
        {
          "name": "A4",
          "midi": 69,
          "time": 77.99992199999997,
          "velocity": 0.6299212598425197,
          "duration": 0.16597205624999845
        },
        {
          "name": "F4",
          "midi": 65,
          "time": 78.16658849999997,
          "velocity": 0.6299212598425197,
          "duration": 0.49930505624999455
        },
        {
          "name": "F4",
          "midi": 65,
          "time": 78.66658799999998,
          "velocity": 0.6299212598425197,
          "duration": 0.16597205624999845
        },
        {
          "name": "C4",
          "midi": 60,
          "time": 78.83325449999998,
          "velocity": 0.6299212598425197,
          "duration": 0.49930505624999455
        },
        {
          "name": "A4",
          "midi": 69,
          "time": 79.33325399999998,
          "velocity": 0.6299212598425197,
          "duration": 0.16597205624999845
        },
        {
          "name": "F4",
          "midi": 65,
          "time": 79.49992049999999,
          "velocity": 0.6299212598425197,
          "duration": 0.49930505624999455
        },
        {
          "name": "F4",
          "midi": 65,
          "time": 79.99991999999999,
          "velocity": 0.6299212598425197,
          "duration": 0.16597205624999845
        },
        {
          "name": "C#4",
          "midi": 61,
          "time": 80.1665865,
          "velocity": 0.6299212598425197,
          "duration": 0.49930505624999455
        }
      ],
      "controlChanges": {
        "6": [
          {
            "number": 6,
            "time": 0,
            "value": 0.09448818897637795
          }
        ],
        "7": [
          {
            "number": 7,
            "time": 0,
            "value": 0.7874015748031497
          }
        ],
        "10": [
          {
            "number": 10,
            "time": 0,
            "value": 0.5039370078740157
          }
        ],
        "91": [
          {
            "number": 91,
            "time": 0,
            "value": 0
          }
        ],
        "93": [
          {
            "number": 93,
            "time": 0,
            "value": 0
          }
        ],
        "100": [
          {
            "number": 100,
            "time": 0,
            "value": 0
          },
          {
            "number": 100,
            "time": 0,
            "value": 1
          }
        ],
        "101": [
          {
            "number": 101,
            "time": 0,
            "value": 0
          },
          {
            "number": 101,
            "time": 0,
            "value": 1
          }
        ],
        "121": [
          {
            "number": 121,
            "time": 0,
            "value": 0
          }
        ]
      },
      "id": 0,
      "name": "Piano",
      "instrumentNumber": 0,
      "instrument": "acoustic grand piano",
      "instrumentFamily": "piano",
      "channelNumber": 0,
      "isPercussion": false
    },
    {
      "startTime": 0,
      "duration": 0,
      "length": 0,
      "notes": [],
      "controlChanges": {},
      "id": 1,
      "name": "Piano"
    }
  ]
}