{
  "header": {
    "PPQ": 480,
    "timeSignature": [
      4,
      4
    ],
    "bpm": 180.00018000018,
    "name": "Piano"
  },
  "tempo": [
    {
      "absoluteTime": 0,
      "seconds": 0,
      "bpm": 180.00018000018
    }
  ],
  "timeSignature": [
    {
      "absoluteTime": 0,
      "seconds": 0,
      "numerator": 4,
      "denominator": 2,
      "click": 24,
      "notesQ": 8
    }
  ],
  "startTime": 0,
  "duration": 79.99922555624998,
  "tracks": [
    {
      "startTime": 0.333333,
      "duration": 79.99922555624998,
      "length": 271,
      "notes": [
        {
          "name": "C4",
          "midi": 60,
          "time": 0.333333,
          "velocity": 0.6299212598425197,
          "duration": 0.33263855624999994
        },
        {
          "name": "E4",
          "midi": 64,
          "time": 0.333333,
          "velocity": 0.6299212598425197,
          "duration": 0.33263855624999994
        },
        {
          "name": "C4",
          "midi": 60,
          "time": 0.666666,
          "velocity": 0.6299212598425197,
          "duration": 0.33263855625000005
        },
        {
          "name": "E4",
          "midi": 64,
          "time": 0.666666,
          "velocity": 0.6299212598425197,
          "duration": 0.33263855625000005
        },
        {
          "name": "F4",
          "midi": 65,
          "time": 1.333332,
          "velocity": 0.6299212598425197,
          "duration": 0.33263855625000005
        },
        {
          "name": "A4",
          "midi": 69,
          "time": 1.333332,
          "velocity": 0.6299212598425197,
          "duration": 0.33263855625000005
        },
        {
          "name": "F4",
          "midi": 65,
          "time": 1.666665,
          "velocity": 0.6299212598425197,
          "duration": 0.33263855625000005
        },
        {
          "name": "A4",
          "midi": 69,
          "time": 1.666665,
          "velocity": 0.6299212598425197,
          "duration": 0.33263855625000005
        },
        {
          "name": "C4",
          "midi": 60,
          "time": 2.999997,
          "velocity": 0.6299212598425197,
          "duration": 0.33263855625000005
        },
        {
          "name": "E4",
          "midi": 64,
          "time": 2.999997,
          "velocity": 0.6299212598425197,
          "duration": 0.33263855625000005
        },
        {
          "name": "C4",
          "midi": 60,
          "time": 3.33333,
          "velocity": 0.6299212598425197,
          "duration": 0.33263855625000005
        },
        {
          "name": "E4",
          "midi": 64,
          "time": 3.33333,
          "velocity": 0.6299212598425197,
          "duration": 0.33263855625000005
        },
        {
          "name": "F4",
          "midi": 65,
          "time": 3.9999960000000003,
          "velocity": 0.6299212598425197,
          "duration": 0.33263855625000005
        },
        {
          "name": "A4",
          "midi": 69,
          "time": 3.9999960000000003,
          "velocity": 0.6299212598425197,
          "duration": 0.33263855625000005
        },
        {
          "name": "F4",
          "midi": 65,
          "time": 4.333329,
          "velocity": 0.6299212598425197,
          "duration": 0.33263855625000005
        },
        {
          "name": "A4",
          "midi": 69,
          "time": 4.333329,
          "velocity": 0.6299212598425197,
          "duration": 0.33263855625000005
        },
        {
          "name": "F4",
          "midi": 65,
          "time": 5.6666609999999995,
          "velocity": 0.6299212598425197,
          "duration": 0.33263855625000005
        },
        {
          "name": "A4",
          "midi": 69,
          "time": 5.6666609999999995,
          "velocity": 0.6299212598425197,
          "duration": 0.33263855625000005
        },
        {
          "name": "F4",
          "midi": 65,
          "time": 5.999993999999999,
          "velocity": 0.6299212598425197,
          "duration": 0.33263855625000005
        },
        {
          "name": "A4",
          "midi": 69,
          "time": 5.999993999999999,
          "velocity": 0.6299212598425197,
          "duration": 0.33263855625000005
        },
        {
          "name": "C4",
          "midi": 60,
          "time": 6.666659999999999,
          "velocity": 0.6299212598425197,
          "duration": 0.33263855625000005
        },
        {
          "name": "E4",
          "midi": 64,
          "time": 6.666659999999999,
          "velocity": 0.6299212598425197,
          "duration": 0.33263855625000005
        },
        {
          "name": "C4",
          "midi": 60,
          "time": 6.999992999999999,
          "velocity": 0.6299212598425197,
          "duration": 0.33263855625000005
        },
        {
          "name": "E4",
          "midi": 64,
          "time": 6.999992999999999,
          "velocity": 0.6299212598425197,
          "duration": 0.33263855625000005
        },
        {
          "name": "F4",
          "midi": 65,
          "time": 8.333324999999999,
          "velocity": 0.6299212598425197,
          "duration": 0.33263855625000005
        },
        {
          "name": "A4",
          "midi": 69,
          "time": 8.333324999999999,
          "velocity": 0.6299212598425197,
          "duration": 0.33263855625000005
        },
        {
          "name": "F4",
          "midi": 65,
          "time": 8.666657999999998,
          "velocity": 0.6299212598425197,
          "duration": 0.33263855625000005
        },
        {
          "name": "A4",
          "midi": 69,
          "time": 8.666657999999998,
          "velocity": 0.6299212598425197,
          "duration": 0.33263855625000005
        },
        {
          "name": "C4",
          "midi": 60,
          "time": 9.333323999999998,
          "velocity": 0.6299212598425197,
          "duration": 0.33263855625000005
        },
        {
          "name": "E4",
          "midi": 64,
          "time": 9.333323999999998,
          "velocity": 0.6299212598425197,
          "duration": 0.33263855625000005
        },
        {
          "name": "C4",
          "midi": 60,
          "time": 9.666656999999997,
          "velocity": 0.6299212598425197,
          "duration": 0.33263855625000005
        },
        {
          "name": "E4",
          "midi": 64,
          "time": 9.666656999999997,
          "velocity": 0.6299212598425197,
          "duration": 0.33263855625000005
        },
        {
          "name": "A4",
          "midi": 69,
          "time": 10.666655999999998,
          "velocity": 0.6299212598425197,
          "duration": 0.16597205625000022
        },
        {
          "name": "A4",
          "midi": 69,
          "time": 10.833322499999998,
          "velocity": 0.6299212598425197,
          "duration": 0.16597205625000022
        },
        {
          "name": "F4",
          "midi": 65,
          "time": 10.999988999999998,
          "velocity": 0.6299212598425197,
          "duration": 0.33263855625000005
        },
        {
          "name": "A4",
          "midi": 69,
          "time": 11.333321999999997,
          "velocity": 0.6299212598425197,
          "duration": 0.16597205625000022
        },
        {
          "name": "F4",
          "midi": 65,
          "time": 11.499988499999997,
          "velocity": 0.6299212598425197,
          "duration": 0.33263855625000005
        },
        {
          "name": "A4",
          "midi": 69,
          "time": 11.833321499999997,
          "velocity": 0.6299212598425197,
          "duration": 0.16597205625000022
        },
        {
          "name": "F4",
          "midi": 65,
          "time": 11.999987999999997,
          "velocity": 0.6299212598425197,
          "duration": 0.33263855625000005
        },
        {
          "name": "F4",
          "midi": 65,
          "time": 12.333320999999996,
          "velocity": 0.6299212598425197,
          "duration": 0.33263855625000005
        },
        {
          "name": "C4",
          "midi": 60,
          "time": 12.666653999999996,
          "velocity": 0.6299212598425197,
          "duration": 0.33263855625000005
        },
        {
          "name": "A4",
          "midi": 69,
          "time": 12.666653999999996,
          "velocity": 0.6299212598425197,
          "duration": 0.33263855625000005
        },
        {
          "name": "E4",
          "midi": 64,
          "time": 12.999986999999996,
          "velocity": 0.6299212598425197,
          "duration": 0.16597205625000022
        },
        {
          "name": "E4",
          "midi": 64,
          "time": 13.166653499999995,
          "velocity": 0.6299212598425197,
          "duration": 0.16597205625000022
        },
        {
          "name": "C4",
          "midi": 60,
          "time": 13.333319999999995,
          "velocity": 0.6299212598425197,
          "duration": 0.16597205625000022
        },
        {
          "name": "F4",
          "midi": 65,
          "time": 13.333319999999995,
          "velocity": 0.6299212598425197,
          "duration": 0.16597205625000022
        },
        {
          "name": "C4",
          "midi": 60,
          "time": 13.499986499999995,
          "velocity": 0.6299212598425197,
          "duration": 0.16597205625000022
        },
        {
          "name": "E4",
          "midi": 64,
          "time": 13.666652999999995,
          "velocity": 0.6299212598425197,
          "duration": 0.33263855625000005
        },
        {
          "name": "C4",
          "midi": 60,
          "time": 13.999985999999994,
          "velocity": 0.6299212598425197,
          "duration": 0.16597205625000022
        },
        {
          "name": "E4",
          "midi": 64,
          "time": 14.166652499999994,
          "velocity": 0.6299212598425197,
          "duration": 0.33263855625000005
        },
        {
          "name": "C4",
          "midi": 60,
          "time": 14.499985499999994,
          "velocity": 0.6299212598425197,
          "duration": 0.16597205625000022
        },
        {
          "name": "A4",
          "midi": 69,
          "time": 14.666651999999994,
          "velocity": 0.6299212598425197,
          "duration": 0.33263855625000005
        },
        {
          "name": "A4",
          "midi": 69,
          "time": 14.999984999999993,
          "velocity": 0.6299212598425197,
          "duration": 0.33263855625000005
        },
        {
          "name": "F4",
          "midi": 65,
          "time": 15.333317999999993,
          "velocity": 0.6299212598425197,
          "duration": 0.33263855625000005
        },
        {
          "name": "F4",
          "midi": 65,
          "time": 15.666650999999993,
          "velocity": 0.6299212598425197,
          "duration": 0.16597205625000022
        },
        {
          "name": "F4",
          "midi": 65,
          "time": 15.833317499999993,
          "velocity": 0.6299212598425197,
          "duration": 0.16597205625000022
        },
        {
          "name": "E4",
          "midi": 64,
          "time": 15.999983999999992,
          "velocity": 0.6299212598425197,
          "duration": 0.16597205625000022
        },
        {
          "name": "A4",
          "midi": 69,
          "time": 15.999983999999992,
          "velocity": 0.6299212598425197,
          "duration": 0.16597205625000022
        },
        {
          "name": "A4",
          "midi": 69,
          "time": 16.166650499999992,
          "velocity": 0.6299212598425197,
          "duration": 0.16597205624999845
        },
        {
          "name": "F4",
          "midi": 65,
          "time": 16.33331699999999,
          "velocity": 0.6299212598425197,
          "duration": 0.33263855625000005
        },
        {
          "name": "A4",
          "midi": 69,
          "time": 16.66664999999999,
          "velocity": 0.6299212598425197,
          "duration": 0.16597205624999845
        },
        {
          "name": "F4",
          "midi": 65,
          "time": 16.833316499999988,
          "velocity": 0.6299212598425197,
          "duration": 0.33263855625000005
        },
        {
          "name": "A4",
          "midi": 69,
          "time": 17.166649499999988,
          "velocity": 0.6299212598425197,
          "duration": 0.16597205624999845
        },
        {
          "name": "F4",
          "midi": 65,
          "time": 17.333315999999986,
          "velocity": 0.6299212598425197,
          "duration": 0.33263855625000005
        },
        {
          "name": "A4",
          "midi": 69,
          "time": 17.666648999999985,
          "velocity": 0.6299212598425197,
          "duration": 0.16597205624999845
        },
        {
          "name": "F4",
          "midi": 65,
          "time": 17.833315499999983,
          "velocity": 0.6299212598425197,
          "duration": 0.33263855625000005
        },
        {
          "name": "A4",
          "midi": 69,
          "time": 17.833315499999983,
          "velocity": 0.6299212598425197,
          "duration": 0.33263855625000005
        },
        {
          "name": "E4",
          "midi": 64,
          "time": 18.166648499999983,
          "velocity": 0.6299212598425197,
          "duration": 0.33263855625000005
        },
        {
          "name": "F4",
          "midi": 65,
          "time": 18.499981499999983,
          "velocity": 0.6299212598425197,
          "duration": 0.16597205624999845
        },
        {
          "name": "C4",
          "midi": 60,
          "time": 18.66664799999998,
          "velocity": 0.6299212598425197,
          "duration": 0.16597205624999845
        },
        {
          "name": "F4",
          "midi": 65,
          "time": 18.66664799999998,
          "velocity": 0.6299212598425197,
          "duration": 0.16597205624999845
        },
        {
          "name": "A4",
          "midi": 69,
          "time": 18.83331449999998,
          "velocity": 0.6299212598425197,
          "duration": 0.33263855625000005
        },
        {
          "name": "F4",
          "midi": 65,
          "time": 19.16664749999998,
          "velocity": 0.6299212598425197,
          "duration": 0.49930505625000166
        },
        {
          "name": "E4",
          "midi": 64,
          "time": 19.66664699999998,
          "velocity": 0.6299212598425197,
          "duration": 0.49930505625000166
        },
        {
          "name": "A4",
          "midi": 69,
          "time": 20.16664649999998,
          "velocity": 0.6299212598425197,
          "duration": 0.49930505625000166
        },
        {
          "name": "C4",
          "midi": 60,
          "time": 20.666645999999982,
          "velocity": 0.6299212598425197,
          "duration": 0.33263855625000005
        },
        {
          "name": "F4",
          "midi": 65,
          "time": 20.666645999999982,
          "velocity": 0.6299212598425197,
          "duration": 0.33263855625000005
        },
        {
          "name": "E4",
          "midi": 64,
          "time": 20.999978999999982,
          "velocity": 0.6299212598425197,
          "duration": 0.33263855625000005
        },
        {
          "name": "A4",
          "midi": 69,
          "time": 20.999978999999982,
          "velocity": 0.6299212598425197,
          "duration": 0.33263855625000005
        },
        {
          "name": "C4",
          "midi": 60,
          "time": 21.33331199999998,
          "velocity": 0.6299212598425197,
          "duration": 0.16597205624999845
        },
        {
          "name": "C4",
          "midi": 60,
          "time": 21.49997849999998,
          "velocity": 0.6299212598425197,
          "duration": 0.16597205624999845
        },
        {
          "name": "A4",
          "midi": 69,
          "time": 21.666644999999978,
          "velocity": 0.6299212598425197,
          "duration": 0.33263855625000005
        },
        {
          "name": "E4",
          "midi": 64,
          "time": 21.999977999999977,
          "velocity": 0.6299212598425197,
          "duration": 0.16597205624999845
        },
        {
          "name": "F4",
          "midi": 65,
          "time": 22.166644499999975,
          "velocity": 0.6299212598425197,
          "duration": 0.33263855625000005
        },
        {
          "name": "C4",
          "midi": 60,
          "time": 22.499977499999975,
          "velocity": 0.6299212598425197,
          "duration": 0.16597205624999845
        },
        {
          "name": "E4",
          "midi": 64,
          "time": 22.666643999999973,
          "velocity": 0.6299212598425197,
          "duration": 0.33263855625000005
        },
        {
          "name": "C4",
          "midi": 60,
          "time": 22.999976999999973,
          "velocity": 0.6299212598425197,
          "duration": 0.49930505625000166
        },
        {
          "name": "E4",
          "midi": 64,
          "time": 22.999976999999973,
          "velocity": 0.6299212598425197,
          "duration": 0.49930505625000166
        },
        {
          "name": "F4",
          "midi": 65,
          "time": 23.499976499999974,
          "velocity": 0.6299212598425197,
          "duration": 0.49930505625000166
        },
        {
          "name": "A4",
          "midi": 69,
          "time": 23.499976499999974,
          "velocity": 0.6299212598425197,
          "duration": 0.49930505625000166
        },
        {
          "name": "C4",
          "midi": 60,
          "time": 23.999975999999975,
          "velocity": 0.6299212598425197,
          "duration": 0.16597205624999845
        },
        {
          "name": "C4",
          "midi": 60,
          "time": 24.166642499999973,
          "velocity": 0.6299212598425197,
          "duration": 0.16597205624999845
        },
        {
          "name": "A4",
          "midi": 69,
          "time": 24.33330899999997,
          "velocity": 0.6299212598425197,
          "duration": 0.33263855625000005
        },
        {
          "name": "E4",
          "midi": 64,
          "time": 24.66664199999997,
          "velocity": 0.6299212598425197,
          "duration": 0.16597205624999845
        },
        {
          "name": "F4",
          "midi": 65,
          "time": 24.83330849999997,
          "velocity": 0.6299212598425197,
          "duration": 0.33263855625000005
        },
        {
          "name": "C4",
          "midi": 60,
          "time": 25.16664149999997,
          "velocity": 0.6299212598425197,
          "duration": 0.16597205624999845
        },
        {
          "name": "E4",
          "midi": 64,
          "time": 25.333307999999967,
          "velocity": 0.6299212598425197,
          "duration": 0.33263855625000005
        },
        {
          "name": "F4",
          "midi": 65,
          "time": 25.999973999999966,
          "velocity": 0.6299212598425197,
          "duration": 0.16597205624999845
        },
        {
          "name": "F4",
          "midi": 65,
          "time": 26.166640499999964,
          "velocity": 0.6299212598425197,
          "duration": 0.33263855625000005
        },
        {
          "name": "F4",
          "midi": 65,
          "time": 26.499973499999964,
          "velocity": 0.6299212598425197,
          "duration": 0.16597205624999845
        },
        {
          "name": "C4",
          "midi": 60,
          "time": 26.666639999999962,
          "velocity": 0.6299212598425197,
          "duration": 0.16597205624999845
        },
        {
          "name": "C4",
          "midi": 60,
          "time": 26.83330649999996,
          "velocity": 0.6299212598425197,
          "duration": 0.16597205624999845
        },
        {
          "name": "A4",
          "midi": 69,
          "time": 26.999972999999958,
          "velocity": 0.6299212598425197,
          "duration": 0.33263855625000005
        },
        {
          "name": "E4",
          "midi": 64,
          "time": 27.333305999999958,
          "velocity": 0.6299212598425197,
          "duration": 0.16597205624999845
        },
        {
          "name": "F4",
          "midi": 65,
          "time": 27.499972499999956,
          "velocity": 0.6299212598425197,
          "duration": 0.33263855625000005
        },
        {
          "name": "C4",
          "midi": 60,
          "time": 27.833305499999955,
          "velocity": 0.6299212598425197,
          "duration": 0.16597205624999845
        },
        {
          "name": "E4",
          "midi": 64,
          "time": 27.999971999999953,
          "velocity": 0.6299212598425197,
          "duration": 0.33263855625000005
        },
        {
          "name": "F4",
          "midi": 65,
          "time": 28.333304999999953,
          "velocity": 0.6299212598425197,
          "duration": 0.49930505625000166
        },
        {
          "name": "A4",
          "midi": 69,
          "time": 28.833304499999954,
          "velocity": 0.6299212598425197,
          "duration": 0.49930505625000166
        },
        {
          "name": "A#4",
          "midi": 70,
          "time": 29.333303999999956,
          "velocity": 0.6299212598425197,
          "duration": 0.6659715562499997
        },
        {
          "name": "F4",
          "midi": 65,
          "time": 29.999969999999955,
          "velocity": 0.6299212598425197,
          "duration": 0.33263855625000005
        },
        {
          "name": "E4",
          "midi": 64,
          "time": 30.333302999999955,
          "velocity": 0.6299212598425197,
          "duration": 0.16597205624999845
        },
        {
          "name": "E4",
          "midi": 64,
          "time": 30.499969499999953,
          "velocity": 0.6299212598425197,
          "duration": 0.16597205624999845
        },
        {
          "name": "C#4",
          "midi": 61,
          "time": 30.66663599999995,
          "velocity": 0.6299212598425197,
          "duration": 0.6659715562499997
        },
        {
          "name": "F4",
          "midi": 65,
          "time": 31.33330199999995,
          "velocity": 0.6299212598425197,
          "duration": 0.33263855625000005
        },
        {
          "name": "A4",
          "midi": 69,
          "time": 31.66663499999995,
          "velocity": 0.6299212598425197,
          "duration": 0.33263855625000005
        },
        {
          "name": "C4",
          "midi": 60,
          "time": 33.33329999999995,
          "velocity": 0.6299212598425197,
          "duration": 0.16597205624999845
        },
        {
          "name": "E4",
          "midi": 64,
          "time": 33.49996649999995,
          "velocity": 0.6299212598425197,
          "duration": 0.3326385562499965
        },
        {
          "name": "F4",
          "midi": 65,
          "time": 33.833299499999946,
          "velocity": 0.6299212598425197,
          "duration": 0.16597205624999845
        },
        {
          "name": "D4",
          "midi": 62,
          "time": 33.999965999999944,
          "velocity": 0.6299212598425197,
          "duration": 0.3326385562499965
        },
        {
          "name": "A4",
          "midi": 69,
          "time": 34.33329899999994,
          "velocity": 0.6299212598425197,
          "duration": 0.16597205624999845
        },
        {
          "name": "F4",
          "midi": 65,
          "time": 34.49996549999994,
          "velocity": 0.6299212598425197,
          "duration": 0.6659715562499997
        },
        {
          "name": "C4",
          "midi": 60,
          "time": 35.999963999999935,
          "velocity": 0.6299212598425197,
          "duration": 0.16597205624999845
        },
        {
          "name": "E4",
          "midi": 64,
          "time": 36.16663049999993,
          "velocity": 0.6299212598425197,
          "duration": 0.3326385562499965
        },
        {
          "name": "F4",
          "midi": 65,
          "time": 36.49996349999993,
          "velocity": 0.6299212598425197,
          "duration": 0.16597205624999845
        },
        {
          "name": "D4",
          "midi": 62,
          "time": 36.66662999999993,
          "velocity": 0.6299212598425197,
          "duration": 0.3326385562499965
        },
        {
          "name": "A4",
          "midi": 69,
          "time": 36.99996299999992,
          "velocity": 0.6299212598425197,
          "duration": 0.16597205624999845
        },
        {
          "name": "F4",
          "midi": 65,
          "time": 37.16662949999992,
          "velocity": 0.6299212598425197,
          "duration": 0.16597205624999845
        },
        {
          "name": "E4",
          "midi": 64,
          "time": 37.33329599999992,
          "velocity": 0.6299212598425197,
          "duration": 0.49930505625000166
        },
        {
          "name": "F4",
          "midi": 65,
          "time": 37.33329599999992,
          "velocity": 0.6299212598425197,
          "duration": 0.49930505625000166
        },
        {
          "name": "A4",
          "midi": 69,
          "time": 37.83329549999992,
          "velocity": 0.6299212598425197,
          "duration": 0.16597205624999845
        },
        {
          "name": "C4",
          "midi": 60,
          "time": 37.99996199999992,
          "velocity": 0.6299212598425197,
          "duration": 0.3326385562499965
        },
        {
          "name": "A4",
          "midi": 69,
          "time": 37.99996199999992,
          "velocity": 0.6299212598425197,
          "duration": 0.3326385562499965
        },
        {
          "name": "E4",
          "midi": 64,
          "time": 38.333294999999914,
          "velocity": 0.6299212598425197,
          "duration": 0.16597205624999845
        },
        {
          "name": "F4",
          "midi": 65,
          "time": 38.49996149999991,
          "velocity": 0.6299212598425197,
          "duration": 0.3326385562499965
        },
        {
          "name": "A4",
          "midi": 69,
          "time": 38.83329449999991,
          "velocity": 0.6299212598425197,
          "duration": 0.3326385562499965
        },
        {
          "name": "A4",
          "midi": 69,
          "time": 39.166627499999905,
          "velocity": 0.6299212598425197,
          "duration": 0.16597205624999845
        },
        {
          "name": "C4",
          "midi": 60,
          "time": 39.3332939999999,
          "velocity": 0.6299212598425197,
          "duration": 0.16597205624999845
        },
        {
          "name": "C4",
          "midi": 60,
          "time": 39.4999604999999,
          "velocity": 0.6299212598425197,
          "duration": 0.16597205624999845
        },
        {
          "name": "C4",
          "midi": 60,
          "time": 39.6666269999999,
          "velocity": 0.6299212598425197,
          "duration": 0.3326385562499965
        },
        {
          "name": "E4",
          "midi": 64,
          "time": 39.999959999999895,
          "velocity": 0.6299212598425197,
          "duration": 0.16597205624999845
        },
        {
          "name": "E4",
          "midi": 64,
          "time": 40.16662649999989,
          "velocity": 0.6299212598425197,
          "duration": 0.16597205624999845
        },
        {
          "name": "E4",
          "midi": 64,
          "time": 40.33329299999989,
          "velocity": 0.6299212598425197,
          "duration": 0.3326385562499965
        },
        {
          "name": "C4",
          "midi": 60,
          "time": 40.66662599999989,
          "velocity": 0.6299212598425197,
          "duration": 0.16597205624999845
        },
        {
          "name": "C4",
          "midi": 60,
          "time": 40.833292499999885,
          "velocity": 0.6299212598425197,
          "duration": 0.16597205624999845
        },
        {
          "name": "C4",
          "midi": 60,
          "time": 40.99995899999988,
          "velocity": 0.6299212598425197,
          "duration": 0.3326385562499965
        },
        {
          "name": "E4",
          "midi": 64,
          "time": 41.33329199999988,
          "velocity": 0.6299212598425197,
          "duration": 0.3326385562499965
        },
        {
          "name": "C4",
          "midi": 60,
          "time": 41.666624999999875,
          "velocity": 0.6299212598425197,
          "duration": 0.3326385562499965
        },
        {
          "name": "E4",
          "midi": 64,
          "time": 41.99995799999987,
          "velocity": 0.6299212598425197,
          "duration": 0.6659715562499997
        },
        {
          "name": "F4",
          "midi": 65,
          "time": 43.66662299999987,
          "velocity": 0.6299212598425197,
          "duration": 0.3326385562499965
        },
        {
          "name": "A4",
          "midi": 69,
          "time": 43.99995599999987,
          "velocity": 0.6299212598425197,
          "duration": 0.3326385562499965
        },
        {
          "name": "F4",
          "midi": 65,
          "time": 44.333288999999866,
          "velocity": 0.6299212598425197,
          "duration": 0.3326385562499965
        },
        {
          "name": "A4",
          "midi": 69,
          "time": 44.66662199999986,
          "velocity": 0.6299212598425197,
          "duration": 0.3326385562499965
        },
        {
          "name": "F4",
          "midi": 65,
          "time": 44.99995499999986,
          "velocity": 0.6299212598425197,
          "duration": 0.3326385562499965
        },
        {
          "name": "A4",
          "midi": 69,
          "time": 45.333287999999854,
          "velocity": 0.6299212598425197,
          "duration": 0.3326385562499965
        },
        {
          "name": "F#4",
          "midi": 66,
          "time": 45.66662099999985,
          "velocity": 0.6299212598425197,
          "duration": 0.9993045562500029
        },
        {
          "name": "A#4",
          "midi": 70,
          "time": 45.66662099999985,
          "velocity": 0.6299212598425197,
          "duration": 0.9993045562500029
        },
        {
          "name": "C4",
          "midi": 60,
          "time": 46.999952999999856,
          "velocity": 0.6299212598425197,
          "duration": 0.16597205624999845
        },
        {
          "name": "C4",
          "midi": 60,
          "time": 47.166619499999854,
          "velocity": 0.6299212598425197,
          "duration": 0.16597205624999845
        },
        {
          "name": "C4",
          "midi": 60,
          "time": 47.33328599999985,
          "velocity": 0.6299212598425197,
          "duration": 0.3326385562499965
        },
        {
          "name": "C#4",
          "midi": 61,
          "time": 47.66661899999985,
          "velocity": 0.6299212598425197,
          "duration": 0.6659715562499997
        },
        {
          "name": "F4",
          "midi": 65,
          "time": 47.66661899999985,
          "velocity": 0.6299212598425197,
          "duration": 0.6659715562499997
        },
        {
          "name": "E4",
          "midi": 64,
          "time": 48.33328499999985,
          "velocity": 0.6299212598425197,
          "duration": 0.16597205624999845
        },
        {
          "name": "E4",
          "midi": 64,
          "time": 48.499951499999845,
          "velocity": 0.6299212598425197,
          "duration": 0.16597205624999845
        },
        {
          "name": "E4",
          "midi": 64,
          "time": 48.66661799999984,
          "velocity": 0.6299212598425197,
          "duration": 0.3326385562499965
        },
        {
          "name": "C#4",
          "midi": 61,
          "time": 48.99995099999984,
          "velocity": 0.6299212598425197,
          "duration": 0.6659715562499997
        },
        {
          "name": "F4",
          "midi": 65,
          "time": 48.99995099999984,
          "velocity": 0.6299212598425197,
          "duration": 0.6659715562499997
        },
        {
          "name": "F4",
          "midi": 65,
          "time": 49.66661699999984,
          "velocity": 0.6299212598425197,
          "duration": 0.16597205624999845
        },
        {
          "name": "F4",
          "midi": 65,
          "time": 49.83328349999984,
          "velocity": 0.6299212598425197,
          "duration": 0.16597205624999845
        },
        {
          "name": "F4",
          "midi": 65,
          "time": 49.999949999999835,
          "velocity": 0.6299212598425197,
          "duration": 0.3326385562499965
        },
        {
          "name": "F#4",
          "midi": 66,
          "time": 50.33328299999983,
          "velocity": 0.6299212598425197,
          "duration": 0.6659715562499997
        },
        {
          "name": "A#4",
          "midi": 70,
          "time": 50.33328299999983,
          "velocity": 0.6299212598425197,
          "duration": 0.6659715562499997
        },
        {
          "name": "A4",
          "midi": 69,
          "time": 50.99994899999983,
          "velocity": 0.6299212598425197,
          "duration": 0.16597205624999845
        },
        {
          "name": "A4",
          "midi": 69,
          "time": 51.16661549999983,
          "velocity": 0.6299212598425197,
          "duration": 0.16597205624999845
        },
        {
          "name": "A4",
          "midi": 69,
          "time": 51.333281999999826,
          "velocity": 0.6299212598425197,
          "duration": 0.3326385562499965
        },
        {
          "name": "F#4",
          "midi": 66,
          "time": 51.66661499999982,
          "velocity": 0.6299212598425197,
          "duration": 0.6659715562499997
        },
        {
          "name": "A#4",
          "midi": 70,
          "time": 51.66661499999982,
          "velocity": 0.6299212598425197,
          "duration": 0.6659715562499997
        },
        {
          "name": "C4",
          "midi": 60,
          "time": 52.33328099999982,
          "velocity": 0.6299212598425197,
          "duration": 0.16597205624999845
        },
        {
          "name": "C4",
          "midi": 60,
          "time": 52.49994749999982,
          "velocity": 0.6299212598425197,
          "duration": 0.16597205624999845
        },
        {
          "name": "F4",
          "midi": 65,
          "time": 52.66661399999982,
          "velocity": 0.6299212598425197,
          "duration": 0.3326385562499965
        },
        {
          "name": "A4",
          "midi": 69,
          "time": 52.999946999999814,
          "velocity": 0.6299212598425197,
          "duration": 0.3326385562499965
        },
        {
          "name": "C4",
          "midi": 60,
          "time": 53.33327999999981,
          "velocity": 0.6299212598425197,
          "duration": 0.3326385562499965
        },
        {
          "name": "C4",
          "midi": 60,
          "time": 53.666612999999806,
          "velocity": 0.6299212598425197,
          "duration": 0.3326385562499965
        },
        {
          "name": "C4",
          "midi": 60,
          "time": 53.9999459999998,
          "velocity": 0.6299212598425197,
          "duration": 0.3326385562499965
        },
        {
          "name": "C4",
          "midi": 60,
          "time": 54.3332789999998,
          "velocity": 0.6299212598425197,
          "duration": 0.3326385562499965
        },
        {
          "name": "E4",
          "midi": 64,
          "time": 54.666611999999795,
          "velocity": 0.6299212598425197,
          "duration": 0.3326385562499965
        },
        {
          "name": "E4",
          "midi": 64,
          "time": 54.99994499999979,
          "velocity": 0.6299212598425197,
          "duration": 0.3326385562499965
        },
        {
          "name": "E4",
          "midi": 64,
          "time": 55.33327799999979,
          "velocity": 0.6299212598425197,
          "duration": 0.3326385562499965
        },
        {
          "name": "E4",
          "midi": 64,
          "time": 55.66661099999978,
          "velocity": 0.6299212598425197,
          "duration": 0.3326385562499965
        },
        {
          "name": "F4",
          "midi": 65,
          "time": 55.99994399999978,
          "velocity": 0.6299212598425197,
          "duration": 0.3326385562499965
        },
        {
          "name": "F4",
          "midi": 65,
          "time": 56.333276999999775,
          "velocity": 0.6299212598425197,
          "duration": 0.3326385562499965
        },
        {
          "name": "A4",
          "midi": 69,
          "time": 56.66660999999977,
          "velocity": 0.6299212598425197,
          "duration": 0.16597205624999845
        },
        {
          "name": "A4",
          "midi": 69,
          "time": 56.83327649999977,
          "velocity": 0.6299212598425197,
          "duration": 0.16597205624999845
        },
        {
          "name": "A4",
          "midi": 69,
          "time": 56.99994299999977,
          "velocity": 0.6299212598425197,
          "duration": 0.16597205624999845
        },
        {
          "name": "A4",
          "midi": 69,
          "time": 57.166609499999765,
          "velocity": 0.6299212598425197,
          "duration": 0.16597205624999845
        },
        {
          "name": "C4",
          "midi": 60,
          "time": 57.66660899999977,
          "velocity": 0.6299212598425197,
          "duration": 0.16597205624999845
        },
        {
          "name": "C4",
          "midi": 60,
          "time": 57.833275499999765,
          "velocity": 0.6299212598425197,
          "duration": 0.16597205624999845
        },
        {
          "name": "C4",
          "midi": 60,
          "time": 57.99994199999976,
          "velocity": 0.6299212598425197,
          "duration": 0.3326385562499965
        },
        {
          "name": "C#4",
          "midi": 61,
          "time": 58.33327499999976,
          "velocity": 0.6299212598425197,
          "duration": 0.6659715562499997
        },
        {
          "name": "F4",
          "midi": 65,
          "time": 58.33327499999976,
          "velocity": 0.6299212598425197,
          "duration": 0.6659715562499997
        },
        {
          "name": "E4",
          "midi": 64,
          "time": 58.99994099999976,
          "velocity": 0.6299212598425197,
          "duration": 0.16597205624999845
        },
        {
          "name": "E4",
          "midi": 64,
          "time": 59.166607499999756,
          "velocity": 0.6299212598425197,
          "duration": 0.16597205624999845
        },
        {
          "name": "E4",
          "midi": 64,
          "time": 59.333273999999754,
          "velocity": 0.6299212598425197,
          "duration": 0.3326385562499965
        },
        {
          "name": "C#4",
          "midi": 61,
          "time": 59.66660699999975,
          "velocity": 0.6299212598425197,
          "duration": 0.6659715562499997
        },
        {
          "name": "F4",
          "midi": 65,
          "time": 59.66660699999975,
          "velocity": 0.6299212598425197,
          "duration": 0.6659715562499997
        },
        {
          "name": "F4",
          "midi": 65,
          "time": 60.33327299999975,
          "velocity": 0.6299212598425197,
          "duration": 0.16597205624999845
        },
        {
          "name": "F4",
          "midi": 65,
          "time": 60.49993949999975,
          "velocity": 0.6299212598425197,
          "duration": 0.16597205624999845
        },
        {
          "name": "F4",
          "midi": 65,
          "time": 60.666605999999746,
          "velocity": 0.6299212598425197,
          "duration": 0.3326385562499965
        },
        {
          "name": "F#4",
          "midi": 66,
          "time": 60.99993899999974,
          "velocity": 0.6299212598425197,
          "duration": 0.6659715562499997
        },
        {
          "name": "A#4",
          "midi": 70,
          "time": 60.99993899999974,
          "velocity": 0.6299212598425197,
          "duration": 0.6659715562499997
        },
        {
          "name": "A4",
          "midi": 69,
          "time": 61.66660499999974,
          "velocity": 0.6299212598425197,
          "duration": 0.16597205624999845
        },
        {
          "name": "A4",
          "midi": 69,
          "time": 61.83327149999974,
          "velocity": 0.6299212598425197,
          "duration": 0.16597205624999845
        },
        {
          "name": "A4",
          "midi": 69,
          "time": 61.99993799999974,
          "velocity": 0.6299212598425197,
          "duration": 0.3326385562499965
        },
        {
          "name": "F#4",
          "midi": 66,
          "time": 62.33327099999973,
          "velocity": 0.6299212598425197,
          "duration": 0.6659715562499997
        },
        {
          "name": "A#4",
          "midi": 70,
          "time": 62.33327099999973,
          "velocity": 0.6299212598425197,
          "duration": 0.6659715562499997
        },
        {
          "name": "C4",
          "midi": 60,
          "time": 62.99993699999973,
          "velocity": 0.6299212598425197,
          "duration": 0.16597205624999845
        },
        {
          "name": "C4",
          "midi": 60,
          "time": 63.16660349999973,
          "velocity": 0.6299212598425197,
          "duration": 0.16597205624999845
        },
        {
          "name": "F4",
          "midi": 65,
          "time": 63.33326999999973,
          "velocity": 0.6299212598425197,
          "duration": 0.3326385562499965
        },
        {
          "name": "A4",
          "midi": 69,
          "time": 63.666602999999725,
          "velocity": 0.6299212598425197,
          "duration": 0.3326385562499965
        },
        {
          "name": "C4",
          "midi": 60,
          "time": 63.99993599999972,
          "velocity": 0.6299212598425197,
          "duration": 0.3326385562500036
        },
        {
          "name": "C4",
          "midi": 60,
          "time": 64.33326899999973,
          "velocity": 0.6299212598425197,
          "duration": 0.3326385562500036
        },
        {
          "name": "C4",
          "midi": 60,
          "time": 64.66660199999974,
          "velocity": 0.6299212598425197,
          "duration": 0.3326385562500036
        },
        {
          "name": "C4",
          "midi": 60,
          "time": 64.99993499999975,
          "velocity": 0.6299212598425197,
          "duration": 0.3326385562500036
        },
        {
          "name": "E4",
          "midi": 64,
          "time": 65.33326799999976,
          "velocity": 0.6299212598425197,
          "duration": 0.3326385562500036
        },
        {
          "name": "E4",
          "midi": 64,
          "time": 65.66660099999977,
          "velocity": 0.6299212598425197,
          "duration": 0.3326385562500036
        },
        {
          "name": "E4",
          "midi": 64,
          "time": 65.99993399999978,
          "velocity": 0.6299212598425197,
          "duration": 0.3326385562500036
        },
        {
          "name": "E4",
          "midi": 64,
          "time": 66.3332669999998,
          "velocity": 0.6299212598425197,
          "duration": 0.3326385562500036
        },
        {
          "name": "F4",
          "midi": 65,
          "time": 66.6665999999998,
          "velocity": 0.6299212598425197,
          "duration": 0.3326385562500036
        },
        {
          "name": "F4",
          "midi": 65,
          "time": 66.99993299999981,
          "velocity": 0.6299212598425197,
          "duration": 0.3326385562500036
        },
        {
          "name": "A4",
          "midi": 69,
          "time": 67.33326599999982,
          "velocity": 0.6299212598425197,
          "duration": 0.16597205624999845
        },
        {
          "name": "A4",
          "midi": 69,
          "time": 67.49993249999983,
          "velocity": 0.6299212598425197,
          "duration": 0.16597205624999845
        },
        {
          "name": "A4",
          "midi": 69,
          "time": 67.66659899999983,
          "velocity": 0.6299212598425197,
          "duration": 0.16597205624999845
        },
        {
          "name": "A4",
          "midi": 69,
          "time": 67.83326549999984,
          "velocity": 0.6299212598425197,
          "duration": 0.16597205624999845
        },
        {
          "name": "A4",
          "midi": 69,
          "time": 67.99993199999984,
          "velocity": 0.6299212598425197,
          "duration": 0.16597205624999845
        },
        {
          "name": "A4",
          "midi": 69,
          "time": 68.16659849999985,
          "velocity": 0.6299212598425197,
          "duration": 0.16597205624999845
        },
        {
          "name": "A4",
          "midi": 69,
          "time": 68.33326499999986,
          "velocity": 0.6299212598425197,
          "duration": 0.16597205624999845
        },
        {
          "name": "A4",
          "midi": 69,
          "time": 68.49993149999986,
          "velocity": 0.6299212598425197,
          "duration": 0.16597205624999845
        },
        {
          "name": "F4",
          "midi": 65,
          "time": 68.66659799999987,
          "velocity": 0.6299212598425197,
          "duration": 0.3326385562500036
        },
        {
          "name": "F4",
          "midi": 65,
          "time": 68.99993099999988,
          "velocity": 0.6299212598425197,
          "duration": 0.3326385562500036
        },
        {
          "name": "A4",
          "midi": 69,
          "time": 69.33326399999989,
          "velocity": 0.6299212598425197,
          "duration": 0.16597205624999845
        },
        {
          "name": "F4",
          "midi": 65,
          "time": 69.49993049999989,
          "velocity": 0.6299212598425197,
          "duration": 0.49930505624999455
        },
        {
          "name": "F4",
          "midi": 65,
          "time": 69.99992999999989,
          "velocity": 0.6299212598425197,
          "duration": 0.16597205624999845
        },
        {
          "name": "C4",
          "midi": 60,
          "time": 70.1665964999999,
          "velocity": 0.6299212598425197,
          "duration": 0.49930505624999455
        },
        {
          "name": "A4",
          "midi": 69,
          "time": 70.6665959999999,
          "velocity": 0.6299212598425197,
          "duration": 0.16597205624999845
        },
        {
          "name": "F4",
          "midi": 65,
          "time": 70.8332624999999,
          "velocity": 0.6299212598425197,
          "duration": 0.49930505624999455
        },
        {
          "name": "F4",
          "midi": 65,
          "time": 71.3332619999999,
          "velocity": 0.6299212598425197,
          "duration": 0.16597205624999845
        },
        {
          "name": "C4",
          "midi": 60,
          "time": 71.49992849999991,
          "velocity": 0.6299212598425197,
          "duration": 0.49930505624999455
        },
        {
          "name": "A4",
          "midi": 69,
          "time": 71.99992799999991,
          "velocity": 0.6299212598425197,
          "duration": 0.16597205624999845
        },
        {
          "name": "F4",
          "midi": 65,
          "time": 72.16659449999992,
          "velocity": 0.6299212598425197,
          "duration": 0.49930505624999455
        },
        {
          "name": "F4",
          "midi": 65,
          "time": 72.66659399999992,
          "velocity": 0.6299212598425197,
          "duration": 0.16597205624999845
        },
        {
          "name": "C4",
          "midi": 60,
          "time": 72.83326049999992,
          "velocity": 0.6299212598425197,
          "duration": 0.49930505624999455
        },
        {
          "name": "A4",
          "midi": 69,
          "time": 73.33325999999992,
          "velocity": 0.6299212598425197,
          "duration": 0.16597205624999845
        },
        {
          "name": "F4",
          "midi": 65,
          "time": 73.49992649999993,
          "velocity": 0.6299212598425197,
          "duration": 0.49930505624999455
        },
        {
          "name": "F4",
          "midi": 65,
          "time": 73.99992599999993,
          "velocity": 0.6299212598425197,
          "duration": 0.16597205624999845
        },
        {
          "name": "C4",
          "midi": 60,
          "time": 74.16659249999994,
          "velocity": 0.6299212598425197,
          "duration": 0.49930505624999455
        },
        {
          "name": "A4",
          "midi": 69,
          "time": 74.66659199999994,
          "velocity": 0.6299212598425197,
          "duration": 0.16597205624999845
        },
        {
          "name": "F4",
          "midi": 65,
          "time": 74.83325849999994,
          "velocity": 0.6299212598425197,
          "duration": 0.49930505624999455
        },
        {
          "name": "F4",
          "midi": 65,
          "time": 75.33325799999994,
          "velocity": 0.6299212598425197,
          "duration": 0.16597205624999845
        },
        {
          "name": "C4",
          "midi": 60,
          "time": 75.49992449999995,
          "velocity": 0.6299212598425197,
          "duration": 0.49930505624999455
        },
        {
          "name": "A4",
          "midi": 69,
          "time": 75.99992399999995,
          "velocity": 0.6299212598425197,
          "duration": 0.16597205624999845
        },
        {
          "name": "F4",
          "midi": 65,
          "time": 76.16659049999996,
          "velocity": 0.6299212598425197,
          "duration": 0.49930505624999455
        },
        {
          "name": "F4",
          "midi": 65,
          "time": 76.66658999999996,
          "velocity": 0.6299212598425197,
          "duration": 0.16597205624999845
        },
        {
          "name": "C4",
          "midi": 60,
          "time": 76.83325649999996,
          "velocity": 0.6299212598425197,
          "duration": 0.49930505624999455
        },
        {
          "name": "A4",
          "midi": 69,
          "time": 77.33325599999996,
          "velocity": 0.6299212598425197,
          "duration": 0.16597205624999845
        },
        {
          "name": "F4",
          "midi": 65,
          "time": 77.49992249999997,
          "velocity": 0.6299212598425197,
          "duration": 0.49930505624999455
        },
        {
          "name": "F4",
          "midi": 65,
          "time": 77.99992199999997,
          "velocity": 0.6299212598425197,
          "duration": 0.16597205624999845
        },
        {
          "name": "C4",
          "midi": 60,
          "time": 78.16658849999997,
          "velocity": 0.6299212598425197,
          "duration": 0.49930505624999455
        },
        {
          "name": "A4",
          "midi": 69,
          "time": 78.66658799999998,
          "velocity": 0.6299212598425197,
          "duration": 0.16597205624999845
        },
        {
          "name": "F4",
          "midi": 65,
          "time": 78.83325449999998,
          "velocity": 0.6299212598425197,
          "duration": 0.49930505624999455
        },
        {
          "name": "F4",
          "midi": 65,
          "time": 79.33325399999998,
          "velocity": 0.6299212598425197,
          "duration": 0.16597205624999845
        },
        {
          "name": "C#4",
          "midi": 61,
          "time": 79.49992049999999,
          "velocity": 0.6299212598425197,
          "duration": 0.49930505624999455
        }
      ],
      "controlChanges": {
        "6": [
          {
            "number": 6,
            "time": 0,
            "value": 0.09448818897637795
          }
        ],
        "7": [
          {
            "number": 7,
            "time": 0,
            "value": 0.7874015748031497
          }
        ],
        "10": [
          {
            "number": 10,
            "time": 0,
            "value": 0.5039370078740157
          }
        ],
        "91": [
          {
            "number": 91,
            "time": 0,
            "value": 0
          }
        ],
        "93": [
          {
            "number": 93,
            "time": 0,
            "value": 0
          }
        ],
        "100": [
          {
            "number": 100,
            "time": 0,
            "value": 0
          },
          {
            "number": 100,
            "time": 0,
            "value": 1
          }
        ],
        "101": [
          {
            "number": 101,
            "time": 0,
            "value": 0
          },
          {
            "number": 101,
            "time": 0,
            "value": 1
          }
        ],
        "121": [
          {
            "number": 121,
            "time": 0,
            "value": 0
          }
        ]
      },
      "id": 0,
      "name": "Piano",
      "instrumentNumber": 0,
      "instrument": "acoustic grand piano",
      "instrumentFamily": "piano",
      "channelNumber": 0,
      "isPercussion": false
    },
    {
      "startTime": 0,
      "duration": 0,
      "length": 0,
      "notes": [],
      "controlChanges": {},
      "id": 1,
      "name": "Piano"
    }
  ]
}