{
  "header": {
    "PPQ": 480,
    "timeSignature": [
      4,
      4
    ],
    "bpm": 154.000154000154,
    "name": "Piano"
  },
  "tempo": [
    {
      "absoluteTime": 0,
      "seconds": 0,
      "bpm": 154.000154000154
    }
  ],
  "timeSignature": [
    {
      "absoluteTime": 0,
      "seconds": 0,
      "numerator": 4,
      "denominator": 2,
      "click": 24,
      "notesQ": 8
    }
  ],
  "startTime": 0,
  "duration": 187.79120831250083,
  "tracks": [
    {
      "startTime": 0,
      "duration": 187.79120831250083,
      "length": 593,
      "notes": [
        {
          "name": "C4",
          "midi": 60,
          "time": 0,
          "velocity": 0.6299212598425197,
          "duration": 0.3887983125
        },
        {
          "name": "C4",
          "midi": 60,
          "time": 3.5064900000000003,
          "velocity": 0.6299212598425197,
          "duration": 0.3887983125000001
        },
        {
          "name": "C4",
          "midi": 60,
          "time": 5.454540000000001,
          "velocity": 0.6299212598425197,
          "duration": 0.38879831249999963
        },
        {
          "name": "A4",
          "midi": 69,
          "time": 6.23376,
          "velocity": 0.6299212598425197,
          "duration": 0.38879831249999963
        },
        {
          "name": "E4",
          "midi": 64,
          "time": 6.6233699999999995,
          "velocity": 0.6299212598425197,
          "duration": 0.38879831249999963
        },
        {
          "name": "F4",
          "midi": 65,
          "time": 7.402589999999999,
          "velocity": 0.6299212598425197,
          "duration": 0.38879831249999963
        },
        {
          "name": "E4",
          "midi": 64,
          "time": 8.181809999999999,
          "velocity": 0.6299212598425197,
          "duration": 0.3887983125000005
        },
        {
          "name": "F4",
          "midi": 65,
          "time": 8.96103,
          "velocity": 0.6299212598425197,
          "duration": 0.3887983125000005
        },
        {
          "name": "F4",
          "midi": 65,
          "time": 9.35064,
          "velocity": 0.6299212598425197,
          "duration": 0.3887983125000005
        },
        {
          "name": "F4",
          "midi": 65,
          "time": 10.12986,
          "velocity": 0.6299212598425197,
          "duration": 0.3887983125000005
        },
        {
          "name": "E4",
          "midi": 64,
          "time": 10.519470000000002,
          "velocity": 0.6299212598425197,
          "duration": 0.3887983125000005
        },
        {
          "name": "F4",
          "midi": 65,
          "time": 10.519470000000002,
          "velocity": 0.6299212598425197,
          "duration": 0.3887983125000005
        },
        {
          "name": "E4",
          "midi": 64,
          "time": 10.909080000000003,
          "velocity": 0.6299212598425197,
          "duration": 0.3887983125000005
        },
        {
          "name": "F4",
          "midi": 65,
          "time": 10.909080000000003,
          "velocity": 0.6299212598425197,
          "duration": 0.3887983125000005
        },
        {
          "name": "E4",
          "midi": 64,
          "time": 11.298690000000004,
          "velocity": 0.6299212598425197,
          "duration": 0.3887983125000005
        },
        {
          "name": "F4",
          "midi": 65,
          "time": 11.298690000000004,
          "velocity": 0.6299212598425197,
          "duration": 0.3887983125000005
        },
        {
          "name": "E4",
          "midi": 64,
          "time": 11.688300000000005,
          "velocity": 0.6299212598425197,
          "duration": 0.3887983125000005
        },
        {
          "name": "F4",
          "midi": 65,
          "time": 11.688300000000005,
          "velocity": 0.6299212598425197,
          "duration": 0.3887983125000005
        },
        {
          "name": "A4",
          "midi": 69,
          "time": 12.857130000000005,
          "velocity": 0.6299212598425197,
          "duration": 0.3887983125000005
        },
        {
          "name": "A4",
          "midi": 69,
          "time": 13.636350000000006,
          "velocity": 0.6299212598425197,
          "duration": 0.3887983125000005
        },
        {
          "name": "A4",
          "midi": 69,
          "time": 14.025960000000007,
          "velocity": 0.6299212598425197,
          "duration": 0.3887983125000005
        },
        {
          "name": "F4",
          "midi": 65,
          "time": 14.805180000000007,
          "velocity": 0.6299212598425197,
          "duration": 0.3887983125000005
        },
        {
          "name": "E4",
          "midi": 64,
          "time": 15.194790000000008,
          "velocity": 0.6299212598425197,
          "duration": 0.3887983125000005
        },
        {
          "name": "C4",
          "midi": 60,
          "time": 15.58440000000001,
          "velocity": 0.6299212598425197,
          "duration": 0.3887983125000005
        },
        {
          "name": "C4",
          "midi": 60,
          "time": 15.97401000000001,
          "velocity": 0.6299212598425197,
          "duration": 0.3887983125000005
        },
        {
          "name": "E4",
          "midi": 64,
          "time": 16.36362000000001,
          "velocity": 0.6299212598425197,
          "duration": 0.3887983125000005
        },
        {
          "name": "F4",
          "midi": 65,
          "time": 16.753230000000013,
          "velocity": 0.6299212598425197,
          "duration": 0.19399331250000174
        },
        {
          "name": "F4",
          "midi": 65,
          "time": 16.948035000000015,
          "velocity": 0.6299212598425197,
          "duration": 0.19399331250000174
        },
        {
          "name": "C4",
          "midi": 60,
          "time": 17.53245000000002,
          "velocity": 0.6299212598425197,
          "duration": 0.3887983125000005
        },
        {
          "name": "E4",
          "midi": 64,
          "time": 17.92206000000002,
          "velocity": 0.6299212598425197,
          "duration": 0.3887983125000005
        },
        {
          "name": "F4",
          "midi": 65,
          "time": 18.31167000000002,
          "velocity": 0.6299212598425197,
          "duration": 0.19399331250000174
        },
        {
          "name": "F4",
          "midi": 65,
          "time": 18.506475000000023,
          "velocity": 0.6299212598425197,
          "duration": 0.19399331250000174
        },
        {
          "name": "E4",
          "midi": 64,
          "time": 18.701280000000025,
          "velocity": 0.6299212598425197,
          "duration": 0.3887983125000005
        },
        {
          "name": "F4",
          "midi": 65,
          "time": 19.480500000000028,
          "velocity": 0.6299212598425197,
          "duration": 0.3887983125000005
        },
        {
          "name": "E4",
          "midi": 64,
          "time": 20.25972000000003,
          "velocity": 0.6299212598425197,
          "duration": 0.3887983125000005
        },
        {
          "name": "F4",
          "midi": 65,
          "time": 21.038940000000032,
          "velocity": 0.6299212598425197,
          "duration": 0.3887983125000005
        },
        {
          "name": "A4",
          "midi": 69,
          "time": 21.818160000000034,
          "velocity": 0.6299212598425197,
          "duration": 0.3887983125000005
        },
        {
          "name": "A4",
          "midi": 69,
          "time": 22.597380000000037,
          "velocity": 0.6299212598425197,
          "duration": 0.3887983125000005
        },
        {
          "name": "E4",
          "midi": 64,
          "time": 23.37660000000004,
          "velocity": 0.6299212598425197,
          "duration": 0.3887983125000005
        },
        {
          "name": "F4",
          "midi": 65,
          "time": 23.37660000000004,
          "velocity": 0.6299212598425197,
          "duration": 0.3887983125000005
        },
        {
          "name": "E4",
          "midi": 64,
          "time": 23.76621000000004,
          "velocity": 0.6299212598425197,
          "duration": 0.3887983125000005
        },
        {
          "name": "F4",
          "midi": 65,
          "time": 23.76621000000004,
          "velocity": 0.6299212598425197,
          "duration": 0.3887983125000005
        },
        {
          "name": "E4",
          "midi": 64,
          "time": 24.15582000000004,
          "velocity": 0.6299212598425197,
          "duration": 0.3887983125000005
        },
        {
          "name": "F4",
          "midi": 65,
          "time": 24.15582000000004,
          "velocity": 0.6299212598425197,
          "duration": 0.3887983125000005
        },
        {
          "name": "C4",
          "midi": 60,
          "time": 25.32465000000004,
          "velocity": 0.6299212598425197,
          "duration": 0.3887983125000005
        },
        {
          "name": "E4",
          "midi": 64,
          "time": 26.103870000000043,
          "velocity": 0.6299212598425197,
          "duration": 0.3887983125000005
        },
        {
          "name": "A4",
          "midi": 69,
          "time": 26.883090000000045,
          "velocity": 0.6299212598425197,
          "duration": 0.3887983125000005
        },
        {
          "name": "C4",
          "midi": 60,
          "time": 27.662310000000048,
          "velocity": 0.6299212598425197,
          "duration": 0.3887983125000005
        },
        {
          "name": "A4",
          "midi": 69,
          "time": 28.05192000000005,
          "velocity": 0.6299212598425197,
          "duration": 0.3887983125000005
        },
        {
          "name": "E4",
          "midi": 64,
          "time": 28.44153000000005,
          "velocity": 0.6299212598425197,
          "duration": 0.19399331250000174
        },
        {
          "name": "E4",
          "midi": 64,
          "time": 28.636335000000052,
          "velocity": 0.6299212598425197,
          "duration": 0.19399331250000174
        },
        {
          "name": "F4",
          "midi": 65,
          "time": 28.831140000000055,
          "velocity": 0.6299212598425197,
          "duration": 0.3887983125000005
        },
        {
          "name": "C4",
          "midi": 60,
          "time": 29.610360000000057,
          "velocity": 0.6299212598425197,
          "duration": 0.3887983125000005
        },
        {
          "name": "A4",
          "midi": 69,
          "time": 29.999970000000058,
          "velocity": 0.6299212598425197,
          "duration": 0.19399331250000174
        },
        {
          "name": "A4",
          "midi": 69,
          "time": 30.19477500000006,
          "velocity": 0.6299212598425197,
          "duration": 0.19399331250000174
        },
        {
          "name": "E4",
          "midi": 64,
          "time": 30.389580000000063,
          "velocity": 0.6299212598425197,
          "duration": 0.3887983125000005
        },
        {
          "name": "E4",
          "midi": 64,
          "time": 31.168800000000065,
          "velocity": 0.6299212598425197,
          "duration": 0.3887983125000005
        },
        {
          "name": "E4",
          "midi": 64,
          "time": 31.558410000000066,
          "velocity": 0.6299212598425197,
          "duration": 0.3887983125000005
        },
        {
          "name": "F4",
          "midi": 65,
          "time": 32.33763000000007,
          "velocity": 0.6299212598425197,
          "duration": 0.3887983125000005
        },
        {
          "name": "F4",
          "midi": 65,
          "time": 32.727240000000066,
          "velocity": 0.6299212598425197,
          "duration": 0.3887983125000005
        },
        {
          "name": "A4",
          "midi": 69,
          "time": 32.727240000000066,
          "velocity": 0.6299212598425197,
          "duration": 0.3887983125000005
        },
        {
          "name": "F4",
          "midi": 65,
          "time": 33.11685000000006,
          "velocity": 0.6299212598425197,
          "duration": 0.3887983125000005
        },
        {
          "name": "A4",
          "midi": 69,
          "time": 33.11685000000006,
          "velocity": 0.6299212598425197,
          "duration": 0.3887983125000005
        },
        {
          "name": "C4",
          "midi": 60,
          "time": 34.28568000000006,
          "velocity": 0.6299212598425197,
          "duration": 0.3887983125000005
        },
        {
          "name": "E4",
          "midi": 64,
          "time": 34.67529000000006,
          "velocity": 0.6299212598425197,
          "duration": 0.19399331249999818
        },
        {
          "name": "E4",
          "midi": 64,
          "time": 34.870095000000056,
          "velocity": 0.6299212598425197,
          "duration": 0.19399331249999818
        },
        {
          "name": "F4",
          "midi": 65,
          "time": 35.06490000000005,
          "velocity": 0.6299212598425197,
          "duration": 0.19399331249999818
        },
        {
          "name": "F4",
          "midi": 65,
          "time": 35.25970500000005,
          "velocity": 0.6299212598425197,
          "duration": 0.19399331249999818
        },
        {
          "name": "A4",
          "midi": 69,
          "time": 35.45451000000004,
          "velocity": 0.6299212598425197,
          "duration": 0.3887983125000005
        },
        {
          "name": "A4",
          "midi": 69,
          "time": 35.84412000000004,
          "velocity": 0.6299212598425197,
          "duration": 0.3887983125000005
        },
        {
          "name": "F4",
          "midi": 65,
          "time": 36.23373000000004,
          "velocity": 0.6299212598425197,
          "duration": 0.19399331249999818
        },
        {
          "name": "E4",
          "midi": 64,
          "time": 36.42853500000003,
          "velocity": 0.6299212598425197,
          "duration": 0.19399331249999818
        },
        {
          "name": "F4",
          "midi": 65,
          "time": 36.62334000000003,
          "velocity": 0.6299212598425197,
          "duration": 0.19399331249999818
        },
        {
          "name": "E4",
          "midi": 64,
          "time": 36.81814500000002,
          "velocity": 0.6299212598425197,
          "duration": 0.19399331249999818
        },
        {
          "name": "A4",
          "midi": 69,
          "time": 37.01295000000002,
          "velocity": 0.6299212598425197,
          "duration": 0.3887983125000005
        },
        {
          "name": "A4",
          "midi": 69,
          "time": 37.402560000000015,
          "velocity": 0.6299212598425197,
          "duration": 0.3887983125000005
        },
        {
          "name": "C4",
          "midi": 60,
          "time": 38.18178000000002,
          "velocity": 0.6299212598425197,
          "duration": 0.3887983125000005
        },
        {
          "name": "F4",
          "midi": 65,
          "time": 38.571390000000015,
          "velocity": 0.6299212598425197,
          "duration": 0.3887983125000005
        },
        {
          "name": "A4",
          "midi": 69,
          "time": 38.96100000000001,
          "velocity": 0.6299212598425197,
          "duration": 0.19399331249999818
        },
        {
          "name": "A4",
          "midi": 69,
          "time": 39.15580500000001,
          "velocity": 0.6299212598425197,
          "duration": 0.19399331249999818
        },
        {
          "name": "F4",
          "midi": 65,
          "time": 39.74022000000001,
          "velocity": 0.6299212598425197,
          "duration": 0.3887983125000005
        },
        {
          "name": "F4",
          "midi": 65,
          "time": 40.129830000000005,
          "velocity": 0.6299212598425197,
          "duration": 0.3887983125000005
        },
        {
          "name": "C4",
          "midi": 60,
          "time": 40.51944,
          "velocity": 0.6299212598425197,
          "duration": 0.19399331249999818
        },
        {
          "name": "A4",
          "midi": 69,
          "time": 40.714245,
          "velocity": 0.6299212598425197,
          "duration": 0.19399331249999818
        },
        {
          "name": "C4",
          "midi": 60,
          "time": 40.90904999999999,
          "velocity": 0.6299212598425197,
          "duration": 0.19399331249999818
        },
        {
          "name": "A4",
          "midi": 69,
          "time": 41.10385499999999,
          "velocity": 0.6299212598425197,
          "duration": 0.19399331249999818
        },
        {
          "name": "C4",
          "midi": 60,
          "time": 41.298659999999984,
          "velocity": 0.6299212598425197,
          "duration": 0.19399331249999818
        },
        {
          "name": "A4",
          "midi": 69,
          "time": 41.49346499999998,
          "velocity": 0.6299212598425197,
          "duration": 0.19399331249999818
        },
        {
          "name": "C4",
          "midi": 60,
          "time": 41.688269999999974,
          "velocity": 0.6299212598425197,
          "duration": 0.19399331249999818
        },
        {
          "name": "A4",
          "midi": 69,
          "time": 41.88307499999997,
          "velocity": 0.6299212598425197,
          "duration": 0.19399331249999818
        },
        {
          "name": "C4",
          "midi": 60,
          "time": 42.077879999999965,
          "velocity": 0.6299212598425197,
          "duration": 0.19399331249999818
        },
        {
          "name": "A4",
          "midi": 69,
          "time": 42.27268499999996,
          "velocity": 0.6299212598425197,
          "duration": 0.19399331249999818
        },
        {
          "name": "C4",
          "midi": 60,
          "time": 42.467489999999955,
          "velocity": 0.6299212598425197,
          "duration": 0.19399331249999818
        },
        {
          "name": "A4",
          "midi": 69,
          "time": 42.66229499999995,
          "velocity": 0.6299212598425197,
          "duration": 0.19399331249999818
        },
        {
          "name": "C4",
          "midi": 60,
          "time": 42.857099999999946,
          "velocity": 0.6299212598425197,
          "duration": 0.19399331249999818
        },
        {
          "name": "A4",
          "midi": 69,
          "time": 43.05190499999994,
          "velocity": 0.6299212598425197,
          "duration": 0.19399331249999818
        },
        {
          "name": "C4",
          "midi": 60,
          "time": 43.246709999999936,
          "velocity": 0.6299212598425197,
          "duration": 0.3887983125000005
        },
        {
          "name": "A4",
          "midi": 69,
          "time": 44.02592999999994,
          "velocity": 0.6299212598425197,
          "duration": 0.3887983125000005
        },
        {
          "name": "F4",
          "midi": 65,
          "time": 44.80514999999994,
          "velocity": 0.6299212598425197,
          "duration": 0.3887983125000005
        },
        {
          "name": "F4",
          "midi": 65,
          "time": 45.19475999999994,
          "velocity": 0.6299212598425197,
          "duration": 0.3887983125000005
        },
        {
          "name": "A4",
          "midi": 69,
          "time": 45.19475999999994,
          "velocity": 0.6299212598425197,
          "duration": 0.3887983125000005
        },
        {
          "name": "F4",
          "midi": 65,
          "time": 45.584369999999936,
          "velocity": 0.6299212598425197,
          "duration": 0.3887983125000005
        },
        {
          "name": "A4",
          "midi": 69,
          "time": 45.584369999999936,
          "velocity": 0.6299212598425197,
          "duration": 0.3887983125000005
        },
        {
          "name": "C4",
          "midi": 60,
          "time": 46.753199999999936,
          "velocity": 0.6299212598425197,
          "duration": 0.3887983125000005
        },
        {
          "name": "E4",
          "midi": 64,
          "time": 47.14280999999993,
          "velocity": 0.6299212598425197,
          "duration": 0.19399331249999818
        },
        {
          "name": "E4",
          "midi": 64,
          "time": 47.33761499999993,
          "velocity": 0.6299212598425197,
          "duration": 0.19399331249999818
        },
        {
          "name": "F4",
          "midi": 65,
          "time": 47.532419999999924,
          "velocity": 0.6299212598425197,
          "duration": 0.19399331249999818
        },
        {
          "name": "F4",
          "midi": 65,
          "time": 47.72722499999992,
          "velocity": 0.6299212598425197,
          "duration": 0.19399331249999818
        },
        {
          "name": "A4",
          "midi": 69,
          "time": 47.922029999999914,
          "velocity": 0.6299212598425197,
          "duration": 0.3887983125000005
        },
        {
          "name": "C4",
          "midi": 60,
          "time": 48.31163999999991,
          "velocity": 0.6299212598425197,
          "duration": 0.3887983125000005
        },
        {
          "name": "E4",
          "midi": 64,
          "time": 48.70124999999991,
          "velocity": 0.6299212598425197,
          "duration": 0.19399331249999818
        },
        {
          "name": "E4",
          "midi": 64,
          "time": 48.896054999999905,
          "velocity": 0.6299212598425197,
          "duration": 0.19399331249999818
        },
        {
          "name": "F4",
          "midi": 65,
          "time": 49.0908599999999,
          "velocity": 0.6299212598425197,
          "duration": 0.19399331249999818
        },
        {
          "name": "F4",
          "midi": 65,
          "time": 49.285664999999895,
          "velocity": 0.6299212598425197,
          "duration": 0.19399331249999818
        },
        {
          "name": "A4",
          "midi": 69,
          "time": 49.48046999999989,
          "velocity": 0.6299212598425197,
          "duration": 0.3887983125000005
        },
        {
          "name": "A4",
          "midi": 69,
          "time": 50.64929999999989,
          "velocity": 0.6299212598425197,
          "duration": 0.3887983125000005
        },
        {
          "name": "A4",
          "midi": 69,
          "time": 51.42851999999989,
          "velocity": 0.6299212598425197,
          "duration": 0.19399331249999818
        },
        {
          "name": "A4",
          "midi": 69,
          "time": 51.62332499999989,
          "velocity": 0.6299212598425197,
          "duration": 0.19399331249999818
        },
        {
          "name": "E4",
          "midi": 64,
          "time": 51.81812999999988,
          "velocity": 0.6299212598425197,
          "duration": 0.3887983125000005
        },
        {
          "name": "F4",
          "midi": 65,
          "time": 52.20773999999988,
          "velocity": 0.6299212598425197,
          "duration": 0.3887983125000005
        },
        {
          "name": "F4",
          "midi": 65,
          "time": 52.59734999999988,
          "velocity": 0.6299212598425197,
          "duration": 0.3887983125000005
        },
        {
          "name": "C4",
          "midi": 60,
          "time": 52.986959999999875,
          "velocity": 0.6299212598425197,
          "duration": 0.19399331249999818
        },
        {
          "name": "A4",
          "midi": 69,
          "time": 53.18176499999987,
          "velocity": 0.6299212598425197,
          "duration": 0.19399331249999818
        },
        {
          "name": "C4",
          "midi": 60,
          "time": 53.376569999999866,
          "velocity": 0.6299212598425197,
          "duration": 0.19399331249999818
        },
        {
          "name": "A4",
          "midi": 69,
          "time": 53.57137499999986,
          "velocity": 0.6299212598425197,
          "duration": 0.19399331249999818
        },
        {
          "name": "C4",
          "midi": 60,
          "time": 53.766179999999856,
          "velocity": 0.6299212598425197,
          "duration": 0.19399331249999818
        },
        {
          "name": "A4",
          "midi": 69,
          "time": 53.96098499999985,
          "velocity": 0.6299212598425197,
          "duration": 0.19399331249999818
        },
        {
          "name": "C4",
          "midi": 60,
          "time": 54.15578999999985,
          "velocity": 0.6299212598425197,
          "duration": 0.19399331249999818
        },
        {
          "name": "A4",
          "midi": 69,
          "time": 54.35059499999984,
          "velocity": 0.6299212598425197,
          "duration": 0.19399331249999818
        },
        {
          "name": "C4",
          "midi": 60,
          "time": 54.54539999999984,
          "velocity": 0.6299212598425197,
          "duration": 0.19399331249999818
        },
        {
          "name": "A4",
          "midi": 69,
          "time": 54.74020499999983,
          "velocity": 0.6299212598425197,
          "duration": 0.19399331249999818
        },
        {
          "name": "C4",
          "midi": 60,
          "time": 54.93500999999983,
          "velocity": 0.6299212598425197,
          "duration": 0.19399331249999818
        },
        {
          "name": "A4",
          "midi": 69,
          "time": 55.12981499999982,
          "velocity": 0.6299212598425197,
          "duration": 0.19399331249999818
        },
        {
          "name": "C4",
          "midi": 60,
          "time": 55.32461999999982,
          "velocity": 0.6299212598425197,
          "duration": 0.19399331249999818
        },
        {
          "name": "A4",
          "midi": 69,
          "time": 55.51942499999981,
          "velocity": 0.6299212598425197,
          "duration": 0.19399331249999818
        },
        {
          "name": "D4",
          "midi": 62,
          "time": 55.71422999999981,
          "velocity": 0.6299212598425197,
          "duration": 0.3887983125000005
        },
        {
          "name": "A4",
          "midi": 69,
          "time": 59.22071999999981,
          "velocity": 0.6299212598425197,
          "duration": 0.3887983125000005
        },
        {
          "name": "A4",
          "midi": 69,
          "time": 61.947989999999805,
          "velocity": 0.6299212598425197,
          "duration": 0.3887983125000005
        },
        {
          "name": "E4",
          "midi": 64,
          "time": 62.3375999999998,
          "velocity": 0.6299212598425197,
          "duration": 0.19399331249999818
        },
        {
          "name": "F4",
          "midi": 65,
          "time": 62.5324049999998,
          "velocity": 0.6299212598425197,
          "duration": 0.19399331249999818
        },
        {
          "name": "E4",
          "midi": 64,
          "time": 62.72720999999979,
          "velocity": 0.6299212598425197,
          "duration": 0.3887983125000005
        },
        {
          "name": "F4",
          "midi": 65,
          "time": 63.11681999999979,
          "velocity": 0.6299212598425197,
          "duration": 0.3887983125000005
        },
        {
          "name": "E4",
          "midi": 64,
          "time": 63.50642999999979,
          "velocity": 0.6299212598425197,
          "duration": 0.3887983125000005
        },
        {
          "name": "A4",
          "midi": 69,
          "time": 63.896039999999786,
          "velocity": 0.6299212598425197,
          "duration": 0.3887983125000005
        },
        {
          "name": "A4",
          "midi": 69,
          "time": 64.28564999999979,
          "velocity": 0.6299212598425197,
          "duration": 0.3887983125000005
        },
        {
          "name": "C4",
          "midi": 60,
          "time": 65.45447999999979,
          "velocity": 0.6299212598425197,
          "duration": 0.19399331249999818
        },
        {
          "name": "A4",
          "midi": 69,
          "time": 65.6492849999998,
          "velocity": 0.6299212598425197,
          "duration": 0.19399331249999818
        },
        {
          "name": "C4",
          "midi": 60,
          "time": 65.8440899999998,
          "velocity": 0.6299212598425197,
          "duration": 0.3887983125000005
        },
        {
          "name": "A4",
          "midi": 69,
          "time": 66.2336999999998,
          "velocity": 0.6299212598425197,
          "duration": 0.3887983125000005
        },
        {
          "name": "C4",
          "midi": 60,
          "time": 66.6233099999998,
          "velocity": 0.6299212598425197,
          "duration": 0.3887983125000005
        },
        {
          "name": "E4",
          "midi": 64,
          "time": 67.01291999999981,
          "velocity": 0.6299212598425197,
          "duration": 0.3887983125000005
        },
        {
          "name": "E4",
          "midi": 64,
          "time": 67.40252999999981,
          "velocity": 0.6299212598425197,
          "duration": 0.3887983125000005
        },
        {
          "name": "F4",
          "midi": 65,
          "time": 68.57135999999981,
          "velocity": 0.6299212598425197,
          "duration": 0.3887983125000005
        },
        {
          "name": "F4",
          "midi": 65,
          "time": 69.35057999999981,
          "velocity": 0.6299212598425197,
          "duration": 0.3887983125000005
        },
        {
          "name": "E4",
          "midi": 64,
          "time": 70.1297999999998,
          "velocity": 0.6299212598425197,
          "duration": 0.3887983125000005
        },
        {
          "name": "F4",
          "midi": 65,
          "time": 70.9090199999998,
          "velocity": 0.6299212598425197,
          "duration": 0.3887983125000005
        },
        {
          "name": "E4",
          "midi": 64,
          "time": 71.6882399999998,
          "velocity": 0.6299212598425197,
          "duration": 0.3887983125000005
        },
        {
          "name": "C4",
          "midi": 60,
          "time": 74.0258999999998,
          "velocity": 0.6299212598425197,
          "duration": 0.3887983125000005
        },
        {
          "name": "E4",
          "midi": 64,
          "time": 74.80511999999979,
          "velocity": 0.6299212598425197,
          "duration": 0.3887983125000005
        },
        {
          "name": "C4",
          "midi": 60,
          "time": 75.58433999999978,
          "velocity": 0.6299212598425197,
          "duration": 0.3887983125000005
        },
        {
          "name": "F4",
          "midi": 65,
          "time": 76.36355999999978,
          "velocity": 0.6299212598425197,
          "duration": 0.3887983125000005
        },
        {
          "name": "F4",
          "midi": 65,
          "time": 76.75316999999978,
          "velocity": 0.6299212598425197,
          "duration": 0.3887983125000005
        },
        {
          "name": "F4",
          "midi": 65,
          "time": 77.14277999999979,
          "velocity": 0.6299212598425197,
          "duration": 0.3887983125000005
        },
        {
          "name": "C4",
          "midi": 60,
          "time": 77.5323899999998,
          "velocity": 0.6299212598425197,
          "duration": 0.3887983125000005
        },
        {
          "name": "E4",
          "midi": 64,
          "time": 78.31160999999979,
          "velocity": 0.6299212598425197,
          "duration": 0.3887983125000005
        },
        {
          "name": "C4",
          "midi": 60,
          "time": 79.09082999999978,
          "velocity": 0.6299212598425197,
          "duration": 0.3887983125000005
        },
        {
          "name": "F4",
          "midi": 65,
          "time": 79.48043999999979,
          "velocity": 0.6299212598425197,
          "duration": 0.3887983125000005
        },
        {
          "name": "F4",
          "midi": 65,
          "time": 79.8700499999998,
          "velocity": 0.6299212598425197,
          "duration": 0.3887983125000005
        },
        {
          "name": "F4",
          "midi": 65,
          "time": 80.2596599999998,
          "velocity": 0.6299212598425197,
          "duration": 0.3887983125000005
        },
        {
          "name": "F4",
          "midi": 65,
          "time": 80.6492699999998,
          "velocity": 0.6299212598425197,
          "duration": 0.3887983125000005
        },
        {
          "name": "E4",
          "midi": 64,
          "time": 81.0388799999998,
          "velocity": 0.6299212598425197,
          "duration": 0.3887983125000005
        },
        {
          "name": "E4",
          "midi": 64,
          "time": 81.8180999999998,
          "velocity": 0.6299212598425197,
          "duration": 0.3887983125000005
        },
        {
          "name": "A4",
          "midi": 69,
          "time": 82.5973199999998,
          "velocity": 0.6299212598425197,
          "duration": 0.3887983125000005
        },
        {
          "name": "E4",
          "midi": 64,
          "time": 85.3245899999998,
          "velocity": 0.6299212598425197,
          "duration": 0.3887983125000005
        },
        {
          "name": "F4",
          "midi": 65,
          "time": 85.3245899999998,
          "velocity": 0.6299212598425197,
          "duration": 0.3887983125000005
        },
        {
          "name": "E4",
          "midi": 64,
          "time": 85.7141999999998,
          "velocity": 0.6299212598425197,
          "duration": 0.3887983125000005
        },
        {
          "name": "F4",
          "midi": 65,
          "time": 85.7141999999998,
          "velocity": 0.6299212598425197,
          "duration": 0.3887983125000005
        },
        {
          "name": "E4",
          "midi": 64,
          "time": 86.10380999999981,
          "velocity": 0.6299212598425197,
          "duration": 0.3887983125000005
        },
        {
          "name": "F4",
          "midi": 65,
          "time": 86.10380999999981,
          "velocity": 0.6299212598425197,
          "duration": 0.3887983125000005
        },
        {
          "name": "C4",
          "midi": 60,
          "time": 86.49341999999982,
          "velocity": 0.6299212598425197,
          "duration": 0.3887983125000005
        },
        {
          "name": "A4",
          "midi": 69,
          "time": 86.49341999999982,
          "velocity": 0.6299212598425197,
          "duration": 0.3887983125000005
        },
        {
          "name": "E4",
          "midi": 64,
          "time": 86.88302999999982,
          "velocity": 0.6299212598425197,
          "duration": 0.3887983125000005
        },
        {
          "name": "E4",
          "midi": 64,
          "time": 87.27263999999983,
          "velocity": 0.6299212598425197,
          "duration": 0.3887983125000005
        },
        {
          "name": "F4",
          "midi": 65,
          "time": 88.05185999999982,
          "velocity": 0.6299212598425197,
          "duration": 0.3887983125000005
        },
        {
          "name": "F4",
          "midi": 65,
          "time": 88.44146999999982,
          "velocity": 0.6299212598425197,
          "duration": 0.3887983125000005
        },
        {
          "name": "A4",
          "midi": 69,
          "time": 88.44146999999982,
          "velocity": 0.6299212598425197,
          "duration": 0.3887983125000005
        },
        {
          "name": "F4",
          "midi": 65,
          "time": 88.83107999999983,
          "velocity": 0.6299212598425197,
          "duration": 0.3887983125000005
        },
        {
          "name": "A4",
          "midi": 69,
          "time": 88.83107999999983,
          "velocity": 0.6299212598425197,
          "duration": 0.3887983125000005
        },
        {
          "name": "C4",
          "midi": 60,
          "time": 89.61029999999982,
          "velocity": 0.6299212598425197,
          "duration": 0.3887983125000005
        },
        {
          "name": "E4",
          "midi": 64,
          "time": 89.99990999999983,
          "velocity": 0.6299212598425197,
          "duration": 0.19399331249999818
        },
        {
          "name": "E4",
          "midi": 64,
          "time": 90.19471499999983,
          "velocity": 0.6299212598425197,
          "duration": 0.19399331249999818
        },
        {
          "name": "F4",
          "midi": 65,
          "time": 90.38951999999983,
          "velocity": 0.6299212598425197,
          "duration": 0.19399331249999818
        },
        {
          "name": "F4",
          "midi": 65,
          "time": 90.58432499999984,
          "velocity": 0.6299212598425197,
          "duration": 0.19399331249999818
        },
        {
          "name": "A4",
          "midi": 69,
          "time": 90.77912999999984,
          "velocity": 0.6299212598425197,
          "duration": 0.3887983125000005
        },
        {
          "name": "A4",
          "midi": 69,
          "time": 91.16873999999984,
          "velocity": 0.6299212598425197,
          "duration": 0.3887983125000005
        },
        {
          "name": "F4",
          "midi": 65,
          "time": 91.55834999999985,
          "velocity": 0.6299212598425197,
          "duration": 0.19399331249999818
        },
        {
          "name": "E4",
          "midi": 64,
          "time": 91.75315499999985,
          "velocity": 0.6299212598425197,
          "duration": 0.19399331249999818
        },
        {
          "name": "F4",
          "midi": 65,
          "time": 91.94795999999985,
          "velocity": 0.6299212598425197,
          "duration": 0.19399331249999818
        },
        {
          "name": "E4",
          "midi": 64,
          "time": 92.14276499999986,
          "velocity": 0.6299212598425197,
          "duration": 0.19399331249999818
        },
        {
          "name": "A4",
          "midi": 69,
          "time": 92.33756999999986,
          "velocity": 0.6299212598425197,
          "duration": 0.3887983125000005
        },
        {
          "name": "C4",
          "midi": 60,
          "time": 93.11678999999985,
          "velocity": 0.6299212598425197,
          "duration": 0.3887983125000005
        },
        {
          "name": "F4",
          "midi": 65,
          "time": 93.50639999999986,
          "velocity": 0.6299212598425197,
          "duration": 0.3887983125000005
        },
        {
          "name": "A4",
          "midi": 69,
          "time": 94.28561999999985,
          "velocity": 0.6299212598425197,
          "duration": 0.19399331249999818
        },
        {
          "name": "A4",
          "midi": 69,
          "time": 94.48042499999985,
          "velocity": 0.6299212598425197,
          "duration": 0.19399331249999818
        },
        {
          "name": "C4",
          "midi": 60,
          "time": 94.67522999999986,
          "velocity": 0.6299212598425197,
          "duration": 0.3887983125000005
        },
        {
          "name": "F4",
          "midi": 65,
          "time": 95.06483999999986,
          "velocity": 0.6299212598425197,
          "duration": 0.3887983125000005
        },
        {
          "name": "F4",
          "midi": 65,
          "time": 95.45444999999987,
          "velocity": 0.6299212598425197,
          "duration": 0.3887983125000005
        },
        {
          "name": "C4",
          "midi": 60,
          "time": 95.84405999999987,
          "velocity": 0.6299212598425197,
          "duration": 0.19399331249999818
        },
        {
          "name": "A4",
          "midi": 69,
          "time": 96.03886499999987,
          "velocity": 0.6299212598425197,
          "duration": 0.19399331249999818
        },
        {
          "name": "C4",
          "midi": 60,
          "time": 96.23366999999988,
          "velocity": 0.6299212598425197,
          "duration": 0.19399331249999818
        },
        {
          "name": "A4",
          "midi": 69,
          "time": 96.42847499999988,
          "velocity": 0.6299212598425197,
          "duration": 0.19399331249999818
        },
        {
          "name": "C4",
          "midi": 60,
          "time": 96.62327999999988,
          "velocity": 0.6299212598425197,
          "duration": 0.19399331249999818
        },
        {
          "name": "A4",
          "midi": 69,
          "time": 96.81808499999988,
          "velocity": 0.6299212598425197,
          "duration": 0.19399331249999818
        },
        {
          "name": "C4",
          "midi": 60,
          "time": 97.01288999999989,
          "velocity": 0.6299212598425197,
          "duration": 0.19399331249999818
        },
        {
          "name": "A4",
          "midi": 69,
          "time": 97.20769499999989,
          "velocity": 0.6299212598425197,
          "duration": 0.19399331249999818
        },
        {
          "name": "C4",
          "midi": 60,
          "time": 97.40249999999989,
          "velocity": 0.6299212598425197,
          "duration": 0.19399331249999818
        },
        {
          "name": "A4",
          "midi": 69,
          "time": 97.59730499999989,
          "velocity": 0.6299212598425197,
          "duration": 0.19399331249999818
        },
        {
          "name": "C4",
          "midi": 60,
          "time": 97.7921099999999,
          "velocity": 0.6299212598425197,
          "duration": 0.19399331249999818
        },
        {
          "name": "A4",
          "midi": 69,
          "time": 97.9869149999999,
          "velocity": 0.6299212598425197,
          "duration": 0.19399331249999818
        },
        {
          "name": "C4",
          "midi": 60,
          "time": 98.1817199999999,
          "velocity": 0.6299212598425197,
          "duration": 0.19399331249999818
        },
        {
          "name": "A4",
          "midi": 69,
          "time": 98.3765249999999,
          "velocity": 0.6299212598425197,
          "duration": 0.19399331249999818
        },
        {
          "name": "C4",
          "midi": 60,
          "time": 98.5713299999999,
          "velocity": 0.6299212598425197,
          "duration": 0.3887983125000005
        },
        {
          "name": "A4",
          "midi": 69,
          "time": 99.3505499999999,
          "velocity": 0.6299212598425197,
          "duration": 0.3887983125000005
        },
        {
          "name": "C4",
          "midi": 60,
          "time": 99.7401599999999,
          "velocity": 0.6299212598425197,
          "duration": 0.3887983125000005
        },
        {
          "name": "F4",
          "midi": 65,
          "time": 100.5193799999999,
          "velocity": 0.6299212598425197,
          "duration": 0.3887983125000005
        },
        {
          "name": "F4",
          "midi": 65,
          "time": 100.9089899999999,
          "velocity": 0.6299212598425197,
          "duration": 0.3887983125000005
        },
        {
          "name": "A4",
          "midi": 69,
          "time": 100.9089899999999,
          "velocity": 0.6299212598425197,
          "duration": 0.3887983125000005
        },
        {
          "name": "F4",
          "midi": 65,
          "time": 101.29859999999991,
          "velocity": 0.6299212598425197,
          "duration": 0.3887983125000005
        },
        {
          "name": "A4",
          "midi": 69,
          "time": 101.29859999999991,
          "velocity": 0.6299212598425197,
          "duration": 0.3887983125000005
        },
        {
          "name": "C4",
          "midi": 60,
          "time": 102.0778199999999,
          "velocity": 0.6299212598425197,
          "duration": 0.3887983125000005
        },
        {
          "name": "E4",
          "midi": 64,
          "time": 102.46742999999991,
          "velocity": 0.6299212598425197,
          "duration": 0.19399331249999818
        },
        {
          "name": "E4",
          "midi": 64,
          "time": 102.66223499999991,
          "velocity": 0.6299212598425197,
          "duration": 0.19399331249999818
        },
        {
          "name": "F4",
          "midi": 65,
          "time": 102.85703999999991,
          "velocity": 0.6299212598425197,
          "duration": 0.19399331249999818
        },
        {
          "name": "F4",
          "midi": 65,
          "time": 103.05184499999991,
          "velocity": 0.6299212598425197,
          "duration": 0.19399331249999818
        },
        {
          "name": "A4",
          "midi": 69,
          "time": 103.24664999999992,
          "velocity": 0.6299212598425197,
          "duration": 0.3887983125000005
        },
        {
          "name": "C4",
          "midi": 60,
          "time": 103.63625999999992,
          "velocity": 0.6299212598425197,
          "duration": 0.3887983125000005
        },
        {
          "name": "E4",
          "midi": 64,
          "time": 104.02586999999993,
          "velocity": 0.6299212598425197,
          "duration": 0.19399331249999818
        },
        {
          "name": "E4",
          "midi": 64,
          "time": 104.22067499999993,
          "velocity": 0.6299212598425197,
          "duration": 0.19399331249999818
        },
        {
          "name": "F4",
          "midi": 65,
          "time": 104.41547999999993,
          "velocity": 0.6299212598425197,
          "duration": 0.19399331249999818
        },
        {
          "name": "F4",
          "midi": 65,
          "time": 104.61028499999993,
          "velocity": 0.6299212598425197,
          "duration": 0.19399331249999818
        },
        {
          "name": "A4",
          "midi": 69,
          "time": 104.80508999999994,
          "velocity": 0.6299212598425197,
          "duration": 0.3887983125000005
        },
        {
          "name": "C4",
          "midi": 60,
          "time": 105.58430999999993,
          "velocity": 0.6299212598425197,
          "duration": 0.3887983125000005
        },
        {
          "name": "A4",
          "midi": 69,
          "time": 105.97391999999994,
          "velocity": 0.6299212598425197,
          "duration": 0.3887983125000005
        },
        {
          "name": "A4",
          "midi": 69,
          "time": 106.75313999999993,
          "velocity": 0.6299212598425197,
          "duration": 0.19399331249999818
        },
        {
          "name": "A4",
          "midi": 69,
          "time": 106.94794499999993,
          "velocity": 0.6299212598425197,
          "duration": 0.19399331249999818
        },
        {
          "name": "E4",
          "midi": 64,
          "time": 107.14274999999994,
          "velocity": 0.6299212598425197,
          "duration": 0.3887983125000005
        },
        {
          "name": "F4",
          "midi": 65,
          "time": 107.53235999999994,
          "velocity": 0.6299212598425197,
          "duration": 0.3887983125000005
        },
        {
          "name": "F4",
          "midi": 65,
          "time": 107.92196999999994,
          "velocity": 0.6299212598425197,
          "duration": 0.3887983125000005
        },
        {
          "name": "C4",
          "midi": 60,
          "time": 108.31157999999995,
          "velocity": 0.6299212598425197,
          "duration": 0.19399331249999818
        },
        {
          "name": "A4",
          "midi": 69,
          "time": 108.50638499999995,
          "velocity": 0.6299212598425197,
          "duration": 0.19399331249999818
        },
        {
          "name": "C4",
          "midi": 60,
          "time": 108.70118999999995,
          "velocity": 0.6299212598425197,
          "duration": 0.19399331249999818
        },
        {
          "name": "A4",
          "midi": 69,
          "time": 108.89599499999996,
          "velocity": 0.6299212598425197,
          "duration": 0.19399331249999818
        },
        {
          "name": "C4",
          "midi": 60,
          "time": 109.09079999999996,
          "velocity": 0.6299212598425197,
          "duration": 0.19399331249999818
        },
        {
          "name": "A4",
          "midi": 69,
          "time": 109.28560499999996,
          "velocity": 0.6299212598425197,
          "duration": 0.19399331249999818
        },
        {
          "name": "C4",
          "midi": 60,
          "time": 109.48040999999996,
          "velocity": 0.6299212598425197,
          "duration": 0.19399331249999818
        },
        {
          "name": "A4",
          "midi": 69,
          "time": 109.67521499999997,
          "velocity": 0.6299212598425197,
          "duration": 0.19399331249999818
        },
        {
          "name": "C4",
          "midi": 60,
          "time": 109.87001999999997,
          "velocity": 0.6299212598425197,
          "duration": 0.19399331249999818
        },
        {
          "name": "A4",
          "midi": 69,
          "time": 110.06482499999997,
          "velocity": 0.6299212598425197,
          "duration": 0.19399331249999818
        },
        {
          "name": "C4",
          "midi": 60,
          "time": 110.25962999999997,
          "velocity": 0.6299212598425197,
          "duration": 0.19399331249999818
        },
        {
          "name": "A4",
          "midi": 69,
          "time": 110.45443499999998,
          "velocity": 0.6299212598425197,
          "duration": 0.19399331249999818
        },
        {
          "name": "C4",
          "midi": 60,
          "time": 110.64923999999998,
          "velocity": 0.6299212598425197,
          "duration": 0.19399331249999818
        },
        {
          "name": "A4",
          "midi": 69,
          "time": 110.84404499999998,
          "velocity": 0.6299212598425197,
          "duration": 0.19399331249999818
        },
        {
          "name": "C4",
          "midi": 60,
          "time": 111.03884999999998,
          "velocity": 0.6299212598425197,
          "duration": 0.3887983125000005
        },
        {
          "name": "C4",
          "midi": 60,
          "time": 111.42845999999999,
          "velocity": 0.6299212598425197,
          "duration": 0.3887983125000005
        },
        {
          "name": "E4",
          "midi": 64,
          "time": 111.42845999999999,
          "velocity": 0.6299212598425197,
          "duration": 0.3887983125000005
        },
        {
          "name": "F4",
          "midi": 65,
          "time": 111.81806999999999,
          "velocity": 0.6299212598425197,
          "duration": 0.3887983125000005
        },
        {
          "name": "A4",
          "midi": 69,
          "time": 111.81806999999999,
          "velocity": 0.6299212598425197,
          "duration": 0.3887983125000005
        },
        {
          "name": "C4",
          "midi": 60,
          "time": 112.20768,
          "velocity": 0.6299212598425197,
          "duration": 0.3887983125000005
        },
        {
          "name": "E4",
          "midi": 64,
          "time": 112.59729,
          "velocity": 0.6299212598425197,
          "duration": 0.19399331249999818
        },
        {
          "name": "E4",
          "midi": 64,
          "time": 112.792095,
          "velocity": 0.6299212598425197,
          "duration": 0.19399331249999818
        },
        {
          "name": "F4",
          "midi": 65,
          "time": 112.9869,
          "velocity": 0.6299212598425197,
          "duration": 0.3887983125000005
        },
        {
          "name": "A4",
          "midi": 69,
          "time": 113.37651000000001,
          "velocity": 0.6299212598425197,
          "duration": 0.19399331249999818
        },
        {
          "name": "A4",
          "midi": 69,
          "time": 113.57131500000001,
          "velocity": 0.6299212598425197,
          "duration": 0.19399331249999818
        },
        {
          "name": "A4",
          "midi": 69,
          "time": 113.76612000000002,
          "velocity": 0.6299212598425197,
          "duration": 0.3887983125000005
        },
        {
          "name": "F4",
          "midi": 65,
          "time": 114.15573000000002,
          "velocity": 0.6299212598425197,
          "duration": 0.19399331249999818
        },
        {
          "name": "F4",
          "midi": 65,
          "time": 114.35053500000002,
          "velocity": 0.6299212598425197,
          "duration": 0.19399331249999818
        },
        {
          "name": "E4",
          "midi": 64,
          "time": 114.54534000000002,
          "velocity": 0.6299212598425197,
          "duration": 0.3887983125000005
        },
        {
          "name": "C4",
          "midi": 60,
          "time": 114.93495000000003,
          "velocity": 0.6299212598425197,
          "duration": 0.19399331249999818
        },
        {
          "name": "C4",
          "midi": 60,
          "time": 115.12975500000003,
          "velocity": 0.6299212598425197,
          "duration": 0.19399331249999818
        },
        {
          "name": "C4",
          "midi": 60,
          "time": 115.32456000000003,
          "velocity": 0.6299212598425197,
          "duration": 0.3887983125000005
        },
        {
          "name": "E4",
          "midi": 64,
          "time": 115.71417000000004,
          "velocity": 0.6299212598425197,
          "duration": 0.19399331249999818
        },
        {
          "name": "E4",
          "midi": 64,
          "time": 115.90897500000004,
          "velocity": 0.6299212598425197,
          "duration": 0.19399331249999818
        },
        {
          "name": "F4",
          "midi": 65,
          "time": 116.10378000000004,
          "velocity": 0.6299212598425197,
          "duration": 0.3887983125000005
        },
        {
          "name": "A4",
          "midi": 69,
          "time": 116.49339000000005,
          "velocity": 0.6299212598425197,
          "duration": 0.19399331249999818
        },
        {
          "name": "A4",
          "midi": 69,
          "time": 116.68819500000005,
          "velocity": 0.6299212598425197,
          "duration": 0.19399331249999818
        },
        {
          "name": "A4",
          "midi": 69,
          "time": 116.88300000000005,
          "velocity": 0.6299212598425197,
          "duration": 0.3887983125000005
        },
        {
          "name": "F4",
          "midi": 65,
          "time": 117.27261000000006,
          "velocity": 0.6299212598425197,
          "duration": 0.19399331249999818
        },
        {
          "name": "F4",
          "midi": 65,
          "time": 117.46741500000006,
          "velocity": 0.6299212598425197,
          "duration": 0.19399331249999818
        },
        {
          "name": "E4",
          "midi": 64,
          "time": 117.66222000000006,
          "velocity": 0.6299212598425197,
          "duration": 0.3887983125000005
        },
        {
          "name": "C4",
          "midi": 60,
          "time": 118.05183000000007,
          "velocity": 0.6299212598425197,
          "duration": 0.19399331249999818
        },
        {
          "name": "C4",
          "midi": 60,
          "time": 118.24663500000007,
          "velocity": 0.6299212598425197,
          "duration": 0.19399331249999818
        },
        {
          "name": "C4",
          "midi": 60,
          "time": 118.44144000000007,
          "velocity": 0.6299212598425197,
          "duration": 0.3887983125000005
        },
        {
          "name": "F4",
          "midi": 65,
          "time": 118.83105000000008,
          "velocity": 0.6299212598425197,
          "duration": 0.19399331249999818
        },
        {
          "name": "F4",
          "midi": 65,
          "time": 119.02585500000008,
          "velocity": 0.6299212598425197,
          "duration": 0.19399331249999818
        },
        {
          "name": "E4",
          "midi": 64,
          "time": 119.22066000000008,
          "velocity": 0.6299212598425197,
          "duration": 0.3887983125000005
        },
        {
          "name": "A4",
          "midi": 69,
          "time": 119.61027000000009,
          "velocity": 0.6299212598425197,
          "duration": 0.19399331249999818
        },
        {
          "name": "A4",
          "midi": 69,
          "time": 119.80507500000009,
          "velocity": 0.6299212598425197,
          "duration": 0.19399331249999818
        },
        {
          "name": "A4",
          "midi": 69,
          "time": 119.99988000000009,
          "velocity": 0.6299212598425197,
          "duration": 0.3887983125000005
        },
        {
          "name": "E4",
          "midi": 64,
          "time": 120.3894900000001,
          "velocity": 0.6299212598425197,
          "duration": 0.19399331249999818
        },
        {
          "name": "E4",
          "midi": 64,
          "time": 120.5842950000001,
          "velocity": 0.6299212598425197,
          "duration": 0.19399331249999818
        },
        {
          "name": "F4",
          "midi": 65,
          "time": 120.7791000000001,
          "velocity": 0.6299212598425197,
          "duration": 0.3887983125000005
        },
        {
          "name": "C4",
          "midi": 60,
          "time": 121.1687100000001,
          "velocity": 0.6299212598425197,
          "duration": 0.19399331249999818
        },
        {
          "name": "C4",
          "midi": 60,
          "time": 121.3635150000001,
          "velocity": 0.6299212598425197,
          "duration": 0.19399331249999818
        },
        {
          "name": "C4",
          "midi": 60,
          "time": 121.55832000000011,
          "velocity": 0.6299212598425197,
          "duration": 0.3887983125000005
        },
        {
          "name": "F4",
          "midi": 65,
          "time": 121.94793000000011,
          "velocity": 0.6299212598425197,
          "duration": 0.19399331249999818
        },
        {
          "name": "F4",
          "midi": 65,
          "time": 122.14273500000012,
          "velocity": 0.6299212598425197,
          "duration": 0.19399331249999818
        },
        {
          "name": "E4",
          "midi": 64,
          "time": 122.33754000000012,
          "velocity": 0.6299212598425197,
          "duration": 0.3887983125000005
        },
        {
          "name": "A4",
          "midi": 69,
          "time": 122.72715000000012,
          "velocity": 0.6299212598425197,
          "duration": 0.19399331249999818
        },
        {
          "name": "A4",
          "midi": 69,
          "time": 122.92195500000012,
          "velocity": 0.6299212598425197,
          "duration": 0.19399331249999818
        },
        {
          "name": "A4",
          "midi": 69,
          "time": 123.11676000000013,
          "velocity": 0.6299212598425197,
          "duration": 0.3887983125000005
        },
        {
          "name": "E4",
          "midi": 64,
          "time": 123.50637000000013,
          "velocity": 0.6299212598425197,
          "duration": 0.19399331249999818
        },
        {
          "name": "E4",
          "midi": 64,
          "time": 123.70117500000013,
          "velocity": 0.6299212598425197,
          "duration": 0.19399331249999818
        },
        {
          "name": "E4",
          "midi": 64,
          "time": 123.89598000000014,
          "velocity": 0.6299212598425197,
          "duration": 0.3887983125000005
        },
        {
          "name": "C4",
          "midi": 60,
          "time": 124.28559000000014,
          "velocity": 0.6299212598425197,
          "duration": 0.19399331249999818
        },
        {
          "name": "C4",
          "midi": 60,
          "time": 124.48039500000014,
          "velocity": 0.6299212598425197,
          "duration": 0.19399331249999818
        },
        {
          "name": "E4",
          "midi": 64,
          "time": 124.67520000000015,
          "velocity": 0.6299212598425197,
          "duration": 0.19399331249999818
        },
        {
          "name": "E4",
          "midi": 64,
          "time": 124.87000500000015,
          "velocity": 0.6299212598425197,
          "duration": 0.19399331249999818
        },
        {
          "name": "F4",
          "midi": 65,
          "time": 125.06481000000015,
          "velocity": 0.6299212598425197,
          "duration": 0.3887983125000005
        },
        {
          "name": "A4",
          "midi": 69,
          "time": 125.45442000000016,
          "velocity": 0.6299212598425197,
          "duration": 0.3887983125000005
        },
        {
          "name": "A4",
          "midi": 69,
          "time": 127.01286000000016,
          "velocity": 0.6299212598425197,
          "duration": 0.3887983125000005
        },
        {
          "name": "F4",
          "midi": 65,
          "time": 127.40247000000016,
          "velocity": 0.6299212598425197,
          "duration": 0.3887983125000005
        },
        {
          "name": "F4",
          "midi": 65,
          "time": 127.79208000000017,
          "velocity": 0.6299212598425197,
          "duration": 0.19399331249999818
        },
        {
          "name": "F4",
          "midi": 65,
          "time": 127.98688500000017,
          "velocity": 0.6299212598425197,
          "duration": 0.19399331249999818
        },
        {
          "name": "E4",
          "midi": 64,
          "time": 128.18169000000017,
          "velocity": 0.6299212598425197,
          "duration": 0.3887983125000005
        },
        {
          "name": "C4",
          "midi": 60,
          "time": 128.57130000000018,
          "velocity": 0.6299212598425197,
          "duration": 0.3887983125000005
        },
        {
          "name": "F4",
          "midi": 65,
          "time": 130.51935000000017,
          "velocity": 0.6299212598425197,
          "duration": 0.3887983125000005
        },
        {
          "name": "E4",
          "midi": 64,
          "time": 130.90896000000018,
          "velocity": 0.6299212598425197,
          "duration": 0.3887983125000005
        },
        {
          "name": "F4",
          "midi": 65,
          "time": 131.29857000000018,
          "velocity": 0.6299212598425197,
          "duration": 0.3887983125000005
        },
        {
          "name": "C4",
          "midi": 60,
          "time": 131.6881800000002,
          "velocity": 0.6299212598425197,
          "duration": 0.3887983125000005
        },
        {
          "name": "E4",
          "midi": 64,
          "time": 132.8570100000002,
          "velocity": 0.6299212598425197,
          "duration": 0.19399331249999818
        },
        {
          "name": "F4",
          "midi": 65,
          "time": 133.0518150000002,
          "velocity": 0.6299212598425197,
          "duration": 0.19399331249999818
        },
        {
          "name": "C4",
          "midi": 60,
          "time": 133.2466200000002,
          "velocity": 0.6299212598425197,
          "duration": 0.3887983125000005
        },
        {
          "name": "C4",
          "midi": 60,
          "time": 133.6362300000002,
          "velocity": 0.6299212598425197,
          "duration": 0.3887983125000005
        },
        {
          "name": "D4",
          "midi": 62,
          "time": 134.02584000000022,
          "velocity": 0.6299212598425197,
          "duration": 0.3887983125000005
        },
        {
          "name": "E4",
          "midi": 64,
          "time": 134.41545000000022,
          "velocity": 0.6299212598425197,
          "duration": 0.19399331249999818
        },
        {
          "name": "F4",
          "midi": 65,
          "time": 134.61025500000022,
          "velocity": 0.6299212598425197,
          "duration": 0.19399331249999818
        },
        {
          "name": "E4",
          "midi": 64,
          "time": 134.80506000000022,
          "velocity": 0.6299212598425197,
          "duration": 0.19399331249999818
        },
        {
          "name": "F4",
          "midi": 65,
          "time": 134.99986500000023,
          "velocity": 0.6299212598425197,
          "duration": 0.19399331249999818
        },
        {
          "name": "E4",
          "midi": 64,
          "time": 135.19467000000023,
          "velocity": 0.6299212598425197,
          "duration": 0.19399331249999818
        },
        {
          "name": "F4",
          "midi": 65,
          "time": 135.38947500000023,
          "velocity": 0.6299212598425197,
          "duration": 0.19399331249999818
        },
        {
          "name": "E4",
          "midi": 64,
          "time": 135.58428000000023,
          "velocity": 0.6299212598425197,
          "duration": 0.19399331249999818
        },
        {
          "name": "F4",
          "midi": 65,
          "time": 135.77908500000024,
          "velocity": 0.6299212598425197,
          "duration": 0.19399331249999818
        },
        {
          "name": "E4",
          "midi": 64,
          "time": 135.97389000000024,
          "velocity": 0.6299212598425197,
          "duration": 0.19399331249999818
        },
        {
          "name": "F4",
          "midi": 65,
          "time": 136.16869500000024,
          "velocity": 0.6299212598425197,
          "duration": 0.19399331249999818
        },
        {
          "name": "E4",
          "midi": 64,
          "time": 136.36350000000024,
          "velocity": 0.6299212598425197,
          "duration": 0.19399331249999818
        },
        {
          "name": "F4",
          "midi": 65,
          "time": 136.55830500000025,
          "velocity": 0.6299212598425197,
          "duration": 0.19399331249999818
        },
        {
          "name": "E4",
          "midi": 64,
          "time": 136.75311000000025,
          "velocity": 0.6299212598425197,
          "duration": 0.19399331249999818
        },
        {
          "name": "F4",
          "midi": 65,
          "time": 136.94791500000025,
          "velocity": 0.6299212598425197,
          "duration": 0.19399331249999818
        },
        {
          "name": "E4",
          "midi": 64,
          "time": 137.14272000000025,
          "velocity": 0.6299212598425197,
          "duration": 0.3887983125000005
        },
        {
          "name": "C4",
          "midi": 60,
          "time": 137.92194000000026,
          "velocity": 0.6299212598425197,
          "duration": 0.3887983125000005
        },
        {
          "name": "E4",
          "midi": 64,
          "time": 137.92194000000026,
          "velocity": 0.6299212598425197,
          "duration": 0.3887983125000005
        },
        {
          "name": "C4",
          "midi": 60,
          "time": 138.31155000000027,
          "velocity": 0.6299212598425197,
          "duration": 0.3887983125000005
        },
        {
          "name": "E4",
          "midi": 64,
          "time": 138.31155000000027,
          "velocity": 0.6299212598425197,
          "duration": 0.3887983125000005
        },
        {
          "name": "E4",
          "midi": 64,
          "time": 139.09077000000028,
          "velocity": 0.6299212598425197,
          "duration": 0.3887983125000005
        },
        {
          "name": "F4",
          "midi": 65,
          "time": 139.09077000000028,
          "velocity": 0.6299212598425197,
          "duration": 0.3887983125000005
        },
        {
          "name": "F4",
          "midi": 65,
          "time": 139.48038000000028,
          "velocity": 0.6299212598425197,
          "duration": 0.3887983125000005
        },
        {
          "name": "A4",
          "midi": 69,
          "time": 139.48038000000028,
          "velocity": 0.6299212598425197,
          "duration": 0.3887983125000005
        },
        {
          "name": "F4",
          "midi": 65,
          "time": 139.86999000000029,
          "velocity": 0.6299212598425197,
          "duration": 0.3887983125000005
        },
        {
          "name": "A4",
          "midi": 69,
          "time": 139.86999000000029,
          "velocity": 0.6299212598425197,
          "duration": 0.3887983125000005
        },
        {
          "name": "C4",
          "midi": 60,
          "time": 141.0388200000003,
          "velocity": 0.6299212598425197,
          "duration": 0.3887983125000005
        },
        {
          "name": "E4",
          "midi": 64,
          "time": 141.0388200000003,
          "velocity": 0.6299212598425197,
          "duration": 0.3887983125000005
        },
        {
          "name": "E4",
          "midi": 64,
          "time": 141.4284300000003,
          "velocity": 0.6299212598425197,
          "duration": 0.19399331249999818
        },
        {
          "name": "F4",
          "midi": 65,
          "time": 141.4284300000003,
          "velocity": 0.6299212598425197,
          "duration": 0.19399331249999818
        },
        {
          "name": "E4",
          "midi": 64,
          "time": 141.6232350000003,
          "velocity": 0.6299212598425197,
          "duration": 0.19399331249999818
        },
        {
          "name": "F4",
          "midi": 65,
          "time": 141.6232350000003,
          "velocity": 0.6299212598425197,
          "duration": 0.19399331249999818
        },
        {
          "name": "E4",
          "midi": 64,
          "time": 141.8180400000003,
          "velocity": 0.6299212598425197,
          "duration": 0.19399331249999818
        },
        {
          "name": "F4",
          "midi": 65,
          "time": 141.8180400000003,
          "velocity": 0.6299212598425197,
          "duration": 0.19399331249999818
        },
        {
          "name": "E4",
          "midi": 64,
          "time": 142.0128450000003,
          "velocity": 0.6299212598425197,
          "duration": 0.19399331249999818
        },
        {
          "name": "F4",
          "midi": 65,
          "time": 142.0128450000003,
          "velocity": 0.6299212598425197,
          "duration": 0.19399331249999818
        },
        {
          "name": "F4",
          "midi": 65,
          "time": 142.2076500000003,
          "velocity": 0.6299212598425197,
          "duration": 0.3887983125000005
        },
        {
          "name": "A4",
          "midi": 69,
          "time": 142.2076500000003,
          "velocity": 0.6299212598425197,
          "duration": 0.3887983125000005
        },
        {
          "name": "F4",
          "midi": 65,
          "time": 142.59726000000032,
          "velocity": 0.6299212598425197,
          "duration": 0.3887983125000005
        },
        {
          "name": "A4",
          "midi": 69,
          "time": 142.59726000000032,
          "velocity": 0.6299212598425197,
          "duration": 0.3887983125000005
        },
        {
          "name": "E4",
          "midi": 64,
          "time": 142.98687000000032,
          "velocity": 0.6299212598425197,
          "duration": 0.19399331249999818
        },
        {
          "name": "F4",
          "midi": 65,
          "time": 142.98687000000032,
          "velocity": 0.6299212598425197,
          "duration": 0.19399331249999818
        },
        {
          "name": "C4",
          "midi": 60,
          "time": 143.18167500000033,
          "velocity": 0.6299212598425197,
          "duration": 0.19399331249999818
        },
        {
          "name": "E4",
          "midi": 64,
          "time": 143.18167500000033,
          "velocity": 0.6299212598425197,
          "duration": 0.19399331249999818
        },
        {
          "name": "E4",
          "midi": 64,
          "time": 143.37648000000033,
          "velocity": 0.6299212598425197,
          "duration": 0.19399331249999818
        },
        {
          "name": "F4",
          "midi": 65,
          "time": 143.37648000000033,
          "velocity": 0.6299212598425197,
          "duration": 0.19399331249999818
        },
        {
          "name": "C4",
          "midi": 60,
          "time": 143.57128500000033,
          "velocity": 0.6299212598425197,
          "duration": 0.19399331249999818
        },
        {
          "name": "E4",
          "midi": 64,
          "time": 143.57128500000033,
          "velocity": 0.6299212598425197,
          "duration": 0.19399331249999818
        },
        {
          "name": "F4",
          "midi": 65,
          "time": 143.76609000000033,
          "velocity": 0.6299212598425197,
          "duration": 0.3887983125000005
        },
        {
          "name": "A4",
          "midi": 69,
          "time": 143.76609000000033,
          "velocity": 0.6299212598425197,
          "duration": 0.3887983125000005
        },
        {
          "name": "F4",
          "midi": 65,
          "time": 144.54531000000034,
          "velocity": 0.6299212598425197,
          "duration": 0.3887983125000005
        },
        {
          "name": "A4",
          "midi": 69,
          "time": 144.54531000000034,
          "velocity": 0.6299212598425197,
          "duration": 0.3887983125000005
        },
        {
          "name": "C4",
          "midi": 60,
          "time": 144.93492000000035,
          "velocity": 0.6299212598425197,
          "duration": 0.3887983125000005
        },
        {
          "name": "E4",
          "midi": 64,
          "time": 144.93492000000035,
          "velocity": 0.6299212598425197,
          "duration": 0.3887983125000005
        },
        {
          "name": "E4",
          "midi": 64,
          "time": 145.32453000000035,
          "velocity": 0.6299212598425197,
          "duration": 0.3887983125000005
        },
        {
          "name": "F4",
          "midi": 65,
          "time": 145.32453000000035,
          "velocity": 0.6299212598425197,
          "duration": 0.3887983125000005
        },
        {
          "name": "F4",
          "midi": 65,
          "time": 145.71414000000036,
          "velocity": 0.6299212598425197,
          "duration": 0.19399331249999818
        },
        {
          "name": "A4",
          "midi": 69,
          "time": 145.71414000000036,
          "velocity": 0.6299212598425197,
          "duration": 0.19399331249999818
        },
        {
          "name": "F4",
          "midi": 65,
          "time": 145.90894500000036,
          "velocity": 0.6299212598425197,
          "duration": 0.19399331249999818
        },
        {
          "name": "A4",
          "midi": 69,
          "time": 145.90894500000036,
          "velocity": 0.6299212598425197,
          "duration": 0.19399331249999818
        },
        {
          "name": "C4",
          "midi": 60,
          "time": 146.49336000000037,
          "velocity": 0.6299212598425197,
          "duration": 0.3887983125000005
        },
        {
          "name": "A4",
          "midi": 69,
          "time": 146.49336000000037,
          "velocity": 0.6299212598425197,
          "duration": 0.3887983125000005
        },
        {
          "name": "C4",
          "midi": 60,
          "time": 146.88297000000037,
          "velocity": 0.6299212598425197,
          "duration": 0.3887983125000005
        },
        {
          "name": "A4",
          "midi": 69,
          "time": 146.88297000000037,
          "velocity": 0.6299212598425197,
          "duration": 0.3887983125000005
        },
        {
          "name": "C4",
          "midi": 60,
          "time": 149.99985000000038,
          "velocity": 0.6299212598425197,
          "duration": 0.3887983125000005
        },
        {
          "name": "E4",
          "midi": 64,
          "time": 149.99985000000038,
          "velocity": 0.6299212598425197,
          "duration": 0.3887983125000005
        },
        {
          "name": "C4",
          "midi": 60,
          "time": 150.7790700000004,
          "velocity": 0.6299212598425197,
          "duration": 0.3887983125000005
        },
        {
          "name": "E4",
          "midi": 64,
          "time": 150.7790700000004,
          "velocity": 0.6299212598425197,
          "duration": 0.3887983125000005
        },
        {
          "name": "E4",
          "midi": 64,
          "time": 151.5582900000004,
          "velocity": 0.6299212598425197,
          "duration": 0.3887983125000005
        },
        {
          "name": "F4",
          "midi": 65,
          "time": 151.5582900000004,
          "velocity": 0.6299212598425197,
          "duration": 0.3887983125000005
        },
        {
          "name": "E4",
          "midi": 64,
          "time": 151.9479000000004,
          "velocity": 0.6299212598425197,
          "duration": 0.3887983125000005
        },
        {
          "name": "F4",
          "midi": 65,
          "time": 151.9479000000004,
          "velocity": 0.6299212598425197,
          "duration": 0.3887983125000005
        },
        {
          "name": "F4",
          "midi": 65,
          "time": 152.3375100000004,
          "velocity": 0.6299212598425197,
          "duration": 0.3887983125000005
        },
        {
          "name": "F4",
          "midi": 65,
          "time": 152.7271200000004,
          "velocity": 0.6299212598425197,
          "duration": 0.3887983125000005
        },
        {
          "name": "C4",
          "midi": 60,
          "time": 153.50634000000042,
          "velocity": 0.6299212598425197,
          "duration": 0.3887983125000005
        },
        {
          "name": "E4",
          "midi": 64,
          "time": 153.89595000000043,
          "velocity": 0.6299212598425197,
          "duration": 0.19399331249999818
        },
        {
          "name": "E4",
          "midi": 64,
          "time": 154.09075500000043,
          "velocity": 0.6299212598425197,
          "duration": 0.19399331249999818
        },
        {
          "name": "F4",
          "midi": 65,
          "time": 154.28556000000043,
          "velocity": 0.6299212598425197,
          "duration": 0.19399331249999818
        },
        {
          "name": "F4",
          "midi": 65,
          "time": 154.48036500000043,
          "velocity": 0.6299212598425197,
          "duration": 0.19399331249999818
        },
        {
          "name": "A4",
          "midi": 69,
          "time": 154.67517000000043,
          "velocity": 0.6299212598425197,
          "duration": 0.3887983125000005
        },
        {
          "name": "C4",
          "midi": 60,
          "time": 155.06478000000044,
          "velocity": 0.6299212598425197,
          "duration": 0.3887983125000005
        },
        {
          "name": "E4",
          "midi": 64,
          "time": 155.06478000000044,
          "velocity": 0.6299212598425197,
          "duration": 0.3887983125000005
        },
        {
          "name": "E4",
          "midi": 64,
          "time": 155.45439000000044,
          "velocity": 0.6299212598425197,
          "duration": 0.19399331249999818
        },
        {
          "name": "F4",
          "midi": 65,
          "time": 155.45439000000044,
          "velocity": 0.6299212598425197,
          "duration": 0.19399331249999818
        },
        {
          "name": "E4",
          "midi": 64,
          "time": 155.64919500000045,
          "velocity": 0.6299212598425197,
          "duration": 0.19399331249999818
        },
        {
          "name": "F4",
          "midi": 65,
          "time": 155.64919500000045,
          "velocity": 0.6299212598425197,
          "duration": 0.19399331249999818
        },
        {
          "name": "E4",
          "midi": 64,
          "time": 155.84400000000045,
          "velocity": 0.6299212598425197,
          "duration": 0.19399331249999818
        },
        {
          "name": "F4",
          "midi": 65,
          "time": 155.84400000000045,
          "velocity": 0.6299212598425197,
          "duration": 0.19399331249999818
        },
        {
          "name": "E4",
          "midi": 64,
          "time": 156.03880500000045,
          "velocity": 0.6299212598425197,
          "duration": 0.19399331249999818
        },
        {
          "name": "F4",
          "midi": 65,
          "time": 156.03880500000045,
          "velocity": 0.6299212598425197,
          "duration": 0.19399331249999818
        },
        {
          "name": "F4",
          "midi": 65,
          "time": 156.23361000000045,
          "velocity": 0.6299212598425197,
          "duration": 0.3887983125000005
        },
        {
          "name": "A4",
          "midi": 69,
          "time": 156.23361000000045,
          "velocity": 0.6299212598425197,
          "duration": 0.3887983125000005
        },
        {
          "name": "C4",
          "midi": 60,
          "time": 156.62322000000046,
          "velocity": 0.6299212598425197,
          "duration": 0.3887983125000005
        },
        {
          "name": "A4",
          "midi": 69,
          "time": 156.62322000000046,
          "velocity": 0.6299212598425197,
          "duration": 0.3887983125000005
        },
        {
          "name": "C4",
          "midi": 60,
          "time": 157.40244000000047,
          "velocity": 0.6299212598425197,
          "duration": 0.3887983125000005
        },
        {
          "name": "A4",
          "midi": 69,
          "time": 157.40244000000047,
          "velocity": 0.6299212598425197,
          "duration": 0.3887983125000005
        },
        {
          "name": "E4",
          "midi": 64,
          "time": 158.18166000000048,
          "velocity": 0.6299212598425197,
          "duration": 0.19399331249999818
        },
        {
          "name": "F4",
          "midi": 65,
          "time": 158.18166000000048,
          "velocity": 0.6299212598425197,
          "duration": 0.19399331249999818
        },
        {
          "name": "E4",
          "midi": 64,
          "time": 158.37646500000048,
          "velocity": 0.6299212598425197,
          "duration": 0.19399331249999818
        },
        {
          "name": "F4",
          "midi": 65,
          "time": 158.37646500000048,
          "velocity": 0.6299212598425197,
          "duration": 0.19399331249999818
        },
        {
          "name": "F4",
          "midi": 65,
          "time": 158.57127000000048,
          "velocity": 0.6299212598425197,
          "duration": 0.3887983125000005
        },
        {
          "name": "A4",
          "midi": 69,
          "time": 158.57127000000048,
          "velocity": 0.6299212598425197,
          "duration": 0.3887983125000005
        },
        {
          "name": "C4",
          "midi": 60,
          "time": 158.9608800000005,
          "velocity": 0.6299212598425197,
          "duration": 0.3887983125000005
        },
        {
          "name": "E4",
          "midi": 64,
          "time": 158.9608800000005,
          "velocity": 0.6299212598425197,
          "duration": 0.3887983125000005
        },
        {
          "name": "F4",
          "midi": 65,
          "time": 159.3504900000005,
          "velocity": 0.6299212598425197,
          "duration": 0.3887983125000005
        },
        {
          "name": "A4",
          "midi": 69,
          "time": 159.3504900000005,
          "velocity": 0.6299212598425197,
          "duration": 0.3887983125000005
        },
        {
          "name": "C4",
          "midi": 60,
          "time": 159.7401000000005,
          "velocity": 0.6299212598425197,
          "duration": 0.19399331249999818
        },
        {
          "name": "A4",
          "midi": 69,
          "time": 159.9349050000005,
          "velocity": 0.6299212598425197,
          "duration": 0.19399331249999818
        },
        {
          "name": "C4",
          "midi": 60,
          "time": 160.1297100000005,
          "velocity": 0.6299212598425197,
          "duration": 0.19399331249999818
        },
        {
          "name": "A4",
          "midi": 69,
          "time": 160.3245150000005,
          "velocity": 0.6299212598425197,
          "duration": 0.19399331249999818
        },
        {
          "name": "C4",
          "midi": 60,
          "time": 160.5193200000005,
          "velocity": 0.6299212598425197,
          "duration": 0.19399331249999818
        },
        {
          "name": "A4",
          "midi": 69,
          "time": 160.7141250000005,
          "velocity": 0.6299212598425197,
          "duration": 0.19399331249999818
        },
        {
          "name": "C4",
          "midi": 60,
          "time": 160.9089300000005,
          "velocity": 0.6299212598425197,
          "duration": 0.19399331249999818
        },
        {
          "name": "A4",
          "midi": 69,
          "time": 161.1037350000005,
          "velocity": 0.6299212598425197,
          "duration": 0.19399331249999818
        },
        {
          "name": "C4",
          "midi": 60,
          "time": 161.29854000000051,
          "velocity": 0.6299212598425197,
          "duration": 0.19399331249999818
        },
        {
          "name": "A4",
          "midi": 69,
          "time": 161.49334500000052,
          "velocity": 0.6299212598425197,
          "duration": 0.19399331249999818
        },
        {
          "name": "C4",
          "midi": 60,
          "time": 161.68815000000052,
          "velocity": 0.6299212598425197,
          "duration": 0.19399331249999818
        },
        {
          "name": "A4",
          "midi": 69,
          "time": 161.88295500000052,
          "velocity": 0.6299212598425197,
          "duration": 0.19399331249999818
        },
        {
          "name": "C4",
          "midi": 60,
          "time": 162.07776000000052,
          "velocity": 0.6299212598425197,
          "duration": 0.19399331249999818
        },
        {
          "name": "A4",
          "midi": 69,
          "time": 162.27256500000053,
          "velocity": 0.6299212598425197,
          "duration": 0.19399331249999818
        },
        {
          "name": "C4",
          "midi": 60,
          "time": 162.46737000000053,
          "velocity": 0.6299212598425197,
          "duration": 0.3887983125000005
        },
        {
          "name": "E4",
          "midi": 64,
          "time": 162.46737000000053,
          "velocity": 0.6299212598425197,
          "duration": 0.3887983125000005
        },
        {
          "name": "C4",
          "midi": 60,
          "time": 162.85698000000053,
          "velocity": 0.6299212598425197,
          "duration": 0.3887983125000005
        },
        {
          "name": "F4",
          "midi": 65,
          "time": 162.85698000000053,
          "velocity": 0.6299212598425197,
          "duration": 0.3887983125000005
        },
        {
          "name": "C4",
          "midi": 60,
          "time": 163.24659000000054,
          "velocity": 0.6299212598425197,
          "duration": 0.3887983125000005
        },
        {
          "name": "A4",
          "midi": 69,
          "time": 163.24659000000054,
          "velocity": 0.6299212598425197,
          "duration": 0.3887983125000005
        },
        {
          "name": "C4",
          "midi": 60,
          "time": 163.63620000000054,
          "velocity": 0.6299212598425197,
          "duration": 0.3887983125000005
        },
        {
          "name": "E4",
          "midi": 64,
          "time": 164.02581000000055,
          "velocity": 0.6299212598425197,
          "duration": 0.3887983125000005
        },
        {
          "name": "C4",
          "midi": 60,
          "time": 164.41542000000055,
          "velocity": 0.6299212598425197,
          "duration": 0.3887983125000005
        },
        {
          "name": "F4",
          "midi": 65,
          "time": 164.41542000000055,
          "velocity": 0.6299212598425197,
          "duration": 0.3887983125000005
        },
        {
          "name": "C4",
          "midi": 60,
          "time": 164.80503000000056,
          "velocity": 0.6299212598425197,
          "duration": 0.3887983125000005
        },
        {
          "name": "A4",
          "midi": 69,
          "time": 164.80503000000056,
          "velocity": 0.6299212598425197,
          "duration": 0.3887983125000005
        },
        {
          "name": "C4",
          "midi": 60,
          "time": 165.19464000000056,
          "velocity": 0.6299212598425197,
          "duration": 0.3887983125000005
        },
        {
          "name": "C4",
          "midi": 60,
          "time": 165.58425000000057,
          "velocity": 0.6299212598425197,
          "duration": 0.3887983125000005
        },
        {
          "name": "C4",
          "midi": 60,
          "time": 165.97386000000057,
          "velocity": 0.6299212598425197,
          "duration": 0.19399331249999818
        },
        {
          "name": "E4",
          "midi": 64,
          "time": 165.97386000000057,
          "velocity": 0.6299212598425197,
          "duration": 0.19399331249999818
        },
        {
          "name": "C4",
          "midi": 60,
          "time": 166.16866500000057,
          "velocity": 0.6299212598425197,
          "duration": 0.19399331249999818
        },
        {
          "name": "E4",
          "midi": 64,
          "time": 166.16866500000057,
          "velocity": 0.6299212598425197,
          "duration": 0.19399331249999818
        },
        {
          "name": "F4",
          "midi": 65,
          "time": 166.36347000000058,
          "velocity": 0.6299212598425197,
          "duration": 0.19399331249999818
        },
        {
          "name": "A4",
          "midi": 69,
          "time": 166.36347000000058,
          "velocity": 0.6299212598425197,
          "duration": 0.19399331249999818
        },
        {
          "name": "F4",
          "midi": 65,
          "time": 166.55827500000058,
          "velocity": 0.6299212598425197,
          "duration": 0.19399331249999818
        },
        {
          "name": "A4",
          "midi": 69,
          "time": 166.55827500000058,
          "velocity": 0.6299212598425197,
          "duration": 0.19399331249999818
        },
        {
          "name": "A4",
          "midi": 69,
          "time": 166.75308000000058,
          "velocity": 0.6299212598425197,
          "duration": 0.3887983125000005
        },
        {
          "name": "A4",
          "midi": 69,
          "time": 167.14269000000058,
          "velocity": 0.6299212598425197,
          "duration": 0.3887983125000005
        },
        {
          "name": "F4",
          "midi": 65,
          "time": 167.5323000000006,
          "velocity": 0.6299212598425197,
          "duration": 0.19399331249999818
        },
        {
          "name": "A4",
          "midi": 69,
          "time": 167.5323000000006,
          "velocity": 0.6299212598425197,
          "duration": 0.19399331249999818
        },
        {
          "name": "C4",
          "midi": 60,
          "time": 167.7271050000006,
          "velocity": 0.6299212598425197,
          "duration": 0.19399331249999818
        },
        {
          "name": "E4",
          "midi": 64,
          "time": 167.7271050000006,
          "velocity": 0.6299212598425197,
          "duration": 0.19399331249999818
        },
        {
          "name": "F4",
          "midi": 65,
          "time": 167.9219100000006,
          "velocity": 0.6299212598425197,
          "duration": 0.19399331249999818
        },
        {
          "name": "A4",
          "midi": 69,
          "time": 167.9219100000006,
          "velocity": 0.6299212598425197,
          "duration": 0.19399331249999818
        },
        {
          "name": "C4",
          "midi": 60,
          "time": 168.1167150000006,
          "velocity": 0.6299212598425197,
          "duration": 0.19399331249999818
        },
        {
          "name": "E4",
          "midi": 64,
          "time": 168.1167150000006,
          "velocity": 0.6299212598425197,
          "duration": 0.19399331249999818
        },
        {
          "name": "A4",
          "midi": 69,
          "time": 168.3115200000006,
          "velocity": 0.6299212598425197,
          "duration": 0.3887983125000005
        },
        {
          "name": "E4",
          "midi": 64,
          "time": 169.0907400000006,
          "velocity": 0.6299212598425197,
          "duration": 0.3887983125000005
        },
        {
          "name": "F4",
          "midi": 65,
          "time": 169.0907400000006,
          "velocity": 0.6299212598425197,
          "duration": 0.3887983125000005
        },
        {
          "name": "F4",
          "midi": 65,
          "time": 169.4803500000006,
          "velocity": 0.6299212598425197,
          "duration": 0.3887983125000005
        },
        {
          "name": "A4",
          "midi": 69,
          "time": 169.4803500000006,
          "velocity": 0.6299212598425197,
          "duration": 0.3887983125000005
        },
        {
          "name": "F4",
          "midi": 65,
          "time": 170.25957000000062,
          "velocity": 0.6299212598425197,
          "duration": 0.19399331249999818
        },
        {
          "name": "A4",
          "midi": 69,
          "time": 170.25957000000062,
          "velocity": 0.6299212598425197,
          "duration": 0.19399331249999818
        },
        {
          "name": "F4",
          "midi": 65,
          "time": 170.45437500000062,
          "velocity": 0.6299212598425197,
          "duration": 0.19399331249999818
        },
        {
          "name": "A4",
          "midi": 69,
          "time": 170.45437500000062,
          "velocity": 0.6299212598425197,
          "duration": 0.19399331249999818
        },
        {
          "name": "E4",
          "midi": 64,
          "time": 170.64918000000063,
          "velocity": 0.6299212598425197,
          "duration": 0.3887983125000005
        },
        {
          "name": "F4",
          "midi": 65,
          "time": 170.64918000000063,
          "velocity": 0.6299212598425197,
          "duration": 0.3887983125000005
        },
        {
          "name": "E4",
          "midi": 64,
          "time": 171.03879000000063,
          "velocity": 0.6299212598425197,
          "duration": 0.3887983125000005
        },
        {
          "name": "F4",
          "midi": 65,
          "time": 171.03879000000063,
          "velocity": 0.6299212598425197,
          "duration": 0.3887983125000005
        },
        {
          "name": "C4",
          "midi": 60,
          "time": 171.42840000000064,
          "velocity": 0.6299212598425197,
          "duration": 0.3887983125000005
        },
        {
          "name": "E4",
          "midi": 64,
          "time": 171.42840000000064,
          "velocity": 0.6299212598425197,
          "duration": 0.3887983125000005
        },
        {
          "name": "C4",
          "midi": 60,
          "time": 171.81801000000064,
          "velocity": 0.6299212598425197,
          "duration": 0.19399331249999818
        },
        {
          "name": "A4",
          "midi": 69,
          "time": 172.01281500000064,
          "velocity": 0.6299212598425197,
          "duration": 0.19399331249999818
        },
        {
          "name": "C4",
          "midi": 60,
          "time": 172.20762000000065,
          "velocity": 0.6299212598425197,
          "duration": 0.19399331249999818
        },
        {
          "name": "A4",
          "midi": 69,
          "time": 172.40242500000065,
          "velocity": 0.6299212598425197,
          "duration": 0.19399331249999818
        },
        {
          "name": "C4",
          "midi": 60,
          "time": 172.59723000000065,
          "velocity": 0.6299212598425197,
          "duration": 0.19399331249999818
        },
        {
          "name": "A4",
          "midi": 69,
          "time": 172.79203500000065,
          "velocity": 0.6299212598425197,
          "duration": 0.19399331249999818
        },
        {
          "name": "C4",
          "midi": 60,
          "time": 172.98684000000065,
          "velocity": 0.6299212598425197,
          "duration": 0.19399331249999818
        },
        {
          "name": "A4",
          "midi": 69,
          "time": 173.18164500000066,
          "velocity": 0.6299212598425197,
          "duration": 0.19399331249999818
        },
        {
          "name": "C4",
          "midi": 60,
          "time": 173.37645000000066,
          "velocity": 0.6299212598425197,
          "duration": 0.19399331249999818
        },
        {
          "name": "A4",
          "midi": 69,
          "time": 173.57125500000066,
          "velocity": 0.6299212598425197,
          "duration": 0.19399331249999818
        },
        {
          "name": "C4",
          "midi": 60,
          "time": 173.76606000000066,
          "velocity": 0.6299212598425197,
          "duration": 0.19399331249999818
        },
        {
          "name": "A4",
          "midi": 69,
          "time": 173.96086500000067,
          "velocity": 0.6299212598425197,
          "duration": 0.19399331249999818
        },
        {
          "name": "C4",
          "midi": 60,
          "time": 174.15567000000067,
          "velocity": 0.6299212598425197,
          "duration": 0.19399331249999818
        },
        {
          "name": "A4",
          "midi": 69,
          "time": 174.35047500000067,
          "velocity": 0.6299212598425197,
          "duration": 0.19399331249999818
        },
        {
          "name": "C4",
          "midi": 60,
          "time": 174.54528000000067,
          "velocity": 0.6299212598425197,
          "duration": 0.3887983125000005
        },
        {
          "name": "C4",
          "midi": 60,
          "time": 175.32450000000068,
          "velocity": 0.6299212598425197,
          "duration": 0.3887983125000005
        },
        {
          "name": "A4",
          "midi": 69,
          "time": 175.32450000000068,
          "velocity": 0.6299212598425197,
          "duration": 0.3887983125000005
        },
        {
          "name": "B3",
          "midi": 59,
          "time": 175.7141100000007,
          "velocity": 0.6299212598425197,
          "duration": 0.3887983125000005
        },
        {
          "name": "A4",
          "midi": 69,
          "time": 175.7141100000007,
          "velocity": 0.6299212598425197,
          "duration": 0.3887983125000005
        },
        {
          "name": "C4",
          "midi": 60,
          "time": 176.1037200000007,
          "velocity": 0.6299212598425197,
          "duration": 0.3887983125000005
        },
        {
          "name": "F4",
          "midi": 65,
          "time": 176.4933300000007,
          "velocity": 0.6299212598425197,
          "duration": 0.3887983125000005
        },
        {
          "name": "C4",
          "midi": 60,
          "time": 176.8829400000007,
          "velocity": 0.6299212598425197,
          "duration": 0.3887983125000005
        },
        {
          "name": "F4",
          "midi": 65,
          "time": 176.8829400000007,
          "velocity": 0.6299212598425197,
          "duration": 0.3887983125000005
        },
        {
          "name": "C4",
          "midi": 60,
          "time": 177.2725500000007,
          "velocity": 0.6299212598425197,
          "duration": 0.3887983125000005
        },
        {
          "name": "F4",
          "midi": 65,
          "time": 177.2725500000007,
          "velocity": 0.6299212598425197,
          "duration": 0.3887983125000005
        },
        {
          "name": "C4",
          "midi": 60,
          "time": 177.6621600000007,
          "velocity": 0.6299212598425197,
          "duration": 0.3887983125000005
        },
        {
          "name": "C4",
          "midi": 60,
          "time": 178.05177000000072,
          "velocity": 0.6299212598425197,
          "duration": 0.3887983125000005
        },
        {
          "name": "C4",
          "midi": 60,
          "time": 178.44138000000072,
          "velocity": 0.6299212598425197,
          "duration": 0.19399331249999818
        },
        {
          "name": "E4",
          "midi": 64,
          "time": 178.44138000000072,
          "velocity": 0.6299212598425197,
          "duration": 0.19399331249999818
        },
        {
          "name": "A4",
          "midi": 69,
          "time": 178.44138000000072,
          "velocity": 0.6299212598425197,
          "duration": 0.19399331249999818
        },
        {
          "name": "C4",
          "midi": 60,
          "time": 178.63618500000072,
          "velocity": 0.6299212598425197,
          "duration": 0.19399331249999818
        },
        {
          "name": "E4",
          "midi": 64,
          "time": 178.63618500000072,
          "velocity": 0.6299212598425197,
          "duration": 0.19399331249999818
        },
        {
          "name": "A4",
          "midi": 69,
          "time": 178.63618500000072,
          "velocity": 0.6299212598425197,
          "duration": 0.19399331249999818
        },
        {
          "name": "C4",
          "midi": 60,
          "time": 178.83099000000072,
          "velocity": 0.6299212598425197,
          "duration": 0.19399331249999818
        },
        {
          "name": "F4",
          "midi": 65,
          "time": 178.83099000000072,
          "velocity": 0.6299212598425197,
          "duration": 0.19399331249999818
        },
        {
          "name": "A4",
          "midi": 69,
          "time": 178.83099000000072,
          "velocity": 0.6299212598425197,
          "duration": 0.19399331249999818
        },
        {
          "name": "C4",
          "midi": 60,
          "time": 179.02579500000073,
          "velocity": 0.6299212598425197,
          "duration": 0.19399331249999818
        },
        {
          "name": "F4",
          "midi": 65,
          "time": 179.02579500000073,
          "velocity": 0.6299212598425197,
          "duration": 0.19399331249999818
        },
        {
          "name": "A4",
          "midi": 69,
          "time": 179.02579500000073,
          "velocity": 0.6299212598425197,
          "duration": 0.19399331249999818
        },
        {
          "name": "A4",
          "midi": 69,
          "time": 179.22060000000073,
          "velocity": 0.6299212598425197,
          "duration": 0.3887983125000005
        },
        {
          "name": "C4",
          "midi": 60,
          "time": 179.61021000000073,
          "velocity": 0.6299212598425197,
          "duration": 0.3887983125000005
        },
        {
          "name": "C4",
          "midi": 60,
          "time": 179.99982000000074,
          "velocity": 0.6299212598425197,
          "duration": 0.19399331249999818
        },
        {
          "name": "E4",
          "midi": 64,
          "time": 179.99982000000074,
          "velocity": 0.6299212598425197,
          "duration": 0.19399331249999818
        },
        {
          "name": "A4",
          "midi": 69,
          "time": 179.99982000000074,
          "velocity": 0.6299212598425197,
          "duration": 0.19399331249999818
        },
        {
          "name": "C4",
          "midi": 60,
          "time": 180.19462500000074,
          "velocity": 0.6299212598425197,
          "duration": 0.19399331249999818
        },
        {
          "name": "E4",
          "midi": 64,
          "time": 180.19462500000074,
          "velocity": 0.6299212598425197,
          "duration": 0.19399331249999818
        },
        {
          "name": "A4",
          "midi": 69,
          "time": 180.19462500000074,
          "velocity": 0.6299212598425197,
          "duration": 0.19399331249999818
        },
        {
          "name": "C4",
          "midi": 60,
          "time": 180.38943000000074,
          "velocity": 0.6299212598425197,
          "duration": 0.19399331249999818
        },
        {
          "name": "F4",
          "midi": 65,
          "time": 180.38943000000074,
          "velocity": 0.6299212598425197,
          "duration": 0.19399331249999818
        },
        {
          "name": "A4",
          "midi": 69,
          "time": 180.38943000000074,
          "velocity": 0.6299212598425197,
          "duration": 0.19399331249999818
        },
        {
          "name": "C4",
          "midi": 60,
          "time": 180.58423500000075,
          "velocity": 0.6299212598425197,
          "duration": 0.19399331249999818
        },
        {
          "name": "F4",
          "midi": 65,
          "time": 180.58423500000075,
          "velocity": 0.6299212598425197,
          "duration": 0.19399331249999818
        },
        {
          "name": "A4",
          "midi": 69,
          "time": 180.58423500000075,
          "velocity": 0.6299212598425197,
          "duration": 0.19399331249999818
        },
        {
          "name": "A4",
          "midi": 69,
          "time": 180.77904000000075,
          "velocity": 0.6299212598425197,
          "duration": 0.3887983125000005
        },
        {
          "name": "C4",
          "midi": 60,
          "time": 181.55826000000076,
          "velocity": 0.6299212598425197,
          "duration": 0.3887983125000005
        },
        {
          "name": "E4",
          "midi": 64,
          "time": 181.55826000000076,
          "velocity": 0.6299212598425197,
          "duration": 0.3887983125000005
        },
        {
          "name": "F4",
          "midi": 65,
          "time": 181.55826000000076,
          "velocity": 0.6299212598425197,
          "duration": 0.3887983125000005
        },
        {
          "name": "C4",
          "midi": 60,
          "time": 181.94787000000076,
          "velocity": 0.6299212598425197,
          "duration": 0.3887983125000005
        },
        {
          "name": "F4",
          "midi": 65,
          "time": 181.94787000000076,
          "velocity": 0.6299212598425197,
          "duration": 0.3887983125000005
        },
        {
          "name": "A4",
          "midi": 69,
          "time": 181.94787000000076,
          "velocity": 0.6299212598425197,
          "duration": 0.3887983125000005
        },
        {
          "name": "C4",
          "midi": 60,
          "time": 182.72709000000077,
          "velocity": 0.6299212598425197,
          "duration": 0.19399331249999818
        },
        {
          "name": "F4",
          "midi": 65,
          "time": 182.72709000000077,
          "velocity": 0.6299212598425197,
          "duration": 0.19399331249999818
        },
        {
          "name": "A4",
          "midi": 69,
          "time": 182.72709000000077,
          "velocity": 0.6299212598425197,
          "duration": 0.19399331249999818
        },
        {
          "name": "C4",
          "midi": 60,
          "time": 182.92189500000077,
          "velocity": 0.6299212598425197,
          "duration": 0.19399331249999818
        },
        {
          "name": "F4",
          "midi": 65,
          "time": 182.92189500000077,
          "velocity": 0.6299212598425197,
          "duration": 0.19399331249999818
        },
        {
          "name": "A4",
          "midi": 69,
          "time": 182.92189500000077,
          "velocity": 0.6299212598425197,
          "duration": 0.19399331249999818
        },
        {
          "name": "C4",
          "midi": 60,
          "time": 183.11670000000078,
          "velocity": 0.6299212598425197,
          "duration": 0.3887983125000005
        },
        {
          "name": "E4",
          "midi": 64,
          "time": 183.11670000000078,
          "velocity": 0.6299212598425197,
          "duration": 0.3887983125000005
        },
        {
          "name": "F4",
          "midi": 65,
          "time": 183.11670000000078,
          "velocity": 0.6299212598425197,
          "duration": 0.3887983125000005
        },
        {
          "name": "E4",
          "midi": 64,
          "time": 183.50631000000078,
          "velocity": 0.6299212598425197,
          "duration": 0.3887983125000005
        },
        {
          "name": "F4",
          "midi": 65,
          "time": 183.50631000000078,
          "velocity": 0.6299212598425197,
          "duration": 0.3887983125000005
        },
        {
          "name": "C4",
          "midi": 60,
          "time": 183.89592000000079,
          "velocity": 0.6299212598425197,
          "duration": 0.3887983125000005
        },
        {
          "name": "E4",
          "midi": 64,
          "time": 183.89592000000079,
          "velocity": 0.6299212598425197,
          "duration": 0.3887983125000005
        },
        {
          "name": "C4",
          "midi": 60,
          "time": 184.2855300000008,
          "velocity": 0.6299212598425197,
          "duration": 0.19399331249999818
        },
        {
          "name": "A4",
          "midi": 69,
          "time": 184.4803350000008,
          "velocity": 0.6299212598425197,
          "duration": 0.19399331249999818
        },
        {
          "name": "C4",
          "midi": 60,
          "time": 184.6751400000008,
          "velocity": 0.6299212598425197,
          "duration": 0.19399331249999818
        },
        {
          "name": "A4",
          "midi": 69,
          "time": 184.8699450000008,
          "velocity": 0.6299212598425197,
          "duration": 0.19399331249999818
        },
        {
          "name": "C4",
          "midi": 60,
          "time": 185.0647500000008,
          "velocity": 0.6299212598425197,
          "duration": 0.19399331249999818
        },
        {
          "name": "A4",
          "midi": 69,
          "time": 185.2595550000008,
          "velocity": 0.6299212598425197,
          "duration": 0.19399331249999818
        },
        {
          "name": "C4",
          "midi": 60,
          "time": 185.4543600000008,
          "velocity": 0.6299212598425197,
          "duration": 0.19399331249999818
        },
        {
          "name": "A4",
          "midi": 69,
          "time": 185.6491650000008,
          "velocity": 0.6299212598425197,
          "duration": 0.19399331249999818
        },
        {
          "name": "C4",
          "midi": 60,
          "time": 185.8439700000008,
          "velocity": 0.6299212598425197,
          "duration": 0.19399331249999818
        },
        {
          "name": "A4",
          "midi": 69,
          "time": 186.0387750000008,
          "velocity": 0.6299212598425197,
          "duration": 0.19399331249999818
        },
        {
          "name": "C4",
          "midi": 60,
          "time": 186.2335800000008,
          "velocity": 0.6299212598425197,
          "duration": 0.19399331249999818
        },
        {
          "name": "A4",
          "midi": 69,
          "time": 186.42838500000082,
          "velocity": 0.6299212598425197,
          "duration": 0.19399331249999818
        },
        {
          "name": "C4",
          "midi": 60,
          "time": 186.62319000000082,
          "velocity": 0.6299212598425197,
          "duration": 0.19399331249999818
        },
        {
          "name": "A4",
          "midi": 69,
          "time": 186.81799500000082,
          "velocity": 0.6299212598425197,
          "duration": 0.19399331249999818
        },
        {
          "name": "C4",
          "midi": 60,
          "time": 187.01280000000082,
          "velocity": 0.6299212598425197,
          "duration": 0.19399331249999818
        },
        {
          "name": "A4",
          "midi": 69,
          "time": 187.20760500000083,
          "velocity": 0.6299212598425197,
          "duration": 0.19399331249999818
        },
        {
          "name": "C4",
          "midi": 60,
          "time": 187.40241000000083,
          "velocity": 0.6299212598425197,
          "duration": 0.3887983125000005
        },
        {
          "name": "D4",
          "midi": 62,
          "time": 187.40241000000083,
          "velocity": 0.6299212598425197,
          "duration": 0.3887983125000005
        },
        {
          "name": "F4",
          "midi": 65,
          "time": 187.40241000000083,
          "velocity": 0.6299212598425197,
          "duration": 0.3887983125000005
        },
        {
          "name": "A4",
          "midi": 69,
          "time": 187.40241000000083,
          "velocity": 0.6299212598425197,
          "duration": 0.3887983125000005
        }
      ],
      "controlChanges": {
        "6": [
          {
            "number": 6,
            "time": 0,
            "value": 0.09448818897637795
          }
        ],
        "7": [
          {
            "number": 7,
            "time": 0,
            "value": 0.7874015748031497
          }
        ],
        "10": [
          {
            "number": 10,
            "time": 0,
            "value": 0.5039370078740157
          }
        ],
        "91": [
          {
            "number": 91,
            "time": 0,
            "value": 0
          }
        ],
        "93": [
          {
            "number": 93,
            "time": 0,
            "value": 0
          }
        ],
        "100": [
          {
            "number": 100,
            "time": 0,
            "value": 0
          },
          {
            "number": 100,
            "time": 0,
            "value": 1
          }
        ],
        "101": [
          {
            "number": 101,
            "time": 0,
            "value": 0
          },
          {
            "number": 101,
            "time": 0,
            "value": 1
          }
        ],
        "121": [
          {
            "number": 121,
            "time": 0,
            "value": 0
          }
        ]
      },
      "id": 0,
      "name": "Piano",
      "instrumentNumber": 0,
      "instrument": "acoustic grand piano",
      "instrumentFamily": "piano",
      "channelNumber": 0,
      "isPercussion": false
    },
    {
      "startTime": 0,
      "duration": 0,
      "length": 0,
      "notes": [],
      "controlChanges": {},
      "id": 1,
      "name": "Piano"
    }
  ]
}