{
  "header": {
    "PPQ": 480,
    "timeSignature": [
      4,
      4
    ],
    "bpm": 109.99970666744889,
    "name": ""
  },
  "tempo": [
    {
      "absoluteTime": 0,
      "seconds": 0,
      "bpm": 109.99970666744889
    }
  ],
  "timeSignature": [
    {
      "absoluteTime": 0,
      "seconds": 0,
      "numerator": 4,
      "denominator": 2,
      "click": 24,
      "notesQ": 8
    }
  ],
  "startTime": 0,
  "duration": 175.581150033331,
  "tracks": [
    {
      "startTime": 0,
      "duration": 175.581150033331,
      "length": 584,
      "notes": [
        {
          "name": "G#4",
          "midi": 68,
          "time": 0,
          "velocity": 0.3858267716535433,
          "duration": 0.2579552333333333
        },
        {
          "name": "G#4",
          "midi": 68,
          "time": 0.27272799999999997,
          "velocity": 0.3858267716535433,
          "duration": 0.25795523333333337
        },
        {
          "name": "F4",
          "midi": 65,
          "time": 0.545456,
          "velocity": 0.3858267716535433,
          "duration": 0.25795523333333337
        },
        {
          "name": "A#4",
          "midi": 70,
          "time": 0.8181840000000001,
          "velocity": 0.3858267716535433,
          "duration": 0.25795523333333337
        },
        {
          "name": "G#4",
          "midi": 68,
          "time": 1.090912,
          "velocity": 0.3858267716535433,
          "duration": 0.25795523333333326
        },
        {
          "name": "F4",
          "midi": 65,
          "time": 1.36364,
          "velocity": 0.3858267716535433,
          "duration": 0.25795523333333326
        },
        {
          "name": "D#4",
          "midi": 63,
          "time": 1.6363679999999998,
          "velocity": 0.3858267716535433,
          "duration": 0.5170468333333333
        },
        {
          "name": "G#4",
          "midi": 68,
          "time": 2.1818239999999998,
          "velocity": 0.3858267716535433,
          "duration": 0.2579552333333335
        },
        {
          "name": "G#4",
          "midi": 68,
          "time": 2.454552,
          "velocity": 0.3858267716535433,
          "duration": 0.2579552333333335
        },
        {
          "name": "F4",
          "midi": 65,
          "time": 2.7272800000000004,
          "velocity": 0.3858267716535433,
          "duration": 0.2579552333333335
        },
        {
          "name": "A#4",
          "midi": 70,
          "time": 3.0000080000000007,
          "velocity": 0.3858267716535433,
          "duration": 0.2579552333333335
        },
        {
          "name": "G#4",
          "midi": 68,
          "time": 3.272736000000001,
          "velocity": 0.3858267716535433,
          "duration": 0.2579552333333335
        },
        {
          "name": "F4",
          "midi": 65,
          "time": 3.5454640000000013,
          "velocity": 0.3858267716535433,
          "duration": 0.2579552333333335
        },
        {
          "name": "D#4",
          "midi": 63,
          "time": 3.8181920000000016,
          "velocity": 0.3858267716535433,
          "duration": 0.5170468333333336
        },
        {
          "name": "G#4",
          "midi": 68,
          "time": 4.363648000000002,
          "velocity": 0.3858267716535433,
          "duration": 0.25795523333333303
        },
        {
          "name": "G#4",
          "midi": 68,
          "time": 4.636376000000002,
          "velocity": 0.3858267716535433,
          "duration": 0.25795523333333303
        },
        {
          "name": "F4",
          "midi": 65,
          "time": 4.909104000000002,
          "velocity": 0.3858267716535433,
          "duration": 0.25795523333333303
        },
        {
          "name": "A#4",
          "midi": 70,
          "time": 5.181832000000002,
          "velocity": 0.3858267716535433,
          "duration": 0.25795523333333303
        },
        {
          "name": "G#4",
          "midi": 68,
          "time": 5.454560000000002,
          "velocity": 0.3858267716535433,
          "duration": 0.25795523333333303
        },
        {
          "name": "F4",
          "midi": 65,
          "time": 5.7272880000000015,
          "velocity": 0.3858267716535433,
          "duration": 0.25795523333333303
        },
        {
          "name": "D#4",
          "midi": 63,
          "time": 6.000016000000001,
          "velocity": 0.3858267716535433,
          "duration": 0.5170468333333336
        },
        {
          "name": "D#5",
          "midi": 75,
          "time": 6.545472000000002,
          "velocity": 0.6299212598425197,
          "duration": 0.25795523333333303
        },
        {
          "name": "F5",
          "midi": 77,
          "time": 6.818200000000002,
          "velocity": 0.6299212598425197,
          "duration": 0.25795523333333303
        },
        {
          "name": "D#5",
          "midi": 75,
          "time": 7.090928000000002,
          "velocity": 0.6299212598425197,
          "duration": 0.25795523333333303
        },
        {
          "name": "F5",
          "midi": 77,
          "time": 7.3636560000000015,
          "velocity": 0.6299212598425197,
          "duration": 0.25795523333333303
        },
        {
          "name": "D#5",
          "midi": 75,
          "time": 7.636384000000001,
          "velocity": 0.6299212598425197,
          "duration": 0.38750103333333286
        },
        {
          "name": "C#5",
          "midi": 73,
          "time": 8.045476,
          "velocity": 0.6299212598425197,
          "duration": 0.38750103333333286
        },
        {
          "name": "A#4",
          "midi": 70,
          "time": 8.454568,
          "velocity": 0.6299212598425197,
          "duration": 0.2579552333333339
        },
        {
          "name": "F3",
          "midi": 53,
          "time": 8.727296,
          "velocity": 0.7559055118110236,
          "duration": 0.2579552333333339
        },
        {
          "name": "A#3",
          "midi": 58,
          "time": 8.727296,
          "velocity": 0.7559055118110236,
          "duration": 0.2579552333333339
        },
        {
          "name": "F3",
          "midi": 53,
          "time": 9.000024000000002,
          "velocity": 0.7559055118110236,
          "duration": 0.5170468333333336
        },
        {
          "name": "C4",
          "midi": 60,
          "time": 9.000024000000002,
          "velocity": 0.7559055118110236,
          "duration": 0.5170468333333336
        },
        {
          "name": "F3",
          "midi": 53,
          "time": 9.545480000000001,
          "velocity": 0.7559055118110236,
          "duration": 0.5170468333333336
        },
        {
          "name": "A#3",
          "midi": 58,
          "time": 9.545480000000001,
          "velocity": 0.7559055118110236,
          "duration": 0.5170468333333336
        },
        {
          "name": "C#4",
          "midi": 61,
          "time": 9.545480000000001,
          "velocity": 0.7559055118110236,
          "duration": 0.5170468333333336
        },
        {
          "name": "F3",
          "midi": 53,
          "time": 10.090936000000001,
          "velocity": 0.7559055118110236,
          "duration": 0.5170468333333336
        },
        {
          "name": "A#3",
          "midi": 58,
          "time": 10.090936000000001,
          "velocity": 0.7559055118110236,
          "duration": 0.5170468333333336
        },
        {
          "name": "F4",
          "midi": 65,
          "time": 10.090936000000001,
          "velocity": 0.7559055118110236,
          "duration": 0.5170468333333336
        },
        {
          "name": "A#3",
          "midi": 58,
          "time": 10.636392,
          "velocity": 0.7559055118110236,
          "duration": 1.0352300333333329
        },
        {
          "name": "C#4",
          "midi": 61,
          "time": 10.636392,
          "velocity": 0.7559055118110236,
          "duration": 1.0352300333333329
        },
        {
          "name": "F4",
          "midi": 65,
          "time": 10.636392,
          "velocity": 0.7559055118110236,
          "duration": 1.0352300333333329
        },
        {
          "name": "A#4",
          "midi": 70,
          "time": 10.636392,
          "velocity": 0.7559055118110236,
          "duration": 1.0352300333333329
        },
        {
          "name": "F4",
          "midi": 65,
          "time": 11.727304,
          "velocity": 0.7559055118110236,
          "duration": 0.2579552333333339
        },
        {
          "name": "D#4",
          "midi": 63,
          "time": 12.000032000000001,
          "velocity": 0.7559055118110236,
          "duration": 0.38750103333333286
        },
        {
          "name": "C#4",
          "midi": 61,
          "time": 12.409124,
          "velocity": 0.7559055118110236,
          "duration": 0.38750103333333286
        },
        {
          "name": "A#3",
          "midi": 58,
          "time": 12.818216,
          "velocity": 0.7559055118110236,
          "duration": 0.2579552333333339
        },
        {
          "name": "F3",
          "midi": 53,
          "time": 13.090944,
          "velocity": 0.7559055118110236,
          "duration": 0.2579552333333339
        },
        {
          "name": "A#3",
          "midi": 58,
          "time": 13.090944,
          "velocity": 0.7559055118110236,
          "duration": 0.2579552333333339
        },
        {
          "name": "F3",
          "midi": 53,
          "time": 13.363672000000001,
          "velocity": 0.7559055118110236,
          "duration": 0.5170468333333336
        },
        {
          "name": "C4",
          "midi": 60,
          "time": 13.363672000000001,
          "velocity": 0.7559055118110236,
          "duration": 0.5170468333333336
        },
        {
          "name": "F3",
          "midi": 53,
          "time": 13.909128,
          "velocity": 0.7559055118110236,
          "duration": 0.5170468333333336
        },
        {
          "name": "A#3",
          "midi": 58,
          "time": 13.909128,
          "velocity": 0.7559055118110236,
          "duration": 0.5170468333333336
        },
        {
          "name": "C#4",
          "midi": 61,
          "time": 13.909128,
          "velocity": 0.7559055118110236,
          "duration": 0.5170468333333336
        },
        {
          "name": "F3",
          "midi": 53,
          "time": 14.454584,
          "velocity": 0.7559055118110236,
          "duration": 0.5170468333333336
        },
        {
          "name": "A#3",
          "midi": 58,
          "time": 14.454584,
          "velocity": 0.7559055118110236,
          "duration": 0.5170468333333336
        },
        {
          "name": "F4",
          "midi": 65,
          "time": 14.454584,
          "velocity": 0.7559055118110236,
          "duration": 0.5170468333333336
        },
        {
          "name": "A#3",
          "midi": 58,
          "time": 15.00004,
          "velocity": 0.7559055118110236,
          "duration": 2.330688033333333
        },
        {
          "name": "C#4",
          "midi": 61,
          "time": 15.00004,
          "velocity": 0.7559055118110236,
          "duration": 2.330688033333333
        },
        {
          "name": "F4",
          "midi": 65,
          "time": 15.00004,
          "velocity": 0.7559055118110236,
          "duration": 2.330688033333333
        },
        {
          "name": "A#4",
          "midi": 70,
          "time": 15.00004,
          "velocity": 0.7559055118110236,
          "duration": 2.330688033333333
        },
        {
          "name": "A#3",
          "midi": 58,
          "time": 17.454591999999998,
          "velocity": 0.5039370078740157,
          "duration": 0.128409433333335
        },
        {
          "name": "C4",
          "midi": 60,
          "time": 17.590956,
          "velocity": 0.5039370078740157,
          "duration": 0.128409433333335
        },
        {
          "name": "C#4",
          "midi": 61,
          "time": 17.72732,
          "velocity": 0.5039370078740157,
          "duration": 0.128409433333335
        },
        {
          "name": "D#4",
          "midi": 63,
          "time": 17.863684,
          "velocity": 0.5039370078740157,
          "duration": 0.128409433333335
        },
        {
          "name": "F4",
          "midi": 65,
          "time": 18.000048,
          "velocity": 0.5039370078740157,
          "duration": 0.2579552333333339
        },
        {
          "name": "A#3",
          "midi": 58,
          "time": 18.40914,
          "velocity": 0.5039370078740157,
          "duration": 0.2579552333333339
        },
        {
          "name": "G#3",
          "midi": 56,
          "time": 18.818232000000002,
          "velocity": 0.5039370078740157,
          "duration": 0.2579552333333339
        },
        {
          "name": "A3",
          "midi": 57,
          "time": 19.227324000000003,
          "velocity": 0.5039370078740157,
          "duration": 0.2579552333333339
        },
        {
          "name": "A#3",
          "midi": 58,
          "time": 19.636416000000004,
          "velocity": 0.5039370078740157,
          "duration": 0.128409433333335
        },
        {
          "name": "C4",
          "midi": 60,
          "time": 19.772780000000004,
          "velocity": 0.5039370078740157,
          "duration": 0.128409433333335
        },
        {
          "name": "C#4",
          "midi": 61,
          "time": 19.909144000000005,
          "velocity": 0.5039370078740157,
          "duration": 0.128409433333335
        },
        {
          "name": "D#4",
          "midi": 63,
          "time": 20.045508000000005,
          "velocity": 0.5039370078740157,
          "duration": 0.128409433333335
        },
        {
          "name": "F4",
          "midi": 65,
          "time": 20.181872000000006,
          "velocity": 0.5039370078740157,
          "duration": 0.2579552333333339
        },
        {
          "name": "A#3",
          "midi": 58,
          "time": 20.590964000000007,
          "velocity": 0.5039370078740157,
          "duration": 0.2579552333333339
        },
        {
          "name": "G#3",
          "midi": 56,
          "time": 21.000056000000008,
          "velocity": 0.5039370078740157,
          "duration": 0.2579552333333339
        },
        {
          "name": "A3",
          "midi": 57,
          "time": 21.40914800000001,
          "velocity": 0.5039370078740157,
          "duration": 0.2579552333333339
        },
        {
          "name": "A#3",
          "midi": 58,
          "time": 21.81824000000001,
          "velocity": 0.5039370078740157,
          "duration": 0.128409433333335
        },
        {
          "name": "C4",
          "midi": 60,
          "time": 21.95460400000001,
          "velocity": 0.5118110236220472,
          "duration": 0.128409433333335
        },
        {
          "name": "C#4",
          "midi": 61,
          "time": 22.09096800000001,
          "velocity": 0.5196850393700787,
          "duration": 0.128409433333335
        },
        {
          "name": "D#4",
          "midi": 63,
          "time": 22.22733200000001,
          "velocity": 0.5275590551181102,
          "duration": 0.128409433333335
        },
        {
          "name": "F4",
          "midi": 65,
          "time": 22.36369600000001,
          "velocity": 0.5354330708661418,
          "duration": 0.2579552333333339
        },
        {
          "name": "A#3",
          "midi": 58,
          "time": 22.772788000000013,
          "velocity": 0.5590551181102362,
          "duration": 0.2579552333333339
        },
        {
          "name": "G#3",
          "midi": 56,
          "time": 23.181880000000014,
          "velocity": 0.5826771653543307,
          "duration": 0.2579552333333339
        },
        {
          "name": "A3",
          "midi": 57,
          "time": 23.590972000000015,
          "velocity": 0.6062992125984252,
          "duration": 0.2579552333333339
        },
        {
          "name": "A#3",
          "midi": 58,
          "time": 24.000064000000016,
          "velocity": 0.6299212598425197,
          "duration": 0.128409433333335
        },
        {
          "name": "C4",
          "midi": 60,
          "time": 24.136428000000016,
          "velocity": 0.6299212598425197,
          "duration": 0.128409433333335
        },
        {
          "name": "C#4",
          "midi": 61,
          "time": 24.272792000000017,
          "velocity": 0.6299212598425197,
          "duration": 0.128409433333335
        },
        {
          "name": "D#4",
          "midi": 63,
          "time": 24.409156000000017,
          "velocity": 0.6299212598425197,
          "duration": 0.128409433333335
        },
        {
          "name": "F4",
          "midi": 65,
          "time": 24.545520000000018,
          "velocity": 0.6299212598425197,
          "duration": 0.2579552333333339
        },
        {
          "name": "A#3",
          "midi": 58,
          "time": 24.95461200000002,
          "velocity": 0.6299212598425197,
          "duration": 0.2579552333333339
        },
        {
          "name": "G#3",
          "midi": 56,
          "time": 25.36370400000002,
          "velocity": 0.6299212598425197,
          "duration": 0.2579552333333339
        },
        {
          "name": "A3",
          "midi": 57,
          "time": 25.77279600000002,
          "velocity": 0.6299212598425197,
          "duration": 0.2579552333333339
        },
        {
          "name": "A#4",
          "midi": 70,
          "time": 26.181888000000022,
          "velocity": 0.6299212598425197,
          "duration": 0.2579552333333339
        },
        {
          "name": "A#4",
          "midi": 70,
          "time": 26.454616000000023,
          "velocity": 0.6299212598425197,
          "duration": 0.2579552333333339
        },
        {
          "name": "A#4",
          "midi": 70,
          "time": 26.727344000000024,
          "velocity": 0.6299212598425197,
          "duration": 0.2579552333333339
        },
        {
          "name": "A#4",
          "midi": 70,
          "time": 27.000072000000024,
          "velocity": 0.6299212598425197,
          "duration": 0.2579552333333339
        },
        {
          "name": "A4",
          "midi": 69,
          "time": 27.272800000000025,
          "velocity": 0.6299212598425197,
          "duration": 0.2579552333333339
        },
        {
          "name": "A4",
          "midi": 69,
          "time": 27.545528000000026,
          "velocity": 0.6299212598425197,
          "duration": 0.2579552333333339
        },
        {
          "name": "A4",
          "midi": 69,
          "time": 27.818256000000027,
          "velocity": 0.6299212598425197,
          "duration": 0.5170468333333318
        },
        {
          "name": "G#4",
          "midi": 68,
          "time": 28.363712000000024,
          "velocity": 0.6299212598425197,
          "duration": 0.2579552333333339
        },
        {
          "name": "G#4",
          "midi": 68,
          "time": 28.636440000000025,
          "velocity": 0.6299212598425197,
          "duration": 0.2579552333333339
        },
        {
          "name": "G#4",
          "midi": 68,
          "time": 28.909168000000026,
          "velocity": 0.6299212598425197,
          "duration": 0.2579552333333339
        },
        {
          "name": "G#4",
          "midi": 68,
          "time": 29.181896000000027,
          "velocity": 0.6299212598425197,
          "duration": 0.2579552333333339
        },
        {
          "name": "G4",
          "midi": 67,
          "time": 29.454624000000027,
          "velocity": 0.6299212598425197,
          "duration": 0.5170468333333318
        },
        {
          "name": "G4",
          "midi": 67,
          "time": 30.000080000000025,
          "velocity": 0.6299212598425197,
          "duration": 0.5170468333333318
        },
        {
          "name": "F#4",
          "midi": 66,
          "time": 30.545536000000023,
          "velocity": 0.6299212598425197,
          "duration": 0.2579552333333339
        },
        {
          "name": "F#4",
          "midi": 66,
          "time": 30.818264000000024,
          "velocity": 0.6299212598425197,
          "duration": 0.2579552333333339
        },
        {
          "name": "F#4",
          "midi": 66,
          "time": 31.090992000000025,
          "velocity": 0.6299212598425197,
          "duration": 0.2579552333333339
        },
        {
          "name": "F#4",
          "midi": 66,
          "time": 31.363720000000026,
          "velocity": 0.6299212598425197,
          "duration": 0.2579552333333339
        },
        {
          "name": "F4",
          "midi": 65,
          "time": 31.636448000000026,
          "velocity": 0.6299212598425197,
          "duration": 0.2579552333333339
        },
        {
          "name": "F4",
          "midi": 65,
          "time": 31.909176000000027,
          "velocity": 0.6299212598425197,
          "duration": 0.25795523333333037
        },
        {
          "name": "F4",
          "midi": 65,
          "time": 32.181904000000024,
          "velocity": 0.6299212598425197,
          "duration": 0.5170468333333318
        },
        {
          "name": "D#4",
          "midi": 63,
          "time": 32.727360000000026,
          "velocity": 0.6299212598425197,
          "duration": 0.2579552333333339
        },
        {
          "name": "C#4",
          "midi": 61,
          "time": 33.00008800000003,
          "velocity": 0.6299212598425197,
          "duration": 0.2579552333333339
        },
        {
          "name": "D#4",
          "midi": 63,
          "time": 33.27281600000003,
          "velocity": 0.6299212598425197,
          "duration": 0.2579552333333339
        },
        {
          "name": "F4",
          "midi": 65,
          "time": 33.54554400000003,
          "velocity": 0.6299212598425197,
          "duration": 0.2579552333333339
        },
        {
          "name": "D#4",
          "midi": 63,
          "time": 33.81827200000003,
          "velocity": 0.6299212598425197,
          "duration": 0.2579552333333339
        },
        {
          "name": "C#4",
          "midi": 61,
          "time": 34.09100000000003,
          "velocity": 0.6299212598425197,
          "duration": 0.2579552333333339
        },
        {
          "name": "A#3",
          "midi": 58,
          "time": 34.36372800000003,
          "velocity": 0.6299212598425197,
          "duration": 0.5170468333333318
        },
        {
          "name": "A#4",
          "midi": 70,
          "time": 34.90918400000003,
          "velocity": 0.7559055118110236,
          "duration": 0.2579552333333339
        },
        {
          "name": "A#4",
          "midi": 70,
          "time": 35.18191200000003,
          "velocity": 0.7559055118110236,
          "duration": 0.2579552333333339
        },
        {
          "name": "A#4",
          "midi": 70,
          "time": 35.45464000000003,
          "velocity": 0.7559055118110236,
          "duration": 0.2579552333333339
        },
        {
          "name": "A#4",
          "midi": 70,
          "time": 35.727368000000034,
          "velocity": 0.7559055118110236,
          "duration": 0.2579552333333339
        },
        {
          "name": "A4",
          "midi": 69,
          "time": 36.000096000000035,
          "velocity": 0.7559055118110236,
          "duration": 0.5170468333333318
        },
        {
          "name": "A4",
          "midi": 69,
          "time": 36.545552000000036,
          "velocity": 0.7559055118110236,
          "duration": 0.2579552333333339
        },
        {
          "name": "A4",
          "midi": 69,
          "time": 36.81828000000004,
          "velocity": 0.7559055118110236,
          "duration": 0.2579552333333339
        },
        {
          "name": "G#4",
          "midi": 68,
          "time": 37.09100800000004,
          "velocity": 0.7559055118110236,
          "duration": 0.2579552333333339
        },
        {
          "name": "G#4",
          "midi": 68,
          "time": 37.36373600000004,
          "velocity": 0.7559055118110236,
          "duration": 0.2579552333333339
        },
        {
          "name": "G#4",
          "midi": 68,
          "time": 37.63646400000004,
          "velocity": 0.7559055118110236,
          "duration": 0.2579552333333339
        },
        {
          "name": "G#4",
          "midi": 68,
          "time": 37.90919200000004,
          "velocity": 0.7559055118110236,
          "duration": 0.2579552333333339
        },
        {
          "name": "G4",
          "midi": 67,
          "time": 38.18192000000004,
          "velocity": 0.7559055118110236,
          "duration": 0.5170468333333318
        },
        {
          "name": "G4",
          "midi": 67,
          "time": 38.72737600000004,
          "velocity": 0.7559055118110236,
          "duration": 0.2579552333333339
        },
        {
          "name": "G4",
          "midi": 67,
          "time": 39.00010400000004,
          "velocity": 0.7559055118110236,
          "duration": 0.2579552333333339
        },
        {
          "name": "F#4",
          "midi": 66,
          "time": 39.272832000000044,
          "velocity": 0.7559055118110236,
          "duration": 0.2579552333333339
        },
        {
          "name": "F#4",
          "midi": 66,
          "time": 39.545560000000044,
          "velocity": 0.7559055118110236,
          "duration": 0.2579552333333339
        },
        {
          "name": "F#4",
          "midi": 66,
          "time": 39.818288000000045,
          "velocity": 0.7559055118110236,
          "duration": 0.5170468333333318
        },
        {
          "name": "F4",
          "midi": 65,
          "time": 40.36374400000005,
          "velocity": 0.7559055118110236,
          "duration": 0.5170468333333318
        },
        {
          "name": "A#4",
          "midi": 70,
          "time": 40.90920000000005,
          "velocity": 0.905511811023622,
          "duration": 0.5443196333333304
        },
        {
          "name": "F5",
          "midi": 77,
          "time": 40.90920000000005,
          "velocity": 0.905511811023622,
          "duration": 0.5443196333333304
        },
        {
          "name": "A#5",
          "midi": 82,
          "time": 40.90920000000005,
          "velocity": 0.905511811023622,
          "duration": 0.5443196333333304
        },
        {
          "name": "D#4",
          "midi": 63,
          "time": 41.45465600000004,
          "velocity": 0.7559055118110236,
          "duration": 0.2579552333333339
        },
        {
          "name": "C#4",
          "midi": 61,
          "time": 41.72738400000004,
          "velocity": 0.7559055118110236,
          "duration": 0.2579552333333339
        },
        {
          "name": "D#4",
          "midi": 63,
          "time": 42.000112000000044,
          "velocity": 0.7559055118110236,
          "duration": 0.2579552333333339
        },
        {
          "name": "F4",
          "midi": 65,
          "time": 42.272840000000045,
          "velocity": 0.7559055118110236,
          "duration": 0.2579552333333339
        },
        {
          "name": "D#4",
          "midi": 63,
          "time": 42.545568000000046,
          "velocity": 0.7559055118110236,
          "duration": 0.2579552333333339
        },
        {
          "name": "C#4",
          "midi": 61,
          "time": 42.818296000000046,
          "velocity": 0.7559055118110236,
          "duration": 0.2579552333333339
        },
        {
          "name": "A#3",
          "midi": 58,
          "time": 43.09102400000005,
          "velocity": 0.7559055118110236,
          "duration": 0.2579552333333339
        },
        {
          "name": "C#4",
          "midi": 61,
          "time": 43.36375200000005,
          "velocity": 0.7559055118110236,
          "duration": 0.2579552333333339
        },
        {
          "name": "A#3",
          "midi": 58,
          "time": 43.63648000000005,
          "velocity": 0.6299212598425197,
          "duration": 0.7761384333333297
        },
        {
          "name": "F4",
          "midi": 65,
          "time": 44.454664000000044,
          "velocity": 0.6299212598425197,
          "duration": 0.2579552333333339
        },
        {
          "name": "D#4",
          "midi": 63,
          "time": 44.727392000000044,
          "velocity": 0.6299212598425197,
          "duration": 0.2579552333333339
        },
        {
          "name": "F4",
          "midi": 65,
          "time": 45.000120000000045,
          "velocity": 0.6299212598425197,
          "duration": 0.2579552333333339
        },
        {
          "name": "D#4",
          "midi": 63,
          "time": 45.272848000000046,
          "velocity": 0.6299212598425197,
          "duration": 0.2579552333333339
        },
        {
          "name": "F4",
          "midi": 65,
          "time": 45.54557600000005,
          "velocity": 0.6299212598425197,
          "duration": 0.2579552333333339
        },
        {
          "name": "A#3",
          "midi": 58,
          "time": 45.81830400000005,
          "velocity": 0.6299212598425197,
          "duration": 0.7761384333333368
        },
        {
          "name": "F4",
          "midi": 65,
          "time": 46.63648800000005,
          "velocity": 0.6299212598425197,
          "duration": 0.2579552333333339
        },
        {
          "name": "D#4",
          "midi": 63,
          "time": 46.90921600000005,
          "velocity": 0.6299212598425197,
          "duration": 0.2579552333333339
        },
        {
          "name": "F4",
          "midi": 65,
          "time": 47.18194400000005,
          "velocity": 0.6299212598425197,
          "duration": 0.2579552333333339
        },
        {
          "name": "G#4",
          "midi": 68,
          "time": 47.45467200000005,
          "velocity": 0.6299212598425197,
          "duration": 0.2579552333333339
        },
        {
          "name": "F4",
          "midi": 65,
          "time": 47.72740000000005,
          "velocity": 0.6299212598425197,
          "duration": 0.2579552333333339
        },
        {
          "name": "A#3",
          "midi": 58,
          "time": 48.00012800000005,
          "velocity": 0.6299212598425197,
          "duration": 0.5170468333333318
        },
        {
          "name": "A#3",
          "midi": 58,
          "time": 48.545584000000055,
          "velocity": 0.6299212598425197,
          "duration": 0.5170468333333318
        },
        {
          "name": "A#3",
          "midi": 58,
          "time": 49.091040000000056,
          "velocity": 0.6299212598425197,
          "duration": 0.12840943333333144
        },
        {
          "name": "G#3",
          "midi": 56,
          "time": 49.22740400000006,
          "velocity": 0.6299212598425197,
          "duration": 0.12840943333333144
        },
        {
          "name": "A#3",
          "midi": 58,
          "time": 49.36376800000006,
          "velocity": 0.6299212598425197,
          "duration": 0.12840943333333144
        },
        {
          "name": "C4",
          "midi": 60,
          "time": 49.50013200000006,
          "velocity": 0.6299212598425197,
          "duration": 0.12840943333333144
        },
        {
          "name": "C#4",
          "midi": 61,
          "time": 49.63649600000006,
          "velocity": 0.6299212598425197,
          "duration": 0.12840943333333144
        },
        {
          "name": "C4",
          "midi": 60,
          "time": 49.77286000000006,
          "velocity": 0.6299212598425197,
          "duration": 0.12840943333333144
        },
        {
          "name": "A#3",
          "midi": 58,
          "time": 49.90922400000006,
          "velocity": 0.6299212598425197,
          "duration": 0.12840943333333144
        },
        {
          "name": "G#3",
          "midi": 56,
          "time": 50.04558800000006,
          "velocity": 0.6299212598425197,
          "duration": 0.12840943333333144
        },
        {
          "name": "A#3",
          "midi": 58,
          "time": 50.18195200000006,
          "velocity": 0.6299212598425197,
          "duration": 0.12840943333333144
        },
        {
          "name": "C4",
          "midi": 60,
          "time": 50.31831600000006,
          "velocity": 0.6299212598425197,
          "duration": 0.12840943333333144
        },
        {
          "name": "C#4",
          "midi": 61,
          "time": 50.45468000000006,
          "velocity": 0.6299212598425197,
          "duration": 0.12840943333333144
        },
        {
          "name": "D#4",
          "midi": 63,
          "time": 50.59104400000006,
          "velocity": 0.6299212598425197,
          "duration": 0.12840943333333144
        },
        {
          "name": "F4",
          "midi": 65,
          "time": 50.72740800000006,
          "velocity": 0.6299212598425197,
          "duration": 0.12840943333333144
        },
        {
          "name": "D#4",
          "midi": 63,
          "time": 50.86377200000006,
          "velocity": 0.6299212598425197,
          "duration": 0.12840943333333144
        },
        {
          "name": "F4",
          "midi": 65,
          "time": 51.00013600000006,
          "velocity": 0.6299212598425197,
          "duration": 0.12840943333333144
        },
        {
          "name": "G#4",
          "midi": 68,
          "time": 51.13650000000006,
          "velocity": 0.6299212598425197,
          "duration": 0.12840943333333144
        },
        {
          "name": "C#4",
          "midi": 61,
          "time": 51.27286400000006,
          "velocity": 0.7559055118110236,
          "duration": 1.089775633333332
        },
        {
          "name": "A#4",
          "midi": 70,
          "time": 51.27286400000006,
          "velocity": 0.7559055118110236,
          "duration": 1.089775633333332
        },
        {
          "name": "F4",
          "midi": 65,
          "time": 53.18196000000006,
          "velocity": 0.6299212598425197,
          "duration": 0.5170468333333318
        },
        {
          "name": "A#4",
          "midi": 70,
          "time": 53.18196000000006,
          "velocity": 0.6299212598425197,
          "duration": 0.5170468333333318
        },
        {
          "name": "F4",
          "midi": 65,
          "time": 53.72741600000006,
          "velocity": 0.6299212598425197,
          "duration": 0.2579552333333339
        },
        {
          "name": "A#4",
          "midi": 70,
          "time": 53.72741600000006,
          "velocity": 0.6299212598425197,
          "duration": 0.2579552333333339
        },
        {
          "name": "F4",
          "midi": 65,
          "time": 54.00014400000006,
          "velocity": 0.6299212598425197,
          "duration": 0.2579552333333339
        },
        {
          "name": "A#4",
          "midi": 70,
          "time": 54.00014400000006,
          "velocity": 0.6299212598425197,
          "duration": 0.2579552333333339
        },
        {
          "name": "F4",
          "midi": 65,
          "time": 54.27287200000006,
          "velocity": 0.6299212598425197,
          "duration": 0.2579552333333339
        },
        {
          "name": "A#4",
          "midi": 70,
          "time": 54.27287200000006,
          "velocity": 0.6299212598425197,
          "duration": 0.2579552333333339
        },
        {
          "name": "F4",
          "midi": 65,
          "time": 54.545600000000064,
          "velocity": 0.6299212598425197,
          "duration": 0.5170468333333318
        },
        {
          "name": "G#4",
          "midi": 68,
          "time": 54.545600000000064,
          "velocity": 0.6299212598425197,
          "duration": 0.5170468333333318
        },
        {
          "name": "G#4",
          "midi": 68,
          "time": 55.091056000000066,
          "velocity": 0.6299212598425197,
          "duration": 0.2579552333333339
        },
        {
          "name": "A#4",
          "midi": 70,
          "time": 55.36378400000007,
          "velocity": 0.6299212598425197,
          "duration": 0.2579552333333339
        },
        {
          "name": "F4",
          "midi": 65,
          "time": 55.63651200000007,
          "velocity": 0.6299212598425197,
          "duration": 0.2579552333333339
        },
        {
          "name": "D#4",
          "midi": 63,
          "time": 55.90924000000007,
          "velocity": 0.6299212598425197,
          "duration": 0.2579552333333339
        },
        {
          "name": "C#4",
          "midi": 61,
          "time": 56.18196800000007,
          "velocity": 0.6299212598425197,
          "duration": 0.5170468333333318
        },
        {
          "name": "D#4",
          "midi": 63,
          "time": 57.545608000000065,
          "velocity": 0.6299212598425197,
          "duration": 0.5170468333333318
        },
        {
          "name": "A#4",
          "midi": 70,
          "time": 57.545608000000065,
          "velocity": 0.6299212598425197,
          "duration": 0.5170468333333318
        },
        {
          "name": "D#4",
          "midi": 63,
          "time": 58.09106400000007,
          "velocity": 0.6299212598425197,
          "duration": 0.2579552333333339
        },
        {
          "name": "A#4",
          "midi": 70,
          "time": 58.09106400000007,
          "velocity": 0.6299212598425197,
          "duration": 0.2579552333333339
        },
        {
          "name": "D#4",
          "midi": 63,
          "time": 58.36379200000007,
          "velocity": 0.6299212598425197,
          "duration": 0.2579552333333339
        },
        {
          "name": "A#4",
          "midi": 70,
          "time": 58.36379200000007,
          "velocity": 0.6299212598425197,
          "duration": 0.2579552333333339
        },
        {
          "name": "D#4",
          "midi": 63,
          "time": 58.63652000000007,
          "velocity": 0.6299212598425197,
          "duration": 0.2579552333333339
        },
        {
          "name": "A#4",
          "midi": 70,
          "time": 58.63652000000007,
          "velocity": 0.6299212598425197,
          "duration": 0.2579552333333339
        },
        {
          "name": "D#4",
          "midi": 63,
          "time": 58.90924800000007,
          "velocity": 0.6299212598425197,
          "duration": 0.5170468333333318
        },
        {
          "name": "G#4",
          "midi": 68,
          "time": 58.90924800000007,
          "velocity": 0.6299212598425197,
          "duration": 0.5170468333333318
        },
        {
          "name": "G#4",
          "midi": 68,
          "time": 59.45470400000007,
          "velocity": 0.6299212598425197,
          "duration": 0.2579552333333339
        },
        {
          "name": "A#4",
          "midi": 70,
          "time": 59.72743200000007,
          "velocity": 0.6299212598425197,
          "duration": 0.2579552333333339
        },
        {
          "name": "F4",
          "midi": 65,
          "time": 60.00016000000007,
          "velocity": 0.6299212598425197,
          "duration": 0.2579552333333339
        },
        {
          "name": "D#4",
          "midi": 63,
          "time": 60.27288800000007,
          "velocity": 0.6299212598425197,
          "duration": 0.2579552333333339
        },
        {
          "name": "C#4",
          "midi": 61,
          "time": 60.545616000000074,
          "velocity": 0.6299212598425197,
          "duration": 0.5170468333333318
        },
        {
          "name": "F4",
          "midi": 65,
          "time": 61.90925600000007,
          "velocity": 0.6299212598425197,
          "duration": 0.5170468333333318
        },
        {
          "name": "A#4",
          "midi": 70,
          "time": 61.90925600000007,
          "velocity": 0.6299212598425197,
          "duration": 0.5170468333333318
        },
        {
          "name": "F4",
          "midi": 65,
          "time": 62.45471200000007,
          "velocity": 0.6299212598425197,
          "duration": 0.2579552333333339
        },
        {
          "name": "A#4",
          "midi": 70,
          "time": 62.45471200000007,
          "velocity": 0.6299212598425197,
          "duration": 0.2579552333333339
        },
        {
          "name": "F4",
          "midi": 65,
          "time": 62.72744000000007,
          "velocity": 0.6299212598425197,
          "duration": 0.2579552333333339
        },
        {
          "name": "A#4",
          "midi": 70,
          "time": 62.72744000000007,
          "velocity": 0.6299212598425197,
          "duration": 0.2579552333333339
        },
        {
          "name": "F4",
          "midi": 65,
          "time": 63.00016800000007,
          "velocity": 0.6299212598425197,
          "duration": 0.2579552333333339
        },
        {
          "name": "A#4",
          "midi": 70,
          "time": 63.00016800000007,
          "velocity": 0.6299212598425197,
          "duration": 0.2579552333333339
        },
        {
          "name": "F4",
          "midi": 65,
          "time": 63.272896000000074,
          "velocity": 0.6299212598425197,
          "duration": 0.2579552333333339
        },
        {
          "name": "G#4",
          "midi": 68,
          "time": 63.272896000000074,
          "velocity": 0.6299212598425197,
          "duration": 0.2579552333333339
        },
        {
          "name": "G#4",
          "midi": 68,
          "time": 63.545624000000075,
          "velocity": 0.6299212598425197,
          "duration": 0.2579552333333339
        },
        {
          "name": "G#4",
          "midi": 68,
          "time": 63.818352000000075,
          "velocity": 0.6299212598425197,
          "duration": 0.2579552333333339
        },
        {
          "name": "A#4",
          "midi": 70,
          "time": 64.09108000000008,
          "velocity": 0.6299212598425197,
          "duration": 0.2579552333333339
        },
        {
          "name": "F4",
          "midi": 65,
          "time": 64.36380800000008,
          "velocity": 0.6299212598425197,
          "duration": 0.2579552333333339
        },
        {
          "name": "D#4",
          "midi": 63,
          "time": 64.63653600000008,
          "velocity": 0.6299212598425197,
          "duration": 0.2579552333333339
        },
        {
          "name": "C#4",
          "midi": 61,
          "time": 64.90926400000008,
          "velocity": 0.6299212598425197,
          "duration": 0.2579552333333339
        },
        {
          "name": "D#4",
          "midi": 63,
          "time": 65.18199200000008,
          "velocity": 0.6299212598425197,
          "duration": 2.330688033333331
        },
        {
          "name": "A#4",
          "midi": 70,
          "time": 67.90927200000007,
          "velocity": 0.7559055118110236,
          "duration": 0.2579552333333339
        },
        {
          "name": "A#5",
          "midi": 82,
          "time": 67.90927200000007,
          "velocity": 0.7559055118110236,
          "duration": 0.2579552333333339
        },
        {
          "name": "A4",
          "midi": 69,
          "time": 68.18200000000007,
          "velocity": 0.7559055118110236,
          "duration": 0.2579552333333339
        },
        {
          "name": "A5",
          "midi": 81,
          "time": 68.18200000000007,
          "velocity": 0.7559055118110236,
          "duration": 0.2579552333333339
        },
        {
          "name": "A#4",
          "midi": 70,
          "time": 68.45472800000007,
          "velocity": 0.7559055118110236,
          "duration": 0.2579552333333339
        },
        {
          "name": "A#5",
          "midi": 82,
          "time": 68.45472800000007,
          "velocity": 0.7559055118110236,
          "duration": 0.2579552333333339
        },
        {
          "name": "C5",
          "midi": 72,
          "time": 68.72745600000007,
          "velocity": 0.7559055118110236,
          "duration": 0.2579552333333339
        },
        {
          "name": "C6",
          "midi": 84,
          "time": 68.72745600000007,
          "velocity": 0.7559055118110236,
          "duration": 0.2579552333333339
        },
        {
          "name": "A#4",
          "midi": 70,
          "time": 69.00018400000008,
          "velocity": 0.7559055118110236,
          "duration": 0.2579552333333339
        },
        {
          "name": "A#5",
          "midi": 82,
          "time": 69.00018400000008,
          "velocity": 0.7559055118110236,
          "duration": 0.2579552333333339
        },
        {
          "name": "A4",
          "midi": 69,
          "time": 69.27291200000008,
          "velocity": 0.7559055118110236,
          "duration": 0.5170468333333389
        },
        {
          "name": "A5",
          "midi": 81,
          "time": 69.27291200000008,
          "velocity": 0.7559055118110236,
          "duration": 0.5170468333333389
        },
        {
          "name": "G#3",
          "midi": 56,
          "time": 69.81836800000008,
          "velocity": 0.8818897637795275,
          "duration": 0.12840943333333144
        },
        {
          "name": "A#3",
          "midi": 58,
          "time": 69.95473200000008,
          "velocity": 0.8818897637795275,
          "duration": 0.2579552333333339
        },
        {
          "name": "G#3",
          "midi": 56,
          "time": 70.22746000000008,
          "velocity": 0.8818897637795275,
          "duration": 0.12840943333333144
        },
        {
          "name": "A#3",
          "midi": 58,
          "time": 70.36382400000008,
          "velocity": 0.8818897637795275,
          "duration": 0.2579552333333339
        },
        {
          "name": "G#3",
          "midi": 56,
          "time": 70.63655200000008,
          "velocity": 0.8818897637795275,
          "duration": 0.12840943333333144
        },
        {
          "name": "A#3",
          "midi": 58,
          "time": 70.77291600000008,
          "velocity": 0.8818897637795275,
          "duration": 0.2579552333333339
        },
        {
          "name": "G#3",
          "midi": 56,
          "time": 71.04564400000008,
          "velocity": 0.8818897637795275,
          "duration": 0.12840943333333144
        },
        {
          "name": "A#3",
          "midi": 58,
          "time": 71.18200800000008,
          "velocity": 0.8818897637795275,
          "duration": 0.7761384333333297
        },
        {
          "name": "A#4",
          "midi": 70,
          "time": 72.27292000000008,
          "velocity": 0.7559055118110236,
          "duration": 0.2579552333333339
        },
        {
          "name": "A#5",
          "midi": 82,
          "time": 72.27292000000008,
          "velocity": 0.7559055118110236,
          "duration": 0.2579552333333339
        },
        {
          "name": "A4",
          "midi": 69,
          "time": 72.54564800000009,
          "velocity": 0.7559055118110236,
          "duration": 0.2579552333333339
        },
        {
          "name": "A5",
          "midi": 81,
          "time": 72.54564800000009,
          "velocity": 0.7559055118110236,
          "duration": 0.2579552333333339
        },
        {
          "name": "A#4",
          "midi": 70,
          "time": 72.81837600000009,
          "velocity": 0.7559055118110236,
          "duration": 0.2579552333333339
        },
        {
          "name": "A#5",
          "midi": 82,
          "time": 72.81837600000009,
          "velocity": 0.7559055118110236,
          "duration": 0.2579552333333339
        },
        {
          "name": "C5",
          "midi": 72,
          "time": 73.09110400000009,
          "velocity": 0.7559055118110236,
          "duration": 0.2579552333333339
        },
        {
          "name": "C6",
          "midi": 84,
          "time": 73.09110400000009,
          "velocity": 0.7559055118110236,
          "duration": 0.2579552333333339
        },
        {
          "name": "A#4",
          "midi": 70,
          "time": 73.36383200000009,
          "velocity": 0.7559055118110236,
          "duration": 0.2579552333333339
        },
        {
          "name": "A#5",
          "midi": 82,
          "time": 73.36383200000009,
          "velocity": 0.7559055118110236,
          "duration": 0.2579552333333339
        },
        {
          "name": "A4",
          "midi": 69,
          "time": 73.63656000000009,
          "velocity": 0.7559055118110236,
          "duration": 0.5170468333333389
        },
        {
          "name": "A5",
          "midi": 81,
          "time": 73.63656000000009,
          "velocity": 0.7559055118110236,
          "duration": 0.5170468333333389
        },
        {
          "name": "G#3",
          "midi": 56,
          "time": 74.18201600000009,
          "velocity": 0.8818897637795275,
          "duration": 0.12840943333333144
        },
        {
          "name": "A#3",
          "midi": 58,
          "time": 74.31838000000009,
          "velocity": 0.8818897637795275,
          "duration": 0.2579552333333339
        },
        {
          "name": "G#3",
          "midi": 56,
          "time": 74.59110800000009,
          "velocity": 0.8818897637795275,
          "duration": 0.12840943333333144
        },
        {
          "name": "A#3",
          "midi": 58,
          "time": 74.72747200000009,
          "velocity": 0.8818897637795275,
          "duration": 0.2579552333333339
        },
        {
          "name": "G#3",
          "midi": 56,
          "time": 75.00020000000009,
          "velocity": 0.8818897637795275,
          "duration": 0.12840943333333144
        },
        {
          "name": "A#3",
          "midi": 58,
          "time": 75.13656400000009,
          "velocity": 0.8818897637795275,
          "duration": 0.2579552333333339
        },
        {
          "name": "G#3",
          "midi": 56,
          "time": 75.4092920000001,
          "velocity": 0.8818897637795275,
          "duration": 0.12840943333333144
        },
        {
          "name": "A#3",
          "midi": 58,
          "time": 75.5456560000001,
          "velocity": 0.8818897637795275,
          "duration": 0.7761384333333297
        },
        {
          "name": "G#3",
          "midi": 56,
          "time": 76.3638400000001,
          "velocity": 0.8818897637795275,
          "duration": 0.12840943333333144
        },
        {
          "name": "A#3",
          "midi": 58,
          "time": 76.5002040000001,
          "velocity": 0.8818897637795275,
          "duration": 0.2579552333333339
        },
        {
          "name": "G#3",
          "midi": 56,
          "time": 76.7729320000001,
          "velocity": 0.8818897637795275,
          "duration": 0.12840943333333144
        },
        {
          "name": "A#3",
          "midi": 58,
          "time": 76.9092960000001,
          "velocity": 0.8818897637795275,
          "duration": 0.2579552333333339
        },
        {
          "name": "G#3",
          "midi": 56,
          "time": 77.1820240000001,
          "velocity": 0.8818897637795275,
          "duration": 0.12840943333333144
        },
        {
          "name": "A#3",
          "midi": 58,
          "time": 77.3183880000001,
          "velocity": 0.8818897637795275,
          "duration": 0.3875010333333364
        },
        {
          "name": "A#4",
          "midi": 70,
          "time": 78.5456640000001,
          "velocity": 0.5039370078740157,
          "duration": 0.5170468333333389
        },
        {
          "name": "A#4",
          "midi": 70,
          "time": 79.0911200000001,
          "velocity": 0.5039370078740157,
          "duration": 0.2579552333333339
        },
        {
          "name": "A#4",
          "midi": 70,
          "time": 79.3638480000001,
          "velocity": 0.5039370078740157,
          "duration": 0.2579552333333339
        },
        {
          "name": "A4",
          "midi": 69,
          "time": 79.6365760000001,
          "velocity": 0.5039370078740157,
          "duration": 0.5170468333333389
        },
        {
          "name": "A4",
          "midi": 69,
          "time": 80.1820320000001,
          "velocity": 0.5039370078740157,
          "duration": 0.2579552333333339
        },
        {
          "name": "A4",
          "midi": 69,
          "time": 80.4547600000001,
          "velocity": 0.5039370078740157,
          "duration": 0.2579552333333339
        },
        {
          "name": "G#4",
          "midi": 68,
          "time": 80.72748800000011,
          "velocity": 0.5039370078740157,
          "duration": 0.2579552333333339
        },
        {
          "name": "G#4",
          "midi": 68,
          "time": 81.00021600000011,
          "velocity": 0.5039370078740157,
          "duration": 0.2579552333333339
        },
        {
          "name": "G#4",
          "midi": 68,
          "time": 81.27294400000011,
          "velocity": 0.5039370078740157,
          "duration": 0.2579552333333339
        },
        {
          "name": "G4",
          "midi": 67,
          "time": 81.54567200000011,
          "velocity": 0.5039370078740157,
          "duration": 1.0352300333333346
        },
        {
          "name": "G4",
          "midi": 67,
          "time": 82.63658400000011,
          "velocity": 0.5039370078740157,
          "duration": 0.2579552333333339
        },
        {
          "name": "F#4",
          "midi": 66,
          "time": 82.90931200000011,
          "velocity": 0.5039370078740157,
          "duration": 0.5170468333333389
        },
        {
          "name": "F#4",
          "midi": 66,
          "time": 83.45476800000012,
          "velocity": 0.5039370078740157,
          "duration": 0.5170468333333389
        },
        {
          "name": "F4",
          "midi": 65,
          "time": 84.00022400000012,
          "velocity": 0.5039370078740157,
          "duration": 0.2579552333333339
        },
        {
          "name": "F4",
          "midi": 65,
          "time": 84.27295200000012,
          "velocity": 0.5039370078740157,
          "duration": 0.2579552333333339
        },
        {
          "name": "G#4",
          "midi": 68,
          "time": 84.27295200000012,
          "velocity": 0.5039370078740157,
          "duration": 0.2579552333333339
        },
        {
          "name": "F4",
          "midi": 65,
          "time": 84.54568000000012,
          "velocity": 0.5039370078740157,
          "duration": 0.5170468333333389
        },
        {
          "name": "A#4",
          "midi": 70,
          "time": 84.54568000000012,
          "velocity": 0.5039370078740157,
          "duration": 0.5170468333333389
        },
        {
          "name": "D#4",
          "midi": 63,
          "time": 85.09113600000012,
          "velocity": 0.5039370078740157,
          "duration": 0.2579552333333339
        },
        {
          "name": "C#4",
          "midi": 61,
          "time": 85.36386400000012,
          "velocity": 0.5039370078740157,
          "duration": 0.2579552333333339
        },
        {
          "name": "D#4",
          "midi": 63,
          "time": 85.63659200000012,
          "velocity": 0.5039370078740157,
          "duration": 0.2579552333333339
        },
        {
          "name": "F4",
          "midi": 65,
          "time": 85.90932000000012,
          "velocity": 0.5039370078740157,
          "duration": 0.2579552333333339
        },
        {
          "name": "D#4",
          "midi": 63,
          "time": 86.18204800000012,
          "velocity": 0.5039370078740157,
          "duration": 0.2579552333333339
        },
        {
          "name": "C#4",
          "midi": 61,
          "time": 86.45477600000012,
          "velocity": 0.5039370078740157,
          "duration": 0.2579552333333339
        },
        {
          "name": "A#3",
          "midi": 58,
          "time": 86.72750400000012,
          "velocity": 0.5039370078740157,
          "duration": 0.5170468333333389
        },
        {
          "name": "A#4",
          "midi": 70,
          "time": 87.27296000000013,
          "velocity": 0.6299212598425197,
          "duration": 0.2579552333333339
        },
        {
          "name": "A#4",
          "midi": 70,
          "time": 87.54568800000013,
          "velocity": 0.6299212598425197,
          "duration": 0.2579552333333339
        },
        {
          "name": "A#4",
          "midi": 70,
          "time": 87.81841600000013,
          "velocity": 0.6299212598425197,
          "duration": 0.5170468333333389
        },
        {
          "name": "A4",
          "midi": 69,
          "time": 88.36387200000013,
          "velocity": 0.6299212598425197,
          "duration": 0.2579552333333339
        },
        {
          "name": "A4",
          "midi": 69,
          "time": 88.63660000000013,
          "velocity": 0.6299212598425197,
          "duration": 0.2579552333333339
        },
        {
          "name": "A4",
          "midi": 69,
          "time": 88.90932800000013,
          "velocity": 0.6299212598425197,
          "duration": 0.5170468333333389
        },
        {
          "name": "G#4",
          "midi": 68,
          "time": 89.45478400000013,
          "velocity": 0.6299212598425197,
          "duration": 0.2579552333333339
        },
        {
          "name": "G#4",
          "midi": 68,
          "time": 89.72751200000013,
          "velocity": 0.6299212598425197,
          "duration": 0.2579552333333339
        },
        {
          "name": "G#4",
          "midi": 68,
          "time": 90.00024000000013,
          "velocity": 0.6299212598425197,
          "duration": 0.2579552333333339
        },
        {
          "name": "G#4",
          "midi": 68,
          "time": 90.27296800000013,
          "velocity": 0.6299212598425197,
          "duration": 0.2579552333333339
        },
        {
          "name": "G4",
          "midi": 67,
          "time": 90.54569600000013,
          "velocity": 0.6299212598425197,
          "duration": 0.5170468333333389
        },
        {
          "name": "F#4",
          "midi": 66,
          "time": 91.63660800000014,
          "velocity": 0.6299212598425197,
          "duration": 0.2579552333333339
        },
        {
          "name": "F#4",
          "midi": 66,
          "time": 91.90933600000014,
          "velocity": 0.6299212598425197,
          "duration": 0.2579552333333339
        },
        {
          "name": "F#4",
          "midi": 66,
          "time": 92.18206400000014,
          "velocity": 0.6299212598425197,
          "duration": 0.2579552333333339
        },
        {
          "name": "F#4",
          "midi": 66,
          "time": 92.45479200000014,
          "velocity": 0.6299212598425197,
          "duration": 0.2579552333333339
        },
        {
          "name": "F4",
          "midi": 65,
          "time": 92.72752000000014,
          "velocity": 0.6299212598425197,
          "duration": 0.5170468333333389
        },
        {
          "name": "A#3",
          "midi": 58,
          "time": 93.27297600000014,
          "velocity": 0.6299212598425197,
          "duration": 0.5170468333333389
        },
        {
          "name": "D#4",
          "midi": 63,
          "time": 93.81843200000014,
          "velocity": 0.6299212598425197,
          "duration": 0.2579552333333339
        },
        {
          "name": "C#4",
          "midi": 61,
          "time": 94.09116000000014,
          "velocity": 0.6299212598425197,
          "duration": 0.2579552333333339
        },
        {
          "name": "D#4",
          "midi": 63,
          "time": 94.36388800000014,
          "velocity": 0.6299212598425197,
          "duration": 0.2579552333333339
        },
        {
          "name": "F4",
          "midi": 65,
          "time": 94.63661600000015,
          "velocity": 0.6299212598425197,
          "duration": 0.2579552333333339
        },
        {
          "name": "D#4",
          "midi": 63,
          "time": 94.90934400000015,
          "velocity": 0.6299212598425197,
          "duration": 0.2579552333333339
        },
        {
          "name": "C#4",
          "midi": 61,
          "time": 95.18207200000015,
          "velocity": 0.6299212598425197,
          "duration": 0.2579552333333339
        },
        {
          "name": "A#3",
          "midi": 58,
          "time": 95.45480000000015,
          "velocity": 0.6299212598425197,
          "duration": 0.2579552333333339
        },
        {
          "name": "C#4",
          "midi": 61,
          "time": 95.72752800000015,
          "velocity": 0.6299212598425197,
          "duration": 0.2579552333333339
        },
        {
          "name": "A#3",
          "midi": 58,
          "time": 96.00025600000015,
          "velocity": 0.6299212598425197,
          "duration": 0.7761384333333297
        },
        {
          "name": "F4",
          "midi": 65,
          "time": 96.81844000000015,
          "velocity": 0.6299212598425197,
          "duration": 0.2579552333333339
        },
        {
          "name": "D#4",
          "midi": 63,
          "time": 97.09116800000015,
          "velocity": 0.6299212598425197,
          "duration": 0.2579552333333339
        },
        {
          "name": "F4",
          "midi": 65,
          "time": 97.36389600000015,
          "velocity": 0.6299212598425197,
          "duration": 0.2579552333333339
        },
        {
          "name": "D#4",
          "midi": 63,
          "time": 97.63662400000015,
          "velocity": 0.6299212598425197,
          "duration": 0.2579552333333339
        },
        {
          "name": "F4",
          "midi": 65,
          "time": 97.90935200000015,
          "velocity": 0.6299212598425197,
          "duration": 0.2579552333333339
        },
        {
          "name": "A#3",
          "midi": 58,
          "time": 98.18208000000016,
          "velocity": 0.6299212598425197,
          "duration": 0.7761384333333297
        },
        {
          "name": "F4",
          "midi": 65,
          "time": 99.00026400000016,
          "velocity": 0.6299212598425197,
          "duration": 0.2579552333333339
        },
        {
          "name": "D#4",
          "midi": 63,
          "time": 99.27299200000016,
          "velocity": 0.6299212598425197,
          "duration": 0.2579552333333339
        },
        {
          "name": "F4",
          "midi": 65,
          "time": 99.54572000000016,
          "velocity": 0.6299212598425197,
          "duration": 0.2579552333333339
        },
        {
          "name": "G#4",
          "midi": 68,
          "time": 99.81844800000016,
          "velocity": 0.6299212598425197,
          "duration": 0.2579552333333339
        },
        {
          "name": "F4",
          "midi": 65,
          "time": 100.09117600000016,
          "velocity": 0.6299212598425197,
          "duration": 0.2579552333333339
        },
        {
          "name": "A#3",
          "midi": 58,
          "time": 100.36390400000016,
          "velocity": 0.6299212598425197,
          "duration": 0.5170468333333389
        },
        {
          "name": "A#3",
          "midi": 58,
          "time": 100.90936000000016,
          "velocity": 0.6614173228346457,
          "duration": 0.5170468333333389
        },
        {
          "name": "A#3",
          "midi": 58,
          "time": 101.45481600000016,
          "velocity": 0.6929133858267716,
          "duration": 0.12840943333333144
        },
        {
          "name": "G#3",
          "midi": 56,
          "time": 101.59118000000016,
          "velocity": 0.7007874015748031,
          "duration": 0.12840943333333144
        },
        {
          "name": "A#3",
          "midi": 58,
          "time": 101.72754400000017,
          "velocity": 0.7086614173228346,
          "duration": 0.12840943333333144
        },
        {
          "name": "C4",
          "midi": 60,
          "time": 101.86390800000017,
          "velocity": 0.7165354330708661,
          "duration": 0.12840943333333144
        },
        {
          "name": "C#4",
          "midi": 61,
          "time": 102.00027200000017,
          "velocity": 0.7244094488188977,
          "duration": 0.12840943333333144
        },
        {
          "name": "C4",
          "midi": 60,
          "time": 102.13663600000017,
          "velocity": 0.7322834645669292,
          "duration": 0.12840943333333144
        },
        {
          "name": "A#3",
          "midi": 58,
          "time": 102.27300000000017,
          "velocity": 0.7401574803149606,
          "duration": 0.12840943333333144
        },
        {
          "name": "G#3",
          "midi": 56,
          "time": 102.40936400000017,
          "velocity": 0.7480314960629921,
          "duration": 0.12840943333333144
        },
        {
          "name": "A#3",
          "midi": 58,
          "time": 102.54572800000017,
          "velocity": 0.7559055118110236,
          "duration": 0.12840943333333144
        },
        {
          "name": "C4",
          "midi": 60,
          "time": 102.68209200000017,
          "velocity": 0.7559055118110236,
          "duration": 0.12840943333333144
        },
        {
          "name": "C#4",
          "midi": 61,
          "time": 102.81845600000017,
          "velocity": 0.7559055118110236,
          "duration": 0.12840943333333144
        },
        {
          "name": "D#4",
          "midi": 63,
          "time": 102.95482000000017,
          "velocity": 0.7559055118110236,
          "duration": 0.12840943333333144
        },
        {
          "name": "F4",
          "midi": 65,
          "time": 103.09118400000017,
          "velocity": 0.7559055118110236,
          "duration": 0.12840943333333144
        },
        {
          "name": "D#4",
          "midi": 63,
          "time": 103.22754800000017,
          "velocity": 0.7559055118110236,
          "duration": 0.12840943333333144
        },
        {
          "name": "F4",
          "midi": 65,
          "time": 103.36391200000017,
          "velocity": 0.7559055118110236,
          "duration": 0.12840943333333144
        },
        {
          "name": "G#4",
          "midi": 68,
          "time": 103.50027600000017,
          "velocity": 0.7559055118110236,
          "duration": 0.12840943333333144
        },
        {
          "name": "C#4",
          "midi": 61,
          "time": 103.63664000000017,
          "velocity": 0.7559055118110236,
          "duration": 1.0352300333333346
        },
        {
          "name": "A#4",
          "midi": 70,
          "time": 103.63664000000017,
          "velocity": 0.7559055118110236,
          "duration": 1.0352300333333346
        },
        {
          "name": "F4",
          "midi": 65,
          "time": 105.54573600000018,
          "velocity": 0.7559055118110236,
          "duration": 0.5170468333333389
        },
        {
          "name": "A#4",
          "midi": 70,
          "time": 105.54573600000018,
          "velocity": 0.7559055118110236,
          "duration": 0.5170468333333389
        },
        {
          "name": "F4",
          "midi": 65,
          "time": 106.09119200000018,
          "velocity": 0.7559055118110236,
          "duration": 0.2579552333333339
        },
        {
          "name": "A#4",
          "midi": 70,
          "time": 106.09119200000018,
          "velocity": 0.7559055118110236,
          "duration": 0.2579552333333339
        },
        {
          "name": "F4",
          "midi": 65,
          "time": 106.36392000000018,
          "velocity": 0.7559055118110236,
          "duration": 0.2579552333333339
        },
        {
          "name": "A#4",
          "midi": 70,
          "time": 106.36392000000018,
          "velocity": 0.7559055118110236,
          "duration": 0.2579552333333339
        },
        {
          "name": "F4",
          "midi": 65,
          "time": 106.63664800000018,
          "velocity": 0.7559055118110236,
          "duration": 0.2579552333333339
        },
        {
          "name": "A#4",
          "midi": 70,
          "time": 106.63664800000018,
          "velocity": 0.7559055118110236,
          "duration": 0.2579552333333339
        },
        {
          "name": "F4",
          "midi": 65,
          "time": 106.90937600000018,
          "velocity": 0.7559055118110236,
          "duration": 0.5170468333333389
        },
        {
          "name": "G#4",
          "midi": 68,
          "time": 106.90937600000018,
          "velocity": 0.7559055118110236,
          "duration": 0.5170468333333389
        },
        {
          "name": "G#4",
          "midi": 68,
          "time": 107.45483200000018,
          "velocity": 0.7559055118110236,
          "duration": 0.2579552333333339
        },
        {
          "name": "A#4",
          "midi": 70,
          "time": 107.72756000000018,
          "velocity": 0.7559055118110236,
          "duration": 0.2579552333333339
        },
        {
          "name": "F4",
          "midi": 65,
          "time": 108.00028800000018,
          "velocity": 0.7559055118110236,
          "duration": 0.2579552333333339
        },
        {
          "name": "D#4",
          "midi": 63,
          "time": 108.27301600000018,
          "velocity": 0.7559055118110236,
          "duration": 0.2579552333333339
        },
        {
          "name": "C#4",
          "midi": 61,
          "time": 108.54574400000018,
          "velocity": 0.7559055118110236,
          "duration": 0.5170468333333389
        },
        {
          "name": "D#4",
          "midi": 63,
          "time": 109.90938400000019,
          "velocity": 0.7559055118110236,
          "duration": 0.5170468333333389
        },
        {
          "name": "A#4",
          "midi": 70,
          "time": 109.90938400000019,
          "velocity": 0.7559055118110236,
          "duration": 0.5170468333333389
        },
        {
          "name": "D#4",
          "midi": 63,
          "time": 110.45484000000019,
          "velocity": 0.7559055118110236,
          "duration": 0.2579552333333339
        },
        {
          "name": "A#4",
          "midi": 70,
          "time": 110.45484000000019,
          "velocity": 0.7559055118110236,
          "duration": 0.2579552333333339
        },
        {
          "name": "D#4",
          "midi": 63,
          "time": 110.72756800000019,
          "velocity": 0.7559055118110236,
          "duration": 0.2579552333333339
        },
        {
          "name": "A#4",
          "midi": 70,
          "time": 110.72756800000019,
          "velocity": 0.7559055118110236,
          "duration": 0.2579552333333339
        },
        {
          "name": "D#4",
          "midi": 63,
          "time": 111.00029600000019,
          "velocity": 0.7559055118110236,
          "duration": 0.2579552333333339
        },
        {
          "name": "A#4",
          "midi": 70,
          "time": 111.00029600000019,
          "velocity": 0.7559055118110236,
          "duration": 0.2579552333333339
        },
        {
          "name": "D#4",
          "midi": 63,
          "time": 111.27302400000019,
          "velocity": 0.7559055118110236,
          "duration": 0.5170468333333389
        },
        {
          "name": "G#4",
          "midi": 68,
          "time": 111.27302400000019,
          "velocity": 0.7559055118110236,
          "duration": 0.5170468333333389
        },
        {
          "name": "G#4",
          "midi": 68,
          "time": 111.81848000000019,
          "velocity": 0.7559055118110236,
          "duration": 0.2579552333333339
        },
        {
          "name": "A#4",
          "midi": 70,
          "time": 112.0912080000002,
          "velocity": 0.7559055118110236,
          "duration": 0.2579552333333339
        },
        {
          "name": "F4",
          "midi": 65,
          "time": 112.3639360000002,
          "velocity": 0.7559055118110236,
          "duration": 0.2579552333333339
        },
        {
          "name": "D#4",
          "midi": 63,
          "time": 112.6366640000002,
          "velocity": 0.7559055118110236,
          "duration": 0.2579552333333339
        },
        {
          "name": "C#4",
          "midi": 61,
          "time": 112.9093920000002,
          "velocity": 0.7559055118110236,
          "duration": 0.5170468333333389
        },
        {
          "name": "F4",
          "midi": 65,
          "time": 114.2730320000002,
          "velocity": 0.7559055118110236,
          "duration": 0.5170468333333389
        },
        {
          "name": "A#4",
          "midi": 70,
          "time": 114.2730320000002,
          "velocity": 0.7559055118110236,
          "duration": 0.5170468333333389
        },
        {
          "name": "F4",
          "midi": 65,
          "time": 114.8184880000002,
          "velocity": 0.7559055118110236,
          "duration": 0.2579552333333339
        },
        {
          "name": "A#4",
          "midi": 70,
          "time": 114.8184880000002,
          "velocity": 0.7559055118110236,
          "duration": 0.2579552333333339
        },
        {
          "name": "F4",
          "midi": 65,
          "time": 115.0912160000002,
          "velocity": 0.7559055118110236,
          "duration": 0.2579552333333339
        },
        {
          "name": "A#4",
          "midi": 70,
          "time": 115.0912160000002,
          "velocity": 0.7559055118110236,
          "duration": 0.2579552333333339
        },
        {
          "name": "F4",
          "midi": 65,
          "time": 115.3639440000002,
          "velocity": 0.7559055118110236,
          "duration": 0.2579552333333339
        },
        {
          "name": "A#4",
          "midi": 70,
          "time": 115.3639440000002,
          "velocity": 0.7559055118110236,
          "duration": 0.2579552333333339
        },
        {
          "name": "F4",
          "midi": 65,
          "time": 115.6366720000002,
          "velocity": 0.7559055118110236,
          "duration": 0.2579552333333339
        },
        {
          "name": "G#4",
          "midi": 68,
          "time": 115.6366720000002,
          "velocity": 0.7559055118110236,
          "duration": 0.2579552333333339
        },
        {
          "name": "G#4",
          "midi": 68,
          "time": 115.9094000000002,
          "velocity": 0.7559055118110236,
          "duration": 0.2579552333333339
        },
        {
          "name": "G#4",
          "midi": 68,
          "time": 116.1821280000002,
          "velocity": 0.7559055118110236,
          "duration": 0.2579552333333339
        },
        {
          "name": "A#4",
          "midi": 70,
          "time": 116.4548560000002,
          "velocity": 0.7559055118110236,
          "duration": 0.2579552333333339
        },
        {
          "name": "F4",
          "midi": 65,
          "time": 116.7275840000002,
          "velocity": 0.7559055118110236,
          "duration": 0.2579552333333339
        },
        {
          "name": "D#4",
          "midi": 63,
          "time": 117.0003120000002,
          "velocity": 0.7559055118110236,
          "duration": 0.2579552333333339
        },
        {
          "name": "C#4",
          "midi": 61,
          "time": 117.27304000000021,
          "velocity": 0.7559055118110236,
          "duration": 0.2579552333333339
        },
        {
          "name": "D#4",
          "midi": 63,
          "time": 117.54576800000021,
          "velocity": 0.7559055118110236,
          "duration": 2.330688033333331
        },
        {
          "name": "C4",
          "midi": 60,
          "time": 120.5457760000002,
          "velocity": 0.5039370078740157,
          "duration": 1.5534132333333304
        },
        {
          "name": "F4",
          "midi": 65,
          "time": 120.5457760000002,
          "velocity": 0.5039370078740157,
          "duration": 1.5534132333333304
        },
        {
          "name": "A4",
          "midi": 69,
          "time": 120.5457760000002,
          "velocity": 0.5039370078740157,
          "duration": 1.5534132333333304
        },
        {
          "name": "G#4",
          "midi": 68,
          "time": 122.18214400000019,
          "velocity": 0.6299212598425197,
          "duration": 0.2579552333333339
        },
        {
          "name": "G#4",
          "midi": 68,
          "time": 122.4548720000002,
          "velocity": 0.6299212598425197,
          "duration": 0.2579552333333339
        },
        {
          "name": "F4",
          "midi": 65,
          "time": 122.7276000000002,
          "velocity": 0.6299212598425197,
          "duration": 0.2579552333333339
        },
        {
          "name": "A#4",
          "midi": 70,
          "time": 123.0003280000002,
          "velocity": 0.6299212598425197,
          "duration": 0.2579552333333339
        },
        {
          "name": "G#4",
          "midi": 68,
          "time": 123.2730560000002,
          "velocity": 0.6299212598425197,
          "duration": 0.2579552333333339
        },
        {
          "name": "F4",
          "midi": 65,
          "time": 123.5457840000002,
          "velocity": 0.6299212598425197,
          "duration": 0.2579552333333339
        },
        {
          "name": "D#4",
          "midi": 63,
          "time": 123.8185120000002,
          "velocity": 0.6299212598425197,
          "duration": 0.5170468333333389
        },
        {
          "name": "G#4",
          "midi": 68,
          "time": 124.3639680000002,
          "velocity": 0.6299212598425197,
          "duration": 0.2579552333333339
        },
        {
          "name": "G#4",
          "midi": 68,
          "time": 124.6366960000002,
          "velocity": 0.6299212598425197,
          "duration": 0.2579552333333339
        },
        {
          "name": "F4",
          "midi": 65,
          "time": 124.9094240000002,
          "velocity": 0.6299212598425197,
          "duration": 0.2579552333333339
        },
        {
          "name": "A#4",
          "midi": 70,
          "time": 125.1821520000002,
          "velocity": 0.6299212598425197,
          "duration": 0.2579552333333339
        },
        {
          "name": "G#4",
          "midi": 68,
          "time": 125.4548800000002,
          "velocity": 0.6299212598425197,
          "duration": 0.2579552333333339
        },
        {
          "name": "F4",
          "midi": 65,
          "time": 125.7276080000002,
          "velocity": 0.6299212598425197,
          "duration": 0.2579552333333339
        },
        {
          "name": "D#4",
          "midi": 63,
          "time": 126.0003360000002,
          "velocity": 0.6299212598425197,
          "duration": 0.5170468333333389
        },
        {
          "name": "G#4",
          "midi": 68,
          "time": 126.5457920000002,
          "velocity": 0.6299212598425197,
          "duration": 0.2579552333333339
        },
        {
          "name": "G#4",
          "midi": 68,
          "time": 126.8185200000002,
          "velocity": 0.6299212598425197,
          "duration": 0.2579552333333339
        },
        {
          "name": "F4",
          "midi": 65,
          "time": 127.0912480000002,
          "velocity": 0.6299212598425197,
          "duration": 0.2579552333333339
        },
        {
          "name": "A#4",
          "midi": 70,
          "time": 127.3639760000002,
          "velocity": 0.6299212598425197,
          "duration": 0.2579552333333339
        },
        {
          "name": "G#4",
          "midi": 68,
          "time": 127.63670400000021,
          "velocity": 0.6299212598425197,
          "duration": 0.2579552333333339
        },
        {
          "name": "F4",
          "midi": 65,
          "time": 127.90943200000021,
          "velocity": 0.6299212598425197,
          "duration": 0.2579552333333197
        },
        {
          "name": "D#4",
          "midi": 63,
          "time": 128.18216000000018,
          "velocity": 0.6299212598425197,
          "duration": 0.5170468333333247
        },
        {
          "name": "D#4",
          "midi": 63,
          "time": 128.72761600000018,
          "velocity": 0.6299212598425197,
          "duration": 0.2579552333333197
        },
        {
          "name": "F4",
          "midi": 65,
          "time": 129.00034400000015,
          "velocity": 0.6299212598425197,
          "duration": 0.2579552333333197
        },
        {
          "name": "D#4",
          "midi": 63,
          "time": 129.27307200000013,
          "velocity": 0.6299212598425197,
          "duration": 0.2579552333333197
        },
        {
          "name": "F4",
          "midi": 65,
          "time": 129.5458000000001,
          "velocity": 0.6299212598425197,
          "duration": 0.2579552333333197
        },
        {
          "name": "D#4",
          "midi": 63,
          "time": 129.81852800000007,
          "velocity": 0.6299212598425197,
          "duration": 0.3875010333333364
        },
        {
          "name": "C#4",
          "midi": 61,
          "time": 130.2276200000001,
          "velocity": 0.6299212598425197,
          "duration": 0.3875010333333364
        },
        {
          "name": "A#3",
          "midi": 58,
          "time": 130.6367120000001,
          "velocity": 0.6299212598425197,
          "duration": 0.2579552333333197
        },
        {
          "name": "G#4",
          "midi": 68,
          "time": 130.90944000000007,
          "velocity": 0.6299212598425197,
          "duration": 0.2579552333333197
        },
        {
          "name": "G#4",
          "midi": 68,
          "time": 131.18216800000005,
          "velocity": 0.6299212598425197,
          "duration": 0.2579552333333197
        },
        {
          "name": "F4",
          "midi": 65,
          "time": 131.45489600000002,
          "velocity": 0.6299212598425197,
          "duration": 0.2579552333333197
        },
        {
          "name": "A#4",
          "midi": 70,
          "time": 131.727624,
          "velocity": 0.6299212598425197,
          "duration": 0.2579552333333197
        },
        {
          "name": "G#4",
          "midi": 68,
          "time": 132.00035199999996,
          "velocity": 0.6299212598425197,
          "duration": 0.2579552333333197
        },
        {
          "name": "F4",
          "midi": 65,
          "time": 132.27307999999994,
          "velocity": 0.6299212598425197,
          "duration": 0.2579552333333197
        },
        {
          "name": "D#4",
          "midi": 63,
          "time": 132.5458079999999,
          "velocity": 0.6299212598425197,
          "duration": 0.5170468333333247
        },
        {
          "name": "G#4",
          "midi": 68,
          "time": 133.0912639999999,
          "velocity": 0.6299212598425197,
          "duration": 0.2579552333333197
        },
        {
          "name": "G#4",
          "midi": 68,
          "time": 133.36399199999988,
          "velocity": 0.6299212598425197,
          "duration": 0.2579552333333197
        },
        {
          "name": "F4",
          "midi": 65,
          "time": 133.63671999999985,
          "velocity": 0.6299212598425197,
          "duration": 0.2579552333333197
        },
        {
          "name": "A#4",
          "midi": 70,
          "time": 133.90944799999983,
          "velocity": 0.6299212598425197,
          "duration": 0.2579552333333197
        },
        {
          "name": "G#4",
          "midi": 68,
          "time": 134.1821759999998,
          "velocity": 0.6299212598425197,
          "duration": 0.2579552333333197
        },
        {
          "name": "F4",
          "midi": 65,
          "time": 134.45490399999977,
          "velocity": 0.6299212598425197,
          "duration": 0.2579552333333197
        },
        {
          "name": "D#4",
          "midi": 63,
          "time": 134.72763199999974,
          "velocity": 0.6299212598425197,
          "duration": 0.5170468333333247
        },
        {
          "name": "G#4",
          "midi": 68,
          "time": 135.27308799999975,
          "velocity": 0.6299212598425197,
          "duration": 0.2579552333333197
        },
        {
          "name": "G#4",
          "midi": 68,
          "time": 135.54581599999972,
          "velocity": 0.6299212598425197,
          "duration": 0.2579552333333197
        },
        {
          "name": "F4",
          "midi": 65,
          "time": 135.8185439999997,
          "velocity": 0.6299212598425197,
          "duration": 0.2579552333333197
        },
        {
          "name": "A#4",
          "midi": 70,
          "time": 136.09127199999966,
          "velocity": 0.6299212598425197,
          "duration": 0.2579552333333197
        },
        {
          "name": "G#4",
          "midi": 68,
          "time": 136.36399999999963,
          "velocity": 0.6299212598425197,
          "duration": 0.2579552333333197
        },
        {
          "name": "F4",
          "midi": 65,
          "time": 136.6367279999996,
          "velocity": 0.6299212598425197,
          "duration": 0.2579552333333197
        },
        {
          "name": "D#4",
          "midi": 63,
          "time": 136.90945599999958,
          "velocity": 0.6299212598425197,
          "duration": 0.5170468333333247
        },
        {
          "name": "D#4",
          "midi": 63,
          "time": 137.45491199999958,
          "velocity": 0.6299212598425197,
          "duration": 0.2579552333333197
        },
        {
          "name": "F4",
          "midi": 65,
          "time": 137.72763999999955,
          "velocity": 0.6299212598425197,
          "duration": 0.2579552333333197
        },
        {
          "name": "D#4",
          "midi": 63,
          "time": 138.00036799999953,
          "velocity": 0.6299212598425197,
          "duration": 0.2579552333333197
        },
        {
          "name": "F4",
          "midi": 65,
          "time": 138.2730959999995,
          "velocity": 0.6299212598425197,
          "duration": 0.2579552333333197
        },
        {
          "name": "D#4",
          "midi": 63,
          "time": 138.54582399999947,
          "velocity": 0.6299212598425197,
          "duration": 0.3875010333333364
        },
        {
          "name": "C#4",
          "midi": 61,
          "time": 138.95491599999949,
          "velocity": 0.6299212598425197,
          "duration": 0.3875010333333364
        },
        {
          "name": "A#3",
          "midi": 58,
          "time": 139.3640079999995,
          "velocity": 0.6299212598425197,
          "duration": 0.2579552333333197
        },
        {
          "name": "F4",
          "midi": 65,
          "time": 140.45491999999948,
          "velocity": 0.6299212598425197,
          "duration": 0.5170468333333247
        },
        {
          "name": "A#4",
          "midi": 70,
          "time": 140.45491999999948,
          "velocity": 0.6299212598425197,
          "duration": 0.5170468333333247
        },
        {
          "name": "F4",
          "midi": 65,
          "time": 141.00037599999948,
          "velocity": 0.6299212598425197,
          "duration": 0.2579552333333197
        },
        {
          "name": "A#4",
          "midi": 70,
          "time": 141.00037599999948,
          "velocity": 0.6299212598425197,
          "duration": 0.2579552333333197
        },
        {
          "name": "F4",
          "midi": 65,
          "time": 141.27310399999945,
          "velocity": 0.6299212598425197,
          "duration": 0.2579552333333197
        },
        {
          "name": "A#4",
          "midi": 70,
          "time": 141.27310399999945,
          "velocity": 0.6299212598425197,
          "duration": 0.2579552333333197
        },
        {
          "name": "F4",
          "midi": 65,
          "time": 141.54583199999942,
          "velocity": 0.6299212598425197,
          "duration": 0.2579552333333197
        },
        {
          "name": "A#4",
          "midi": 70,
          "time": 141.54583199999942,
          "velocity": 0.6299212598425197,
          "duration": 0.2579552333333197
        },
        {
          "name": "F4",
          "midi": 65,
          "time": 141.8185599999994,
          "velocity": 0.6299212598425197,
          "duration": 0.5170468333333247
        },
        {
          "name": "G#4",
          "midi": 68,
          "time": 141.8185599999994,
          "velocity": 0.6299212598425197,
          "duration": 0.5170468333333247
        },
        {
          "name": "G#4",
          "midi": 68,
          "time": 142.3640159999994,
          "velocity": 0.6299212598425197,
          "duration": 0.2579552333333197
        },
        {
          "name": "A#4",
          "midi": 70,
          "time": 142.63674399999937,
          "velocity": 0.6299212598425197,
          "duration": 0.2579552333333197
        },
        {
          "name": "F4",
          "midi": 65,
          "time": 142.90947199999934,
          "velocity": 0.6299212598425197,
          "duration": 0.2579552333333197
        },
        {
          "name": "D#4",
          "midi": 63,
          "time": 143.1821999999993,
          "velocity": 0.6299212598425197,
          "duration": 0.2579552333333197
        },
        {
          "name": "C#4",
          "midi": 61,
          "time": 143.45492799999928,
          "velocity": 0.6299212598425197,
          "duration": 0.5170468333333247
        },
        {
          "name": "F4",
          "midi": 65,
          "time": 144.8185679999993,
          "velocity": 0.6299212598425197,
          "duration": 0.5170468333333247
        },
        {
          "name": "A#4",
          "midi": 70,
          "time": 144.8185679999993,
          "velocity": 0.6299212598425197,
          "duration": 0.5170468333333247
        },
        {
          "name": "F4",
          "midi": 65,
          "time": 145.3640239999993,
          "velocity": 0.6299212598425197,
          "duration": 0.2579552333333197
        },
        {
          "name": "A#4",
          "midi": 70,
          "time": 145.3640239999993,
          "velocity": 0.6299212598425197,
          "duration": 0.2579552333333197
        },
        {
          "name": "F4",
          "midi": 65,
          "time": 145.63675199999926,
          "velocity": 0.6299212598425197,
          "duration": 0.2579552333333197
        },
        {
          "name": "A#4",
          "midi": 70,
          "time": 145.63675199999926,
          "velocity": 0.6299212598425197,
          "duration": 0.2579552333333197
        },
        {
          "name": "F4",
          "midi": 65,
          "time": 145.90947999999923,
          "velocity": 0.6299212598425197,
          "duration": 0.2579552333333197
        },
        {
          "name": "A#4",
          "midi": 70,
          "time": 145.90947999999923,
          "velocity": 0.6299212598425197,
          "duration": 0.2579552333333197
        },
        {
          "name": "D#4",
          "midi": 63,
          "time": 146.1822079999992,
          "velocity": 0.6299212598425197,
          "duration": 0.5170468333333247
        },
        {
          "name": "G#4",
          "midi": 68,
          "time": 146.1822079999992,
          "velocity": 0.6299212598425197,
          "duration": 0.5170468333333247
        },
        {
          "name": "G#4",
          "midi": 68,
          "time": 146.7276639999992,
          "velocity": 0.6299212598425197,
          "duration": 0.2579552333333197
        },
        {
          "name": "A#4",
          "midi": 70,
          "time": 147.00039199999918,
          "velocity": 0.6299212598425197,
          "duration": 0.2579552333333197
        },
        {
          "name": "F4",
          "midi": 65,
          "time": 147.27311999999915,
          "velocity": 0.6299212598425197,
          "duration": 0.2579552333333197
        },
        {
          "name": "D#4",
          "midi": 63,
          "time": 147.54584799999913,
          "velocity": 0.6299212598425197,
          "duration": 0.2579552333333197
        },
        {
          "name": "C#4",
          "midi": 61,
          "time": 147.8185759999991,
          "velocity": 0.6299212598425197,
          "duration": 0.5170468333333247
        },
        {
          "name": "F4",
          "midi": 65,
          "time": 149.1822159999991,
          "velocity": 0.6299212598425197,
          "duration": 0.5170468333333247
        },
        {
          "name": "A#4",
          "midi": 70,
          "time": 149.1822159999991,
          "velocity": 0.6299212598425197,
          "duration": 0.5170468333333247
        },
        {
          "name": "F4",
          "midi": 65,
          "time": 149.7276719999991,
          "velocity": 0.6299212598425197,
          "duration": 0.2579552333333197
        },
        {
          "name": "A#4",
          "midi": 70,
          "time": 149.7276719999991,
          "velocity": 0.6299212598425197,
          "duration": 0.2579552333333197
        },
        {
          "name": "F4",
          "midi": 65,
          "time": 150.00039999999908,
          "velocity": 0.6299212598425197,
          "duration": 0.2579552333333197
        },
        {
          "name": "A#4",
          "midi": 70,
          "time": 150.00039999999908,
          "velocity": 0.6299212598425197,
          "duration": 0.2579552333333197
        },
        {
          "name": "F4",
          "midi": 65,
          "time": 150.27312799999905,
          "velocity": 0.6299212598425197,
          "duration": 0.2579552333333197
        },
        {
          "name": "A#4",
          "midi": 70,
          "time": 150.27312799999905,
          "velocity": 0.6299212598425197,
          "duration": 0.2579552333333197
        },
        {
          "name": "F4",
          "midi": 65,
          "time": 150.54585599999902,
          "velocity": 0.6299212598425197,
          "duration": 0.2579552333333197
        },
        {
          "name": "G#4",
          "midi": 68,
          "time": 150.54585599999902,
          "velocity": 0.6299212598425197,
          "duration": 0.2579552333333197
        },
        {
          "name": "G#4",
          "midi": 68,
          "time": 150.818583999999,
          "velocity": 0.6299212598425197,
          "duration": 0.2579552333333197
        },
        {
          "name": "G#4",
          "midi": 68,
          "time": 151.09131199999896,
          "velocity": 0.6299212598425197,
          "duration": 0.2579552333333197
        },
        {
          "name": "A#4",
          "midi": 70,
          "time": 151.36403999999894,
          "velocity": 0.6299212598425197,
          "duration": 0.2579552333333197
        },
        {
          "name": "F4",
          "midi": 65,
          "time": 151.6367679999989,
          "velocity": 0.6299212598425197,
          "duration": 0.2579552333333197
        },
        {
          "name": "D#4",
          "midi": 63,
          "time": 151.90949599999888,
          "velocity": 0.6299212598425197,
          "duration": 0.2579552333333197
        },
        {
          "name": "C#4",
          "midi": 61,
          "time": 152.18222399999885,
          "velocity": 0.6299212598425197,
          "duration": 0.2579552333333197
        },
        {
          "name": "D#4",
          "midi": 63,
          "time": 152.45495199999883,
          "velocity": 0.6299212598425197,
          "duration": 2.330688033333331
        },
        {
          "name": "A#4",
          "midi": 70,
          "time": 155.18223199999883,
          "velocity": 0.6299212598425197,
          "duration": 0.2579552333333197
        },
        {
          "name": "A#5",
          "midi": 82,
          "time": 155.18223199999883,
          "velocity": 0.6299212598425197,
          "duration": 0.2579552333333197
        },
        {
          "name": "A4",
          "midi": 69,
          "time": 155.4549599999988,
          "velocity": 0.6299212598425197,
          "duration": 0.2579552333333197
        },
        {
          "name": "A5",
          "midi": 81,
          "time": 155.4549599999988,
          "velocity": 0.6299212598425197,
          "duration": 0.2579552333333197
        },
        {
          "name": "A#4",
          "midi": 70,
          "time": 155.72768799999878,
          "velocity": 0.6299212598425197,
          "duration": 0.2579552333333197
        },
        {
          "name": "A#5",
          "midi": 82,
          "time": 155.72768799999878,
          "velocity": 0.6299212598425197,
          "duration": 0.2579552333333197
        },
        {
          "name": "C5",
          "midi": 72,
          "time": 156.00041599999875,
          "velocity": 0.6299212598425197,
          "duration": 0.2579552333333197
        },
        {
          "name": "C6",
          "midi": 84,
          "time": 156.00041599999875,
          "velocity": 0.6299212598425197,
          "duration": 0.2579552333333197
        },
        {
          "name": "A#4",
          "midi": 70,
          "time": 156.27314399999872,
          "velocity": 0.6299212598425197,
          "duration": 0.2579552333333197
        },
        {
          "name": "A#5",
          "midi": 82,
          "time": 156.27314399999872,
          "velocity": 0.6299212598425197,
          "duration": 0.2579552333333197
        },
        {
          "name": "A4",
          "midi": 69,
          "time": 156.5458719999987,
          "velocity": 0.6299212598425197,
          "duration": 0.5170468333333247
        },
        {
          "name": "A5",
          "midi": 81,
          "time": 156.5458719999987,
          "velocity": 0.6299212598425197,
          "duration": 0.5170468333333247
        },
        {
          "name": "G#3",
          "midi": 56,
          "time": 157.0913279999987,
          "velocity": 0.8818897637795275,
          "duration": 0.12840943333333144
        },
        {
          "name": "A#3",
          "midi": 58,
          "time": 157.22769199999868,
          "velocity": 0.8818897637795275,
          "duration": 0.2579552333333197
        },
        {
          "name": "G#3",
          "midi": 56,
          "time": 157.50041999999866,
          "velocity": 0.8818897637795275,
          "duration": 0.12840943333333144
        },
        {
          "name": "A#3",
          "midi": 58,
          "time": 157.63678399999864,
          "velocity": 0.8818897637795275,
          "duration": 0.2579552333333197
        },
        {
          "name": "G#3",
          "midi": 56,
          "time": 157.9095119999986,
          "velocity": 0.8818897637795275,
          "duration": 0.12840943333333144
        },
        {
          "name": "A#3",
          "midi": 58,
          "time": 158.0458759999986,
          "velocity": 0.8818897637795275,
          "duration": 0.2579552333333197
        },
        {
          "name": "G#3",
          "midi": 56,
          "time": 158.31860399999857,
          "velocity": 0.8818897637795275,
          "duration": 0.12840943333333144
        },
        {
          "name": "A#3",
          "midi": 58,
          "time": 158.45496799999856,
          "velocity": 0.8818897637795275,
          "duration": 0.7761384333333297
        },
        {
          "name": "A#4",
          "midi": 70,
          "time": 159.54587999999856,
          "velocity": 0.7559055118110236,
          "duration": 0.2579552333333197
        },
        {
          "name": "A#5",
          "midi": 82,
          "time": 159.54587999999856,
          "velocity": 0.7559055118110236,
          "duration": 0.2579552333333197
        },
        {
          "name": "A4",
          "midi": 69,
          "time": 159.81860799999853,
          "velocity": 0.7559055118110236,
          "duration": 0.2579552333333197
        },
        {
          "name": "A5",
          "midi": 81,
          "time": 159.81860799999853,
          "velocity": 0.7559055118110236,
          "duration": 0.2579552333333197
        },
        {
          "name": "A#4",
          "midi": 70,
          "time": 160.0913359999985,
          "velocity": 0.7559055118110236,
          "duration": 0.2579552333333197
        },
        {
          "name": "A#5",
          "midi": 82,
          "time": 160.0913359999985,
          "velocity": 0.7559055118110236,
          "duration": 0.2579552333333197
        },
        {
          "name": "C5",
          "midi": 72,
          "time": 160.36406399999848,
          "velocity": 0.7559055118110236,
          "duration": 0.2579552333333197
        },
        {
          "name": "C6",
          "midi": 84,
          "time": 160.36406399999848,
          "velocity": 0.7559055118110236,
          "duration": 0.2579552333333197
        },
        {
          "name": "A#4",
          "midi": 70,
          "time": 160.63679199999845,
          "velocity": 0.7559055118110236,
          "duration": 0.2579552333333197
        },
        {
          "name": "A#5",
          "midi": 82,
          "time": 160.63679199999845,
          "velocity": 0.7559055118110236,
          "duration": 0.2579552333333197
        },
        {
          "name": "A4",
          "midi": 69,
          "time": 160.90951999999842,
          "velocity": 0.7559055118110236,
          "duration": 0.5170468333333247
        },
        {
          "name": "A5",
          "midi": 81,
          "time": 160.90951999999842,
          "velocity": 0.7559055118110236,
          "duration": 0.5170468333333247
        },
        {
          "name": "G#3",
          "midi": 56,
          "time": 161.45497599999842,
          "velocity": 0.8818897637795275,
          "duration": 0.12840943333333144
        },
        {
          "name": "A#3",
          "midi": 58,
          "time": 161.5913399999984,
          "velocity": 0.8818897637795275,
          "duration": 0.2579552333333197
        },
        {
          "name": "G#3",
          "midi": 56,
          "time": 161.86406799999838,
          "velocity": 0.8818897637795275,
          "duration": 0.12840943333333144
        },
        {
          "name": "A#3",
          "midi": 58,
          "time": 162.00043199999837,
          "velocity": 0.8818897637795275,
          "duration": 0.2579552333333197
        },
        {
          "name": "G#3",
          "midi": 56,
          "time": 162.27315999999834,
          "velocity": 0.8818897637795275,
          "duration": 0.12840943333333144
        },
        {
          "name": "A#3",
          "midi": 58,
          "time": 162.40952399999833,
          "velocity": 0.8818897637795275,
          "duration": 0.2579552333333197
        },
        {
          "name": "G#3",
          "midi": 56,
          "time": 162.6822519999983,
          "velocity": 0.8818897637795275,
          "duration": 0.12840943333333144
        },
        {
          "name": "A#3",
          "midi": 58,
          "time": 162.8186159999983,
          "velocity": 0.8818897637795275,
          "duration": 0.7761384333333297
        },
        {
          "name": "G#3",
          "midi": 56,
          "time": 163.6367999999983,
          "velocity": 0.8818897637795275,
          "duration": 0.12840943333333144
        },
        {
          "name": "A#3",
          "midi": 58,
          "time": 163.77316399999827,
          "velocity": 0.8818897637795275,
          "duration": 0.2579552333333197
        },
        {
          "name": "G#3",
          "midi": 56,
          "time": 164.04589199999825,
          "velocity": 0.8818897637795275,
          "duration": 0.12840943333333144
        },
        {
          "name": "A#3",
          "midi": 58,
          "time": 164.18225599999823,
          "velocity": 0.8818897637795275,
          "duration": 0.2579552333333197
        },
        {
          "name": "G#3",
          "midi": 56,
          "time": 164.4549839999982,
          "velocity": 0.8818897637795275,
          "duration": 0.12840943333333144
        },
        {
          "name": "A#3",
          "midi": 58,
          "time": 164.5913479999982,
          "velocity": 0.8818897637795275,
          "duration": 0.3875010333333364
        },
        {
          "name": "G#3",
          "midi": 56,
          "time": 165.0004399999982,
          "velocity": 0.8818897637795275,
          "duration": 0.3875010333333364
        },
        {
          "name": "A3",
          "midi": 57,
          "time": 165.40953199999822,
          "velocity": 0.8818897637795275,
          "duration": 0.3875010333333364
        },
        {
          "name": "G#4",
          "midi": 68,
          "time": 165.81862399999824,
          "velocity": 0.8818897637795275,
          "duration": 0.2579552333333197
        },
        {
          "name": "G#4",
          "midi": 68,
          "time": 166.0913519999982,
          "velocity": 0.8818897637795275,
          "duration": 0.2579552333333197
        },
        {
          "name": "F4",
          "midi": 65,
          "time": 166.36407999999818,
          "velocity": 0.8818897637795275,
          "duration": 0.2579552333333197
        },
        {
          "name": "A#4",
          "midi": 70,
          "time": 166.63680799999815,
          "velocity": 0.8818897637795275,
          "duration": 0.2579552333333197
        },
        {
          "name": "G#4",
          "midi": 68,
          "time": 166.90953599999813,
          "velocity": 0.8818897637795275,
          "duration": 0.2579552333333197
        },
        {
          "name": "F4",
          "midi": 65,
          "time": 167.1822639999981,
          "velocity": 0.8818897637795275,
          "duration": 0.2579552333333197
        },
        {
          "name": "D#4",
          "midi": 63,
          "time": 167.45499199999807,
          "velocity": 0.8818897637795275,
          "duration": 0.5170468333333247
        },
        {
          "name": "G#4",
          "midi": 68,
          "time": 168.00044799999807,
          "velocity": 0.8818897637795275,
          "duration": 0.2579552333333197
        },
        {
          "name": "G#4",
          "midi": 68,
          "time": 168.27317599999805,
          "velocity": 0.8818897637795275,
          "duration": 0.2579552333333197
        },
        {
          "name": "F4",
          "midi": 65,
          "time": 168.54590399999802,
          "velocity": 0.8818897637795275,
          "duration": 0.2579552333333197
        },
        {
          "name": "A#4",
          "midi": 70,
          "time": 168.818631999998,
          "velocity": 0.8818897637795275,
          "duration": 0.2579552333333197
        },
        {
          "name": "G#4",
          "midi": 68,
          "time": 169.09135999999796,
          "velocity": 0.8818897637795275,
          "duration": 0.2579552333333197
        },
        {
          "name": "F4",
          "midi": 65,
          "time": 169.36408799999793,
          "velocity": 0.8818897637795275,
          "duration": 0.2579552333333197
        },
        {
          "name": "D#4",
          "midi": 63,
          "time": 169.6368159999979,
          "velocity": 0.8818897637795275,
          "duration": 0.5170468333333247
        },
        {
          "name": "G#4",
          "midi": 68,
          "time": 170.1822719999979,
          "velocity": 0.8818897637795275,
          "duration": 0.2579552333333197
        },
        {
          "name": "G#4",
          "midi": 68,
          "time": 170.45499999999788,
          "velocity": 0.8818897637795275,
          "duration": 0.2579552333333197
        },
        {
          "name": "F4",
          "midi": 65,
          "time": 170.72772799999785,
          "velocity": 0.8818897637795275,
          "duration": 0.2579552333333197
        },
        {
          "name": "A#4",
          "midi": 70,
          "time": 171.00045599999783,
          "velocity": 0.8818897637795275,
          "duration": 0.2579552333333197
        },
        {
          "name": "G#4",
          "midi": 68,
          "time": 171.2731839999978,
          "velocity": 0.8818897637795275,
          "duration": 0.2579552333333197
        },
        {
          "name": "F4",
          "midi": 65,
          "time": 171.54591199999777,
          "velocity": 0.8818897637795275,
          "duration": 0.2579552333333197
        },
        {
          "name": "D#4",
          "midi": 63,
          "time": 171.81863999999774,
          "velocity": 0.8818897637795275,
          "duration": 0.5170468333333247
        },
        {
          "name": "D#5",
          "midi": 75,
          "time": 172.36409599999774,
          "velocity": 0.8818897637795275,
          "duration": 0.2579552333333197
        },
        {
          "name": "F5",
          "midi": 77,
          "time": 172.63682399999772,
          "velocity": 0.8818897637795275,
          "duration": 0.2579552333333197
        },
        {
          "name": "D#5",
          "midi": 75,
          "time": 172.9095519999977,
          "velocity": 0.8818897637795275,
          "duration": 0.2579552333333197
        },
        {
          "name": "F5",
          "midi": 77,
          "time": 173.18227999999766,
          "velocity": 0.8818897637795275,
          "duration": 0.2579552333333197
        },
        {
          "name": "D#5",
          "midi": 75,
          "time": 173.45500799999763,
          "velocity": 0.8818897637795275,
          "duration": 0.3875010333333364
        },
        {
          "name": "C#5",
          "midi": 73,
          "time": 173.86409999999765,
          "velocity": 0.8818897637795275,
          "duration": 0.3875010333333364
        },
        {
          "name": "A#4",
          "midi": 70,
          "time": 174.27319199999766,
          "velocity": 1,
          "duration": 1.3079580333333354
        }
      ],
      "controlChanges": {
        "7": [
          {
            "number": 7,
            "time": 0,
            "value": 0.7874015748031497
          }
        ],
        "10": [
          {
            "number": 10,
            "time": 0,
            "value": 0.5039370078740157
          }
        ],
        "91": [
          {
            "number": 91,
            "time": 0,
            "value": 0
          }
        ],
        "93": [
          {
            "number": 93,
            "time": 0,
            "value": 0
          }
        ],
        "121": [
          {
            "number": 121,
            "time": 0,
            "value": 0
          }
        ]
      },
      "id": 0,
      "name": "Piano",
      "instrumentNumber": 0,
      "instrument": "acoustic grand piano",
      "instrumentFamily": "piano",
      "channelNumber": 0,
      "isPercussion": false
    },
    {
      "startTime": 8.727295999999999,
      "duration": 173.44023523333428,
      "length": 727,
      "notes": [
        {
          "name": "A#0",
          "midi": 22,
          "time": 8.727295999999999,
          "velocity": 0.7559055118110236,
          "duration": 0.38750103333333286
        },
        {
          "name": "A#1",
          "midi": 34,
          "time": 8.727295999999999,
          "velocity": 0.7559055118110236,
          "duration": 0.38750103333333286
        },
        {
          "name": "A#0",
          "midi": 22,
          "time": 9.136387999999998,
          "velocity": 0.7559055118110236,
          "duration": 0.38750103333333286
        },
        {
          "name": "A#1",
          "midi": 34,
          "time": 9.136387999999998,
          "velocity": 0.7559055118110236,
          "duration": 0.38750103333333286
        },
        {
          "name": "A#0",
          "midi": 22,
          "time": 9.545479999999998,
          "velocity": 0.7559055118110236,
          "duration": 0.5170468333333336
        },
        {
          "name": "A#1",
          "midi": 34,
          "time": 9.545479999999998,
          "velocity": 0.7559055118110236,
          "duration": 0.5170468333333336
        },
        {
          "name": "A#0",
          "midi": 22,
          "time": 10.090935999999997,
          "velocity": 0.7559055118110236,
          "duration": 0.7761384333333332
        },
        {
          "name": "A#1",
          "midi": 34,
          "time": 10.090935999999997,
          "velocity": 0.7559055118110236,
          "duration": 0.7761384333333332
        },
        {
          "name": "G#1",
          "midi": 32,
          "time": 10.909119999999998,
          "velocity": 0.7559055118110236,
          "duration": 0.1284094333333332
        },
        {
          "name": "A#1",
          "midi": 34,
          "time": 11.045483999999998,
          "velocity": 0.7559055118110236,
          "duration": 0.2579552333333339
        },
        {
          "name": "G#1",
          "midi": 32,
          "time": 11.318211999999999,
          "velocity": 0.7559055118110236,
          "duration": 0.1284094333333332
        },
        {
          "name": "A#1",
          "midi": 34,
          "time": 11.454576,
          "velocity": 0.7559055118110236,
          "duration": 0.2579552333333339
        },
        {
          "name": "G#1",
          "midi": 32,
          "time": 11.727304,
          "velocity": 0.7559055118110236,
          "duration": 0.1284094333333332
        },
        {
          "name": "A#1",
          "midi": 34,
          "time": 11.863668,
          "velocity": 0.7559055118110236,
          "duration": 0.38750103333333286
        },
        {
          "name": "D#2",
          "midi": 39,
          "time": 12.27276,
          "velocity": 0.7559055118110236,
          "duration": 0.38750103333333286
        },
        {
          "name": "C#2",
          "midi": 37,
          "time": 12.681852,
          "velocity": 0.7559055118110236,
          "duration": 0.38750103333333286
        },
        {
          "name": "A#0",
          "midi": 22,
          "time": 13.090943999999999,
          "velocity": 0.7559055118110236,
          "duration": 0.38750103333333286
        },
        {
          "name": "A#1",
          "midi": 34,
          "time": 13.090943999999999,
          "velocity": 0.7559055118110236,
          "duration": 0.38750103333333286
        },
        {
          "name": "A#0",
          "midi": 22,
          "time": 13.500035999999998,
          "velocity": 0.7559055118110236,
          "duration": 0.38750103333333286
        },
        {
          "name": "A#1",
          "midi": 34,
          "time": 13.500035999999998,
          "velocity": 0.7559055118110236,
          "duration": 0.38750103333333286
        },
        {
          "name": "A#0",
          "midi": 22,
          "time": 13.909127999999997,
          "velocity": 0.7559055118110236,
          "duration": 0.5170468333333336
        },
        {
          "name": "A#1",
          "midi": 34,
          "time": 13.909127999999997,
          "velocity": 0.7559055118110236,
          "duration": 0.5170468333333336
        },
        {
          "name": "A#0",
          "midi": 22,
          "time": 14.454583999999997,
          "velocity": 0.7559055118110236,
          "duration": 0.7761384333333332
        },
        {
          "name": "A#1",
          "midi": 34,
          "time": 14.454583999999997,
          "velocity": 0.7559055118110236,
          "duration": 0.7761384333333332
        },
        {
          "name": "G#1",
          "midi": 32,
          "time": 15.272767999999997,
          "velocity": 0.7559055118110236,
          "duration": 0.1284094333333332
        },
        {
          "name": "A#1",
          "midi": 34,
          "time": 15.409131999999998,
          "velocity": 0.7559055118110236,
          "duration": 0.2579552333333339
        },
        {
          "name": "G#1",
          "midi": 32,
          "time": 15.681859999999999,
          "velocity": 0.7559055118110236,
          "duration": 0.1284094333333332
        },
        {
          "name": "A#1",
          "midi": 34,
          "time": 15.818223999999999,
          "velocity": 0.7559055118110236,
          "duration": 0.25795523333333215
        },
        {
          "name": "G#1",
          "midi": 32,
          "time": 16.090951999999998,
          "velocity": 0.7559055118110236,
          "duration": 0.128409433333335
        },
        {
          "name": "A#1",
          "midi": 34,
          "time": 16.227316,
          "velocity": 0.7559055118110236,
          "duration": 0.2579552333333339
        },
        {
          "name": "A#2",
          "midi": 46,
          "time": 17.454591999999998,
          "velocity": 0.5039370078740157,
          "duration": 0.2579552333333339
        },
        {
          "name": "F3",
          "midi": 53,
          "time": 17.454591999999998,
          "velocity": 0.5039370078740157,
          "duration": 0.2579552333333339
        },
        {
          "name": "A#2",
          "midi": 46,
          "time": 17.72732,
          "velocity": 0.5039370078740157,
          "duration": 0.2579552333333339
        },
        {
          "name": "F3",
          "midi": 53,
          "time": 17.72732,
          "velocity": 0.5039370078740157,
          "duration": 0.2579552333333339
        },
        {
          "name": "A#2",
          "midi": 46,
          "time": 18.000048,
          "velocity": 0.5039370078740157,
          "duration": 0.38750103333333286
        },
        {
          "name": "F3",
          "midi": 53,
          "time": 18.000048,
          "velocity": 0.5039370078740157,
          "duration": 0.38750103333333286
        },
        {
          "name": "A#2",
          "midi": 46,
          "time": 18.40914,
          "velocity": 0.5039370078740157,
          "duration": 0.38750103333333286
        },
        {
          "name": "F3",
          "midi": 53,
          "time": 18.40914,
          "velocity": 0.5039370078740157,
          "duration": 0.38750103333333286
        },
        {
          "name": "G#2",
          "midi": 44,
          "time": 18.818232000000002,
          "velocity": 0.5039370078740157,
          "duration": 0.38750103333333286
        },
        {
          "name": "F3",
          "midi": 53,
          "time": 18.818232000000002,
          "velocity": 0.5039370078740157,
          "duration": 0.38750103333333286
        },
        {
          "name": "A2",
          "midi": 45,
          "time": 19.227324000000003,
          "velocity": 0.5039370078740157,
          "duration": 0.38750103333333286
        },
        {
          "name": "F3",
          "midi": 53,
          "time": 19.227324000000003,
          "velocity": 0.5039370078740157,
          "duration": 0.38750103333333286
        },
        {
          "name": "A#2",
          "midi": 46,
          "time": 19.636416000000004,
          "velocity": 0.5039370078740157,
          "duration": 0.2579552333333339
        },
        {
          "name": "F3",
          "midi": 53,
          "time": 19.636416000000004,
          "velocity": 0.5039370078740157,
          "duration": 0.2579552333333339
        },
        {
          "name": "A#2",
          "midi": 46,
          "time": 19.909144000000005,
          "velocity": 0.5039370078740157,
          "duration": 0.2579552333333339
        },
        {
          "name": "F3",
          "midi": 53,
          "time": 19.909144000000005,
          "velocity": 0.5039370078740157,
          "duration": 0.2579552333333339
        },
        {
          "name": "A#2",
          "midi": 46,
          "time": 20.181872000000006,
          "velocity": 0.5039370078740157,
          "duration": 0.38750103333333286
        },
        {
          "name": "F3",
          "midi": 53,
          "time": 20.181872000000006,
          "velocity": 0.5039370078740157,
          "duration": 0.38750103333333286
        },
        {
          "name": "A#2",
          "midi": 46,
          "time": 20.590964000000007,
          "velocity": 0.5039370078740157,
          "duration": 0.38750103333333286
        },
        {
          "name": "F3",
          "midi": 53,
          "time": 20.590964000000007,
          "velocity": 0.5039370078740157,
          "duration": 0.38750103333333286
        },
        {
          "name": "G#2",
          "midi": 44,
          "time": 21.000056000000008,
          "velocity": 0.5039370078740157,
          "duration": 0.38750103333333286
        },
        {
          "name": "F3",
          "midi": 53,
          "time": 21.000056000000008,
          "velocity": 0.5039370078740157,
          "duration": 0.38750103333333286
        },
        {
          "name": "A2",
          "midi": 45,
          "time": 21.40914800000001,
          "velocity": 0.5039370078740157,
          "duration": 0.38750103333333286
        },
        {
          "name": "F3",
          "midi": 53,
          "time": 21.40914800000001,
          "velocity": 0.5039370078740157,
          "duration": 0.38750103333333286
        },
        {
          "name": "A#2",
          "midi": 46,
          "time": 21.81824000000001,
          "velocity": 0.5039370078740157,
          "duration": 0.2579552333333339
        },
        {
          "name": "F3",
          "midi": 53,
          "time": 21.81824000000001,
          "velocity": 0.5039370078740157,
          "duration": 0.2579552333333339
        },
        {
          "name": "A#2",
          "midi": 46,
          "time": 22.09096800000001,
          "velocity": 0.5196850393700787,
          "duration": 0.2579552333333339
        },
        {
          "name": "F3",
          "midi": 53,
          "time": 22.09096800000001,
          "velocity": 0.5196850393700787,
          "duration": 0.2579552333333339
        },
        {
          "name": "A#2",
          "midi": 46,
          "time": 22.36369600000001,
          "velocity": 0.5354330708661418,
          "duration": 0.38750103333333286
        },
        {
          "name": "F3",
          "midi": 53,
          "time": 22.36369600000001,
          "velocity": 0.5354330708661418,
          "duration": 0.38750103333333286
        },
        {
          "name": "A#2",
          "midi": 46,
          "time": 22.772788000000013,
          "velocity": 0.5590551181102362,
          "duration": 0.38750103333333286
        },
        {
          "name": "F3",
          "midi": 53,
          "time": 22.772788000000013,
          "velocity": 0.5590551181102362,
          "duration": 0.38750103333333286
        },
        {
          "name": "G#2",
          "midi": 44,
          "time": 23.181880000000014,
          "velocity": 0.5826771653543307,
          "duration": 0.38750103333333286
        },
        {
          "name": "F3",
          "midi": 53,
          "time": 23.181880000000014,
          "velocity": 0.5826771653543307,
          "duration": 0.38750103333333286
        },
        {
          "name": "A2",
          "midi": 45,
          "time": 23.590972000000015,
          "velocity": 0.6062992125984252,
          "duration": 0.38750103333333286
        },
        {
          "name": "F3",
          "midi": 53,
          "time": 23.590972000000015,
          "velocity": 0.6062992125984252,
          "duration": 0.38750103333333286
        },
        {
          "name": "A#2",
          "midi": 46,
          "time": 24.000064000000016,
          "velocity": 0.6299212598425197,
          "duration": 0.2579552333333339
        },
        {
          "name": "F3",
          "midi": 53,
          "time": 24.000064000000016,
          "velocity": 0.6299212598425197,
          "duration": 0.2579552333333339
        },
        {
          "name": "A#2",
          "midi": 46,
          "time": 24.272792000000017,
          "velocity": 0.6299212598425197,
          "duration": 0.2579552333333339
        },
        {
          "name": "F3",
          "midi": 53,
          "time": 24.272792000000017,
          "velocity": 0.6299212598425197,
          "duration": 0.2579552333333339
        },
        {
          "name": "A#2",
          "midi": 46,
          "time": 24.545520000000018,
          "velocity": 0.6299212598425197,
          "duration": 0.38750103333333286
        },
        {
          "name": "F3",
          "midi": 53,
          "time": 24.545520000000018,
          "velocity": 0.6299212598425197,
          "duration": 0.38750103333333286
        },
        {
          "name": "A#2",
          "midi": 46,
          "time": 24.95461200000002,
          "velocity": 0.6299212598425197,
          "duration": 0.38750103333333286
        },
        {
          "name": "F3",
          "midi": 53,
          "time": 24.95461200000002,
          "velocity": 0.6299212598425197,
          "duration": 0.38750103333333286
        },
        {
          "name": "G#2",
          "midi": 44,
          "time": 25.36370400000002,
          "velocity": 0.6299212598425197,
          "duration": 0.38750103333333286
        },
        {
          "name": "F3",
          "midi": 53,
          "time": 25.36370400000002,
          "velocity": 0.6299212598425197,
          "duration": 0.38750103333333286
        },
        {
          "name": "A2",
          "midi": 45,
          "time": 25.77279600000002,
          "velocity": 0.6299212598425197,
          "duration": 0.38750103333333286
        },
        {
          "name": "F3",
          "midi": 53,
          "time": 25.77279600000002,
          "velocity": 0.6299212598425197,
          "duration": 0.38750103333333286
        },
        {
          "name": "A#2",
          "midi": 46,
          "time": 26.181888000000022,
          "velocity": 0.6299212598425197,
          "duration": 0.38750103333333286
        },
        {
          "name": "A#3",
          "midi": 58,
          "time": 26.181888000000022,
          "velocity": 0.6299212598425197,
          "duration": 0.38750103333333286
        },
        {
          "name": "A#2",
          "midi": 46,
          "time": 26.590980000000023,
          "velocity": 0.6299212598425197,
          "duration": 0.38750103333333286
        },
        {
          "name": "A#3",
          "midi": 58,
          "time": 26.590980000000023,
          "velocity": 0.6299212598425197,
          "duration": 0.38750103333333286
        },
        {
          "name": "A#2",
          "midi": 46,
          "time": 27.000072000000024,
          "velocity": 0.6299212598425197,
          "duration": 0.2579552333333339
        },
        {
          "name": "A#3",
          "midi": 58,
          "time": 27.000072000000024,
          "velocity": 0.6299212598425197,
          "duration": 0.2579552333333339
        },
        {
          "name": "A#2",
          "midi": 46,
          "time": 27.272800000000025,
          "velocity": 0.6299212598425197,
          "duration": 0.38750103333333286
        },
        {
          "name": "A3",
          "midi": 57,
          "time": 27.272800000000025,
          "velocity": 0.6299212598425197,
          "duration": 0.38750103333333286
        },
        {
          "name": "G#2",
          "midi": 44,
          "time": 27.681892000000026,
          "velocity": 0.6299212598425197,
          "duration": 0.38750103333333286
        },
        {
          "name": "F3",
          "midi": 53,
          "time": 27.681892000000026,
          "velocity": 0.6299212598425197,
          "duration": 0.38750103333333286
        },
        {
          "name": "A2",
          "midi": 45,
          "time": 28.090984000000027,
          "velocity": 0.6299212598425197,
          "duration": 0.2579552333333339
        },
        {
          "name": "F3",
          "midi": 53,
          "time": 28.090984000000027,
          "velocity": 0.6299212598425197,
          "duration": 0.2579552333333339
        },
        {
          "name": "A#2",
          "midi": 46,
          "time": 28.363712000000028,
          "velocity": 0.6299212598425197,
          "duration": 0.38750103333333286
        },
        {
          "name": "G#3",
          "midi": 56,
          "time": 28.363712000000028,
          "velocity": 0.6299212598425197,
          "duration": 0.38750103333333286
        },
        {
          "name": "A#2",
          "midi": 46,
          "time": 28.77280400000003,
          "velocity": 0.6299212598425197,
          "duration": 0.38750103333333286
        },
        {
          "name": "G#3",
          "midi": 56,
          "time": 28.77280400000003,
          "velocity": 0.6299212598425197,
          "duration": 0.38750103333333286
        },
        {
          "name": "A#2",
          "midi": 46,
          "time": 29.18189600000003,
          "velocity": 0.6299212598425197,
          "duration": 0.2579552333333339
        },
        {
          "name": "G#3",
          "midi": 56,
          "time": 29.18189600000003,
          "velocity": 0.6299212598425197,
          "duration": 0.2579552333333339
        },
        {
          "name": "A#2",
          "midi": 46,
          "time": 29.45462400000003,
          "velocity": 0.6299212598425197,
          "duration": 0.38750103333333286
        },
        {
          "name": "G3",
          "midi": 55,
          "time": 29.45462400000003,
          "velocity": 0.6299212598425197,
          "duration": 0.38750103333333286
        },
        {
          "name": "G#2",
          "midi": 44,
          "time": 29.863716000000032,
          "velocity": 0.6299212598425197,
          "duration": 0.38750103333333286
        },
        {
          "name": "F3",
          "midi": 53,
          "time": 29.863716000000032,
          "velocity": 0.6299212598425197,
          "duration": 0.38750103333333286
        },
        {
          "name": "A2",
          "midi": 45,
          "time": 30.272808000000033,
          "velocity": 0.6299212598425197,
          "duration": 0.2579552333333339
        },
        {
          "name": "F3",
          "midi": 53,
          "time": 30.272808000000033,
          "velocity": 0.6299212598425197,
          "duration": 0.2579552333333339
        },
        {
          "name": "A#2",
          "midi": 46,
          "time": 30.545536000000034,
          "velocity": 0.6299212598425197,
          "duration": 0.38750103333333286
        },
        {
          "name": "F#3",
          "midi": 54,
          "time": 30.545536000000034,
          "velocity": 0.6299212598425197,
          "duration": 0.38750103333333286
        },
        {
          "name": "A#2",
          "midi": 46,
          "time": 30.954628000000035,
          "velocity": 0.6299212598425197,
          "duration": 0.38750103333333286
        },
        {
          "name": "F#3",
          "midi": 54,
          "time": 30.954628000000035,
          "velocity": 0.6299212598425197,
          "duration": 0.38750103333333286
        },
        {
          "name": "A#2",
          "midi": 46,
          "time": 31.363720000000036,
          "velocity": 0.6299212598425197,
          "duration": 0.2579552333333339
        },
        {
          "name": "F#3",
          "midi": 54,
          "time": 31.363720000000036,
          "velocity": 0.6299212598425197,
          "duration": 0.2579552333333339
        },
        {
          "name": "A#2",
          "midi": 46,
          "time": 31.636448000000037,
          "velocity": 0.6299212598425197,
          "duration": 0.3875010333333364
        },
        {
          "name": "F3",
          "midi": 53,
          "time": 31.636448000000037,
          "velocity": 0.6299212598425197,
          "duration": 0.3875010333333364
        },
        {
          "name": "G#2",
          "midi": 44,
          "time": 32.04554000000004,
          "velocity": 0.6299212598425197,
          "duration": 0.3875010333333364
        },
        {
          "name": "F3",
          "midi": 53,
          "time": 32.04554000000004,
          "velocity": 0.6299212598425197,
          "duration": 0.3875010333333364
        },
        {
          "name": "A2",
          "midi": 45,
          "time": 32.45463200000004,
          "velocity": 0.6299212598425197,
          "duration": 0.2579552333333339
        },
        {
          "name": "F3",
          "midi": 53,
          "time": 32.45463200000004,
          "velocity": 0.6299212598425197,
          "duration": 0.2579552333333339
        },
        {
          "name": "A#2",
          "midi": 46,
          "time": 32.72736000000004,
          "velocity": 0.6299212598425197,
          "duration": 0.3875010333333364
        },
        {
          "name": "D#3",
          "midi": 51,
          "time": 32.72736000000004,
          "velocity": 0.6299212598425197,
          "duration": 0.3875010333333364
        },
        {
          "name": "A#2",
          "midi": 46,
          "time": 33.13645200000004,
          "velocity": 0.6299212598425197,
          "duration": 0.3875010333333364
        },
        {
          "name": "D#3",
          "midi": 51,
          "time": 33.13645200000004,
          "velocity": 0.6299212598425197,
          "duration": 0.3875010333333364
        },
        {
          "name": "A#2",
          "midi": 46,
          "time": 33.54554400000004,
          "velocity": 0.6299212598425197,
          "duration": 0.2579552333333339
        },
        {
          "name": "D#3",
          "midi": 51,
          "time": 33.54554400000004,
          "velocity": 0.6299212598425197,
          "duration": 0.2579552333333339
        },
        {
          "name": "F2",
          "midi": 41,
          "time": 33.81827200000004,
          "velocity": 0.6299212598425197,
          "duration": 0.2579552333333339
        },
        {
          "name": "F3",
          "midi": 53,
          "time": 33.81827200000004,
          "velocity": 0.6299212598425197,
          "duration": 0.2579552333333339
        },
        {
          "name": "A#1",
          "midi": 34,
          "time": 34.909184000000046,
          "velocity": 0.7559055118110236,
          "duration": 0.12840943333333144
        },
        {
          "name": "A#2",
          "midi": 46,
          "time": 35.045548000000046,
          "velocity": 0.7559055118110236,
          "duration": 0.12840943333333144
        },
        {
          "name": "A#2",
          "midi": 46,
          "time": 35.18191200000005,
          "velocity": 0.7559055118110236,
          "duration": 0.12840943333333144
        },
        {
          "name": "A#2",
          "midi": 46,
          "time": 35.31827600000005,
          "velocity": 0.7559055118110236,
          "duration": 0.12840943333333144
        },
        {
          "name": "A#1",
          "midi": 34,
          "time": 35.45464000000005,
          "velocity": 0.7559055118110236,
          "duration": 0.12840943333333144
        },
        {
          "name": "A#2",
          "midi": 46,
          "time": 35.59100400000005,
          "velocity": 0.7559055118110236,
          "duration": 0.12840943333333144
        },
        {
          "name": "A#2",
          "midi": 46,
          "time": 35.72736800000005,
          "velocity": 0.7559055118110236,
          "duration": 0.12840943333333144
        },
        {
          "name": "A#2",
          "midi": 46,
          "time": 35.86373200000005,
          "velocity": 0.7559055118110236,
          "duration": 0.12840943333333144
        },
        {
          "name": "A1",
          "midi": 33,
          "time": 36.00009600000005,
          "velocity": 0.7559055118110236,
          "duration": 0.12840943333333144
        },
        {
          "name": "A2",
          "midi": 45,
          "time": 36.13646000000005,
          "velocity": 0.7559055118110236,
          "duration": 0.12840943333333144
        },
        {
          "name": "A2",
          "midi": 45,
          "time": 36.27282400000005,
          "velocity": 0.7559055118110236,
          "duration": 0.12840943333333144
        },
        {
          "name": "A2",
          "midi": 45,
          "time": 36.40918800000005,
          "velocity": 0.7559055118110236,
          "duration": 0.12840943333333144
        },
        {
          "name": "A1",
          "midi": 33,
          "time": 36.54555200000005,
          "velocity": 0.7559055118110236,
          "duration": 0.12840943333333144
        },
        {
          "name": "A2",
          "midi": 45,
          "time": 36.68191600000005,
          "velocity": 0.7559055118110236,
          "duration": 0.12840943333333144
        },
        {
          "name": "A1",
          "midi": 33,
          "time": 36.81828000000005,
          "velocity": 0.7559055118110236,
          "duration": 0.12840943333333144
        },
        {
          "name": "A2",
          "midi": 45,
          "time": 36.95464400000005,
          "velocity": 0.7559055118110236,
          "duration": 0.12840943333333144
        },
        {
          "name": "G#1",
          "midi": 32,
          "time": 37.09100800000005,
          "velocity": 0.7559055118110236,
          "duration": 0.12840943333333144
        },
        {
          "name": "G#2",
          "midi": 44,
          "time": 37.22737200000005,
          "velocity": 0.7559055118110236,
          "duration": 0.12840943333333144
        },
        {
          "name": "G#2",
          "midi": 44,
          "time": 37.36373600000005,
          "velocity": 0.7559055118110236,
          "duration": 0.12840943333333144
        },
        {
          "name": "G#2",
          "midi": 44,
          "time": 37.50010000000005,
          "velocity": 0.7559055118110236,
          "duration": 0.12840943333333144
        },
        {
          "name": "G#1",
          "midi": 32,
          "time": 37.63646400000005,
          "velocity": 0.7559055118110236,
          "duration": 0.12840943333333144
        },
        {
          "name": "G#2",
          "midi": 44,
          "time": 37.772828000000054,
          "velocity": 0.7559055118110236,
          "duration": 0.12840943333333144
        },
        {
          "name": "G#2",
          "midi": 44,
          "time": 37.909192000000054,
          "velocity": 0.7559055118110236,
          "duration": 0.12840943333333144
        },
        {
          "name": "G#2",
          "midi": 44,
          "time": 38.045556000000055,
          "velocity": 0.7559055118110236,
          "duration": 0.12840943333333144
        },
        {
          "name": "G1",
          "midi": 31,
          "time": 38.181920000000055,
          "velocity": 0.7559055118110236,
          "duration": 0.12840943333333144
        },
        {
          "name": "G2",
          "midi": 43,
          "time": 38.318284000000055,
          "velocity": 0.7559055118110236,
          "duration": 0.12840943333333144
        },
        {
          "name": "G2",
          "midi": 43,
          "time": 38.454648000000056,
          "velocity": 0.7559055118110236,
          "duration": 0.12840943333333144
        },
        {
          "name": "G2",
          "midi": 43,
          "time": 38.591012000000056,
          "velocity": 0.7559055118110236,
          "duration": 0.12840943333333144
        },
        {
          "name": "G1",
          "midi": 31,
          "time": 38.727376000000056,
          "velocity": 0.7559055118110236,
          "duration": 0.12840943333333144
        },
        {
          "name": "F2",
          "midi": 41,
          "time": 38.86374000000006,
          "velocity": 0.7559055118110236,
          "duration": 0.12840943333333144
        },
        {
          "name": "G1",
          "midi": 31,
          "time": 39.00010400000006,
          "velocity": 0.7559055118110236,
          "duration": 0.12840943333333144
        },
        {
          "name": "F2",
          "midi": 41,
          "time": 39.13646800000006,
          "velocity": 0.7559055118110236,
          "duration": 0.12840943333333144
        },
        {
          "name": "F#1",
          "midi": 30,
          "time": 39.27283200000006,
          "velocity": 0.7559055118110236,
          "duration": 0.12840943333333144
        },
        {
          "name": "F#2",
          "midi": 42,
          "time": 39.40919600000006,
          "velocity": 0.7559055118110236,
          "duration": 0.12840943333333144
        },
        {
          "name": "F#2",
          "midi": 42,
          "time": 39.54556000000006,
          "velocity": 0.7559055118110236,
          "duration": 0.12840943333333144
        },
        {
          "name": "F#2",
          "midi": 42,
          "time": 39.68192400000006,
          "velocity": 0.7559055118110236,
          "duration": 0.12840943333333144
        },
        {
          "name": "F#1",
          "midi": 30,
          "time": 39.81828800000006,
          "velocity": 0.7559055118110236,
          "duration": 0.12840943333333144
        },
        {
          "name": "F#2",
          "midi": 42,
          "time": 39.95465200000006,
          "velocity": 0.7559055118110236,
          "duration": 0.12840943333333144
        },
        {
          "name": "F#2",
          "midi": 42,
          "time": 40.09101600000006,
          "velocity": 0.7559055118110236,
          "duration": 0.12840943333333144
        },
        {
          "name": "F#2",
          "midi": 42,
          "time": 40.22738000000006,
          "velocity": 0.7559055118110236,
          "duration": 0.12840943333333144
        },
        {
          "name": "F1",
          "midi": 29,
          "time": 40.36374400000006,
          "velocity": 0.7559055118110236,
          "duration": 0.12840943333333144
        },
        {
          "name": "F2",
          "midi": 41,
          "time": 40.50010800000006,
          "velocity": 0.7559055118110236,
          "duration": 0.12840943333333144
        },
        {
          "name": "F2",
          "midi": 41,
          "time": 40.63647200000006,
          "velocity": 0.7559055118110236,
          "duration": 0.12840943333333144
        },
        {
          "name": "F2",
          "midi": 41,
          "time": 40.77283600000006,
          "velocity": 0.7559055118110236,
          "duration": 0.12840943333333144
        },
        {
          "name": "F1",
          "midi": 29,
          "time": 40.90920000000006,
          "velocity": 0.7559055118110236,
          "duration": 0.12840943333333144
        },
        {
          "name": "F2",
          "midi": 41,
          "time": 41.04556400000006,
          "velocity": 0.7559055118110236,
          "duration": 0.12840943333333144
        },
        {
          "name": "F1",
          "midi": 29,
          "time": 41.18192800000006,
          "velocity": 0.7559055118110236,
          "duration": 0.12840943333333144
        },
        {
          "name": "F2",
          "midi": 41,
          "time": 41.31829200000006,
          "velocity": 0.7559055118110236,
          "duration": 0.12840943333333144
        },
        {
          "name": "D#1",
          "midi": 27,
          "time": 41.454656000000064,
          "velocity": 0.7559055118110236,
          "duration": 0.12840943333333144
        },
        {
          "name": "D#2",
          "midi": 39,
          "time": 41.591020000000064,
          "velocity": 0.7559055118110236,
          "duration": 0.12840943333333144
        },
        {
          "name": "D#2",
          "midi": 39,
          "time": 41.727384000000065,
          "velocity": 0.7559055118110236,
          "duration": 0.12840943333333144
        },
        {
          "name": "D#2",
          "midi": 39,
          "time": 41.863748000000065,
          "velocity": 0.7559055118110236,
          "duration": 0.12840943333333144
        },
        {
          "name": "D#1",
          "midi": 27,
          "time": 42.000112000000065,
          "velocity": 0.7559055118110236,
          "duration": 0.12840943333333144
        },
        {
          "name": "D#2",
          "midi": 39,
          "time": 42.136476000000066,
          "velocity": 0.7559055118110236,
          "duration": 0.12840943333333144
        },
        {
          "name": "D#2",
          "midi": 39,
          "time": 42.272840000000066,
          "velocity": 0.7559055118110236,
          "duration": 0.12840943333333144
        },
        {
          "name": "D#2",
          "midi": 39,
          "time": 42.40920400000007,
          "velocity": 0.7559055118110236,
          "duration": 0.12840943333333144
        },
        {
          "name": "F1",
          "midi": 29,
          "time": 42.54556800000007,
          "velocity": 0.7559055118110236,
          "duration": 0.12840943333333144
        },
        {
          "name": "F2",
          "midi": 41,
          "time": 42.68193200000007,
          "velocity": 0.7559055118110236,
          "duration": 0.12840943333333144
        },
        {
          "name": "F2",
          "midi": 41,
          "time": 42.81829600000007,
          "velocity": 0.7559055118110236,
          "duration": 0.12840943333333144
        },
        {
          "name": "F2",
          "midi": 41,
          "time": 42.95466000000007,
          "velocity": 0.7559055118110236,
          "duration": 0.12840943333333144
        },
        {
          "name": "F1",
          "midi": 29,
          "time": 43.09102400000007,
          "velocity": 0.7559055118110236,
          "duration": 0.12840943333333144
        },
        {
          "name": "F2",
          "midi": 41,
          "time": 43.22738800000007,
          "velocity": 0.7559055118110236,
          "duration": 0.12840943333333144
        },
        {
          "name": "F1",
          "midi": 29,
          "time": 43.36375200000007,
          "velocity": 0.7559055118110236,
          "duration": 0.12840943333333144
        },
        {
          "name": "F2",
          "midi": 41,
          "time": 43.50011600000007,
          "velocity": 0.7559055118110236,
          "duration": 0.12840943333333144
        },
        {
          "name": "A#1",
          "midi": 34,
          "time": 43.63648000000007,
          "velocity": 0.6299212598425197,
          "duration": 0.3875010333333364
        },
        {
          "name": "A#2",
          "midi": 46,
          "time": 43.63648000000007,
          "velocity": 0.6299212598425197,
          "duration": 0.3875010333333364
        },
        {
          "name": "A#1",
          "midi": 34,
          "time": 44.04557200000007,
          "velocity": 0.6299212598425197,
          "duration": 0.3875010333333364
        },
        {
          "name": "A#2",
          "midi": 46,
          "time": 44.04557200000007,
          "velocity": 0.6299212598425197,
          "duration": 0.3875010333333364
        },
        {
          "name": "A#1",
          "midi": 34,
          "time": 44.45466400000007,
          "velocity": 0.6299212598425197,
          "duration": 0.5170468333333318
        },
        {
          "name": "A#2",
          "midi": 46,
          "time": 44.45466400000007,
          "velocity": 0.6299212598425197,
          "duration": 0.5170468333333318
        },
        {
          "name": "F1",
          "midi": 29,
          "time": 45.000120000000074,
          "velocity": 0.6299212598425197,
          "duration": 0.3875010333333364
        },
        {
          "name": "F2",
          "midi": 41,
          "time": 45.000120000000074,
          "velocity": 0.6299212598425197,
          "duration": 0.3875010333333364
        },
        {
          "name": "G#1",
          "midi": 32,
          "time": 45.409212000000075,
          "velocity": 0.6299212598425197,
          "duration": 0.3875010333333364
        },
        {
          "name": "G#2",
          "midi": 44,
          "time": 45.409212000000075,
          "velocity": 0.6299212598425197,
          "duration": 0.3875010333333364
        },
        {
          "name": "A#1",
          "midi": 34,
          "time": 45.818304000000076,
          "velocity": 0.6299212598425197,
          "duration": 0.3875010333333364
        },
        {
          "name": "A#2",
          "midi": 46,
          "time": 45.818304000000076,
          "velocity": 0.6299212598425197,
          "duration": 0.3875010333333364
        },
        {
          "name": "A#1",
          "midi": 34,
          "time": 46.22739600000008,
          "velocity": 0.6299212598425197,
          "duration": 0.3875010333333364
        },
        {
          "name": "A#2",
          "midi": 46,
          "time": 46.22739600000008,
          "velocity": 0.6299212598425197,
          "duration": 0.3875010333333364
        },
        {
          "name": "A#1",
          "midi": 34,
          "time": 46.63648800000008,
          "velocity": 0.6299212598425197,
          "duration": 0.5170468333333318
        },
        {
          "name": "A#2",
          "midi": 46,
          "time": 46.63648800000008,
          "velocity": 0.6299212598425197,
          "duration": 0.5170468333333318
        },
        {
          "name": "F1",
          "midi": 29,
          "time": 47.18194400000008,
          "velocity": 0.6299212598425197,
          "duration": 0.3875010333333364
        },
        {
          "name": "F2",
          "midi": 41,
          "time": 47.18194400000008,
          "velocity": 0.6299212598425197,
          "duration": 0.3875010333333364
        },
        {
          "name": "G#1",
          "midi": 32,
          "time": 47.59103600000008,
          "velocity": 0.6299212598425197,
          "duration": 0.3875010333333364
        },
        {
          "name": "G#2",
          "midi": 44,
          "time": 47.59103600000008,
          "velocity": 0.6299212598425197,
          "duration": 0.3875010333333364
        },
        {
          "name": "A#1",
          "midi": 34,
          "time": 48.00012800000008,
          "velocity": 0.6299212598425197,
          "duration": 0.3875010333333364
        },
        {
          "name": "A#2",
          "midi": 46,
          "time": 48.00012800000008,
          "velocity": 0.6299212598425197,
          "duration": 0.3875010333333364
        },
        {
          "name": "A#1",
          "midi": 34,
          "time": 48.40922000000008,
          "velocity": 0.6299212598425197,
          "duration": 0.3875010333333364
        },
        {
          "name": "A#2",
          "midi": 46,
          "time": 48.40922000000008,
          "velocity": 0.6299212598425197,
          "duration": 0.3875010333333364
        },
        {
          "name": "A#1",
          "midi": 34,
          "time": 48.818312000000084,
          "velocity": 0.6299212598425197,
          "duration": 0.5170468333333318
        },
        {
          "name": "A#2",
          "midi": 46,
          "time": 48.818312000000084,
          "velocity": 0.6299212598425197,
          "duration": 0.5170468333333318
        },
        {
          "name": "F1",
          "midi": 29,
          "time": 49.363768000000086,
          "velocity": 0.6299212598425197,
          "duration": 0.3875010333333364
        },
        {
          "name": "F2",
          "midi": 41,
          "time": 49.363768000000086,
          "velocity": 0.6299212598425197,
          "duration": 0.3875010333333364
        },
        {
          "name": "G#1",
          "midi": 32,
          "time": 49.77286000000009,
          "velocity": 0.6299212598425197,
          "duration": 0.3875010333333364
        },
        {
          "name": "G#2",
          "midi": 44,
          "time": 49.77286000000009,
          "velocity": 0.6299212598425197,
          "duration": 0.3875010333333364
        },
        {
          "name": "A#1",
          "midi": 34,
          "time": 50.18195200000009,
          "velocity": 0.6299212598425197,
          "duration": 0.3875010333333364
        },
        {
          "name": "A#2",
          "midi": 46,
          "time": 50.18195200000009,
          "velocity": 0.6299212598425197,
          "duration": 0.3875010333333364
        },
        {
          "name": "A#1",
          "midi": 34,
          "time": 50.59104400000009,
          "velocity": 0.6299212598425197,
          "duration": 0.3875010333333364
        },
        {
          "name": "A#2",
          "midi": 46,
          "time": 50.59104400000009,
          "velocity": 0.6299212598425197,
          "duration": 0.3875010333333364
        },
        {
          "name": "A#1",
          "midi": 34,
          "time": 51.00013600000009,
          "velocity": 0.6299212598425197,
          "duration": 0.2579552333333339
        },
        {
          "name": "A#2",
          "midi": 46,
          "time": 51.00013600000009,
          "velocity": 0.6299212598425197,
          "duration": 0.2579552333333339
        },
        {
          "name": "A#1",
          "midi": 34,
          "time": 51.27286400000009,
          "velocity": 0.6299212598425197,
          "duration": 1.0352300333333346
        },
        {
          "name": "A#2",
          "midi": 46,
          "time": 51.27286400000009,
          "velocity": 0.6299212598425197,
          "duration": 1.0352300333333346
        },
        {
          "name": "A#1",
          "midi": 34,
          "time": 52.363776000000094,
          "velocity": 0.6299212598425197,
          "duration": 0.5170468333333318
        },
        {
          "name": "A#2",
          "midi": 46,
          "time": 52.363776000000094,
          "velocity": 0.6299212598425197,
          "duration": 0.5170468333333318
        },
        {
          "name": "C#3",
          "midi": 49,
          "time": 52.909232000000095,
          "velocity": 0.6299212598425197,
          "duration": 0.5170468333333318
        },
        {
          "name": "F3",
          "midi": 53,
          "time": 52.909232000000095,
          "velocity": 0.6299212598425197,
          "duration": 0.5170468333333318
        },
        {
          "name": "A#3",
          "midi": 58,
          "time": 52.909232000000095,
          "velocity": 0.6299212598425197,
          "duration": 0.5170468333333318
        },
        {
          "name": "C#3",
          "midi": 49,
          "time": 53.4546880000001,
          "velocity": 0.6299212598425197,
          "duration": 0.5170468333333318
        },
        {
          "name": "A#3",
          "midi": 58,
          "time": 53.4546880000001,
          "velocity": 0.6299212598425197,
          "duration": 0.5170468333333318
        },
        {
          "name": "C#3",
          "midi": 49,
          "time": 54.0001440000001,
          "velocity": 0.6299212598425197,
          "duration": 0.5170468333333318
        },
        {
          "name": "F3",
          "midi": 53,
          "time": 54.0001440000001,
          "velocity": 0.6299212598425197,
          "duration": 0.5170468333333318
        },
        {
          "name": "A#3",
          "midi": 58,
          "time": 54.0001440000001,
          "velocity": 0.6299212598425197,
          "duration": 0.5170468333333318
        },
        {
          "name": "G#1",
          "midi": 32,
          "time": 54.5456000000001,
          "velocity": 0.6299212598425197,
          "duration": 0.5170468333333318
        },
        {
          "name": "G#2",
          "midi": 44,
          "time": 54.5456000000001,
          "velocity": 0.6299212598425197,
          "duration": 0.5170468333333318
        },
        {
          "name": "C#3",
          "midi": 49,
          "time": 55.0910560000001,
          "velocity": 0.6299212598425197,
          "duration": 0.5170468333333318
        },
        {
          "name": "F3",
          "midi": 53,
          "time": 55.0910560000001,
          "velocity": 0.6299212598425197,
          "duration": 0.5170468333333318
        },
        {
          "name": "G#3",
          "midi": 56,
          "time": 55.0910560000001,
          "velocity": 0.6299212598425197,
          "duration": 0.5170468333333318
        },
        {
          "name": "C#3",
          "midi": 49,
          "time": 55.6365120000001,
          "velocity": 0.6299212598425197,
          "duration": 0.5170468333333318
        },
        {
          "name": "G#3",
          "midi": 56,
          "time": 55.6365120000001,
          "velocity": 0.6299212598425197,
          "duration": 0.5170468333333318
        },
        {
          "name": "C#3",
          "midi": 49,
          "time": 56.181968000000104,
          "velocity": 0.6299212598425197,
          "duration": 0.5170468333333318
        },
        {
          "name": "F3",
          "midi": 53,
          "time": 56.181968000000104,
          "velocity": 0.6299212598425197,
          "duration": 0.5170468333333318
        },
        {
          "name": "G#3",
          "midi": 56,
          "time": 56.181968000000104,
          "velocity": 0.6299212598425197,
          "duration": 0.5170468333333318
        },
        {
          "name": "D#2",
          "midi": 39,
          "time": 56.727424000000106,
          "velocity": 0.6299212598425197,
          "duration": 0.5170468333333318
        },
        {
          "name": "D#3",
          "midi": 51,
          "time": 56.727424000000106,
          "velocity": 0.6299212598425197,
          "duration": 0.5170468333333318
        },
        {
          "name": "D#3",
          "midi": 51,
          "time": 57.27288000000011,
          "velocity": 0.6299212598425197,
          "duration": 0.5170468333333318
        },
        {
          "name": "F#3",
          "midi": 54,
          "time": 57.27288000000011,
          "velocity": 0.6299212598425197,
          "duration": 0.5170468333333318
        },
        {
          "name": "A#3",
          "midi": 58,
          "time": 57.27288000000011,
          "velocity": 0.6299212598425197,
          "duration": 0.5170468333333318
        },
        {
          "name": "D#3",
          "midi": 51,
          "time": 57.81833600000011,
          "velocity": 0.6299212598425197,
          "duration": 0.5170468333333318
        },
        {
          "name": "A#3",
          "midi": 58,
          "time": 57.81833600000011,
          "velocity": 0.6299212598425197,
          "duration": 0.5170468333333318
        },
        {
          "name": "D#3",
          "midi": 51,
          "time": 58.36379200000011,
          "velocity": 0.6299212598425197,
          "duration": 0.5170468333333318
        },
        {
          "name": "F#3",
          "midi": 54,
          "time": 58.36379200000011,
          "velocity": 0.6299212598425197,
          "duration": 0.5170468333333318
        },
        {
          "name": "A#3",
          "midi": 58,
          "time": 58.36379200000011,
          "velocity": 0.6299212598425197,
          "duration": 0.5170468333333318
        },
        {
          "name": "G#1",
          "midi": 32,
          "time": 58.90924800000011,
          "velocity": 0.6299212598425197,
          "duration": 0.5170468333333318
        },
        {
          "name": "G#2",
          "midi": 44,
          "time": 58.90924800000011,
          "velocity": 0.6299212598425197,
          "duration": 0.5170468333333318
        },
        {
          "name": "D#3",
          "midi": 51,
          "time": 59.45470400000011,
          "velocity": 0.6299212598425197,
          "duration": 0.5170468333333318
        },
        {
          "name": "G#3",
          "midi": 56,
          "time": 59.45470400000011,
          "velocity": 0.6299212598425197,
          "duration": 0.5170468333333318
        },
        {
          "name": "C4",
          "midi": 60,
          "time": 59.45470400000011,
          "velocity": 0.6299212598425197,
          "duration": 0.5170468333333318
        },
        {
          "name": "A1",
          "midi": 33,
          "time": 60.000160000000115,
          "velocity": 0.6299212598425197,
          "duration": 0.5170468333333318
        },
        {
          "name": "A2",
          "midi": 45,
          "time": 60.000160000000115,
          "velocity": 0.6299212598425197,
          "duration": 0.5170468333333318
        },
        {
          "name": "F3",
          "midi": 53,
          "time": 60.545616000000116,
          "velocity": 0.6299212598425197,
          "duration": 0.5170468333333318
        },
        {
          "name": "A3",
          "midi": 57,
          "time": 60.545616000000116,
          "velocity": 0.6299212598425197,
          "duration": 0.5170468333333318
        },
        {
          "name": "C4",
          "midi": 60,
          "time": 60.545616000000116,
          "velocity": 0.6299212598425197,
          "duration": 0.5170468333333318
        },
        {
          "name": "A#1",
          "midi": 34,
          "time": 61.09107200000012,
          "velocity": 0.6299212598425197,
          "duration": 0.5170468333333318
        },
        {
          "name": "A#2",
          "midi": 46,
          "time": 61.09107200000012,
          "velocity": 0.6299212598425197,
          "duration": 0.5170468333333318
        },
        {
          "name": "C#3",
          "midi": 49,
          "time": 61.63652800000012,
          "velocity": 0.6299212598425197,
          "duration": 0.5170468333333318
        },
        {
          "name": "F3",
          "midi": 53,
          "time": 61.63652800000012,
          "velocity": 0.6299212598425197,
          "duration": 0.5170468333333318
        },
        {
          "name": "A#3",
          "midi": 58,
          "time": 61.63652800000012,
          "velocity": 0.6299212598425197,
          "duration": 0.5170468333333318
        },
        {
          "name": "C#3",
          "midi": 49,
          "time": 62.18198400000012,
          "velocity": 0.6299212598425197,
          "duration": 0.5170468333333318
        },
        {
          "name": "A#3",
          "midi": 58,
          "time": 62.18198400000012,
          "velocity": 0.6299212598425197,
          "duration": 0.5170468333333318
        },
        {
          "name": "C#3",
          "midi": 49,
          "time": 62.72744000000012,
          "velocity": 0.6299212598425197,
          "duration": 0.5170468333333318
        },
        {
          "name": "F3",
          "midi": 53,
          "time": 62.72744000000012,
          "velocity": 0.6299212598425197,
          "duration": 0.5170468333333318
        },
        {
          "name": "A#3",
          "midi": 58,
          "time": 62.72744000000012,
          "velocity": 0.6299212598425197,
          "duration": 0.5170468333333318
        },
        {
          "name": "G#1",
          "midi": 32,
          "time": 63.272896000000124,
          "velocity": 0.6299212598425197,
          "duration": 0.5170468333333318
        },
        {
          "name": "G#2",
          "midi": 44,
          "time": 63.272896000000124,
          "velocity": 0.6299212598425197,
          "duration": 0.5170468333333318
        },
        {
          "name": "C#3",
          "midi": 49,
          "time": 63.818352000000125,
          "velocity": 0.6299212598425197,
          "duration": 0.5170468333333318
        },
        {
          "name": "F3",
          "midi": 53,
          "time": 63.818352000000125,
          "velocity": 0.6299212598425197,
          "duration": 0.5170468333333318
        },
        {
          "name": "G#3",
          "midi": 56,
          "time": 63.818352000000125,
          "velocity": 0.6299212598425197,
          "duration": 0.5170468333333318
        },
        {
          "name": "C#3",
          "midi": 49,
          "time": 64.36380800000012,
          "velocity": 0.6299212598425197,
          "duration": 0.5170468333333389
        },
        {
          "name": "G#3",
          "midi": 56,
          "time": 64.36380800000012,
          "velocity": 0.6299212598425197,
          "duration": 0.5170468333333389
        },
        {
          "name": "C#3",
          "midi": 49,
          "time": 64.90926400000012,
          "velocity": 0.6299212598425197,
          "duration": 0.5170468333333389
        },
        {
          "name": "F3",
          "midi": 53,
          "time": 64.90926400000012,
          "velocity": 0.6299212598425197,
          "duration": 0.5170468333333389
        },
        {
          "name": "G#3",
          "midi": 56,
          "time": 64.90926400000012,
          "velocity": 0.6299212598425197,
          "duration": 0.5170468333333389
        },
        {
          "name": "D#2",
          "midi": 39,
          "time": 65.45472000000012,
          "velocity": 0.6299212598425197,
          "duration": 0.5170468333333389
        },
        {
          "name": "D#3",
          "midi": 51,
          "time": 65.45472000000012,
          "velocity": 0.6299212598425197,
          "duration": 0.5170468333333389
        },
        {
          "name": "D#3",
          "midi": 51,
          "time": 66.00017600000012,
          "velocity": 0.6299212598425197,
          "duration": 0.5170468333333389
        },
        {
          "name": "F#3",
          "midi": 54,
          "time": 66.00017600000012,
          "velocity": 0.6299212598425197,
          "duration": 0.5170468333333389
        },
        {
          "name": "A#3",
          "midi": 58,
          "time": 66.00017600000012,
          "velocity": 0.6299212598425197,
          "duration": 0.5170468333333389
        },
        {
          "name": "D#3",
          "midi": 51,
          "time": 66.54563200000013,
          "velocity": 0.6299212598425197,
          "duration": 0.5170468333333389
        },
        {
          "name": "A#3",
          "midi": 58,
          "time": 66.54563200000013,
          "velocity": 0.6299212598425197,
          "duration": 0.5170468333333389
        },
        {
          "name": "D#3",
          "midi": 51,
          "time": 67.09108800000013,
          "velocity": 0.6299212598425197,
          "duration": 0.5170468333333389
        },
        {
          "name": "F#3",
          "midi": 54,
          "time": 67.09108800000013,
          "velocity": 0.6299212598425197,
          "duration": 0.5170468333333389
        },
        {
          "name": "A#3",
          "midi": 58,
          "time": 67.09108800000013,
          "velocity": 0.6299212598425197,
          "duration": 0.5170468333333389
        },
        {
          "name": "F2",
          "midi": 41,
          "time": 67.63654400000013,
          "velocity": 0.6299212598425197,
          "duration": 0.5170468333333389
        },
        {
          "name": "C3",
          "midi": 48,
          "time": 67.63654400000013,
          "velocity": 0.6299212598425197,
          "duration": 0.5170468333333389
        },
        {
          "name": "F3",
          "midi": 53,
          "time": 67.63654400000013,
          "velocity": 0.6299212598425197,
          "duration": 0.5170468333333389
        },
        {
          "name": "A#1",
          "midi": 34,
          "time": 69.81836800000013,
          "velocity": 0.8818897637795275,
          "duration": 0.3875010333333364
        },
        {
          "name": "A#2",
          "midi": 46,
          "time": 69.81836800000013,
          "velocity": 0.8818897637795275,
          "duration": 0.3875010333333364
        },
        {
          "name": "A#1",
          "midi": 34,
          "time": 70.22746000000014,
          "velocity": 0.8818897637795275,
          "duration": 0.3875010333333364
        },
        {
          "name": "A#2",
          "midi": 46,
          "time": 70.22746000000014,
          "velocity": 0.8818897637795275,
          "duration": 0.3875010333333364
        },
        {
          "name": "A#1",
          "midi": 34,
          "time": 70.63655200000014,
          "velocity": 0.8818897637795275,
          "duration": 0.5170468333333389
        },
        {
          "name": "A#2",
          "midi": 46,
          "time": 70.63655200000014,
          "velocity": 0.8818897637795275,
          "duration": 0.5170468333333389
        },
        {
          "name": "F1",
          "midi": 29,
          "time": 71.18200800000014,
          "velocity": 0.8818897637795275,
          "duration": 0.3875010333333364
        },
        {
          "name": "F2",
          "midi": 41,
          "time": 71.18200800000014,
          "velocity": 0.8818897637795275,
          "duration": 0.3875010333333364
        },
        {
          "name": "G#1",
          "midi": 32,
          "time": 71.59110000000014,
          "velocity": 0.8818897637795275,
          "duration": 0.3875010333333364
        },
        {
          "name": "G#2",
          "midi": 44,
          "time": 71.59110000000014,
          "velocity": 0.8818897637795275,
          "duration": 0.3875010333333364
        },
        {
          "name": "A#1",
          "midi": 34,
          "time": 72.00019200000014,
          "velocity": 0.8818897637795275,
          "duration": 0.3875010333333364
        },
        {
          "name": "A#2",
          "midi": 46,
          "time": 72.00019200000014,
          "velocity": 0.8818897637795275,
          "duration": 0.3875010333333364
        },
        {
          "name": "A#1",
          "midi": 34,
          "time": 72.40928400000014,
          "velocity": 0.7559055118110236,
          "duration": 0.3875010333333364
        },
        {
          "name": "A#2",
          "midi": 46,
          "time": 72.40928400000014,
          "velocity": 0.7559055118110236,
          "duration": 0.3875010333333364
        },
        {
          "name": "A#1",
          "midi": 34,
          "time": 72.81837600000014,
          "velocity": 0.7559055118110236,
          "duration": 0.5170468333333389
        },
        {
          "name": "A#2",
          "midi": 46,
          "time": 72.81837600000014,
          "velocity": 0.7559055118110236,
          "duration": 0.5170468333333389
        },
        {
          "name": "D#2",
          "midi": 39,
          "time": 73.36383200000014,
          "velocity": 0.7559055118110236,
          "duration": 0.3875010333333364
        },
        {
          "name": "D#3",
          "midi": 51,
          "time": 73.36383200000014,
          "velocity": 0.7559055118110236,
          "duration": 0.3875010333333364
        },
        {
          "name": "C#2",
          "midi": 37,
          "time": 73.77292400000015,
          "velocity": 0.7559055118110236,
          "duration": 0.3875010333333364
        },
        {
          "name": "C#3",
          "midi": 49,
          "time": 73.77292400000015,
          "velocity": 0.7559055118110236,
          "duration": 0.3875010333333364
        },
        {
          "name": "A#1",
          "midi": 34,
          "time": 74.18201600000015,
          "velocity": 0.8818897637795275,
          "duration": 0.3875010333333364
        },
        {
          "name": "A#2",
          "midi": 46,
          "time": 74.18201600000015,
          "velocity": 0.8818897637795275,
          "duration": 0.3875010333333364
        },
        {
          "name": "A#1",
          "midi": 34,
          "time": 74.59110800000015,
          "velocity": 0.8818897637795275,
          "duration": 0.3875010333333364
        },
        {
          "name": "A#2",
          "midi": 46,
          "time": 74.59110800000015,
          "velocity": 0.8818897637795275,
          "duration": 0.3875010333333364
        },
        {
          "name": "A#1",
          "midi": 34,
          "time": 75.00020000000015,
          "velocity": 0.8818897637795275,
          "duration": 0.5170468333333389
        },
        {
          "name": "A#2",
          "midi": 46,
          "time": 75.00020000000015,
          "velocity": 0.8818897637795275,
          "duration": 0.5170468333333389
        },
        {
          "name": "F1",
          "midi": 29,
          "time": 75.54565600000015,
          "velocity": 0.8818897637795275,
          "duration": 0.3875010333333364
        },
        {
          "name": "F2",
          "midi": 41,
          "time": 75.54565600000015,
          "velocity": 0.8818897637795275,
          "duration": 0.3875010333333364
        },
        {
          "name": "G#1",
          "midi": 32,
          "time": 75.95474800000015,
          "velocity": 0.8818897637795275,
          "duration": 0.3875010333333364
        },
        {
          "name": "G#2",
          "midi": 44,
          "time": 75.95474800000015,
          "velocity": 0.8818897637795275,
          "duration": 0.3875010333333364
        },
        {
          "name": "A#1",
          "midi": 34,
          "time": 76.36384000000015,
          "velocity": 0.8818897637795275,
          "duration": 0.3875010333333364
        },
        {
          "name": "A#2",
          "midi": 46,
          "time": 76.36384000000015,
          "velocity": 0.8818897637795275,
          "duration": 0.3875010333333364
        },
        {
          "name": "A#1",
          "midi": 34,
          "time": 76.77293200000015,
          "velocity": 0.8818897637795275,
          "duration": 0.3875010333333364
        },
        {
          "name": "A#2",
          "midi": 46,
          "time": 76.77293200000015,
          "velocity": 0.8818897637795275,
          "duration": 0.3875010333333364
        },
        {
          "name": "A#1",
          "midi": 34,
          "time": 77.18202400000015,
          "velocity": 0.8818897637795275,
          "duration": 0.5170468333333389
        },
        {
          "name": "A#2",
          "midi": 46,
          "time": 77.18202400000015,
          "velocity": 0.8818897637795275,
          "duration": 0.5170468333333389
        },
        {
          "name": "A#2",
          "midi": 46,
          "time": 78.54566400000016,
          "velocity": 0.5039370078740157,
          "duration": 0.3875010333333364
        },
        {
          "name": "A#3",
          "midi": 58,
          "time": 78.54566400000016,
          "velocity": 0.5039370078740157,
          "duration": 0.3875010333333364
        },
        {
          "name": "A#2",
          "midi": 46,
          "time": 78.95475600000016,
          "velocity": 0.5039370078740157,
          "duration": 0.3875010333333364
        },
        {
          "name": "A#3",
          "midi": 58,
          "time": 78.95475600000016,
          "velocity": 0.5039370078740157,
          "duration": 0.3875010333333364
        },
        {
          "name": "A#2",
          "midi": 46,
          "time": 79.36384800000016,
          "velocity": 0.5039370078740157,
          "duration": 0.2579552333333339
        },
        {
          "name": "A#3",
          "midi": 58,
          "time": 79.36384800000016,
          "velocity": 0.5039370078740157,
          "duration": 0.2579552333333339
        },
        {
          "name": "A#2",
          "midi": 46,
          "time": 79.63657600000016,
          "velocity": 0.5039370078740157,
          "duration": 0.3875010333333364
        },
        {
          "name": "A3",
          "midi": 57,
          "time": 79.63657600000016,
          "velocity": 0.5039370078740157,
          "duration": 0.3875010333333364
        },
        {
          "name": "G#2",
          "midi": 44,
          "time": 80.04566800000016,
          "velocity": 0.5039370078740157,
          "duration": 0.3875010333333364
        },
        {
          "name": "F3",
          "midi": 53,
          "time": 80.04566800000016,
          "velocity": 0.5039370078740157,
          "duration": 0.3875010333333364
        },
        {
          "name": "A2",
          "midi": 45,
          "time": 80.45476000000016,
          "velocity": 0.5039370078740157,
          "duration": 0.2579552333333339
        },
        {
          "name": "F3",
          "midi": 53,
          "time": 80.45476000000016,
          "velocity": 0.5039370078740157,
          "duration": 0.2579552333333339
        },
        {
          "name": "A#2",
          "midi": 46,
          "time": 80.72748800000016,
          "velocity": 0.5039370078740157,
          "duration": 0.3875010333333364
        },
        {
          "name": "G#3",
          "midi": 56,
          "time": 80.72748800000016,
          "velocity": 0.5039370078740157,
          "duration": 0.3875010333333364
        },
        {
          "name": "A#2",
          "midi": 46,
          "time": 81.13658000000017,
          "velocity": 0.5039370078740157,
          "duration": 0.3875010333333364
        },
        {
          "name": "G#3",
          "midi": 56,
          "time": 81.13658000000017,
          "velocity": 0.5039370078740157,
          "duration": 0.3875010333333364
        },
        {
          "name": "A#2",
          "midi": 46,
          "time": 81.54567200000017,
          "velocity": 0.5039370078740157,
          "duration": 0.2579552333333339
        },
        {
          "name": "G#3",
          "midi": 56,
          "time": 81.54567200000017,
          "velocity": 0.5039370078740157,
          "duration": 0.2579552333333339
        },
        {
          "name": "A#2",
          "midi": 46,
          "time": 81.81840000000017,
          "velocity": 0.5039370078740157,
          "duration": 0.3875010333333364
        },
        {
          "name": "G3",
          "midi": 55,
          "time": 81.81840000000017,
          "velocity": 0.5039370078740157,
          "duration": 0.3875010333333364
        },
        {
          "name": "G#2",
          "midi": 44,
          "time": 82.22749200000017,
          "velocity": 0.5039370078740157,
          "duration": 0.3875010333333364
        },
        {
          "name": "F3",
          "midi": 53,
          "time": 82.22749200000017,
          "velocity": 0.5039370078740157,
          "duration": 0.3875010333333364
        },
        {
          "name": "A2",
          "midi": 45,
          "time": 82.63658400000017,
          "velocity": 0.5039370078740157,
          "duration": 0.2579552333333339
        },
        {
          "name": "F3",
          "midi": 53,
          "time": 82.63658400000017,
          "velocity": 0.5039370078740157,
          "duration": 0.2579552333333339
        },
        {
          "name": "A#2",
          "midi": 46,
          "time": 82.90931200000017,
          "velocity": 0.5039370078740157,
          "duration": 0.3875010333333364
        },
        {
          "name": "F#3",
          "midi": 54,
          "time": 82.90931200000017,
          "velocity": 0.5039370078740157,
          "duration": 0.3875010333333364
        },
        {
          "name": "A#2",
          "midi": 46,
          "time": 83.31840400000017,
          "velocity": 0.5039370078740157,
          "duration": 0.3875010333333364
        },
        {
          "name": "F#3",
          "midi": 54,
          "time": 83.31840400000017,
          "velocity": 0.5039370078740157,
          "duration": 0.3875010333333364
        },
        {
          "name": "A#2",
          "midi": 46,
          "time": 83.72749600000017,
          "velocity": 0.5039370078740157,
          "duration": 0.2579552333333339
        },
        {
          "name": "F#3",
          "midi": 54,
          "time": 83.72749600000017,
          "velocity": 0.5039370078740157,
          "duration": 0.2579552333333339
        },
        {
          "name": "A#2",
          "midi": 46,
          "time": 84.00022400000017,
          "velocity": 0.5039370078740157,
          "duration": 0.3875010333333364
        },
        {
          "name": "F3",
          "midi": 53,
          "time": 84.00022400000017,
          "velocity": 0.5039370078740157,
          "duration": 0.3875010333333364
        },
        {
          "name": "G#2",
          "midi": 44,
          "time": 84.40931600000017,
          "velocity": 0.5039370078740157,
          "duration": 0.3875010333333364
        },
        {
          "name": "F3",
          "midi": 53,
          "time": 84.40931600000017,
          "velocity": 0.5039370078740157,
          "duration": 0.3875010333333364
        },
        {
          "name": "A2",
          "midi": 45,
          "time": 84.81840800000018,
          "velocity": 0.5039370078740157,
          "duration": 0.2579552333333339
        },
        {
          "name": "F3",
          "midi": 53,
          "time": 84.81840800000018,
          "velocity": 0.5039370078740157,
          "duration": 0.2579552333333339
        },
        {
          "name": "A#2",
          "midi": 46,
          "time": 85.09113600000018,
          "velocity": 0.5039370078740157,
          "duration": 0.3875010333333364
        },
        {
          "name": "D#3",
          "midi": 51,
          "time": 85.09113600000018,
          "velocity": 0.5039370078740157,
          "duration": 0.3875010333333364
        },
        {
          "name": "A#2",
          "midi": 46,
          "time": 85.50022800000018,
          "velocity": 0.5039370078740157,
          "duration": 0.3875010333333364
        },
        {
          "name": "D#3",
          "midi": 51,
          "time": 85.50022800000018,
          "velocity": 0.5039370078740157,
          "duration": 0.3875010333333364
        },
        {
          "name": "A#2",
          "midi": 46,
          "time": 85.90932000000018,
          "velocity": 0.5039370078740157,
          "duration": 0.2579552333333339
        },
        {
          "name": "D#3",
          "midi": 51,
          "time": 85.90932000000018,
          "velocity": 0.5039370078740157,
          "duration": 0.2579552333333339
        },
        {
          "name": "F2",
          "midi": 41,
          "time": 86.18204800000018,
          "velocity": 0.5039370078740157,
          "duration": 0.2579552333333339
        },
        {
          "name": "F3",
          "midi": 53,
          "time": 86.18204800000018,
          "velocity": 0.5039370078740157,
          "duration": 0.2579552333333339
        },
        {
          "name": "A#1",
          "midi": 34,
          "time": 87.27296000000018,
          "velocity": 0.6299212598425197,
          "duration": 0.12840943333333144
        },
        {
          "name": "A#2",
          "midi": 46,
          "time": 87.40932400000018,
          "velocity": 0.6299212598425197,
          "duration": 0.12840943333333144
        },
        {
          "name": "A#1",
          "midi": 34,
          "time": 87.54568800000018,
          "velocity": 0.6299212598425197,
          "duration": 0.12840943333333144
        },
        {
          "name": "A#2",
          "midi": 46,
          "time": 87.68205200000018,
          "velocity": 0.6299212598425197,
          "duration": 0.12840943333333144
        },
        {
          "name": "A#1",
          "midi": 34,
          "time": 87.81841600000018,
          "velocity": 0.6299212598425197,
          "duration": 0.12840943333333144
        },
        {
          "name": "A#2",
          "midi": 46,
          "time": 87.95478000000018,
          "velocity": 0.6299212598425197,
          "duration": 0.12840943333333144
        },
        {
          "name": "A#1",
          "midi": 34,
          "time": 88.09114400000018,
          "velocity": 0.6299212598425197,
          "duration": 0.12840943333333144
        },
        {
          "name": "A#2",
          "midi": 46,
          "time": 88.22750800000019,
          "velocity": 0.6299212598425197,
          "duration": 0.12840943333333144
        },
        {
          "name": "A1",
          "midi": 33,
          "time": 88.36387200000019,
          "velocity": 0.6299212598425197,
          "duration": 0.12840943333333144
        },
        {
          "name": "A2",
          "midi": 45,
          "time": 88.50023600000019,
          "velocity": 0.6299212598425197,
          "duration": 0.12840943333333144
        },
        {
          "name": "A1",
          "midi": 33,
          "time": 88.63660000000019,
          "velocity": 0.6299212598425197,
          "duration": 0.12840943333333144
        },
        {
          "name": "A2",
          "midi": 45,
          "time": 88.77296400000019,
          "velocity": 0.6299212598425197,
          "duration": 0.12840943333333144
        },
        {
          "name": "A1",
          "midi": 33,
          "time": 88.90932800000019,
          "velocity": 0.6299212598425197,
          "duration": 0.12840943333333144
        },
        {
          "name": "A2",
          "midi": 45,
          "time": 89.04569200000019,
          "velocity": 0.6299212598425197,
          "duration": 0.12840943333333144
        },
        {
          "name": "A1",
          "midi": 33,
          "time": 89.18205600000019,
          "velocity": 0.6299212598425197,
          "duration": 0.12840943333333144
        },
        {
          "name": "A2",
          "midi": 45,
          "time": 89.31842000000019,
          "velocity": 0.6299212598425197,
          "duration": 0.12840943333333144
        },
        {
          "name": "G#1",
          "midi": 32,
          "time": 89.45478400000019,
          "velocity": 0.6299212598425197,
          "duration": 0.12840943333333144
        },
        {
          "name": "G#2",
          "midi": 44,
          "time": 89.59114800000019,
          "velocity": 0.6299212598425197,
          "duration": 0.12840943333333144
        },
        {
          "name": "G#1",
          "midi": 32,
          "time": 89.72751200000019,
          "velocity": 0.6299212598425197,
          "duration": 0.12840943333333144
        },
        {
          "name": "G#2",
          "midi": 44,
          "time": 89.86387600000019,
          "velocity": 0.6299212598425197,
          "duration": 0.12840943333333144
        },
        {
          "name": "G#1",
          "midi": 32,
          "time": 90.00024000000019,
          "velocity": 0.6299212598425197,
          "duration": 0.12840943333333144
        },
        {
          "name": "G#2",
          "midi": 44,
          "time": 90.13660400000019,
          "velocity": 0.6299212598425197,
          "duration": 0.12840943333333144
        },
        {
          "name": "G#1",
          "midi": 32,
          "time": 90.27296800000019,
          "velocity": 0.6299212598425197,
          "duration": 0.12840943333333144
        },
        {
          "name": "G#2",
          "midi": 44,
          "time": 90.40933200000019,
          "velocity": 0.6299212598425197,
          "duration": 0.12840943333333144
        },
        {
          "name": "G1",
          "midi": 31,
          "time": 90.54569600000019,
          "velocity": 0.6299212598425197,
          "duration": 0.12840943333333144
        },
        {
          "name": "G2",
          "midi": 43,
          "time": 90.68206000000019,
          "velocity": 0.6299212598425197,
          "duration": 0.12840943333333144
        },
        {
          "name": "G1",
          "midi": 31,
          "time": 90.81842400000019,
          "velocity": 0.6299212598425197,
          "duration": 0.12840943333333144
        },
        {
          "name": "G2",
          "midi": 43,
          "time": 90.95478800000019,
          "velocity": 0.6299212598425197,
          "duration": 0.12840943333333144
        },
        {
          "name": "F#1",
          "midi": 30,
          "time": 91.6366080000002,
          "velocity": 0.6299212598425197,
          "duration": 0.12840943333333144
        },
        {
          "name": "F#2",
          "midi": 42,
          "time": 91.7729720000002,
          "velocity": 0.6299212598425197,
          "duration": 0.12840943333333144
        },
        {
          "name": "F#1",
          "midi": 30,
          "time": 91.9093360000002,
          "velocity": 0.6299212598425197,
          "duration": 0.12840943333333144
        },
        {
          "name": "F#2",
          "midi": 42,
          "time": 92.0457000000002,
          "velocity": 0.6299212598425197,
          "duration": 0.12840943333333144
        },
        {
          "name": "F#1",
          "midi": 30,
          "time": 92.1820640000002,
          "velocity": 0.6299212598425197,
          "duration": 0.12840943333333144
        },
        {
          "name": "F#2",
          "midi": 42,
          "time": 92.3184280000002,
          "velocity": 0.6299212598425197,
          "duration": 0.12840943333333144
        },
        {
          "name": "F#1",
          "midi": 30,
          "time": 92.4547920000002,
          "velocity": 0.6299212598425197,
          "duration": 0.12840943333333144
        },
        {
          "name": "F#2",
          "midi": 42,
          "time": 92.5911560000002,
          "velocity": 0.6299212598425197,
          "duration": 0.12840943333333144
        },
        {
          "name": "F1",
          "midi": 29,
          "time": 92.7275200000002,
          "velocity": 0.6299212598425197,
          "duration": 0.12840943333333144
        },
        {
          "name": "F2",
          "midi": 41,
          "time": 92.8638840000002,
          "velocity": 0.6299212598425197,
          "duration": 0.12840943333333144
        },
        {
          "name": "F1",
          "midi": 29,
          "time": 93.0002480000002,
          "velocity": 0.6299212598425197,
          "duration": 0.12840943333333144
        },
        {
          "name": "F2",
          "midi": 41,
          "time": 93.1366120000002,
          "velocity": 0.6299212598425197,
          "duration": 0.12840943333333144
        },
        {
          "name": "F1",
          "midi": 29,
          "time": 93.2729760000002,
          "velocity": 0.6299212598425197,
          "duration": 0.12840943333333144
        },
        {
          "name": "F2",
          "midi": 41,
          "time": 93.4093400000002,
          "velocity": 0.6299212598425197,
          "duration": 0.12840943333333144
        },
        {
          "name": "F1",
          "midi": 29,
          "time": 93.5457040000002,
          "velocity": 0.6299212598425197,
          "duration": 0.12840943333333144
        },
        {
          "name": "F2",
          "midi": 41,
          "time": 93.6820680000002,
          "velocity": 0.6299212598425197,
          "duration": 0.12840943333333144
        },
        {
          "name": "D#1",
          "midi": 27,
          "time": 93.8184320000002,
          "velocity": 0.6299212598425197,
          "duration": 0.12840943333333144
        },
        {
          "name": "D#2",
          "midi": 39,
          "time": 93.9547960000002,
          "velocity": 0.6299212598425197,
          "duration": 0.12840943333333144
        },
        {
          "name": "D#1",
          "midi": 27,
          "time": 94.0911600000002,
          "velocity": 0.6299212598425197,
          "duration": 0.12840943333333144
        },
        {
          "name": "D#2",
          "midi": 39,
          "time": 94.2275240000002,
          "velocity": 0.6299212598425197,
          "duration": 0.12840943333333144
        },
        {
          "name": "D#1",
          "midi": 27,
          "time": 94.3638880000002,
          "velocity": 0.6299212598425197,
          "duration": 0.12840943333333144
        },
        {
          "name": "D#2",
          "midi": 39,
          "time": 94.5002520000002,
          "velocity": 0.6299212598425197,
          "duration": 0.12840943333333144
        },
        {
          "name": "D#1",
          "midi": 27,
          "time": 94.6366160000002,
          "velocity": 0.6299212598425197,
          "duration": 0.12840943333333144
        },
        {
          "name": "D#2",
          "midi": 39,
          "time": 94.7729800000002,
          "velocity": 0.6299212598425197,
          "duration": 0.12840943333333144
        },
        {
          "name": "F1",
          "midi": 29,
          "time": 94.9093440000002,
          "velocity": 0.6299212598425197,
          "duration": 0.12840943333333144
        },
        {
          "name": "F2",
          "midi": 41,
          "time": 95.0457080000002,
          "velocity": 0.6299212598425197,
          "duration": 0.12840943333333144
        },
        {
          "name": "F1",
          "midi": 29,
          "time": 95.1820720000002,
          "velocity": 0.6299212598425197,
          "duration": 0.12840943333333144
        },
        {
          "name": "F2",
          "midi": 41,
          "time": 95.3184360000002,
          "velocity": 0.6299212598425197,
          "duration": 0.12840943333333144
        },
        {
          "name": "F1",
          "midi": 29,
          "time": 95.4548000000002,
          "velocity": 0.6299212598425197,
          "duration": 0.12840943333333144
        },
        {
          "name": "F2",
          "midi": 41,
          "time": 95.5911640000002,
          "velocity": 0.6299212598425197,
          "duration": 0.12840943333333144
        },
        {
          "name": "F1",
          "midi": 29,
          "time": 95.7275280000002,
          "velocity": 0.6299212598425197,
          "duration": 0.12840943333333144
        },
        {
          "name": "F2",
          "midi": 41,
          "time": 95.8638920000002,
          "velocity": 0.6299212598425197,
          "duration": 0.12840943333333144
        },
        {
          "name": "A#1",
          "midi": 34,
          "time": 96.0002560000002,
          "velocity": 0.6299212598425197,
          "duration": 0.3875010333333364
        },
        {
          "name": "A#2",
          "midi": 46,
          "time": 96.0002560000002,
          "velocity": 0.6299212598425197,
          "duration": 0.3875010333333364
        },
        {
          "name": "A#1",
          "midi": 34,
          "time": 96.40934800000021,
          "velocity": 0.6299212598425197,
          "duration": 0.3875010333333364
        },
        {
          "name": "A#2",
          "midi": 46,
          "time": 96.40934800000021,
          "velocity": 0.6299212598425197,
          "duration": 0.3875010333333364
        },
        {
          "name": "A#1",
          "midi": 34,
          "time": 96.81844000000021,
          "velocity": 0.6299212598425197,
          "duration": 0.5170468333333389
        },
        {
          "name": "A#2",
          "midi": 46,
          "time": 96.81844000000021,
          "velocity": 0.6299212598425197,
          "duration": 0.5170468333333389
        },
        {
          "name": "F1",
          "midi": 29,
          "time": 97.36389600000021,
          "velocity": 0.6299212598425197,
          "duration": 0.3875010333333364
        },
        {
          "name": "F2",
          "midi": 41,
          "time": 97.36389600000021,
          "velocity": 0.6299212598425197,
          "duration": 0.3875010333333364
        },
        {
          "name": "G#1",
          "midi": 32,
          "time": 97.77298800000021,
          "velocity": 0.6299212598425197,
          "duration": 0.3875010333333364
        },
        {
          "name": "G#2",
          "midi": 44,
          "time": 97.77298800000021,
          "velocity": 0.6299212598425197,
          "duration": 0.3875010333333364
        },
        {
          "name": "A#1",
          "midi": 34,
          "time": 98.18208000000021,
          "velocity": 0.6299212598425197,
          "duration": 0.3875010333333364
        },
        {
          "name": "A#2",
          "midi": 46,
          "time": 98.18208000000021,
          "velocity": 0.6299212598425197,
          "duration": 0.3875010333333364
        },
        {
          "name": "A#1",
          "midi": 34,
          "time": 98.59117200000021,
          "velocity": 0.6299212598425197,
          "duration": 0.3875010333333364
        },
        {
          "name": "A#2",
          "midi": 46,
          "time": 98.59117200000021,
          "velocity": 0.6299212598425197,
          "duration": 0.3875010333333364
        },
        {
          "name": "A#1",
          "midi": 34,
          "time": 99.00026400000021,
          "velocity": 0.6299212598425197,
          "duration": 0.5170468333333389
        },
        {
          "name": "A#2",
          "midi": 46,
          "time": 99.00026400000021,
          "velocity": 0.6299212598425197,
          "duration": 0.5170468333333389
        },
        {
          "name": "F1",
          "midi": 29,
          "time": 99.54572000000022,
          "velocity": 0.6299212598425197,
          "duration": 0.3875010333333364
        },
        {
          "name": "F2",
          "midi": 41,
          "time": 99.54572000000022,
          "velocity": 0.6299212598425197,
          "duration": 0.3875010333333364
        },
        {
          "name": "G#1",
          "midi": 32,
          "time": 99.95481200000022,
          "velocity": 0.6299212598425197,
          "duration": 0.3875010333333364
        },
        {
          "name": "G#2",
          "midi": 44,
          "time": 99.95481200000022,
          "velocity": 0.6299212598425197,
          "duration": 0.3875010333333364
        },
        {
          "name": "A#1",
          "midi": 34,
          "time": 100.36390400000022,
          "velocity": 0.6299212598425197,
          "duration": 0.3875010333333364
        },
        {
          "name": "A#2",
          "midi": 46,
          "time": 100.36390400000022,
          "velocity": 0.6299212598425197,
          "duration": 0.3875010333333364
        },
        {
          "name": "A#1",
          "midi": 34,
          "time": 100.77299600000022,
          "velocity": 0.6535433070866141,
          "duration": 0.3875010333333364
        },
        {
          "name": "A#2",
          "midi": 46,
          "time": 100.77299600000022,
          "velocity": 0.6535433070866141,
          "duration": 0.3875010333333364
        },
        {
          "name": "A#1",
          "midi": 34,
          "time": 101.18208800000022,
          "velocity": 0.6771653543307087,
          "duration": 0.5170468333333389
        },
        {
          "name": "A#2",
          "midi": 46,
          "time": 101.18208800000022,
          "velocity": 0.6771653543307087,
          "duration": 0.5170468333333389
        },
        {
          "name": "F1",
          "midi": 29,
          "time": 101.72754400000022,
          "velocity": 0.7086614173228346,
          "duration": 0.3875010333333364
        },
        {
          "name": "F2",
          "midi": 41,
          "time": 101.72754400000022,
          "velocity": 0.7086614173228346,
          "duration": 0.3875010333333364
        },
        {
          "name": "G#1",
          "midi": 32,
          "time": 102.13663600000022,
          "velocity": 0.7322834645669292,
          "duration": 0.3875010333333364
        },
        {
          "name": "G#2",
          "midi": 44,
          "time": 102.13663600000022,
          "velocity": 0.7322834645669292,
          "duration": 0.3875010333333364
        },
        {
          "name": "A#1",
          "midi": 34,
          "time": 102.54572800000022,
          "velocity": 0.7559055118110236,
          "duration": 0.3875010333333364
        },
        {
          "name": "A#2",
          "midi": 46,
          "time": 102.54572800000022,
          "velocity": 0.7559055118110236,
          "duration": 0.3875010333333364
        },
        {
          "name": "A#1",
          "midi": 34,
          "time": 102.95482000000023,
          "velocity": 0.7559055118110236,
          "duration": 0.3875010333333364
        },
        {
          "name": "A#2",
          "midi": 46,
          "time": 102.95482000000023,
          "velocity": 0.7559055118110236,
          "duration": 0.3875010333333364
        },
        {
          "name": "A#1",
          "midi": 34,
          "time": 103.36391200000023,
          "velocity": 0.7559055118110236,
          "duration": 0.2579552333333339
        },
        {
          "name": "A#2",
          "midi": 46,
          "time": 103.36391200000023,
          "velocity": 0.7559055118110236,
          "duration": 0.2579552333333339
        },
        {
          "name": "A#1",
          "midi": 34,
          "time": 103.63664000000023,
          "velocity": 0.7559055118110236,
          "duration": 1.0352300333333346
        },
        {
          "name": "A#2",
          "midi": 46,
          "time": 103.63664000000023,
          "velocity": 0.7559055118110236,
          "duration": 1.0352300333333346
        },
        {
          "name": "A#1",
          "midi": 34,
          "time": 104.72755200000023,
          "velocity": 0.7559055118110236,
          "duration": 0.5170468333333389
        },
        {
          "name": "A#2",
          "midi": 46,
          "time": 104.72755200000023,
          "velocity": 0.7559055118110236,
          "duration": 0.5170468333333389
        },
        {
          "name": "C#3",
          "midi": 49,
          "time": 105.27300800000023,
          "velocity": 0.7559055118110236,
          "duration": 0.5170468333333389
        },
        {
          "name": "F3",
          "midi": 53,
          "time": 105.27300800000023,
          "velocity": 0.7559055118110236,
          "duration": 0.5170468333333389
        },
        {
          "name": "A#3",
          "midi": 58,
          "time": 105.27300800000023,
          "velocity": 0.7559055118110236,
          "duration": 0.5170468333333389
        },
        {
          "name": "C#3",
          "midi": 49,
          "time": 105.81846400000023,
          "velocity": 0.7559055118110236,
          "duration": 0.5170468333333389
        },
        {
          "name": "A#3",
          "midi": 58,
          "time": 105.81846400000023,
          "velocity": 0.7559055118110236,
          "duration": 0.5170468333333389
        },
        {
          "name": "C#3",
          "midi": 49,
          "time": 106.36392000000023,
          "velocity": 0.7559055118110236,
          "duration": 0.5170468333333389
        },
        {
          "name": "F3",
          "midi": 53,
          "time": 106.36392000000023,
          "velocity": 0.7559055118110236,
          "duration": 0.5170468333333389
        },
        {
          "name": "A#3",
          "midi": 58,
          "time": 106.36392000000023,
          "velocity": 0.7559055118110236,
          "duration": 0.5170468333333389
        },
        {
          "name": "G#1",
          "midi": 32,
          "time": 106.90937600000024,
          "velocity": 0.7559055118110236,
          "duration": 0.5170468333333389
        },
        {
          "name": "G#2",
          "midi": 44,
          "time": 106.90937600000024,
          "velocity": 0.7559055118110236,
          "duration": 0.5170468333333389
        },
        {
          "name": "C#3",
          "midi": 49,
          "time": 107.45483200000024,
          "velocity": 0.7559055118110236,
          "duration": 0.5170468333333389
        },
        {
          "name": "F3",
          "midi": 53,
          "time": 107.45483200000024,
          "velocity": 0.7559055118110236,
          "duration": 0.5170468333333389
        },
        {
          "name": "G#3",
          "midi": 56,
          "time": 107.45483200000024,
          "velocity": 0.7559055118110236,
          "duration": 0.5170468333333389
        },
        {
          "name": "C#3",
          "midi": 49,
          "time": 108.00028800000024,
          "velocity": 0.7559055118110236,
          "duration": 0.5170468333333389
        },
        {
          "name": "G#3",
          "midi": 56,
          "time": 108.00028800000024,
          "velocity": 0.7559055118110236,
          "duration": 0.5170468333333389
        },
        {
          "name": "C#3",
          "midi": 49,
          "time": 108.54574400000024,
          "velocity": 0.7559055118110236,
          "duration": 0.5170468333333389
        },
        {
          "name": "F3",
          "midi": 53,
          "time": 108.54574400000024,
          "velocity": 0.7559055118110236,
          "duration": 0.5170468333333389
        },
        {
          "name": "G#3",
          "midi": 56,
          "time": 108.54574400000024,
          "velocity": 0.7559055118110236,
          "duration": 0.5170468333333389
        },
        {
          "name": "D#2",
          "midi": 39,
          "time": 109.09120000000024,
          "velocity": 0.7559055118110236,
          "duration": 0.5170468333333389
        },
        {
          "name": "D#3",
          "midi": 51,
          "time": 109.09120000000024,
          "velocity": 0.7559055118110236,
          "duration": 0.5170468333333389
        },
        {
          "name": "D#3",
          "midi": 51,
          "time": 109.63665600000024,
          "velocity": 0.7559055118110236,
          "duration": 0.5170468333333389
        },
        {
          "name": "F#3",
          "midi": 54,
          "time": 109.63665600000024,
          "velocity": 0.7559055118110236,
          "duration": 0.5170468333333389
        },
        {
          "name": "A#3",
          "midi": 58,
          "time": 109.63665600000024,
          "velocity": 0.7559055118110236,
          "duration": 0.5170468333333389
        },
        {
          "name": "D#3",
          "midi": 51,
          "time": 110.18211200000025,
          "velocity": 0.7559055118110236,
          "duration": 0.5170468333333389
        },
        {
          "name": "A#3",
          "midi": 58,
          "time": 110.18211200000025,
          "velocity": 0.7559055118110236,
          "duration": 0.5170468333333389
        },
        {
          "name": "D#3",
          "midi": 51,
          "time": 110.72756800000025,
          "velocity": 0.7559055118110236,
          "duration": 0.5170468333333389
        },
        {
          "name": "F#3",
          "midi": 54,
          "time": 110.72756800000025,
          "velocity": 0.7559055118110236,
          "duration": 0.5170468333333389
        },
        {
          "name": "A#3",
          "midi": 58,
          "time": 110.72756800000025,
          "velocity": 0.7559055118110236,
          "duration": 0.5170468333333389
        },
        {
          "name": "G#1",
          "midi": 32,
          "time": 111.27302400000025,
          "velocity": 0.7559055118110236,
          "duration": 0.5170468333333389
        },
        {
          "name": "G#2",
          "midi": 44,
          "time": 111.27302400000025,
          "velocity": 0.7559055118110236,
          "duration": 0.5170468333333389
        },
        {
          "name": "D#3",
          "midi": 51,
          "time": 111.81848000000025,
          "velocity": 0.7559055118110236,
          "duration": 0.5170468333333389
        },
        {
          "name": "G#3",
          "midi": 56,
          "time": 111.81848000000025,
          "velocity": 0.7559055118110236,
          "duration": 0.5170468333333389
        },
        {
          "name": "C4",
          "midi": 60,
          "time": 111.81848000000025,
          "velocity": 0.7559055118110236,
          "duration": 0.5170468333333389
        },
        {
          "name": "A1",
          "midi": 33,
          "time": 112.36393600000025,
          "velocity": 0.7559055118110236,
          "duration": 0.5170468333333389
        },
        {
          "name": "A2",
          "midi": 45,
          "time": 112.36393600000025,
          "velocity": 0.7559055118110236,
          "duration": 0.5170468333333389
        },
        {
          "name": "F3",
          "midi": 53,
          "time": 112.90939200000025,
          "velocity": 0.7559055118110236,
          "duration": 0.5170468333333389
        },
        {
          "name": "A3",
          "midi": 57,
          "time": 112.90939200000025,
          "velocity": 0.7559055118110236,
          "duration": 0.5170468333333389
        },
        {
          "name": "C4",
          "midi": 60,
          "time": 112.90939200000025,
          "velocity": 0.7559055118110236,
          "duration": 0.5170468333333389
        },
        {
          "name": "A#1",
          "midi": 34,
          "time": 113.45484800000025,
          "velocity": 0.7559055118110236,
          "duration": 0.5170468333333389
        },
        {
          "name": "A#2",
          "midi": 46,
          "time": 113.45484800000025,
          "velocity": 0.7559055118110236,
          "duration": 0.5170468333333389
        },
        {
          "name": "C#3",
          "midi": 49,
          "time": 114.00030400000026,
          "velocity": 0.7559055118110236,
          "duration": 0.5170468333333389
        },
        {
          "name": "F3",
          "midi": 53,
          "time": 114.00030400000026,
          "velocity": 0.7559055118110236,
          "duration": 0.5170468333333389
        },
        {
          "name": "A#3",
          "midi": 58,
          "time": 114.00030400000026,
          "velocity": 0.7559055118110236,
          "duration": 0.5170468333333389
        },
        {
          "name": "C#3",
          "midi": 49,
          "time": 114.54576000000026,
          "velocity": 0.7559055118110236,
          "duration": 0.5170468333333389
        },
        {
          "name": "A#3",
          "midi": 58,
          "time": 114.54576000000026,
          "velocity": 0.7559055118110236,
          "duration": 0.5170468333333389
        },
        {
          "name": "C#3",
          "midi": 49,
          "time": 115.09121600000026,
          "velocity": 0.7559055118110236,
          "duration": 0.5170468333333389
        },
        {
          "name": "F3",
          "midi": 53,
          "time": 115.09121600000026,
          "velocity": 0.7559055118110236,
          "duration": 0.5170468333333389
        },
        {
          "name": "A#3",
          "midi": 58,
          "time": 115.09121600000026,
          "velocity": 0.7559055118110236,
          "duration": 0.5170468333333389
        },
        {
          "name": "G#1",
          "midi": 32,
          "time": 115.63667200000026,
          "velocity": 0.7559055118110236,
          "duration": 0.5170468333333389
        },
        {
          "name": "G#2",
          "midi": 44,
          "time": 115.63667200000026,
          "velocity": 0.7559055118110236,
          "duration": 0.5170468333333389
        },
        {
          "name": "C#3",
          "midi": 49,
          "time": 116.18212800000026,
          "velocity": 0.7559055118110236,
          "duration": 0.5170468333333389
        },
        {
          "name": "F3",
          "midi": 53,
          "time": 116.18212800000026,
          "velocity": 0.7559055118110236,
          "duration": 0.5170468333333389
        },
        {
          "name": "G#3",
          "midi": 56,
          "time": 116.18212800000026,
          "velocity": 0.7559055118110236,
          "duration": 0.5170468333333389
        },
        {
          "name": "C#3",
          "midi": 49,
          "time": 116.72758400000026,
          "velocity": 0.7559055118110236,
          "duration": 0.5170468333333389
        },
        {
          "name": "G#3",
          "midi": 56,
          "time": 116.72758400000026,
          "velocity": 0.7559055118110236,
          "duration": 0.5170468333333389
        },
        {
          "name": "C#3",
          "midi": 49,
          "time": 117.27304000000026,
          "velocity": 0.7559055118110236,
          "duration": 0.5170468333333389
        },
        {
          "name": "F3",
          "midi": 53,
          "time": 117.27304000000026,
          "velocity": 0.7559055118110236,
          "duration": 0.5170468333333389
        },
        {
          "name": "G#3",
          "midi": 56,
          "time": 117.27304000000026,
          "velocity": 0.7559055118110236,
          "duration": 0.5170468333333389
        },
        {
          "name": "D#2",
          "midi": 39,
          "time": 117.81849600000027,
          "velocity": 0.7559055118110236,
          "duration": 0.5170468333333389
        },
        {
          "name": "D#3",
          "midi": 51,
          "time": 117.81849600000027,
          "velocity": 0.7559055118110236,
          "duration": 0.5170468333333389
        },
        {
          "name": "D#3",
          "midi": 51,
          "time": 118.36395200000027,
          "velocity": 0.7559055118110236,
          "duration": 0.5170468333333389
        },
        {
          "name": "F#3",
          "midi": 54,
          "time": 118.36395200000027,
          "velocity": 0.7559055118110236,
          "duration": 0.5170468333333389
        },
        {
          "name": "A#3",
          "midi": 58,
          "time": 118.36395200000027,
          "velocity": 0.7559055118110236,
          "duration": 0.5170468333333389
        },
        {
          "name": "D#3",
          "midi": 51,
          "time": 118.90940800000027,
          "velocity": 0.7559055118110236,
          "duration": 0.5170468333333389
        },
        {
          "name": "A#3",
          "midi": 58,
          "time": 118.90940800000027,
          "velocity": 0.7559055118110236,
          "duration": 0.5170468333333389
        },
        {
          "name": "D#3",
          "midi": 51,
          "time": 119.45486400000027,
          "velocity": 0.7559055118110236,
          "duration": 0.5170468333333389
        },
        {
          "name": "F#3",
          "midi": 54,
          "time": 119.45486400000027,
          "velocity": 0.7559055118110236,
          "duration": 0.5170468333333389
        },
        {
          "name": "A#3",
          "midi": 58,
          "time": 119.45486400000027,
          "velocity": 0.7559055118110236,
          "duration": 0.5170468333333389
        },
        {
          "name": "F2",
          "midi": 41,
          "time": 120.00032000000027,
          "velocity": 0.7559055118110236,
          "duration": 0.5170468333333389
        },
        {
          "name": "C3",
          "midi": 48,
          "time": 120.00032000000027,
          "velocity": 0.7559055118110236,
          "duration": 0.5170468333333389
        },
        {
          "name": "F3",
          "midi": 53,
          "time": 120.00032000000027,
          "velocity": 0.7559055118110236,
          "duration": 0.5170468333333389
        },
        {
          "name": "A#1",
          "midi": 34,
          "time": 122.18214400000028,
          "velocity": 0.6299212598425197,
          "duration": 0.3875010333333364
        },
        {
          "name": "A#2",
          "midi": 46,
          "time": 122.18214400000028,
          "velocity": 0.6299212598425197,
          "duration": 0.3875010333333364
        },
        {
          "name": "A#1",
          "midi": 34,
          "time": 122.59123600000028,
          "velocity": 0.6299212598425197,
          "duration": 0.3875010333333364
        },
        {
          "name": "A#2",
          "midi": 46,
          "time": 122.59123600000028,
          "velocity": 0.6299212598425197,
          "duration": 0.3875010333333364
        },
        {
          "name": "A#1",
          "midi": 34,
          "time": 123.00032800000028,
          "velocity": 0.6299212598425197,
          "duration": 0.5170468333333389
        },
        {
          "name": "A#2",
          "midi": 46,
          "time": 123.00032800000028,
          "velocity": 0.6299212598425197,
          "duration": 0.5170468333333389
        },
        {
          "name": "F1",
          "midi": 29,
          "time": 123.54578400000028,
          "velocity": 0.6299212598425197,
          "duration": 0.3875010333333364
        },
        {
          "name": "F2",
          "midi": 41,
          "time": 123.54578400000028,
          "velocity": 0.6299212598425197,
          "duration": 0.3875010333333364
        },
        {
          "name": "G#1",
          "midi": 32,
          "time": 123.95487600000028,
          "velocity": 0.6299212598425197,
          "duration": 0.3875010333333364
        },
        {
          "name": "G#2",
          "midi": 44,
          "time": 123.95487600000028,
          "velocity": 0.6299212598425197,
          "duration": 0.3875010333333364
        },
        {
          "name": "A#1",
          "midi": 34,
          "time": 124.36396800000028,
          "velocity": 0.6299212598425197,
          "duration": 0.3875010333333364
        },
        {
          "name": "A#2",
          "midi": 46,
          "time": 124.36396800000028,
          "velocity": 0.6299212598425197,
          "duration": 0.3875010333333364
        },
        {
          "name": "A#1",
          "midi": 34,
          "time": 124.77306000000029,
          "velocity": 0.6299212598425197,
          "duration": 0.3875010333333364
        },
        {
          "name": "A#2",
          "midi": 46,
          "time": 124.77306000000029,
          "velocity": 0.6299212598425197,
          "duration": 0.3875010333333364
        },
        {
          "name": "A#1",
          "midi": 34,
          "time": 125.18215200000029,
          "velocity": 0.6299212598425197,
          "duration": 0.5170468333333389
        },
        {
          "name": "A#2",
          "midi": 46,
          "time": 125.18215200000029,
          "velocity": 0.6299212598425197,
          "duration": 0.5170468333333389
        },
        {
          "name": "F1",
          "midi": 29,
          "time": 125.72760800000029,
          "velocity": 0.6299212598425197,
          "duration": 0.2579552333333339
        },
        {
          "name": "F2",
          "midi": 41,
          "time": 125.72760800000029,
          "velocity": 0.6299212598425197,
          "duration": 0.2579552333333339
        },
        {
          "name": "A#1",
          "midi": 34,
          "time": 126.54579200000029,
          "velocity": 0.6299212598425197,
          "duration": 0.3875010333333364
        },
        {
          "name": "A#2",
          "midi": 46,
          "time": 126.54579200000029,
          "velocity": 0.6299212598425197,
          "duration": 0.3875010333333364
        },
        {
          "name": "A#1",
          "midi": 34,
          "time": 126.95488400000029,
          "velocity": 0.6299212598425197,
          "duration": 0.3875010333333364
        },
        {
          "name": "A#2",
          "midi": 46,
          "time": 126.95488400000029,
          "velocity": 0.6299212598425197,
          "duration": 0.3875010333333364
        },
        {
          "name": "A#1",
          "midi": 34,
          "time": 127.36397600000029,
          "velocity": 0.6299212598425197,
          "duration": 0.5170468333333389
        },
        {
          "name": "A#2",
          "midi": 46,
          "time": 127.36397600000029,
          "velocity": 0.6299212598425197,
          "duration": 0.5170468333333389
        },
        {
          "name": "F1",
          "midi": 29,
          "time": 127.9094320000003,
          "velocity": 0.6299212598425197,
          "duration": 0.3875010333333364
        },
        {
          "name": "F2",
          "midi": 41,
          "time": 127.9094320000003,
          "velocity": 0.6299212598425197,
          "duration": 0.3875010333333364
        },
        {
          "name": "G#1",
          "midi": 32,
          "time": 128.3185240000003,
          "velocity": 0.6299212598425197,
          "duration": 0.3875010333333364
        },
        {
          "name": "G#2",
          "midi": 44,
          "time": 128.3185240000003,
          "velocity": 0.6299212598425197,
          "duration": 0.3875010333333364
        },
        {
          "name": "A#1",
          "midi": 34,
          "time": 128.72761600000032,
          "velocity": 0.6299212598425197,
          "duration": 0.3875010333333364
        },
        {
          "name": "A#2",
          "midi": 46,
          "time": 128.72761600000032,
          "velocity": 0.6299212598425197,
          "duration": 0.3875010333333364
        },
        {
          "name": "A#1",
          "midi": 34,
          "time": 129.13670800000034,
          "velocity": 0.6299212598425197,
          "duration": 0.3875010333333364
        },
        {
          "name": "A#2",
          "midi": 46,
          "time": 129.13670800000034,
          "velocity": 0.6299212598425197,
          "duration": 0.3875010333333364
        },
        {
          "name": "A#1",
          "midi": 34,
          "time": 129.54580000000036,
          "velocity": 0.6299212598425197,
          "duration": 0.5170468333333247
        },
        {
          "name": "A#2",
          "midi": 46,
          "time": 129.54580000000036,
          "velocity": 0.6299212598425197,
          "duration": 0.5170468333333247
        },
        {
          "name": "F1",
          "midi": 29,
          "time": 130.09125600000036,
          "velocity": 0.6299212598425197,
          "duration": 0.3875010333333364
        },
        {
          "name": "F2",
          "midi": 41,
          "time": 130.09125600000036,
          "velocity": 0.6299212598425197,
          "duration": 0.3875010333333364
        },
        {
          "name": "G#1",
          "midi": 32,
          "time": 130.50034800000037,
          "velocity": 0.6299212598425197,
          "duration": 0.3875010333333364
        },
        {
          "name": "G#2",
          "midi": 44,
          "time": 130.50034800000037,
          "velocity": 0.6299212598425197,
          "duration": 0.3875010333333364
        },
        {
          "name": "A#1",
          "midi": 34,
          "time": 130.9094400000004,
          "velocity": 0.6299212598425197,
          "duration": 0.3875010333333364
        },
        {
          "name": "A#2",
          "midi": 46,
          "time": 130.9094400000004,
          "velocity": 0.6299212598425197,
          "duration": 0.3875010333333364
        },
        {
          "name": "A#1",
          "midi": 34,
          "time": 131.3185320000004,
          "velocity": 0.6299212598425197,
          "duration": 0.3875010333333364
        },
        {
          "name": "A#2",
          "midi": 46,
          "time": 131.3185320000004,
          "velocity": 0.6299212598425197,
          "duration": 0.3875010333333364
        },
        {
          "name": "A#1",
          "midi": 34,
          "time": 131.72762400000042,
          "velocity": 0.6299212598425197,
          "duration": 0.5170468333333247
        },
        {
          "name": "A#2",
          "midi": 46,
          "time": 131.72762400000042,
          "velocity": 0.6299212598425197,
          "duration": 0.5170468333333247
        },
        {
          "name": "F1",
          "midi": 29,
          "time": 132.27308000000042,
          "velocity": 0.6299212598425197,
          "duration": 0.3875010333333364
        },
        {
          "name": "F2",
          "midi": 41,
          "time": 132.27308000000042,
          "velocity": 0.6299212598425197,
          "duration": 0.3875010333333364
        },
        {
          "name": "G#1",
          "midi": 32,
          "time": 132.68217200000043,
          "velocity": 0.6299212598425197,
          "duration": 0.3875010333333364
        },
        {
          "name": "G#2",
          "midi": 44,
          "time": 132.68217200000043,
          "velocity": 0.6299212598425197,
          "duration": 0.3875010333333364
        },
        {
          "name": "A#1",
          "midi": 34,
          "time": 133.09126400000045,
          "velocity": 0.6299212598425197,
          "duration": 0.3875010333333364
        },
        {
          "name": "A#2",
          "midi": 46,
          "time": 133.09126400000045,
          "velocity": 0.6299212598425197,
          "duration": 0.3875010333333364
        },
        {
          "name": "A#1",
          "midi": 34,
          "time": 133.50035600000047,
          "velocity": 0.6299212598425197,
          "duration": 0.3875010333333364
        },
        {
          "name": "A#2",
          "midi": 46,
          "time": 133.50035600000047,
          "velocity": 0.6299212598425197,
          "duration": 0.3875010333333364
        },
        {
          "name": "A#1",
          "midi": 34,
          "time": 133.90944800000048,
          "velocity": 0.6299212598425197,
          "duration": 0.5170468333333247
        },
        {
          "name": "A#2",
          "midi": 46,
          "time": 133.90944800000048,
          "velocity": 0.6299212598425197,
          "duration": 0.5170468333333247
        },
        {
          "name": "F1",
          "midi": 29,
          "time": 134.45490400000048,
          "velocity": 0.6299212598425197,
          "duration": 0.2579552333333197
        },
        {
          "name": "F2",
          "midi": 41,
          "time": 134.45490400000048,
          "velocity": 0.6299212598425197,
          "duration": 0.2579552333333197
        },
        {
          "name": "A#1",
          "midi": 34,
          "time": 135.27308800000046,
          "velocity": 0.6299212598425197,
          "duration": 0.3875010333333364
        },
        {
          "name": "A#2",
          "midi": 46,
          "time": 135.27308800000046,
          "velocity": 0.6299212598425197,
          "duration": 0.3875010333333364
        },
        {
          "name": "A#1",
          "midi": 34,
          "time": 135.68218000000047,
          "velocity": 0.6299212598425197,
          "duration": 0.3875010333333364
        },
        {
          "name": "A#2",
          "midi": 46,
          "time": 135.68218000000047,
          "velocity": 0.6299212598425197,
          "duration": 0.3875010333333364
        },
        {
          "name": "A#1",
          "midi": 34,
          "time": 136.0912720000005,
          "velocity": 0.6299212598425197,
          "duration": 0.5170468333333247
        },
        {
          "name": "A#2",
          "midi": 46,
          "time": 136.0912720000005,
          "velocity": 0.6299212598425197,
          "duration": 0.5170468333333247
        },
        {
          "name": "F1",
          "midi": 29,
          "time": 136.6367280000005,
          "velocity": 0.6299212598425197,
          "duration": 0.3875010333333364
        },
        {
          "name": "F2",
          "midi": 41,
          "time": 136.6367280000005,
          "velocity": 0.6299212598425197,
          "duration": 0.3875010333333364
        },
        {
          "name": "G#1",
          "midi": 32,
          "time": 137.0458200000005,
          "velocity": 0.6299212598425197,
          "duration": 0.3875010333333364
        },
        {
          "name": "G#2",
          "midi": 44,
          "time": 137.0458200000005,
          "velocity": 0.6299212598425197,
          "duration": 0.3875010333333364
        },
        {
          "name": "A#1",
          "midi": 34,
          "time": 137.45491200000052,
          "velocity": 0.6299212598425197,
          "duration": 0.3875010333333364
        },
        {
          "name": "A#2",
          "midi": 46,
          "time": 137.45491200000052,
          "velocity": 0.6299212598425197,
          "duration": 0.3875010333333364
        },
        {
          "name": "A#1",
          "midi": 34,
          "time": 137.86400400000053,
          "velocity": 0.6299212598425197,
          "duration": 0.3875010333333364
        },
        {
          "name": "A#2",
          "midi": 46,
          "time": 137.86400400000053,
          "velocity": 0.6299212598425197,
          "duration": 0.3875010333333364
        },
        {
          "name": "A#1",
          "midi": 34,
          "time": 138.27309600000055,
          "velocity": 0.6299212598425197,
          "duration": 0.5170468333333247
        },
        {
          "name": "A#2",
          "midi": 46,
          "time": 138.27309600000055,
          "velocity": 0.6299212598425197,
          "duration": 0.5170468333333247
        },
        {
          "name": "F1",
          "midi": 29,
          "time": 138.81855200000055,
          "velocity": 0.6299212598425197,
          "duration": 0.3875010333333364
        },
        {
          "name": "F2",
          "midi": 41,
          "time": 138.81855200000055,
          "velocity": 0.6299212598425197,
          "duration": 0.3875010333333364
        },
        {
          "name": "G#1",
          "midi": 32,
          "time": 139.22764400000057,
          "velocity": 0.6299212598425197,
          "duration": 0.3875010333333364
        },
        {
          "name": "G#2",
          "midi": 44,
          "time": 139.22764400000057,
          "velocity": 0.6299212598425197,
          "duration": 0.3875010333333364
        },
        {
          "name": "A#2",
          "midi": 46,
          "time": 139.63673600000058,
          "velocity": 0.6299212598425197,
          "duration": 1.8125048333333211
        },
        {
          "name": "F3",
          "midi": 53,
          "time": 139.63673600000058,
          "velocity": 0.6299212598425197,
          "duration": 1.8125048333333211
        },
        {
          "name": "A#3",
          "midi": 58,
          "time": 139.63673600000058,
          "velocity": 0.6299212598425197,
          "duration": 1.8125048333333211
        },
        {
          "name": "G#2",
          "midi": 44,
          "time": 141.54583200000056,
          "velocity": 0.6299212598425197,
          "duration": 2.330688033333331
        },
        {
          "name": "D#3",
          "midi": 51,
          "time": 141.54583200000056,
          "velocity": 0.6299212598425197,
          "duration": 2.330688033333331
        },
        {
          "name": "G#3",
          "midi": 56,
          "time": 141.54583200000056,
          "velocity": 0.6299212598425197,
          "duration": 2.330688033333331
        },
        {
          "name": "D#2",
          "midi": 39,
          "time": 144.00038400000057,
          "velocity": 0.6299212598425197,
          "duration": 1.8125048333333211
        },
        {
          "name": "A#2",
          "midi": 46,
          "time": 144.00038400000057,
          "velocity": 0.6299212598425197,
          "duration": 1.8125048333333211
        },
        {
          "name": "D#3",
          "midi": 51,
          "time": 144.00038400000057,
          "velocity": 0.6299212598425197,
          "duration": 1.8125048333333211
        },
        {
          "name": "G#2",
          "midi": 44,
          "time": 145.90948000000054,
          "velocity": 0.6299212598425197,
          "duration": 1.0352300333333346
        },
        {
          "name": "D#3",
          "midi": 51,
          "time": 145.90948000000054,
          "velocity": 0.6299212598425197,
          "duration": 1.0352300333333346
        },
        {
          "name": "G#3",
          "midi": 56,
          "time": 145.90948000000054,
          "velocity": 0.6299212598425197,
          "duration": 1.0352300333333346
        },
        {
          "name": "A2",
          "midi": 45,
          "time": 147.00039200000055,
          "velocity": 0.6299212598425197,
          "duration": 1.2943216333333396
        },
        {
          "name": "F3",
          "midi": 53,
          "time": 147.00039200000055,
          "velocity": 0.6299212598425197,
          "duration": 1.2943216333333396
        },
        {
          "name": "A3",
          "midi": 57,
          "time": 147.00039200000055,
          "velocity": 0.6299212598425197,
          "duration": 1.2943216333333396
        },
        {
          "name": "A#2",
          "midi": 46,
          "time": 148.36403200000055,
          "velocity": 0.6299212598425197,
          "duration": 1.8125048333333211
        },
        {
          "name": "F3",
          "midi": 53,
          "time": 148.36403200000055,
          "velocity": 0.6299212598425197,
          "duration": 1.8125048333333211
        },
        {
          "name": "A#3",
          "midi": 58,
          "time": 148.36403200000055,
          "velocity": 0.6299212598425197,
          "duration": 1.8125048333333211
        },
        {
          "name": "G#2",
          "midi": 44,
          "time": 150.27312800000053,
          "velocity": 0.6299212598425197,
          "duration": 2.330688033333331
        },
        {
          "name": "D#3",
          "midi": 51,
          "time": 150.27312800000053,
          "velocity": 0.6299212598425197,
          "duration": 2.330688033333331
        },
        {
          "name": "G#3",
          "midi": 56,
          "time": 150.27312800000053,
          "velocity": 0.6299212598425197,
          "duration": 2.330688033333331
        },
        {
          "name": "D#2",
          "midi": 39,
          "time": 152.72768000000053,
          "velocity": 0.6299212598425197,
          "duration": 1.8125048333333211
        },
        {
          "name": "A#2",
          "midi": 46,
          "time": 152.72768000000053,
          "velocity": 0.6299212598425197,
          "duration": 1.8125048333333211
        },
        {
          "name": "D#3",
          "midi": 51,
          "time": 152.72768000000053,
          "velocity": 0.6299212598425197,
          "duration": 1.8125048333333211
        },
        {
          "name": "F2",
          "midi": 41,
          "time": 154.6367760000005,
          "velocity": 0.6299212598425197,
          "duration": 0.5170468333333247
        },
        {
          "name": "C3",
          "midi": 48,
          "time": 154.6367760000005,
          "velocity": 0.6299212598425197,
          "duration": 0.5170468333333247
        },
        {
          "name": "F3",
          "midi": 53,
          "time": 154.6367760000005,
          "velocity": 0.6299212598425197,
          "duration": 0.5170468333333247
        },
        {
          "name": "A#1",
          "midi": 34,
          "time": 157.0913280000005,
          "velocity": 0.8818897637795275,
          "duration": 0.3875010333333364
        },
        {
          "name": "A#2",
          "midi": 46,
          "time": 157.0913280000005,
          "velocity": 0.8818897637795275,
          "duration": 0.3875010333333364
        },
        {
          "name": "A#1",
          "midi": 34,
          "time": 157.5004200000005,
          "velocity": 0.8818897637795275,
          "duration": 0.3875010333333364
        },
        {
          "name": "A#2",
          "midi": 46,
          "time": 157.5004200000005,
          "velocity": 0.8818897637795275,
          "duration": 0.3875010333333364
        },
        {
          "name": "A#1",
          "midi": 34,
          "time": 157.90951200000052,
          "velocity": 0.8818897637795275,
          "duration": 0.5170468333333247
        },
        {
          "name": "A#2",
          "midi": 46,
          "time": 157.90951200000052,
          "velocity": 0.8818897637795275,
          "duration": 0.5170468333333247
        },
        {
          "name": "F1",
          "midi": 29,
          "time": 158.45496800000052,
          "velocity": 0.8818897637795275,
          "duration": 0.3875010333333364
        },
        {
          "name": "F2",
          "midi": 41,
          "time": 158.45496800000052,
          "velocity": 0.8818897637795275,
          "duration": 0.3875010333333364
        },
        {
          "name": "G#1",
          "midi": 32,
          "time": 158.86406000000053,
          "velocity": 0.8818897637795275,
          "duration": 0.3875010333333364
        },
        {
          "name": "G#2",
          "midi": 44,
          "time": 158.86406000000053,
          "velocity": 0.8818897637795275,
          "duration": 0.3875010333333364
        },
        {
          "name": "A#1",
          "midi": 34,
          "time": 159.27315200000055,
          "velocity": 0.8818897637795275,
          "duration": 0.3875010333333364
        },
        {
          "name": "A#2",
          "midi": 46,
          "time": 159.27315200000055,
          "velocity": 0.8818897637795275,
          "duration": 0.3875010333333364
        },
        {
          "name": "A#1",
          "midi": 34,
          "time": 159.68224400000057,
          "velocity": 0.7559055118110236,
          "duration": 0.3875010333333364
        },
        {
          "name": "A#2",
          "midi": 46,
          "time": 159.68224400000057,
          "velocity": 0.7559055118110236,
          "duration": 0.3875010333333364
        },
        {
          "name": "A#1",
          "midi": 34,
          "time": 160.09133600000058,
          "velocity": 0.7559055118110236,
          "duration": 0.5170468333333247
        },
        {
          "name": "A#2",
          "midi": 46,
          "time": 160.09133600000058,
          "velocity": 0.7559055118110236,
          "duration": 0.5170468333333247
        },
        {
          "name": "D#2",
          "midi": 39,
          "time": 160.63679200000058,
          "velocity": 0.7559055118110236,
          "duration": 0.3875010333333364
        },
        {
          "name": "D#3",
          "midi": 51,
          "time": 160.63679200000058,
          "velocity": 0.7559055118110236,
          "duration": 0.3875010333333364
        },
        {
          "name": "C#2",
          "midi": 37,
          "time": 161.0458840000006,
          "velocity": 0.7559055118110236,
          "duration": 0.3875010333333364
        },
        {
          "name": "C#3",
          "midi": 49,
          "time": 161.0458840000006,
          "velocity": 0.7559055118110236,
          "duration": 0.3875010333333364
        },
        {
          "name": "A#1",
          "midi": 34,
          "time": 161.4549760000006,
          "velocity": 0.8818897637795275,
          "duration": 0.3875010333333364
        },
        {
          "name": "A#2",
          "midi": 46,
          "time": 161.4549760000006,
          "velocity": 0.8818897637795275,
          "duration": 0.3875010333333364
        },
        {
          "name": "A#1",
          "midi": 34,
          "time": 161.86406800000063,
          "velocity": 0.8818897637795275,
          "duration": 0.3875010333333364
        },
        {
          "name": "A#2",
          "midi": 46,
          "time": 161.86406800000063,
          "velocity": 0.8818897637795275,
          "duration": 0.3875010333333364
        },
        {
          "name": "A#1",
          "midi": 34,
          "time": 162.27316000000064,
          "velocity": 0.8818897637795275,
          "duration": 0.5170468333333247
        },
        {
          "name": "A#2",
          "midi": 46,
          "time": 162.27316000000064,
          "velocity": 0.8818897637795275,
          "duration": 0.5170468333333247
        },
        {
          "name": "F1",
          "midi": 29,
          "time": 162.81861600000065,
          "velocity": 0.8818897637795275,
          "duration": 0.3875010333333364
        },
        {
          "name": "F2",
          "midi": 41,
          "time": 162.81861600000065,
          "velocity": 0.8818897637795275,
          "duration": 0.3875010333333364
        },
        {
          "name": "G#1",
          "midi": 32,
          "time": 163.22770800000066,
          "velocity": 0.8818897637795275,
          "duration": 0.3875010333333364
        },
        {
          "name": "G#2",
          "midi": 44,
          "time": 163.22770800000066,
          "velocity": 0.8818897637795275,
          "duration": 0.3875010333333364
        },
        {
          "name": "A#1",
          "midi": 34,
          "time": 163.63680000000068,
          "velocity": 0.8818897637795275,
          "duration": 0.3875010333333364
        },
        {
          "name": "A#2",
          "midi": 46,
          "time": 163.63680000000068,
          "velocity": 0.8818897637795275,
          "duration": 0.3875010333333364
        },
        {
          "name": "A#1",
          "midi": 34,
          "time": 164.0458920000007,
          "velocity": 0.8818897637795275,
          "duration": 0.3875010333333364
        },
        {
          "name": "A#2",
          "midi": 46,
          "time": 164.0458920000007,
          "velocity": 0.8818897637795275,
          "duration": 0.3875010333333364
        },
        {
          "name": "A#1",
          "midi": 34,
          "time": 164.4549840000007,
          "velocity": 0.8818897637795275,
          "duration": 0.5170468333333247
        },
        {
          "name": "A#2",
          "midi": 46,
          "time": 164.4549840000007,
          "velocity": 0.8818897637795275,
          "duration": 0.5170468333333247
        },
        {
          "name": "G#1",
          "midi": 32,
          "time": 165.0004400000007,
          "velocity": 0.8818897637795275,
          "duration": 0.3875010333333364
        },
        {
          "name": "G#2",
          "midi": 44,
          "time": 165.0004400000007,
          "velocity": 0.8818897637795275,
          "duration": 0.3875010333333364
        },
        {
          "name": "A1",
          "midi": 33,
          "time": 165.40953200000072,
          "velocity": 0.8818897637795275,
          "duration": 0.3875010333333364
        },
        {
          "name": "A2",
          "midi": 45,
          "time": 165.40953200000072,
          "velocity": 0.8818897637795275,
          "duration": 0.3875010333333364
        },
        {
          "name": "A#1",
          "midi": 34,
          "time": 165.81862400000074,
          "velocity": 0.8818897637795275,
          "duration": 0.3875010333333364
        },
        {
          "name": "A#2",
          "midi": 46,
          "time": 165.81862400000074,
          "velocity": 0.8818897637795275,
          "duration": 0.3875010333333364
        },
        {
          "name": "A#1",
          "midi": 34,
          "time": 166.22771600000075,
          "velocity": 0.8818897637795275,
          "duration": 0.3875010333333364
        },
        {
          "name": "A#2",
          "midi": 46,
          "time": 166.22771600000075,
          "velocity": 0.8818897637795275,
          "duration": 0.3875010333333364
        },
        {
          "name": "A#1",
          "midi": 34,
          "time": 166.63680800000077,
          "velocity": 0.8818897637795275,
          "duration": 0.5170468333333247
        },
        {
          "name": "A#2",
          "midi": 46,
          "time": 166.63680800000077,
          "velocity": 0.8818897637795275,
          "duration": 0.5170468333333247
        },
        {
          "name": "F1",
          "midi": 29,
          "time": 167.18226400000077,
          "velocity": 0.8818897637795275,
          "duration": 0.3875010333333364
        },
        {
          "name": "F2",
          "midi": 41,
          "time": 167.18226400000077,
          "velocity": 0.8818897637795275,
          "duration": 0.3875010333333364
        },
        {
          "name": "G#1",
          "midi": 32,
          "time": 167.5913560000008,
          "velocity": 0.8818897637795275,
          "duration": 0.3875010333333364
        },
        {
          "name": "G#2",
          "midi": 44,
          "time": 167.5913560000008,
          "velocity": 0.8818897637795275,
          "duration": 0.3875010333333364
        },
        {
          "name": "A#1",
          "midi": 34,
          "time": 168.0004480000008,
          "velocity": 0.8818897637795275,
          "duration": 0.3875010333333364
        },
        {
          "name": "A#2",
          "midi": 46,
          "time": 168.0004480000008,
          "velocity": 0.8818897637795275,
          "duration": 0.3875010333333364
        },
        {
          "name": "A#1",
          "midi": 34,
          "time": 168.40954000000082,
          "velocity": 0.8818897637795275,
          "duration": 0.3875010333333364
        },
        {
          "name": "A#2",
          "midi": 46,
          "time": 168.40954000000082,
          "velocity": 0.8818897637795275,
          "duration": 0.3875010333333364
        },
        {
          "name": "A#1",
          "midi": 34,
          "time": 168.81863200000083,
          "velocity": 0.8818897637795275,
          "duration": 0.5170468333333247
        },
        {
          "name": "A#2",
          "midi": 46,
          "time": 168.81863200000083,
          "velocity": 0.8818897637795275,
          "duration": 0.5170468333333247
        },
        {
          "name": "D#2",
          "midi": 39,
          "time": 169.36408800000083,
          "velocity": 0.8818897637795275,
          "duration": 0.3875010333333364
        },
        {
          "name": "D#3",
          "midi": 51,
          "time": 169.36408800000083,
          "velocity": 0.8818897637795275,
          "duration": 0.3875010333333364
        },
        {
          "name": "C#2",
          "midi": 37,
          "time": 169.77318000000085,
          "velocity": 0.8818897637795275,
          "duration": 0.3875010333333364
        },
        {
          "name": "C#3",
          "midi": 49,
          "time": 169.77318000000085,
          "velocity": 0.8818897637795275,
          "duration": 0.3875010333333364
        },
        {
          "name": "A#1",
          "midi": 34,
          "time": 170.18227200000086,
          "velocity": 0.8818897637795275,
          "duration": 0.3875010333333364
        },
        {
          "name": "A#2",
          "midi": 46,
          "time": 170.18227200000086,
          "velocity": 0.8818897637795275,
          "duration": 0.3875010333333364
        },
        {
          "name": "A#1",
          "midi": 34,
          "time": 170.59136400000088,
          "velocity": 0.8818897637795275,
          "duration": 0.3875010333333364
        },
        {
          "name": "A#2",
          "midi": 46,
          "time": 170.59136400000088,
          "velocity": 0.8818897637795275,
          "duration": 0.3875010333333364
        },
        {
          "name": "A#1",
          "midi": 34,
          "time": 171.0004560000009,
          "velocity": 0.8818897637795275,
          "duration": 0.5170468333333247
        },
        {
          "name": "A#2",
          "midi": 46,
          "time": 171.0004560000009,
          "velocity": 0.8818897637795275,
          "duration": 0.5170468333333247
        },
        {
          "name": "F1",
          "midi": 29,
          "time": 171.5459120000009,
          "velocity": 0.8818897637795275,
          "duration": 0.3875010333333364
        },
        {
          "name": "F2",
          "midi": 41,
          "time": 171.5459120000009,
          "velocity": 0.8818897637795275,
          "duration": 0.3875010333333364
        },
        {
          "name": "G#1",
          "midi": 32,
          "time": 171.9550040000009,
          "velocity": 0.8818897637795275,
          "duration": 0.3875010333333364
        },
        {
          "name": "G#2",
          "midi": 44,
          "time": 171.9550040000009,
          "velocity": 0.8818897637795275,
          "duration": 0.3875010333333364
        },
        {
          "name": "A#1",
          "midi": 34,
          "time": 172.36409600000093,
          "velocity": 0.8818897637795275,
          "duration": 0.3875010333333364
        },
        {
          "name": "A#2",
          "midi": 46,
          "time": 172.36409600000093,
          "velocity": 0.8818897637795275,
          "duration": 0.3875010333333364
        },
        {
          "name": "A#1",
          "midi": 34,
          "time": 172.77318800000094,
          "velocity": 0.8818897637795275,
          "duration": 0.3875010333333364
        },
        {
          "name": "A#2",
          "midi": 46,
          "time": 172.77318800000094,
          "velocity": 0.8818897637795275,
          "duration": 0.3875010333333364
        },
        {
          "name": "A#1",
          "midi": 34,
          "time": 173.18228000000096,
          "velocity": 0.8818897637795275,
          "duration": 0.2579552333333197
        },
        {
          "name": "A#2",
          "midi": 46,
          "time": 173.18228000000096,
          "velocity": 0.8818897637795275,
          "duration": 0.2579552333333197
        }
      ],
      "controlChanges": {},
      "id": 1,
      "name": "Piano",
      "channelNumber": 0,
      "isPercussion": false
    }
  ]
}