{
  "header": {
    "PPQ": 480,
    "timeSignature": [
      4,
      4
    ],
    "bpm": 145.00003625000906,
    "name": "Piano"
  },
  "tempo": [
    {
      "absoluteTime": 0,
      "seconds": 0,
      "bpm": 145.00003625000906
    }
  ],
  "timeSignature": [
    {
      "absoluteTime": 0,
      "seconds": 0,
      "numerator": 4,
      "denominator": 2,
      "click": 24,
      "notesQ": 8
    }
  ],
  "startTime": 0,
  "duration": 229.24045993124744,
  "tracks": [
    {
      "startTime": 4.965516,
      "duration": 229.24045993124744,
      "length": 1055,
      "notes": [
        {
          "name": "C4",
          "midi": 60,
          "time": 4.965516,
          "velocity": 0.6299212598425197,
          "duration": 0.41293093125
        },
        {
          "name": "E4",
          "midi": 64,
          "time": 4.965516,
          "velocity": 0.6299212598425197,
          "duration": 0.41293093125
        },
        {
          "name": "F4",
          "midi": 65,
          "time": 4.965516,
          "velocity": 0.6299212598425197,
          "duration": 0.41293093125
        },
        {
          "name": "A4",
          "midi": 69,
          "time": 5.379309,
          "velocity": 0.6299212598425197,
          "duration": 0.20603443124999998
        },
        {
          "name": "F4",
          "midi": 65,
          "time": 5.5862055,
          "velocity": 0.6299212598425197,
          "duration": 0.20603443124999998
        },
        {
          "name": "E4",
          "midi": 64,
          "time": 5.793102,
          "velocity": 0.6299212598425197,
          "duration": 0.41293093125
        },
        {
          "name": "C4",
          "midi": 60,
          "time": 6.206895,
          "velocity": 0.6299212598425197,
          "duration": 0.41293093125
        },
        {
          "name": "E4",
          "midi": 64,
          "time": 6.620688,
          "velocity": 0.6299212598425197,
          "duration": 1.6543099312500003
        },
        {
          "name": "F4",
          "midi": 65,
          "time": 6.620688,
          "velocity": 0.6299212598425197,
          "duration": 1.6543099312500003
        },
        {
          "name": "A4",
          "midi": 69,
          "time": 6.620688,
          "velocity": 0.6299212598425197,
          "duration": 1.6543099312500003
        },
        {
          "name": "C4",
          "midi": 60,
          "time": 8.27586,
          "velocity": 0.6299212598425197,
          "duration": 0.4129309312500009
        },
        {
          "name": "E4",
          "midi": 64,
          "time": 8.27586,
          "velocity": 0.6299212598425197,
          "duration": 0.4129309312500009
        },
        {
          "name": "F4",
          "midi": 65,
          "time": 8.27586,
          "velocity": 0.6299212598425197,
          "duration": 0.4129309312500009
        },
        {
          "name": "A4",
          "midi": 69,
          "time": 8.689653,
          "velocity": 0.6299212598425197,
          "duration": 0.20603443124999998
        },
        {
          "name": "F4",
          "midi": 65,
          "time": 8.896549499999999,
          "velocity": 0.6299212598425197,
          "duration": 0.20603443124999998
        },
        {
          "name": "E4",
          "midi": 64,
          "time": 9.103445999999998,
          "velocity": 0.6299212598425197,
          "duration": 0.41293093124999913
        },
        {
          "name": "C4",
          "midi": 60,
          "time": 9.517238999999996,
          "velocity": 0.6299212598425197,
          "duration": 0.41293093124999913
        },
        {
          "name": "E4",
          "midi": 64,
          "time": 9.931031999999995,
          "velocity": 0.6299212598425197,
          "duration": 0.8267239312499992
        },
        {
          "name": "F4",
          "midi": 65,
          "time": 9.931031999999995,
          "velocity": 0.6299212598425197,
          "duration": 0.8267239312499992
        },
        {
          "name": "F4",
          "midi": 65,
          "time": 10.758617999999993,
          "velocity": 0.6299212598425197,
          "duration": 0.8267239312499992
        },
        {
          "name": "A4",
          "midi": 69,
          "time": 10.758617999999993,
          "velocity": 0.6299212598425197,
          "duration": 0.8267239312499992
        },
        {
          "name": "C4",
          "midi": 60,
          "time": 11.586203999999992,
          "velocity": 0.6299212598425197,
          "duration": 0.41293093124999913
        },
        {
          "name": "E4",
          "midi": 64,
          "time": 11.586203999999992,
          "velocity": 0.6299212598425197,
          "duration": 0.41293093124999913
        },
        {
          "name": "F4",
          "midi": 65,
          "time": 11.586203999999992,
          "velocity": 0.6299212598425197,
          "duration": 0.41293093124999913
        },
        {
          "name": "A4",
          "midi": 69,
          "time": 11.99999699999999,
          "velocity": 0.6299212598425197,
          "duration": 0.20603443124999998
        },
        {
          "name": "F4",
          "midi": 65,
          "time": 12.206893499999989,
          "velocity": 0.6299212598425197,
          "duration": 0.20603443124999998
        },
        {
          "name": "E4",
          "midi": 64,
          "time": 12.413789999999988,
          "velocity": 0.6299212598425197,
          "duration": 0.41293093124999913
        },
        {
          "name": "C4",
          "midi": 60,
          "time": 12.827582999999986,
          "velocity": 0.6299212598425197,
          "duration": 0.41293093124999913
        },
        {
          "name": "E4",
          "midi": 64,
          "time": 13.241375999999985,
          "velocity": 0.6299212598425197,
          "duration": 1.6543099312499994
        },
        {
          "name": "F4",
          "midi": 65,
          "time": 13.241375999999985,
          "velocity": 0.6299212598425197,
          "duration": 1.6543099312499994
        },
        {
          "name": "A4",
          "midi": 69,
          "time": 13.241375999999985,
          "velocity": 0.6299212598425197,
          "duration": 1.6543099312499994
        },
        {
          "name": "C4",
          "midi": 60,
          "time": 14.896547999999983,
          "velocity": 0.6299212598425197,
          "duration": 0.4129309312500009
        },
        {
          "name": "E4",
          "midi": 64,
          "time": 14.896547999999983,
          "velocity": 0.6299212598425197,
          "duration": 0.4129309312500009
        },
        {
          "name": "F4",
          "midi": 65,
          "time": 14.896547999999983,
          "velocity": 0.6299212598425197,
          "duration": 0.4129309312500009
        },
        {
          "name": "A4",
          "midi": 69,
          "time": 15.310340999999983,
          "velocity": 0.6299212598425197,
          "duration": 0.20603443124999998
        },
        {
          "name": "F4",
          "midi": 65,
          "time": 15.517237499999982,
          "velocity": 0.6299212598425197,
          "duration": 0.20603443124999998
        },
        {
          "name": "E4",
          "midi": 64,
          "time": 15.724133999999982,
          "velocity": 0.6299212598425197,
          "duration": 0.41293093124999913
        },
        {
          "name": "C4",
          "midi": 60,
          "time": 16.13792699999998,
          "velocity": 0.6299212598425197,
          "duration": 0.41293093124999913
        },
        {
          "name": "E4",
          "midi": 64,
          "time": 16.55171999999998,
          "velocity": 0.6299212598425197,
          "duration": 0.826723931250001
        },
        {
          "name": "F4",
          "midi": 65,
          "time": 16.55171999999998,
          "velocity": 0.6299212598425197,
          "duration": 0.826723931250001
        },
        {
          "name": "F4",
          "midi": 65,
          "time": 17.37930599999998,
          "velocity": 0.6299212598425197,
          "duration": 0.826723931250001
        },
        {
          "name": "A4",
          "midi": 69,
          "time": 17.37930599999998,
          "velocity": 0.6299212598425197,
          "duration": 0.826723931250001
        },
        {
          "name": "C4",
          "midi": 60,
          "time": 18.20689199999998,
          "velocity": 0.6299212598425197,
          "duration": 0.41293093124999913
        },
        {
          "name": "E4",
          "midi": 64,
          "time": 18.20689199999998,
          "velocity": 0.6299212598425197,
          "duration": 0.41293093124999913
        },
        {
          "name": "F4",
          "midi": 65,
          "time": 18.20689199999998,
          "velocity": 0.6299212598425197,
          "duration": 0.41293093124999913
        },
        {
          "name": "A4",
          "midi": 69,
          "time": 18.620684999999977,
          "velocity": 0.6299212598425197,
          "duration": 0.20603443124999998
        },
        {
          "name": "F4",
          "midi": 65,
          "time": 18.827581499999976,
          "velocity": 0.6299212598425197,
          "duration": 0.20603443124999998
        },
        {
          "name": "E4",
          "midi": 64,
          "time": 19.034477999999975,
          "velocity": 0.6299212598425197,
          "duration": 0.41293093124999913
        },
        {
          "name": "C4",
          "midi": 60,
          "time": 19.448270999999973,
          "velocity": 0.6299212598425197,
          "duration": 0.41293093124999913
        },
        {
          "name": "C4",
          "midi": 60,
          "time": 19.86206399999997,
          "velocity": 0.6299212598425197,
          "duration": 0.41293093124999913
        },
        {
          "name": "E4",
          "midi": 64,
          "time": 19.86206399999997,
          "velocity": 0.6299212598425197,
          "duration": 0.41293093124999913
        },
        {
          "name": "F4",
          "midi": 65,
          "time": 19.86206399999997,
          "velocity": 0.6299212598425197,
          "duration": 0.41293093124999913
        },
        {
          "name": "C4",
          "midi": 60,
          "time": 20.27585699999997,
          "velocity": 0.6299212598425197,
          "duration": 0.20603443124999998
        },
        {
          "name": "E4",
          "midi": 64,
          "time": 20.48275349999997,
          "velocity": 0.6299212598425197,
          "duration": 0.20603443124999998
        },
        {
          "name": "F4",
          "midi": 65,
          "time": 20.68964999999997,
          "velocity": 0.6299212598425197,
          "duration": 0.41293093124999913
        },
        {
          "name": "C4",
          "midi": 60,
          "time": 21.103442999999967,
          "velocity": 0.6299212598425197,
          "duration": 0.41293093124999913
        },
        {
          "name": "C4",
          "midi": 60,
          "time": 21.517235999999965,
          "velocity": 0.6299212598425197,
          "duration": 0.41293093124999913
        },
        {
          "name": "E4",
          "midi": 64,
          "time": 21.517235999999965,
          "velocity": 0.6299212598425197,
          "duration": 0.41293093124999913
        },
        {
          "name": "F4",
          "midi": 65,
          "time": 21.517235999999965,
          "velocity": 0.6299212598425197,
          "duration": 0.41293093124999913
        },
        {
          "name": "A4",
          "midi": 69,
          "time": 21.931028999999963,
          "velocity": 0.6299212598425197,
          "duration": 0.20603443124999998
        },
        {
          "name": "F4",
          "midi": 65,
          "time": 22.137925499999962,
          "velocity": 0.6299212598425197,
          "duration": 0.20603443124999998
        },
        {
          "name": "E4",
          "midi": 64,
          "time": 22.34482199999996,
          "velocity": 0.6299212598425197,
          "duration": 0.41293093124999913
        },
        {
          "name": "C4",
          "midi": 60,
          "time": 22.75861499999996,
          "velocity": 0.6299212598425197,
          "duration": 0.41293093124999913
        },
        {
          "name": "C4",
          "midi": 60,
          "time": 23.172407999999958,
          "velocity": 0.6299212598425197,
          "duration": 0.41293093124999913
        },
        {
          "name": "E4",
          "midi": 64,
          "time": 23.172407999999958,
          "velocity": 0.6299212598425197,
          "duration": 0.41293093124999913
        },
        {
          "name": "F4",
          "midi": 65,
          "time": 23.172407999999958,
          "velocity": 0.6299212598425197,
          "duration": 0.41293093124999913
        },
        {
          "name": "C4",
          "midi": 60,
          "time": 23.586200999999956,
          "velocity": 0.6299212598425197,
          "duration": 0.20603443124999998
        },
        {
          "name": "E4",
          "midi": 64,
          "time": 23.793097499999956,
          "velocity": 0.6299212598425197,
          "duration": 0.20603443124999998
        },
        {
          "name": "F4",
          "midi": 65,
          "time": 23.999993999999955,
          "velocity": 0.6299212598425197,
          "duration": 0.41293093124999913
        },
        {
          "name": "C4",
          "midi": 60,
          "time": 24.413786999999953,
          "velocity": 0.6299212598425197,
          "duration": 0.41293093124999913
        },
        {
          "name": "C4",
          "midi": 60,
          "time": 24.82757999999995,
          "velocity": 0.6299212598425197,
          "duration": 0.41293093124999913
        },
        {
          "name": "E4",
          "midi": 64,
          "time": 24.82757999999995,
          "velocity": 0.6299212598425197,
          "duration": 0.41293093124999913
        },
        {
          "name": "F4",
          "midi": 65,
          "time": 24.82757999999995,
          "velocity": 0.6299212598425197,
          "duration": 0.41293093124999913
        },
        {
          "name": "A4",
          "midi": 69,
          "time": 25.24137299999995,
          "velocity": 0.6299212598425197,
          "duration": 0.20603443124999998
        },
        {
          "name": "F4",
          "midi": 65,
          "time": 25.44826949999995,
          "velocity": 0.6299212598425197,
          "duration": 0.20603443124999998
        },
        {
          "name": "E4",
          "midi": 64,
          "time": 25.655165999999948,
          "velocity": 0.6299212598425197,
          "duration": 0.41293093124999913
        },
        {
          "name": "C4",
          "midi": 60,
          "time": 26.068958999999946,
          "velocity": 0.6299212598425197,
          "duration": 0.41293093124999913
        },
        {
          "name": "C4",
          "midi": 60,
          "time": 26.482751999999945,
          "velocity": 0.6299212598425197,
          "duration": 0.41293093124999913
        },
        {
          "name": "E4",
          "midi": 64,
          "time": 26.482751999999945,
          "velocity": 0.6299212598425197,
          "duration": 0.41293093124999913
        },
        {
          "name": "F4",
          "midi": 65,
          "time": 26.482751999999945,
          "velocity": 0.6299212598425197,
          "duration": 0.41293093124999913
        },
        {
          "name": "C4",
          "midi": 60,
          "time": 26.896544999999943,
          "velocity": 0.6299212598425197,
          "duration": 0.20603443124999998
        },
        {
          "name": "E4",
          "midi": 64,
          "time": 27.103441499999942,
          "velocity": 0.6299212598425197,
          "duration": 0.20603443124999998
        },
        {
          "name": "F4",
          "midi": 65,
          "time": 27.31033799999994,
          "velocity": 0.6299212598425197,
          "duration": 0.41293093124999913
        },
        {
          "name": "C4",
          "midi": 60,
          "time": 27.72413099999994,
          "velocity": 0.6299212598425197,
          "duration": 0.41293093124999913
        },
        {
          "name": "C4",
          "midi": 60,
          "time": 28.137923999999938,
          "velocity": 0.6299212598425197,
          "duration": 0.41293093124999913
        },
        {
          "name": "E4",
          "midi": 64,
          "time": 28.137923999999938,
          "velocity": 0.6299212598425197,
          "duration": 0.41293093124999913
        },
        {
          "name": "F4",
          "midi": 65,
          "time": 28.137923999999938,
          "velocity": 0.6299212598425197,
          "duration": 0.41293093124999913
        },
        {
          "name": "A4",
          "midi": 69,
          "time": 28.551716999999936,
          "velocity": 0.6299212598425197,
          "duration": 0.20603443124999998
        },
        {
          "name": "F4",
          "midi": 65,
          "time": 28.758613499999935,
          "velocity": 0.6299212598425197,
          "duration": 0.20603443124999998
        },
        {
          "name": "E4",
          "midi": 64,
          "time": 28.965509999999934,
          "velocity": 0.6299212598425197,
          "duration": 0.41293093124999913
        },
        {
          "name": "C4",
          "midi": 60,
          "time": 29.379302999999933,
          "velocity": 0.6299212598425197,
          "duration": 0.41293093124999913
        },
        {
          "name": "F4",
          "midi": 65,
          "time": 29.79309599999993,
          "velocity": 0.6299212598425197,
          "duration": 0.826723931250001
        },
        {
          "name": "A4",
          "midi": 69,
          "time": 29.79309599999993,
          "velocity": 0.6299212598425197,
          "duration": 0.826723931250001
        },
        {
          "name": "E4",
          "midi": 64,
          "time": 30.62068199999993,
          "velocity": 0.6299212598425197,
          "duration": 0.826723931250001
        },
        {
          "name": "F4",
          "midi": 65,
          "time": 30.62068199999993,
          "velocity": 0.6299212598425197,
          "duration": 0.826723931250001
        },
        {
          "name": "C4",
          "midi": 60,
          "time": 31.44826799999993,
          "velocity": 0.6299212598425197,
          "duration": 0.30948268124999956
        },
        {
          "name": "E4",
          "midi": 64,
          "time": 31.44826799999993,
          "velocity": 0.6299212598425197,
          "duration": 0.30948268124999956
        },
        {
          "name": "F4",
          "midi": 65,
          "time": 31.44826799999993,
          "velocity": 0.6299212598425197,
          "duration": 0.30948268124999956
        },
        {
          "name": "A4",
          "midi": 69,
          "time": 31.75861274999993,
          "velocity": 0.6299212598425197,
          "duration": 0.30948268124999956
        },
        {
          "name": "A4",
          "midi": 69,
          "time": 32.06895749999993,
          "velocity": 0.6299212598425197,
          "duration": 0.20603443125000354
        },
        {
          "name": "A4",
          "midi": 69,
          "time": 32.27585399999994,
          "velocity": 0.6299212598425197,
          "duration": 0.20603443125000354
        },
        {
          "name": "A4",
          "midi": 69,
          "time": 32.482750499999945,
          "velocity": 0.6299212598425197,
          "duration": 0.20603443125000354
        },
        {
          "name": "A4",
          "midi": 69,
          "time": 32.68964699999995,
          "velocity": 0.6299212598425197,
          "duration": 0.4129309312500027
        },
        {
          "name": "C4",
          "midi": 60,
          "time": 33.10343999999996,
          "velocity": 0.6299212598425197,
          "duration": 0.4129309312500027
        },
        {
          "name": "E4",
          "midi": 64,
          "time": 33.10343999999996,
          "velocity": 0.6299212598425197,
          "duration": 0.4129309312500027
        },
        {
          "name": "F4",
          "midi": 65,
          "time": 33.10343999999996,
          "velocity": 0.6299212598425197,
          "duration": 0.4129309312500027
        },
        {
          "name": "C4",
          "midi": 60,
          "time": 33.51723299999996,
          "velocity": 0.6299212598425197,
          "duration": 0.20603443125000354
        },
        {
          "name": "E4",
          "midi": 64,
          "time": 33.72412949999997,
          "velocity": 0.6299212598425197,
          "duration": 0.20603443125000354
        },
        {
          "name": "F4",
          "midi": 65,
          "time": 33.931025999999974,
          "velocity": 0.6299212598425197,
          "duration": 0.4129309312500027
        },
        {
          "name": "C4",
          "midi": 60,
          "time": 34.34481899999998,
          "velocity": 0.6299212598425197,
          "duration": 0.4129309312500027
        },
        {
          "name": "C4",
          "midi": 60,
          "time": 34.758611999999985,
          "velocity": 0.6299212598425197,
          "duration": 0.3094826812500031
        },
        {
          "name": "E4",
          "midi": 64,
          "time": 34.758611999999985,
          "velocity": 0.6299212598425197,
          "duration": 0.3094826812500031
        },
        {
          "name": "F4",
          "midi": 65,
          "time": 34.758611999999985,
          "velocity": 0.6299212598425197,
          "duration": 0.3094826812500031
        },
        {
          "name": "A4",
          "midi": 69,
          "time": 35.06895674999999,
          "velocity": 0.6299212598425197,
          "duration": 0.3094826812500031
        },
        {
          "name": "A4",
          "midi": 69,
          "time": 35.3793015,
          "velocity": 0.6299212598425197,
          "duration": 0.20603443125000354
        },
        {
          "name": "A4",
          "midi": 69,
          "time": 35.586198,
          "velocity": 0.6299212598425197,
          "duration": 0.20603443125000354
        },
        {
          "name": "A4",
          "midi": 69,
          "time": 35.79309450000001,
          "velocity": 0.6299212598425197,
          "duration": 0.20603443125000354
        },
        {
          "name": "A4",
          "midi": 69,
          "time": 35.999991000000016,
          "velocity": 0.6299212598425197,
          "duration": 0.4129309312500027
        },
        {
          "name": "C4",
          "midi": 60,
          "time": 36.41378400000002,
          "velocity": 0.6299212598425197,
          "duration": 0.4129309312500027
        },
        {
          "name": "E4",
          "midi": 64,
          "time": 36.41378400000002,
          "velocity": 0.6299212598425197,
          "duration": 0.4129309312500027
        },
        {
          "name": "F4",
          "midi": 65,
          "time": 36.41378400000002,
          "velocity": 0.6299212598425197,
          "duration": 0.4129309312500027
        },
        {
          "name": "C4",
          "midi": 60,
          "time": 36.827577000000026,
          "velocity": 0.6299212598425197,
          "duration": 0.20603443125000354
        },
        {
          "name": "E4",
          "midi": 64,
          "time": 37.03447350000003,
          "velocity": 0.6299212598425197,
          "duration": 0.20603443125000354
        },
        {
          "name": "F4",
          "midi": 65,
          "time": 37.24137000000004,
          "velocity": 0.6299212598425197,
          "duration": 0.4129309312500027
        },
        {
          "name": "C4",
          "midi": 60,
          "time": 37.655163000000044,
          "velocity": 0.6299212598425197,
          "duration": 0.4129309312500027
        },
        {
          "name": "C4",
          "midi": 60,
          "time": 38.06895600000005,
          "velocity": 0.6299212598425197,
          "duration": 0.3094826812500031
        },
        {
          "name": "E4",
          "midi": 64,
          "time": 38.06895600000005,
          "velocity": 0.6299212598425197,
          "duration": 0.3094826812500031
        },
        {
          "name": "F4",
          "midi": 65,
          "time": 38.06895600000005,
          "velocity": 0.6299212598425197,
          "duration": 0.3094826812500031
        },
        {
          "name": "A4",
          "midi": 69,
          "time": 38.379300750000056,
          "velocity": 0.6299212598425197,
          "duration": 0.3094826812500031
        },
        {
          "name": "A4",
          "midi": 69,
          "time": 38.68964550000006,
          "velocity": 0.6299212598425197,
          "duration": 0.20603443125000354
        },
        {
          "name": "A4",
          "midi": 69,
          "time": 38.89654200000007,
          "velocity": 0.6299212598425197,
          "duration": 0.20603443125000354
        },
        {
          "name": "A4",
          "midi": 69,
          "time": 39.103438500000074,
          "velocity": 0.6299212598425197,
          "duration": 0.20603443125000354
        },
        {
          "name": "A4",
          "midi": 69,
          "time": 39.31033500000008,
          "velocity": 0.6299212598425197,
          "duration": 0.4129309312500027
        },
        {
          "name": "C4",
          "midi": 60,
          "time": 39.724128000000086,
          "velocity": 0.6299212598425197,
          "duration": 0.4129309312500027
        },
        {
          "name": "E4",
          "midi": 64,
          "time": 39.724128000000086,
          "velocity": 0.6299212598425197,
          "duration": 0.4129309312500027
        },
        {
          "name": "F4",
          "midi": 65,
          "time": 39.724128000000086,
          "velocity": 0.6299212598425197,
          "duration": 0.4129309312500027
        },
        {
          "name": "C4",
          "midi": 60,
          "time": 40.13792100000009,
          "velocity": 0.6299212598425197,
          "duration": 0.20603443125000354
        },
        {
          "name": "E4",
          "midi": 64,
          "time": 40.3448175000001,
          "velocity": 0.6299212598425197,
          "duration": 0.20603443125000354
        },
        {
          "name": "F4",
          "midi": 65,
          "time": 40.5517140000001,
          "velocity": 0.6299212598425197,
          "duration": 0.4129309312500027
        },
        {
          "name": "C4",
          "midi": 60,
          "time": 40.96550700000011,
          "velocity": 0.6299212598425197,
          "duration": 0.4129309312500027
        },
        {
          "name": "C4",
          "midi": 60,
          "time": 41.379300000000114,
          "velocity": 0.6299212598425197,
          "duration": 0.3094826812500031
        },
        {
          "name": "E4",
          "midi": 64,
          "time": 41.379300000000114,
          "velocity": 0.6299212598425197,
          "duration": 0.3094826812500031
        },
        {
          "name": "F4",
          "midi": 65,
          "time": 41.379300000000114,
          "velocity": 0.6299212598425197,
          "duration": 0.3094826812500031
        },
        {
          "name": "A4",
          "midi": 69,
          "time": 41.68964475000012,
          "velocity": 0.6299212598425197,
          "duration": 0.3094826812500031
        },
        {
          "name": "A4",
          "midi": 69,
          "time": 41.999989500000126,
          "velocity": 0.6299212598425197,
          "duration": 0.20603443125000354
        },
        {
          "name": "A4",
          "midi": 69,
          "time": 42.20688600000013,
          "velocity": 0.6299212598425197,
          "duration": 0.20603443125000354
        },
        {
          "name": "A4",
          "midi": 69,
          "time": 42.41378250000014,
          "velocity": 0.6299212598425197,
          "duration": 0.20603443125000354
        },
        {
          "name": "A4",
          "midi": 69,
          "time": 42.620679000000145,
          "velocity": 0.6299212598425197,
          "duration": 0.4129309312500027
        },
        {
          "name": "F4",
          "midi": 65,
          "time": 43.03447200000015,
          "velocity": 0.6299212598425197,
          "duration": 0.826723931250001
        },
        {
          "name": "A4",
          "midi": 69,
          "time": 43.03447200000015,
          "velocity": 0.6299212598425197,
          "duration": 0.826723931250001
        },
        {
          "name": "E4",
          "midi": 64,
          "time": 43.862058000000154,
          "velocity": 0.6299212598425197,
          "duration": 0.826723931250001
        },
        {
          "name": "F4",
          "midi": 65,
          "time": 43.862058000000154,
          "velocity": 0.6299212598425197,
          "duration": 0.826723931250001
        },
        {
          "name": "C4",
          "midi": 60,
          "time": 44.68964400000016,
          "velocity": 0.6299212598425197,
          "duration": 0.3094826812500031
        },
        {
          "name": "E4",
          "midi": 64,
          "time": 44.68964400000016,
          "velocity": 0.6299212598425197,
          "duration": 0.3094826812500031
        },
        {
          "name": "F4",
          "midi": 65,
          "time": 44.68964400000016,
          "velocity": 0.6299212598425197,
          "duration": 0.3094826812500031
        },
        {
          "name": "A4",
          "midi": 69,
          "time": 44.99998875000016,
          "velocity": 0.6299212598425197,
          "duration": 0.3094826812500031
        },
        {
          "name": "A4",
          "midi": 69,
          "time": 45.31033350000017,
          "velocity": 0.6299212598425197,
          "duration": 0.20603443125000354
        },
        {
          "name": "A4",
          "midi": 69,
          "time": 45.517230000000175,
          "velocity": 0.6299212598425197,
          "duration": 0.20603443125000354
        },
        {
          "name": "A4",
          "midi": 69,
          "time": 45.72412650000018,
          "velocity": 0.6299212598425197,
          "duration": 0.20603443125000354
        },
        {
          "name": "A4",
          "midi": 69,
          "time": 45.93102300000019,
          "velocity": 0.6299212598425197,
          "duration": 0.4129309312500027
        },
        {
          "name": "C4",
          "midi": 60,
          "time": 46.34481600000019,
          "velocity": 0.6299212598425197,
          "duration": 0.4129309312500027
        },
        {
          "name": "E4",
          "midi": 64,
          "time": 46.34481600000019,
          "velocity": 0.6299212598425197,
          "duration": 0.4129309312500027
        },
        {
          "name": "F4",
          "midi": 65,
          "time": 46.34481600000019,
          "velocity": 0.6299212598425197,
          "duration": 0.4129309312500027
        },
        {
          "name": "C4",
          "midi": 60,
          "time": 46.7586090000002,
          "velocity": 0.6299212598425197,
          "duration": 0.20603443125000354
        },
        {
          "name": "E4",
          "midi": 64,
          "time": 46.965505500000205,
          "velocity": 0.6299212598425197,
          "duration": 0.20603443125000354
        },
        {
          "name": "F4",
          "midi": 65,
          "time": 47.17240200000021,
          "velocity": 0.6299212598425197,
          "duration": 0.4129309312500027
        },
        {
          "name": "C4",
          "midi": 60,
          "time": 47.58619500000022,
          "velocity": 0.6299212598425197,
          "duration": 0.4129309312500027
        },
        {
          "name": "C4",
          "midi": 60,
          "time": 47.99998800000022,
          "velocity": 0.6299212598425197,
          "duration": 0.3094826812500031
        },
        {
          "name": "E4",
          "midi": 64,
          "time": 47.99998800000022,
          "velocity": 0.6299212598425197,
          "duration": 0.3094826812500031
        },
        {
          "name": "F4",
          "midi": 65,
          "time": 47.99998800000022,
          "velocity": 0.6299212598425197,
          "duration": 0.3094826812500031
        },
        {
          "name": "A4",
          "midi": 69,
          "time": 48.31033275000023,
          "velocity": 0.6299212598425197,
          "duration": 0.3094826812500031
        },
        {
          "name": "A4",
          "midi": 69,
          "time": 48.620677500000234,
          "velocity": 0.6299212598425197,
          "duration": 0.20603443125000354
        },
        {
          "name": "A4",
          "midi": 69,
          "time": 48.82757400000024,
          "velocity": 0.6299212598425197,
          "duration": 0.20603443125000354
        },
        {
          "name": "A4",
          "midi": 69,
          "time": 49.034470500000246,
          "velocity": 0.6299212598425197,
          "duration": 0.20603443125000354
        },
        {
          "name": "A4",
          "midi": 69,
          "time": 49.24136700000025,
          "velocity": 0.6299212598425197,
          "duration": 0.4129309312500027
        },
        {
          "name": "C4",
          "midi": 60,
          "time": 49.65516000000026,
          "velocity": 0.6299212598425197,
          "duration": 0.4129309312500027
        },
        {
          "name": "E4",
          "midi": 64,
          "time": 49.65516000000026,
          "velocity": 0.6299212598425197,
          "duration": 0.4129309312500027
        },
        {
          "name": "F4",
          "midi": 65,
          "time": 49.65516000000026,
          "velocity": 0.6299212598425197,
          "duration": 0.4129309312500027
        },
        {
          "name": "C4",
          "midi": 60,
          "time": 50.06895300000026,
          "velocity": 0.6299212598425197,
          "duration": 0.20603443125000354
        },
        {
          "name": "E4",
          "midi": 64,
          "time": 50.27584950000027,
          "velocity": 0.6299212598425197,
          "duration": 0.20603443125000354
        },
        {
          "name": "F4",
          "midi": 65,
          "time": 50.482746000000276,
          "velocity": 0.6299212598425197,
          "duration": 0.4129309312500027
        },
        {
          "name": "C4",
          "midi": 60,
          "time": 50.89653900000028,
          "velocity": 0.6299212598425197,
          "duration": 0.4129309312500027
        },
        {
          "name": "C4",
          "midi": 60,
          "time": 51.31033200000029,
          "velocity": 0.6299212598425197,
          "duration": 0.3094826812500031
        },
        {
          "name": "E4",
          "midi": 64,
          "time": 51.31033200000029,
          "velocity": 0.6299212598425197,
          "duration": 0.3094826812500031
        },
        {
          "name": "F4",
          "midi": 65,
          "time": 51.31033200000029,
          "velocity": 0.6299212598425197,
          "duration": 0.3094826812500031
        },
        {
          "name": "A4",
          "midi": 69,
          "time": 51.62067675000029,
          "velocity": 0.6299212598425197,
          "duration": 0.3094826812500031
        },
        {
          "name": "A4",
          "midi": 69,
          "time": 51.9310215000003,
          "velocity": 0.6299212598425197,
          "duration": 0.20603443125000354
        },
        {
          "name": "A4",
          "midi": 69,
          "time": 52.137918000000305,
          "velocity": 0.6299212598425197,
          "duration": 0.20603443125000354
        },
        {
          "name": "A4",
          "midi": 69,
          "time": 52.34481450000031,
          "velocity": 0.6299212598425197,
          "duration": 0.20603443125000354
        },
        {
          "name": "A4",
          "midi": 69,
          "time": 52.55171100000032,
          "velocity": 0.6299212598425197,
          "duration": 0.4129309312500027
        },
        {
          "name": "C4",
          "midi": 60,
          "time": 52.96550400000032,
          "velocity": 0.6299212598425197,
          "duration": 0.4129309312500027
        },
        {
          "name": "E4",
          "midi": 64,
          "time": 52.96550400000032,
          "velocity": 0.6299212598425197,
          "duration": 0.4129309312500027
        },
        {
          "name": "F4",
          "midi": 65,
          "time": 52.96550400000032,
          "velocity": 0.6299212598425197,
          "duration": 0.4129309312500027
        },
        {
          "name": "C4",
          "midi": 60,
          "time": 53.37929700000033,
          "velocity": 0.6299212598425197,
          "duration": 0.20603443125000354
        },
        {
          "name": "E4",
          "midi": 64,
          "time": 53.586193500000334,
          "velocity": 0.6299212598425197,
          "duration": 0.20603443125000354
        },
        {
          "name": "F4",
          "midi": 65,
          "time": 53.79309000000034,
          "velocity": 0.6299212598425197,
          "duration": 0.4129309312500027
        },
        {
          "name": "C4",
          "midi": 60,
          "time": 54.206883000000346,
          "velocity": 0.6299212598425197,
          "duration": 0.4129309312500027
        },
        {
          "name": "A4",
          "midi": 69,
          "time": 54.62067600000035,
          "velocity": 0.6299212598425197,
          "duration": 0.20603443125000354
        },
        {
          "name": "A4",
          "midi": 69,
          "time": 54.82757250000036,
          "velocity": 0.6299212598425197,
          "duration": 0.10258618124999686
        },
        {
          "name": "F4",
          "midi": 65,
          "time": 54.93102075000036,
          "velocity": 0.6299212598425197,
          "duration": 0.10258618124999686
        },
        {
          "name": "A4",
          "midi": 69,
          "time": 55.03446900000036,
          "velocity": 0.6299212598425197,
          "duration": 0.20603443125000354
        },
        {
          "name": "A4",
          "midi": 69,
          "time": 55.24136550000036,
          "velocity": 0.6299212598425197,
          "duration": 0.20603443125000354
        },
        {
          "name": "A4",
          "midi": 69,
          "time": 55.44826200000037,
          "velocity": 0.6299212598425197,
          "duration": 0.20603443125000354
        },
        {
          "name": "A4",
          "midi": 69,
          "time": 55.655158500000375,
          "velocity": 0.6299212598425197,
          "duration": 0.20603443125000354
        },
        {
          "name": "A4",
          "midi": 69,
          "time": 55.86205500000038,
          "velocity": 0.6299212598425197,
          "duration": 0.20603443125000354
        },
        {
          "name": "F4",
          "midi": 65,
          "time": 56.06895150000039,
          "velocity": 0.6299212598425197,
          "duration": 0.20603443125000354
        },
        {
          "name": "F4",
          "midi": 65,
          "time": 56.275848000000394,
          "velocity": 0.6299212598425197,
          "duration": 0.10258618124999686
        },
        {
          "name": "E4",
          "midi": 64,
          "time": 56.379296250000394,
          "velocity": 0.6299212598425197,
          "duration": 0.10258618124999686
        },
        {
          "name": "F4",
          "midi": 65,
          "time": 56.48274450000039,
          "velocity": 0.6299212598425197,
          "duration": 0.10258618124999686
        },
        {
          "name": "E4",
          "midi": 64,
          "time": 56.58619275000039,
          "velocity": 0.6299212598425197,
          "duration": 0.10258618124999686
        },
        {
          "name": "F4",
          "midi": 65,
          "time": 56.68964100000039,
          "velocity": 0.6299212598425197,
          "duration": 0.20603443125000354
        },
        {
          "name": "E4",
          "midi": 64,
          "time": 56.8965375000004,
          "velocity": 0.6299212598425197,
          "duration": 0.20603443125000354
        },
        {
          "name": "C4",
          "midi": 60,
          "time": 57.103434000000405,
          "velocity": 0.6299212598425197,
          "duration": 0.4129309312500027
        },
        {
          "name": "C4",
          "midi": 60,
          "time": 57.51722700000041,
          "velocity": 0.6299212598425197,
          "duration": 0.4129309312500027
        },
        {
          "name": "E4",
          "midi": 64,
          "time": 57.51722700000041,
          "velocity": 0.6299212598425197,
          "duration": 0.4129309312500027
        },
        {
          "name": "F4",
          "midi": 65,
          "time": 57.51722700000041,
          "velocity": 0.6299212598425197,
          "duration": 0.4129309312500027
        },
        {
          "name": "A4",
          "midi": 69,
          "time": 57.51722700000041,
          "velocity": 0.6299212598425197,
          "duration": 0.4129309312500027
        },
        {
          "name": "C4",
          "midi": 60,
          "time": 57.931020000000416,
          "velocity": 0.6299212598425197,
          "duration": 0.4129309312500027
        },
        {
          "name": "E4",
          "midi": 64,
          "time": 57.931020000000416,
          "velocity": 0.6299212598425197,
          "duration": 0.4129309312500027
        },
        {
          "name": "F4",
          "midi": 65,
          "time": 57.931020000000416,
          "velocity": 0.6299212598425197,
          "duration": 0.4129309312500027
        },
        {
          "name": "A4",
          "midi": 69,
          "time": 58.34481300000042,
          "velocity": 0.6299212598425197,
          "duration": 0.20603443125000354
        },
        {
          "name": "F4",
          "midi": 65,
          "time": 58.55170950000043,
          "velocity": 0.6299212598425197,
          "duration": 0.20603443125000354
        },
        {
          "name": "E4",
          "midi": 64,
          "time": 58.758606000000434,
          "velocity": 0.6299212598425197,
          "duration": 0.4129309312500027
        },
        {
          "name": "C4",
          "midi": 60,
          "time": 59.17239900000044,
          "velocity": 0.6299212598425197,
          "duration": 0.4129309312500027
        },
        {
          "name": "C4",
          "midi": 60,
          "time": 59.99998500000044,
          "velocity": 0.6299212598425197,
          "duration": 0.20603443125000354
        },
        {
          "name": "E4",
          "midi": 64,
          "time": 60.20688150000045,
          "velocity": 0.6299212598425197,
          "duration": 0.20603443125000354
        },
        {
          "name": "F4",
          "midi": 65,
          "time": 60.413778000000455,
          "velocity": 0.6299212598425197,
          "duration": 0.4129309312500027
        },
        {
          "name": "C4",
          "midi": 60,
          "time": 60.82757100000046,
          "velocity": 0.6299212598425197,
          "duration": 0.4129309312500027
        },
        {
          "name": "C4",
          "midi": 60,
          "time": 61.241364000000466,
          "velocity": 0.6299212598425197,
          "duration": 0.4129309312500027
        },
        {
          "name": "E4",
          "midi": 64,
          "time": 61.241364000000466,
          "velocity": 0.6299212598425197,
          "duration": 0.4129309312500027
        },
        {
          "name": "F4",
          "midi": 65,
          "time": 61.241364000000466,
          "velocity": 0.6299212598425197,
          "duration": 0.4129309312500027
        },
        {
          "name": "A4",
          "midi": 69,
          "time": 61.65515700000047,
          "velocity": 0.6299212598425197,
          "duration": 0.20603443125000354
        },
        {
          "name": "F4",
          "midi": 65,
          "time": 61.86205350000048,
          "velocity": 0.6299212598425197,
          "duration": 0.20603443125000354
        },
        {
          "name": "E4",
          "midi": 64,
          "time": 62.068950000000484,
          "velocity": 0.6299212598425197,
          "duration": 0.4129309312500027
        },
        {
          "name": "C4",
          "midi": 60,
          "time": 62.48274300000049,
          "velocity": 0.6299212598425197,
          "duration": 0.4129309312500027
        },
        {
          "name": "C4",
          "midi": 60,
          "time": 63.31032900000049,
          "velocity": 0.6299212598425197,
          "duration": 0.20603443125000354
        },
        {
          "name": "E4",
          "midi": 64,
          "time": 63.5172255000005,
          "velocity": 0.6299212598425197,
          "duration": 0.20603443125000354
        },
        {
          "name": "F4",
          "midi": 65,
          "time": 63.724122000000506,
          "velocity": 0.6299212598425197,
          "duration": 0.4129309312500027
        },
        {
          "name": "C4",
          "midi": 60,
          "time": 64.1379150000005,
          "velocity": 0.6299212598425197,
          "duration": 0.4129309312500027
        },
        {
          "name": "C4",
          "midi": 60,
          "time": 64.5517080000005,
          "velocity": 0.6299212598425197,
          "duration": 0.4129309312500027
        },
        {
          "name": "E4",
          "midi": 64,
          "time": 64.5517080000005,
          "velocity": 0.6299212598425197,
          "duration": 0.4129309312500027
        },
        {
          "name": "F4",
          "midi": 65,
          "time": 64.5517080000005,
          "velocity": 0.6299212598425197,
          "duration": 0.4129309312500027
        },
        {
          "name": "A4",
          "midi": 69,
          "time": 64.9655010000005,
          "velocity": 0.6299212598425197,
          "duration": 0.20603443125000354
        },
        {
          "name": "F4",
          "midi": 65,
          "time": 65.1723975000005,
          "velocity": 0.6299212598425197,
          "duration": 0.20603443125000354
        },
        {
          "name": "E4",
          "midi": 64,
          "time": 65.3792940000005,
          "velocity": 0.6299212598425197,
          "duration": 0.4129309312500027
        },
        {
          "name": "C4",
          "midi": 60,
          "time": 65.7930870000005,
          "velocity": 0.6299212598425197,
          "duration": 0.4129309312500027
        },
        {
          "name": "C4",
          "midi": 60,
          "time": 66.6206730000005,
          "velocity": 0.6299212598425197,
          "duration": 0.20603443125000354
        },
        {
          "name": "E4",
          "midi": 64,
          "time": 66.8275695000005,
          "velocity": 0.6299212598425197,
          "duration": 0.20603443125000354
        },
        {
          "name": "F4",
          "midi": 65,
          "time": 67.03446600000049,
          "velocity": 0.6299212598425197,
          "duration": 0.4129309312500027
        },
        {
          "name": "C4",
          "midi": 60,
          "time": 67.44825900000049,
          "velocity": 0.6299212598425197,
          "duration": 0.4129309312500027
        },
        {
          "name": "C4",
          "midi": 60,
          "time": 67.86205200000049,
          "velocity": 0.6299212598425197,
          "duration": 1.6543099312499976
        },
        {
          "name": "E4",
          "midi": 64,
          "time": 67.86205200000049,
          "velocity": 0.6299212598425197,
          "duration": 1.6543099312499976
        },
        {
          "name": "F4",
          "midi": 65,
          "time": 67.86205200000049,
          "velocity": 0.6299212598425197,
          "duration": 1.6543099312499976
        },
        {
          "name": "E4",
          "midi": 64,
          "time": 69.51722400000048,
          "velocity": 0.6299212598425197,
          "duration": 0.826723931250001
        },
        {
          "name": "F4",
          "midi": 65,
          "time": 69.51722400000048,
          "velocity": 0.6299212598425197,
          "duration": 0.826723931250001
        },
        {
          "name": "A4",
          "midi": 69,
          "time": 69.51722400000048,
          "velocity": 0.6299212598425197,
          "duration": 0.826723931250001
        },
        {
          "name": "C4",
          "midi": 60,
          "time": 70.34481000000048,
          "velocity": 0.6299212598425197,
          "duration": 0.826723931250001
        },
        {
          "name": "E4",
          "midi": 64,
          "time": 70.34481000000048,
          "velocity": 0.6299212598425197,
          "duration": 0.826723931250001
        },
        {
          "name": "F4",
          "midi": 65,
          "time": 70.34481000000048,
          "velocity": 0.6299212598425197,
          "duration": 0.826723931250001
        },
        {
          "name": "C4",
          "midi": 60,
          "time": 71.17239600000048,
          "velocity": 0.6299212598425197,
          "duration": 0.4129309312500027
        },
        {
          "name": "E4",
          "midi": 64,
          "time": 71.17239600000048,
          "velocity": 0.6299212598425197,
          "duration": 0.4129309312500027
        },
        {
          "name": "F4",
          "midi": 65,
          "time": 71.17239600000048,
          "velocity": 0.6299212598425197,
          "duration": 0.4129309312500027
        },
        {
          "name": "A4",
          "midi": 69,
          "time": 71.58618900000047,
          "velocity": 0.6299212598425197,
          "duration": 0.20603443125000354
        },
        {
          "name": "F4",
          "midi": 65,
          "time": 71.79308550000047,
          "velocity": 0.6299212598425197,
          "duration": 0.20603443125000354
        },
        {
          "name": "E4",
          "midi": 64,
          "time": 71.99998200000047,
          "velocity": 0.6299212598425197,
          "duration": 0.4129309312500027
        },
        {
          "name": "C4",
          "midi": 60,
          "time": 72.41377500000047,
          "velocity": 0.6299212598425197,
          "duration": 0.4129309312500027
        },
        {
          "name": "C4",
          "midi": 60,
          "time": 73.24136100000047,
          "velocity": 0.6299212598425197,
          "duration": 0.20603443125000354
        },
        {
          "name": "E4",
          "midi": 64,
          "time": 73.44825750000047,
          "velocity": 0.6299212598425197,
          "duration": 0.20603443125000354
        },
        {
          "name": "F4",
          "midi": 65,
          "time": 73.65515400000046,
          "velocity": 0.6299212598425197,
          "duration": 0.4129309312500027
        },
        {
          "name": "C4",
          "midi": 60,
          "time": 74.06894700000046,
          "velocity": 0.6299212598425197,
          "duration": 0.4129309312500027
        },
        {
          "name": "C4",
          "midi": 60,
          "time": 74.48274000000046,
          "velocity": 0.6299212598425197,
          "duration": 0.4129309312500027
        },
        {
          "name": "E4",
          "midi": 64,
          "time": 74.48274000000046,
          "velocity": 0.6299212598425197,
          "duration": 0.4129309312500027
        },
        {
          "name": "F4",
          "midi": 65,
          "time": 74.48274000000046,
          "velocity": 0.6299212598425197,
          "duration": 0.4129309312500027
        },
        {
          "name": "A4",
          "midi": 69,
          "time": 74.89653300000046,
          "velocity": 0.6299212598425197,
          "duration": 0.20603443125000354
        },
        {
          "name": "F4",
          "midi": 65,
          "time": 75.10342950000046,
          "velocity": 0.6299212598425197,
          "duration": 0.20603443125000354
        },
        {
          "name": "E4",
          "midi": 64,
          "time": 75.31032600000046,
          "velocity": 0.6299212598425197,
          "duration": 0.4129309312500027
        },
        {
          "name": "C4",
          "midi": 60,
          "time": 75.72411900000046,
          "velocity": 0.6299212598425197,
          "duration": 0.4129309312500027
        },
        {
          "name": "C4",
          "midi": 60,
          "time": 76.55170500000045,
          "velocity": 0.6299212598425197,
          "duration": 0.20603443125000354
        },
        {
          "name": "E4",
          "midi": 64,
          "time": 76.75860150000045,
          "velocity": 0.6299212598425197,
          "duration": 0.20603443125000354
        },
        {
          "name": "F4",
          "midi": 65,
          "time": 76.96549800000045,
          "velocity": 0.6299212598425197,
          "duration": 0.4129309312500027
        },
        {
          "name": "C4",
          "midi": 60,
          "time": 77.37929100000045,
          "velocity": 0.6299212598425197,
          "duration": 0.4129309312500027
        },
        {
          "name": "C4",
          "midi": 60,
          "time": 77.79308400000045,
          "velocity": 0.6299212598425197,
          "duration": 0.4129309312500027
        },
        {
          "name": "E4",
          "midi": 64,
          "time": 77.79308400000045,
          "velocity": 0.6299212598425197,
          "duration": 0.4129309312500027
        },
        {
          "name": "F4",
          "midi": 65,
          "time": 77.79308400000045,
          "velocity": 0.6299212598425197,
          "duration": 0.4129309312500027
        },
        {
          "name": "A4",
          "midi": 69,
          "time": 78.20687700000045,
          "velocity": 0.6299212598425197,
          "duration": 0.20603443125000354
        },
        {
          "name": "F4",
          "midi": 65,
          "time": 78.41377350000045,
          "velocity": 0.6299212598425197,
          "duration": 0.20603443125000354
        },
        {
          "name": "E4",
          "midi": 64,
          "time": 78.62067000000044,
          "velocity": 0.6299212598425197,
          "duration": 0.4129309312500027
        },
        {
          "name": "C4",
          "midi": 60,
          "time": 79.03446300000044,
          "velocity": 0.6299212598425197,
          "duration": 0.4129309312500027
        },
        {
          "name": "C4",
          "midi": 60,
          "time": 79.86204900000044,
          "velocity": 0.6299212598425197,
          "duration": 0.20603443125000354
        },
        {
          "name": "E4",
          "midi": 64,
          "time": 80.06894550000044,
          "velocity": 0.6299212598425197,
          "duration": 0.20603443125000354
        },
        {
          "name": "F4",
          "midi": 65,
          "time": 80.27584200000044,
          "velocity": 0.6299212598425197,
          "duration": 0.4129309312500027
        },
        {
          "name": "C4",
          "midi": 60,
          "time": 80.68963500000044,
          "velocity": 0.6299212598425197,
          "duration": 0.4129309312500027
        },
        {
          "name": "A4",
          "midi": 69,
          "time": 81.10342800000043,
          "velocity": 0.6299212598425197,
          "duration": 0.20603443125000354
        },
        {
          "name": "A4",
          "midi": 69,
          "time": 81.31032450000043,
          "velocity": 0.6299212598425197,
          "duration": 0.10258618125000396
        },
        {
          "name": "F4",
          "midi": 65,
          "time": 81.41377275000043,
          "velocity": 0.6299212598425197,
          "duration": 0.10258618125000396
        },
        {
          "name": "A4",
          "midi": 69,
          "time": 81.51722100000043,
          "velocity": 0.6299212598425197,
          "duration": 0.20603443125000354
        },
        {
          "name": "A4",
          "midi": 69,
          "time": 81.72411750000043,
          "velocity": 0.6299212598425197,
          "duration": 0.20603443125000354
        },
        {
          "name": "A4",
          "midi": 69,
          "time": 81.93101400000043,
          "velocity": 0.6299212598425197,
          "duration": 0.20603443125000354
        },
        {
          "name": "A4",
          "midi": 69,
          "time": 82.13791050000043,
          "velocity": 0.6299212598425197,
          "duration": 0.20603443125000354
        },
        {
          "name": "A4",
          "midi": 69,
          "time": 82.34480700000043,
          "velocity": 0.6299212598425197,
          "duration": 0.20603443125000354
        },
        {
          "name": "F4",
          "midi": 65,
          "time": 82.55170350000043,
          "velocity": 0.6299212598425197,
          "duration": 0.20603443125000354
        },
        {
          "name": "F4",
          "midi": 65,
          "time": 82.75860000000043,
          "velocity": 0.6299212598425197,
          "duration": 0.10258618125000396
        },
        {
          "name": "E4",
          "midi": 64,
          "time": 82.86204825000043,
          "velocity": 0.6299212598425197,
          "duration": 0.10258618125000396
        },
        {
          "name": "F4",
          "midi": 65,
          "time": 82.96549650000043,
          "velocity": 0.6299212598425197,
          "duration": 0.10258618125000396
        },
        {
          "name": "E4",
          "midi": 64,
          "time": 83.06894475000043,
          "velocity": 0.6299212598425197,
          "duration": 0.10258618125000396
        },
        {
          "name": "F4",
          "midi": 65,
          "time": 83.17239300000043,
          "velocity": 0.6299212598425197,
          "duration": 0.20603443125000354
        },
        {
          "name": "E4",
          "midi": 64,
          "time": 83.37928950000043,
          "velocity": 0.6299212598425197,
          "duration": 0.20603443125000354
        },
        {
          "name": "C4",
          "midi": 60,
          "time": 83.58618600000042,
          "velocity": 0.6299212598425197,
          "duration": 0.20603443125000354
        },
        {
          "name": "C4",
          "midi": 60,
          "time": 83.79308250000042,
          "velocity": 0.6299212598425197,
          "duration": 0.20603443125000354
        },
        {
          "name": "E4",
          "midi": 64,
          "time": 83.79308250000042,
          "velocity": 0.6299212598425197,
          "duration": 0.20603443125000354
        },
        {
          "name": "C4",
          "midi": 60,
          "time": 83.99997900000042,
          "velocity": 0.6299212598425197,
          "duration": 0.20603443125000354
        },
        {
          "name": "E4",
          "midi": 64,
          "time": 83.99997900000042,
          "velocity": 0.6299212598425197,
          "duration": 0.20603443125000354
        },
        {
          "name": "C4",
          "midi": 60,
          "time": 84.20687550000042,
          "velocity": 0.6299212598425197,
          "duration": 0.20603443125000354
        },
        {
          "name": "E4",
          "midi": 64,
          "time": 84.20687550000042,
          "velocity": 0.6299212598425197,
          "duration": 0.20603443125000354
        },
        {
          "name": "C4",
          "midi": 60,
          "time": 84.41377200000042,
          "velocity": 0.6299212598425197,
          "duration": 0.20603443125000354
        },
        {
          "name": "F4",
          "midi": 65,
          "time": 84.41377200000042,
          "velocity": 0.6299212598425197,
          "duration": 0.20603443125000354
        },
        {
          "name": "C4",
          "midi": 60,
          "time": 84.62066850000042,
          "velocity": 0.6299212598425197,
          "duration": 0.20603443125000354
        },
        {
          "name": "F4",
          "midi": 65,
          "time": 84.62066850000042,
          "velocity": 0.6299212598425197,
          "duration": 0.20603443125000354
        },
        {
          "name": "C4",
          "midi": 60,
          "time": 84.82756500000042,
          "velocity": 0.6299212598425197,
          "duration": 0.20603443125000354
        },
        {
          "name": "F4",
          "midi": 65,
          "time": 84.82756500000042,
          "velocity": 0.6299212598425197,
          "duration": 0.20603443125000354
        },
        {
          "name": "C4",
          "midi": 60,
          "time": 85.03446150000042,
          "velocity": 0.6299212598425197,
          "duration": 0.20603443125000354
        },
        {
          "name": "F4",
          "midi": 65,
          "time": 85.03446150000042,
          "velocity": 0.6299212598425197,
          "duration": 0.20603443125000354
        },
        {
          "name": "C4",
          "midi": 60,
          "time": 85.24135800000042,
          "velocity": 0.6299212598425197,
          "duration": 0.20603443125000354
        },
        {
          "name": "F4",
          "midi": 65,
          "time": 85.24135800000042,
          "velocity": 0.6299212598425197,
          "duration": 0.20603443125000354
        },
        {
          "name": "C4",
          "midi": 60,
          "time": 85.44825450000042,
          "velocity": 0.6299212598425197,
          "duration": 0.20603443125000354
        },
        {
          "name": "F4",
          "midi": 65,
          "time": 85.44825450000042,
          "velocity": 0.6299212598425197,
          "duration": 0.20603443125000354
        },
        {
          "name": "C4",
          "midi": 60,
          "time": 86.06894400000041,
          "velocity": 0.6299212598425197,
          "duration": 0.20603443125000354
        },
        {
          "name": "F4",
          "midi": 65,
          "time": 86.06894400000041,
          "velocity": 0.6299212598425197,
          "duration": 0.20603443125000354
        },
        {
          "name": "C4",
          "midi": 60,
          "time": 86.27584050000041,
          "velocity": 0.6299212598425197,
          "duration": 0.20603443125000354
        },
        {
          "name": "F4",
          "midi": 65,
          "time": 86.27584050000041,
          "velocity": 0.6299212598425197,
          "duration": 0.20603443125000354
        },
        {
          "name": "C4",
          "midi": 60,
          "time": 86.48273700000041,
          "velocity": 0.6299212598425197,
          "duration": 0.20603443125000354
        },
        {
          "name": "F4",
          "midi": 65,
          "time": 86.48273700000041,
          "velocity": 0.6299212598425197,
          "duration": 0.20603443125000354
        },
        {
          "name": "C4",
          "midi": 60,
          "time": 86.68963350000041,
          "velocity": 0.6299212598425197,
          "duration": 0.20603443125000354
        },
        {
          "name": "F4",
          "midi": 65,
          "time": 86.68963350000041,
          "velocity": 0.6299212598425197,
          "duration": 0.20603443125000354
        },
        {
          "name": "C4",
          "midi": 60,
          "time": 86.89653000000041,
          "velocity": 0.6299212598425197,
          "duration": 0.20603443125000354
        },
        {
          "name": "F4",
          "midi": 65,
          "time": 86.89653000000041,
          "velocity": 0.6299212598425197,
          "duration": 0.20603443125000354
        },
        {
          "name": "C4",
          "midi": 60,
          "time": 87.10342650000041,
          "velocity": 0.6299212598425197,
          "duration": 0.20603443125000354
        },
        {
          "name": "E4",
          "midi": 64,
          "time": 87.10342650000041,
          "velocity": 0.6299212598425197,
          "duration": 0.20603443125000354
        },
        {
          "name": "C4",
          "midi": 60,
          "time": 87.31032300000041,
          "velocity": 0.6299212598425197,
          "duration": 0.20603443125000354
        },
        {
          "name": "E4",
          "midi": 64,
          "time": 87.31032300000041,
          "velocity": 0.6299212598425197,
          "duration": 0.20603443125000354
        },
        {
          "name": "C4",
          "midi": 60,
          "time": 87.51721950000041,
          "velocity": 0.6299212598425197,
          "duration": 0.20603443125000354
        },
        {
          "name": "E4",
          "midi": 64,
          "time": 87.51721950000041,
          "velocity": 0.6299212598425197,
          "duration": 0.20603443125000354
        },
        {
          "name": "C4",
          "midi": 60,
          "time": 87.72411600000041,
          "velocity": 0.6299212598425197,
          "duration": 0.20603443125000354
        },
        {
          "name": "F4",
          "midi": 65,
          "time": 87.72411600000041,
          "velocity": 0.6299212598425197,
          "duration": 0.20603443125000354
        },
        {
          "name": "C4",
          "midi": 60,
          "time": 87.9310125000004,
          "velocity": 0.6299212598425197,
          "duration": 0.20603443125000354
        },
        {
          "name": "F4",
          "midi": 65,
          "time": 87.9310125000004,
          "velocity": 0.6299212598425197,
          "duration": 0.20603443125000354
        },
        {
          "name": "C4",
          "midi": 60,
          "time": 88.1379090000004,
          "velocity": 0.6299212598425197,
          "duration": 0.20603443125000354
        },
        {
          "name": "F4",
          "midi": 65,
          "time": 88.1379090000004,
          "velocity": 0.6299212598425197,
          "duration": 0.20603443125000354
        },
        {
          "name": "C4",
          "midi": 60,
          "time": 88.3448055000004,
          "velocity": 0.6299212598425197,
          "duration": 0.20603443125000354
        },
        {
          "name": "F4",
          "midi": 65,
          "time": 88.3448055000004,
          "velocity": 0.6299212598425197,
          "duration": 0.20603443125000354
        },
        {
          "name": "C4",
          "midi": 60,
          "time": 88.5517020000004,
          "velocity": 0.6299212598425197,
          "duration": 0.20603443125000354
        },
        {
          "name": "F4",
          "midi": 65,
          "time": 88.5517020000004,
          "velocity": 0.6299212598425197,
          "duration": 0.20603443125000354
        },
        {
          "name": "E4",
          "midi": 64,
          "time": 88.7585985000004,
          "velocity": 0.6299212598425197,
          "duration": 0.10258618125000396
        },
        {
          "name": "C4",
          "midi": 60,
          "time": 88.8620467500004,
          "velocity": 0.6299212598425197,
          "duration": 0.10258618125000396
        },
        {
          "name": "E4",
          "midi": 64,
          "time": 88.9654950000004,
          "velocity": 0.6299212598425197,
          "duration": 0.20603443125000354
        },
        {
          "name": "C4",
          "midi": 60,
          "time": 89.1723915000004,
          "velocity": 0.6299212598425197,
          "duration": 0.20603443125000354
        },
        {
          "name": "C4",
          "midi": 60,
          "time": 89.3792880000004,
          "velocity": 0.6299212598425197,
          "duration": 0.20603443125000354
        },
        {
          "name": "F4",
          "midi": 65,
          "time": 89.3792880000004,
          "velocity": 0.6299212598425197,
          "duration": 0.20603443125000354
        },
        {
          "name": "C4",
          "midi": 60,
          "time": 89.5861845000004,
          "velocity": 0.6299212598425197,
          "duration": 0.20603443125000354
        },
        {
          "name": "F4",
          "midi": 65,
          "time": 89.5861845000004,
          "velocity": 0.6299212598425197,
          "duration": 0.20603443125000354
        },
        {
          "name": "C4",
          "midi": 60,
          "time": 89.7930810000004,
          "velocity": 0.6299212598425197,
          "duration": 0.20603443125000354
        },
        {
          "name": "F4",
          "midi": 65,
          "time": 89.7930810000004,
          "velocity": 0.6299212598425197,
          "duration": 0.20603443125000354
        },
        {
          "name": "C4",
          "midi": 60,
          "time": 89.9999775000004,
          "velocity": 0.6299212598425197,
          "duration": 0.20603443125000354
        },
        {
          "name": "A4",
          "midi": 69,
          "time": 89.9999775000004,
          "velocity": 0.6299212598425197,
          "duration": 0.20603443125000354
        },
        {
          "name": "C4",
          "midi": 60,
          "time": 90.2068740000004,
          "velocity": 0.6299212598425197,
          "duration": 0.20603443125000354
        },
        {
          "name": "A4",
          "midi": 69,
          "time": 90.2068740000004,
          "velocity": 0.6299212598425197,
          "duration": 0.20603443125000354
        },
        {
          "name": "C4",
          "midi": 60,
          "time": 90.4137705000004,
          "velocity": 0.6299212598425197,
          "duration": 0.20603443125000354
        },
        {
          "name": "A4",
          "midi": 69,
          "time": 90.4137705000004,
          "velocity": 0.6299212598425197,
          "duration": 0.20603443125000354
        },
        {
          "name": "C4",
          "midi": 60,
          "time": 90.6206670000004,
          "velocity": 0.6299212598425197,
          "duration": 0.20603443125000354
        },
        {
          "name": "A4",
          "midi": 69,
          "time": 90.6206670000004,
          "velocity": 0.6299212598425197,
          "duration": 0.20603443125000354
        },
        {
          "name": "C4",
          "midi": 60,
          "time": 90.8275635000004,
          "velocity": 0.6299212598425197,
          "duration": 0.20603443125000354
        },
        {
          "name": "A4",
          "midi": 69,
          "time": 90.8275635000004,
          "velocity": 0.6299212598425197,
          "duration": 0.20603443125000354
        },
        {
          "name": "C4",
          "midi": 60,
          "time": 91.0344600000004,
          "velocity": 0.6299212598425197,
          "duration": 0.20603443125000354
        },
        {
          "name": "F4",
          "midi": 65,
          "time": 91.0344600000004,
          "velocity": 0.6299212598425197,
          "duration": 0.20603443125000354
        },
        {
          "name": "C4",
          "midi": 60,
          "time": 91.24135650000039,
          "velocity": 0.6299212598425197,
          "duration": 0.20603443125000354
        },
        {
          "name": "F4",
          "midi": 65,
          "time": 91.24135650000039,
          "velocity": 0.6299212598425197,
          "duration": 0.20603443125000354
        },
        {
          "name": "C4",
          "midi": 60,
          "time": 91.44825300000039,
          "velocity": 0.6299212598425197,
          "duration": 0.20603443125000354
        },
        {
          "name": "F4",
          "midi": 65,
          "time": 91.44825300000039,
          "velocity": 0.6299212598425197,
          "duration": 0.20603443125000354
        },
        {
          "name": "C4",
          "midi": 60,
          "time": 91.65514950000039,
          "velocity": 0.6299212598425197,
          "duration": 0.20603443125000354
        },
        {
          "name": "F4",
          "midi": 65,
          "time": 91.65514950000039,
          "velocity": 0.6299212598425197,
          "duration": 0.20603443125000354
        },
        {
          "name": "C4",
          "midi": 60,
          "time": 91.86204600000039,
          "velocity": 0.6299212598425197,
          "duration": 0.20603443125000354
        },
        {
          "name": "F4",
          "midi": 65,
          "time": 91.86204600000039,
          "velocity": 0.6299212598425197,
          "duration": 0.20603443125000354
        },
        {
          "name": "C4",
          "midi": 60,
          "time": 92.06894250000039,
          "velocity": 0.6299212598425197,
          "duration": 0.20603443125000354
        },
        {
          "name": "F4",
          "midi": 65,
          "time": 92.06894250000039,
          "velocity": 0.6299212598425197,
          "duration": 0.20603443125000354
        },
        {
          "name": "C4",
          "midi": 60,
          "time": 92.68963200000039,
          "velocity": 0.6299212598425197,
          "duration": 0.20603443125000354
        },
        {
          "name": "F4",
          "midi": 65,
          "time": 92.68963200000039,
          "velocity": 0.6299212598425197,
          "duration": 0.20603443125000354
        },
        {
          "name": "C4",
          "midi": 60,
          "time": 92.89652850000039,
          "velocity": 0.6299212598425197,
          "duration": 0.20603443125000354
        },
        {
          "name": "F4",
          "midi": 65,
          "time": 92.89652850000039,
          "velocity": 0.6299212598425197,
          "duration": 0.20603443125000354
        },
        {
          "name": "C4",
          "midi": 60,
          "time": 93.10342500000039,
          "velocity": 0.6299212598425197,
          "duration": 0.20603443125000354
        },
        {
          "name": "F4",
          "midi": 65,
          "time": 93.10342500000039,
          "velocity": 0.6299212598425197,
          "duration": 0.20603443125000354
        },
        {
          "name": "C4",
          "midi": 60,
          "time": 93.31032150000038,
          "velocity": 0.6299212598425197,
          "duration": 0.20603443125000354
        },
        {
          "name": "F4",
          "midi": 65,
          "time": 93.31032150000038,
          "velocity": 0.6299212598425197,
          "duration": 0.20603443125000354
        },
        {
          "name": "C4",
          "midi": 60,
          "time": 93.51721800000038,
          "velocity": 0.6299212598425197,
          "duration": 0.20603443125000354
        },
        {
          "name": "F4",
          "midi": 65,
          "time": 93.51721800000038,
          "velocity": 0.6299212598425197,
          "duration": 0.20603443125000354
        },
        {
          "name": "C4",
          "midi": 60,
          "time": 93.72411450000038,
          "velocity": 0.6299212598425197,
          "duration": 0.20603443125000354
        },
        {
          "name": "E4",
          "midi": 64,
          "time": 93.72411450000038,
          "velocity": 0.6299212598425197,
          "duration": 0.20603443125000354
        },
        {
          "name": "C4",
          "midi": 60,
          "time": 93.93101100000038,
          "velocity": 0.6299212598425197,
          "duration": 0.20603443125000354
        },
        {
          "name": "E4",
          "midi": 64,
          "time": 93.93101100000038,
          "velocity": 0.6299212598425197,
          "duration": 0.20603443125000354
        },
        {
          "name": "C4",
          "midi": 60,
          "time": 94.13790750000038,
          "velocity": 0.6299212598425197,
          "duration": 0.20603443125000354
        },
        {
          "name": "E4",
          "midi": 64,
          "time": 94.13790750000038,
          "velocity": 0.6299212598425197,
          "duration": 0.20603443125000354
        },
        {
          "name": "A4",
          "midi": 69,
          "time": 94.34480400000038,
          "velocity": 0.6299212598425197,
          "duration": 0.20603443125000354
        },
        {
          "name": "A4",
          "midi": 69,
          "time": 94.55170050000038,
          "velocity": 0.6299212598425197,
          "duration": 0.20603443125000354
        },
        {
          "name": "A4",
          "midi": 69,
          "time": 94.75859700000038,
          "velocity": 0.6299212598425197,
          "duration": 0.20603443125000354
        },
        {
          "name": "F4",
          "midi": 65,
          "time": 94.96549350000038,
          "velocity": 0.6299212598425197,
          "duration": 0.20603443125000354
        },
        {
          "name": "F4",
          "midi": 65,
          "time": 95.17239000000038,
          "velocity": 0.6299212598425197,
          "duration": 0.20603443125000354
        },
        {
          "name": "F4",
          "midi": 65,
          "time": 95.37928650000038,
          "velocity": 0.6299212598425197,
          "duration": 0.20603443125000354
        },
        {
          "name": "E4",
          "midi": 64,
          "time": 95.58618300000037,
          "velocity": 0.6299212598425197,
          "duration": 0.20603443125000354
        },
        {
          "name": "E4",
          "midi": 64,
          "time": 95.79307950000037,
          "velocity": 0.6299212598425197,
          "duration": 0.20603443125000354
        },
        {
          "name": "E4",
          "midi": 64,
          "time": 95.99997600000037,
          "velocity": 0.6299212598425197,
          "duration": 0.20603443125000354
        },
        {
          "name": "C4",
          "midi": 60,
          "time": 96.20687250000037,
          "velocity": 0.6299212598425197,
          "duration": 0.20603443125000354
        },
        {
          "name": "C4",
          "midi": 60,
          "time": 96.41376900000037,
          "velocity": 0.6299212598425197,
          "duration": 0.20603443125000354
        },
        {
          "name": "C4",
          "midi": 60,
          "time": 96.62066550000037,
          "velocity": 0.6299212598425197,
          "duration": 0.20603443125000354
        },
        {
          "name": "C4",
          "midi": 60,
          "time": 96.82756200000037,
          "velocity": 0.6299212598425197,
          "duration": 0.20603443125000354
        },
        {
          "name": "C4",
          "midi": 60,
          "time": 97.03445850000037,
          "velocity": 0.6299212598425197,
          "duration": 0.20603443125000354
        },
        {
          "name": "E4",
          "midi": 64,
          "time": 97.03445850000037,
          "velocity": 0.6299212598425197,
          "duration": 0.20603443125000354
        },
        {
          "name": "C4",
          "midi": 60,
          "time": 97.24135500000037,
          "velocity": 0.6299212598425197,
          "duration": 0.20603443125000354
        },
        {
          "name": "E4",
          "midi": 64,
          "time": 97.24135500000037,
          "velocity": 0.6299212598425197,
          "duration": 0.20603443125000354
        },
        {
          "name": "C4",
          "midi": 60,
          "time": 97.44825150000037,
          "velocity": 0.6299212598425197,
          "duration": 0.20603443125000354
        },
        {
          "name": "E4",
          "midi": 64,
          "time": 97.44825150000037,
          "velocity": 0.6299212598425197,
          "duration": 0.20603443125000354
        },
        {
          "name": "C4",
          "midi": 60,
          "time": 97.65514800000037,
          "velocity": 0.6299212598425197,
          "duration": 0.20603443125000354
        },
        {
          "name": "F4",
          "midi": 65,
          "time": 97.65514800000037,
          "velocity": 0.6299212598425197,
          "duration": 0.20603443125000354
        },
        {
          "name": "C4",
          "midi": 60,
          "time": 97.86204450000037,
          "velocity": 0.6299212598425197,
          "duration": 0.20603443125000354
        },
        {
          "name": "F4",
          "midi": 65,
          "time": 97.86204450000037,
          "velocity": 0.6299212598425197,
          "duration": 0.20603443125000354
        },
        {
          "name": "C4",
          "midi": 60,
          "time": 98.06894100000036,
          "velocity": 0.6299212598425197,
          "duration": 0.20603443125000354
        },
        {
          "name": "F4",
          "midi": 65,
          "time": 98.06894100000036,
          "velocity": 0.6299212598425197,
          "duration": 0.20603443125000354
        },
        {
          "name": "C4",
          "midi": 60,
          "time": 98.27583750000036,
          "velocity": 0.6299212598425197,
          "duration": 0.20603443125000354
        },
        {
          "name": "F4",
          "midi": 65,
          "time": 98.27583750000036,
          "velocity": 0.6299212598425197,
          "duration": 0.20603443125000354
        },
        {
          "name": "C4",
          "midi": 60,
          "time": 98.48273400000036,
          "velocity": 0.6299212598425197,
          "duration": 0.20603443125000354
        },
        {
          "name": "F4",
          "midi": 65,
          "time": 98.48273400000036,
          "velocity": 0.6299212598425197,
          "duration": 0.20603443125000354
        },
        {
          "name": "C4",
          "midi": 60,
          "time": 98.68963050000036,
          "velocity": 0.6299212598425197,
          "duration": 0.20603443125000354
        },
        {
          "name": "F4",
          "midi": 65,
          "time": 98.68963050000036,
          "velocity": 0.6299212598425197,
          "duration": 0.20603443125000354
        },
        {
          "name": "C4",
          "midi": 60,
          "time": 99.31032000000036,
          "velocity": 0.6299212598425197,
          "duration": 0.20603443125000354
        },
        {
          "name": "F4",
          "midi": 65,
          "time": 99.31032000000036,
          "velocity": 0.6299212598425197,
          "duration": 0.20603443125000354
        },
        {
          "name": "C4",
          "midi": 60,
          "time": 99.51721650000036,
          "velocity": 0.6299212598425197,
          "duration": 0.20603443125000354
        },
        {
          "name": "F4",
          "midi": 65,
          "time": 99.51721650000036,
          "velocity": 0.6299212598425197,
          "duration": 0.20603443125000354
        },
        {
          "name": "C4",
          "midi": 60,
          "time": 99.72411300000036,
          "velocity": 0.6299212598425197,
          "duration": 0.20603443125000354
        },
        {
          "name": "F4",
          "midi": 65,
          "time": 99.72411300000036,
          "velocity": 0.6299212598425197,
          "duration": 0.20603443125000354
        },
        {
          "name": "C4",
          "midi": 60,
          "time": 99.93100950000036,
          "velocity": 0.6299212598425197,
          "duration": 0.20603443125000354
        },
        {
          "name": "F4",
          "midi": 65,
          "time": 99.93100950000036,
          "velocity": 0.6299212598425197,
          "duration": 0.20603443125000354
        },
        {
          "name": "C4",
          "midi": 60,
          "time": 100.13790600000036,
          "velocity": 0.6299212598425197,
          "duration": 0.20603443125000354
        },
        {
          "name": "F4",
          "midi": 65,
          "time": 100.13790600000036,
          "velocity": 0.6299212598425197,
          "duration": 0.20603443125000354
        },
        {
          "name": "C4",
          "midi": 60,
          "time": 100.34480250000036,
          "velocity": 0.6299212598425197,
          "duration": 0.20603443125000354
        },
        {
          "name": "E4",
          "midi": 64,
          "time": 100.34480250000036,
          "velocity": 0.6299212598425197,
          "duration": 0.20603443125000354
        },
        {
          "name": "C4",
          "midi": 60,
          "time": 100.55169900000035,
          "velocity": 0.6299212598425197,
          "duration": 0.20603443125000354
        },
        {
          "name": "E4",
          "midi": 64,
          "time": 100.55169900000035,
          "velocity": 0.6299212598425197,
          "duration": 0.20603443125000354
        },
        {
          "name": "C4",
          "midi": 60,
          "time": 100.75859550000035,
          "velocity": 0.6299212598425197,
          "duration": 0.20603443125000354
        },
        {
          "name": "E4",
          "midi": 64,
          "time": 100.75859550000035,
          "velocity": 0.6299212598425197,
          "duration": 0.20603443125000354
        },
        {
          "name": "C4",
          "midi": 60,
          "time": 100.96549200000035,
          "velocity": 0.6299212598425197,
          "duration": 0.20603443125000354
        },
        {
          "name": "F4",
          "midi": 65,
          "time": 100.96549200000035,
          "velocity": 0.6299212598425197,
          "duration": 0.20603443125000354
        },
        {
          "name": "C4",
          "midi": 60,
          "time": 101.17238850000035,
          "velocity": 0.6299212598425197,
          "duration": 0.20603443125000354
        },
        {
          "name": "F4",
          "midi": 65,
          "time": 101.17238850000035,
          "velocity": 0.6299212598425197,
          "duration": 0.20603443125000354
        },
        {
          "name": "C4",
          "midi": 60,
          "time": 101.37928500000035,
          "velocity": 0.6299212598425197,
          "duration": 0.20603443125000354
        },
        {
          "name": "F4",
          "midi": 65,
          "time": 101.37928500000035,
          "velocity": 0.6299212598425197,
          "duration": 0.20603443125000354
        },
        {
          "name": "C4",
          "midi": 60,
          "time": 101.58618150000035,
          "velocity": 0.6299212598425197,
          "duration": 0.20603443125000354
        },
        {
          "name": "F4",
          "midi": 65,
          "time": 101.58618150000035,
          "velocity": 0.6299212598425197,
          "duration": 0.20603443125000354
        },
        {
          "name": "C4",
          "midi": 60,
          "time": 101.79307800000035,
          "velocity": 0.6299212598425197,
          "duration": 0.20603443125000354
        },
        {
          "name": "F4",
          "midi": 65,
          "time": 101.79307800000035,
          "velocity": 0.6299212598425197,
          "duration": 0.20603443125000354
        },
        {
          "name": "E4",
          "midi": 64,
          "time": 101.99997450000035,
          "velocity": 0.6299212598425197,
          "duration": 0.10258618125000396
        },
        {
          "name": "C4",
          "midi": 60,
          "time": 102.10342275000035,
          "velocity": 0.6299212598425197,
          "duration": 0.10258618125000396
        },
        {
          "name": "E4",
          "midi": 64,
          "time": 102.20687100000035,
          "velocity": 0.6299212598425197,
          "duration": 0.20603443125000354
        },
        {
          "name": "C4",
          "midi": 60,
          "time": 102.41376750000035,
          "velocity": 0.6299212598425197,
          "duration": 0.20603443125000354
        },
        {
          "name": "C4",
          "midi": 60,
          "time": 102.62066400000035,
          "velocity": 0.6299212598425197,
          "duration": 0.20603443125000354
        },
        {
          "name": "F4",
          "midi": 65,
          "time": 102.62066400000035,
          "velocity": 0.6299212598425197,
          "duration": 0.20603443125000354
        },
        {
          "name": "C4",
          "midi": 60,
          "time": 102.82756050000035,
          "velocity": 0.6299212598425197,
          "duration": 0.20603443125000354
        },
        {
          "name": "F4",
          "midi": 65,
          "time": 102.82756050000035,
          "velocity": 0.6299212598425197,
          "duration": 0.20603443125000354
        },
        {
          "name": "C4",
          "midi": 60,
          "time": 103.03445700000034,
          "velocity": 0.6299212598425197,
          "duration": 0.20603443125000354
        },
        {
          "name": "F4",
          "midi": 65,
          "time": 103.03445700000034,
          "velocity": 0.6299212598425197,
          "duration": 0.20603443125000354
        },
        {
          "name": "C4",
          "midi": 60,
          "time": 103.24135350000034,
          "velocity": 0.6299212598425197,
          "duration": 0.20603443125000354
        },
        {
          "name": "A4",
          "midi": 69,
          "time": 103.24135350000034,
          "velocity": 0.6299212598425197,
          "duration": 0.20603443125000354
        },
        {
          "name": "C4",
          "midi": 60,
          "time": 103.44825000000034,
          "velocity": 0.6299212598425197,
          "duration": 0.20603443125000354
        },
        {
          "name": "A4",
          "midi": 69,
          "time": 103.44825000000034,
          "velocity": 0.6299212598425197,
          "duration": 0.20603443125000354
        },
        {
          "name": "C4",
          "midi": 60,
          "time": 103.65514650000034,
          "velocity": 0.6299212598425197,
          "duration": 0.20603443125000354
        },
        {
          "name": "A4",
          "midi": 69,
          "time": 103.65514650000034,
          "velocity": 0.6299212598425197,
          "duration": 0.20603443125000354
        },
        {
          "name": "C4",
          "midi": 60,
          "time": 103.86204300000034,
          "velocity": 0.6299212598425197,
          "duration": 0.20603443125000354
        },
        {
          "name": "A4",
          "midi": 69,
          "time": 103.86204300000034,
          "velocity": 0.6299212598425197,
          "duration": 0.20603443125000354
        },
        {
          "name": "C4",
          "midi": 60,
          "time": 104.06893950000034,
          "velocity": 0.6299212598425197,
          "duration": 0.20603443125000354
        },
        {
          "name": "A4",
          "midi": 69,
          "time": 104.06893950000034,
          "velocity": 0.6299212598425197,
          "duration": 0.20603443125000354
        },
        {
          "name": "C4",
          "midi": 60,
          "time": 104.27583600000034,
          "velocity": 0.6299212598425197,
          "duration": 0.20603443125000354
        },
        {
          "name": "F4",
          "midi": 65,
          "time": 104.27583600000034,
          "velocity": 0.6299212598425197,
          "duration": 0.20603443125000354
        },
        {
          "name": "C4",
          "midi": 60,
          "time": 104.48273250000034,
          "velocity": 0.6299212598425197,
          "duration": 0.20603443125000354
        },
        {
          "name": "F4",
          "midi": 65,
          "time": 104.48273250000034,
          "velocity": 0.6299212598425197,
          "duration": 0.20603443125000354
        },
        {
          "name": "C4",
          "midi": 60,
          "time": 104.68962900000034,
          "velocity": 0.6299212598425197,
          "duration": 0.20603443125000354
        },
        {
          "name": "F4",
          "midi": 65,
          "time": 104.68962900000034,
          "velocity": 0.6299212598425197,
          "duration": 0.20603443125000354
        },
        {
          "name": "C4",
          "midi": 60,
          "time": 104.89652550000034,
          "velocity": 0.6299212598425197,
          "duration": 0.20603443125000354
        },
        {
          "name": "F4",
          "midi": 65,
          "time": 104.89652550000034,
          "velocity": 0.6299212598425197,
          "duration": 0.20603443125000354
        },
        {
          "name": "C4",
          "midi": 60,
          "time": 105.10342200000034,
          "velocity": 0.6299212598425197,
          "duration": 0.20603443125000354
        },
        {
          "name": "F4",
          "midi": 65,
          "time": 105.10342200000034,
          "velocity": 0.6299212598425197,
          "duration": 0.20603443125000354
        },
        {
          "name": "C4",
          "midi": 60,
          "time": 105.31031850000034,
          "velocity": 0.6299212598425197,
          "duration": 0.20603443125000354
        },
        {
          "name": "F4",
          "midi": 65,
          "time": 105.31031850000034,
          "velocity": 0.6299212598425197,
          "duration": 0.20603443125000354
        },
        {
          "name": "C4",
          "midi": 60,
          "time": 105.93100800000033,
          "velocity": 0.6299212598425197,
          "duration": 0.20603443125000354
        },
        {
          "name": "F4",
          "midi": 65,
          "time": 105.93100800000033,
          "velocity": 0.6299212598425197,
          "duration": 0.20603443125000354
        },
        {
          "name": "C4",
          "midi": 60,
          "time": 106.13790450000033,
          "velocity": 0.6299212598425197,
          "duration": 0.20603443125000354
        },
        {
          "name": "F4",
          "midi": 65,
          "time": 106.13790450000033,
          "velocity": 0.6299212598425197,
          "duration": 0.20603443125000354
        },
        {
          "name": "C4",
          "midi": 60,
          "time": 106.34480100000033,
          "velocity": 0.6299212598425197,
          "duration": 0.20603443125000354
        },
        {
          "name": "F4",
          "midi": 65,
          "time": 106.34480100000033,
          "velocity": 0.6299212598425197,
          "duration": 0.20603443125000354
        },
        {
          "name": "C4",
          "midi": 60,
          "time": 106.55169750000033,
          "velocity": 0.6299212598425197,
          "duration": 0.20603443125000354
        },
        {
          "name": "F4",
          "midi": 65,
          "time": 106.55169750000033,
          "velocity": 0.6299212598425197,
          "duration": 0.20603443125000354
        },
        {
          "name": "C4",
          "midi": 60,
          "time": 106.75859400000033,
          "velocity": 0.6299212598425197,
          "duration": 0.20603443125000354
        },
        {
          "name": "F4",
          "midi": 65,
          "time": 106.75859400000033,
          "velocity": 0.6299212598425197,
          "duration": 0.20603443125000354
        },
        {
          "name": "C4",
          "midi": 60,
          "time": 106.96549050000033,
          "velocity": 0.6299212598425197,
          "duration": 0.20603443125000354
        },
        {
          "name": "E4",
          "midi": 64,
          "time": 106.96549050000033,
          "velocity": 0.6299212598425197,
          "duration": 0.20603443125000354
        },
        {
          "name": "C4",
          "midi": 60,
          "time": 107.17238700000033,
          "velocity": 0.6299212598425197,
          "duration": 0.20603443125000354
        },
        {
          "name": "E4",
          "midi": 64,
          "time": 107.17238700000033,
          "velocity": 0.6299212598425197,
          "duration": 0.20603443125000354
        },
        {
          "name": "C4",
          "midi": 60,
          "time": 107.37928350000033,
          "velocity": 0.6299212598425197,
          "duration": 0.20603443125000354
        },
        {
          "name": "E4",
          "midi": 64,
          "time": 107.37928350000033,
          "velocity": 0.6299212598425197,
          "duration": 0.20603443125000354
        },
        {
          "name": "A4",
          "midi": 69,
          "time": 107.58618000000033,
          "velocity": 0.6299212598425197,
          "duration": 0.20603443125000354
        },
        {
          "name": "A4",
          "midi": 69,
          "time": 107.79307650000032,
          "velocity": 0.6299212598425197,
          "duration": 0.20603443125000354
        },
        {
          "name": "A4",
          "midi": 69,
          "time": 107.99997300000032,
          "velocity": 0.6299212598425197,
          "duration": 0.20603443125000354
        },
        {
          "name": "F4",
          "midi": 65,
          "time": 108.20686950000032,
          "velocity": 0.6299212598425197,
          "duration": 0.20603443125000354
        },
        {
          "name": "F4",
          "midi": 65,
          "time": 108.41376600000032,
          "velocity": 0.6299212598425197,
          "duration": 0.20603443125000354
        },
        {
          "name": "F4",
          "midi": 65,
          "time": 108.62066250000032,
          "velocity": 0.6299212598425197,
          "duration": 0.20603443125000354
        },
        {
          "name": "E4",
          "midi": 64,
          "time": 108.82755900000032,
          "velocity": 0.6299212598425197,
          "duration": 0.20603443125000354
        },
        {
          "name": "E4",
          "midi": 64,
          "time": 109.03445550000032,
          "velocity": 0.6299212598425197,
          "duration": 0.20603443125000354
        },
        {
          "name": "E4",
          "midi": 64,
          "time": 109.24135200000032,
          "velocity": 0.6299212598425197,
          "duration": 0.20603443125000354
        },
        {
          "name": "C4",
          "midi": 60,
          "time": 109.44824850000032,
          "velocity": 0.6299212598425197,
          "duration": 0.20603443125000354
        },
        {
          "name": "C4",
          "midi": 60,
          "time": 109.65514500000032,
          "velocity": 0.6299212598425197,
          "duration": 0.20603443125000354
        },
        {
          "name": "C4",
          "midi": 60,
          "time": 109.86204150000032,
          "velocity": 0.6299212598425197,
          "duration": 0.20603443125000354
        },
        {
          "name": "A4",
          "midi": 69,
          "time": 110.06893800000032,
          "velocity": 0.6299212598425197,
          "duration": 0.4129309312500027
        },
        {
          "name": "C4",
          "midi": 60,
          "time": 110.48273100000031,
          "velocity": 0.6299212598425197,
          "duration": 0.4129309312500027
        },
        {
          "name": "E4",
          "midi": 64,
          "time": 110.48273100000031,
          "velocity": 0.6299212598425197,
          "duration": 0.4129309312500027
        },
        {
          "name": "F4",
          "midi": 65,
          "time": 110.48273100000031,
          "velocity": 0.6299212598425197,
          "duration": 0.4129309312500027
        },
        {
          "name": "A4",
          "midi": 69,
          "time": 110.48273100000031,
          "velocity": 0.6299212598425197,
          "duration": 0.4129309312500027
        },
        {
          "name": "C4",
          "midi": 60,
          "time": 110.89652400000031,
          "velocity": 0.6299212598425197,
          "duration": 0.4129309312500027
        },
        {
          "name": "E4",
          "midi": 64,
          "time": 110.89652400000031,
          "velocity": 0.6299212598425197,
          "duration": 0.4129309312500027
        },
        {
          "name": "F4",
          "midi": 65,
          "time": 110.89652400000031,
          "velocity": 0.6299212598425197,
          "duration": 0.4129309312500027
        },
        {
          "name": "A4",
          "midi": 69,
          "time": 111.31031700000031,
          "velocity": 0.6299212598425197,
          "duration": 0.20603443125000354
        },
        {
          "name": "F4",
          "midi": 65,
          "time": 111.51721350000031,
          "velocity": 0.6299212598425197,
          "duration": 0.20603443125000354
        },
        {
          "name": "E4",
          "midi": 64,
          "time": 111.72411000000031,
          "velocity": 0.6299212598425197,
          "duration": 0.4129309312500027
        },
        {
          "name": "C4",
          "midi": 60,
          "time": 112.1379030000003,
          "velocity": 0.6299212598425197,
          "duration": 0.4129309312500027
        },
        {
          "name": "C4",
          "midi": 60,
          "time": 112.9654890000003,
          "velocity": 0.6299212598425197,
          "duration": 0.20603443125000354
        },
        {
          "name": "E4",
          "midi": 64,
          "time": 113.1723855000003,
          "velocity": 0.6299212598425197,
          "duration": 0.20603443125000354
        },
        {
          "name": "F4",
          "midi": 65,
          "time": 113.3792820000003,
          "velocity": 0.6299212598425197,
          "duration": 0.4129309312500027
        },
        {
          "name": "C4",
          "midi": 60,
          "time": 113.7930750000003,
          "velocity": 0.6299212598425197,
          "duration": 0.4129309312500027
        },
        {
          "name": "C4",
          "midi": 60,
          "time": 114.2068680000003,
          "velocity": 0.6299212598425197,
          "duration": 0.4129309312500027
        },
        {
          "name": "E4",
          "midi": 64,
          "time": 114.2068680000003,
          "velocity": 0.6299212598425197,
          "duration": 0.4129309312500027
        },
        {
          "name": "F4",
          "midi": 65,
          "time": 114.2068680000003,
          "velocity": 0.6299212598425197,
          "duration": 0.4129309312500027
        },
        {
          "name": "A4",
          "midi": 69,
          "time": 114.6206610000003,
          "velocity": 0.6299212598425197,
          "duration": 0.20603443125000354
        },
        {
          "name": "F4",
          "midi": 65,
          "time": 114.8275575000003,
          "velocity": 0.6299212598425197,
          "duration": 0.20603443125000354
        },
        {
          "name": "E4",
          "midi": 64,
          "time": 115.0344540000003,
          "velocity": 0.6299212598425197,
          "duration": 0.4129309312500027
        },
        {
          "name": "C4",
          "midi": 60,
          "time": 115.4482470000003,
          "velocity": 0.6299212598425197,
          "duration": 0.4129309312500027
        },
        {
          "name": "C4",
          "midi": 60,
          "time": 116.27583300000029,
          "velocity": 0.6299212598425197,
          "duration": 0.20603443125000354
        },
        {
          "name": "E4",
          "midi": 64,
          "time": 116.48272950000029,
          "velocity": 0.6299212598425197,
          "duration": 0.20603443125000354
        },
        {
          "name": "F4",
          "midi": 65,
          "time": 116.68962600000029,
          "velocity": 0.6299212598425197,
          "duration": 0.4129309312500027
        },
        {
          "name": "C4",
          "midi": 60,
          "time": 117.10341900000029,
          "velocity": 0.6299212598425197,
          "duration": 0.4129309312500027
        },
        {
          "name": "C4",
          "midi": 60,
          "time": 117.51721200000028,
          "velocity": 0.6299212598425197,
          "duration": 0.4129309312500027
        },
        {
          "name": "E4",
          "midi": 64,
          "time": 117.51721200000028,
          "velocity": 0.6299212598425197,
          "duration": 0.4129309312500027
        },
        {
          "name": "F4",
          "midi": 65,
          "time": 117.51721200000028,
          "velocity": 0.6299212598425197,
          "duration": 0.4129309312500027
        },
        {
          "name": "A4",
          "midi": 69,
          "time": 117.93100500000028,
          "velocity": 0.6299212598425197,
          "duration": 0.20603443125000354
        },
        {
          "name": "F4",
          "midi": 65,
          "time": 118.13790150000028,
          "velocity": 0.6299212598425197,
          "duration": 0.20603443125000354
        },
        {
          "name": "E4",
          "midi": 64,
          "time": 118.34479800000028,
          "velocity": 0.6299212598425197,
          "duration": 0.4129309312500027
        },
        {
          "name": "C4",
          "midi": 60,
          "time": 118.75859100000028,
          "velocity": 0.6299212598425197,
          "duration": 0.4129309312500027
        },
        {
          "name": "C4",
          "midi": 60,
          "time": 119.58617700000028,
          "velocity": 0.6299212598425197,
          "duration": 0.20603443125000354
        },
        {
          "name": "E4",
          "midi": 64,
          "time": 119.79307350000028,
          "velocity": 0.6299212598425197,
          "duration": 0.20603443125000354
        },
        {
          "name": "F4",
          "midi": 65,
          "time": 119.99997000000027,
          "velocity": 0.6299212598425197,
          "duration": 0.4129309312500027
        },
        {
          "name": "C4",
          "midi": 60,
          "time": 120.41376300000027,
          "velocity": 0.6299212598425197,
          "duration": 0.4129309312500027
        },
        {
          "name": "A4",
          "midi": 69,
          "time": 120.82755600000027,
          "velocity": 0.6299212598425197,
          "duration": 0.20603443125000354
        },
        {
          "name": "A4",
          "midi": 69,
          "time": 121.03445250000027,
          "velocity": 0.6299212598425197,
          "duration": 0.10258618125000396
        },
        {
          "name": "F4",
          "midi": 65,
          "time": 121.13790075000027,
          "velocity": 0.6299212598425197,
          "duration": 0.10258618125000396
        },
        {
          "name": "A4",
          "midi": 69,
          "time": 121.24134900000027,
          "velocity": 0.6299212598425197,
          "duration": 0.20603443125000354
        },
        {
          "name": "A4",
          "midi": 69,
          "time": 121.44824550000027,
          "velocity": 0.6299212598425197,
          "duration": 0.20603443125000354
        },
        {
          "name": "A4",
          "midi": 69,
          "time": 121.65514200000027,
          "velocity": 0.6299212598425197,
          "duration": 0.20603443125000354
        },
        {
          "name": "A4",
          "midi": 69,
          "time": 121.86203850000027,
          "velocity": 0.6299212598425197,
          "duration": 0.20603443125000354
        },
        {
          "name": "A4",
          "midi": 69,
          "time": 122.06893500000027,
          "velocity": 0.6299212598425197,
          "duration": 0.20603443125000354
        },
        {
          "name": "F4",
          "midi": 65,
          "time": 122.27583150000027,
          "velocity": 0.6299212598425197,
          "duration": 0.20603443125000354
        },
        {
          "name": "F4",
          "midi": 65,
          "time": 122.48272800000026,
          "velocity": 0.6299212598425197,
          "duration": 0.10258618125000396
        },
        {
          "name": "E4",
          "midi": 64,
          "time": 122.58617625000026,
          "velocity": 0.6299212598425197,
          "duration": 0.10258618125000396
        },
        {
          "name": "F4",
          "midi": 65,
          "time": 122.68962450000026,
          "velocity": 0.6299212598425197,
          "duration": 0.10258618125000396
        },
        {
          "name": "E4",
          "midi": 64,
          "time": 122.79307275000026,
          "velocity": 0.6299212598425197,
          "duration": 0.10258618125000396
        },
        {
          "name": "F4",
          "midi": 65,
          "time": 122.89652100000026,
          "velocity": 0.6299212598425197,
          "duration": 0.20603443125000354
        },
        {
          "name": "E4",
          "midi": 64,
          "time": 123.10341750000026,
          "velocity": 0.6299212598425197,
          "duration": 0.20603443125000354
        },
        {
          "name": "C4",
          "midi": 60,
          "time": 123.31031400000026,
          "velocity": 0.6299212598425197,
          "duration": 0.20603443125000354
        },
        {
          "name": "C4",
          "midi": 60,
          "time": 123.51721050000026,
          "velocity": 0.6299212598425197,
          "duration": 0.20603443125000354
        },
        {
          "name": "E4",
          "midi": 64,
          "time": 123.51721050000026,
          "velocity": 0.6299212598425197,
          "duration": 0.20603443125000354
        },
        {
          "name": "C4",
          "midi": 60,
          "time": 123.72410700000026,
          "velocity": 0.6299212598425197,
          "duration": 0.20603443125000354
        },
        {
          "name": "E4",
          "midi": 64,
          "time": 123.72410700000026,
          "velocity": 0.6299212598425197,
          "duration": 0.20603443125000354
        },
        {
          "name": "C4",
          "midi": 60,
          "time": 123.93100350000026,
          "velocity": 0.6299212598425197,
          "duration": 0.20603443125000354
        },
        {
          "name": "E4",
          "midi": 64,
          "time": 123.93100350000026,
          "velocity": 0.6299212598425197,
          "duration": 0.20603443125000354
        },
        {
          "name": "C4",
          "midi": 60,
          "time": 124.13790000000026,
          "velocity": 0.6299212598425197,
          "duration": 0.4129309312500027
        },
        {
          "name": "E4",
          "midi": 64,
          "time": 124.13790000000026,
          "velocity": 0.6299212598425197,
          "duration": 0.4129309312500027
        },
        {
          "name": "F4",
          "midi": 65,
          "time": 124.13790000000026,
          "velocity": 0.6299212598425197,
          "duration": 0.4129309312500027
        },
        {
          "name": "A4",
          "midi": 69,
          "time": 124.55169300000026,
          "velocity": 0.6299212598425197,
          "duration": 0.20603443125000354
        },
        {
          "name": "F4",
          "midi": 65,
          "time": 124.75858950000026,
          "velocity": 0.6299212598425197,
          "duration": 0.20603443125000354
        },
        {
          "name": "E4",
          "midi": 64,
          "time": 124.96548600000025,
          "velocity": 0.6299212598425197,
          "duration": 0.4129309312500027
        },
        {
          "name": "C4",
          "midi": 60,
          "time": 125.37927900000025,
          "velocity": 0.6299212598425197,
          "duration": 0.4129309312500027
        },
        {
          "name": "C4",
          "midi": 60,
          "time": 126.20686500000025,
          "velocity": 0.6299212598425197,
          "duration": 0.20603443125000354
        },
        {
          "name": "E4",
          "midi": 64,
          "time": 126.41376150000025,
          "velocity": 0.6299212598425197,
          "duration": 0.20603443125000354
        },
        {
          "name": "F4",
          "midi": 65,
          "time": 126.62065800000025,
          "velocity": 0.6299212598425197,
          "duration": 0.4129309312500027
        },
        {
          "name": "C4",
          "midi": 60,
          "time": 127.03445100000025,
          "velocity": 0.6299212598425197,
          "duration": 0.4129309312500027
        },
        {
          "name": "C4",
          "midi": 60,
          "time": 127.44824400000024,
          "velocity": 0.6299212598425197,
          "duration": 0.4129309312500027
        },
        {
          "name": "E4",
          "midi": 64,
          "time": 127.44824400000024,
          "velocity": 0.6299212598425197,
          "duration": 0.4129309312500027
        },
        {
          "name": "F4",
          "midi": 65,
          "time": 127.44824400000024,
          "velocity": 0.6299212598425197,
          "duration": 0.4129309312500027
        },
        {
          "name": "A4",
          "midi": 69,
          "time": 127.86203700000024,
          "velocity": 0.6299212598425197,
          "duration": 0.20603443125000354
        },
        {
          "name": "F4",
          "midi": 65,
          "time": 128.06893350000024,
          "velocity": 0.6299212598425197,
          "duration": 0.20603443125000354
        },
        {
          "name": "E4",
          "midi": 64,
          "time": 128.27583000000024,
          "velocity": 0.6299212598425197,
          "duration": 0.4129309312500027
        },
        {
          "name": "C4",
          "midi": 60,
          "time": 128.68962300000024,
          "velocity": 0.6299212598425197,
          "duration": 0.4129309312500027
        },
        {
          "name": "C4",
          "midi": 60,
          "time": 129.51720900000024,
          "velocity": 0.6299212598425197,
          "duration": 0.20603443125000354
        },
        {
          "name": "E4",
          "midi": 64,
          "time": 129.72410550000023,
          "velocity": 0.6299212598425197,
          "duration": 0.20603443125000354
        },
        {
          "name": "F4",
          "midi": 65,
          "time": 129.93100200000023,
          "velocity": 0.6299212598425197,
          "duration": 0.4129309312500027
        },
        {
          "name": "C4",
          "midi": 60,
          "time": 130.34479500000023,
          "velocity": 0.6299212598425197,
          "duration": 0.4129309312500027
        },
        {
          "name": "C4",
          "midi": 60,
          "time": 130.75858800000023,
          "velocity": 0.6299212598425197,
          "duration": 0.4129309312500027
        },
        {
          "name": "E4",
          "midi": 64,
          "time": 130.75858800000023,
          "velocity": 0.6299212598425197,
          "duration": 0.4129309312500027
        },
        {
          "name": "F4",
          "midi": 65,
          "time": 130.75858800000023,
          "velocity": 0.6299212598425197,
          "duration": 0.4129309312500027
        },
        {
          "name": "A4",
          "midi": 69,
          "time": 131.17238100000023,
          "velocity": 0.6299212598425197,
          "duration": 0.20603443125000354
        },
        {
          "name": "F4",
          "midi": 65,
          "time": 131.37927750000023,
          "velocity": 0.6299212598425197,
          "duration": 0.20603443125000354
        },
        {
          "name": "E4",
          "midi": 64,
          "time": 131.58617400000023,
          "velocity": 0.6299212598425197,
          "duration": 0.4129309312500027
        },
        {
          "name": "C4",
          "midi": 60,
          "time": 131.99996700000023,
          "velocity": 0.6299212598425197,
          "duration": 0.4129309312500027
        },
        {
          "name": "C4",
          "midi": 60,
          "time": 132.82755300000022,
          "velocity": 0.6299212598425197,
          "duration": 0.20603443125000354
        },
        {
          "name": "E4",
          "midi": 64,
          "time": 133.03444950000022,
          "velocity": 0.6299212598425197,
          "duration": 0.20603443125000354
        },
        {
          "name": "F4",
          "midi": 65,
          "time": 133.24134600000022,
          "velocity": 0.6299212598425197,
          "duration": 0.4129309312500027
        },
        {
          "name": "C4",
          "midi": 60,
          "time": 133.65513900000022,
          "velocity": 0.6299212598425197,
          "duration": 0.4129309312500027
        },
        {
          "name": "A4",
          "midi": 69,
          "time": 134.06893200000022,
          "velocity": 0.6299212598425197,
          "duration": 0.20603443125000354
        },
        {
          "name": "A4",
          "midi": 69,
          "time": 134.27582850000022,
          "velocity": 0.6299212598425197,
          "duration": 0.10258618124998975
        },
        {
          "name": "F4",
          "midi": 65,
          "time": 134.3792767500002,
          "velocity": 0.6299212598425197,
          "duration": 0.10258618124998975
        },
        {
          "name": "A4",
          "midi": 69,
          "time": 134.4827250000002,
          "velocity": 0.6299212598425197,
          "duration": 0.20603443125000354
        },
        {
          "name": "A4",
          "midi": 69,
          "time": 134.6896215000002,
          "velocity": 0.6299212598425197,
          "duration": 0.20603443125000354
        },
        {
          "name": "A4",
          "midi": 69,
          "time": 134.89651800000019,
          "velocity": 0.6299212598425197,
          "duration": 0.20603443125000354
        },
        {
          "name": "A4",
          "midi": 69,
          "time": 135.10341450000018,
          "velocity": 0.6299212598425197,
          "duration": 0.20603443125000354
        },
        {
          "name": "A4",
          "midi": 69,
          "time": 135.31031100000018,
          "velocity": 0.6299212598425197,
          "duration": 0.20603443125000354
        },
        {
          "name": "F4",
          "midi": 65,
          "time": 135.51720750000018,
          "velocity": 0.6299212598425197,
          "duration": 0.20603443125000354
        },
        {
          "name": "F4",
          "midi": 65,
          "time": 135.72410400000018,
          "velocity": 0.6299212598425197,
          "duration": 0.10258618124998975
        },
        {
          "name": "E4",
          "midi": 64,
          "time": 135.82755225000017,
          "velocity": 0.6299212598425197,
          "duration": 0.10258618124998975
        },
        {
          "name": "F4",
          "midi": 65,
          "time": 135.93100050000015,
          "velocity": 0.6299212598425197,
          "duration": 0.10258618124998975
        },
        {
          "name": "E4",
          "midi": 64,
          "time": 136.03444875000014,
          "velocity": 0.6299212598425197,
          "duration": 0.10258618124998975
        },
        {
          "name": "F4",
          "midi": 65,
          "time": 136.13789700000012,
          "velocity": 0.6299212598425197,
          "duration": 0.20603443125000354
        },
        {
          "name": "E4",
          "midi": 64,
          "time": 136.34479350000012,
          "velocity": 0.6299212598425197,
          "duration": 0.20603443125000354
        },
        {
          "name": "C4",
          "midi": 60,
          "time": 136.55169000000012,
          "velocity": 0.6299212598425197,
          "duration": 0.4129309312500027
        },
        {
          "name": "C4",
          "midi": 60,
          "time": 136.96548300000012,
          "velocity": 0.6299212598425197,
          "duration": 0.4129309312500027
        },
        {
          "name": "E4",
          "midi": 64,
          "time": 136.96548300000012,
          "velocity": 0.6299212598425197,
          "duration": 0.4129309312500027
        },
        {
          "name": "F4",
          "midi": 65,
          "time": 136.96548300000012,
          "velocity": 0.6299212598425197,
          "duration": 0.4129309312500027
        },
        {
          "name": "A4",
          "midi": 69,
          "time": 136.96548300000012,
          "velocity": 0.6299212598425197,
          "duration": 0.4129309312500027
        },
        {
          "name": "E4",
          "midi": 64,
          "time": 137.37927600000012,
          "velocity": 0.6299212598425197,
          "duration": 0.4129309312500027
        },
        {
          "name": "A4",
          "midi": 69,
          "time": 137.79306900000012,
          "velocity": 0.6299212598425197,
          "duration": 0.20603443125000354
        },
        {
          "name": "F4",
          "midi": 65,
          "time": 137.99996550000012,
          "velocity": 0.6299212598425197,
          "duration": 0.20603443125000354
        },
        {
          "name": "E4",
          "midi": 64,
          "time": 138.20686200000011,
          "velocity": 0.6299212598425197,
          "duration": 0.4129309312500027
        },
        {
          "name": "C4",
          "midi": 60,
          "time": 138.6206550000001,
          "velocity": 0.6299212598425197,
          "duration": 0.4129309312500027
        },
        {
          "name": "C4",
          "midi": 60,
          "time": 139.4482410000001,
          "velocity": 0.6299212598425197,
          "duration": 0.20603443125000354
        },
        {
          "name": "E4",
          "midi": 64,
          "time": 139.6551375000001,
          "velocity": 0.6299212598425197,
          "duration": 0.20603443125000354
        },
        {
          "name": "F4",
          "midi": 65,
          "time": 139.8620340000001,
          "velocity": 0.6299212598425197,
          "duration": 0.4129309312500027
        },
        {
          "name": "C4",
          "midi": 60,
          "time": 140.2758270000001,
          "velocity": 0.6299212598425197,
          "duration": 0.4129309312500027
        },
        {
          "name": "E4",
          "midi": 64,
          "time": 140.6896200000001,
          "velocity": 0.6299212598425197,
          "duration": 0.4129309312500027
        },
        {
          "name": "A4",
          "midi": 69,
          "time": 141.1034130000001,
          "velocity": 0.6299212598425197,
          "duration": 0.20603443125000354
        },
        {
          "name": "F4",
          "midi": 65,
          "time": 141.3103095000001,
          "velocity": 0.6299212598425197,
          "duration": 0.20603443125000354
        },
        {
          "name": "E4",
          "midi": 64,
          "time": 141.5172060000001,
          "velocity": 0.6299212598425197,
          "duration": 0.4129309312500027
        },
        {
          "name": "C4",
          "midi": 60,
          "time": 141.9309990000001,
          "velocity": 0.6299212598425197,
          "duration": 0.4129309312500027
        },
        {
          "name": "C4",
          "midi": 60,
          "time": 142.7585850000001,
          "velocity": 0.6299212598425197,
          "duration": 0.20603443125000354
        },
        {
          "name": "E4",
          "midi": 64,
          "time": 142.9654815000001,
          "velocity": 0.6299212598425197,
          "duration": 0.20603443125000354
        },
        {
          "name": "F4",
          "midi": 65,
          "time": 143.1723780000001,
          "velocity": 0.6299212598425197,
          "duration": 0.4129309312500027
        },
        {
          "name": "C4",
          "midi": 60,
          "time": 143.5861710000001,
          "velocity": 0.6299212598425197,
          "duration": 0.4129309312500027
        },
        {
          "name": "E4",
          "midi": 64,
          "time": 143.9999640000001,
          "velocity": 0.6299212598425197,
          "duration": 0.4129309312500027
        },
        {
          "name": "A4",
          "midi": 69,
          "time": 144.4137570000001,
          "velocity": 0.6299212598425197,
          "duration": 0.20603443125000354
        },
        {
          "name": "F4",
          "midi": 65,
          "time": 144.6206535000001,
          "velocity": 0.6299212598425197,
          "duration": 0.20603443125000354
        },
        {
          "name": "E4",
          "midi": 64,
          "time": 144.8275500000001,
          "velocity": 0.6299212598425197,
          "duration": 0.4129309312500027
        },
        {
          "name": "C4",
          "midi": 60,
          "time": 145.2413430000001,
          "velocity": 0.6299212598425197,
          "duration": 0.4129309312500027
        },
        {
          "name": "C4",
          "midi": 60,
          "time": 146.06892900000008,
          "velocity": 0.6299212598425197,
          "duration": 0.20603443125000354
        },
        {
          "name": "E4",
          "midi": 64,
          "time": 146.27582550000008,
          "velocity": 0.6299212598425197,
          "duration": 0.20603443125000354
        },
        {
          "name": "F4",
          "midi": 65,
          "time": 146.48272200000008,
          "velocity": 0.6299212598425197,
          "duration": 0.4129309312500027
        },
        {
          "name": "C4",
          "midi": 60,
          "time": 146.89651500000008,
          "velocity": 0.6299212598425197,
          "duration": 0.4129309312500027
        },
        {
          "name": "E4",
          "midi": 64,
          "time": 147.31030800000008,
          "velocity": 0.6299212598425197,
          "duration": 0.4129309312500027
        },
        {
          "name": "A4",
          "midi": 69,
          "time": 147.72410100000008,
          "velocity": 0.6299212598425197,
          "duration": 0.20603443125000354
        },
        {
          "name": "F4",
          "midi": 65,
          "time": 147.93099750000007,
          "velocity": 0.6299212598425197,
          "duration": 0.20603443125000354
        },
        {
          "name": "E4",
          "midi": 64,
          "time": 148.13789400000007,
          "velocity": 0.6299212598425197,
          "duration": 0.4129309312500027
        },
        {
          "name": "C4",
          "midi": 60,
          "time": 148.55168700000007,
          "velocity": 0.6299212598425197,
          "duration": 0.4129309312500027
        },
        {
          "name": "A4",
          "midi": 69,
          "time": 150.62065200000006,
          "velocity": 0.6299212598425197,
          "duration": 0.10258618124998975
        },
        {
          "name": "F4",
          "midi": 65,
          "time": 150.72410025000005,
          "velocity": 0.6299212598425197,
          "duration": 0.10258618124998975
        },
        {
          "name": "E4",
          "midi": 64,
          "time": 150.82754850000003,
          "velocity": 0.6299212598425197,
          "duration": 0.10258618124998975
        },
        {
          "name": "C4",
          "midi": 60,
          "time": 150.93099675000002,
          "velocity": 0.6299212598425197,
          "duration": 0.10258618124998975
        },
        {
          "name": "A4",
          "midi": 69,
          "time": 151.034445,
          "velocity": 0.6299212598425197,
          "duration": 0.10258618124998975
        },
        {
          "name": "F4",
          "midi": 65,
          "time": 151.13789325,
          "velocity": 0.6299212598425197,
          "duration": 0.10258618124998975
        },
        {
          "name": "E4",
          "midi": 64,
          "time": 151.24134149999998,
          "velocity": 0.6299212598425197,
          "duration": 0.10258618124998975
        },
        {
          "name": "C4",
          "midi": 60,
          "time": 151.34478974999996,
          "velocity": 0.6299212598425197,
          "duration": 0.10258618124998975
        },
        {
          "name": "A4",
          "midi": 69,
          "time": 151.44823799999995,
          "velocity": 0.6299212598425197,
          "duration": 0.10258618124998975
        },
        {
          "name": "F4",
          "midi": 65,
          "time": 151.55168624999993,
          "velocity": 0.6299212598425197,
          "duration": 0.10258618124998975
        },
        {
          "name": "E4",
          "midi": 64,
          "time": 151.65513449999992,
          "velocity": 0.6299212598425197,
          "duration": 0.10258618124998975
        },
        {
          "name": "C4",
          "midi": 60,
          "time": 151.7585827499999,
          "velocity": 0.6299212598425197,
          "duration": 0.10258618124998975
        },
        {
          "name": "A4",
          "midi": 69,
          "time": 151.8620309999999,
          "velocity": 0.6299212598425197,
          "duration": 0.10258618124998975
        },
        {
          "name": "F4",
          "midi": 65,
          "time": 151.96547924999987,
          "velocity": 0.6299212598425197,
          "duration": 0.10258618124998975
        },
        {
          "name": "E4",
          "midi": 64,
          "time": 152.06892749999986,
          "velocity": 0.6299212598425197,
          "duration": 0.10258618124998975
        },
        {
          "name": "C4",
          "midi": 60,
          "time": 152.17237574999984,
          "velocity": 0.6299212598425197,
          "duration": 0.10258618124998975
        },
        {
          "name": "A4",
          "midi": 69,
          "time": 152.27582399999983,
          "velocity": 0.6299212598425197,
          "duration": 0.10258618124998975
        },
        {
          "name": "F4",
          "midi": 65,
          "time": 152.37927224999981,
          "velocity": 0.6299212598425197,
          "duration": 0.10258618124998975
        },
        {
          "name": "E4",
          "midi": 64,
          "time": 152.4827204999998,
          "velocity": 0.6299212598425197,
          "duration": 0.10258618124998975
        },
        {
          "name": "C4",
          "midi": 60,
          "time": 152.58616874999979,
          "velocity": 0.6299212598425197,
          "duration": 0.10258618124998975
        },
        {
          "name": "A4",
          "midi": 69,
          "time": 152.68961699999977,
          "velocity": 0.6299212598425197,
          "duration": 0.10258618124998975
        },
        {
          "name": "F4",
          "midi": 65,
          "time": 152.79306524999976,
          "velocity": 0.6299212598425197,
          "duration": 0.10258618124998975
        },
        {
          "name": "E4",
          "midi": 64,
          "time": 152.89651349999974,
          "velocity": 0.6299212598425197,
          "duration": 0.10258618124998975
        },
        {
          "name": "C4",
          "midi": 60,
          "time": 152.99996174999973,
          "velocity": 0.6299212598425197,
          "duration": 0.10258618124998975
        },
        {
          "name": "A4",
          "midi": 69,
          "time": 153.1034099999997,
          "velocity": 0.6299212598425197,
          "duration": 0.10258618124998975
        },
        {
          "name": "F4",
          "midi": 65,
          "time": 153.2068582499997,
          "velocity": 0.6299212598425197,
          "duration": 0.10258618124998975
        },
        {
          "name": "E4",
          "midi": 64,
          "time": 153.31030649999968,
          "velocity": 0.6299212598425197,
          "duration": 0.10258618124998975
        },
        {
          "name": "C4",
          "midi": 60,
          "time": 153.41375474999967,
          "velocity": 0.6299212598425197,
          "duration": 0.10258618124998975
        },
        {
          "name": "A4",
          "midi": 69,
          "time": 153.51720299999965,
          "velocity": 0.6299212598425197,
          "duration": 0.10258618124998975
        },
        {
          "name": "F4",
          "midi": 65,
          "time": 153.62065124999964,
          "velocity": 0.6299212598425197,
          "duration": 0.10258618124998975
        },
        {
          "name": "E4",
          "midi": 64,
          "time": 153.72409949999962,
          "velocity": 0.6299212598425197,
          "duration": 0.10258618124998975
        },
        {
          "name": "C4",
          "midi": 60,
          "time": 153.8275477499996,
          "velocity": 0.6299212598425197,
          "duration": 0.10258618124998975
        },
        {
          "name": "A4",
          "midi": 69,
          "time": 153.9309959999996,
          "velocity": 0.6299212598425197,
          "duration": 0.10258618124998975
        },
        {
          "name": "F4",
          "midi": 65,
          "time": 154.03444424999958,
          "velocity": 0.6299212598425197,
          "duration": 0.10258618124998975
        },
        {
          "name": "E4",
          "midi": 64,
          "time": 154.13789249999957,
          "velocity": 0.6299212598425197,
          "duration": 0.10258618124998975
        },
        {
          "name": "C4",
          "midi": 60,
          "time": 154.24134074999955,
          "velocity": 0.6299212598425197,
          "duration": 0.10258618124998975
        },
        {
          "name": "A4",
          "midi": 69,
          "time": 154.34478899999954,
          "velocity": 0.6299212598425197,
          "duration": 0.10258618124998975
        },
        {
          "name": "F4",
          "midi": 65,
          "time": 154.44823724999952,
          "velocity": 0.6299212598425197,
          "duration": 0.10258618124998975
        },
        {
          "name": "E4",
          "midi": 64,
          "time": 154.5516854999995,
          "velocity": 0.6299212598425197,
          "duration": 0.10258618124998975
        },
        {
          "name": "C4",
          "midi": 60,
          "time": 154.6551337499995,
          "velocity": 0.6299212598425197,
          "duration": 0.10258618124998975
        },
        {
          "name": "A4",
          "midi": 69,
          "time": 154.75858199999948,
          "velocity": 0.6299212598425197,
          "duration": 0.10258618124998975
        },
        {
          "name": "F4",
          "midi": 65,
          "time": 154.86203024999946,
          "velocity": 0.6299212598425197,
          "duration": 0.10258618124998975
        },
        {
          "name": "E4",
          "midi": 64,
          "time": 154.96547849999945,
          "velocity": 0.6299212598425197,
          "duration": 0.10258618124998975
        },
        {
          "name": "C4",
          "midi": 60,
          "time": 155.06892674999943,
          "velocity": 0.6299212598425197,
          "duration": 0.10258618124998975
        },
        {
          "name": "A4",
          "midi": 69,
          "time": 155.17237499999942,
          "velocity": 0.6299212598425197,
          "duration": 0.10258618124998975
        },
        {
          "name": "F4",
          "midi": 65,
          "time": 155.2758232499994,
          "velocity": 0.6299212598425197,
          "duration": 0.10258618124998975
        },
        {
          "name": "E4",
          "midi": 64,
          "time": 155.3792714999994,
          "velocity": 0.6299212598425197,
          "duration": 0.10258618124998975
        },
        {
          "name": "C4",
          "midi": 60,
          "time": 155.48271974999938,
          "velocity": 0.6299212598425197,
          "duration": 0.10258618124998975
        },
        {
          "name": "A4",
          "midi": 69,
          "time": 155.58616799999936,
          "velocity": 0.6299212598425197,
          "duration": 0.10258618124998975
        },
        {
          "name": "F4",
          "midi": 65,
          "time": 155.68961624999935,
          "velocity": 0.6299212598425197,
          "duration": 0.10258618124998975
        },
        {
          "name": "E4",
          "midi": 64,
          "time": 155.79306449999933,
          "velocity": 0.6299212598425197,
          "duration": 0.10258618124998975
        },
        {
          "name": "C4",
          "midi": 60,
          "time": 155.89651274999932,
          "velocity": 0.6299212598425197,
          "duration": 0.10258618124998975
        },
        {
          "name": "A4",
          "midi": 69,
          "time": 155.9999609999993,
          "velocity": 0.6299212598425197,
          "duration": 0.10258618124998975
        },
        {
          "name": "F4",
          "midi": 65,
          "time": 156.1034092499993,
          "velocity": 0.6299212598425197,
          "duration": 0.10258618124998975
        },
        {
          "name": "E4",
          "midi": 64,
          "time": 156.20685749999927,
          "velocity": 0.6299212598425197,
          "duration": 0.10258618124998975
        },
        {
          "name": "C4",
          "midi": 60,
          "time": 156.31030574999926,
          "velocity": 0.6299212598425197,
          "duration": 0.10258618124998975
        },
        {
          "name": "A4",
          "midi": 69,
          "time": 156.41375399999924,
          "velocity": 0.6299212598425197,
          "duration": 0.10258618124998975
        },
        {
          "name": "F4",
          "midi": 65,
          "time": 156.51720224999923,
          "velocity": 0.6299212598425197,
          "duration": 0.10258618124998975
        },
        {
          "name": "E4",
          "midi": 64,
          "time": 156.62065049999921,
          "velocity": 0.6299212598425197,
          "duration": 0.10258618124998975
        },
        {
          "name": "C4",
          "midi": 60,
          "time": 156.7240987499992,
          "velocity": 0.6299212598425197,
          "duration": 0.10258618124998975
        },
        {
          "name": "A4",
          "midi": 69,
          "time": 156.82754699999919,
          "velocity": 0.6299212598425197,
          "duration": 0.10258618124998975
        },
        {
          "name": "F4",
          "midi": 65,
          "time": 156.93099524999917,
          "velocity": 0.6299212598425197,
          "duration": 0.10258618124998975
        },
        {
          "name": "E4",
          "midi": 64,
          "time": 157.03444349999916,
          "velocity": 0.6299212598425197,
          "duration": 0.10258618124998975
        },
        {
          "name": "C4",
          "midi": 60,
          "time": 157.13789174999914,
          "velocity": 0.6299212598425197,
          "duration": 0.10258618124998975
        },
        {
          "name": "A4",
          "midi": 69,
          "time": 157.24133999999913,
          "velocity": 0.6299212598425197,
          "duration": 0.10258618124998975
        },
        {
          "name": "F4",
          "midi": 65,
          "time": 157.3447882499991,
          "velocity": 0.6299212598425197,
          "duration": 0.10258618124998975
        },
        {
          "name": "E4",
          "midi": 64,
          "time": 157.4482364999991,
          "velocity": 0.6299212598425197,
          "duration": 0.10258618124998975
        },
        {
          "name": "C4",
          "midi": 60,
          "time": 157.55168474999908,
          "velocity": 0.6299212598425197,
          "duration": 0.10258618124998975
        },
        {
          "name": "A4",
          "midi": 69,
          "time": 157.65513299999907,
          "velocity": 0.6299212598425197,
          "duration": 0.10258618124998975
        },
        {
          "name": "F4",
          "midi": 65,
          "time": 157.75858124999905,
          "velocity": 0.6299212598425197,
          "duration": 0.10258618124998975
        },
        {
          "name": "E4",
          "midi": 64,
          "time": 157.86202949999904,
          "velocity": 0.6299212598425197,
          "duration": 0.10258618124998975
        },
        {
          "name": "C4",
          "midi": 60,
          "time": 157.96547774999902,
          "velocity": 0.6299212598425197,
          "duration": 0.10258618124998975
        },
        {
          "name": "A4",
          "midi": 69,
          "time": 158.068925999999,
          "velocity": 0.6299212598425197,
          "duration": 0.10258618124998975
        },
        {
          "name": "F4",
          "midi": 65,
          "time": 158.172374249999,
          "velocity": 0.6299212598425197,
          "duration": 0.10258618124998975
        },
        {
          "name": "E4",
          "midi": 64,
          "time": 158.27582249999898,
          "velocity": 0.6299212598425197,
          "duration": 0.10258618124998975
        },
        {
          "name": "C4",
          "midi": 60,
          "time": 158.37927074999897,
          "velocity": 0.6299212598425197,
          "duration": 0.10258618124998975
        },
        {
          "name": "A4",
          "midi": 69,
          "time": 158.48271899999895,
          "velocity": 0.6299212598425197,
          "duration": 0.10258618124998975
        },
        {
          "name": "F4",
          "midi": 65,
          "time": 158.58616724999894,
          "velocity": 0.6299212598425197,
          "duration": 0.10258618124998975
        },
        {
          "name": "E4",
          "midi": 64,
          "time": 158.68961549999892,
          "velocity": 0.6299212598425197,
          "duration": 0.10258618124998975
        },
        {
          "name": "C4",
          "midi": 60,
          "time": 158.7930637499989,
          "velocity": 0.6299212598425197,
          "duration": 0.10258618124998975
        },
        {
          "name": "A4",
          "midi": 69,
          "time": 158.8965119999989,
          "velocity": 0.6299212598425197,
          "duration": 0.10258618124998975
        },
        {
          "name": "F4",
          "midi": 65,
          "time": 158.99996024999888,
          "velocity": 0.6299212598425197,
          "duration": 0.10258618124998975
        },
        {
          "name": "E4",
          "midi": 64,
          "time": 159.10340849999886,
          "velocity": 0.6299212598425197,
          "duration": 0.10258618124998975
        },
        {
          "name": "C4",
          "midi": 60,
          "time": 159.20685674999885,
          "velocity": 0.6299212598425197,
          "duration": 0.10258618124998975
        },
        {
          "name": "A4",
          "midi": 69,
          "time": 159.31030499999883,
          "velocity": 0.6299212598425197,
          "duration": 0.10258618124998975
        },
        {
          "name": "F4",
          "midi": 65,
          "time": 159.41375324999882,
          "velocity": 0.6299212598425197,
          "duration": 0.10258618124998975
        },
        {
          "name": "E4",
          "midi": 64,
          "time": 159.5172014999988,
          "velocity": 0.6299212598425197,
          "duration": 0.10258618124998975
        },
        {
          "name": "C4",
          "midi": 60,
          "time": 159.6206497499988,
          "velocity": 0.6299212598425197,
          "duration": 0.10258618124998975
        },
        {
          "name": "A4",
          "midi": 69,
          "time": 159.72409799999878,
          "velocity": 0.6299212598425197,
          "duration": 0.10258618124998975
        },
        {
          "name": "F4",
          "midi": 65,
          "time": 159.82754624999876,
          "velocity": 0.6299212598425197,
          "duration": 0.10258618124998975
        },
        {
          "name": "E4",
          "midi": 64,
          "time": 159.93099449999875,
          "velocity": 0.6299212598425197,
          "duration": 0.10258618124998975
        },
        {
          "name": "C4",
          "midi": 60,
          "time": 160.03444274999873,
          "velocity": 0.6299212598425197,
          "duration": 0.10258618124998975
        },
        {
          "name": "A4",
          "midi": 69,
          "time": 160.13789099999872,
          "velocity": 0.6299212598425197,
          "duration": 0.10258618124998975
        },
        {
          "name": "F4",
          "midi": 65,
          "time": 160.2413392499987,
          "velocity": 0.6299212598425197,
          "duration": 0.10258618124998975
        },
        {
          "name": "E4",
          "midi": 64,
          "time": 160.3447874999987,
          "velocity": 0.6299212598425197,
          "duration": 0.10258618124998975
        },
        {
          "name": "C4",
          "midi": 60,
          "time": 160.44823574999867,
          "velocity": 0.6299212598425197,
          "duration": 0.10258618124998975
        },
        {
          "name": "A4",
          "midi": 69,
          "time": 160.55168399999866,
          "velocity": 0.6299212598425197,
          "duration": 0.10258618124998975
        },
        {
          "name": "F4",
          "midi": 65,
          "time": 160.65513224999864,
          "velocity": 0.6299212598425197,
          "duration": 0.10258618124998975
        },
        {
          "name": "E4",
          "midi": 64,
          "time": 160.75858049999863,
          "velocity": 0.6299212598425197,
          "duration": 0.10258618124998975
        },
        {
          "name": "C4",
          "midi": 60,
          "time": 160.86202874999861,
          "velocity": 0.6299212598425197,
          "duration": 0.10258618124998975
        },
        {
          "name": "A4",
          "midi": 69,
          "time": 160.9654769999986,
          "velocity": 0.6299212598425197,
          "duration": 0.10258618124998975
        },
        {
          "name": "F4",
          "midi": 65,
          "time": 161.06892524999859,
          "velocity": 0.6299212598425197,
          "duration": 0.10258618124998975
        },
        {
          "name": "E4",
          "midi": 64,
          "time": 161.17237349999857,
          "velocity": 0.6299212598425197,
          "duration": 0.10258618124998975
        },
        {
          "name": "C4",
          "midi": 60,
          "time": 161.27582174999856,
          "velocity": 0.6299212598425197,
          "duration": 0.10258618124998975
        },
        {
          "name": "A4",
          "midi": 69,
          "time": 161.37926999999854,
          "velocity": 0.6299212598425197,
          "duration": 0.10258618124998975
        },
        {
          "name": "F4",
          "midi": 65,
          "time": 161.48271824999853,
          "velocity": 0.6299212598425197,
          "duration": 0.10258618124998975
        },
        {
          "name": "E4",
          "midi": 64,
          "time": 161.5861664999985,
          "velocity": 0.6299212598425197,
          "duration": 0.10258618124998975
        },
        {
          "name": "C4",
          "midi": 60,
          "time": 161.6896147499985,
          "velocity": 0.6299212598425197,
          "duration": 0.10258618124998975
        },
        {
          "name": "A4",
          "midi": 69,
          "time": 161.79306299999848,
          "velocity": 0.6299212598425197,
          "duration": 0.10258618124998975
        },
        {
          "name": "F4",
          "midi": 65,
          "time": 161.89651124999847,
          "velocity": 0.6299212598425197,
          "duration": 0.10258618124998975
        },
        {
          "name": "E4",
          "midi": 64,
          "time": 161.99995949999845,
          "velocity": 0.6299212598425197,
          "duration": 0.10258618124998975
        },
        {
          "name": "C4",
          "midi": 60,
          "time": 162.10340774999844,
          "velocity": 0.6299212598425197,
          "duration": 0.10258618124998975
        },
        {
          "name": "A4",
          "midi": 69,
          "time": 162.20685599999842,
          "velocity": 0.6299212598425197,
          "duration": 0.10258618124998975
        },
        {
          "name": "F4",
          "midi": 65,
          "time": 162.3103042499984,
          "velocity": 0.6299212598425197,
          "duration": 0.10258618124998975
        },
        {
          "name": "E4",
          "midi": 64,
          "time": 162.4137524999984,
          "velocity": 0.6299212598425197,
          "duration": 0.10258618124998975
        },
        {
          "name": "C4",
          "midi": 60,
          "time": 162.51720074999838,
          "velocity": 0.6299212598425197,
          "duration": 0.10258618124998975
        },
        {
          "name": "A4",
          "midi": 69,
          "time": 162.62064899999837,
          "velocity": 0.6299212598425197,
          "duration": 0.10258618124998975
        },
        {
          "name": "F4",
          "midi": 65,
          "time": 162.72409724999835,
          "velocity": 0.6299212598425197,
          "duration": 0.10258618124998975
        },
        {
          "name": "E4",
          "midi": 64,
          "time": 162.82754549999834,
          "velocity": 0.6299212598425197,
          "duration": 0.10258618124998975
        },
        {
          "name": "C4",
          "midi": 60,
          "time": 162.93099374999832,
          "velocity": 0.6299212598425197,
          "duration": 0.10258618124998975
        },
        {
          "name": "A4",
          "midi": 69,
          "time": 163.0344419999983,
          "velocity": 0.6299212598425197,
          "duration": 0.10258618124998975
        },
        {
          "name": "F4",
          "midi": 65,
          "time": 163.1378902499983,
          "velocity": 0.6299212598425197,
          "duration": 0.10258618124998975
        },
        {
          "name": "E4",
          "midi": 64,
          "time": 163.24133849999828,
          "velocity": 0.6299212598425197,
          "duration": 0.10258618124998975
        },
        {
          "name": "C4",
          "midi": 60,
          "time": 163.34478674999826,
          "velocity": 0.6299212598425197,
          "duration": 0.10258618124998975
        },
        {
          "name": "A4",
          "midi": 69,
          "time": 163.44823499999825,
          "velocity": 0.6299212598425197,
          "duration": 0.10258618124998975
        },
        {
          "name": "F4",
          "midi": 65,
          "time": 163.55168324999823,
          "velocity": 0.6299212598425197,
          "duration": 0.10258618124998975
        },
        {
          "name": "E4",
          "midi": 64,
          "time": 163.65513149999822,
          "velocity": 0.6299212598425197,
          "duration": 0.10258618124998975
        },
        {
          "name": "C4",
          "midi": 60,
          "time": 163.7585797499982,
          "velocity": 0.6299212598425197,
          "duration": 0.10258618124998975
        },
        {
          "name": "C4",
          "midi": 60,
          "time": 163.8620279999982,
          "velocity": 0.6299212598425197,
          "duration": 0.3094826812499889
        },
        {
          "name": "E4",
          "midi": 64,
          "time": 163.8620279999982,
          "velocity": 0.6299212598425197,
          "duration": 0.3094826812499889
        },
        {
          "name": "F4",
          "midi": 65,
          "time": 163.8620279999982,
          "velocity": 0.6299212598425197,
          "duration": 0.3094826812499889
        },
        {
          "name": "A4",
          "midi": 69,
          "time": 164.17237274999817,
          "velocity": 0.6299212598425197,
          "duration": 0.3094826812499889
        },
        {
          "name": "A4",
          "midi": 69,
          "time": 164.48271749999816,
          "velocity": 0.6299212598425197,
          "duration": 0.20603443125000354
        },
        {
          "name": "A4",
          "midi": 69,
          "time": 164.68961399999816,
          "velocity": 0.6299212598425197,
          "duration": 0.20603443125000354
        },
        {
          "name": "A4",
          "midi": 69,
          "time": 164.89651049999816,
          "velocity": 0.6299212598425197,
          "duration": 0.20603443125000354
        },
        {
          "name": "A4",
          "midi": 69,
          "time": 165.10340699999816,
          "velocity": 0.6299212598425197,
          "duration": 0.20603443125000354
        },
        {
          "name": "F4",
          "midi": 65,
          "time": 165.31030349999816,
          "velocity": 0.6299212598425197,
          "duration": 0.20603443125000354
        },
        {
          "name": "C4",
          "midi": 60,
          "time": 165.51719999999816,
          "velocity": 0.6299212598425197,
          "duration": 0.3094826812499889
        },
        {
          "name": "E4",
          "midi": 64,
          "time": 165.51719999999816,
          "velocity": 0.6299212598425197,
          "duration": 0.3094826812499889
        },
        {
          "name": "F4",
          "midi": 65,
          "time": 165.51719999999816,
          "velocity": 0.6299212598425197,
          "duration": 0.3094826812499889
        },
        {
          "name": "A4",
          "midi": 69,
          "time": 165.82754474999814,
          "velocity": 0.6299212598425197,
          "duration": 0.3094826812499889
        },
        {
          "name": "A4",
          "midi": 69,
          "time": 166.13788949999812,
          "velocity": 0.6299212598425197,
          "duration": 0.20603443125000354
        },
        {
          "name": "A4",
          "midi": 69,
          "time": 166.34478599999812,
          "velocity": 0.6299212598425197,
          "duration": 0.20603443125000354
        },
        {
          "name": "A4",
          "midi": 69,
          "time": 166.55168249999812,
          "velocity": 0.6299212598425197,
          "duration": 0.20603443125000354
        },
        {
          "name": "A4",
          "midi": 69,
          "time": 166.75857899999812,
          "velocity": 0.6299212598425197,
          "duration": 0.4129309312500027
        },
        {
          "name": "C4",
          "midi": 60,
          "time": 167.17237199999812,
          "velocity": 0.6299212598425197,
          "duration": 0.3094826812499889
        },
        {
          "name": "E4",
          "midi": 64,
          "time": 167.17237199999812,
          "velocity": 0.6299212598425197,
          "duration": 0.3094826812499889
        },
        {
          "name": "F4",
          "midi": 65,
          "time": 167.17237199999812,
          "velocity": 0.6299212598425197,
          "duration": 0.3094826812499889
        },
        {
          "name": "A4",
          "midi": 69,
          "time": 167.4827167499981,
          "velocity": 0.6299212598425197,
          "duration": 0.3094826812499889
        },
        {
          "name": "A4",
          "midi": 69,
          "time": 167.7930614999981,
          "velocity": 0.6299212598425197,
          "duration": 0.20603443125000354
        },
        {
          "name": "A4",
          "midi": 69,
          "time": 167.9999579999981,
          "velocity": 0.6299212598425197,
          "duration": 0.20603443125000354
        },
        {
          "name": "A4",
          "midi": 69,
          "time": 168.2068544999981,
          "velocity": 0.6299212598425197,
          "duration": 0.20603443125000354
        },
        {
          "name": "A4",
          "midi": 69,
          "time": 168.4137509999981,
          "velocity": 0.6299212598425197,
          "duration": 0.20603443125000354
        },
        {
          "name": "F4",
          "midi": 65,
          "time": 168.62064749999809,
          "velocity": 0.6299212598425197,
          "duration": 0.20603443125000354
        },
        {
          "name": "C4",
          "midi": 60,
          "time": 168.82754399999808,
          "velocity": 0.6299212598425197,
          "duration": 0.3094826812499889
        },
        {
          "name": "E4",
          "midi": 64,
          "time": 168.82754399999808,
          "velocity": 0.6299212598425197,
          "duration": 0.3094826812499889
        },
        {
          "name": "F4",
          "midi": 65,
          "time": 168.82754399999808,
          "velocity": 0.6299212598425197,
          "duration": 0.3094826812499889
        },
        {
          "name": "A4",
          "midi": 69,
          "time": 169.13788874999807,
          "velocity": 0.6299212598425197,
          "duration": 0.3094826812499889
        },
        {
          "name": "A4",
          "midi": 69,
          "time": 169.44823349999805,
          "velocity": 0.6299212598425197,
          "duration": 0.20603443125000354
        },
        {
          "name": "A4",
          "midi": 69,
          "time": 169.65512999999805,
          "velocity": 0.6299212598425197,
          "duration": 0.20603443125000354
        },
        {
          "name": "A4",
          "midi": 69,
          "time": 169.86202649999805,
          "velocity": 0.6299212598425197,
          "duration": 0.20603443125000354
        },
        {
          "name": "A4",
          "midi": 69,
          "time": 170.06892299999805,
          "velocity": 0.6299212598425197,
          "duration": 0.4129309312500027
        },
        {
          "name": "C4",
          "midi": 60,
          "time": 170.48271599999805,
          "velocity": 0.6299212598425197,
          "duration": 0.3094826812499889
        },
        {
          "name": "E4",
          "midi": 64,
          "time": 170.48271599999805,
          "velocity": 0.6299212598425197,
          "duration": 0.3094826812499889
        },
        {
          "name": "F4",
          "midi": 65,
          "time": 170.48271599999805,
          "velocity": 0.6299212598425197,
          "duration": 0.3094826812499889
        },
        {
          "name": "A4",
          "midi": 69,
          "time": 170.79306074999803,
          "velocity": 0.6299212598425197,
          "duration": 0.3094826812499889
        },
        {
          "name": "A4",
          "midi": 69,
          "time": 171.10340549999802,
          "velocity": 0.6299212598425197,
          "duration": 0.20603443125000354
        },
        {
          "name": "A4",
          "midi": 69,
          "time": 171.31030199999802,
          "velocity": 0.6299212598425197,
          "duration": 0.20603443125000354
        },
        {
          "name": "A4",
          "midi": 69,
          "time": 171.51719849999802,
          "velocity": 0.6299212598425197,
          "duration": 0.20603443125000354
        },
        {
          "name": "A4",
          "midi": 69,
          "time": 171.72409499999802,
          "velocity": 0.6299212598425197,
          "duration": 0.20603443125000354
        },
        {
          "name": "F4",
          "midi": 65,
          "time": 171.93099149999802,
          "velocity": 0.6299212598425197,
          "duration": 0.20603443125000354
        },
        {
          "name": "C4",
          "midi": 60,
          "time": 172.13788799999801,
          "velocity": 0.6299212598425197,
          "duration": 0.3094826812499889
        },
        {
          "name": "E4",
          "midi": 64,
          "time": 172.13788799999801,
          "velocity": 0.6299212598425197,
          "duration": 0.3094826812499889
        },
        {
          "name": "F4",
          "midi": 65,
          "time": 172.13788799999801,
          "velocity": 0.6299212598425197,
          "duration": 0.3094826812499889
        },
        {
          "name": "A4",
          "midi": 69,
          "time": 172.448232749998,
          "velocity": 0.6299212598425197,
          "duration": 0.3094826812499889
        },
        {
          "name": "A4",
          "midi": 69,
          "time": 172.75857749999798,
          "velocity": 0.6299212598425197,
          "duration": 0.20603443125000354
        },
        {
          "name": "A4",
          "midi": 69,
          "time": 172.96547399999798,
          "velocity": 0.6299212598425197,
          "duration": 0.20603443125000354
        },
        {
          "name": "A4",
          "midi": 69,
          "time": 173.17237049999798,
          "velocity": 0.6299212598425197,
          "duration": 0.20603443125000354
        },
        {
          "name": "A4",
          "midi": 69,
          "time": 173.37926699999798,
          "velocity": 0.6299212598425197,
          "duration": 0.4129309312500027
        },
        {
          "name": "C4",
          "midi": 60,
          "time": 173.79305999999798,
          "velocity": 0.6299212598425197,
          "duration": 0.3094826812499889
        },
        {
          "name": "E4",
          "midi": 64,
          "time": 173.79305999999798,
          "velocity": 0.6299212598425197,
          "duration": 0.3094826812499889
        },
        {
          "name": "F4",
          "midi": 65,
          "time": 173.79305999999798,
          "velocity": 0.6299212598425197,
          "duration": 0.3094826812499889
        },
        {
          "name": "A4",
          "midi": 69,
          "time": 174.10340474999796,
          "velocity": 0.6299212598425197,
          "duration": 0.3094826812499889
        },
        {
          "name": "A4",
          "midi": 69,
          "time": 174.41374949999795,
          "velocity": 0.6299212598425197,
          "duration": 0.20603443125000354
        },
        {
          "name": "A4",
          "midi": 69,
          "time": 174.62064599999795,
          "velocity": 0.6299212598425197,
          "duration": 0.20603443125000354
        },
        {
          "name": "A4",
          "midi": 69,
          "time": 174.82754249999795,
          "velocity": 0.6299212598425197,
          "duration": 0.20603443125000354
        },
        {
          "name": "A4",
          "midi": 69,
          "time": 175.03443899999795,
          "velocity": 0.6299212598425197,
          "duration": 0.20603443125000354
        },
        {
          "name": "F4",
          "midi": 65,
          "time": 175.24133549999794,
          "velocity": 0.6299212598425197,
          "duration": 0.20603443125000354
        },
        {
          "name": "C4",
          "midi": 60,
          "time": 175.44823199999794,
          "velocity": 0.6299212598425197,
          "duration": 0.3094826812499889
        },
        {
          "name": "E4",
          "midi": 64,
          "time": 175.44823199999794,
          "velocity": 0.6299212598425197,
          "duration": 0.3094826812499889
        },
        {
          "name": "F4",
          "midi": 65,
          "time": 175.44823199999794,
          "velocity": 0.6299212598425197,
          "duration": 0.3094826812499889
        },
        {
          "name": "A4",
          "midi": 69,
          "time": 175.75857674999793,
          "velocity": 0.6299212598425197,
          "duration": 0.3094826812499889
        },
        {
          "name": "A4",
          "midi": 69,
          "time": 176.0689214999979,
          "velocity": 0.6299212598425197,
          "duration": 0.20603443125000354
        },
        {
          "name": "A4",
          "midi": 69,
          "time": 176.2758179999979,
          "velocity": 0.6299212598425197,
          "duration": 0.20603443125000354
        },
        {
          "name": "A4",
          "midi": 69,
          "time": 176.4827144999979,
          "velocity": 0.6299212598425197,
          "duration": 0.20603443125000354
        },
        {
          "name": "A4",
          "midi": 69,
          "time": 176.6896109999979,
          "velocity": 0.6299212598425197,
          "duration": 0.4129309312500027
        },
        {
          "name": "C4",
          "midi": 60,
          "time": 177.1034039999979,
          "velocity": 0.6299212598425197,
          "duration": 0.20603443125000354
        },
        {
          "name": "E4",
          "midi": 64,
          "time": 177.3103004999979,
          "velocity": 0.6299212598425197,
          "duration": 0.20603443125000354
        },
        {
          "name": "F4",
          "midi": 65,
          "time": 177.5171969999979,
          "velocity": 0.6299212598425197,
          "duration": 0.20603443125000354
        },
        {
          "name": "C4",
          "midi": 60,
          "time": 177.7240934999979,
          "velocity": 0.6299212598425197,
          "duration": 0.20603443125000354
        },
        {
          "name": "E4",
          "midi": 64,
          "time": 177.9309899999979,
          "velocity": 0.6299212598425197,
          "duration": 0.20603443125000354
        },
        {
          "name": "F4",
          "midi": 65,
          "time": 178.1378864999979,
          "velocity": 0.6299212598425197,
          "duration": 0.20603443125000354
        },
        {
          "name": "C4",
          "midi": 60,
          "time": 178.3447829999979,
          "velocity": 0.6299212598425197,
          "duration": 0.20603443125000354
        },
        {
          "name": "F4",
          "midi": 65,
          "time": 178.5516794999979,
          "velocity": 0.6299212598425197,
          "duration": 0.20603443125000354
        },
        {
          "name": "E4",
          "midi": 64,
          "time": 178.7585759999979,
          "velocity": 0.6299212598425197,
          "duration": 0.20603443125000354
        },
        {
          "name": "F4",
          "midi": 65,
          "time": 178.9654724999979,
          "velocity": 0.6299212598425197,
          "duration": 0.20603443125000354
        },
        {
          "name": "A4",
          "midi": 69,
          "time": 179.1723689999979,
          "velocity": 0.6299212598425197,
          "duration": 0.20603443125000354
        },
        {
          "name": "E4",
          "midi": 64,
          "time": 179.3792654999979,
          "velocity": 0.6299212598425197,
          "duration": 0.20603443125000354
        },
        {
          "name": "F4",
          "midi": 65,
          "time": 179.5861619999979,
          "velocity": 0.6299212598425197,
          "duration": 0.20603443125000354
        },
        {
          "name": "A4",
          "midi": 69,
          "time": 179.7930584999979,
          "velocity": 0.6299212598425197,
          "duration": 0.20603443125000354
        },
        {
          "name": "E4",
          "midi": 64,
          "time": 179.9999549999979,
          "velocity": 0.6299212598425197,
          "duration": 0.20603443125000354
        },
        {
          "name": "F4",
          "midi": 65,
          "time": 180.2068514999979,
          "velocity": 0.6299212598425197,
          "duration": 0.20603443125000354
        },
        {
          "name": "C4",
          "midi": 60,
          "time": 180.4137479999979,
          "velocity": 0.6299212598425197,
          "duration": 0.20603443125000354
        },
        {
          "name": "E4",
          "midi": 64,
          "time": 180.6206444999979,
          "velocity": 0.6299212598425197,
          "duration": 0.20603443125000354
        },
        {
          "name": "F4",
          "midi": 65,
          "time": 180.8275409999979,
          "velocity": 0.6299212598425197,
          "duration": 0.20603443125000354
        },
        {
          "name": "C4",
          "midi": 60,
          "time": 181.0344374999979,
          "velocity": 0.6299212598425197,
          "duration": 0.20603443125000354
        },
        {
          "name": "E4",
          "midi": 64,
          "time": 181.2413339999979,
          "velocity": 0.6299212598425197,
          "duration": 0.20603443125000354
        },
        {
          "name": "F4",
          "midi": 65,
          "time": 181.4482304999979,
          "velocity": 0.6299212598425197,
          "duration": 0.20603443125000354
        },
        {
          "name": "C4",
          "midi": 60,
          "time": 181.6551269999979,
          "velocity": 0.6299212598425197,
          "duration": 0.20603443125000354
        },
        {
          "name": "F4",
          "midi": 65,
          "time": 181.8620234999979,
          "velocity": 0.6299212598425197,
          "duration": 0.20603443125000354
        },
        {
          "name": "E4",
          "midi": 64,
          "time": 182.0689199999979,
          "velocity": 0.6299212598425197,
          "duration": 0.20603443125000354
        },
        {
          "name": "F4",
          "midi": 65,
          "time": 182.2758164999979,
          "velocity": 0.6299212598425197,
          "duration": 0.20603443125000354
        },
        {
          "name": "A4",
          "midi": 69,
          "time": 182.4827129999979,
          "velocity": 0.6299212598425197,
          "duration": 0.20603443125000354
        },
        {
          "name": "E4",
          "midi": 64,
          "time": 182.68960949999789,
          "velocity": 0.6299212598425197,
          "duration": 0.20603443125000354
        },
        {
          "name": "F4",
          "midi": 65,
          "time": 182.89650599999788,
          "velocity": 0.6299212598425197,
          "duration": 0.20603443125000354
        },
        {
          "name": "A4",
          "midi": 69,
          "time": 183.10340249999788,
          "velocity": 0.6299212598425197,
          "duration": 0.20603443125000354
        },
        {
          "name": "E4",
          "midi": 64,
          "time": 183.31029899999788,
          "velocity": 0.6299212598425197,
          "duration": 0.20603443125000354
        },
        {
          "name": "F4",
          "midi": 65,
          "time": 183.51719549999788,
          "velocity": 0.6299212598425197,
          "duration": 0.20603443125000354
        },
        {
          "name": "C4",
          "midi": 60,
          "time": 183.72409199999788,
          "velocity": 0.6299212598425197,
          "duration": 0.20603443125000354
        },
        {
          "name": "E4",
          "midi": 64,
          "time": 183.93098849999788,
          "velocity": 0.6299212598425197,
          "duration": 0.20603443125000354
        },
        {
          "name": "F4",
          "midi": 65,
          "time": 184.13788499999788,
          "velocity": 0.6299212598425197,
          "duration": 0.20603443125000354
        },
        {
          "name": "C4",
          "midi": 60,
          "time": 184.34478149999788,
          "velocity": 0.6299212598425197,
          "duration": 0.20603443125000354
        },
        {
          "name": "E4",
          "midi": 64,
          "time": 184.55167799999788,
          "velocity": 0.6299212598425197,
          "duration": 0.20603443125000354
        },
        {
          "name": "F4",
          "midi": 65,
          "time": 184.75857449999788,
          "velocity": 0.6299212598425197,
          "duration": 0.20603443125000354
        },
        {
          "name": "C4",
          "midi": 60,
          "time": 184.96547099999788,
          "velocity": 0.6299212598425197,
          "duration": 0.20603443125000354
        },
        {
          "name": "F4",
          "midi": 65,
          "time": 185.17236749999788,
          "velocity": 0.6299212598425197,
          "duration": 0.20603443125000354
        },
        {
          "name": "E4",
          "midi": 64,
          "time": 185.37926399999787,
          "velocity": 0.6299212598425197,
          "duration": 0.20603443125000354
        },
        {
          "name": "F4",
          "midi": 65,
          "time": 185.58616049999787,
          "velocity": 0.6299212598425197,
          "duration": 0.20603443125000354
        },
        {
          "name": "A4",
          "midi": 69,
          "time": 185.79305699999787,
          "velocity": 0.6299212598425197,
          "duration": 0.20603443125000354
        },
        {
          "name": "E4",
          "midi": 64,
          "time": 185.99995349999787,
          "velocity": 0.6299212598425197,
          "duration": 0.20603443125000354
        },
        {
          "name": "F4",
          "midi": 65,
          "time": 186.20684999999787,
          "velocity": 0.6299212598425197,
          "duration": 0.20603443125000354
        },
        {
          "name": "A4",
          "midi": 69,
          "time": 186.41374649999787,
          "velocity": 0.6299212598425197,
          "duration": 0.20603443125000354
        },
        {
          "name": "E4",
          "midi": 64,
          "time": 186.62064299999787,
          "velocity": 0.6299212598425197,
          "duration": 0.20603443125000354
        },
        {
          "name": "F4",
          "midi": 65,
          "time": 186.82753949999787,
          "velocity": 0.6299212598425197,
          "duration": 0.20603443125000354
        },
        {
          "name": "A4",
          "midi": 69,
          "time": 187.03443599999787,
          "velocity": 0.6299212598425197,
          "duration": 0.20603443125000354
        },
        {
          "name": "A4",
          "midi": 69,
          "time": 187.24133249999787,
          "velocity": 0.6299212598425197,
          "duration": 0.10258618124998975
        },
        {
          "name": "F4",
          "midi": 65,
          "time": 187.34478074999785,
          "velocity": 0.6299212598425197,
          "duration": 0.10258618124998975
        },
        {
          "name": "A4",
          "midi": 69,
          "time": 187.44822899999784,
          "velocity": 0.6299212598425197,
          "duration": 0.20603443125000354
        },
        {
          "name": "A4",
          "midi": 69,
          "time": 187.65512549999784,
          "velocity": 0.6299212598425197,
          "duration": 0.20603443125000354
        },
        {
          "name": "A4",
          "midi": 69,
          "time": 187.86202199999784,
          "velocity": 0.6299212598425197,
          "duration": 0.20603443125000354
        },
        {
          "name": "A4",
          "midi": 69,
          "time": 188.06891849999784,
          "velocity": 0.6299212598425197,
          "duration": 0.20603443125000354
        },
        {
          "name": "A4",
          "midi": 69,
          "time": 188.27581499999783,
          "velocity": 0.6299212598425197,
          "duration": 0.20603443125000354
        },
        {
          "name": "F4",
          "midi": 65,
          "time": 188.48271149999783,
          "velocity": 0.6299212598425197,
          "duration": 0.20603443125000354
        },
        {
          "name": "F4",
          "midi": 65,
          "time": 188.68960799999783,
          "velocity": 0.6299212598425197,
          "duration": 0.10258618124998975
        },
        {
          "name": "E4",
          "midi": 64,
          "time": 188.79305624999782,
          "velocity": 0.6299212598425197,
          "duration": 0.10258618124998975
        },
        {
          "name": "F4",
          "midi": 65,
          "time": 188.8965044999978,
          "velocity": 0.6299212598425197,
          "duration": 0.10258618124998975
        },
        {
          "name": "E4",
          "midi": 64,
          "time": 188.9999527499978,
          "velocity": 0.6299212598425197,
          "duration": 0.10258618124998975
        },
        {
          "name": "F4",
          "midi": 65,
          "time": 189.10340099999777,
          "velocity": 0.6299212598425197,
          "duration": 0.20603443125000354
        },
        {
          "name": "E4",
          "midi": 64,
          "time": 189.31029749999777,
          "velocity": 0.6299212598425197,
          "duration": 0.20603443125000354
        },
        {
          "name": "C4",
          "midi": 60,
          "time": 189.51719399999777,
          "velocity": 0.6299212598425197,
          "duration": 0.4129309312500027
        },
        {
          "name": "C4",
          "midi": 60,
          "time": 189.93098699999777,
          "velocity": 0.6299212598425197,
          "duration": 0.4129309312500027
        },
        {
          "name": "E4",
          "midi": 64,
          "time": 189.93098699999777,
          "velocity": 0.6299212598425197,
          "duration": 0.4129309312500027
        },
        {
          "name": "F4",
          "midi": 65,
          "time": 189.93098699999777,
          "velocity": 0.6299212598425197,
          "duration": 0.4129309312500027
        },
        {
          "name": "A4",
          "midi": 69,
          "time": 189.93098699999777,
          "velocity": 0.6299212598425197,
          "duration": 0.4129309312500027
        },
        {
          "name": "C4",
          "midi": 60,
          "time": 190.34477999999777,
          "velocity": 0.6299212598425197,
          "duration": 0.4129309312500027
        },
        {
          "name": "E4",
          "midi": 64,
          "time": 190.34477999999777,
          "velocity": 0.6299212598425197,
          "duration": 0.4129309312500027
        },
        {
          "name": "F4",
          "midi": 65,
          "time": 190.34477999999777,
          "velocity": 0.6299212598425197,
          "duration": 0.4129309312500027
        },
        {
          "name": "A4",
          "midi": 69,
          "time": 190.75857299999777,
          "velocity": 0.6299212598425197,
          "duration": 0.20603443125000354
        },
        {
          "name": "F4",
          "midi": 65,
          "time": 190.96546949999777,
          "velocity": 0.6299212598425197,
          "duration": 0.20603443125000354
        },
        {
          "name": "E4",
          "midi": 64,
          "time": 191.17236599999777,
          "velocity": 0.6299212598425197,
          "duration": 0.4129309312500027
        },
        {
          "name": "C4",
          "midi": 60,
          "time": 191.58615899999776,
          "velocity": 0.6299212598425197,
          "duration": 0.4129309312500027
        },
        {
          "name": "C4",
          "midi": 60,
          "time": 192.41374499999776,
          "velocity": 0.6299212598425197,
          "duration": 0.20603443125000354
        },
        {
          "name": "E4",
          "midi": 64,
          "time": 192.62064149999776,
          "velocity": 0.6299212598425197,
          "duration": 0.20603443125000354
        },
        {
          "name": "F4",
          "midi": 65,
          "time": 192.82753799999776,
          "velocity": 0.6299212598425197,
          "duration": 0.4129309312500027
        },
        {
          "name": "C4",
          "midi": 60,
          "time": 193.24133099999776,
          "velocity": 0.6299212598425197,
          "duration": 0.4129309312500027
        },
        {
          "name": "C4",
          "midi": 60,
          "time": 193.65512399999776,
          "velocity": 0.6299212598425197,
          "duration": 0.4129309312500027
        },
        {
          "name": "E4",
          "midi": 64,
          "time": 193.65512399999776,
          "velocity": 0.6299212598425197,
          "duration": 0.4129309312500027
        },
        {
          "name": "F4",
          "midi": 65,
          "time": 193.65512399999776,
          "velocity": 0.6299212598425197,
          "duration": 0.4129309312500027
        },
        {
          "name": "A4",
          "midi": 69,
          "time": 194.06891699999775,
          "velocity": 0.6299212598425197,
          "duration": 0.20603443125000354
        },
        {
          "name": "F4",
          "midi": 65,
          "time": 194.27581349999775,
          "velocity": 0.6299212598425197,
          "duration": 0.20603443125000354
        },
        {
          "name": "E4",
          "midi": 64,
          "time": 194.48270999999775,
          "velocity": 0.6299212598425197,
          "duration": 0.4129309312500027
        },
        {
          "name": "C4",
          "midi": 60,
          "time": 194.89650299999775,
          "velocity": 0.6299212598425197,
          "duration": 0.4129309312500027
        },
        {
          "name": "C4",
          "midi": 60,
          "time": 195.72408899999775,
          "velocity": 0.6299212598425197,
          "duration": 0.20603443125000354
        },
        {
          "name": "E4",
          "midi": 64,
          "time": 195.93098549999775,
          "velocity": 0.6299212598425197,
          "duration": 0.20603443125000354
        },
        {
          "name": "F4",
          "midi": 65,
          "time": 196.13788199999775,
          "velocity": 0.6299212598425197,
          "duration": 0.4129309312500027
        },
        {
          "name": "C4",
          "midi": 60,
          "time": 196.55167499999774,
          "velocity": 0.6299212598425197,
          "duration": 0.4129309312500027
        },
        {
          "name": "C4",
          "midi": 60,
          "time": 196.96546799999774,
          "velocity": 0.6299212598425197,
          "duration": 0.4129309312500027
        },
        {
          "name": "E4",
          "midi": 64,
          "time": 196.96546799999774,
          "velocity": 0.6299212598425197,
          "duration": 0.4129309312500027
        },
        {
          "name": "F4",
          "midi": 65,
          "time": 196.96546799999774,
          "velocity": 0.6299212598425197,
          "duration": 0.4129309312500027
        },
        {
          "name": "A4",
          "midi": 69,
          "time": 197.37926099999774,
          "velocity": 0.6299212598425197,
          "duration": 0.20603443125000354
        },
        {
          "name": "F4",
          "midi": 65,
          "time": 197.58615749999774,
          "velocity": 0.6299212598425197,
          "duration": 0.20603443125000354
        },
        {
          "name": "E4",
          "midi": 64,
          "time": 197.79305399999774,
          "velocity": 0.6299212598425197,
          "duration": 0.4129309312500027
        },
        {
          "name": "C4",
          "midi": 60,
          "time": 198.20684699999774,
          "velocity": 0.6299212598425197,
          "duration": 0.4129309312500027
        },
        {
          "name": "C4",
          "midi": 60,
          "time": 199.03443299999773,
          "velocity": 0.6299212598425197,
          "duration": 0.20603443125000354
        },
        {
          "name": "E4",
          "midi": 64,
          "time": 199.24132949999773,
          "velocity": 0.6299212598425197,
          "duration": 0.20603443125000354
        },
        {
          "name": "F4",
          "midi": 65,
          "time": 199.44822599999773,
          "velocity": 0.6299212598425197,
          "duration": 0.4129309312500027
        },
        {
          "name": "C4",
          "midi": 60,
          "time": 199.86201899999773,
          "velocity": 0.6299212598425197,
          "duration": 0.4129309312500027
        },
        {
          "name": "A4",
          "midi": 69,
          "time": 200.27581199999773,
          "velocity": 0.6299212598425197,
          "duration": 0.20603443125000354
        },
        {
          "name": "A4",
          "midi": 69,
          "time": 200.48270849999773,
          "velocity": 0.6299212598425197,
          "duration": 0.10258618124998975
        },
        {
          "name": "F4",
          "midi": 65,
          "time": 200.5861567499977,
          "velocity": 0.6299212598425197,
          "duration": 0.10258618124998975
        },
        {
          "name": "A4",
          "midi": 69,
          "time": 200.6896049999977,
          "velocity": 0.6299212598425197,
          "duration": 0.20603443125000354
        },
        {
          "name": "A4",
          "midi": 69,
          "time": 200.8965014999977,
          "velocity": 0.6299212598425197,
          "duration": 0.20603443125000354
        },
        {
          "name": "A4",
          "midi": 69,
          "time": 201.1033979999977,
          "velocity": 0.6299212598425197,
          "duration": 0.20603443125000354
        },
        {
          "name": "A4",
          "midi": 69,
          "time": 201.3102944999977,
          "velocity": 0.6299212598425197,
          "duration": 0.20603443125000354
        },
        {
          "name": "A4",
          "midi": 69,
          "time": 201.5171909999977,
          "velocity": 0.6299212598425197,
          "duration": 0.20603443125000354
        },
        {
          "name": "F4",
          "midi": 65,
          "time": 201.7240874999977,
          "velocity": 0.6299212598425197,
          "duration": 0.20603443125000354
        },
        {
          "name": "F4",
          "midi": 65,
          "time": 201.9309839999977,
          "velocity": 0.6299212598425197,
          "duration": 0.10258618124998975
        },
        {
          "name": "E4",
          "midi": 64,
          "time": 202.03443224999768,
          "velocity": 0.6299212598425197,
          "duration": 0.10258618124998975
        },
        {
          "name": "F4",
          "midi": 65,
          "time": 202.13788049999766,
          "velocity": 0.6299212598425197,
          "duration": 0.10258618124998975
        },
        {
          "name": "E4",
          "midi": 64,
          "time": 202.24132874999765,
          "velocity": 0.6299212598425197,
          "duration": 0.10258618124998975
        },
        {
          "name": "F4",
          "midi": 65,
          "time": 202.34477699999763,
          "velocity": 0.6299212598425197,
          "duration": 0.20603443125000354
        },
        {
          "name": "E4",
          "midi": 64,
          "time": 202.55167349999763,
          "velocity": 0.6299212598425197,
          "duration": 0.20603443125000354
        },
        {
          "name": "C4",
          "midi": 60,
          "time": 202.75856999999763,
          "velocity": 0.6299212598425197,
          "duration": 0.20603443125000354
        },
        {
          "name": "C4",
          "midi": 60,
          "time": 202.96546649999763,
          "velocity": 0.6299212598425197,
          "duration": 0.20603443125000354
        },
        {
          "name": "E4",
          "midi": 64,
          "time": 202.96546649999763,
          "velocity": 0.6299212598425197,
          "duration": 0.20603443125000354
        },
        {
          "name": "C4",
          "midi": 60,
          "time": 203.17236299999763,
          "velocity": 0.6299212598425197,
          "duration": 0.20603443125000354
        },
        {
          "name": "E4",
          "midi": 64,
          "time": 203.17236299999763,
          "velocity": 0.6299212598425197,
          "duration": 0.20603443125000354
        },
        {
          "name": "C4",
          "midi": 60,
          "time": 203.37925949999763,
          "velocity": 0.6299212598425197,
          "duration": 0.20603443125000354
        },
        {
          "name": "E4",
          "midi": 64,
          "time": 203.37925949999763,
          "velocity": 0.6299212598425197,
          "duration": 0.20603443125000354
        },
        {
          "name": "C4",
          "midi": 60,
          "time": 203.58615599999763,
          "velocity": 0.6299212598425197,
          "duration": 0.4129309312500027
        },
        {
          "name": "E4",
          "midi": 64,
          "time": 203.58615599999763,
          "velocity": 0.6299212598425197,
          "duration": 0.4129309312500027
        },
        {
          "name": "F4",
          "midi": 65,
          "time": 203.58615599999763,
          "velocity": 0.6299212598425197,
          "duration": 0.4129309312500027
        },
        {
          "name": "A4",
          "midi": 69,
          "time": 203.99994899999763,
          "velocity": 0.6299212598425197,
          "duration": 0.20603443125000354
        },
        {
          "name": "F4",
          "midi": 65,
          "time": 204.20684549999763,
          "velocity": 0.6299212598425197,
          "duration": 0.20603443125000354
        },
        {
          "name": "E4",
          "midi": 64,
          "time": 204.41374199999763,
          "velocity": 0.6299212598425197,
          "duration": 0.4129309312500027
        },
        {
          "name": "C4",
          "midi": 60,
          "time": 204.82753499999762,
          "velocity": 0.6299212598425197,
          "duration": 0.4129309312500027
        },
        {
          "name": "C4",
          "midi": 60,
          "time": 205.65512099999762,
          "velocity": 0.6299212598425197,
          "duration": 0.20603443125000354
        },
        {
          "name": "E4",
          "midi": 64,
          "time": 205.86201749999762,
          "velocity": 0.6299212598425197,
          "duration": 0.20603443125000354
        },
        {
          "name": "F4",
          "midi": 65,
          "time": 206.06891399999762,
          "velocity": 0.6299212598425197,
          "duration": 0.4129309312500027
        },
        {
          "name": "C4",
          "midi": 60,
          "time": 206.48270699999762,
          "velocity": 0.6299212598425197,
          "duration": 0.4129309312500027
        },
        {
          "name": "C4",
          "midi": 60,
          "time": 206.89649999999762,
          "velocity": 0.6299212598425197,
          "duration": 0.4129309312500027
        },
        {
          "name": "E4",
          "midi": 64,
          "time": 206.89649999999762,
          "velocity": 0.6299212598425197,
          "duration": 0.4129309312500027
        },
        {
          "name": "F4",
          "midi": 65,
          "time": 206.89649999999762,
          "velocity": 0.6299212598425197,
          "duration": 0.4129309312500027
        },
        {
          "name": "A4",
          "midi": 69,
          "time": 207.3102929999976,
          "velocity": 0.6299212598425197,
          "duration": 0.20603443125000354
        },
        {
          "name": "F4",
          "midi": 65,
          "time": 207.5171894999976,
          "velocity": 0.6299212598425197,
          "duration": 0.20603443125000354
        },
        {
          "name": "E4",
          "midi": 64,
          "time": 207.7240859999976,
          "velocity": 0.6299212598425197,
          "duration": 0.4129309312500027
        },
        {
          "name": "C4",
          "midi": 60,
          "time": 208.1378789999976,
          "velocity": 0.6299212598425197,
          "duration": 0.4129309312500027
        },
        {
          "name": "C4",
          "midi": 60,
          "time": 208.9654649999976,
          "velocity": 0.6299212598425197,
          "duration": 0.20603443125000354
        },
        {
          "name": "E4",
          "midi": 64,
          "time": 209.1723614999976,
          "velocity": 0.6299212598425197,
          "duration": 0.20603443125000354
        },
        {
          "name": "F4",
          "midi": 65,
          "time": 209.3792579999976,
          "velocity": 0.6299212598425197,
          "duration": 0.4129309312500027
        },
        {
          "name": "C4",
          "midi": 60,
          "time": 209.7930509999976,
          "velocity": 0.6299212598425197,
          "duration": 0.4129309312500027
        },
        {
          "name": "C4",
          "midi": 60,
          "time": 210.2068439999976,
          "velocity": 0.6299212598425197,
          "duration": 0.4129309312500027
        },
        {
          "name": "E4",
          "midi": 64,
          "time": 210.2068439999976,
          "velocity": 0.6299212598425197,
          "duration": 0.4129309312500027
        },
        {
          "name": "F4",
          "midi": 65,
          "time": 210.2068439999976,
          "velocity": 0.6299212598425197,
          "duration": 0.4129309312500027
        },
        {
          "name": "A4",
          "midi": 69,
          "time": 210.6206369999976,
          "velocity": 0.6299212598425197,
          "duration": 0.20603443125000354
        },
        {
          "name": "F4",
          "midi": 65,
          "time": 210.8275334999976,
          "velocity": 0.6299212598425197,
          "duration": 0.20603443125000354
        },
        {
          "name": "E4",
          "midi": 64,
          "time": 211.0344299999976,
          "velocity": 0.6299212598425197,
          "duration": 0.4129309312500027
        },
        {
          "name": "C4",
          "midi": 60,
          "time": 211.4482229999976,
          "velocity": 0.6299212598425197,
          "duration": 0.4129309312500027
        },
        {
          "name": "C4",
          "midi": 60,
          "time": 212.2758089999976,
          "velocity": 0.6299212598425197,
          "duration": 0.20603443125000354
        },
        {
          "name": "E4",
          "midi": 64,
          "time": 212.4827054999976,
          "velocity": 0.6299212598425197,
          "duration": 0.20603443125000354
        },
        {
          "name": "F4",
          "midi": 65,
          "time": 212.6896019999976,
          "velocity": 0.6299212598425197,
          "duration": 0.4129309312500027
        },
        {
          "name": "C4",
          "midi": 60,
          "time": 213.1033949999976,
          "velocity": 0.6299212598425197,
          "duration": 0.4129309312500027
        },
        {
          "name": "A4",
          "midi": 69,
          "time": 213.5171879999976,
          "velocity": 0.6299212598425197,
          "duration": 0.20603443125000354
        },
        {
          "name": "A4",
          "midi": 69,
          "time": 213.7240844999976,
          "velocity": 0.6299212598425197,
          "duration": 0.10258618124998975
        },
        {
          "name": "F4",
          "midi": 65,
          "time": 213.82753274999757,
          "velocity": 0.6299212598425197,
          "duration": 0.10258618124998975
        },
        {
          "name": "A4",
          "midi": 69,
          "time": 213.93098099999756,
          "velocity": 0.6299212598425197,
          "duration": 0.20603443125000354
        },
        {
          "name": "A4",
          "midi": 69,
          "time": 214.13787749999756,
          "velocity": 0.6299212598425197,
          "duration": 0.20603443125000354
        },
        {
          "name": "A4",
          "midi": 69,
          "time": 214.34477399999756,
          "velocity": 0.6299212598425197,
          "duration": 0.20603443125000354
        },
        {
          "name": "A4",
          "midi": 69,
          "time": 214.55167049999756,
          "velocity": 0.6299212598425197,
          "duration": 0.20603443125000354
        },
        {
          "name": "A4",
          "midi": 69,
          "time": 214.75856699999756,
          "velocity": 0.6299212598425197,
          "duration": 0.20603443125000354
        },
        {
          "name": "F4",
          "midi": 65,
          "time": 214.96546349999755,
          "velocity": 0.6299212598425197,
          "duration": 0.20603443125000354
        },
        {
          "name": "F4",
          "midi": 65,
          "time": 215.17235999999755,
          "velocity": 0.6299212598425197,
          "duration": 0.10258618124998975
        },
        {
          "name": "E4",
          "midi": 64,
          "time": 215.27580824999754,
          "velocity": 0.6299212598425197,
          "duration": 0.10258618124998975
        },
        {
          "name": "F4",
          "midi": 65,
          "time": 215.37925649999752,
          "velocity": 0.6299212598425197,
          "duration": 0.10258618124998975
        },
        {
          "name": "E4",
          "midi": 64,
          "time": 215.4827047499975,
          "velocity": 0.6299212598425197,
          "duration": 0.10258618124998975
        },
        {
          "name": "F4",
          "midi": 65,
          "time": 215.5861529999975,
          "velocity": 0.6299212598425197,
          "duration": 0.20603443125000354
        },
        {
          "name": "E4",
          "midi": 64,
          "time": 215.7930494999975,
          "velocity": 0.6299212598425197,
          "duration": 0.20603443125000354
        },
        {
          "name": "C4",
          "midi": 60,
          "time": 215.9999459999975,
          "velocity": 0.6299212598425197,
          "duration": 0.20603443125000354
        },
        {
          "name": "C4",
          "midi": 60,
          "time": 216.2068424999975,
          "velocity": 0.6299212598425197,
          "duration": 0.20603443125000354
        },
        {
          "name": "E4",
          "midi": 64,
          "time": 216.2068424999975,
          "velocity": 0.6299212598425197,
          "duration": 0.20603443125000354
        },
        {
          "name": "C4",
          "midi": 60,
          "time": 216.4137389999975,
          "velocity": 0.6299212598425197,
          "duration": 0.20603443125000354
        },
        {
          "name": "E4",
          "midi": 64,
          "time": 216.4137389999975,
          "velocity": 0.6299212598425197,
          "duration": 0.20603443125000354
        },
        {
          "name": "C4",
          "midi": 60,
          "time": 216.6206354999975,
          "velocity": 0.6299212598425197,
          "duration": 0.20603443125000354
        },
        {
          "name": "E4",
          "midi": 64,
          "time": 216.6206354999975,
          "velocity": 0.6299212598425197,
          "duration": 0.20603443125000354
        },
        {
          "name": "C4",
          "midi": 60,
          "time": 216.8275319999975,
          "velocity": 0.6299212598425197,
          "duration": 0.6198274312500018
        },
        {
          "name": "C4",
          "midi": 60,
          "time": 217.4482214999975,
          "velocity": 0.6299212598425197,
          "duration": 0.20603443125000354
        },
        {
          "name": "A4",
          "midi": 69,
          "time": 217.6551179999975,
          "velocity": 0.6299212598425197,
          "duration": 0.826723931250001
        },
        {
          "name": "C4",
          "midi": 60,
          "time": 218.89649699999748,
          "velocity": 0.6299212598425197,
          "duration": 0.4129309312500027
        },
        {
          "name": "A4",
          "midi": 69,
          "time": 219.31028999999748,
          "velocity": 0.6299212598425197,
          "duration": 0.826723931250001
        },
        {
          "name": "C4",
          "midi": 60,
          "time": 220.13787599999748,
          "velocity": 0.6299212598425197,
          "duration": 0.6198274312500018
        },
        {
          "name": "C4",
          "midi": 60,
          "time": 220.75856549999747,
          "velocity": 0.6299212598425197,
          "duration": 0.20603443125000354
        },
        {
          "name": "A4",
          "midi": 69,
          "time": 220.96546199999747,
          "velocity": 0.6299212598425197,
          "duration": 0.826723931250001
        },
        {
          "name": "C4",
          "midi": 60,
          "time": 222.20684099999747,
          "velocity": 0.6299212598425197,
          "duration": 0.4129309312500027
        },
        {
          "name": "A4",
          "midi": 69,
          "time": 222.62063399999747,
          "velocity": 0.6299212598425197,
          "duration": 0.826723931250001
        },
        {
          "name": "C4",
          "midi": 60,
          "time": 223.44821999999746,
          "velocity": 0.6299212598425197,
          "duration": 0.6198274312500018
        },
        {
          "name": "C4",
          "midi": 60,
          "time": 224.06890949999746,
          "velocity": 0.6299212598425197,
          "duration": 0.20603443125000354
        },
        {
          "name": "A4",
          "midi": 69,
          "time": 224.27580599999746,
          "velocity": 0.6299212598425197,
          "duration": 0.826723931250001
        },
        {
          "name": "C4",
          "midi": 60,
          "time": 225.51718499999745,
          "velocity": 0.6299212598425197,
          "duration": 0.4129309312500027
        },
        {
          "name": "A4",
          "midi": 69,
          "time": 225.93097799999745,
          "velocity": 0.6299212598425197,
          "duration": 0.826723931250001
        },
        {
          "name": "C4",
          "midi": 60,
          "time": 226.75856399999745,
          "velocity": 0.6299212598425197,
          "duration": 0.6198274312500018
        },
        {
          "name": "C4",
          "midi": 60,
          "time": 227.37925349999745,
          "velocity": 0.6299212598425197,
          "duration": 0.20603443125000354
        },
        {
          "name": "A4",
          "midi": 69,
          "time": 227.58614999999745,
          "velocity": 0.6299212598425197,
          "duration": 0.826723931250001
        },
        {
          "name": "C4",
          "midi": 60,
          "time": 228.82752899999744,
          "velocity": 0.6299212598425197,
          "duration": 0.4129309312500027
        }
      ],
      "controlChanges": {
        "6": [
          {
            "number": 6,
            "time": 0,
            "value": 0.09448818897637795
          }
        ],
        "7": [
          {
            "number": 7,
            "time": 0,
            "value": 0.7874015748031497
          }
        ],
        "10": [
          {
            "number": 10,
            "time": 0,
            "value": 0.5039370078740157
          }
        ],
        "91": [
          {
            "number": 91,
            "time": 0,
            "value": 0
          }
        ],
        "93": [
          {
            "number": 93,
            "time": 0,
            "value": 0
          }
        ],
        "100": [
          {
            "number": 100,
            "time": 0,
            "value": 0
          },
          {
            "number": 100,
            "time": 0,
            "value": 1
          }
        ],
        "101": [
          {
            "number": 101,
            "time": 0,
            "value": 0
          },
          {
            "number": 101,
            "time": 0,
            "value": 1
          }
        ],
        "121": [
          {
            "number": 121,
            "time": 0,
            "value": 0
          }
        ]
      },
      "id": 0,
      "name": "Piano",
      "instrumentNumber": 0,
      "instrument": "acoustic grand piano",
      "instrumentFamily": "piano",
      "channelNumber": 0,
      "isPercussion": false
    },
    {
      "startTime": 0,
      "duration": 0,
      "length": 0,
      "notes": [],
      "controlChanges": {},
      "id": 1,
      "name": "Piano"
    }
  ]
}