{
  "header": {
    "PPQ": 480,
    "timeSignature": [
      4,
      4
    ],
    "bpm": 126.000126000126,
    "name": "Piano"
  },
  "tempo": [
    {
      "absoluteTime": 0,
      "seconds": 0,
      "bpm": 126.000126000126
    }
  ],
  "timeSignature": [
    {
      "absoluteTime": 0,
      "seconds": 0,
      "numerator": 4,
      "denominator": 2,
      "click": 24,
      "notesQ": 8
    }
  ],
  "startTime": 0,
  "duration": 175.23692793750033,
  "tracks": [
    {
      "startTime": 1.4285700000000001,
      "duration": 175.23692793750033,
      "length": 514,
      "notes": [
        {
          "name": "C4",
          "midi": 60,
          "time": 1.4285700000000001,
          "velocity": 0.6299212598425197,
          "duration": 0.2371029375
        },
        {
          "name": "E4",
          "midi": 64,
          "time": 1.666665,
          "velocity": 0.6299212598425197,
          "duration": 0.2371029375
        },
        {
          "name": "C4",
          "midi": 60,
          "time": 3.33333,
          "velocity": 0.6299212598425197,
          "duration": 0.2371029375
        },
        {
          "name": "E4",
          "midi": 64,
          "time": 3.571425,
          "velocity": 0.6299212598425197,
          "duration": 0.2371029375
        },
        {
          "name": "C4",
          "midi": 60,
          "time": 5.23809,
          "velocity": 0.6299212598425197,
          "duration": 0.23710293749999956
        },
        {
          "name": "E4",
          "midi": 64,
          "time": 5.476184999999999,
          "velocity": 0.6299212598425197,
          "duration": 0.23710293749999956
        },
        {
          "name": "C4",
          "midi": 60,
          "time": 7.142849999999998,
          "velocity": 0.6299212598425197,
          "duration": 0.23710293750000044
        },
        {
          "name": "E4",
          "midi": 64,
          "time": 7.380944999999999,
          "velocity": 0.6299212598425197,
          "duration": 0.23710293749999956
        },
        {
          "name": "C4",
          "midi": 60,
          "time": 9.047609999999999,
          "velocity": 0.6299212598425197,
          "duration": 0.23710293749999956
        },
        {
          "name": "E4",
          "midi": 64,
          "time": 9.285704999999998,
          "velocity": 0.6299212598425197,
          "duration": 0.23710293749999956
        },
        {
          "name": "C4",
          "midi": 60,
          "time": 10.952369999999998,
          "velocity": 0.6299212598425197,
          "duration": 0.23710293749999956
        },
        {
          "name": "E4",
          "midi": 64,
          "time": 11.190464999999998,
          "velocity": 0.6299212598425197,
          "duration": 0.23710293749999956
        },
        {
          "name": "C4",
          "midi": 60,
          "time": 12.857129999999998,
          "velocity": 0.6299212598425197,
          "duration": 0.23710293749999956
        },
        {
          "name": "E4",
          "midi": 64,
          "time": 13.095224999999997,
          "velocity": 0.6299212598425197,
          "duration": 0.23710293749999956
        },
        {
          "name": "C4",
          "midi": 60,
          "time": 14.761889999999998,
          "velocity": 0.6299212598425197,
          "duration": 0.23710293749999956
        },
        {
          "name": "E4",
          "midi": 64,
          "time": 14.999984999999997,
          "velocity": 0.6299212598425197,
          "duration": 0.23710293749999956
        },
        {
          "name": "F4",
          "midi": 65,
          "time": 16.428554999999996,
          "velocity": 0.6299212598425197,
          "duration": 0.23710293750000133
        },
        {
          "name": "A4",
          "midi": 69,
          "time": 16.666649999999997,
          "velocity": 0.6299212598425197,
          "duration": 0.23710293750000133
        },
        {
          "name": "F4",
          "midi": 65,
          "time": 16.904745,
          "velocity": 0.6299212598425197,
          "duration": 0.23710293750000133
        },
        {
          "name": "F4",
          "midi": 65,
          "time": 17.14284,
          "velocity": 0.6299212598425197,
          "duration": 0.23710293750000133
        },
        {
          "name": "A4",
          "midi": 69,
          "time": 17.380935,
          "velocity": 0.6299212598425197,
          "duration": 0.23710293750000133
        },
        {
          "name": "F4",
          "midi": 65,
          "time": 17.619030000000002,
          "velocity": 0.6299212598425197,
          "duration": 0.23710293750000133
        },
        {
          "name": "A4",
          "midi": 69,
          "time": 17.857125000000003,
          "velocity": 0.6299212598425197,
          "duration": 0.23710293750000133
        },
        {
          "name": "C4",
          "midi": 60,
          "time": 18.095220000000005,
          "velocity": 0.6299212598425197,
          "duration": 0.23710293750000133
        },
        {
          "name": "E4",
          "midi": 64,
          "time": 18.333315000000006,
          "velocity": 0.6299212598425197,
          "duration": 0.23710293750000133
        },
        {
          "name": "C4",
          "midi": 60,
          "time": 18.571410000000007,
          "velocity": 0.6299212598425197,
          "duration": 0.23710293750000133
        },
        {
          "name": "E4",
          "midi": 64,
          "time": 18.80950500000001,
          "velocity": 0.6299212598425197,
          "duration": 0.23710293750000133
        },
        {
          "name": "C4",
          "midi": 60,
          "time": 19.04760000000001,
          "velocity": 0.6299212598425197,
          "duration": 0.23710293750000133
        },
        {
          "name": "E4",
          "midi": 64,
          "time": 19.28569500000001,
          "velocity": 0.6299212598425197,
          "duration": 0.23710293750000133
        },
        {
          "name": "C4",
          "midi": 60,
          "time": 19.523790000000012,
          "velocity": 0.6299212598425197,
          "duration": 0.23710293750000133
        },
        {
          "name": "E4",
          "midi": 64,
          "time": 19.761885000000014,
          "velocity": 0.6299212598425197,
          "duration": 0.23710293750000133
        },
        {
          "name": "A4",
          "midi": 69,
          "time": 20.238075000000016,
          "velocity": 0.6299212598425197,
          "duration": 0.23710293750000133
        },
        {
          "name": "F4",
          "midi": 65,
          "time": 20.476170000000018,
          "velocity": 0.6299212598425197,
          "duration": 0.23710293750000133
        },
        {
          "name": "A4",
          "midi": 69,
          "time": 20.71426500000002,
          "velocity": 0.6299212598425197,
          "duration": 0.23710293750000133
        },
        {
          "name": "F4",
          "midi": 65,
          "time": 20.95236000000002,
          "velocity": 0.6299212598425197,
          "duration": 0.23710293750000133
        },
        {
          "name": "A4",
          "midi": 69,
          "time": 21.19045500000002,
          "velocity": 0.6299212598425197,
          "duration": 0.23710293750000133
        },
        {
          "name": "F4",
          "midi": 65,
          "time": 21.428550000000023,
          "velocity": 0.6299212598425197,
          "duration": 0.23710293750000133
        },
        {
          "name": "A4",
          "midi": 69,
          "time": 21.666645000000024,
          "velocity": 0.6299212598425197,
          "duration": 0.23710293750000133
        },
        {
          "name": "F4",
          "midi": 65,
          "time": 21.904740000000025,
          "velocity": 0.6299212598425197,
          "duration": 0.23710293750000133
        },
        {
          "name": "A4",
          "midi": 69,
          "time": 22.142835000000026,
          "velocity": 0.6299212598425197,
          "duration": 0.23710293750000133
        },
        {
          "name": "F4",
          "midi": 65,
          "time": 22.380930000000028,
          "velocity": 0.6299212598425197,
          "duration": 0.11805543750000069
        },
        {
          "name": "F4",
          "midi": 65,
          "time": 22.49997750000003,
          "velocity": 0.6299212598425197,
          "duration": 0.11805543750000069
        },
        {
          "name": "F4",
          "midi": 65,
          "time": 22.61902500000003,
          "velocity": 0.6299212598425197,
          "duration": 0.11805543750000069
        },
        {
          "name": "F4",
          "midi": 65,
          "time": 22.73807250000003,
          "velocity": 0.6299212598425197,
          "duration": 0.11805543750000069
        },
        {
          "name": "F4",
          "midi": 65,
          "time": 22.85712000000003,
          "velocity": 0.6299212598425197,
          "duration": 0.11805543750000069
        },
        {
          "name": "F4",
          "midi": 65,
          "time": 22.97616750000003,
          "velocity": 0.6299212598425197,
          "duration": 0.11805543750000069
        },
        {
          "name": "F4",
          "midi": 65,
          "time": 23.09521500000003,
          "velocity": 0.6299212598425197,
          "duration": 0.11805543750000069
        },
        {
          "name": "F4",
          "midi": 65,
          "time": 23.214262500000032,
          "velocity": 0.6299212598425197,
          "duration": 0.11805543750000069
        },
        {
          "name": "F4",
          "midi": 65,
          "time": 23.333310000000033,
          "velocity": 0.6299212598425197,
          "duration": 0.11805543750000069
        },
        {
          "name": "F4",
          "midi": 65,
          "time": 23.452357500000033,
          "velocity": 0.6299212598425197,
          "duration": 0.11805543750000069
        },
        {
          "name": "F4",
          "midi": 65,
          "time": 23.571405000000034,
          "velocity": 0.6299212598425197,
          "duration": 0.11805543750000069
        },
        {
          "name": "F4",
          "midi": 65,
          "time": 23.690452500000035,
          "velocity": 0.6299212598425197,
          "duration": 0.11805543750000069
        },
        {
          "name": "F4",
          "midi": 65,
          "time": 23.809500000000035,
          "velocity": 0.6299212598425197,
          "duration": 0.11805543750000069
        },
        {
          "name": "F4",
          "midi": 65,
          "time": 23.928547500000036,
          "velocity": 0.6299212598425197,
          "duration": 0.11805543750000069
        },
        {
          "name": "F4",
          "midi": 65,
          "time": 24.047595000000037,
          "velocity": 0.6299212598425197,
          "duration": 0.11805543750000069
        },
        {
          "name": "F4",
          "midi": 65,
          "time": 24.166642500000037,
          "velocity": 0.6299212598425197,
          "duration": 0.47519793749999906
        },
        {
          "name": "C4",
          "midi": 60,
          "time": 25.238070000000036,
          "velocity": 0.6299212598425197,
          "duration": 0.47519793749999906
        },
        {
          "name": "A4",
          "midi": 69,
          "time": 25.238070000000036,
          "velocity": 0.6299212598425197,
          "duration": 0.47519793749999906
        },
        {
          "name": "C4",
          "midi": 60,
          "time": 25.714260000000035,
          "velocity": 0.6299212598425197,
          "duration": 0.47519793749999906
        },
        {
          "name": "A4",
          "midi": 69,
          "time": 25.714260000000035,
          "velocity": 0.6299212598425197,
          "duration": 0.47519793749999906
        },
        {
          "name": "C4",
          "midi": 60,
          "time": 26.190450000000034,
          "velocity": 0.6299212598425197,
          "duration": 0.47519793749999906
        },
        {
          "name": "A4",
          "midi": 69,
          "time": 26.190450000000034,
          "velocity": 0.6299212598425197,
          "duration": 0.47519793749999906
        },
        {
          "name": "C4",
          "midi": 60,
          "time": 27.142830000000032,
          "velocity": 0.6299212598425197,
          "duration": 0.47519793749999906
        },
        {
          "name": "E4",
          "midi": 64,
          "time": 27.61902000000003,
          "velocity": 0.6299212598425197,
          "duration": 0.47519793749999906
        },
        {
          "name": "C4",
          "midi": 60,
          "time": 28.09521000000003,
          "velocity": 0.6299212598425197,
          "duration": 0.47519793749999906
        },
        {
          "name": "E4",
          "midi": 64,
          "time": 28.57140000000003,
          "velocity": 0.6299212598425197,
          "duration": 0.47519793749999906
        },
        {
          "name": "C4",
          "midi": 60,
          "time": 29.047590000000028,
          "velocity": 0.6299212598425197,
          "duration": 0.47519793749999906
        },
        {
          "name": "A4",
          "midi": 69,
          "time": 29.047590000000028,
          "velocity": 0.6299212598425197,
          "duration": 0.47519793749999906
        },
        {
          "name": "C4",
          "midi": 60,
          "time": 29.523780000000027,
          "velocity": 0.6299212598425197,
          "duration": 0.47519793749999906
        },
        {
          "name": "A4",
          "midi": 69,
          "time": 29.523780000000027,
          "velocity": 0.6299212598425197,
          "duration": 0.47519793749999906
        },
        {
          "name": "C4",
          "midi": 60,
          "time": 29.999970000000026,
          "velocity": 0.6299212598425197,
          "duration": 0.47519793749999906
        },
        {
          "name": "A4",
          "midi": 69,
          "time": 29.999970000000026,
          "velocity": 0.6299212598425197,
          "duration": 0.47519793749999906
        },
        {
          "name": "C4",
          "midi": 60,
          "time": 30.952350000000024,
          "velocity": 0.6299212598425197,
          "duration": 0.47519793749999906
        },
        {
          "name": "E4",
          "midi": 64,
          "time": 31.428540000000023,
          "velocity": 0.6299212598425197,
          "duration": 0.47519793749999906
        },
        {
          "name": "C4",
          "midi": 60,
          "time": 31.904730000000022,
          "velocity": 0.6299212598425197,
          "duration": 0.47519793749999906
        },
        {
          "name": "E4",
          "midi": 64,
          "time": 32.380920000000025,
          "velocity": 0.6299212598425197,
          "duration": 0.47519793749999906
        },
        {
          "name": "C4",
          "midi": 60,
          "time": 32.85711000000003,
          "velocity": 0.6299212598425197,
          "duration": 0.47519793749999906
        },
        {
          "name": "A4",
          "midi": 69,
          "time": 32.85711000000003,
          "velocity": 0.6299212598425197,
          "duration": 0.47519793749999906
        },
        {
          "name": "C4",
          "midi": 60,
          "time": 33.33330000000003,
          "velocity": 0.6299212598425197,
          "duration": 0.47519793749999906
        },
        {
          "name": "A4",
          "midi": 69,
          "time": 33.33330000000003,
          "velocity": 0.6299212598425197,
          "duration": 0.47519793749999906
        },
        {
          "name": "C4",
          "midi": 60,
          "time": 33.80949000000003,
          "velocity": 0.6299212598425197,
          "duration": 0.47519793749999906
        },
        {
          "name": "A4",
          "midi": 69,
          "time": 33.80949000000003,
          "velocity": 0.6299212598425197,
          "duration": 0.47519793749999906
        },
        {
          "name": "C4",
          "midi": 60,
          "time": 34.76187000000003,
          "velocity": 0.6299212598425197,
          "duration": 0.47519793749999906
        },
        {
          "name": "E4",
          "midi": 64,
          "time": 35.23806000000003,
          "velocity": 0.6299212598425197,
          "duration": 0.47519793749999906
        },
        {
          "name": "C4",
          "midi": 60,
          "time": 35.714250000000035,
          "velocity": 0.6299212598425197,
          "duration": 0.47519793749999906
        },
        {
          "name": "E4",
          "midi": 64,
          "time": 36.19044000000004,
          "velocity": 0.6299212598425197,
          "duration": 0.47519793749999906
        },
        {
          "name": "C4",
          "midi": 60,
          "time": 36.66663000000004,
          "velocity": 0.6299212598425197,
          "duration": 0.47519793749999906
        },
        {
          "name": "F4",
          "midi": 65,
          "time": 37.14282000000004,
          "velocity": 0.6299212598425197,
          "duration": 0.47519793749999906
        },
        {
          "name": "A4",
          "midi": 69,
          "time": 37.619010000000046,
          "velocity": 0.6299212598425197,
          "duration": 0.47519793749999906
        },
        {
          "name": "A4",
          "midi": 69,
          "time": 38.09520000000005,
          "velocity": 0.6299212598425197,
          "duration": 0.47519793749999906
        },
        {
          "name": "A4",
          "midi": 69,
          "time": 38.57139000000005,
          "velocity": 0.6299212598425197,
          "duration": 0.47519793749999906
        },
        {
          "name": "F4",
          "midi": 65,
          "time": 39.28567500000005,
          "velocity": 0.6299212598425197,
          "duration": 0.23710293749999778
        },
        {
          "name": "C4",
          "midi": 60,
          "time": 39.52377000000005,
          "velocity": 0.6299212598425197,
          "duration": 0.23710293749999778
        },
        {
          "name": "A4",
          "midi": 69,
          "time": 39.76186500000005,
          "velocity": 0.6299212598425197,
          "duration": 0.23710293749999778
        },
        {
          "name": "C4",
          "midi": 60,
          "time": 39.99996000000005,
          "velocity": 0.6299212598425197,
          "duration": 0.47519793749999906
        },
        {
          "name": "A4",
          "midi": 69,
          "time": 40.476150000000054,
          "velocity": 0.6299212598425197,
          "duration": 0.47519793749999906
        },
        {
          "name": "F4",
          "midi": 65,
          "time": 40.952340000000056,
          "velocity": 0.6299212598425197,
          "duration": 0.23710293749999778
        },
        {
          "name": "F4",
          "midi": 65,
          "time": 41.19043500000006,
          "velocity": 0.6299212598425197,
          "duration": 0.23710293749999778
        },
        {
          "name": "A4",
          "midi": 69,
          "time": 41.42853000000006,
          "velocity": 0.6299212598425197,
          "duration": 0.47519793749999906
        },
        {
          "name": "F4",
          "midi": 65,
          "time": 41.90472000000006,
          "velocity": 0.6299212598425197,
          "duration": 0.47519793749999906
        },
        {
          "name": "C4",
          "midi": 60,
          "time": 42.85710000000006,
          "velocity": 0.6299212598425197,
          "duration": 0.23710293749999778
        },
        {
          "name": "E4",
          "midi": 64,
          "time": 43.09519500000006,
          "velocity": 0.6299212598425197,
          "duration": 0.23710293749999778
        },
        {
          "name": "A4",
          "midi": 69,
          "time": 43.33329000000006,
          "velocity": 0.6299212598425197,
          "duration": 0.47519793749999906
        },
        {
          "name": "C4",
          "midi": 60,
          "time": 43.809480000000065,
          "velocity": 0.6299212598425197,
          "duration": 0.23710293749999778
        },
        {
          "name": "E4",
          "midi": 64,
          "time": 44.047575000000066,
          "velocity": 0.6299212598425197,
          "duration": 0.23710293749999778
        },
        {
          "name": "F4",
          "midi": 65,
          "time": 44.28567000000007,
          "velocity": 0.6299212598425197,
          "duration": 0.47519793749999906
        },
        {
          "name": "C4",
          "midi": 60,
          "time": 44.76186000000007,
          "velocity": 0.6299212598425197,
          "duration": 0.23710293749999778
        },
        {
          "name": "E4",
          "midi": 64,
          "time": 44.99995500000007,
          "velocity": 0.6299212598425197,
          "duration": 0.23710293749999778
        },
        {
          "name": "A4",
          "midi": 69,
          "time": 45.23805000000007,
          "velocity": 0.6299212598425197,
          "duration": 0.47519793749999906
        },
        {
          "name": "C4",
          "midi": 60,
          "time": 45.714240000000075,
          "velocity": 0.6299212598425197,
          "duration": 0.23710293749999778
        },
        {
          "name": "E4",
          "midi": 64,
          "time": 45.952335000000076,
          "velocity": 0.6299212598425197,
          "duration": 0.23710293749999778
        },
        {
          "name": "A4",
          "midi": 69,
          "time": 46.19043000000008,
          "velocity": 0.6299212598425197,
          "duration": 0.47519793749999906
        },
        {
          "name": "F4",
          "midi": 65,
          "time": 46.66662000000008,
          "velocity": 0.6299212598425197,
          "duration": 0.47519793749999906
        },
        {
          "name": "A4",
          "midi": 69,
          "time": 47.14281000000008,
          "velocity": 0.6299212598425197,
          "duration": 0.47519793749999906
        },
        {
          "name": "C4",
          "midi": 60,
          "time": 47.619000000000085,
          "velocity": 0.6299212598425197,
          "duration": 0.47519793749999906
        },
        {
          "name": "A4",
          "midi": 69,
          "time": 48.09519000000009,
          "velocity": 0.6299212598425197,
          "duration": 0.47519793749999906
        },
        {
          "name": "F4",
          "midi": 65,
          "time": 48.57138000000009,
          "velocity": 0.6299212598425197,
          "duration": 0.23710293749999778
        },
        {
          "name": "F4",
          "midi": 65,
          "time": 48.80947500000009,
          "velocity": 0.6299212598425197,
          "duration": 0.23710293749999778
        },
        {
          "name": "A4",
          "midi": 69,
          "time": 49.04757000000009,
          "velocity": 0.6299212598425197,
          "duration": 0.47519793749999906
        },
        {
          "name": "F4",
          "midi": 65,
          "time": 49.523760000000095,
          "velocity": 0.6299212598425197,
          "duration": 0.47519793749999906
        },
        {
          "name": "C4",
          "midi": 60,
          "time": 50.47614000000009,
          "velocity": 0.6299212598425197,
          "duration": 0.23710293749999778
        },
        {
          "name": "E4",
          "midi": 64,
          "time": 50.714235000000095,
          "velocity": 0.6299212598425197,
          "duration": 0.23710293749999778
        },
        {
          "name": "A4",
          "midi": 69,
          "time": 50.952330000000096,
          "velocity": 0.6299212598425197,
          "duration": 0.47519793749999906
        },
        {
          "name": "C4",
          "midi": 60,
          "time": 51.4285200000001,
          "velocity": 0.6299212598425197,
          "duration": 0.23710293749999778
        },
        {
          "name": "E4",
          "midi": 64,
          "time": 51.6666150000001,
          "velocity": 0.6299212598425197,
          "duration": 0.23710293749999778
        },
        {
          "name": "F4",
          "midi": 65,
          "time": 51.9047100000001,
          "velocity": 0.6299212598425197,
          "duration": 0.47519793749999906
        },
        {
          "name": "C4",
          "midi": 60,
          "time": 52.3809000000001,
          "velocity": 0.6299212598425197,
          "duration": 0.23710293749999778
        },
        {
          "name": "E4",
          "midi": 64,
          "time": 52.618995000000105,
          "velocity": 0.6299212598425197,
          "duration": 0.23710293749999778
        },
        {
          "name": "A4",
          "midi": 69,
          "time": 52.857090000000106,
          "velocity": 0.6299212598425197,
          "duration": 0.47519793749999906
        },
        {
          "name": "C4",
          "midi": 60,
          "time": 53.33328000000011,
          "velocity": 0.6299212598425197,
          "duration": 0.47519793749999906
        },
        {
          "name": "A4",
          "midi": 69,
          "time": 53.80947000000011,
          "velocity": 0.6299212598425197,
          "duration": 0.47519793749999906
        },
        {
          "name": "A4",
          "midi": 69,
          "time": 54.285660000000114,
          "velocity": 0.6299212598425197,
          "duration": 0.47519793749999906
        },
        {
          "name": "A4",
          "midi": 69,
          "time": 54.761850000000116,
          "velocity": 0.6299212598425197,
          "duration": 0.47519793749999906
        },
        {
          "name": "C4",
          "midi": 60,
          "time": 56.66661000000011,
          "velocity": 0.6299212598425197,
          "duration": 0.23710293749999778
        },
        {
          "name": "F4",
          "midi": 65,
          "time": 56.66661000000011,
          "velocity": 0.6299212598425197,
          "duration": 0.23710293749999778
        },
        {
          "name": "E4",
          "midi": 64,
          "time": 56.904705000000114,
          "velocity": 0.6299212598425197,
          "duration": 0.23710293749999778
        },
        {
          "name": "A4",
          "midi": 69,
          "time": 56.904705000000114,
          "velocity": 0.6299212598425197,
          "duration": 0.23710293749999778
        },
        {
          "name": "F4",
          "midi": 65,
          "time": 57.142800000000115,
          "velocity": 0.6299212598425197,
          "duration": 0.47519793749999906
        },
        {
          "name": "A4",
          "midi": 69,
          "time": 57.61899000000012,
          "velocity": 0.6299212598425197,
          "duration": 0.47519793749999906
        },
        {
          "name": "F4",
          "midi": 65,
          "time": 58.09518000000012,
          "velocity": 0.6299212598425197,
          "duration": 0.47519793749999906
        },
        {
          "name": "C4",
          "midi": 60,
          "time": 58.57137000000012,
          "velocity": 0.6299212598425197,
          "duration": 0.23710293749999778
        },
        {
          "name": "F4",
          "midi": 65,
          "time": 58.57137000000012,
          "velocity": 0.6299212598425197,
          "duration": 0.23710293749999778
        },
        {
          "name": "E4",
          "midi": 64,
          "time": 58.809465000000124,
          "velocity": 0.6299212598425197,
          "duration": 0.23710293749999778
        },
        {
          "name": "A4",
          "midi": 69,
          "time": 58.809465000000124,
          "velocity": 0.6299212598425197,
          "duration": 0.23710293749999778
        },
        {
          "name": "A4",
          "midi": 69,
          "time": 59.047560000000125,
          "velocity": 0.6299212598425197,
          "duration": 0.47519793749999906
        },
        {
          "name": "F4",
          "midi": 65,
          "time": 59.52375000000013,
          "velocity": 0.6299212598425197,
          "duration": 0.47519793749999906
        },
        {
          "name": "A4",
          "midi": 69,
          "time": 59.99994000000013,
          "velocity": 0.6299212598425197,
          "duration": 0.47519793749999906
        },
        {
          "name": "C4",
          "midi": 60,
          "time": 60.47613000000013,
          "velocity": 0.6299212598425197,
          "duration": 0.23710293749999778
        },
        {
          "name": "E4",
          "midi": 64,
          "time": 60.714225000000134,
          "velocity": 0.6299212598425197,
          "duration": 0.23710293749999778
        },
        {
          "name": "F4",
          "midi": 65,
          "time": 60.952320000000135,
          "velocity": 0.6299212598425197,
          "duration": 0.47519793749999906
        },
        {
          "name": "A4",
          "midi": 69,
          "time": 61.42851000000014,
          "velocity": 0.6299212598425197,
          "duration": 0.47519793749999906
        },
        {
          "name": "F4",
          "midi": 65,
          "time": 61.90470000000014,
          "velocity": 0.6299212598425197,
          "duration": 0.47519793749999906
        },
        {
          "name": "C4",
          "midi": 60,
          "time": 62.38089000000014,
          "velocity": 0.6299212598425197,
          "duration": 0.23710293749999778
        },
        {
          "name": "E4",
          "midi": 64,
          "time": 62.618985000000144,
          "velocity": 0.6299212598425197,
          "duration": 0.23710293749999778
        },
        {
          "name": "A4",
          "midi": 69,
          "time": 62.857080000000146,
          "velocity": 0.6299212598425197,
          "duration": 0.47519793749999906
        },
        {
          "name": "F4",
          "midi": 65,
          "time": 63.33327000000015,
          "velocity": 0.6299212598425197,
          "duration": 0.47519793749999906
        },
        {
          "name": "A4",
          "midi": 69,
          "time": 63.80946000000015,
          "velocity": 0.6299212598425197,
          "duration": 0.47519793750000616
        },
        {
          "name": "C4",
          "midi": 60,
          "time": 64.28565000000016,
          "velocity": 0.6299212598425197,
          "duration": 0.23710293749999778
        },
        {
          "name": "F4",
          "midi": 65,
          "time": 64.28565000000016,
          "velocity": 0.6299212598425197,
          "duration": 0.23710293749999778
        },
        {
          "name": "E4",
          "midi": 64,
          "time": 64.52374500000016,
          "velocity": 0.6299212598425197,
          "duration": 0.23710293749999778
        },
        {
          "name": "A4",
          "midi": 69,
          "time": 64.52374500000016,
          "velocity": 0.6299212598425197,
          "duration": 0.23710293749999778
        },
        {
          "name": "F4",
          "midi": 65,
          "time": 64.76184000000016,
          "velocity": 0.6299212598425197,
          "duration": 0.47519793749999906
        },
        {
          "name": "A4",
          "midi": 69,
          "time": 65.23803000000017,
          "velocity": 0.6299212598425197,
          "duration": 0.47519793749999906
        },
        {
          "name": "F4",
          "midi": 65,
          "time": 65.71422000000017,
          "velocity": 0.6299212598425197,
          "duration": 0.47519793749999906
        },
        {
          "name": "C4",
          "midi": 60,
          "time": 66.19041000000017,
          "velocity": 0.6299212598425197,
          "duration": 0.23710293749999778
        },
        {
          "name": "F4",
          "midi": 65,
          "time": 66.19041000000017,
          "velocity": 0.6299212598425197,
          "duration": 0.23710293749999778
        },
        {
          "name": "E4",
          "midi": 64,
          "time": 66.42850500000017,
          "velocity": 0.6299212598425197,
          "duration": 0.23710293749999778
        },
        {
          "name": "A4",
          "midi": 69,
          "time": 66.42850500000017,
          "velocity": 0.6299212598425197,
          "duration": 0.23710293749999778
        },
        {
          "name": "A4",
          "midi": 69,
          "time": 66.66660000000017,
          "velocity": 0.6299212598425197,
          "duration": 0.47519793749999906
        },
        {
          "name": "F4",
          "midi": 65,
          "time": 67.14279000000018,
          "velocity": 0.6299212598425197,
          "duration": 0.47519793749999906
        },
        {
          "name": "A4",
          "midi": 69,
          "time": 67.61898000000018,
          "velocity": 0.6299212598425197,
          "duration": 0.47519793749999906
        },
        {
          "name": "C4",
          "midi": 60,
          "time": 68.09517000000018,
          "velocity": 0.6299212598425197,
          "duration": 0.23710293749999778
        },
        {
          "name": "E4",
          "midi": 64,
          "time": 68.33326500000018,
          "velocity": 0.6299212598425197,
          "duration": 0.23710293749999778
        },
        {
          "name": "F4",
          "midi": 65,
          "time": 68.57136000000018,
          "velocity": 0.6299212598425197,
          "duration": 0.47519793749999906
        },
        {
          "name": "A4",
          "midi": 69,
          "time": 69.04755000000019,
          "velocity": 0.6299212598425197,
          "duration": 0.47519793749999906
        },
        {
          "name": "F4",
          "midi": 65,
          "time": 69.52374000000019,
          "velocity": 0.6299212598425197,
          "duration": 0.47519793749999906
        },
        {
          "name": "C4",
          "midi": 60,
          "time": 69.99993000000019,
          "velocity": 0.6299212598425197,
          "duration": 0.23710293749999778
        },
        {
          "name": "F4",
          "midi": 65,
          "time": 69.99993000000019,
          "velocity": 0.6299212598425197,
          "duration": 0.23710293749999778
        },
        {
          "name": "E4",
          "midi": 64,
          "time": 70.23802500000019,
          "velocity": 0.6299212598425197,
          "duration": 0.23710293749999778
        },
        {
          "name": "A4",
          "midi": 69,
          "time": 70.23802500000019,
          "velocity": 0.6299212598425197,
          "duration": 0.23710293749999778
        },
        {
          "name": "A4",
          "midi": 69,
          "time": 70.4761200000002,
          "velocity": 0.6299212598425197,
          "duration": 0.47519793749999906
        },
        {
          "name": "F4",
          "midi": 65,
          "time": 70.9523100000002,
          "velocity": 0.6299212598425197,
          "duration": 0.47519793749999906
        },
        {
          "name": "E4",
          "midi": 64,
          "time": 71.6665950000002,
          "velocity": 0.6299212598425197,
          "duration": 0.23710293749999778
        },
        {
          "name": "C4",
          "midi": 60,
          "time": 71.9046900000002,
          "velocity": 0.6299212598425197,
          "duration": 0.23710293749999778
        },
        {
          "name": "E4",
          "midi": 64,
          "time": 72.1427850000002,
          "velocity": 0.6299212598425197,
          "duration": 0.23710293749999778
        },
        {
          "name": "F4",
          "midi": 65,
          "time": 72.3808800000002,
          "velocity": 0.6299212598425197,
          "duration": 0.23710293749999778
        },
        {
          "name": "A4",
          "midi": 69,
          "time": 72.6189750000002,
          "velocity": 0.6299212598425197,
          "duration": 0.23710293749999778
        },
        {
          "name": "F4",
          "midi": 65,
          "time": 72.8570700000002,
          "velocity": 0.6299212598425197,
          "duration": 0.23710293749999778
        },
        {
          "name": "A4",
          "midi": 69,
          "time": 73.09516500000021,
          "velocity": 0.6299212598425197,
          "duration": 0.23710293749999778
        },
        {
          "name": "C4",
          "midi": 60,
          "time": 73.33326000000021,
          "velocity": 0.6299212598425197,
          "duration": 0.23710293749999778
        },
        {
          "name": "E4",
          "midi": 64,
          "time": 73.57135500000021,
          "velocity": 0.6299212598425197,
          "duration": 0.23710293749999778
        },
        {
          "name": "C4",
          "midi": 60,
          "time": 73.80945000000021,
          "velocity": 0.6299212598425197,
          "duration": 0.23710293749999778
        },
        {
          "name": "E4",
          "midi": 64,
          "time": 74.04754500000021,
          "velocity": 0.6299212598425197,
          "duration": 0.23710293749999778
        },
        {
          "name": "C4",
          "midi": 60,
          "time": 74.28564000000021,
          "velocity": 0.6299212598425197,
          "duration": 0.23710293749999778
        },
        {
          "name": "E4",
          "midi": 64,
          "time": 74.52373500000022,
          "velocity": 0.6299212598425197,
          "duration": 0.23710293749999778
        },
        {
          "name": "C4",
          "midi": 60,
          "time": 74.76183000000022,
          "velocity": 0.6299212598425197,
          "duration": 0.23710293749999778
        },
        {
          "name": "E4",
          "midi": 64,
          "time": 74.99992500000022,
          "velocity": 0.6299212598425197,
          "duration": 0.23710293749999778
        },
        {
          "name": "A4",
          "midi": 69,
          "time": 75.47611500000022,
          "velocity": 0.6299212598425197,
          "duration": 0.23710293749999778
        },
        {
          "name": "F4",
          "midi": 65,
          "time": 75.71421000000022,
          "velocity": 0.6299212598425197,
          "duration": 0.23710293749999778
        },
        {
          "name": "A4",
          "midi": 69,
          "time": 75.95230500000022,
          "velocity": 0.6299212598425197,
          "duration": 0.23710293749999778
        },
        {
          "name": "F4",
          "midi": 65,
          "time": 76.19040000000022,
          "velocity": 0.6299212598425197,
          "duration": 0.23710293749999778
        },
        {
          "name": "A4",
          "midi": 69,
          "time": 76.42849500000023,
          "velocity": 0.6299212598425197,
          "duration": 0.23710293749999778
        },
        {
          "name": "F4",
          "midi": 65,
          "time": 76.66659000000023,
          "velocity": 0.6299212598425197,
          "duration": 0.23710293749999778
        },
        {
          "name": "A4",
          "midi": 69,
          "time": 76.90468500000023,
          "velocity": 0.6299212598425197,
          "duration": 0.23710293749999778
        },
        {
          "name": "F4",
          "midi": 65,
          "time": 77.14278000000023,
          "velocity": 0.6299212598425197,
          "duration": 0.23710293749999778
        },
        {
          "name": "A4",
          "midi": 69,
          "time": 77.38087500000023,
          "velocity": 0.6299212598425197,
          "duration": 0.23710293749999778
        },
        {
          "name": "F4",
          "midi": 65,
          "time": 77.61897000000023,
          "velocity": 0.6299212598425197,
          "duration": 0.11805543750000425
        },
        {
          "name": "F4",
          "midi": 65,
          "time": 77.73801750000024,
          "velocity": 0.6299212598425197,
          "duration": 0.11805543750000425
        },
        {
          "name": "F4",
          "midi": 65,
          "time": 77.85706500000025,
          "velocity": 0.6299212598425197,
          "duration": 0.11805543750000425
        },
        {
          "name": "F4",
          "midi": 65,
          "time": 77.97611250000026,
          "velocity": 0.6299212598425197,
          "duration": 0.11805543750000425
        },
        {
          "name": "F4",
          "midi": 65,
          "time": 78.09516000000026,
          "velocity": 0.6299212598425197,
          "duration": 0.11805543750000425
        },
        {
          "name": "F4",
          "midi": 65,
          "time": 78.21420750000027,
          "velocity": 0.6299212598425197,
          "duration": 0.11805543750000425
        },
        {
          "name": "F4",
          "midi": 65,
          "time": 78.33325500000028,
          "velocity": 0.6299212598425197,
          "duration": 0.11805543750000425
        },
        {
          "name": "F4",
          "midi": 65,
          "time": 78.45230250000029,
          "velocity": 0.6299212598425197,
          "duration": 0.11805543750000425
        },
        {
          "name": "F4",
          "midi": 65,
          "time": 78.5713500000003,
          "velocity": 0.6299212598425197,
          "duration": 0.11805543750000425
        },
        {
          "name": "F4",
          "midi": 65,
          "time": 78.6903975000003,
          "velocity": 0.6299212598425197,
          "duration": 0.11805543750000425
        },
        {
          "name": "F4",
          "midi": 65,
          "time": 78.80944500000031,
          "velocity": 0.6299212598425197,
          "duration": 0.11805543750000425
        },
        {
          "name": "F4",
          "midi": 65,
          "time": 78.92849250000032,
          "velocity": 0.6299212598425197,
          "duration": 0.11805543750000425
        },
        {
          "name": "F4",
          "midi": 65,
          "time": 79.04754000000032,
          "velocity": 0.6299212598425197,
          "duration": 0.11805543750000425
        },
        {
          "name": "F4",
          "midi": 65,
          "time": 79.16658750000033,
          "velocity": 0.6299212598425197,
          "duration": 0.11805543750000425
        },
        {
          "name": "F4",
          "midi": 65,
          "time": 79.28563500000034,
          "velocity": 0.6299212598425197,
          "duration": 0.11805543750000425
        },
        {
          "name": "F4",
          "midi": 65,
          "time": 79.40468250000035,
          "velocity": 0.6299212598425197,
          "duration": 0.47519793749999906
        },
        {
          "name": "C4",
          "midi": 60,
          "time": 80.47611000000035,
          "velocity": 0.6299212598425197,
          "duration": 0.47519793749999906
        },
        {
          "name": "A4",
          "midi": 69,
          "time": 80.47611000000035,
          "velocity": 0.6299212598425197,
          "duration": 0.47519793749999906
        },
        {
          "name": "C4",
          "midi": 60,
          "time": 80.95230000000035,
          "velocity": 0.6299212598425197,
          "duration": 0.47519793749999906
        },
        {
          "name": "A4",
          "midi": 69,
          "time": 80.95230000000035,
          "velocity": 0.6299212598425197,
          "duration": 0.47519793749999906
        },
        {
          "name": "C4",
          "midi": 60,
          "time": 81.42849000000035,
          "velocity": 0.6299212598425197,
          "duration": 0.47519793749999906
        },
        {
          "name": "A4",
          "midi": 69,
          "time": 81.42849000000035,
          "velocity": 0.6299212598425197,
          "duration": 0.47519793749999906
        },
        {
          "name": "C4",
          "midi": 60,
          "time": 82.38087000000036,
          "velocity": 0.6299212598425197,
          "duration": 0.47519793749999906
        },
        {
          "name": "E4",
          "midi": 64,
          "time": 82.85706000000036,
          "velocity": 0.6299212598425197,
          "duration": 0.47519793749999906
        },
        {
          "name": "C4",
          "midi": 60,
          "time": 83.33325000000036,
          "velocity": 0.6299212598425197,
          "duration": 0.47519793749999906
        },
        {
          "name": "E4",
          "midi": 64,
          "time": 83.80944000000036,
          "velocity": 0.6299212598425197,
          "duration": 0.47519793749999906
        },
        {
          "name": "C4",
          "midi": 60,
          "time": 84.28563000000037,
          "velocity": 0.6299212598425197,
          "duration": 0.47519793749999906
        },
        {
          "name": "A4",
          "midi": 69,
          "time": 84.28563000000037,
          "velocity": 0.6299212598425197,
          "duration": 0.47519793749999906
        },
        {
          "name": "C4",
          "midi": 60,
          "time": 84.76182000000037,
          "velocity": 0.6299212598425197,
          "duration": 0.47519793749999906
        },
        {
          "name": "A4",
          "midi": 69,
          "time": 84.76182000000037,
          "velocity": 0.6299212598425197,
          "duration": 0.47519793749999906
        },
        {
          "name": "C4",
          "midi": 60,
          "time": 85.23801000000037,
          "velocity": 0.6299212598425197,
          "duration": 0.47519793749999906
        },
        {
          "name": "A4",
          "midi": 69,
          "time": 85.23801000000037,
          "velocity": 0.6299212598425197,
          "duration": 0.47519793749999906
        },
        {
          "name": "C4",
          "midi": 60,
          "time": 86.19039000000038,
          "velocity": 0.6299212598425197,
          "duration": 0.47519793749999906
        },
        {
          "name": "E4",
          "midi": 64,
          "time": 86.66658000000038,
          "velocity": 0.6299212598425197,
          "duration": 0.47519793749999906
        },
        {
          "name": "C4",
          "midi": 60,
          "time": 87.14277000000038,
          "velocity": 0.6299212598425197,
          "duration": 0.47519793749999906
        },
        {
          "name": "E4",
          "midi": 64,
          "time": 87.61896000000038,
          "velocity": 0.6299212598425197,
          "duration": 0.47519793749999906
        },
        {
          "name": "C4",
          "midi": 60,
          "time": 88.09515000000039,
          "velocity": 0.6299212598425197,
          "duration": 0.47519793749999906
        },
        {
          "name": "A4",
          "midi": 69,
          "time": 88.09515000000039,
          "velocity": 0.6299212598425197,
          "duration": 0.47519793749999906
        },
        {
          "name": "C4",
          "midi": 60,
          "time": 88.57134000000039,
          "velocity": 0.6299212598425197,
          "duration": 0.47519793749999906
        },
        {
          "name": "A4",
          "midi": 69,
          "time": 88.57134000000039,
          "velocity": 0.6299212598425197,
          "duration": 0.47519793749999906
        },
        {
          "name": "C4",
          "midi": 60,
          "time": 89.04753000000039,
          "velocity": 0.6299212598425197,
          "duration": 0.47519793749999906
        },
        {
          "name": "A4",
          "midi": 69,
          "time": 89.04753000000039,
          "velocity": 0.6299212598425197,
          "duration": 0.47519793749999906
        },
        {
          "name": "C4",
          "midi": 60,
          "time": 89.9999100000004,
          "velocity": 0.6299212598425197,
          "duration": 0.47519793749999906
        },
        {
          "name": "E4",
          "midi": 64,
          "time": 90.4761000000004,
          "velocity": 0.6299212598425197,
          "duration": 0.47519793749999906
        },
        {
          "name": "C4",
          "midi": 60,
          "time": 90.9522900000004,
          "velocity": 0.6299212598425197,
          "duration": 0.47519793749999906
        },
        {
          "name": "E4",
          "midi": 64,
          "time": 91.4284800000004,
          "velocity": 0.6299212598425197,
          "duration": 0.47519793749999906
        },
        {
          "name": "C4",
          "midi": 60,
          "time": 91.90467000000041,
          "velocity": 0.6299212598425197,
          "duration": 0.47519793749999906
        },
        {
          "name": "F4",
          "midi": 65,
          "time": 92.38086000000041,
          "velocity": 0.6299212598425197,
          "duration": 0.47519793749999906
        },
        {
          "name": "D4",
          "midi": 62,
          "time": 92.85705000000041,
          "velocity": 0.6299212598425197,
          "duration": 0.47519793749999906
        },
        {
          "name": "G4",
          "midi": 67,
          "time": 92.85705000000041,
          "velocity": 0.6299212598425197,
          "duration": 0.47519793749999906
        },
        {
          "name": "D4",
          "midi": 62,
          "time": 93.33324000000042,
          "velocity": 0.6299212598425197,
          "duration": 0.47519793749999906
        },
        {
          "name": "G4",
          "midi": 67,
          "time": 93.33324000000042,
          "velocity": 0.6299212598425197,
          "duration": 0.47519793749999906
        },
        {
          "name": "D4",
          "midi": 62,
          "time": 93.80943000000042,
          "velocity": 0.6299212598425197,
          "duration": 0.47519793749999906
        },
        {
          "name": "G4",
          "midi": 67,
          "time": 93.80943000000042,
          "velocity": 0.6299212598425197,
          "duration": 0.47519793749999906
        },
        {
          "name": "F4",
          "midi": 65,
          "time": 94.52371500000042,
          "velocity": 0.6299212598425197,
          "duration": 0.23710293749999778
        },
        {
          "name": "C4",
          "midi": 60,
          "time": 94.76181000000042,
          "velocity": 0.6299212598425197,
          "duration": 0.23710293749999778
        },
        {
          "name": "A4",
          "midi": 69,
          "time": 94.99990500000042,
          "velocity": 0.6299212598425197,
          "duration": 0.23710293749999778
        },
        {
          "name": "C4",
          "midi": 60,
          "time": 95.23800000000043,
          "velocity": 0.6299212598425197,
          "duration": 0.47519793749999906
        },
        {
          "name": "A4",
          "midi": 69,
          "time": 95.71419000000043,
          "velocity": 0.6299212598425197,
          "duration": 0.47519793749999906
        },
        {
          "name": "F4",
          "midi": 65,
          "time": 96.19038000000043,
          "velocity": 0.6299212598425197,
          "duration": 0.23710293749999778
        },
        {
          "name": "F4",
          "midi": 65,
          "time": 96.42847500000043,
          "velocity": 0.6299212598425197,
          "duration": 0.23710293749999778
        },
        {
          "name": "A4",
          "midi": 69,
          "time": 96.66657000000043,
          "velocity": 0.6299212598425197,
          "duration": 0.47519793749999906
        },
        {
          "name": "F4",
          "midi": 65,
          "time": 97.14276000000044,
          "velocity": 0.6299212598425197,
          "duration": 0.47519793749999906
        },
        {
          "name": "C4",
          "midi": 60,
          "time": 98.09514000000044,
          "velocity": 0.6299212598425197,
          "duration": 0.23710293749999778
        },
        {
          "name": "E4",
          "midi": 64,
          "time": 98.33323500000044,
          "velocity": 0.6299212598425197,
          "duration": 0.23710293749999778
        },
        {
          "name": "A4",
          "midi": 69,
          "time": 98.57133000000044,
          "velocity": 0.6299212598425197,
          "duration": 0.47519793749999906
        },
        {
          "name": "C4",
          "midi": 60,
          "time": 99.04752000000045,
          "velocity": 0.6299212598425197,
          "duration": 0.23710293749999778
        },
        {
          "name": "E4",
          "midi": 64,
          "time": 99.28561500000045,
          "velocity": 0.6299212598425197,
          "duration": 0.23710293749999778
        },
        {
          "name": "F4",
          "midi": 65,
          "time": 99.52371000000045,
          "velocity": 0.6299212598425197,
          "duration": 0.47519793749999906
        },
        {
          "name": "C4",
          "midi": 60,
          "time": 99.99990000000045,
          "velocity": 0.6299212598425197,
          "duration": 0.23710293749999778
        },
        {
          "name": "E4",
          "midi": 64,
          "time": 100.23799500000045,
          "velocity": 0.6299212598425197,
          "duration": 0.23710293749999778
        },
        {
          "name": "A4",
          "midi": 69,
          "time": 100.47609000000045,
          "velocity": 0.6299212598425197,
          "duration": 0.47519793749999906
        },
        {
          "name": "C4",
          "midi": 60,
          "time": 100.95228000000046,
          "velocity": 0.6299212598425197,
          "duration": 0.23710293749999778
        },
        {
          "name": "E4",
          "midi": 64,
          "time": 101.19037500000046,
          "velocity": 0.6299212598425197,
          "duration": 0.23710293749999778
        },
        {
          "name": "A4",
          "midi": 69,
          "time": 101.42847000000046,
          "velocity": 0.6299212598425197,
          "duration": 0.47519793749999906
        },
        {
          "name": "F4",
          "midi": 65,
          "time": 101.90466000000046,
          "velocity": 0.6299212598425197,
          "duration": 0.47519793749999906
        },
        {
          "name": "A4",
          "midi": 69,
          "time": 102.38085000000046,
          "velocity": 0.6299212598425197,
          "duration": 0.47519793749999906
        },
        {
          "name": "C4",
          "midi": 60,
          "time": 102.85704000000047,
          "velocity": 0.6299212598425197,
          "duration": 0.47519793749999906
        },
        {
          "name": "A4",
          "midi": 69,
          "time": 103.33323000000047,
          "velocity": 0.6299212598425197,
          "duration": 0.47519793749999906
        },
        {
          "name": "F4",
          "midi": 65,
          "time": 103.80942000000047,
          "velocity": 0.6299212598425197,
          "duration": 0.23710293749999778
        },
        {
          "name": "F4",
          "midi": 65,
          "time": 104.04751500000047,
          "velocity": 0.6299212598425197,
          "duration": 0.23710293749999778
        },
        {
          "name": "A4",
          "midi": 69,
          "time": 104.28561000000047,
          "velocity": 0.6299212598425197,
          "duration": 0.47519793749999906
        },
        {
          "name": "F4",
          "midi": 65,
          "time": 104.76180000000048,
          "velocity": 0.6299212598425197,
          "duration": 0.47519793749999906
        },
        {
          "name": "C4",
          "midi": 60,
          "time": 105.71418000000048,
          "velocity": 0.6299212598425197,
          "duration": 0.23710293749999778
        },
        {
          "name": "E4",
          "midi": 64,
          "time": 105.95227500000048,
          "velocity": 0.6299212598425197,
          "duration": 0.23710293749999778
        },
        {
          "name": "A4",
          "midi": 69,
          "time": 106.19037000000048,
          "velocity": 0.6299212598425197,
          "duration": 0.47519793749999906
        },
        {
          "name": "C4",
          "midi": 60,
          "time": 106.66656000000049,
          "velocity": 0.6299212598425197,
          "duration": 0.23710293749999778
        },
        {
          "name": "E4",
          "midi": 64,
          "time": 106.90465500000049,
          "velocity": 0.6299212598425197,
          "duration": 0.23710293749999778
        },
        {
          "name": "F4",
          "midi": 65,
          "time": 107.14275000000049,
          "velocity": 0.6299212598425197,
          "duration": 0.47519793749999906
        },
        {
          "name": "C4",
          "midi": 60,
          "time": 107.61894000000049,
          "velocity": 0.6299212598425197,
          "duration": 0.23710293749999778
        },
        {
          "name": "E4",
          "midi": 64,
          "time": 107.8570350000005,
          "velocity": 0.6299212598425197,
          "duration": 0.23710293749999778
        },
        {
          "name": "A4",
          "midi": 69,
          "time": 108.0951300000005,
          "velocity": 0.6299212598425197,
          "duration": 0.47519793749999906
        },
        {
          "name": "C4",
          "midi": 60,
          "time": 108.5713200000005,
          "velocity": 0.6299212598425197,
          "duration": 0.47519793749999906
        },
        {
          "name": "F4",
          "midi": 65,
          "time": 109.0475100000005,
          "velocity": 0.6299212598425197,
          "duration": 0.47519793749999906
        },
        {
          "name": "A4",
          "midi": 69,
          "time": 109.0475100000005,
          "velocity": 0.6299212598425197,
          "duration": 0.47519793749999906
        },
        {
          "name": "F4",
          "midi": 65,
          "time": 109.5237000000005,
          "velocity": 0.6299212598425197,
          "duration": 0.47519793749999906
        },
        {
          "name": "A4",
          "midi": 69,
          "time": 109.5237000000005,
          "velocity": 0.6299212598425197,
          "duration": 0.47519793749999906
        },
        {
          "name": "F4",
          "midi": 65,
          "time": 109.9998900000005,
          "velocity": 0.6299212598425197,
          "duration": 0.47519793749999906
        },
        {
          "name": "A4",
          "midi": 69,
          "time": 109.9998900000005,
          "velocity": 0.6299212598425197,
          "duration": 0.47519793749999906
        },
        {
          "name": "F4",
          "midi": 65,
          "time": 110.47608000000051,
          "velocity": 0.6299212598425197,
          "duration": 0.23710293749999778
        },
        {
          "name": "F4",
          "midi": 65,
          "time": 110.71417500000051,
          "velocity": 0.6299212598425197,
          "duration": 0.11805543750000425
        },
        {
          "name": "F4",
          "midi": 65,
          "time": 110.83322250000052,
          "velocity": 0.6299212598425197,
          "duration": 0.11805543750000425
        },
        {
          "name": "F4",
          "midi": 65,
          "time": 110.95227000000052,
          "velocity": 0.6299212598425197,
          "duration": 0.11805543750000425
        },
        {
          "name": "F4",
          "midi": 65,
          "time": 111.07131750000053,
          "velocity": 0.6299212598425197,
          "duration": 0.11805543750000425
        },
        {
          "name": "F4",
          "midi": 65,
          "time": 111.19036500000054,
          "velocity": 0.6299212598425197,
          "duration": 0.11805543750000425
        },
        {
          "name": "F4",
          "midi": 65,
          "time": 111.30941250000055,
          "velocity": 0.6299212598425197,
          "duration": 0.11805543750000425
        },
        {
          "name": "F4",
          "midi": 65,
          "time": 111.42846000000056,
          "velocity": 0.6299212598425197,
          "duration": 0.23710293749999778
        },
        {
          "name": "F4",
          "midi": 65,
          "time": 111.66655500000056,
          "velocity": 0.6299212598425197,
          "duration": 0.11805543750000425
        },
        {
          "name": "F4",
          "midi": 65,
          "time": 111.78560250000056,
          "velocity": 0.6299212598425197,
          "duration": 0.11805543750000425
        },
        {
          "name": "F4",
          "midi": 65,
          "time": 111.90465000000057,
          "velocity": 0.6299212598425197,
          "duration": 0.11805543750000425
        },
        {
          "name": "F4",
          "midi": 65,
          "time": 112.02369750000058,
          "velocity": 0.6299212598425197,
          "duration": 0.11805543750000425
        },
        {
          "name": "F4",
          "midi": 65,
          "time": 112.14274500000059,
          "velocity": 0.6299212598425197,
          "duration": 0.11805543750000425
        },
        {
          "name": "F4",
          "midi": 65,
          "time": 112.2617925000006,
          "velocity": 0.6299212598425197,
          "duration": 0.11805543750000425
        },
        {
          "name": "C4",
          "midi": 60,
          "time": 112.3808400000006,
          "velocity": 0.6299212598425197,
          "duration": 0.47519793749999906
        },
        {
          "name": "E4",
          "midi": 64,
          "time": 112.8570300000006,
          "velocity": 0.6299212598425197,
          "duration": 0.47519793749999906
        },
        {
          "name": "C4",
          "midi": 60,
          "time": 113.33322000000061,
          "velocity": 0.6299212598425197,
          "duration": 0.47519793749999906
        },
        {
          "name": "E4",
          "midi": 64,
          "time": 113.80941000000061,
          "velocity": 0.6299212598425197,
          "duration": 0.47519793749999906
        },
        {
          "name": "F4",
          "midi": 65,
          "time": 114.28560000000061,
          "velocity": 0.6299212598425197,
          "duration": 0.47519793749999906
        },
        {
          "name": "A4",
          "midi": 69,
          "time": 114.76179000000062,
          "velocity": 0.6299212598425197,
          "duration": 0.47519793749999906
        },
        {
          "name": "F4",
          "midi": 65,
          "time": 115.23798000000062,
          "velocity": 0.6299212598425197,
          "duration": 0.47519793749999906
        },
        {
          "name": "A4",
          "midi": 69,
          "time": 115.71417000000062,
          "velocity": 0.6299212598425197,
          "duration": 0.47519793749999906
        },
        {
          "name": "C4",
          "midi": 60,
          "time": 116.19036000000062,
          "velocity": 0.6299212598425197,
          "duration": 0.47519793749999906
        },
        {
          "name": "E4",
          "midi": 64,
          "time": 116.66655000000063,
          "velocity": 0.6299212598425197,
          "duration": 0.47519793749999906
        },
        {
          "name": "C4",
          "midi": 60,
          "time": 117.14274000000063,
          "velocity": 0.6299212598425197,
          "duration": 0.47519793749999906
        },
        {
          "name": "E4",
          "midi": 64,
          "time": 117.61893000000063,
          "velocity": 0.6299212598425197,
          "duration": 0.47519793749999906
        },
        {
          "name": "F4",
          "midi": 65,
          "time": 118.09512000000063,
          "velocity": 0.6299212598425197,
          "duration": 0.47519793749999906
        },
        {
          "name": "A4",
          "midi": 69,
          "time": 118.57131000000064,
          "velocity": 0.6299212598425197,
          "duration": 0.47519793749999906
        },
        {
          "name": "F4",
          "midi": 65,
          "time": 119.04750000000064,
          "velocity": 0.6299212598425197,
          "duration": 0.47519793749999906
        },
        {
          "name": "A4",
          "midi": 69,
          "time": 119.52369000000064,
          "velocity": 0.6299212598425197,
          "duration": 0.47519793749999906
        },
        {
          "name": "C4",
          "midi": 60,
          "time": 119.99988000000064,
          "velocity": 0.6299212598425197,
          "duration": 0.47519793749999906
        },
        {
          "name": "E4",
          "midi": 64,
          "time": 120.47607000000065,
          "velocity": 0.6299212598425197,
          "duration": 0.47519793749999906
        },
        {
          "name": "C4",
          "midi": 60,
          "time": 120.95226000000065,
          "velocity": 0.6299212598425197,
          "duration": 0.47519793749999906
        },
        {
          "name": "E4",
          "midi": 64,
          "time": 121.42845000000065,
          "velocity": 0.6299212598425197,
          "duration": 0.47519793749999906
        },
        {
          "name": "F4",
          "midi": 65,
          "time": 121.90464000000065,
          "velocity": 0.6299212598425197,
          "duration": 0.47519793749999906
        },
        {
          "name": "A4",
          "midi": 69,
          "time": 122.38083000000066,
          "velocity": 0.6299212598425197,
          "duration": 0.47519793749999906
        },
        {
          "name": "F4",
          "midi": 65,
          "time": 122.85702000000066,
          "velocity": 0.6299212598425197,
          "duration": 0.47519793749999906
        },
        {
          "name": "A4",
          "midi": 69,
          "time": 123.33321000000066,
          "velocity": 0.6299212598425197,
          "duration": 0.47519793749999906
        },
        {
          "name": "C4",
          "midi": 60,
          "time": 123.80940000000066,
          "velocity": 0.6299212598425197,
          "duration": 0.47519793749999906
        },
        {
          "name": "E4",
          "midi": 64,
          "time": 124.28559000000067,
          "velocity": 0.6299212598425197,
          "duration": 0.47519793749999906
        },
        {
          "name": "C4",
          "midi": 60,
          "time": 124.76178000000067,
          "velocity": 0.6299212598425197,
          "duration": 0.47519793749999906
        },
        {
          "name": "E4",
          "midi": 64,
          "time": 125.23797000000067,
          "velocity": 0.6299212598425197,
          "duration": 0.47519793749999906
        },
        {
          "name": "C4",
          "midi": 60,
          "time": 125.71416000000067,
          "velocity": 0.6299212598425197,
          "duration": 0.47519793749999906
        },
        {
          "name": "E4",
          "midi": 64,
          "time": 126.19035000000068,
          "velocity": 0.6299212598425197,
          "duration": 0.47519793749999906
        },
        {
          "name": "C4",
          "midi": 60,
          "time": 126.66654000000068,
          "velocity": 0.6299212598425197,
          "duration": 0.47519793749999906
        },
        {
          "name": "F4",
          "midi": 65,
          "time": 127.14273000000068,
          "velocity": 0.6299212598425197,
          "duration": 0.47519793749999906
        },
        {
          "name": "A4",
          "midi": 69,
          "time": 127.14273000000068,
          "velocity": 0.6299212598425197,
          "duration": 0.47519793749999906
        },
        {
          "name": "C4",
          "midi": 60,
          "time": 127.61892000000068,
          "velocity": 0.6299212598425197,
          "duration": 0.23710293749999778
        },
        {
          "name": "E4",
          "midi": 64,
          "time": 127.61892000000068,
          "velocity": 0.6299212598425197,
          "duration": 0.23710293749999778
        },
        {
          "name": "C4",
          "midi": 60,
          "time": 127.85701500000069,
          "velocity": 0.6299212598425197,
          "duration": 0.237102937500012
        },
        {
          "name": "E4",
          "midi": 64,
          "time": 127.85701500000069,
          "velocity": 0.6299212598425197,
          "duration": 0.237102937500012
        },
        {
          "name": "F4",
          "midi": 65,
          "time": 128.0951100000007,
          "velocity": 0.6299212598425197,
          "duration": 0.47519793750001327
        },
        {
          "name": "A4",
          "midi": 69,
          "time": 128.0951100000007,
          "velocity": 0.6299212598425197,
          "duration": 0.47519793750001327
        },
        {
          "name": "F4",
          "midi": 65,
          "time": 128.5713000000007,
          "velocity": 0.6299212598425197,
          "duration": 0.47519793750001327
        },
        {
          "name": "A4",
          "midi": 69,
          "time": 129.0474900000007,
          "velocity": 0.6299212598425197,
          "duration": 0.47519793750001327
        },
        {
          "name": "C4",
          "midi": 60,
          "time": 129.5236800000007,
          "velocity": 0.6299212598425197,
          "duration": 0.47519793750001327
        },
        {
          "name": "F4",
          "midi": 65,
          "time": 129.9998700000007,
          "velocity": 0.6299212598425197,
          "duration": 0.47519793750001327
        },
        {
          "name": "C4",
          "midi": 60,
          "time": 130.4760600000007,
          "velocity": 0.6299212598425197,
          "duration": 0.47519793750001327
        },
        {
          "name": "F4",
          "midi": 65,
          "time": 130.9522500000007,
          "velocity": 0.6299212598425197,
          "duration": 0.47519793750001327
        },
        {
          "name": "F4",
          "midi": 65,
          "time": 131.4284400000007,
          "velocity": 0.6299212598425197,
          "duration": 0.47519793750001327
        },
        {
          "name": "A4",
          "midi": 69,
          "time": 131.9046300000007,
          "velocity": 0.6299212598425197,
          "duration": 0.47519793750001327
        },
        {
          "name": "F4",
          "midi": 65,
          "time": 132.3808200000007,
          "velocity": 0.6299212598425197,
          "duration": 0.47519793750001327
        },
        {
          "name": "A4",
          "midi": 69,
          "time": 132.8570100000007,
          "velocity": 0.6299212598425197,
          "duration": 0.47519793750001327
        },
        {
          "name": "C4",
          "midi": 60,
          "time": 133.33320000000072,
          "velocity": 0.6299212598425197,
          "duration": 0.47519793750001327
        },
        {
          "name": "E4",
          "midi": 64,
          "time": 133.80939000000072,
          "velocity": 0.6299212598425197,
          "duration": 0.47519793750001327
        },
        {
          "name": "C4",
          "midi": 60,
          "time": 134.28558000000072,
          "velocity": 0.6299212598425197,
          "duration": 0.47519793750001327
        },
        {
          "name": "F4",
          "midi": 65,
          "time": 134.76177000000072,
          "velocity": 0.6299212598425197,
          "duration": 0.47519793750001327
        },
        {
          "name": "A4",
          "midi": 69,
          "time": 134.76177000000072,
          "velocity": 0.6299212598425197,
          "duration": 0.47519793750001327
        },
        {
          "name": "C4",
          "midi": 60,
          "time": 135.23796000000073,
          "velocity": 0.6299212598425197,
          "duration": 0.23710293749999778
        },
        {
          "name": "E4",
          "midi": 64,
          "time": 135.23796000000073,
          "velocity": 0.6299212598425197,
          "duration": 0.23710293749999778
        },
        {
          "name": "C4",
          "midi": 60,
          "time": 135.4760550000007,
          "velocity": 0.6299212598425197,
          "duration": 0.23710293749999778
        },
        {
          "name": "E4",
          "midi": 64,
          "time": 135.4760550000007,
          "velocity": 0.6299212598425197,
          "duration": 0.23710293749999778
        },
        {
          "name": "F4",
          "midi": 65,
          "time": 135.7141500000007,
          "velocity": 0.6299212598425197,
          "duration": 0.47519793750001327
        },
        {
          "name": "A4",
          "midi": 69,
          "time": 135.7141500000007,
          "velocity": 0.6299212598425197,
          "duration": 0.47519793750001327
        },
        {
          "name": "F4",
          "midi": 65,
          "time": 136.1903400000007,
          "velocity": 0.6299212598425197,
          "duration": 0.47519793750001327
        },
        {
          "name": "A4",
          "midi": 69,
          "time": 136.6665300000007,
          "velocity": 0.6299212598425197,
          "duration": 0.47519793750001327
        },
        {
          "name": "C4",
          "midi": 60,
          "time": 137.1427200000007,
          "velocity": 0.6299212598425197,
          "duration": 0.47519793750001327
        },
        {
          "name": "F4",
          "midi": 65,
          "time": 137.6189100000007,
          "velocity": 0.6299212598425197,
          "duration": 0.47519793750001327
        },
        {
          "name": "C4",
          "midi": 60,
          "time": 138.0951000000007,
          "velocity": 0.6299212598425197,
          "duration": 0.47519793750001327
        },
        {
          "name": "F4",
          "midi": 65,
          "time": 138.57129000000072,
          "velocity": 0.6299212598425197,
          "duration": 0.47519793750001327
        },
        {
          "name": "F4",
          "midi": 65,
          "time": 139.04748000000072,
          "velocity": 0.6299212598425197,
          "duration": 0.47519793750001327
        },
        {
          "name": "A4",
          "midi": 69,
          "time": 139.52367000000072,
          "velocity": 0.6299212598425197,
          "duration": 0.47519793750001327
        },
        {
          "name": "F4",
          "midi": 65,
          "time": 139.99986000000072,
          "velocity": 0.6299212598425197,
          "duration": 0.47519793750001327
        },
        {
          "name": "C4",
          "midi": 60,
          "time": 140.47605000000073,
          "velocity": 0.6299212598425197,
          "duration": 0.47519793750001327
        },
        {
          "name": "E4",
          "midi": 64,
          "time": 140.47605000000073,
          "velocity": 0.6299212598425197,
          "duration": 0.47519793750001327
        },
        {
          "name": "F4",
          "midi": 65,
          "time": 140.47605000000073,
          "velocity": 0.6299212598425197,
          "duration": 0.47519793750001327
        },
        {
          "name": "A4",
          "midi": 69,
          "time": 140.47605000000073,
          "velocity": 0.6299212598425197,
          "duration": 0.47519793750001327
        },
        {
          "name": "C4",
          "midi": 60,
          "time": 140.95224000000073,
          "velocity": 0.6299212598425197,
          "duration": 0.47519793750001327
        },
        {
          "name": "E4",
          "midi": 64,
          "time": 140.95224000000073,
          "velocity": 0.6299212598425197,
          "duration": 0.47519793750001327
        },
        {
          "name": "F4",
          "midi": 65,
          "time": 140.95224000000073,
          "velocity": 0.6299212598425197,
          "duration": 0.47519793750001327
        },
        {
          "name": "A4",
          "midi": 69,
          "time": 140.95224000000073,
          "velocity": 0.6299212598425197,
          "duration": 0.47519793750001327
        },
        {
          "name": "C4",
          "midi": 60,
          "time": 141.42843000000073,
          "velocity": 0.6299212598425197,
          "duration": 0.47519793750001327
        },
        {
          "name": "E4",
          "midi": 64,
          "time": 141.42843000000073,
          "velocity": 0.6299212598425197,
          "duration": 0.47519793750001327
        },
        {
          "name": "F4",
          "midi": 65,
          "time": 141.42843000000073,
          "velocity": 0.6299212598425197,
          "duration": 0.47519793750001327
        },
        {
          "name": "A4",
          "midi": 69,
          "time": 141.42843000000073,
          "velocity": 0.6299212598425197,
          "duration": 0.47519793750001327
        },
        {
          "name": "F4",
          "midi": 65,
          "time": 142.14271500000075,
          "velocity": 0.6299212598425197,
          "duration": 0.23710293749999778
        },
        {
          "name": "C4",
          "midi": 60,
          "time": 142.38081000000074,
          "velocity": 0.6299212598425197,
          "duration": 0.23710293749999778
        },
        {
          "name": "A4",
          "midi": 69,
          "time": 142.61890500000072,
          "velocity": 0.6299212598425197,
          "duration": 0.23710293749999778
        },
        {
          "name": "C4",
          "midi": 60,
          "time": 142.8570000000007,
          "velocity": 0.6299212598425197,
          "duration": 0.47519793750001327
        },
        {
          "name": "A4",
          "midi": 69,
          "time": 143.3331900000007,
          "velocity": 0.6299212598425197,
          "duration": 0.47519793750001327
        },
        {
          "name": "F4",
          "midi": 65,
          "time": 143.80938000000071,
          "velocity": 0.6299212598425197,
          "duration": 0.23710293749999778
        },
        {
          "name": "F4",
          "midi": 65,
          "time": 144.0474750000007,
          "velocity": 0.6299212598425197,
          "duration": 0.23710293749999778
        },
        {
          "name": "A4",
          "midi": 69,
          "time": 144.2855700000007,
          "velocity": 0.6299212598425197,
          "duration": 0.47519793750001327
        },
        {
          "name": "F4",
          "midi": 65,
          "time": 144.7617600000007,
          "velocity": 0.6299212598425197,
          "duration": 0.47519793750001327
        },
        {
          "name": "C4",
          "midi": 60,
          "time": 145.7141400000007,
          "velocity": 0.6299212598425197,
          "duration": 0.23710293749999778
        },
        {
          "name": "E4",
          "midi": 64,
          "time": 145.95223500000068,
          "velocity": 0.6299212598425197,
          "duration": 0.23710293749999778
        },
        {
          "name": "A4",
          "midi": 69,
          "time": 146.19033000000067,
          "velocity": 0.6299212598425197,
          "duration": 0.47519793750001327
        },
        {
          "name": "C4",
          "midi": 60,
          "time": 146.66652000000067,
          "velocity": 0.6299212598425197,
          "duration": 0.23710293749999778
        },
        {
          "name": "E4",
          "midi": 64,
          "time": 146.90461500000066,
          "velocity": 0.6299212598425197,
          "duration": 0.23710293749999778
        },
        {
          "name": "F4",
          "midi": 65,
          "time": 147.14271000000065,
          "velocity": 0.6299212598425197,
          "duration": 0.47519793750001327
        },
        {
          "name": "C4",
          "midi": 60,
          "time": 147.61890000000065,
          "velocity": 0.6299212598425197,
          "duration": 0.23710293749999778
        },
        {
          "name": "E4",
          "midi": 64,
          "time": 147.85699500000064,
          "velocity": 0.6299212598425197,
          "duration": 0.23710293749999778
        },
        {
          "name": "A4",
          "midi": 69,
          "time": 148.09509000000062,
          "velocity": 0.6299212598425197,
          "duration": 0.47519793750001327
        },
        {
          "name": "C4",
          "midi": 60,
          "time": 148.57128000000063,
          "velocity": 0.6299212598425197,
          "duration": 0.23710293749999778
        },
        {
          "name": "E4",
          "midi": 64,
          "time": 148.8093750000006,
          "velocity": 0.6299212598425197,
          "duration": 0.23710293749999778
        },
        {
          "name": "A4",
          "midi": 69,
          "time": 149.0474700000006,
          "velocity": 0.6299212598425197,
          "duration": 0.47519793750001327
        },
        {
          "name": "F4",
          "midi": 65,
          "time": 149.5236600000006,
          "velocity": 0.6299212598425197,
          "duration": 0.47519793750001327
        },
        {
          "name": "A4",
          "midi": 69,
          "time": 149.9998500000006,
          "velocity": 0.6299212598425197,
          "duration": 0.47519793750001327
        },
        {
          "name": "C4",
          "midi": 60,
          "time": 150.4760400000006,
          "velocity": 0.6299212598425197,
          "duration": 0.47519793750001327
        },
        {
          "name": "A4",
          "midi": 69,
          "time": 150.9522300000006,
          "velocity": 0.6299212598425197,
          "duration": 0.47519793750001327
        },
        {
          "name": "F4",
          "midi": 65,
          "time": 151.4284200000006,
          "velocity": 0.6299212598425197,
          "duration": 0.23710293749999778
        },
        {
          "name": "F4",
          "midi": 65,
          "time": 151.6665150000006,
          "velocity": 0.6299212598425197,
          "duration": 0.23710293749999778
        },
        {
          "name": "A4",
          "midi": 69,
          "time": 151.9046100000006,
          "velocity": 0.6299212598425197,
          "duration": 0.47519793750001327
        },
        {
          "name": "F4",
          "midi": 65,
          "time": 152.3808000000006,
          "velocity": 0.6299212598425197,
          "duration": 0.47519793750001327
        },
        {
          "name": "C4",
          "midi": 60,
          "time": 153.3331800000006,
          "velocity": 0.6299212598425197,
          "duration": 0.23710293749999778
        },
        {
          "name": "E4",
          "midi": 64,
          "time": 153.57127500000058,
          "velocity": 0.6299212598425197,
          "duration": 0.23710293749999778
        },
        {
          "name": "A4",
          "midi": 69,
          "time": 153.80937000000057,
          "velocity": 0.6299212598425197,
          "duration": 0.47519793750001327
        },
        {
          "name": "C4",
          "midi": 60,
          "time": 154.28556000000057,
          "velocity": 0.6299212598425197,
          "duration": 0.23710293749999778
        },
        {
          "name": "E4",
          "midi": 64,
          "time": 154.52365500000056,
          "velocity": 0.6299212598425197,
          "duration": 0.23710293749999778
        },
        {
          "name": "F4",
          "midi": 65,
          "time": 154.76175000000055,
          "velocity": 0.6299212598425197,
          "duration": 0.47519793750001327
        },
        {
          "name": "C4",
          "midi": 60,
          "time": 155.23794000000055,
          "velocity": 0.6299212598425197,
          "duration": 0.23710293749999778
        },
        {
          "name": "E4",
          "midi": 64,
          "time": 155.47603500000054,
          "velocity": 0.6299212598425197,
          "duration": 0.23710293749999778
        },
        {
          "name": "A4",
          "midi": 69,
          "time": 155.71413000000052,
          "velocity": 0.6299212598425197,
          "duration": 0.47519793750001327
        },
        {
          "name": "C4",
          "midi": 60,
          "time": 156.19032000000053,
          "velocity": 0.6299212598425197,
          "duration": 0.47519793750001327
        },
        {
          "name": "A4",
          "midi": 69,
          "time": 156.66651000000053,
          "velocity": 0.6299212598425197,
          "duration": 0.47519793750001327
        },
        {
          "name": "A4",
          "midi": 69,
          "time": 157.14270000000053,
          "velocity": 0.6299212598425197,
          "duration": 0.47519793750001327
        },
        {
          "name": "C4",
          "midi": 60,
          "time": 157.61889000000053,
          "velocity": 0.6299212598425197,
          "duration": 0.23710293749999778
        },
        {
          "name": "E4",
          "midi": 64,
          "time": 157.61889000000053,
          "velocity": 0.6299212598425197,
          "duration": 0.23710293749999778
        },
        {
          "name": "F4",
          "midi": 65,
          "time": 157.85698500000052,
          "velocity": 0.6299212598425197,
          "duration": 0.23710293749999778
        },
        {
          "name": "A4",
          "midi": 69,
          "time": 157.85698500000052,
          "velocity": 0.6299212598425197,
          "duration": 0.23710293749999778
        },
        {
          "name": "C4",
          "midi": 60,
          "time": 158.0950800000005,
          "velocity": 0.6299212598425197,
          "duration": 0.47519793750001327
        },
        {
          "name": "A4",
          "midi": 69,
          "time": 158.5712700000005,
          "velocity": 0.6299212598425197,
          "duration": 0.47519793750001327
        },
        {
          "name": "F4",
          "midi": 65,
          "time": 159.0474600000005,
          "velocity": 0.6299212598425197,
          "duration": 0.23710293749999778
        },
        {
          "name": "A4",
          "midi": 69,
          "time": 159.0474600000005,
          "velocity": 0.6299212598425197,
          "duration": 0.23710293749999778
        },
        {
          "name": "F4",
          "midi": 65,
          "time": 159.2855550000005,
          "velocity": 0.6299212598425197,
          "duration": 0.23710293749999778
        },
        {
          "name": "A4",
          "midi": 69,
          "time": 159.2855550000005,
          "velocity": 0.6299212598425197,
          "duration": 0.23710293749999778
        },
        {
          "name": "A4",
          "midi": 69,
          "time": 159.5236500000005,
          "velocity": 0.6299212598425197,
          "duration": 0.47519793750001327
        },
        {
          "name": "F4",
          "midi": 65,
          "time": 159.9998400000005,
          "velocity": 0.6299212598425197,
          "duration": 0.47519793750001327
        },
        {
          "name": "F4",
          "midi": 65,
          "time": 160.4760300000005,
          "velocity": 0.6299212598425197,
          "duration": 0.47519793750001327
        },
        {
          "name": "C4",
          "midi": 60,
          "time": 160.9522200000005,
          "velocity": 0.6299212598425197,
          "duration": 0.23710293749999778
        },
        {
          "name": "A4",
          "midi": 69,
          "time": 160.9522200000005,
          "velocity": 0.6299212598425197,
          "duration": 0.23710293749999778
        },
        {
          "name": "E4",
          "midi": 64,
          "time": 161.19031500000048,
          "velocity": 0.6299212598425197,
          "duration": 0.23710293749999778
        },
        {
          "name": "F4",
          "midi": 65,
          "time": 161.19031500000048,
          "velocity": 0.6299212598425197,
          "duration": 0.23710293749999778
        },
        {
          "name": "A4",
          "midi": 69,
          "time": 161.42841000000047,
          "velocity": 0.6299212598425197,
          "duration": 0.47519793750001327
        },
        {
          "name": "C4",
          "midi": 60,
          "time": 161.90460000000047,
          "velocity": 0.6299212598425197,
          "duration": 0.23710293749999778
        },
        {
          "name": "A4",
          "midi": 69,
          "time": 161.90460000000047,
          "velocity": 0.6299212598425197,
          "duration": 0.23710293749999778
        },
        {
          "name": "E4",
          "midi": 64,
          "time": 162.14269500000046,
          "velocity": 0.6299212598425197,
          "duration": 0.23710293749999778
        },
        {
          "name": "F4",
          "midi": 65,
          "time": 162.14269500000046,
          "velocity": 0.6299212598425197,
          "duration": 0.23710293749999778
        },
        {
          "name": "F4",
          "midi": 65,
          "time": 162.38079000000045,
          "velocity": 0.6299212598425197,
          "duration": 0.47519793750001327
        },
        {
          "name": "C4",
          "midi": 60,
          "time": 162.85698000000045,
          "velocity": 0.6299212598425197,
          "duration": 0.23710293749999778
        },
        {
          "name": "A4",
          "midi": 69,
          "time": 162.85698000000045,
          "velocity": 0.6299212598425197,
          "duration": 0.23710293749999778
        },
        {
          "name": "E4",
          "midi": 64,
          "time": 163.09507500000043,
          "velocity": 0.6299212598425197,
          "duration": 0.23710293749999778
        },
        {
          "name": "F4",
          "midi": 65,
          "time": 163.09507500000043,
          "velocity": 0.6299212598425197,
          "duration": 0.23710293749999778
        },
        {
          "name": "A4",
          "midi": 69,
          "time": 163.33317000000042,
          "velocity": 0.6299212598425197,
          "duration": 0.47519793750001327
        },
        {
          "name": "C4",
          "midi": 60,
          "time": 163.80936000000042,
          "velocity": 0.6299212598425197,
          "duration": 0.23710293749999778
        },
        {
          "name": "A4",
          "midi": 69,
          "time": 163.80936000000042,
          "velocity": 0.6299212598425197,
          "duration": 0.23710293749999778
        },
        {
          "name": "E4",
          "midi": 64,
          "time": 164.0474550000004,
          "velocity": 0.6299212598425197,
          "duration": 0.23710293749999778
        },
        {
          "name": "F4",
          "midi": 65,
          "time": 164.0474550000004,
          "velocity": 0.6299212598425197,
          "duration": 0.23710293749999778
        },
        {
          "name": "A4",
          "midi": 69,
          "time": 164.2855500000004,
          "velocity": 0.6299212598425197,
          "duration": 0.47519793750001327
        },
        {
          "name": "F4",
          "midi": 65,
          "time": 164.7617400000004,
          "velocity": 0.6299212598425197,
          "duration": 0.47519793750001327
        },
        {
          "name": "A4",
          "midi": 69,
          "time": 165.2379300000004,
          "velocity": 0.6299212598425197,
          "duration": 0.47519793750001327
        },
        {
          "name": "C4",
          "midi": 60,
          "time": 165.7141200000004,
          "velocity": 0.6299212598425197,
          "duration": 0.47519793750001327
        },
        {
          "name": "A4",
          "midi": 69,
          "time": 166.1903100000004,
          "velocity": 0.6299212598425197,
          "duration": 0.47519793750001327
        },
        {
          "name": "F4",
          "midi": 65,
          "time": 166.6665000000004,
          "velocity": 0.6299212598425197,
          "duration": 0.23710293749999778
        },
        {
          "name": "A4",
          "midi": 69,
          "time": 166.6665000000004,
          "velocity": 0.6299212598425197,
          "duration": 0.23710293749999778
        },
        {
          "name": "F4",
          "midi": 65,
          "time": 166.9045950000004,
          "velocity": 0.6299212598425197,
          "duration": 0.23710293749999778
        },
        {
          "name": "A4",
          "midi": 69,
          "time": 166.9045950000004,
          "velocity": 0.6299212598425197,
          "duration": 0.23710293749999778
        },
        {
          "name": "A4",
          "midi": 69,
          "time": 167.14269000000039,
          "velocity": 0.6299212598425197,
          "duration": 0.47519793750001327
        },
        {
          "name": "F4",
          "midi": 65,
          "time": 167.6188800000004,
          "velocity": 0.6299212598425197,
          "duration": 0.47519793750001327
        },
        {
          "name": "E4",
          "midi": 64,
          "time": 168.0950700000004,
          "velocity": 0.6299212598425197,
          "duration": 0.47519793750001327
        },
        {
          "name": "C4",
          "midi": 60,
          "time": 168.5712600000004,
          "velocity": 0.6299212598425197,
          "duration": 0.23710293749999778
        },
        {
          "name": "A4",
          "midi": 69,
          "time": 168.5712600000004,
          "velocity": 0.6299212598425197,
          "duration": 0.23710293749999778
        },
        {
          "name": "E4",
          "midi": 64,
          "time": 168.80935500000038,
          "velocity": 0.6299212598425197,
          "duration": 0.23710293749999778
        },
        {
          "name": "F4",
          "midi": 65,
          "time": 168.80935500000038,
          "velocity": 0.6299212598425197,
          "duration": 0.23710293749999778
        },
        {
          "name": "A4",
          "midi": 69,
          "time": 169.04745000000037,
          "velocity": 0.6299212598425197,
          "duration": 0.47519793750001327
        },
        {
          "name": "C4",
          "midi": 60,
          "time": 169.52364000000037,
          "velocity": 0.6299212598425197,
          "duration": 0.23710293749999778
        },
        {
          "name": "A4",
          "midi": 69,
          "time": 169.52364000000037,
          "velocity": 0.6299212598425197,
          "duration": 0.23710293749999778
        },
        {
          "name": "E4",
          "midi": 64,
          "time": 169.76173500000036,
          "velocity": 0.6299212598425197,
          "duration": 0.23710293749999778
        },
        {
          "name": "F4",
          "midi": 65,
          "time": 169.76173500000036,
          "velocity": 0.6299212598425197,
          "duration": 0.23710293749999778
        },
        {
          "name": "F4",
          "midi": 65,
          "time": 169.99983000000034,
          "velocity": 0.6299212598425197,
          "duration": 0.47519793750001327
        },
        {
          "name": "C4",
          "midi": 60,
          "time": 170.47602000000035,
          "velocity": 0.6299212598425197,
          "duration": 0.23710293749999778
        },
        {
          "name": "A4",
          "midi": 69,
          "time": 170.47602000000035,
          "velocity": 0.6299212598425197,
          "duration": 0.23710293749999778
        },
        {
          "name": "E4",
          "midi": 64,
          "time": 170.71411500000033,
          "velocity": 0.6299212598425197,
          "duration": 0.23710293749999778
        },
        {
          "name": "F4",
          "midi": 65,
          "time": 170.71411500000033,
          "velocity": 0.6299212598425197,
          "duration": 0.23710293749999778
        },
        {
          "name": "A4",
          "midi": 69,
          "time": 170.95221000000032,
          "velocity": 0.6299212598425197,
          "duration": 0.47519793750001327
        },
        {
          "name": "C4",
          "midi": 60,
          "time": 171.42840000000032,
          "velocity": 0.6299212598425197,
          "duration": 0.47519793750001327
        },
        {
          "name": "C4",
          "midi": 60,
          "time": 171.90459000000033,
          "velocity": 0.6299212598425197,
          "duration": 0.47519793750001327
        },
        {
          "name": "E4",
          "midi": 64,
          "time": 171.90459000000033,
          "velocity": 0.6299212598425197,
          "duration": 0.47519793750001327
        },
        {
          "name": "F4",
          "midi": 65,
          "time": 172.38078000000033,
          "velocity": 0.6299212598425197,
          "duration": 0.47519793750001327
        },
        {
          "name": "A4",
          "midi": 69,
          "time": 172.38078000000033,
          "velocity": 0.6299212598425197,
          "duration": 0.47519793750001327
        },
        {
          "name": "C4",
          "midi": 60,
          "time": 172.85697000000033,
          "velocity": 0.6299212598425197,
          "duration": 0.47519793750001327
        },
        {
          "name": "E4",
          "midi": 64,
          "time": 172.85697000000033,
          "velocity": 0.6299212598425197,
          "duration": 0.47519793750001327
        },
        {
          "name": "F4",
          "midi": 65,
          "time": 173.33316000000033,
          "velocity": 0.6299212598425197,
          "duration": 0.47519793750001327
        },
        {
          "name": "F4",
          "midi": 65,
          "time": 173.80935000000034,
          "velocity": 0.6299212598425197,
          "duration": 0.47519793750001327
        },
        {
          "name": "F4",
          "midi": 65,
          "time": 174.28554000000034,
          "velocity": 0.6299212598425197,
          "duration": 0.47519793750001327
        },
        {
          "name": "F4",
          "midi": 65,
          "time": 174.76173000000034,
          "velocity": 0.6299212598425197,
          "duration": 0.23710293749999778
        },
        {
          "name": "A4",
          "midi": 69,
          "time": 174.76173000000034,
          "velocity": 0.6299212598425197,
          "duration": 0.23710293749999778
        },
        {
          "name": "F4",
          "midi": 65,
          "time": 174.99982500000033,
          "velocity": 0.6299212598425197,
          "duration": 0.23710293749999778
        },
        {
          "name": "A4",
          "midi": 69,
          "time": 174.99982500000033,
          "velocity": 0.6299212598425197,
          "duration": 0.23710293749999778
        }
      ],
      "controlChanges": {
        "6": [
          {
            "number": 6,
            "time": 0,
            "value": 0.09448818897637795
          }
        ],
        "7": [
          {
            "number": 7,
            "time": 0,
            "value": 0.7874015748031497
          }
        ],
        "10": [
          {
            "number": 10,
            "time": 0,
            "value": 0.5039370078740157
          }
        ],
        "91": [
          {
            "number": 91,
            "time": 0,
            "value": 0
          }
        ],
        "93": [
          {
            "number": 93,
            "time": 0,
            "value": 0
          }
        ],
        "100": [
          {
            "number": 100,
            "time": 0,
            "value": 0
          },
          {
            "number": 100,
            "time": 0,
            "value": 1
          }
        ],
        "101": [
          {
            "number": 101,
            "time": 0,
            "value": 0
          },
          {
            "number": 101,
            "time": 0,
            "value": 1
          }
        ],
        "121": [
          {
            "number": 121,
            "time": 0,
            "value": 0
          }
        ]
      },
      "id": 0,
      "name": "Piano",
      "instrumentNumber": 0,
      "instrument": "acoustic grand piano",
      "instrumentFamily": "piano",
      "channelNumber": 0,
      "isPercussion": false
    },
    {
      "startTime": 0,
      "duration": 0,
      "length": 0,
      "notes": [],
      "controlChanges": {},
      "id": 1,
      "name": "Piano"
    }
  ]
}